<svg xmlns="http://www.w3.org/2000/svg" width="408" height="116pt" viewBox="0 0 306.39 116">
    <g class="graph">
        <path fill="#fff" stroke="transparent" d="M0 116V0h306.39v116H0z"/>
        <g class="node" transform="translate(4 112)">
            <ellipse cx="154.39" cy="-90" fill="none" stroke="#000" rx="67.69" ry="18"/>
            <text x="154.39" y="-86.3" font-family="Times,serif" font-size="14" text-anchor="middle">:core:ifw-api</text>
        </g>
        <g class="node" transform="translate(4 112)">
            <ellipse cx="75.39" cy="-18" fill="none" stroke="#000" rx="75.29" ry="18"/>
            <text x="75.39" y="-14.3" font-family="Times,serif" font-size="14" text-anchor="middle">:core:common</text>
        </g>
        <g stroke="red" stroke-width="2" class="edge">
            <path fill="none" d="M139.67 39.59c-10.13 8.98-22.82 20.22-33.93 30.07"/>
            <path fill="red" d="m107.79 72.52-9.81 4.01 5.16-9.25 4.65 5.24z"/>
        </g>
        <g class="node" transform="translate(4 112)">
            <ellipse cx="233.39" cy="-18" fill="none" stroke="#000" rx="64.99" ry="18"/>
            <text x="233.39" y="-14.3" font-family="Times,serif" font-size="14" text-anchor="middle">:core:model</text>
        </g>
        <g stroke="#000" class="edge">
            <path fill="none" d="M177.12 39.59c10.13 8.98 22.81 20.22 33.93 30.07"/>
            <path d="m213.64 67.28 5.17 9.25-9.81-4.01 4.64-5.24z"/>
        </g>
    </g>
</svg>
