<svg xmlns="http://www.w3.org/2000/svg" width="1184pt" height="476pt" viewBox="0 0 1184.28 476">
    <g class="graph">
        <path fill="#fff" stroke="transparent" d="M0 476V0h1184.28v476H0z"/>
        <g class="node" transform="translate(4 472)">
            <ellipse cx="807.54" cy="-450" fill="none" stroke="#000" rx="45.49" ry="18"/>
            <text x="807.54" y="-446.3" font-family="Times,serif" font-size="14" text-anchor="middle">:core:ui</text>
        </g>
        <g class="node" transform="translate(4 472)">
            <ellipse cx="109.54" cy="-162" fill="none" stroke="#000" rx="77.99" ry="18"/>
            <text x="109.54" y="-158.3" font-family="Times,serif" font-size="14" text-anchor="middle">:core:analytics</text>
        </g>
        <g stroke="#000" class="edge">
            <path fill="none" d="M768.55 28.35C662.52 43.22 383.21 92.65 191.54 220c-25.34 16.84-47.46 43.98-61.61 63.86"/>
            <path d="m132.75 285.93-8.57 6.23 2.82-10.21 5.75 3.98z"/>
        </g>
        <g class="node" transform="translate(4 472)">
            <ellipse cx="1075.54" cy="-378" fill="none" stroke="#000" rx="100.98" ry="18"/>
            <text x="1075.54" y="-374.3" font-family="Times,serif" font-size="14" text-anchor="middle">:core:designsystem</text>
        </g>
        <g stroke="#000" class="edge">
            <path fill="none" d="M848.52 32.66c42.9 11.2 114.39 29.88 166.5 43.49"/>
            <path d="m1016.05 72.8 8.79 5.91-10.56.86 1.77-6.77z"/>
        </g>
        <g class="node" transform="translate(4 472)">
            <ellipse cx="644.54" cy="-18" fill="none" stroke="#000" rx="64.99" ry="18"/>
            <text x="644.54" y="-14.3" font-family="Times,serif" font-size="14" text-anchor="middle">:core:model</text>
        </g>
        <g stroke="#000" class="edge">
            <path fill="none" d="M840 36.17C880.67 57.18 950.54 102.39 950.54 165v146c0 100.42-138.43 129.95-227.84 138.56"/>
            <path d="m722.86 453.05-10.27-2.59 9.65-4.38.62 6.97z"/>
        </g>
        <g class="node" transform="translate(4 472)">
            <ellipse cx="699.54" cy="-378" fill="none" stroke="#000" rx="70.69" ry="18"/>
            <text x="699.54" y="-374.3" font-family="Times,serif" font-size="14" text-anchor="middle">:core:domain</text>
        </g>
        <g stroke="red" stroke-width="2" class="edge">
            <path fill="none" d="M788.9 37.67c-15.06 9.77-35.11 22.76-51.99 33.7"/>
            <path fill="red" d="m738.71 74.38-10.3 2.5 6.49-8.38 3.81 5.88z"/>
        </g>
        <g stroke="#000" class="edge">
            <path fill="none" d="M755.74 106.31c61.91 16.85 156.8 55.02 156.8 130.69v74c0 88.03-115.26 121.73-193.47 134.46"/>
            <path d="m719.19 448.98-10.41-1.93 9.34-4.99 1.07 6.92z"/>
        </g>
        <g class="node" transform="translate(4 472)">
            <ellipse cx="253.54" cy="-234" fill="none" stroke="#000" rx="57.39" ry="18"/>
            <text x="253.54" y="-230.3" font-family="Times,serif" font-size="14" text-anchor="middle">:core:data</text>
        </g>
        <g stroke="#000" class="edge">
            <path fill="none" d="M661.18 108.49c-83.12 26.46-267.13 85.05-355.04 113.04"/>
            <path d="m307.01 224.92-10.59-.3 8.46-6.37 2.13 6.67z"/>
        </g>
        <g class="node" transform="translate(4 472)">
            <ellipse cx="310.54" cy="-18" fill="none" stroke="#000" rx="75.29" ry="18"/>
            <text x="310.54" y="-14.3" font-family="Times,serif" font-size="14" text-anchor="middle">:core:common</text>
        </g>
        <g stroke="#000" class="edge">
            <path fill="none" d="M632.65 94.61C455.49 95.52 7.54 110.36 7.54 237v74c0 45.59 14.09 62.24 51 89 .98.71 115.29 24.2 190.81 39.67"/>
            <path d="m250.18 436.27 9.09 5.43-10.5 1.43 1.41-6.86z"/>
        </g>
        <g class="node" transform="translate(4 472)">
            <ellipse cx="668.54" cy="-162" fill="none" stroke="#000" rx="135.68" ry="18"/>
            <text x="668.54" y="-158.3" font-family="Times,serif" font-size="14" text-anchor="middle">:core:component-controller</text>
        </g>
        <g stroke="#000" class="edge">
            <path fill="none" d="M701.06 112.15c-5.37 37.02-18.06 124.67-24.55 169.46"/>
            <path d="m679.93 282.37-4.89 9.4-2.03-10.4 6.92 1z"/>
        </g>
        <g class="node" transform="translate(4 472)">
            <ellipse cx="740.54" cy="-90" fill="none" stroke="#000" rx="67.69" ry="18"/>
            <text x="740.54" y="-86.3" font-family="Times,serif" font-size="14" text-anchor="middle">:core:ifw-api</text>
        </g>
        <g stroke="#000" class="edge">
            <path fill="none" d="M719.61 111.65c29.49 31.86 91.31 105 113.93 180.35 4.6 15.32 7.91 22.09 0 36-8.77 15.42-23.99 26.83-39.39 35.02"/>
            <path d="m795.62 366.2-10.52 1.28 7.42-7.56 3.1 6.28z"/>
        </g>
        <g class="node" transform="translate(4 472)">
            <ellipse cx="616.54" cy="-306" fill="none" stroke="#000" rx="55.49" ry="18"/>
            <text x="616.54" y="-302.3" font-family="Times,serif" font-size="14" text-anchor="middle">:core:rule</text>
        </g>
        <g stroke="red" stroke-width="2" class="edge">
            <path fill="none" d="M683.87 111.59c-10.91 9.2-24.62 20.77-36.5 30.78"/>
            <path fill="red" d="m649.4 145.24-9.9 3.77 5.39-9.12 4.51 5.35z"/>
        </g>
        <g stroke="#000" class="edge">
            <path fill="none" d="m227.7 253.5-73.07 35.53"/>
            <path d="m155.86 292.32-10.52 1.22 7.46-7.52 3.06 6.3z"/>
        </g>
        <g stroke="#000" class="edge">
            <path fill="none" d="M257.82 256.01c.99 30 5.28 93.86 23.72 143.99 3.46 9.41 8.73 18.95 14.05 27.28"/>
            <path d="m298.64 425.54 2.66 10.26-8.48-6.36 5.82-3.9z"/>
        </g>
        <g stroke="red" stroke-width="2" class="edge">
            <path fill="none" d="M306.78 247.3c67.67 11.42 190.63 32.16 275.17 46.42"/>
            <path fill="red" d="m582.78 290.31 9.28 5.12-10.44 1.78 1.16-6.9z"/>
        </g>
        <g class="node" transform="translate(4 472)">
            <ellipse cx="436.54" cy="-162" fill="none" stroke="#000" rx="78.79" ry="18"/>
            <text x="436.54" y="-158.3" font-family="Times,serif" font-size="14" text-anchor="middle">:core:database</text>
        </g>
        <g stroke="#000" class="edge">
            <path fill="none" d="M292.39 252.33c28.38 10.86 68.75 26.3 100.19 38.32"/>
            <path d="m393.93 287.42 8.09 6.85-10.59-.31 2.5-6.54z"/>
        </g>
        <g class="node" transform="translate(4 472)">
            <ellipse cx="144.54" cy="-90" fill="none" stroke="#000" rx="81.49" ry="18"/>
            <text x="144.54" y="-86.3" font-family="Times,serif" font-size="14" text-anchor="middle">:core:datastore</text>
        </g>
        <g stroke="#000" class="edge">
            <path fill="none" d="M248.21 255.77c-10.58 18.42-28.8 48.55-47.67 72.23-8.03 10.08-17.72 20.37-26.55 29.17"/>
            <path d="m176.42 359.69-9.59 4.49 4.7-9.5 4.89 5.01z"/>
        </g>
        <g class="node" transform="translate(4 472)">
            <ellipse cx="432.54" cy="-90" fill="none" stroke="#000" rx="74.99" ry="18"/>
            <text x="432.54" y="-86.3" font-family="Times,serif" font-size="14" text-anchor="middle">:core:network</text>
        </g>
        <g stroke="#000" class="edge">
            <path fill="none" d="M273.17 255.42c18.18 18.66 49.5 49.5 79.37 72.58 14.83 11.46 32.2 22.74 47.29 31.93"/>
            <path d="m401.65 356.93 6.77 8.15-10.38-2.15 3.61-6z"/>
        </g>
        <g stroke="#000" class="edge">
            <path fill="none" d="M669.65 328.13c-4.09 24.2-11.61 68.66-16.48 97.48"/>
            <path d="m656.56 426.53-5.11 9.28-1.79-10.44 6.9 1.16z"/>
        </g>
        <g stroke="#000" class="edge">
            <path fill="none" d="M574.2 322.47c-87.49 10.98-204.25 27.86-221.66 41.53-19.24 15.11-28.89 41.83-33.63 62.06"/>
            <path d="m322.32 426.87-5.47 9.08-1.39-10.5 6.86 1.42z"/>
        </g>
        <g stroke="red" stroke-width="2" class="edge">
            <path fill="none" d="M689.97 327.95c9.02 8.77 20.18 19.62 30.06 29.22"/>
            <path fill="red" d="m722.54 354.73 4.73 9.48-9.61-4.46 4.88-5.02z"/>
        </g>
        <g stroke="#000" class="edge">
            <path fill="none" d="M722.27 399.24c-12.84 9.36-29.17 21.27-43.2 31.5"/>
            <path d="m680.83 433.79-10.14 3.06 6.01-8.72 4.13 5.66z"/>
        </g>
        <g stroke="red" stroke-width="2" class="edge">
            <path fill="none" d="M688.33 392.15c-77.88 12.68-218.56 35.58-303.35 49.38"/>
            <path fill="red" d="m385.36 445.02-10.44-1.85 9.31-5.06 1.13 6.91z"/>
        </g>
        <g stroke="red" stroke-width="2" class="edge">
            <path fill="none" d="M572.33 174.91C514.3 184.62 414 202.03 328.54 220c-5.72 1.2-11.69 2.52-17.62 3.88"/>
            <path fill="red" d="m311.54 227.33-10.53-1.14 8.95-5.68 1.58 6.82z"/>
        </g>
        <g stroke="#000" class="edge">
            <path fill="none" d="M576.34 176.84c-58.57 15.19-161.73 49.67-223.8 115.16-34.56 36.46-39.63 98.25-39.38 133.74"/>
            <path d="m316.66 425.78-3.28 10.08-3.72-9.92 7-.16z"/>
        </g>
        <g stroke="#000" class="edge">
            <path fill="none" d="M626.81 184.13c8.94 24.41 25.43 69.44 35.98 98.23"/>
            <path d="m666.09 281.22.16 10.59-6.73-8.19 6.57-2.4z"/>
        </g>
        <g stroke="#000" class="edge">
            <path fill="none" d="M659.41 178.82c47.17 16.69 124.56 52.13 158.13 113.18 7.71 14.02 7.27 21.75 0 36-6.93 13.6-19.18 24.53-31.68 32.85"/>
            <path d="m787.58 363.91-10.35 2.29 6.66-8.24 3.69 5.95z"/>
        </g>
        <g stroke="#000" class="edge">
            <path fill="none" d="M465.5 327.33c15.83 10.41 36.71 24.23 55.04 36.67 33.4 22.67 71.33 49.13 97.17 67.27"/>
            <path d="m619.82 428.48 6.17 8.61-10.2-2.88 4.03-5.73z"/>
        </g>
        <g stroke="#000" class="edge">
            <path fill="none" d="M215.19 392.33c95.69 13.4 270.96 37.94 366.67 51.33"/>
            <path d="m582.57 440.23 9.42 4.85-10.39 2.08.97-6.93z"/>
        </g>
        <g stroke="#000" class="edge">
            <path fill="none" d="M184.56 398.19c24.97 10.53 58.39 24.62 85.1 35.88"/>
            <path d="m271.31 430.97 7.85 7.11-10.57-.66 2.72-6.45z"/>
        </g>
        <g class="node" transform="translate(4 472)">
            <ellipse cx="108.54" cy="-18" fill="none" stroke="#000" rx="108.58" ry="18"/>
            <text x="108.54" y="-14.3" font-family="Times,serif" font-size="14" text-anchor="middle">:core:datastore-proto</text>
        </g>
        <g stroke="#000" class="edge">
            <path fill="none" d="M139.83 399.95c-4.14 8.04-9.18 17.85-13.8 26.82"/>
            <path d="m129.11 428.43-7.69 7.29 1.47-10.49 6.22 3.2z"/>
        </g>
        <g stroke="#000" class="edge">
            <path fill="none" d="M478.68 396.91c34.44 11.37 83.21 27.48 119.67 39.52"/>
            <path d="m599.88 433.25 8.4 6.46-10.59.18 2.19-6.64z"/>
        </g>
        <g stroke="#000" class="edge">
            <path fill="none" d="M408.86 398.88c-17.16 9.85-39.39 22.6-57.96 33.26"/>
            <path d="m352.53 435.24-10.42 1.94 6.94-8.01 3.48 6.07z"/>
        </g>
    </g>
</svg>
