<?xml version="1.0" encoding="UTF-8" standalone="no"?>
<!DOCTYPE svg PUBLIC "-//W3C//DTD SVG 1.1//EN"
 "http://www.w3.org/Graphics/SVG/1.1/DTD/svg11.dtd">
<!-- Generated by graphviz version 2.43.0 (0)
 -->
<!-- Title: G Pages: 1 -->
<svg width="990pt" height="548pt"
 viewBox="0.00 0.00 990.00 548.00" xmlns="http://www.w3.org/2000/svg" xmlns:xlink="http://www.w3.org/1999/xlink">
<g id="graph0" class="graph" transform="scale(1 1) rotate(0) translate(4 544)">
<title>G</title>
<polygon fill="white" stroke="transparent" points="-4,4 -4,-544 986,-544 986,4 -4,4"/>
<!-- :feature:applist -->
<g id="node1" class="node">
<title>:feature:applist</title>
<ellipse fill="none" stroke="black" cx="514" cy="-522" rx="81.79" ry="18"/>
<text text-anchor="middle" x="514" y="-518.3" font-family="Times,serif" font-size="14.00">:feature:applist</text>
</g>
<!-- :core:ui -->
<g id="node2" class="node">
<title>:core:ui</title>
<ellipse fill="none" stroke="black" cx="663" cy="-450" rx="45.49" ry="18"/>
<text text-anchor="middle" x="663" y="-446.3" font-family="Times,serif" font-size="14.00">:core:ui</text>
</g>
<!-- :feature:applist&#45;&gt;:core:ui -->
<g id="edge1" class="edge">
<title>:feature:applist&#45;&gt;:core:ui</title>
<path fill="none" stroke="red" stroke-width="2" d="M547.07,-505.46C570.23,-494.58 601.22,-480.02 625.34,-468.69"/>
<polygon fill="red" stroke="red" stroke-width="2" points="626.98,-471.79 634.54,-464.37 624,-465.45 626.98,-471.79"/>
</g>
<!-- :core:designsystem -->
<g id="node3" class="node">
<title>:core:designsystem</title>
<ellipse fill="none" stroke="black" cx="663" cy="-378" rx="100.98" ry="18"/>
<text text-anchor="middle" x="663" y="-374.3" font-family="Times,serif" font-size="14.00">:core:designsystem</text>
</g>
<!-- :feature:applist&#45;&gt;:core:designsystem -->
<g id="edge2" class="edge">
<title>:feature:applist&#45;&gt;:core:designsystem</title>
<path fill="none" stroke="black" d="M531.68,-504.15C558,-479.07 607.63,-431.77 637.76,-403.05"/>
<polygon fill="black" stroke="black" points="640.52,-405.26 645.35,-395.82 635.69,-400.19 640.52,-405.26"/>
</g>
<!-- :core:component&#45;controller -->
<g id="node4" class="node">
<title>:core:component&#45;controller</title>
<ellipse fill="none" stroke="black" cx="316" cy="-162" rx="135.68" ry="18"/>
<text text-anchor="middle" x="316" y="-158.3" font-family="Times,serif" font-size="14.00">:core:component&#45;controller</text>
</g>
<!-- :feature:applist&#45;&gt;:core:component&#45;controller -->
<g id="edge3" class="edge">
<title>:feature:applist&#45;&gt;:core:component&#45;controller</title>
<path fill="none" stroke="black" d="M452.59,-510.02C349.31,-489.79 152,-442.8 152,-379 152,-379 152,-379 152,-305 152,-245.51 214.45,-205.37 262.27,-183.35"/>
<polygon fill="black" stroke="black" points="263.91,-186.45 271.62,-179.19 261.06,-180.06 263.91,-186.45"/>
</g>
<!-- :core:data -->
<g id="node5" class="node">
<title>:core:data</title>
<ellipse fill="none" stroke="black" cx="518" cy="-234" rx="57.39" ry="18"/>
<text text-anchor="middle" x="518" y="-230.3" font-family="Times,serif" font-size="14.00">:core:data</text>
</g>
<!-- :feature:applist&#45;&gt;:core:data -->
<g id="edge4" class="edge">
<title>:feature:applist&#45;&gt;:core:data</title>
<path fill="none" stroke="black" d="M514.24,-503.97C514.91,-456.29 516.79,-321.18 517.61,-262.63"/>
<polygon fill="black" stroke="black" points="521.12,-262.35 517.76,-252.31 514.12,-262.26 521.12,-262.35"/>
</g>
<!-- :core:domain -->
<g id="node6" class="node">
<title>:core:domain</title>
<ellipse fill="none" stroke="black" cx="422" cy="-378" rx="70.69" ry="18"/>
<text text-anchor="middle" x="422" y="-374.3" font-family="Times,serif" font-size="14.00">:core:domain</text>
</g>
<!-- :feature:applist&#45;&gt;:core:domain -->
<g id="edge5" class="edge">
<title>:feature:applist&#45;&gt;:core:domain</title>
<path fill="none" stroke="black" d="M503.09,-504.15C487.11,-479.49 457.23,-433.37 438.54,-404.53"/>
<polygon fill="black" stroke="black" points="441.28,-402.31 432.9,-395.82 435.4,-406.12 441.28,-402.31"/>
</g>
<!-- :core:ifw&#45;api -->
<g id="node7" class="node">
<title>:core:ifw&#45;api</title>
<ellipse fill="none" stroke="black" cx="213" cy="-90" rx="67.69" ry="18"/>
<text text-anchor="middle" x="213" y="-86.3" font-family="Times,serif" font-size="14.00">:core:ifw&#45;api</text>
</g>
<!-- :feature:applist&#45;&gt;:core:ifw&#45;api -->
<g id="edge6" class="edge">
<title>:feature:applist&#45;&gt;:core:ifw&#45;api</title>
<path fill="none" stroke="black" d="M437.05,-515.76C293.66,-503.86 0,-468.57 0,-379 0,-379 0,-379 0,-233 0,-159.7 88.41,-121.91 151.31,-104.3"/>
<polygon fill="black" stroke="black" points="152.42,-107.62 161.17,-101.64 150.6,-100.86 152.42,-107.62"/>
</g>
<!-- :core:ui&#45;&gt;:core:designsystem -->
<g id="edge8" class="edge">
<title>:core:ui&#45;&gt;:core:designsystem</title>
<path fill="none" stroke="black" d="M663,-431.7C663,-423.98 663,-414.71 663,-406.11"/>
<polygon fill="black" stroke="black" points="666.5,-406.1 663,-396.1 659.5,-406.1 666.5,-406.1"/>
</g>
<!-- :core:ui&#45;&gt;:core:domain -->
<g id="edge10" class="edge">
<title>:core:ui&#45;&gt;:core:domain</title>
<path fill="none" stroke="red" stroke-width="2" d="M627.44,-438.67C587.67,-427.12 522.8,-408.28 476.59,-394.86"/>
<polygon fill="red" stroke="red" stroke-width="2" points="477.32,-391.42 466.74,-391.99 475.37,-398.15 477.32,-391.42"/>
</g>
<!-- :core:analytics -->
<g id="node8" class="node">
<title>:core:analytics</title>
<ellipse fill="none" stroke="black" cx="876" cy="-162" rx="77.99" ry="18"/>
<text text-anchor="middle" x="876" y="-158.3" font-family="Times,serif" font-size="14.00">:core:analytics</text>
</g>
<!-- :core:ui&#45;&gt;:core:analytics -->
<g id="edge7" class="edge">
<title>:core:ui&#45;&gt;:core:analytics</title>
<path fill="none" stroke="black" d="M698.86,-438.91C722.5,-430.68 752.73,-416.95 773,-396 831.19,-335.87 859.63,-237.36 870.51,-190.04"/>
<polygon fill="black" stroke="black" points="873.94,-190.74 872.68,-180.22 867.1,-189.23 873.94,-190.74"/>
</g>
<!-- :core:model -->
<g id="node9" class="node">
<title>:core:model</title>
<ellipse fill="none" stroke="black" cx="574" cy="-18" rx="64.99" ry="18"/>
<text text-anchor="middle" x="574" y="-14.3" font-family="Times,serif" font-size="14.00">:core:model</text>
</g>
<!-- :core:ui&#45;&gt;:core:model -->
<g id="edge9" class="edge">
<title>:core:ui&#45;&gt;:core:model</title>
<path fill="none" stroke="black" d="M708.7,-448.79C796.91,-445.73 982,-425.21 982,-307 982,-307 982,-307 982,-161 982,-2.5 802.56,-71.14 648,-36 642.78,-34.81 637.35,-33.57 631.91,-32.33"/>
<polygon fill="black" stroke="black" points="632.69,-28.92 622.16,-30.1 631.12,-35.74 632.69,-28.92"/>
</g>
<!-- :core:component&#45;controller&#45;&gt;:core:ifw&#45;api -->
<g id="edge31" class="edge">
<title>:core:component&#45;controller&#45;&gt;:core:ifw&#45;api</title>
<path fill="none" stroke="red" stroke-width="2" d="M291.33,-144.23C277.4,-134.77 259.84,-122.83 244.87,-112.66"/>
<polygon fill="red" stroke="red" stroke-width="2" points="246.65,-109.63 236.41,-106.91 242.71,-115.42 246.65,-109.63"/>
</g>
<!-- :core:component&#45;controller&#45;&gt;:core:model -->
<g id="edge30" class="edge">
<title>:core:component&#45;controller&#45;&gt;:core:model</title>
<path fill="none" stroke="black" d="M434.06,-153.01C470.05,-145.54 507.57,-132.03 536,-108 554.57,-92.3 564.29,-65.89 569.23,-45.91"/>
<polygon fill="black" stroke="black" points="572.65,-46.66 571.4,-36.14 565.82,-45.14 572.65,-46.66"/>
</g>
<!-- :core:common -->
<g id="node10" class="node">
<title>:core:common</title>
<ellipse fill="none" stroke="black" cx="311" cy="-18" rx="75.29" ry="18"/>
<text text-anchor="middle" x="311" y="-14.3" font-family="Times,serif" font-size="14.00">:core:common</text>
</g>
<!-- :core:component&#45;controller&#45;&gt;:core:common -->
<g id="edge29" class="edge">
<title>:core:component&#45;controller&#45;&gt;:core:common</title>
<path fill="none" stroke="black" d="M315.4,-143.87C314.54,-119.67 312.98,-75.21 311.96,-46.39"/>
<polygon fill="black" stroke="black" points="315.46,-46.06 311.61,-36.19 308.46,-46.31 315.46,-46.06"/>
</g>
<!-- :core:data&#45;&gt;:core:component&#45;controller -->
<g id="edge22" class="edge">
<title>:core:data&#45;&gt;:core:component&#45;controller</title>
<path fill="none" stroke="red" stroke-width="2" d="M480.95,-220.16C450.34,-209.55 406.42,-194.33 371.6,-182.27"/>
<polygon fill="red" stroke="red" stroke-width="2" points="372.63,-178.92 362.03,-178.95 370.34,-185.53 372.63,-178.92"/>
</g>
<!-- :core:data&#45;&gt;:core:analytics -->
<g id="edge21" class="edge">
<title>:core:data&#45;&gt;:core:analytics</title>
<path fill="none" stroke="black" d="M565.17,-223.78C627.42,-211.6 737.41,-190.1 808.47,-176.2"/>
<polygon fill="black" stroke="black" points="809.52,-179.57 818.66,-174.21 808.18,-172.7 809.52,-179.57"/>
</g>
<!-- :core:data&#45;&gt;:core:common -->
<g id="edge17" class="edge">
<title>:core:data&#45;&gt;:core:common</title>
<path fill="none" stroke="black" d="M511.04,-215.95C502.16,-196.13 485.01,-163.62 461,-144 426.68,-115.95 402.32,-136.05 368,-108 347.46,-91.21 331.94,-65 322.32,-45.36"/>
<polygon fill="black" stroke="black" points="325.37,-43.62 317.96,-36.05 319.03,-46.59 325.37,-43.62"/>
</g>
<!-- :core:database -->
<g id="node12" class="node">
<title>:core:database</title>
<ellipse fill="none" stroke="black" cx="625" cy="-162" rx="78.79" ry="18"/>
<text text-anchor="middle" x="625" y="-158.3" font-family="Times,serif" font-size="14.00">:core:database</text>
</g>
<!-- :core:data&#45;&gt;:core:database -->
<g id="edge18" class="edge">
<title>:core:data&#45;&gt;:core:database</title>
<path fill="none" stroke="black" d="M541.75,-217.46C556.4,-207.88 575.41,-195.44 591.57,-184.87"/>
<polygon fill="black" stroke="black" points="593.75,-187.63 600.2,-179.22 589.92,-181.77 593.75,-187.63"/>
</g>
<!-- :core:datastore -->
<g id="node13" class="node">
<title>:core:datastore</title>
<ellipse fill="none" stroke="black" cx="702" cy="-90" rx="81.49" ry="18"/>
<text text-anchor="middle" x="702" y="-86.3" font-family="Times,serif" font-size="14.00">:core:datastore</text>
</g>
<!-- :core:data&#45;&gt;:core:datastore -->
<g id="edge19" class="edge">
<title>:core:data&#45;&gt;:core:datastore</title>
<path fill="none" stroke="black" d="M569.63,-226.09C621.33,-217.99 695.63,-202.71 713,-180 726.53,-162.31 721.5,-136.59 714.43,-117.35"/>
<polygon fill="black" stroke="black" points="717.63,-115.92 710.64,-107.95 711.14,-118.54 717.63,-115.92"/>
</g>
<!-- :core:network -->
<g id="node14" class="node">
<title>:core:network</title>
<ellipse fill="none" stroke="black" cx="452" cy="-90" rx="74.99" ry="18"/>
<text text-anchor="middle" x="452" y="-86.3" font-family="Times,serif" font-size="14.00">:core:network</text>
</g>
<!-- :core:data&#45;&gt;:core:network -->
<g id="edge20" class="edge">
<title>:core:data&#45;&gt;:core:network</title>
<path fill="none" stroke="black" d="M515.5,-215.86C512.34,-197.37 505.81,-167.44 494,-144 488.96,-133.99 481.83,-124.07 474.88,-115.57"/>
<polygon fill="black" stroke="black" points="477.49,-113.24 468.34,-107.9 472.16,-117.78 477.49,-113.24"/>
</g>
<!-- :core:domain&#45;&gt;:core:component&#45;controller -->
<g id="edge14" class="edge">
<title>:core:domain&#45;&gt;:core:component&#45;controller</title>
<path fill="none" stroke="black" d="M414.11,-359.86C405.79,-341.88 392.21,-312.84 380,-288 363.11,-253.66 342.88,-214.44 329.75,-189.24"/>
<polygon fill="black" stroke="black" points="332.81,-187.55 325.08,-180.3 326.61,-190.79 332.81,-187.55"/>
</g>
<!-- :core:domain&#45;&gt;:core:data -->
<g id="edge11" class="edge">
<title>:core:domain&#45;&gt;:core:data</title>
<path fill="none" stroke="black" d="M433.48,-359.93C445.55,-342 465.08,-313 482,-288 488.17,-278.88 494.95,-268.89 500.95,-260.06"/>
<polygon fill="black" stroke="black" points="503.91,-261.94 506.64,-251.7 498.12,-258 503.91,-261.94"/>
</g>
<!-- :core:domain&#45;&gt;:core:ifw&#45;api -->
<g id="edge15" class="edge">
<title>:core:domain&#45;&gt;:core:ifw&#45;api</title>
<path fill="none" stroke="black" d="M364.14,-367.43C329.49,-359.72 285.76,-346.37 252,-324 217.04,-300.84 212.45,-288.04 191,-252 165.64,-209.39 144.69,-190.08 163,-144 167.48,-132.73 175.62,-122.46 184.05,-114.03"/>
<polygon fill="black" stroke="black" points="186.53,-116.5 191.45,-107.11 181.75,-111.39 186.53,-116.5"/>
</g>
<!-- :core:domain&#45;&gt;:core:model -->
<g id="edge12" class="edge">
<title>:core:domain&#45;&gt;:core:model</title>
<path fill="none" stroke="black" d="M464.94,-363.57C550.47,-333.98 738.48,-253.96 792,-108 797.51,-92.98 801.89,-84.58 792,-72 790.73,-70.38 695.91,-47.75 631.75,-32.59"/>
<polygon fill="black" stroke="black" points="632.28,-29.12 621.74,-30.22 630.67,-35.93 632.28,-29.12"/>
</g>
<!-- :core:domain&#45;&gt;:core:common -->
<g id="edge13" class="edge">
<title>:core:domain&#45;&gt;:core:common</title>
<path fill="none" stroke="black" d="M363.26,-367.82C255.69,-349.35 38,-303.5 38,-235 38,-235 38,-235 38,-161 38,-73.01 151.01,-39.46 231.61,-26.73"/>
<polygon fill="black" stroke="black" points="232.39,-30.15 241.76,-25.2 231.35,-23.22 232.39,-30.15"/>
</g>
<!-- :core:rule -->
<g id="node11" class="node">
<title>:core:rule</title>
<ellipse fill="none" stroke="black" cx="316" cy="-306" rx="55.49" ry="18"/>
<text text-anchor="middle" x="316" y="-302.3" font-family="Times,serif" font-size="14.00">:core:rule</text>
</g>
<!-- :core:domain&#45;&gt;:core:rule -->
<g id="edge16" class="edge">
<title>:core:domain&#45;&gt;:core:rule</title>
<path fill="none" stroke="red" stroke-width="2" d="M397.68,-360.94C382.93,-351.2 363.94,-338.66 347.98,-328.12"/>
<polygon fill="red" stroke="red" stroke-width="2" points="349.75,-325.09 339.48,-322.5 345.89,-330.93 349.75,-325.09"/>
</g>
<!-- :core:ifw&#45;api&#45;&gt;:core:model -->
<g id="edge33" class="edge">
<title>:core:ifw&#45;api&#45;&gt;:core:model</title>
<path fill="none" stroke="black" d="M265.88,-78.75C331.49,-66.02 443.16,-44.37 512.53,-30.92"/>
<polygon fill="black" stroke="black" points="513.29,-34.34 522.44,-29 511.96,-27.47 513.29,-34.34"/>
</g>
<!-- :core:ifw&#45;api&#45;&gt;:core:common -->
<g id="edge32" class="edge">
<title>:core:ifw&#45;api&#45;&gt;:core:common</title>
<path fill="none" stroke="red" stroke-width="2" d="M235.73,-72.76C248.75,-63.47 265.28,-51.66 279.53,-41.48"/>
<polygon fill="red" stroke="red" stroke-width="2" points="281.95,-44.05 288.05,-35.39 277.88,-38.35 281.95,-44.05"/>
</g>
<!-- :core:rule&#45;&gt;:core:component&#45;controller -->
<g id="edge35" class="edge">
<title>:core:rule&#45;&gt;:core:component&#45;controller</title>
<path fill="none" stroke="black" d="M316,-287.87C316,-263.67 316,-219.21 316,-190.39"/>
<polygon fill="black" stroke="black" points="319.5,-190.19 316,-180.19 312.5,-190.19 319.5,-190.19"/>
</g>
<!-- :core:rule&#45;&gt;:core:data -->
<g id="edge36" class="edge">
<title>:core:rule&#45;&gt;:core:data</title>
<path fill="none" stroke="red" stroke-width="2" d="M352.58,-292.32C385.84,-280.8 435.08,-263.73 471.2,-251.22"/>
<polygon fill="red" stroke="red" stroke-width="2" points="472.71,-254.4 481.01,-247.82 470.41,-247.79 472.71,-254.4"/>
</g>
<!-- :core:rule&#45;&gt;:core:ifw&#45;api -->
<g id="edge37" class="edge">
<title>:core:rule&#45;&gt;:core:ifw&#45;api</title>
<path fill="none" stroke="black" d="M287.41,-290.41C252.42,-270.76 194.88,-232.12 171,-180 164.33,-165.45 165.74,-159.11 171,-144 174.63,-133.58 181.25,-123.67 188.18,-115.3"/>
<polygon fill="black" stroke="black" points="190.83,-117.59 194.83,-107.78 185.59,-112.95 190.83,-117.59"/>
</g>
<!-- :core:rule&#45;&gt;:core:common -->
<g id="edge34" class="edge">
<title>:core:rule&#45;&gt;:core:common</title>
<path fill="none" stroke="black" d="M271.38,-295.37C244.98,-287.62 212.59,-274.25 191,-252 132.75,-191.97 86.15,-139.18 136,-72 157.09,-43.58 193,-29.86 226.83,-23.43"/>
<polygon fill="black" stroke="black" points="227.5,-26.86 236.77,-21.73 226.32,-19.96 227.5,-26.86"/>
</g>
<!-- :core:database&#45;&gt;:core:model -->
<g id="edge23" class="edge">
<title>:core:database&#45;&gt;:core:model</title>
<path fill="none" stroke="black" d="M618.85,-143.87C610.08,-119.46 593.91,-74.43 583.57,-45.64"/>
<polygon fill="black" stroke="black" points="586.85,-44.42 580.17,-36.19 580.26,-46.78 586.85,-44.42"/>
</g>
<!-- :core:datastore&#45;&gt;:core:model -->
<g id="edge25" class="edge">
<title>:core:datastore&#45;&gt;:core:model</title>
<path fill="none" stroke="black" d="M672.95,-73.12C654.62,-63.09 630.75,-50.04 611.06,-39.27"/>
<polygon fill="black" stroke="black" points="612.5,-36.07 602.05,-34.34 609.14,-42.21 612.5,-36.07"/>
</g>
<!-- :core:datastore&#45;&gt;:core:common -->
<g id="edge26" class="edge">
<title>:core:datastore&#45;&gt;:core:common</title>
<path fill="none" stroke="black" d="M640.91,-78.06C570.03,-65.37 453.48,-44.51 379.57,-31.28"/>
<polygon fill="black" stroke="black" points="379.89,-27.78 369.43,-29.46 378.66,-34.67 379.89,-27.78"/>
</g>
<!-- :core:datastore&#45;proto -->
<g id="node15" class="node">
<title>:core:datastore&#45;proto</title>
<ellipse fill="none" stroke="black" cx="766" cy="-18" rx="108.58" ry="18"/>
<text text-anchor="middle" x="766" y="-14.3" font-family="Times,serif" font-size="14.00">:core:datastore&#45;proto</text>
</g>
<!-- :core:datastore&#45;&gt;:core:datastore&#45;proto -->
<g id="edge24" class="edge">
<title>:core:datastore&#45;&gt;:core:datastore&#45;proto</title>
<path fill="none" stroke="black" d="M717.49,-72.05C725.24,-63.58 734.76,-53.17 743.31,-43.82"/>
<polygon fill="black" stroke="black" points="746.04,-46.02 750.21,-36.28 740.87,-41.29 746.04,-46.02"/>
</g>
<!-- :core:network&#45;&gt;:core:model -->
<g id="edge28" class="edge">
<title>:core:network&#45;&gt;:core:model</title>
<path fill="none" stroke="black" d="M479.68,-73.12C496.96,-63.2 519.39,-50.34 538.03,-39.64"/>
<polygon fill="black" stroke="black" points="539.91,-42.59 546.85,-34.58 536.43,-36.52 539.91,-42.59"/>
</g>
<!-- :core:network&#45;&gt;:core:common -->
<g id="edge27" class="edge">
<title>:core:network&#45;&gt;:core:common</title>
<path fill="none" stroke="black" d="M420.71,-73.46C400.26,-63.31 373.37,-49.96 351.32,-39.02"/>
<polygon fill="black" stroke="black" points="352.72,-35.8 342.2,-34.49 349.61,-42.07 352.72,-35.8"/>
</g>
</g>
</svg>
