<svg xmlns="http://www.w3.org/2000/svg" width="1320" height="548pt" viewBox="0 0 990 548">
    <g class="graph">
        <path fill="#fff" stroke="transparent" d="M0 548V0h990v548H0z"/>
        <g class="node" transform="translate(4 544)">
            <ellipse cx="514" cy="-522" fill="none" stroke="#000" rx="81.79" ry="18"/>
            <text x="514" y="-518.3" font-family="Times,serif" font-size="14" text-anchor="middle">:feature:applist</text>
        </g>
        <g class="node" transform="translate(4 544)">
            <ellipse cx="663" cy="-450" fill="none" stroke="#000" rx="45.49" ry="18"/>
            <text x="663" y="-446.3" font-family="Times,serif" font-size="14" text-anchor="middle">:core:ui</text>
        </g>
        <g stroke="red" stroke-width="2" class="edge">
            <path fill="none" d="M551.07 38.54c23.16 10.88 54.15 25.44 78.27 36.77"/>
            <path fill="red" d="m630.98 72.21 7.56 7.42L628 78.55l2.98-6.34z"/>
        </g>
        <g class="node" transform="translate(4 544)">
            <ellipse cx="663" cy="-378" fill="none" stroke="#000" rx="100.98" ry="18"/>
            <text x="663" y="-374.3" font-family="Times,serif" font-size="14" text-anchor="middle">:core:designsystem</text>
        </g>
        <g stroke="#000" class="edge">
            <path fill="none" d="M535.68 39.85c26.32 25.08 75.95 72.38 106.08 101.1"/>
            <path d="m644.52 138.74 4.83 9.44-9.66-4.37 4.83-5.07z"/>
        </g>
        <g class="node" transform="translate(4 544)">
            <ellipse cx="316" cy="-162" fill="none" stroke="#000" rx="135.68" ry="18"/>
            <text x="316" y="-158.3" font-family="Times,serif" font-size="14" text-anchor="middle">:core:component-controller</text>
        </g>
        <g stroke="#000" class="edge">
            <path fill="none" d="M456.59 33.98C353.31 54.21 156 101.2 156 165v74c0 59.49 62.45 99.63 110.27 121.65"/>
            <path d="m267.91 357.55 7.71 7.26-10.56-.87 2.85-6.39z"/>
        </g>
        <g class="node" transform="translate(4 544)">
            <ellipse cx="518" cy="-234" fill="none" stroke="#000" rx="57.39" ry="18"/>
            <text x="518" y="-230.3" font-family="Times,serif" font-size="14" text-anchor="middle">:core:data</text>
        </g>
        <g stroke="#000" class="edge">
            <path fill="none" d="M518.24 40.03c.67 47.68 2.55 182.79 3.37 241.34"/>
            <path d="m525.12 281.65-3.36 10.04-3.64-9.95 7-.09z"/>
        </g>
        <g class="node" transform="translate(4 544)">
            <ellipse cx="422" cy="-378" fill="none" stroke="#000" rx="70.69" ry="18"/>
            <text x="422" y="-374.3" font-family="Times,serif" font-size="14" text-anchor="middle">:core:domain</text>
        </g>
        <g stroke="#000" class="edge">
            <path fill="none" d="M507.09 39.85c-15.98 24.66-45.86 70.78-64.55 99.62"/>
            <path d="m445.28 141.69-8.38 6.49 2.5-10.3 5.88 3.81z"/>
        </g>
        <g class="node" transform="translate(4 544)">
            <ellipse cx="213" cy="-90" fill="none" stroke="#000" rx="67.69" ry="18"/>
            <text x="213" y="-86.3" font-family="Times,serif" font-size="14" text-anchor="middle">:core:ifw-api</text>
        </g>
        <g stroke="#000" class="edge">
            <path fill="none" d="M441.05 28.24C297.66 40.14 4 75.43 4 165v146c0 73.3 88.41 111.09 151.31 128.7"/>
            <path d="m156.42 436.38 8.75 5.98-10.57.78 1.82-6.76z"/>
        </g>
        <g stroke="#000" class="edge">
            <path fill="none" d="M667 112.3v25.59"/>
            <path d="m670.5 137.9-3.5 10-3.5-10h7z"/>
        </g>
        <g stroke="red" stroke-width="2" class="edge">
            <path fill="none" d="m631.44 105.33-150.85 43.81"/>
            <path fill="red" d="m481.32 152.58-10.58-.57 8.63-6.16 1.95 6.73z"/>
        </g>
        <g class="node" transform="translate(4 544)">
            <ellipse cx="876" cy="-162" fill="none" stroke="#000" rx="77.99" ry="18"/>
            <text x="876" y="-158.3" font-family="Times,serif" font-size="14" text-anchor="middle">:core:analytics</text>
        </g>
        <g stroke="#000" class="edge">
            <path fill="none" d="M702.86 105.09c23.64 8.23 53.87 21.96 74.14 42.91 58.19 60.13 86.63 158.64 97.51 205.96"/>
            <path d="m877.94 353.26-1.26 10.52-5.58-9.01 6.84-1.51z"/>
        </g>
        <g class="node" transform="translate(4 544)">
            <ellipse cx="574" cy="-18" fill="none" stroke="#000" rx="64.99" ry="18"/>
            <text x="574" y="-14.3" font-family="Times,serif" font-size="14" text-anchor="middle">:core:model</text>
        </g>
        <g stroke="#000" class="edge">
            <path fill="none" d="M712.7 95.21C800.91 98.27 986 118.79 986 237v146c0 158.5-179.44 89.86-334 125l-16.09 3.67"/>
            <path d="m636.69 515.08-10.53-1.18 8.96-5.64 1.57 6.82z"/>
        </g>
        <g stroke="red" stroke-width="2" class="edge">
            <path fill="none" d="M295.33 399.77c-13.93 9.46-31.49 21.4-46.46 31.57"/>
            <path fill="red" d="m250.65 434.37-10.24 2.72 6.3-8.51 3.94 5.79z"/>
        </g>
        <g stroke="#000" class="edge">
            <path fill="none" d="M438.06 390.99c35.99 7.47 73.51 20.98 101.94 45.01 18.57 15.7 28.29 42.11 33.23 62.09"/>
            <path d="m576.65 497.34-1.25 10.52-5.58-9 6.83-1.52z"/>
        </g>
        <g class="node" transform="translate(4 544)">
            <ellipse cx="311" cy="-18" fill="none" stroke="#000" rx="75.29" ry="18"/>
            <text x="311" y="-14.3" font-family="Times,serif" font-size="14" text-anchor="middle">:core:common</text>
        </g>
        <g stroke="#000" class="edge">
            <path fill="none" d="M319.4 400.13c-.86 24.2-2.42 68.66-3.44 97.48"/>
            <path d="m319.46 497.94-3.85 9.87-3.15-10.12 7 .25z"/>
        </g>
        <g stroke="red" stroke-width="2" class="edge">
            <path fill="none" d="M484.95 323.84c-30.61 10.61-74.53 25.83-109.35 37.89"/>
            <path fill="red" d="m376.63 365.08-10.6-.03 8.31-6.58 2.29 6.61z"/>
        </g>
        <g stroke="#000" class="edge">
            <path fill="none" d="M569.17 320.22c62.25 12.18 172.24 33.68 243.3 47.58"/>
            <path d="m813.52 364.43 9.14 5.36-10.48 1.51 1.34-6.87z"/>
        </g>
        <g stroke="#000" class="edge">
            <path fill="none" d="M515.04 328.05c-8.88 19.82-26.03 52.33-50.04 71.95-34.32 28.05-58.68 7.95-93 36-20.54 16.79-36.06 43-45.68 62.64"/>
            <path d="m329.37 500.38-7.41 7.57 1.07-10.54 6.34 2.97z"/>
        </g>
        <g class="node" transform="translate(4 544)">
            <ellipse cx="625" cy="-162" fill="none" stroke="#000" rx="78.79" ry="18"/>
            <text x="625" y="-158.3" font-family="Times,serif" font-size="14" text-anchor="middle">:core:database</text>
        </g>
        <g stroke="#000" class="edge">
            <path fill="none" d="M545.75 326.54c14.65 9.58 33.66 22.02 49.82 32.59"/>
            <path d="m597.75 356.37 6.45 8.41-10.28-2.55 3.83-5.86z"/>
        </g>
        <g class="node" transform="translate(4 544)">
            <ellipse cx="702" cy="-90" fill="none" stroke="#000" rx="81.49" ry="18"/>
            <text x="702" y="-86.3" font-family="Times,serif" font-size="14" text-anchor="middle">:core:datastore</text>
        </g>
        <g stroke="#000" class="edge">
            <path fill="none" d="M573.63 317.91c51.7 8.1 126 23.38 143.37 46.09 13.53 17.69 8.5 43.41 1.43 62.65"/>
            <path d="m721.63 428.08-6.99 7.97.5-10.59 6.49 2.62z"/>
        </g>
        <g class="node" transform="translate(4 544)">
            <ellipse cx="452" cy="-90" fill="none" stroke="#000" rx="74.99" ry="18"/>
            <text x="452" y="-86.3" font-family="Times,serif" font-size="14" text-anchor="middle">:core:network</text>
        </g>
        <g stroke="#000" class="edge">
            <path fill="none" d="M519.5 328.14c-3.16 18.49-9.69 48.42-21.5 71.86-5.04 10.01-12.17 19.93-19.12 28.43"/>
            <path d="m481.49 430.76-9.15 5.34 3.82-9.88 5.33 4.54z"/>
        </g>
        <g stroke="#000" class="edge">
            <path fill="none" d="M418.11 184.14c-8.32 17.98-21.9 47.02-34.11 71.86-16.89 34.34-37.12 73.56-50.25 98.76"/>
            <path d="m336.81 356.45-7.73 7.25 1.53-10.49 6.2 3.24z"/>
        </g>
        <g stroke="#000" class="edge">
            <path fill="none" d="M437.48 184.07C449.55 202 469.08 231 486 256c6.17 9.12 12.95 19.11 18.95 27.94"/>
            <path d="m507.91 282.06 2.73 10.24-8.52-6.3 5.79-3.94z"/>
        </g>
        <g stroke="#000" class="edge">
            <path fill="none" d="M368.14 176.57C333.49 184.28 289.76 197.63 256 220c-34.96 23.16-39.55 35.96-61 72-25.36 42.61-46.31 61.92-28 108 4.48 11.27 12.62 21.54 21.05 29.97"/>
            <path d="m190.53 427.5 4.92 9.39-9.7-4.28 4.78-5.11z"/>
        </g>
        <g stroke="#000" class="edge">
            <path fill="none" d="M468.94 180.43C554.47 210.02 742.48 290.04 796 436c5.51 15.02 9.89 23.42 0 36-1.27 1.62-96.09 24.25-160.25 39.41"/>
            <path d="m636.28 514.88-10.54-1.1 8.93-5.71 1.61 6.81z"/>
        </g>
        <g stroke="#000" class="edge">
            <path fill="none" d="M367.26 176.18C259.69 194.65 42 240.5 42 309v74c0 87.99 113.01 121.54 193.61 134.27"/>
            <path d="m236.39 513.85 9.37 4.95-10.41 1.98 1.04-6.93z"/>
        </g>
        <g class="node" transform="translate(4 544)">
            <ellipse cx="316" cy="-306" fill="none" stroke="#000" rx="55.49" ry="18"/>
            <text x="316" y="-302.3" font-family="Times,serif" font-size="14" text-anchor="middle">:core:rule</text>
        </g>
        <g stroke="red" stroke-width="2" class="edge">
            <path fill="none" d="m401.68 183.06-49.7 32.82"/>
            <path fill="red" d="m353.75 218.91-10.27 2.59 6.41-8.43 3.86 5.84z"/>
        </g>
        <g stroke="#000" class="edge">
            <path fill="none" d="M269.88 465.25c65.61 12.73 177.28 34.38 246.65 47.83"/>
            <path d="m517.29 509.66 9.15 5.34-10.48 1.53 1.33-6.87z"/>
        </g>
        <g stroke="red" stroke-width="2" class="edge">
            <path fill="none" d="M239.73 471.24c13.02 9.29 29.55 21.1 43.8 31.28"/>
            <path fill="red" d="m285.95 499.95 6.1 8.66-10.17-2.96 4.07-5.7z"/>
        </g>
        <g stroke="#000" class="edge">
            <path fill="none" d="M320 256.13v97.48"/>
            <path d="m323.5 353.81-3.5 10-3.5-10h7z"/>
        </g>
        <g stroke="red" stroke-width="2" class="edge">
            <path fill="none" d="M356.58 251.68c33.26 11.52 82.5 28.59 118.62 41.1"/>
            <path fill="red" d="m476.71 289.6 8.3 6.58-10.6.03 2.3-6.61z"/>
        </g>
        <g stroke="#000" class="edge">
            <path fill="none" d="M291.41 253.59C256.42 273.24 198.88 311.88 175 364c-6.67 14.55-5.26 20.89 0 36 3.63 10.42 10.25 20.33 17.18 28.7"/>
            <path d="m194.83 426.41 4 9.81-9.24-5.17 5.24-4.64z"/>
        </g>
        <g stroke="#000" class="edge">
            <path fill="none" d="M275.38 248.63c-26.4 7.75-58.79 21.12-80.38 43.37-58.25 60.03-104.85 112.82-55 180 21.09 28.42 57 42.14 90.83 48.57"/>
            <path d="m231.5 517.14 9.27 5.13-10.45 1.77 1.18-6.9z"/>
        </g>
        <g stroke="#000" class="edge">
            <path fill="none" d="M622.85 400.13c-8.77 24.41-24.94 69.44-35.28 98.23"/>
            <path d="m590.85 499.58-6.68 8.23.09-10.59 6.59 2.36z"/>
        </g>
        <g stroke="#000" class="edge">
            <path fill="none" d="M676.95 470.88c-18.33 10.03-42.2 23.08-61.89 33.85"/>
            <path d="m616.5 507.93-10.45 1.73 7.09-7.87 3.36 6.14z"/>
        </g>
        <g stroke="#000" class="edge">
            <path fill="none" d="M644.91 465.94c-70.88 12.69-187.43 33.55-261.34 46.78"/>
            <path d="m383.89 516.22-10.46-1.68 9.23-5.21 1.23 6.89z"/>
        </g>
        <g class="node" transform="translate(4 544)">
            <ellipse cx="766" cy="-18" fill="none" stroke="#000" rx="108.58" ry="18"/>
            <text x="766" y="-14.3" font-family="Times,serif" font-size="14" text-anchor="middle">:core:datastore-proto</text>
        </g>
        <g stroke="#000" class="edge">
            <path fill="none" d="M721.49 471.95c7.75 8.47 17.27 18.88 25.82 28.23"/>
            <path d="m750.04 497.98 4.17 9.74-9.34-5.01 5.17-4.73z"/>
        </g>
        <g stroke="#000" class="edge">
            <path fill="none" d="M483.68 470.88c17.28 9.92 39.71 22.78 58.35 33.48"/>
            <path d="m543.91 501.41 6.94 8.01-10.42-1.94 3.48-6.07z"/>
        </g>
        <g stroke="#000" class="edge">
            <path fill="none" d="M424.71 470.54c-20.45 10.15-47.34 23.5-69.39 34.44"/>
            <path d="m356.72 508.2-10.52 1.31 7.41-7.58 3.11 6.27z"/>
        </g>
    </g>
</svg>
