<?xml version="1.0" encoding="UTF-8" standalone="no"?>
<!DOCTYPE svg PUBLIC "-//W3C//DTD SVG 1.1//EN"
 "http://www.w3.org/Graphics/SVG/1.1/DTD/svg11.dtd">
<!-- Generated by graphviz version 2.43.0 (0)
 -->
<!-- Title: G Pages: 1 -->
<svg width="1207pt" height="620pt"
 viewBox="0.00 0.00 1206.52 620.00" xmlns="http://www.w3.org/2000/svg" xmlns:xlink="http://www.w3.org/1999/xlink">
<g id="graph0" class="graph" transform="scale(1 1) rotate(0) translate(4 616)">
<title>G</title>
<polygon fill="white" stroke="transparent" points="-4,4 -4,-616 1202.52,-616 1202.52,4 -4,4"/>
<!-- :feature:settings -->
<g id="node1" class="node">
<title>:feature:settings</title>
<ellipse fill="none" stroke="black" cx="403.74" cy="-594" rx="87.99" ry="18"/>
<text text-anchor="middle" x="403.74" y="-590.3" font-family="Times,serif" font-size="14.00">:feature:settings</text>
</g>
<!-- :core:ui -->
<g id="node2" class="node">
<title>:core:ui</title>
<ellipse fill="none" stroke="black" cx="330.74" cy="-522" rx="45.49" ry="18"/>
<text text-anchor="middle" x="330.74" y="-518.3" font-family="Times,serif" font-size="14.00">:core:ui</text>
</g>
<!-- :feature:settings&#45;&gt;:core:ui -->
<g id="edge1" class="edge">
<title>:feature:settings&#45;&gt;:core:ui</title>
<path fill="none" stroke="red" stroke-width="2" d="M386.07,-576.05C376.65,-567.03 364.94,-555.79 354.71,-545.99"/>
<polygon fill="red" stroke="red" stroke-width="2" points="356.89,-543.22 347.25,-538.83 352.04,-548.28 356.89,-543.22"/>
</g>
<!-- :core:designsystem -->
<g id="node3" class="node">
<title>:core:designsystem</title>
<ellipse fill="none" stroke="black" cx="100.74" cy="-450" rx="100.98" ry="18"/>
<text text-anchor="middle" x="100.74" y="-446.3" font-family="Times,serif" font-size="14.00">:core:designsystem</text>
</g>
<!-- :feature:settings&#45;&gt;:core:designsystem -->
<g id="edge2" class="edge">
<title>:feature:settings&#45;&gt;:core:designsystem</title>
<path fill="none" stroke="black" d="M365.08,-577.72C339.75,-567.5 306.03,-553.5 276.74,-540 229.21,-518.1 175.7,-490.63 140.29,-472.04"/>
<polygon fill="black" stroke="black" points="141.73,-468.84 131.25,-467.28 138.47,-475.04 141.73,-468.84"/>
</g>
<!-- :core:data -->
<g id="node4" class="node">
<title>:core:data</title>
<ellipse fill="none" stroke="black" cx="685.74" cy="-306" rx="57.39" ry="18"/>
<text text-anchor="middle" x="685.74" y="-302.3" font-family="Times,serif" font-size="14.00">:core:data</text>
</g>
<!-- :feature:settings&#45;&gt;:core:data -->
<g id="edge3" class="edge">
<title>:feature:settings&#45;&gt;:core:data</title>
<path fill="none" stroke="black" d="M420.54,-575.97C468.55,-527.27 606.52,-387.35 662.11,-330.97"/>
<polygon fill="black" stroke="black" points="664.86,-333.16 669.39,-323.59 659.87,-328.25 664.86,-333.16"/>
</g>
<!-- :core:domain -->
<g id="node5" class="node">
<title>:core:domain</title>
<ellipse fill="none" stroke="black" cx="759.74" cy="-450" rx="70.69" ry="18"/>
<text text-anchor="middle" x="759.74" y="-446.3" font-family="Times,serif" font-size="14.00">:core:domain</text>
</g>
<!-- :feature:settings&#45;&gt;:core:domain -->
<g id="edge4" class="edge">
<title>:feature:settings&#45;&gt;:core:domain</title>
<path fill="none" stroke="black" d="M442.18,-577.67C508.2,-551.33 642.88,-497.61 713.77,-469.34"/>
<polygon fill="black" stroke="black" points="715.34,-472.48 723.33,-465.52 712.75,-465.98 715.34,-472.48"/>
</g>
<!-- :core:rule -->
<g id="node6" class="node">
<title>:core:rule</title>
<ellipse fill="none" stroke="black" cx="962.74" cy="-378" rx="55.49" ry="18"/>
<text text-anchor="middle" x="962.74" y="-374.3" font-family="Times,serif" font-size="14.00">:core:rule</text>
</g>
<!-- :feature:settings&#45;&gt;:core:rule -->
<g id="edge5" class="edge">
<title>:feature:settings&#45;&gt;:core:rule</title>
<path fill="none" stroke="black" d="M468.79,-581.82C556.35,-565.13 715.5,-528.96 839.74,-468 875.94,-450.24 912.79,-421.93 936.6,-402.02"/>
<polygon fill="black" stroke="black" points="939.09,-404.49 944.45,-395.35 934.56,-399.15 939.09,-404.49"/>
</g>
<!-- :core:ui&#45;&gt;:core:designsystem -->
<g id="edge7" class="edge">
<title>:core:ui&#45;&gt;:core:designsystem</title>
<path fill="none" stroke="black" d="M295.81,-510.37C259.67,-499.37 202.58,-481.99 159.48,-468.88"/>
<polygon fill="black" stroke="black" points="160.27,-465.46 149.68,-465.89 158.23,-472.15 160.27,-465.46"/>
</g>
<!-- :core:ui&#45;&gt;:core:domain -->
<g id="edge9" class="edge">
<title>:core:ui&#45;&gt;:core:domain</title>
<path fill="none" stroke="red" stroke-width="2" d="M371.88,-514.29C445.78,-502.23 601.71,-476.79 691.73,-462.1"/>
<polygon fill="red" stroke="red" stroke-width="2" points="692.53,-465.51 701.84,-460.45 691.4,-458.6 692.53,-465.51"/>
</g>
<!-- :core:analytics -->
<g id="node7" class="node">
<title>:core:analytics</title>
<ellipse fill="none" stroke="black" cx="335.74" cy="-234" rx="77.99" ry="18"/>
<text text-anchor="middle" x="335.74" y="-230.3" font-family="Times,serif" font-size="14.00">:core:analytics</text>
</g>
<!-- :core:ui&#45;&gt;:core:analytics -->
<g id="edge6" class="edge">
<title>:core:ui&#45;&gt;:core:analytics</title>
<path fill="none" stroke="black" d="M331.04,-503.97C331.87,-456.29 334.23,-321.18 335.26,-262.63"/>
<polygon fill="black" stroke="black" points="338.76,-262.37 335.44,-252.31 331.76,-262.24 338.76,-262.37"/>
</g>
<!-- :core:model -->
<g id="node8" class="node">
<title>:core:model</title>
<ellipse fill="none" stroke="black" cx="551.74" cy="-18" rx="64.99" ry="18"/>
<text text-anchor="middle" x="551.74" y="-14.3" font-family="Times,serif" font-size="14.00">:core:model</text>
</g>
<!-- :core:ui&#45;&gt;:core:model -->
<g id="edge8" class="edge">
<title>:core:ui&#45;&gt;:core:model</title>
<path fill="none" stroke="black" d="M309.81,-505.68C280.23,-482.07 229.74,-433.76 229.74,-379 229.74,-379 229.74,-379 229.74,-161 229.74,-53.56 381.66,-26.72 476.8,-20.45"/>
<polygon fill="black" stroke="black" points="477.19,-23.93 486.97,-19.84 476.78,-16.94 477.19,-23.93"/>
</g>
<!-- :core:data&#45;&gt;:core:analytics -->
<g id="edge20" class="edge">
<title>:core:data&#45;&gt;:core:analytics</title>
<path fill="none" stroke="black" d="M638.9,-295.63C578.18,-283.49 471.9,-262.23 402.68,-248.39"/>
<polygon fill="black" stroke="black" points="403.24,-244.93 392.74,-246.4 401.86,-251.79 403.24,-244.93"/>
</g>
<!-- :core:common -->
<g id="node9" class="node">
<title>:core:common</title>
<ellipse fill="none" stroke="black" cx="928.74" cy="-90" rx="75.29" ry="18"/>
<text text-anchor="middle" x="928.74" y="-86.3" font-family="Times,serif" font-size="14.00">:core:common</text>
</g>
<!-- :core:data&#45;&gt;:core:common -->
<g id="edge16" class="edge">
<title>:core:data&#45;&gt;:core:common</title>
<path fill="none" stroke="black" d="M696.25,-287.89C716.53,-256.03 763.95,-186.94 818.74,-144 836.89,-129.78 859.48,-118.07 879.45,-109.31"/>
<polygon fill="black" stroke="black" points="880.88,-112.51 888.72,-105.38 878.14,-106.07 880.88,-112.51"/>
</g>
<!-- :core:component&#45;controller -->
<g id="node10" class="node">
<title>:core:component&#45;controller</title>
<ellipse fill="none" stroke="black" cx="1043.74" cy="-234" rx="135.68" ry="18"/>
<text text-anchor="middle" x="1043.74" y="-230.3" font-family="Times,serif" font-size="14.00">:core:component&#45;controller</text>
</g>
<!-- :core:data&#45;&gt;:core:component&#45;controller -->
<g id="edge21" class="edge">
<title>:core:data&#45;&gt;:core:component&#45;controller</title>
<path fill="none" stroke="red" stroke-width="2" d="M732.91,-295.78C790.82,-284.45 890.04,-265.05 960.8,-251.22"/>
<polygon fill="red" stroke="red" stroke-width="2" points="961.88,-254.57 971.02,-249.22 960.54,-247.7 961.88,-254.57"/>
</g>
<!-- :core:database -->
<g id="node12" class="node">
<title>:core:database</title>
<ellipse fill="none" stroke="black" cx="444.74" cy="-90" rx="78.79" ry="18"/>
<text text-anchor="middle" x="444.74" y="-86.3" font-family="Times,serif" font-size="14.00">:core:database</text>
</g>
<!-- :core:data&#45;&gt;:core:database -->
<g id="edge17" class="edge">
<title>:core:data&#45;&gt;:core:database</title>
<path fill="none" stroke="black" d="M635.77,-297.05C574.46,-284.32 473.08,-252.91 427.74,-180 416,-161.12 422.41,-135.95 430.5,-117.2"/>
<polygon fill="black" stroke="black" points="433.72,-118.58 434.8,-108.04 427.38,-115.61 433.72,-118.58"/>
</g>
<!-- :core:datastore -->
<g id="node13" class="node">
<title>:core:datastore</title>
<ellipse fill="none" stroke="black" cx="685.74" cy="-162" rx="81.49" ry="18"/>
<text text-anchor="middle" x="685.74" y="-158.3" font-family="Times,serif" font-size="14.00">:core:datastore</text>
</g>
<!-- :core:data&#45;&gt;:core:datastore -->
<g id="edge18" class="edge">
<title>:core:data&#45;&gt;:core:datastore</title>
<path fill="none" stroke="black" d="M685.74,-287.87C685.74,-263.67 685.74,-219.21 685.74,-190.39"/>
<polygon fill="black" stroke="black" points="689.24,-190.19 685.74,-180.19 682.24,-190.19 689.24,-190.19"/>
</g>
<!-- :core:network -->
<g id="node14" class="node">
<title>:core:network</title>
<ellipse fill="none" stroke="black" cx="511.74" cy="-162" rx="74.99" ry="18"/>
<text text-anchor="middle" x="511.74" y="-158.3" font-family="Times,serif" font-size="14.00">:core:network</text>
</g>
<!-- :core:data&#45;&gt;:core:network -->
<g id="edge19" class="edge">
<title>:core:data&#45;&gt;:core:network</title>
<path fill="none" stroke="black" d="M666.12,-288.99C635.26,-263.81 575.27,-214.85 539.85,-185.94"/>
<polygon fill="black" stroke="black" points="541.79,-183 531.83,-179.39 537.36,-188.43 541.79,-183"/>
</g>
<!-- :core:domain&#45;&gt;:core:data -->
<g id="edge10" class="edge">
<title>:core:domain&#45;&gt;:core:data</title>
<path fill="none" stroke="black" d="M750.81,-431.87C738.04,-407.35 714.42,-362.03 699.43,-333.26"/>
<polygon fill="black" stroke="black" points="702.42,-331.44 694.7,-324.19 696.22,-334.67 702.42,-331.44"/>
</g>
<!-- :core:domain&#45;&gt;:core:rule -->
<g id="edge15" class="edge">
<title>:core:domain&#45;&gt;:core:rule</title>
<path fill="none" stroke="red" stroke-width="2" d="M800.33,-435C833.97,-423.41 881.75,-406.93 916.79,-394.85"/>
<polygon fill="red" stroke="red" stroke-width="2" points="918,-398.13 926.31,-391.56 915.71,-391.51 918,-398.13"/>
</g>
<!-- :core:domain&#45;&gt;:core:model -->
<g id="edge11" class="edge">
<title>:core:domain&#45;&gt;:core:model</title>
<path fill="none" stroke="black" d="M728.01,-433.78C669.35,-404.56 542.06,-335.99 455.74,-252 427.91,-224.92 368.26,-145.09 356.74,-108 352,-92.72 347.02,-84.71 356.74,-72 372.44,-51.47 434.67,-37.01 484.66,-28.44"/>
<polygon fill="black" stroke="black" points="485.51,-31.85 494.8,-26.75 484.36,-24.94 485.51,-31.85"/>
</g>
<!-- :core:domain&#45;&gt;:core:common -->
<g id="edge12" class="edge">
<title>:core:domain&#45;&gt;:core:common</title>
<path fill="none" stroke="black" d="M760.98,-431.73C765.31,-382.26 783.43,-237.59 851.74,-144 861.24,-130.99 874.94,-120.1 888.17,-111.64"/>
<polygon fill="black" stroke="black" points="890.01,-114.62 896.74,-106.44 886.38,-108.64 890.01,-114.62"/>
</g>
<!-- :core:domain&#45;&gt;:core:component&#45;controller -->
<g id="edge13" class="edge">
<title>:core:domain&#45;&gt;:core:component&#45;controller</title>
<path fill="none" stroke="black" d="M790.96,-433.82C810.21,-423.96 835.09,-410.32 855.74,-396 864.23,-390.11 966.04,-302.23 1016.19,-258.85"/>
<polygon fill="black" stroke="black" points="1018.78,-261.24 1024.06,-252.05 1014.2,-255.94 1018.78,-261.24"/>
</g>
<!-- :core:ifw&#45;api -->
<g id="node11" class="node">
<title>:core:ifw&#45;api</title>
<ellipse fill="none" stroke="black" cx="928.74" cy="-162" rx="67.69" ry="18"/>
<text text-anchor="middle" x="928.74" y="-158.3" font-family="Times,serif" font-size="14.00">:core:ifw&#45;api</text>
</g>
<!-- :core:domain&#45;&gt;:core:ifw&#45;api -->
<g id="edge14" class="edge">
<title>:core:domain&#45;&gt;:core:ifw&#45;api</title>
<path fill="none" stroke="black" d="M781.8,-432.78C793.69,-423.14 807.89,-410.08 817.74,-396 867.31,-325.11 850.29,-291.92 891.74,-216 896.9,-206.54 903.4,-196.73 909.5,-188.15"/>
<polygon fill="black" stroke="black" points="912.34,-190.19 915.4,-180.04 906.69,-186.07 912.34,-190.19"/>
</g>
<!-- :core:rule&#45;&gt;:core:data -->
<g id="edge35" class="edge">
<title>:core:rule&#45;&gt;:core:data</title>
<path fill="none" stroke="red" stroke-width="2" d="M920.37,-366.29C871.68,-353.99 791.7,-333.78 738.88,-320.43"/>
<polygon fill="red" stroke="red" stroke-width="2" points="739.57,-316.99 729.02,-317.94 737.86,-323.78 739.57,-316.99"/>
</g>
<!-- :core:rule&#45;&gt;:core:common -->
<g id="edge33" class="edge">
<title>:core:rule&#45;&gt;:core:common</title>
<path fill="none" stroke="black" d="M1006.36,-366.77C1085.05,-346.11 1238.17,-294.61 1188.74,-216 1147.39,-150.23 1060.69,-118.27 998.78,-103.3"/>
<polygon fill="black" stroke="black" points="999.22,-99.8 988.69,-100.95 997.64,-106.62 999.22,-99.8"/>
</g>
<!-- :core:rule&#45;&gt;:core:component&#45;controller -->
<g id="edge34" class="edge">
<title>:core:rule&#45;&gt;:core:component&#45;controller</title>
<path fill="none" stroke="black" d="M972.35,-360.15C986.34,-335.63 1012.44,-289.87 1028.91,-261"/>
<polygon fill="black" stroke="black" points="1031.98,-262.69 1033.89,-252.27 1025.9,-259.22 1031.98,-262.69"/>
</g>
<!-- :core:rule&#45;&gt;:core:ifw&#45;api -->
<g id="edge36" class="edge">
<title>:core:rule&#45;&gt;:core:ifw&#45;api</title>
<path fill="none" stroke="black" d="M950.84,-360.23C935.28,-337.15 908.8,-293.71 898.74,-252 894.99,-236.45 894.67,-231.47 898.74,-216 901.23,-206.54 905.84,-196.99 910.71,-188.66"/>
<polygon fill="black" stroke="black" points="913.7,-190.49 916.01,-180.15 907.76,-186.79 913.7,-190.49"/>
</g>
<!-- :core:common&#45;&gt;:core:model -->
<g id="edge22" class="edge">
<title>:core:common&#45;&gt;:core:model</title>
<path fill="none" stroke="red" stroke-width="2" d="M873.65,-77.68C864.02,-75.75 854.09,-73.79 844.74,-72 765.79,-56.87 674.64,-40.57 615.25,-30.1"/>
<polygon fill="red" stroke="red" stroke-width="2" points="615.72,-26.63 605.27,-28.34 614.51,-33.52 615.72,-26.63"/>
</g>
<!-- :core:component&#45;controller&#45;&gt;:core:model -->
<g id="edge30" class="edge">
<title>:core:component&#45;controller&#45;&gt;:core:model</title>
<path fill="none" stroke="black" d="M1046.4,-215.96C1050.52,-182.61 1054.12,-108.78 1012.74,-72 984.37,-46.78 747.95,-29.97 625.17,-22.86"/>
<polygon fill="black" stroke="black" points="625.27,-19.36 615.09,-22.28 624.87,-26.34 625.27,-19.36"/>
</g>
<!-- :core:component&#45;controller&#45;&gt;:core:common -->
<g id="edge29" class="edge">
<title>:core:component&#45;controller&#45;&gt;:core:common</title>
<path fill="none" stroke="black" d="M1039.5,-215.74C1034.14,-196.6 1023.4,-165.58 1005.74,-144 995.37,-131.33 981.22,-120.41 967.87,-111.83"/>
<polygon fill="black" stroke="black" points="969.61,-108.8 959.26,-106.54 965.95,-114.76 969.61,-108.8"/>
</g>
<!-- :core:component&#45;controller&#45;&gt;:core:ifw&#45;api -->
<g id="edge31" class="edge">
<title>:core:component&#45;controller&#45;&gt;:core:ifw&#45;api</title>
<path fill="none" stroke="red" stroke-width="2" d="M1016.2,-216.23C1000.24,-206.52 980.01,-194.21 963.03,-183.87"/>
<polygon fill="red" stroke="red" stroke-width="2" points="964.85,-180.88 954.49,-178.67 961.21,-186.86 964.85,-180.88"/>
</g>
<!-- :core:ifw&#45;api&#45;&gt;:core:common -->
<g id="edge32" class="edge">
<title>:core:ifw&#45;api&#45;&gt;:core:common</title>
<path fill="none" stroke="red" stroke-width="2" d="M928.74,-143.7C928.74,-135.98 928.74,-126.71 928.74,-118.11"/>
<polygon fill="red" stroke="red" stroke-width="2" points="932.24,-118.1 928.74,-108.1 925.24,-118.1 932.24,-118.1"/>
</g>
<!-- :core:database&#45;&gt;:core:model -->
<g id="edge23" class="edge">
<title>:core:database&#45;&gt;:core:model</title>
<path fill="none" stroke="black" d="M469.56,-72.76C484.25,-63.15 503.03,-50.87 518.93,-40.46"/>
<polygon fill="black" stroke="black" points="520.98,-43.31 527.43,-34.91 517.14,-37.45 520.98,-43.31"/>
</g>
<!-- :core:datastore&#45;&gt;:core:model -->
<g id="edge25" class="edge">
<title>:core:datastore&#45;&gt;:core:model</title>
<path fill="none" stroke="black" d="M656.97,-145.02C641.53,-135.56 622.85,-122.58 608.74,-108 590.62,-89.27 575.07,-63.94 564.81,-45.08"/>
<polygon fill="black" stroke="black" points="567.85,-43.35 560.07,-36.15 561.66,-46.62 567.85,-43.35"/>
</g>
<!-- :core:datastore&#45;&gt;:core:common -->
<g id="edge26" class="edge">
<title>:core:datastore&#45;&gt;:core:common</title>
<path fill="none" stroke="black" d="M733.17,-147.34C773.19,-135.81 830.56,-119.28 872.81,-107.11"/>
<polygon fill="black" stroke="black" points="874.03,-110.4 882.67,-104.27 872.09,-103.68 874.03,-110.4"/>
</g>
<!-- :core:datastore&#45;proto -->
<g id="node15" class="node">
<title>:core:datastore&#45;proto</title>
<ellipse fill="none" stroke="black" cx="726.74" cy="-90" rx="108.58" ry="18"/>
<text text-anchor="middle" x="726.74" y="-86.3" font-family="Times,serif" font-size="14.00">:core:datastore&#45;proto</text>
</g>
<!-- :core:datastore&#45;&gt;:core:datastore&#45;proto -->
<g id="edge24" class="edge">
<title>:core:datastore&#45;&gt;:core:datastore&#45;proto</title>
<path fill="none" stroke="black" d="M695.67,-144.05C700.43,-135.92 706.24,-126 711.55,-116.94"/>
<polygon fill="black" stroke="black" points="714.59,-118.67 716.62,-108.28 708.55,-115.14 714.59,-118.67"/>
</g>
<!-- :core:network&#45;&gt;:core:model -->
<g id="edge28" class="edge">
<title>:core:network&#45;&gt;:core:model</title>
<path fill="none" stroke="black" d="M519.29,-144.07C523.66,-133.79 529.02,-120.32 532.74,-108 538.91,-87.62 543.85,-64.02 547.14,-46.25"/>
<polygon fill="black" stroke="black" points="550.61,-46.74 548.94,-36.28 543.72,-45.5 550.61,-46.74"/>
</g>
<!-- :core:network&#45;&gt;:core:common -->
<g id="edge27" class="edge">
<title>:core:network&#45;&gt;:core:common</title>
<path fill="none" stroke="black" d="M565.88,-149.58C575.8,-147.62 586.07,-145.68 595.74,-144 705.92,-124.9 734.57,-127.1 844.74,-108 850.99,-106.92 857.5,-105.72 863.99,-104.48"/>
<polygon fill="black" stroke="black" points="865,-107.85 874.15,-102.51 863.67,-100.98 865,-107.85"/>
</g>
</g>
</svg>
