<?xml version="1.0" encoding="UTF-8" standalone="no"?>
<!DOCTYPE svg PUBLIC "-//W3C//DTD SVG 1.1//EN"
 "http://www.w3.org/Graphics/SVG/1.1/DTD/svg11.dtd">
<!-- Generated by graphviz version 2.43.0 (0)
 -->
<!-- Title: G Pages: 1 -->
<svg width="1199pt" height="620pt"
 viewBox="0.00 0.00 1198.74 620.00" xmlns="http://www.w3.org/2000/svg" xmlns:xlink="http://www.w3.org/1999/xlink">
<g id="graph0" class="graph" transform="scale(1 1) rotate(0) translate(4 616)">
<title>G</title>
<polygon fill="white" stroke="transparent" points="-4,4 -4,-616 1194.74,-616 1194.74,4 -4,4"/>
<!-- :feature:appdetail -->
<g id="node1" class="node">
<title>:feature:appdetail</title>
<ellipse fill="none" stroke="black" cx="672.74" cy="-594" rx="93.68" ry="18"/>
<text text-anchor="middle" x="672.74" y="-590.3" font-family="Times,serif" font-size="14.00">:feature:appdetail</text>
</g>
<!-- :core:ui -->
<g id="node2" class="node">
<title>:core:ui</title>
<ellipse fill="none" stroke="black" cx="335.74" cy="-522" rx="45.49" ry="18"/>
<text text-anchor="middle" x="335.74" y="-518.3" font-family="Times,serif" font-size="14.00">:core:ui</text>
</g>
<!-- :feature:appdetail&#45;&gt;:core:ui -->
<g id="edge1" class="edge">
<title>:feature:appdetail&#45;&gt;:core:ui</title>
<path fill="none" stroke="red" stroke-width="2" d="M611.71,-580.32C546.81,-566.84 445.38,-545.77 385.25,-533.28"/>
<polygon fill="red" stroke="red" stroke-width="2" points="385.75,-529.81 375.24,-531.21 384.32,-536.67 385.75,-529.81"/>
</g>
<!-- :core:designsystem -->
<g id="node3" class="node">
<title>:core:designsystem</title>
<ellipse fill="none" stroke="black" cx="100.74" cy="-450" rx="100.98" ry="18"/>
<text text-anchor="middle" x="100.74" y="-446.3" font-family="Times,serif" font-size="14.00">:core:designsystem</text>
</g>
<!-- :feature:appdetail&#45;&gt;:core:designsystem -->
<g id="edge2" class="edge">
<title>:feature:appdetail&#45;&gt;:core:designsystem</title>
<path fill="none" stroke="black" d="M582.48,-589.01C502.08,-583.52 382,-570.56 281.74,-540 228.55,-523.79 171.7,-493.44 136.2,-472.73"/>
<polygon fill="black" stroke="black" points="137.6,-469.5 127.21,-467.43 134.04,-475.53 137.6,-469.5"/>
</g>
<!-- :core:component&#45;controller -->
<g id="node4" class="node">
<title>:core:component&#45;controller</title>
<ellipse fill="none" stroke="black" cx="988.74" cy="-234" rx="135.68" ry="18"/>
<text text-anchor="middle" x="988.74" y="-230.3" font-family="Times,serif" font-size="14.00">:core:component&#45;controller</text>
</g>
<!-- :feature:appdetail&#45;&gt;:core:component&#45;controller -->
<g id="edge3" class="edge">
<title>:feature:appdetail&#45;&gt;:core:component&#45;controller</title>
<path fill="none" stroke="black" d="M711.95,-577.53C757.25,-557.96 831.56,-520.37 878.74,-468 935.24,-405.27 968.22,-308.4 981.65,-261.82"/>
<polygon fill="black" stroke="black" points="985.03,-262.72 984.36,-252.15 978.29,-260.83 985.03,-262.72"/>
</g>
<!-- :core:data -->
<g id="node5" class="node">
<title>:core:data</title>
<ellipse fill="none" stroke="black" cx="620.74" cy="-306" rx="57.39" ry="18"/>
<text text-anchor="middle" x="620.74" y="-302.3" font-family="Times,serif" font-size="14.00">:core:data</text>
</g>
<!-- :feature:appdetail&#45;&gt;:core:data -->
<g id="edge4" class="edge">
<title>:feature:appdetail&#45;&gt;:core:data</title>
<path fill="none" stroke="black" d="M669.64,-575.97C660.96,-528.19 636.31,-392.62 625.7,-334.27"/>
<polygon fill="black" stroke="black" points="629.12,-333.52 623.89,-324.31 622.23,-334.77 629.12,-333.52"/>
</g>
<!-- :core:domain -->
<g id="node6" class="node">
<title>:core:domain</title>
<ellipse fill="none" stroke="black" cx="798.74" cy="-450" rx="70.69" ry="18"/>
<text text-anchor="middle" x="798.74" y="-446.3" font-family="Times,serif" font-size="14.00">:core:domain</text>
</g>
<!-- :feature:appdetail&#45;&gt;:core:domain -->
<g id="edge5" class="edge">
<title>:feature:appdetail&#45;&gt;:core:domain</title>
<path fill="none" stroke="black" d="M687.69,-576.15C709.86,-551.17 751.56,-504.17 777.07,-475.42"/>
<polygon fill="black" stroke="black" points="779.79,-477.63 783.81,-467.82 774.56,-472.98 779.79,-477.63"/>
</g>
<!-- :core:rule -->
<g id="node7" class="node">
<title>:core:rule</title>
<ellipse fill="none" stroke="black" cx="741.74" cy="-378" rx="55.49" ry="18"/>
<text text-anchor="middle" x="741.74" y="-374.3" font-family="Times,serif" font-size="14.00">:core:rule</text>
</g>
<!-- :feature:appdetail&#45;&gt;:core:rule -->
<g id="edge6" class="edge">
<title>:feature:appdetail&#45;&gt;:core:rule</title>
<path fill="none" stroke="black" d="M676.85,-575.85C684.14,-546.16 700.32,-483.45 718.74,-432 721.9,-423.18 725.82,-413.73 729.52,-405.3"/>
<polygon fill="black" stroke="black" points="732.81,-406.51 733.71,-395.96 726.42,-403.65 732.81,-406.51"/>
</g>
<!-- :core:ui&#45;&gt;:core:designsystem -->
<g id="edge8" class="edge">
<title>:core:ui&#45;&gt;:core:designsystem</title>
<path fill="none" stroke="black" d="M300.56,-510.52C263.42,-499.46 204.23,-481.83 159.89,-468.62"/>
<polygon fill="black" stroke="black" points="160.69,-465.2 150.1,-465.7 158.69,-471.91 160.69,-465.2"/>
</g>
<!-- :core:ui&#45;&gt;:core:domain -->
<g id="edge10" class="edge">
<title>:core:ui&#45;&gt;:core:domain</title>
<path fill="none" stroke="red" stroke-width="2" d="M377.65,-514.66C457.41,-502.61 631.77,-476.24 729.26,-461.5"/>
<polygon fill="red" stroke="red" stroke-width="2" points="729.95,-464.94 739.31,-459.98 728.9,-458.02 729.95,-464.94"/>
</g>
<!-- :core:analytics -->
<g id="node8" class="node">
<title>:core:analytics</title>
<ellipse fill="none" stroke="black" cx="335.74" cy="-234" rx="77.99" ry="18"/>
<text text-anchor="middle" x="335.74" y="-230.3" font-family="Times,serif" font-size="14.00">:core:analytics</text>
</g>
<!-- :core:ui&#45;&gt;:core:analytics -->
<g id="edge7" class="edge">
<title>:core:ui&#45;&gt;:core:analytics</title>
<path fill="none" stroke="black" d="M335.74,-503.97C335.74,-456.29 335.74,-321.18 335.74,-262.63"/>
<polygon fill="black" stroke="black" points="339.24,-262.31 335.74,-252.31 332.24,-262.31 339.24,-262.31"/>
</g>
<!-- :core:model -->
<g id="node9" class="node">
<title>:core:model</title>
<ellipse fill="none" stroke="black" cx="717.74" cy="-18" rx="64.99" ry="18"/>
<text text-anchor="middle" x="717.74" y="-14.3" font-family="Times,serif" font-size="14.00">:core:model</text>
</g>
<!-- :core:ui&#45;&gt;:core:model -->
<g id="edge9" class="edge">
<title>:core:ui&#45;&gt;:core:model</title>
<path fill="none" stroke="black" d="M314.03,-506.11C283.02,-482.88 229.74,-434.84 229.74,-379 229.74,-379 229.74,-379 229.74,-161 229.74,-120.55 218.78,-99.17 248.74,-72 277.41,-46 519.23,-29.51 643.95,-22.65"/>
<polygon fill="black" stroke="black" points="644.39,-26.13 654.19,-22.1 644.01,-19.15 644.39,-26.13"/>
</g>
<!-- :core:component&#45;controller&#45;&gt;:core:model -->
<g id="edge31" class="edge">
<title>:core:component&#45;controller&#45;&gt;:core:model</title>
<path fill="none" stroke="black" d="M985.39,-215.78C977.78,-181.79 955.72,-106.36 904.74,-72 869.7,-48.39 824.19,-35.19 786.85,-27.87"/>
<polygon fill="black" stroke="black" points="787.01,-24.35 776.54,-25.96 785.74,-31.23 787.01,-24.35"/>
</g>
<!-- :core:common -->
<g id="node10" class="node">
<title>:core:common</title>
<ellipse fill="none" stroke="black" cx="820.74" cy="-90" rx="75.29" ry="18"/>
<text text-anchor="middle" x="820.74" y="-86.3" font-family="Times,serif" font-size="14.00">:core:common</text>
</g>
<!-- :core:component&#45;controller&#45;&gt;:core:common -->
<g id="edge30" class="edge">
<title>:core:component&#45;controller&#45;&gt;:core:common</title>
<path fill="none" stroke="black" d="M981.57,-215.89C972.63,-196.32 955.69,-164.35 932.74,-144 915.65,-128.84 893.47,-117.14 873.36,-108.64"/>
<polygon fill="black" stroke="black" points="874.57,-105.35 863.99,-104.83 871.94,-111.84 874.57,-105.35"/>
</g>
<!-- :core:ifw&#45;api -->
<g id="node11" class="node">
<title>:core:ifw&#45;api</title>
<ellipse fill="none" stroke="black" cx="855.74" cy="-162" rx="67.69" ry="18"/>
<text text-anchor="middle" x="855.74" y="-158.3" font-family="Times,serif" font-size="14.00">:core:ifw&#45;api</text>
</g>
<!-- :core:component&#45;controller&#45;&gt;:core:ifw&#45;api -->
<g id="edge32" class="edge">
<title>:core:component&#45;controller&#45;&gt;:core:ifw&#45;api</title>
<path fill="none" stroke="red" stroke-width="2" d="M957.22,-216.41C938.17,-206.38 913.76,-193.54 893.66,-182.96"/>
<polygon fill="red" stroke="red" stroke-width="2" points="895.24,-179.83 884.76,-178.27 891.98,-186.03 895.24,-179.83"/>
</g>
<!-- :core:data&#45;&gt;:core:component&#45;controller -->
<g id="edge22" class="edge">
<title>:core:data&#45;&gt;:core:component&#45;controller</title>
<path fill="none" stroke="red" stroke-width="2" d="M668.47,-295.92C728.1,-284.58 831.15,-264.98 904.24,-251.07"/>
<polygon fill="red" stroke="red" stroke-width="2" points="905.18,-254.46 914.35,-249.15 903.87,-247.58 905.18,-254.46"/>
</g>
<!-- :core:data&#45;&gt;:core:analytics -->
<g id="edge21" class="edge">
<title>:core:data&#45;&gt;:core:analytics</title>
<path fill="none" stroke="black" d="M577.15,-294.29C529,-282.47 451.12,-263.34 396.89,-250.02"/>
<polygon fill="black" stroke="black" points="397.59,-246.59 387.05,-247.6 395.92,-253.39 397.59,-246.59"/>
</g>
<!-- :core:data&#45;&gt;:core:common -->
<g id="edge17" class="edge">
<title>:core:data&#45;&gt;:core:common</title>
<path fill="none" stroke="black" d="M631.38,-288.17C651.35,-257.34 696.89,-190.71 745.74,-144 757.84,-132.43 772.63,-121.44 785.87,-112.49"/>
<polygon fill="black" stroke="black" points="787.89,-115.35 794.3,-106.92 784.03,-109.51 787.89,-115.35"/>
</g>
<!-- :core:database -->
<g id="node12" class="node">
<title>:core:database</title>
<ellipse fill="none" stroke="black" cx="336.74" cy="-90" rx="78.79" ry="18"/>
<text text-anchor="middle" x="336.74" y="-86.3" font-family="Times,serif" font-size="14.00">:core:database</text>
</g>
<!-- :core:data&#45;&gt;:core:database -->
<g id="edge18" class="edge">
<title>:core:data&#45;&gt;:core:database</title>
<path fill="none" stroke="black" d="M589,-291C520.15,-260.51 362.61,-190.02 354.74,-180 341.09,-162.61 336.99,-137.56 336.08,-118.46"/>
<polygon fill="black" stroke="black" points="339.58,-118.21 335.86,-108.28 332.58,-118.36 339.58,-118.21"/>
</g>
<!-- :core:datastore -->
<g id="node13" class="node">
<title>:core:datastore</title>
<ellipse fill="none" stroke="black" cx="444.74" cy="-162" rx="81.49" ry="18"/>
<text text-anchor="middle" x="444.74" y="-158.3" font-family="Times,serif" font-size="14.00">:core:datastore</text>
</g>
<!-- :core:data&#45;&gt;:core:datastore -->
<g id="edge19" class="edge">
<title>:core:data&#45;&gt;:core:datastore</title>
<path fill="none" stroke="black" d="M600.89,-288.99C569.77,-263.87 509.33,-215.11 473.46,-186.17"/>
<polygon fill="black" stroke="black" points="475.31,-183.17 465.33,-179.61 470.92,-188.62 475.31,-183.17"/>
</g>
<!-- :core:network -->
<g id="node14" class="node">
<title>:core:network</title>
<ellipse fill="none" stroke="black" cx="618.74" cy="-162" rx="74.99" ry="18"/>
<text text-anchor="middle" x="618.74" y="-158.3" font-family="Times,serif" font-size="14.00">:core:network</text>
</g>
<!-- :core:data&#45;&gt;:core:network -->
<g id="edge20" class="edge">
<title>:core:data&#45;&gt;:core:network</title>
<path fill="none" stroke="black" d="M620.5,-287.87C620.16,-263.67 619.53,-219.21 619.13,-190.39"/>
<polygon fill="black" stroke="black" points="622.62,-190.14 618.98,-180.19 615.62,-190.24 622.62,-190.14"/>
</g>
<!-- :core:domain&#45;&gt;:core:component&#45;controller -->
<g id="edge14" class="edge">
<title>:core:domain&#45;&gt;:core:component&#45;controller</title>
<path fill="none" stroke="black" d="M813.65,-432.21C847,-394.64 927.78,-303.67 966.85,-259.66"/>
<polygon fill="black" stroke="black" points="969.62,-261.81 973.64,-252.01 964.38,-257.16 969.62,-261.81"/>
</g>
<!-- :core:domain&#45;&gt;:core:data -->
<g id="edge11" class="edge">
<title>:core:domain&#45;&gt;:core:data</title>
<path fill="none" stroke="black" d="M753.24,-436.2C728.9,-427.69 699.54,-414.62 677.74,-396 657.57,-378.77 642,-352.61 632.27,-333.11"/>
<polygon fill="black" stroke="black" points="635.32,-331.38 627.85,-323.87 629.01,-334.4 635.32,-331.38"/>
</g>
<!-- :core:domain&#45;&gt;:core:rule -->
<g id="edge16" class="edge">
<title>:core:domain&#45;&gt;:core:rule</title>
<path fill="none" stroke="red" stroke-width="2" d="M784.94,-432.05C778.01,-423.54 769.48,-413.07 761.84,-403.68"/>
<polygon fill="red" stroke="red" stroke-width="2" points="764.44,-401.33 755.41,-395.79 759.01,-405.75 764.44,-401.33"/>
</g>
<!-- :core:domain&#45;&gt;:core:model -->
<g id="edge12" class="edge">
<title>:core:domain&#45;&gt;:core:model</title>
<path fill="none" stroke="black" d="M864.35,-442.93C975.95,-428.6 1190.74,-381.93 1190.74,-235 1190.74,-235 1190.74,-235 1190.74,-161 1190.74,-78.06 920.62,-39.38 788.64,-25.43"/>
<polygon fill="black" stroke="black" points="788.92,-21.94 778.61,-24.39 788.19,-28.91 788.92,-21.94"/>
</g>
<!-- :core:domain&#45;&gt;:core:common -->
<g id="edge13" class="edge">
<title>:core:domain&#45;&gt;:core:common</title>
<path fill="none" stroke="black" d="M847.76,-436.86C924.81,-414.83 1071.85,-360.2 1133.74,-252 1188.91,-155.56 1007.82,-114.89 898.24,-99.43"/>
<polygon fill="black" stroke="black" points="898.58,-95.94 888.2,-98.05 897.63,-102.88 898.58,-95.94"/>
</g>
<!-- :core:domain&#45;&gt;:core:ifw&#45;api -->
<g id="edge15" class="edge">
<title>:core:domain&#45;&gt;:core:ifw&#45;api</title>
<path fill="none" stroke="black" d="M801.83,-432.01C808.88,-393.49 826.83,-296.64 843.74,-216 845.51,-207.56 847.55,-198.39 849.43,-190.09"/>
<polygon fill="black" stroke="black" points="852.89,-190.68 851.71,-180.16 846.06,-189.12 852.89,-190.68"/>
</g>
<!-- :core:rule&#45;&gt;:core:component&#45;controller -->
<g id="edge35" class="edge">
<title>:core:rule&#45;&gt;:core:component&#45;controller</title>
<path fill="none" stroke="black" d="M767.71,-362.07C811.52,-336.88 900.31,-285.84 951.01,-256.69"/>
<polygon fill="black" stroke="black" points="952.79,-259.71 959.71,-251.69 949.3,-253.64 952.79,-259.71"/>
</g>
<!-- :core:rule&#45;&gt;:core:data -->
<g id="edge36" class="edge">
<title>:core:rule&#45;&gt;:core:data</title>
<path fill="none" stroke="red" stroke-width="2" d="M715.78,-361.98C698.28,-351.86 674.97,-338.37 655.82,-327.29"/>
<polygon fill="red" stroke="red" stroke-width="2" points="657.48,-324.21 647.07,-322.23 653.98,-330.27 657.48,-324.21"/>
</g>
<!-- :core:rule&#45;&gt;:core:common -->
<g id="edge34" class="edge">
<title>:core:rule&#45;&gt;:core:common</title>
<path fill="none" stroke="black" d="M741.55,-359.79C741.71,-320.03 745.64,-219.38 778.74,-144 783.25,-133.74 790.24,-123.76 797.23,-115.27"/>
<polygon fill="black" stroke="black" points="799.94,-117.49 803.85,-107.64 794.65,-112.9 799.94,-117.49"/>
</g>
<!-- :core:rule&#45;&gt;:core:ifw&#45;api -->
<g id="edge37" class="edge">
<title>:core:rule&#45;&gt;:core:ifw&#45;api</title>
<path fill="none" stroke="black" d="M748.69,-359.99C764.56,-321.29 802.68,-229.02 810.74,-216 816.97,-205.94 825.02,-195.82 832.59,-187.15"/>
<polygon fill="black" stroke="black" points="835.26,-189.42 839.34,-179.65 830.05,-184.74 835.26,-189.42"/>
</g>
<!-- :core:common&#45;&gt;:core:model -->
<g id="edge23" class="edge">
<title>:core:common&#45;&gt;:core:model</title>
<path fill="none" stroke="red" stroke-width="2" d="M796.85,-72.76C782.84,-63.24 764.96,-51.09 749.75,-40.75"/>
<polygon fill="red" stroke="red" stroke-width="2" points="751.38,-37.63 741.15,-34.91 747.45,-43.42 751.38,-37.63"/>
</g>
<!-- :core:ifw&#45;api&#45;&gt;:core:common -->
<g id="edge33" class="edge">
<title>:core:ifw&#45;api&#45;&gt;:core:common</title>
<path fill="none" stroke="red" stroke-width="2" d="M847.27,-144.05C843.24,-136.01 838.34,-126.2 833.85,-117.23"/>
<polygon fill="red" stroke="red" stroke-width="2" points="836.98,-115.65 829.38,-108.28 830.72,-118.78 836.98,-115.65"/>
</g>
<!-- :core:database&#45;&gt;:core:model -->
<g id="edge24" class="edge">
<title>:core:database&#45;&gt;:core:model</title>
<path fill="none" stroke="black" d="M396.27,-78.06C466.59,-65.14 583.05,-43.75 654.81,-30.56"/>
<polygon fill="black" stroke="black" points="655.86,-33.93 665.06,-28.68 654.6,-27.04 655.86,-33.93"/>
</g>
<!-- :core:datastore&#45;&gt;:core:model -->
<g id="edge26" class="edge">
<title>:core:datastore&#45;&gt;:core:model</title>
<path fill="none" stroke="black" d="M443.06,-143.69C442.13,-123.63 443.95,-90.89 462.74,-72 488.07,-46.54 580.14,-32.27 646.38,-25.1"/>
<polygon fill="black" stroke="black" points="646.78,-28.58 656.36,-24.06 646.05,-21.62 646.78,-28.58"/>
</g>
<!-- :core:datastore&#45;&gt;:core:common -->
<g id="edge27" class="edge">
<title>:core:datastore&#45;&gt;:core:common</title>
<path fill="none" stroke="black" d="M504.28,-149.72C514.44,-147.81 524.89,-145.84 534.74,-144 609.31,-130.05 694.85,-114.22 752.81,-103.52"/>
<polygon fill="black" stroke="black" points="753.74,-106.91 762.94,-101.65 752.47,-100.02 753.74,-106.91"/>
</g>
<!-- :core:datastore&#45;proto -->
<g id="node15" class="node">
<title>:core:datastore&#45;proto</title>
<ellipse fill="none" stroke="black" cx="580.74" cy="-90" rx="108.58" ry="18"/>
<text text-anchor="middle" x="580.74" y="-86.3" font-family="Times,serif" font-size="14.00">:core:datastore&#45;proto</text>
</g>
<!-- :core:datastore&#45;&gt;:core:datastore&#45;proto -->
<g id="edge25" class="edge">
<title>:core:datastore&#45;&gt;:core:datastore&#45;proto</title>
<path fill="none" stroke="black" d="M475.26,-145.29C494.36,-135.46 519.2,-122.67 539.98,-111.98"/>
<polygon fill="black" stroke="black" points="541.61,-115.08 548.9,-107.39 538.41,-108.85 541.61,-115.08"/>
</g>
<!-- :core:network&#45;&gt;:core:model -->
<g id="edge29" class="edge">
<title>:core:network&#45;&gt;:core:model</title>
<path fill="none" stroke="black" d="M653.36,-145.79C669.51,-136.99 687.58,-124.39 698.74,-108 711.14,-89.8 715.67,-65.02 717.22,-46.24"/>
<polygon fill="black" stroke="black" points="720.72,-46.42 717.82,-36.23 713.73,-46 720.72,-46.42"/>
</g>
<!-- :core:network&#45;&gt;:core:common -->
<g id="edge28" class="edge">
<title>:core:network&#45;&gt;:core:common</title>
<path fill="none" stroke="black" d="M659.62,-146.83C691.52,-135.78 735.99,-120.37 770.14,-108.54"/>
<polygon fill="black" stroke="black" points="771.62,-111.73 779.92,-105.14 769.33,-105.11 771.62,-111.73"/>
</g>
</g>
</svg>
