<svg xmlns="http://www.w3.org/2000/svg" width="1181pt" height="548pt" viewBox="0 0 1180.74 548">
    <g class="graph">
        <path fill="#fff" stroke="transparent" d="M0 548V0h1180.74v548H0z"/>
        <g class="node" transform="translate(4 544)">
            <ellipse cx="286.74" cy="-522" fill="none" stroke="#000" rx="68.79" ry="18"/>
            <text x="286.74" y="-518.3" font-family="Times,serif" font-size="14" text-anchor="middle">:feature:sort</text>
        </g>
        <g class="node" transform="translate(4 544)">
            <ellipse cx="286.74" cy="-450" fill="none" stroke="#000" rx="45.49" ry="18"/>
            <text x="286.74" y="-446.3" font-family="Times,serif" font-size="14" text-anchor="middle">:core:ui</text>
        </g>
        <g stroke="red" stroke-width="2" class="edge">
            <path fill="none" d="M290.74 40.3v25.59"/>
            <path fill="red" d="m294.24 65.9-3.5 10-3.5-10h7z"/>
        </g>
        <g class="node" transform="translate(4 544)">
            <ellipse cx="100.74" cy="-378" fill="none" stroke="#000" rx="100.98" ry="18"/>
            <text x="100.74" y="-374.3" font-family="Times,serif" font-size="14" text-anchor="middle">:core:designsystem</text>
        </g>
        <g stroke="#000" class="edge">
            <path fill="none" d="M269.4 39.29c-33.09 25.26-96.89 73.97-134.62 102.78"/>
            <path d="m136.76 144.96-10.07 3.28 5.83-8.85 4.24 5.57z"/>
        </g>
        <g class="node" transform="translate(4 544)">
            <ellipse cx="739.74" cy="-234" fill="none" stroke="#000" rx="57.39" ry="18"/>
            <text x="739.74" y="-230.3" font-family="Times,serif" font-size="14" text-anchor="middle">:core:data</text>
        </g>
        <g stroke="#000" class="edge">
            <path fill="none" d="M319.89 38.42C379.23 70.18 517.78 146.1 627.74 220c31.34 21.06 65.42 47.69 88.47 66.31"/>
            <path d="m718.63 283.76 5.56 9.02-9.97-3.58 4.41-5.44z"/>
        </g>
        <g stroke="#000" class="edge">
            <path fill="none" d="M258.77 107.03c-28.36 10.68-70.28 26.45-103.23 38.85"/>
            <path d="m156.66 149.2-10.59.25 8.12-6.8 2.47 6.55z"/>
        </g>
        <g class="node" transform="translate(4 544)">
            <ellipse cx="1066.74" cy="-162" fill="none" stroke="#000" rx="77.99" ry="18"/>
            <text x="1066.74" y="-158.3" font-family="Times,serif" font-size="14" text-anchor="middle">:core:analytics</text>
        </g>
        <g stroke="#000" class="edge">
            <path fill="none" d="M324.95 106.02C413.7 134.8 658.43 215.31 858.74 292c58.75 22.49 125.5 51.02 168.14 69.62"/>
            <path d="m1028.37 358.46 7.76 7.21-10.57-.8 2.81-6.41z"/>
        </g>
        <g class="node" transform="translate(4 544)">
            <ellipse cx="420.74" cy="-18" fill="none" stroke="#000" rx="64.99" ry="18"/>
            <text x="420.74" y="-14.3" font-family="Times,serif" font-size="14" text-anchor="middle">:core:model</text>
        </g>
        <g stroke="#000" class="edge">
            <path fill="none" d="M279.21 111.62c-16.66 25.66-45.47 77.03-45.47 125.38v146c0 42.67 5.01 59.67 36 89 23.85 22.57 57.71 35.56 87.7 43.03"/>
            <path d="m358.5 511.68 8.95 5.67-10.54 1.15 1.59-6.82z"/>
        </g>
        <g class="node" transform="translate(4 544)">
            <ellipse cx="343.74" cy="-378" fill="none" stroke="#000" rx="70.69" ry="18"/>
            <text x="343.74" y="-374.3" font-family="Times,serif" font-size="14" text-anchor="middle">:core:domain</text>
        </g>
        <g stroke="red" stroke-width="2" class="edge">
            <path fill="none" d="M303.96 111.24c6.92 8.49 15.54 19.08 23.3 28.61"/>
            <path fill="red" d="m330.2 137.91 3.6 9.97-9.03-5.55 5.43-4.42z"/>
        </g>
        <g stroke="#000" class="edge">
            <path fill="none" d="M789.55 320.81c56.31 12.05 152.24 32.59 216.17 46.27"/>
            <path d="m1006.64 363.7 9.05 5.52-10.51 1.32 1.46-6.84z"/>
        </g>
        <g class="node" transform="translate(4 544)">
            <ellipse cx="819.74" cy="-18" fill="none" stroke="#000" rx="75.29" ry="18"/>
            <text x="819.74" y="-14.3" font-family="Times,serif" font-size="14" text-anchor="middle">:core:common</text>
        </g>
        <g stroke="#000" class="edge">
            <path fill="none" d="M793.15 319.31c29.2 7.26 64.97 20.59 88.59 44.69 34.56 35.26 49.84 64.77 26 108-7.92 14.37-21.56 25.38-35.57 33.54"/>
            <path d="m873.43 508.84-10.47 1.66 7.15-7.82 3.32 6.16z"/>
        </g>
        <g class="node" transform="translate(4 544)">
            <ellipse cx="507.74" cy="-162" fill="none" stroke="#000" rx="135.68" ry="18"/>
            <text x="507.74" y="-158.3" font-family="Times,serif" font-size="14" text-anchor="middle">:core:component-controller</text>
        </g>
        <g stroke="red" stroke-width="2" class="edge">
            <path fill="none" d="M703.86 323.03c-35.86 10.82-89.1 26.89-130.45 39.36"/>
            <path fill="red" d="m574.3 365.78-10.59-.46 8.57-6.24 2.02 6.7z"/>
        </g>
        <g class="node" transform="translate(4 544)">
            <ellipse cx="739.74" cy="-162" fill="none" stroke="#000" rx="78.79" ry="18"/>
            <text x="739.74" y="-158.3" font-family="Times,serif" font-size="14" text-anchor="middle">:core:database</text>
        </g>
        <g stroke="#000" class="edge">
            <path fill="none" d="M743.74 328.3v25.59"/>
            <path d="m747.24 353.9-3.5 10-3.5-10h7z"/>
        </g>
        <g class="node" transform="translate(4 544)">
            <ellipse cx="607.74" cy="-90" fill="none" stroke="#000" rx="81.49" ry="18"/>
            <text x="607.74" y="-86.3" font-family="Times,serif" font-size="14" text-anchor="middle">:core:datastore</text>
        </g>
        <g stroke="#000" class="edge">
            <path fill="none" d="M781.58 323.59c18.63 8.33 39.37 21.31 50.16 40.41 7.87 13.93 9.9 23.43 0 36-17.28 21.94-83.2 35.85-138.42 43.89"/>
            <path d="m693.54 447.4-10.39-2.07 9.41-4.87.98 6.94z"/>
        </g>
        <g class="node" transform="translate(4 544)">
            <ellipse cx="819.74" cy="-90" fill="none" stroke="#000" rx="74.99" ry="18"/>
            <text x="819.74" y="-86.3" font-family="Times,serif" font-size="14" text-anchor="middle">:core:network</text>
        </g>
        <g stroke="#000" class="edge">
            <path fill="none" d="M793.12 319.32c26.02 7.17 55.75 20.4 71.62 44.68 13.38 20.47-1.19 46.01-16.54 64.47"/>
            <path d="m850.66 430.97-9.24 5.19 3.99-9.81 5.25 4.62z"/>
        </g>
        <g stroke="#000" class="edge">
            <path fill="none" d="M406.11 176.26c46.8 8.45 113.68 22.82 169.63 43.74 49.17 18.38 102.09 48.28 135.12 68.28"/>
            <path d="m712.93 285.44 6.7 8.21-10.36-2.24 3.66-5.97z"/>
        </g>
        <g stroke="#000" class="edge">
            <path fill="none" d="M331.62 183.81c-22.31 25.1-59.88 74.86-59.88 125.19v74c0 40.54-6.31 58.16 20 89 17.59 20.62 44.32 33.29 69.22 41.04"/>
            <path d="m362.11 509.73 8.64 6.14-10.58.58 1.94-6.72z"/>
        </g>
        <g stroke="#000" class="edge">
            <path fill="none" d="M415.58 171.48c197.99 13.97 761.16 60.49 761.16 137.52v74c0 60.89-183.08 107.73-285.54 129.17"/>
            <path d="m891.74 515.63-10.5-1.4 9.09-5.45 1.41 6.85z"/>
        </g>
        <g stroke="#000" class="edge">
            <path fill="none" d="M360.61 183.79c28.67 37.41 97.93 127.79 131.81 172"/>
            <path d="m495.4 353.92 3.31 10.07-8.87-5.81 5.56-4.26z"/>
        </g>
        <g class="node" transform="translate(4 544)">
            <ellipse cx="364.74" cy="-90" fill="none" stroke="#000" rx="67.69" ry="18"/>
            <text x="364.74" y="-86.3" font-family="Times,serif" font-size="14" text-anchor="middle">:core:ifw-api</text>
        </g>
        <g stroke="#000" class="edge">
            <path fill="none" d="M347.33 184.05c-.7 38.62-1.14 135.68 9.41 215.95 1.12 8.55 2.98 17.75 4.89 26.05"/>
            <path d="m365.08 425.41-1.04 10.55-5.76-8.89 6.8-1.66z"/>
        </g>
        <g class="node" transform="translate(4 544)">
            <ellipse cx="507.74" cy="-306" fill="none" stroke="#000" rx="55.49" ry="18"/>
            <text x="507.74" y="-302.3" font-family="Times,serif" font-size="14" text-anchor="middle">:core:rule</text>
        </g>
        <g stroke="red" stroke-width="2" class="edge">
            <path fill="none" d="M382.52 181.85c25.65 10.94 60.66 25.89 87.77 37.46"/>
            <path fill="red" d="m471.69 216.1 7.83 7.15-10.57-.71 2.74-6.44z"/>
        </g>
        <g stroke="#000" class="edge">
            <path fill="none" d="m501.25 400.13-60.65 98.99"/>
            <path d="m443.48 501.11-8.21 6.7 2.24-10.35 5.97 3.65z"/>
        </g>
        <g stroke="#000" class="edge">
            <path fill="none" d="M592.78 396.5c35.05 8.1 75.58 20.6 108.96 39.5 20.25 11.46 19.63 21.72 38 36 14.8 11.5 32.17 22.79 47.26 31.97"/>
            <path d="m788.81 500.97 6.78 8.15-10.38-2.14 3.6-6.01z"/>
        </g>
        <g stroke="red" stroke-width="2" class="edge">
            <path fill="none" d="M477.85 399.59c-20.81 10.19-47.57 23.29-69.38 33.96"/>
            <path fill="red" d="m409.98 436.71-10.52 1.25 7.44-7.54 3.08 6.29z"/>
        </g>
        <g stroke="#000" class="edge">
            <path fill="none" d="M382.3 471.95c6.81 8.51 15.19 18.98 22.7 28.37"/>
            <path d="m407.8 498.22 3.51 9.99-8.98-5.62 5.47-4.37z"/>
        </g>
        <g stroke="red" stroke-width="2" class="edge">
            <path fill="none" d="M428.14 462.77c72.51 9.67 198.8 27.14 306.6 45.23 7.53 1.26 15.4 2.66 23.21 4.09"/>
            <path fill="red" d="m758.59 508.65 9.2 5.26-10.47 1.62 1.27-6.88z"/>
        </g>
        <g stroke="red" stroke-width="2" class="edge">
            <path fill="none" d="M550.83 250.8c39.42 11.89 100.4 30.29 143.22 43.21"/>
            <path fill="red" d="m695.15 290.68 8.56 6.24-10.59.46 2.03-6.7z"/>
        </g>
        <g stroke="#000" class="edge">
            <path fill="none" d="M565.99 241.41c61.35 4.35 163.17 16.52 243.75 50.59 50.44 21.33 69.56 26.47 100 72 27.01 40.39 42.31 66.52 17 108-10.07 16.51-27.12 28.1-44.47 36.13"/>
            <path d="m883.21 511.53-10.57.7 7.82-7.14 2.75 6.44z"/>
        </g>
        <g stroke="#000" class="edge">
            <path fill="none" d="M511.74 256.13v97.48"/>
            <path d="m515.24 353.81-3.5 10-3.5-10h7z"/>
        </g>
        <g stroke="#000" class="edge">
            <path fill="none" d="M483.15 253.59c-34.99 19.65-92.53 58.29-116.41 110.41-8.83 19.26-7.62 43.42-4.61 61.7"/>
            <path d="m365.61 425.23-1.55 10.48-5.33-9.16 6.88-1.32z"/>
        </g>
        <g stroke="#000" class="edge">
            <path fill="none" d="M688.01 394.77C627.17 407.85 536.4 428.18 521.74 436c-20.81 11.1-21.63 20.04-39 36a16535.3 16535.3 0 0 1-32.56 29.8"/>
            <path d="m452.53 504.39-9.74 4.16 5.03-9.33 4.71 5.17z"/>
        </g>
        <g stroke="#000" class="edge">
            <path fill="none" d="M572.08 469.85c-29.41 11-69.6 26.05-100.57 37.64"/>
            <path d="m472.39 510.9-10.59.23 8.14-6.79 2.45 6.56z"/>
        </g>
        <g stroke="#000" class="edge">
            <path fill="none" d="M655.15 469.33c33.78 11.16 80.75 26.67 116.54 38.48"/>
            <path d="m773.07 504.58 8.4 6.46-10.59.19 2.19-6.65z"/>
        </g>
        <g class="node" transform="translate(4 544)">
            <ellipse cx="612.74" cy="-18" fill="none" stroke="#000" rx="108.58" ry="18"/>
            <text x="612.74" y="-14.3" font-family="Times,serif" font-size="14" text-anchor="middle">:core:datastore-proto</text>
        </g>
        <g stroke="#000" class="edge">
            <path fill="none" d="M612.98 472.3c.55 7.72 1.21 16.99 1.82 25.59"/>
            <path d="m618.3 497.67-2.78 10.23-4.2-9.73 6.98-.5z"/>
        </g>
        <g stroke="#000" class="edge">
            <path fill="none" d="M761.22 463.98c-65.59 9.7-171.6 26.19-262.48 44.02a989.06 989.06 0 0 0-16.41 3.39"/>
            <path d="m482.93 514.84-10.52-1.26 9.02-5.57 1.5 6.83z"/>
        </g>
        <g stroke="#000" class="edge">
            <path fill="none" d="M823.74 472.3v25.59"/>
            <path d="m827.24 497.9-3.5 10-3.5-10h7z"/>
        </g>
    </g>
</svg>
