<?xml version="1.0" encoding="UTF-8" standalone="no"?>
<!DOCTYPE svg PUBLIC "-//W3C//DTD SVG 1.1//EN"
 "http://www.w3.org/Graphics/SVG/1.1/DTD/svg11.dtd">
<!-- Generated by graphviz version 2.43.0 (0)
 -->
<!-- Title: G Pages: 1 -->
<svg width="1223pt" height="620pt"
 viewBox="0.00 0.00 1222.58 620.00" xmlns="http://www.w3.org/2000/svg" xmlns:xlink="http://www.w3.org/1999/xlink">
<g id="graph0" class="graph" transform="scale(1 1) rotate(0) translate(4 616)">
<title>G</title>
<polygon fill="white" stroke="transparent" points="-4,4 -4,-616 1218.58,-616 1218.58,4 -4,4"/>
<!-- :feature:ruledetail -->
<g id="node1" class="node">
<title>:feature:ruledetail</title>
<ellipse fill="none" stroke="black" cx="652.74" cy="-594" rx="94.78" ry="18"/>
<text text-anchor="middle" x="652.74" y="-590.3" font-family="Times,serif" font-size="14.00">:feature:ruledetail</text>
</g>
<!-- :core:ui -->
<g id="node2" class="node">
<title>:core:ui</title>
<ellipse fill="none" stroke="black" cx="267.74" cy="-522" rx="45.49" ry="18"/>
<text text-anchor="middle" x="267.74" y="-518.3" font-family="Times,serif" font-size="14.00">:core:ui</text>
</g>
<!-- :feature:ruledetail&#45;&gt;:core:ui -->
<g id="edge1" class="edge">
<title>:feature:ruledetail&#45;&gt;:core:ui</title>
<path fill="none" stroke="red" stroke-width="2" d="M586.56,-580.97C510.48,-567.14 387.29,-544.74 318.44,-532.22"/>
<polygon fill="red" stroke="red" stroke-width="2" points="318.74,-528.72 308.28,-530.37 317.49,-535.6 318.74,-528.72"/>
</g>
<!-- :core:designsystem -->
<g id="node3" class="node">
<title>:core:designsystem</title>
<ellipse fill="none" stroke="black" cx="100.74" cy="-450" rx="100.98" ry="18"/>
<text text-anchor="middle" x="100.74" y="-446.3" font-family="Times,serif" font-size="14.00">:core:designsystem</text>
</g>
<!-- :feature:ruledetail&#45;&gt;:core:designsystem -->
<g id="edge2" class="edge">
<title>:feature:ruledetail&#45;&gt;:core:designsystem</title>
<path fill="none" stroke="black" d="M563.09,-587.9C453.47,-580.68 274.98,-565.43 213.74,-540 178.41,-525.33 144.9,-496.35 123.68,-475.43"/>
<polygon fill="black" stroke="black" points="125.97,-472.77 116.44,-468.14 121,-477.7 125.97,-472.77"/>
</g>
<!-- :core:component&#45;controller -->
<g id="node4" class="node">
<title>:core:component&#45;controller</title>
<ellipse fill="none" stroke="black" cx="1078.74" cy="-234" rx="135.68" ry="18"/>
<text text-anchor="middle" x="1078.74" y="-230.3" font-family="Times,serif" font-size="14.00">:core:component&#45;controller</text>
</g>
<!-- :feature:ruledetail&#45;&gt;:core:component&#45;controller -->
<g id="edge3" class="edge">
<title>:feature:ruledetail&#45;&gt;:core:component&#45;controller</title>
<path fill="none" stroke="black" d="M728.98,-583.19C850.3,-565.42 1073.74,-522.93 1073.74,-451 1073.74,-451 1073.74,-451 1073.74,-377 1073.74,-336.97 1075.75,-290.63 1077.22,-262.07"/>
<polygon fill="black" stroke="black" points="1080.72,-262.21 1077.75,-252.04 1073.73,-261.84 1080.72,-262.21"/>
</g>
<!-- :core:data -->
<g id="node5" class="node">
<title>:core:data</title>
<ellipse fill="none" stroke="black" cx="653.74" cy="-306" rx="57.39" ry="18"/>
<text text-anchor="middle" x="653.74" y="-302.3" font-family="Times,serif" font-size="14.00">:core:data</text>
</g>
<!-- :feature:ruledetail&#45;&gt;:core:data -->
<g id="edge4" class="edge">
<title>:feature:ruledetail&#45;&gt;:core:data</title>
<path fill="none" stroke="black" d="M652.8,-575.97C652.97,-528.29 653.44,-393.18 653.64,-334.63"/>
<polygon fill="black" stroke="black" points="657.15,-334.32 653.68,-324.31 650.15,-334.29 657.15,-334.32"/>
</g>
<!-- :core:domain -->
<g id="node6" class="node">
<title>:core:domain</title>
<ellipse fill="none" stroke="black" cx="751.74" cy="-450" rx="70.69" ry="18"/>
<text text-anchor="middle" x="751.74" y="-446.3" font-family="Times,serif" font-size="14.00">:core:domain</text>
</g>
<!-- :feature:ruledetail&#45;&gt;:core:domain -->
<g id="edge5" class="edge">
<title>:feature:ruledetail&#45;&gt;:core:domain</title>
<path fill="none" stroke="black" d="M664.68,-575.87C681.93,-551.14 713.92,-505.24 733.95,-476.51"/>
<polygon fill="black" stroke="black" points="736.91,-478.39 739.76,-468.19 731.17,-474.39 736.91,-478.39"/>
</g>
<!-- :core:ui&#45;&gt;:core:designsystem -->
<g id="edge7" class="edge">
<title>:core:ui&#45;&gt;:core:designsystem</title>
<path fill="none" stroke="black" d="M237.5,-508.32C212.5,-497.85 176.58,-482.79 147.82,-470.73"/>
<polygon fill="black" stroke="black" points="148.94,-467.41 138.37,-466.77 146.24,-473.87 148.94,-467.41"/>
</g>
<!-- :core:ui&#45;&gt;:core:domain -->
<g id="edge9" class="edge">
<title>:core:ui&#45;&gt;:core:domain</title>
<path fill="none" stroke="red" stroke-width="2" d="M309.85,-514.91C393.2,-502.85 579.97,-475.84 681.98,-461.09"/>
<polygon fill="red" stroke="red" stroke-width="2" points="682.49,-464.55 691.88,-459.66 681.49,-457.62 682.49,-464.55"/>
</g>
<!-- :core:analytics -->
<g id="node7" class="node">
<title>:core:analytics</title>
<ellipse fill="none" stroke="black" cx="373.74" cy="-234" rx="77.99" ry="18"/>
<text text-anchor="middle" x="373.74" y="-230.3" font-family="Times,serif" font-size="14.00">:core:analytics</text>
</g>
<!-- :core:ui&#45;&gt;:core:analytics -->
<g id="edge6" class="edge">
<title>:core:ui&#45;&gt;:core:analytics</title>
<path fill="none" stroke="black" d="M274.05,-503.97C291.84,-455.98 342.45,-319.41 363.92,-261.49"/>
<polygon fill="black" stroke="black" points="367.27,-262.54 367.46,-251.94 360.7,-260.11 367.27,-262.54"/>
</g>
<!-- :core:model -->
<g id="node8" class="node">
<title>:core:model</title>
<ellipse fill="none" stroke="black" cx="481.74" cy="-18" rx="64.99" ry="18"/>
<text text-anchor="middle" x="481.74" y="-14.3" font-family="Times,serif" font-size="14.00">:core:model</text>
</g>
<!-- :core:ui&#45;&gt;:core:model -->
<g id="edge8" class="edge">
<title>:core:ui&#45;&gt;:core:model</title>
<path fill="none" stroke="black" d="M260.05,-503.91C248.95,-477.62 229.74,-425.45 229.74,-379 229.74,-379 229.74,-379 229.74,-161 229.74,-119.11 229.68,-100.1 260.74,-72 283.13,-51.74 357.75,-36.76 414.14,-27.99"/>
<polygon fill="black" stroke="black" points="414.72,-31.44 424.08,-26.48 413.67,-24.52 414.72,-31.44"/>
</g>
<!-- :core:component&#45;controller&#45;&gt;:core:model -->
<g id="edge30" class="edge">
<title>:core:component&#45;controller&#45;&gt;:core:model</title>
<path fill="none" stroke="black" d="M1074.62,-215.82C1069.4,-196.76 1058.95,-165.81 1041.74,-144 1008.04,-101.29 993.43,-91.76 942.74,-72 873.86,-45.16 666.83,-29.56 555.11,-22.88"/>
<polygon fill="black" stroke="black" points="555.12,-19.38 544.94,-22.28 554.71,-26.37 555.12,-19.38"/>
</g>
<!-- :core:common -->
<g id="node9" class="node">
<title>:core:common</title>
<ellipse fill="none" stroke="black" cx="858.74" cy="-90" rx="75.29" ry="18"/>
<text text-anchor="middle" x="858.74" y="-86.3" font-family="Times,serif" font-size="14.00">:core:common</text>
</g>
<!-- :core:component&#45;controller&#45;&gt;:core:common -->
<g id="edge29" class="edge">
<title>:core:component&#45;controller&#45;&gt;:core:common</title>
<path fill="none" stroke="black" d="M1069.94,-215.82C1058.9,-195.87 1038.16,-163.24 1011.74,-144 986.23,-125.42 953.67,-112.94 925.15,-104.79"/>
<polygon fill="black" stroke="black" points="925.82,-101.35 915.25,-102.08 923.97,-108.1 925.82,-101.35"/>
</g>
<!-- :core:ifw&#45;api -->
<g id="node10" class="node">
<title>:core:ifw&#45;api</title>
<ellipse fill="none" stroke="black" cx="934.74" cy="-162" rx="67.69" ry="18"/>
<text text-anchor="middle" x="934.74" y="-158.3" font-family="Times,serif" font-size="14.00">:core:ifw&#45;api</text>
</g>
<!-- :core:component&#45;controller&#45;&gt;:core:ifw&#45;api -->
<g id="edge31" class="edge">
<title>:core:component&#45;controller&#45;&gt;:core:ifw&#45;api</title>
<path fill="none" stroke="red" stroke-width="2" d="M1044.62,-216.41C1023.66,-206.22 996.71,-193.12 974.75,-182.45"/>
<polygon fill="red" stroke="red" stroke-width="2" points="976.2,-179.26 965.68,-178.04 973.14,-185.56 976.2,-179.26"/>
</g>
<!-- :core:data&#45;&gt;:core:component&#45;controller -->
<g id="edge21" class="edge">
<title>:core:data&#45;&gt;:core:component&#45;controller</title>
<path fill="none" stroke="red" stroke-width="2" d="M703.33,-296.83C772.8,-285.39 900.33,-264.39 987.28,-250.06"/>
<polygon fill="red" stroke="red" stroke-width="2" points="987.85,-253.52 997.15,-248.44 986.72,-246.61 987.85,-253.52"/>
</g>
<!-- :core:data&#45;&gt;:core:analytics -->
<g id="edge20" class="edge">
<title>:core:data&#45;&gt;:core:analytics</title>
<path fill="none" stroke="black" d="M610.3,-294.14C563.25,-282.38 487.85,-263.53 434.85,-250.28"/>
<polygon fill="black" stroke="black" points="435.44,-246.82 424.89,-247.79 433.74,-253.61 435.44,-246.82"/>
</g>
<!-- :core:data&#45;&gt;:core:common -->
<g id="edge16" class="edge">
<title>:core:data&#45;&gt;:core:common</title>
<path fill="none" stroke="black" d="M665.38,-288.33C687.16,-257.78 736.43,-191.58 786.74,-144 798.56,-132.82 812.77,-121.91 825.43,-112.93"/>
<polygon fill="black" stroke="black" points="827.7,-115.62 833.9,-107.03 823.7,-109.87 827.7,-115.62"/>
</g>
<!-- :core:database -->
<g id="node12" class="node">
<title>:core:database</title>
<ellipse fill="none" stroke="black" cx="374.74" cy="-90" rx="78.79" ry="18"/>
<text text-anchor="middle" x="374.74" y="-86.3" font-family="Times,serif" font-size="14.00">:core:database</text>
</g>
<!-- :core:data&#45;&gt;:core:database -->
<g id="edge17" class="edge">
<title>:core:data&#45;&gt;:core:database</title>
<path fill="none" stroke="black" d="M622.72,-290.84C555.84,-260.2 403.48,-189.7 395.74,-180 381.85,-162.6 376.88,-137.55 375.22,-118.46"/>
<polygon fill="black" stroke="black" points="378.7,-118.04 374.59,-108.28 371.71,-118.47 378.7,-118.04"/>
</g>
<!-- :core:datastore -->
<g id="node13" class="node">
<title>:core:datastore</title>
<ellipse fill="none" stroke="black" cx="653.74" cy="-162" rx="81.49" ry="18"/>
<text text-anchor="middle" x="653.74" y="-158.3" font-family="Times,serif" font-size="14.00">:core:datastore</text>
</g>
<!-- :core:data&#45;&gt;:core:datastore -->
<g id="edge18" class="edge">
<title>:core:data&#45;&gt;:core:datastore</title>
<path fill="none" stroke="black" d="M653.74,-287.87C653.74,-263.67 653.74,-219.21 653.74,-190.39"/>
<polygon fill="black" stroke="black" points="657.24,-190.19 653.74,-180.19 650.24,-190.19 657.24,-190.19"/>
</g>
<!-- :core:network -->
<g id="node14" class="node">
<title>:core:network</title>
<ellipse fill="none" stroke="black" cx="479.74" cy="-162" rx="74.99" ry="18"/>
<text text-anchor="middle" x="479.74" y="-158.3" font-family="Times,serif" font-size="14.00">:core:network</text>
</g>
<!-- :core:data&#45;&gt;:core:network -->
<g id="edge19" class="edge">
<title>:core:data&#45;&gt;:core:network</title>
<path fill="none" stroke="black" d="M634.12,-288.99C603.26,-263.81 543.27,-214.85 507.85,-185.94"/>
<polygon fill="black" stroke="black" points="509.79,-183 499.83,-179.39 505.36,-188.43 509.79,-183"/>
</g>
<!-- :core:domain&#45;&gt;:core:component&#45;controller -->
<g id="edge13" class="edge">
<title>:core:domain&#45;&gt;:core:component&#45;controller</title>
<path fill="none" stroke="black" d="M811.03,-439.95C847.85,-432.37 895,-418.96 931.74,-396 989,-360.22 1037.83,-296.13 1062.19,-260.56"/>
<polygon fill="black" stroke="black" points="1065.16,-262.41 1067.84,-252.16 1059.35,-258.5 1065.16,-262.41"/>
</g>
<!-- :core:domain&#45;&gt;:core:data -->
<g id="edge10" class="edge">
<title>:core:domain&#45;&gt;:core:data</title>
<path fill="none" stroke="black" d="M740.11,-432.15C723.02,-407.39 690.99,-360.97 671.1,-332.16"/>
<polygon fill="black" stroke="black" points="673.91,-330.07 665.35,-323.82 668.15,-334.04 673.91,-330.07"/>
</g>
<!-- :core:domain&#45;&gt;:core:model -->
<g id="edge11" class="edge">
<title>:core:domain&#45;&gt;:core:model</title>
<path fill="none" stroke="black" d="M685.8,-443.26C580.36,-430.12 376.55,-387.59 286.74,-252 242.56,-185.3 238.15,-135.56 286.74,-72 302.44,-51.47 364.67,-37.01 414.66,-28.44"/>
<polygon fill="black" stroke="black" points="415.51,-31.85 424.8,-26.75 414.36,-24.94 415.51,-31.85"/>
</g>
<!-- :core:domain&#45;&gt;:core:common -->
<g id="edge12" class="edge">
<title>:core:domain&#45;&gt;:core:common</title>
<path fill="none" stroke="black" d="M754.85,-431.81C758.24,-413.79 764.08,-384.71 770.74,-360 794.98,-270.05 831.58,-165.8 848.94,-117.76"/>
<polygon fill="black" stroke="black" points="852.32,-118.71 852.44,-108.12 845.74,-116.32 852.32,-118.71"/>
</g>
<!-- :core:domain&#45;&gt;:core:ifw&#45;api -->
<g id="edge14" class="edge">
<title>:core:domain&#45;&gt;:core:ifw&#45;api</title>
<path fill="none" stroke="black" d="M814.23,-441.38C844.17,-434.45 877.96,-421.23 898.74,-396 924.24,-365.05 931.79,-244.98 933.94,-190.35"/>
<polygon fill="black" stroke="black" points="937.43,-190.46 934.3,-180.34 930.44,-190.21 937.43,-190.46"/>
</g>
<!-- :core:rule -->
<g id="node11" class="node">
<title>:core:rule</title>
<ellipse fill="none" stroke="black" cx="834.74" cy="-378" rx="55.49" ry="18"/>
<text text-anchor="middle" x="834.74" y="-374.3" font-family="Times,serif" font-size="14.00">:core:rule</text>
</g>
<!-- :core:domain&#45;&gt;:core:rule -->
<g id="edge15" class="edge">
<title>:core:domain&#45;&gt;:core:rule</title>
<path fill="none" stroke="red" stroke-width="2" d="M771.41,-432.41C782.32,-423.21 796.03,-411.64 807.91,-401.63"/>
<polygon fill="red" stroke="red" stroke-width="2" points="810.4,-404.11 815.78,-394.99 805.88,-398.76 810.4,-404.11"/>
</g>
<!-- :core:common&#45;&gt;:core:model -->
<g id="edge22" class="edge">
<title>:core:common&#45;&gt;:core:model</title>
<path fill="none" stroke="red" stroke-width="2" d="M803.65,-77.68C794.02,-75.75 784.09,-73.79 774.74,-72 695.79,-56.87 604.64,-40.57 545.25,-30.1"/>
<polygon fill="red" stroke="red" stroke-width="2" points="545.72,-26.63 535.27,-28.34 544.51,-33.52 545.72,-26.63"/>
</g>
<!-- :core:ifw&#45;api&#45;&gt;:core:common -->
<g id="edge32" class="edge">
<title>:core:ifw&#45;api&#45;&gt;:core:common</title>
<path fill="none" stroke="red" stroke-width="2" d="M916.73,-144.41C907.05,-135.5 894.96,-124.36 884.32,-114.56"/>
<polygon fill="red" stroke="red" stroke-width="2" points="886.61,-111.91 876.89,-107.71 881.87,-117.06 886.61,-111.91"/>
</g>
<!-- :core:rule&#45;&gt;:core:component&#45;controller -->
<g id="edge34" class="edge">
<title>:core:rule&#45;&gt;:core:component&#45;controller</title>
<path fill="none" stroke="black" d="M860.85,-361.8C904.25,-336.55 991.39,-285.83 1041.32,-256.78"/>
<polygon fill="black" stroke="black" points="1043.31,-259.67 1050.19,-251.62 1039.79,-253.62 1043.31,-259.67"/>
</g>
<!-- :core:rule&#45;&gt;:core:data -->
<g id="edge35" class="edge">
<title>:core:rule&#45;&gt;:core:data</title>
<path fill="none" stroke="red" stroke-width="2" d="M800.27,-363.67C771.18,-352.42 729.34,-336.24 697.82,-324.05"/>
<polygon fill="red" stroke="red" stroke-width="2" points="698.98,-320.74 688.39,-320.4 696.46,-327.27 698.98,-320.74"/>
</g>
<!-- :core:rule&#45;&gt;:core:common -->
<g id="edge33" class="edge">
<title>:core:rule&#45;&gt;:core:common</title>
<path fill="none" stroke="black" d="M836.17,-359.97C840.17,-312.29 851.51,-177.18 856.42,-118.63"/>
<polygon fill="black" stroke="black" points="859.94,-118.56 857.29,-108.31 852.96,-117.98 859.94,-118.56"/>
</g>
<!-- :core:rule&#45;&gt;:core:ifw&#45;api -->
<g id="edge36" class="edge">
<title>:core:rule&#45;&gt;:core:ifw&#45;api</title>
<path fill="none" stroke="black" d="M840.52,-360.1C850.97,-330.27 874.39,-266.65 900.74,-216 905.53,-206.79 911.45,-197.11 917,-188.59"/>
<polygon fill="black" stroke="black" points="919.96,-190.46 922.58,-180.19 914.13,-186.58 919.96,-190.46"/>
</g>
<!-- :core:database&#45;&gt;:core:model -->
<g id="edge23" class="edge">
<title>:core:database&#45;&gt;:core:model</title>
<path fill="none" stroke="black" d="M399.56,-72.76C414.25,-63.15 433.03,-50.87 448.93,-40.46"/>
<polygon fill="black" stroke="black" points="450.98,-43.31 457.43,-34.91 447.14,-37.45 450.98,-43.31"/>
</g>
<!-- :core:datastore&#45;&gt;:core:model -->
<g id="edge25" class="edge">
<title>:core:datastore&#45;&gt;:core:model</title>
<path fill="none" stroke="black" d="M608.54,-147.01C585.81,-138.37 558.88,-125.54 538.74,-108 518.86,-90.68 503.33,-64.76 493.54,-45.35"/>
<polygon fill="black" stroke="black" points="496.59,-43.61 489.08,-36.14 490.29,-46.67 496.59,-43.61"/>
</g>
<!-- :core:datastore&#45;&gt;:core:common -->
<g id="edge26" class="edge">
<title>:core:datastore&#45;&gt;:core:common</title>
<path fill="none" stroke="black" d="M696.22,-146.5C728.56,-135.45 773.21,-120.2 807.53,-108.49"/>
<polygon fill="black" stroke="black" points="809.04,-111.67 817.37,-105.13 806.78,-105.05 809.04,-111.67"/>
</g>
<!-- :core:datastore&#45;proto -->
<g id="node15" class="node">
<title>:core:datastore&#45;proto</title>
<ellipse fill="none" stroke="black" cx="656.74" cy="-90" rx="108.58" ry="18"/>
<text text-anchor="middle" x="656.74" y="-86.3" font-family="Times,serif" font-size="14.00">:core:datastore&#45;proto</text>
</g>
<!-- :core:datastore&#45;&gt;:core:datastore&#45;proto -->
<g id="edge24" class="edge">
<title>:core:datastore&#45;&gt;:core:datastore&#45;proto</title>
<path fill="none" stroke="black" d="M654.48,-143.7C654.81,-135.98 655.21,-126.71 655.58,-118.11"/>
<polygon fill="black" stroke="black" points="659.08,-118.25 656.01,-108.1 652.08,-117.95 659.08,-118.25"/>
</g>
<!-- :core:network&#45;&gt;:core:model -->
<g id="edge28" class="edge">
<title>:core:network&#45;&gt;:core:model</title>
<path fill="none" stroke="black" d="M479.98,-143.87C480.32,-119.67 480.95,-75.21 481.36,-46.39"/>
<polygon fill="black" stroke="black" points="484.86,-46.24 481.5,-36.19 477.86,-46.14 484.86,-46.24"/>
</g>
<!-- :core:network&#45;&gt;:core:common -->
<g id="edge27" class="edge">
<title>:core:network&#45;&gt;:core:common</title>
<path fill="none" stroke="black" d="M534.37,-149.69C544.14,-147.74 554.23,-145.77 563.74,-144 657.26,-126.56 681.22,-125.44 774.74,-108 780.88,-106.85 787.27,-105.63 793.66,-104.38"/>
<polygon fill="black" stroke="black" points="794.53,-107.77 803.66,-102.4 793.17,-100.9 794.53,-107.77"/>
</g>
</g>
</svg>
