<?xml version="1.0" encoding="UTF-8" standalone="no"?>
<!DOCTYPE svg PUBLIC "-//W3C//DTD SVG 1.1//EN"
 "http://www.w3.org/Graphics/SVG/1.1/DTD/svg11.dtd">
<!-- Generated by graphviz version 2.43.0 (0)
 -->
<!-- Title: G Pages: 1 -->
<svg width="884pt" height="404pt"
 viewBox="0.00 0.00 883.99 404.00" xmlns="http://www.w3.org/2000/svg" xmlns:xlink="http://www.w3.org/1999/xlink">
<g id="graph0" class="graph" transform="scale(1 1) rotate(0) translate(4 400)">
<title>G</title>
<polygon fill="white" stroke="transparent" points="-4,4 -4,-400 879.99,-400 879.99,4 -4,4"/>
<!-- :core:provider -->
<g id="node1" class="node">
<title>:core:provider</title>
<ellipse fill="none" stroke="black" cx="619.99" cy="-378" rx="76.09" ry="18"/>
<text text-anchor="middle" x="619.99" y="-374.3" font-family="Times,serif" font-size="14.00">:core:provider</text>
</g>
<!-- :core:analytics -->
<g id="node2" class="node">
<title>:core:analytics</title>
<ellipse fill="none" stroke="black" cx="77.99" cy="-234" rx="77.99" ry="18"/>
<text text-anchor="middle" x="77.99" y="-230.3" font-family="Times,serif" font-size="14.00">:core:analytics</text>
</g>
<!-- :core:provider&#45;&gt;:core:analytics -->
<g id="edge1" class="edge">
<title>:core:provider&#45;&gt;:core:analytics</title>
<path fill="none" stroke="black" d="M556.79,-367.95C498.84,-359 410.91,-343.8 335.99,-324 260.9,-304.16 176.18,-273.23 124.96,-253.55"/>
<polygon fill="black" stroke="black" points="126.07,-250.23 115.48,-249.9 123.55,-256.76 126.07,-250.23"/>
</g>
<!-- :core:common -->
<g id="node3" class="node">
<title>:core:common</title>
<ellipse fill="none" stroke="black" cx="528.99" cy="-90" rx="75.29" ry="18"/>
<text text-anchor="middle" x="528.99" y="-86.3" font-family="Times,serif" font-size="14.00">:core:common</text>
</g>
<!-- :core:provider&#45;&gt;:core:common -->
<g id="edge2" class="edge">
<title>:core:provider&#45;&gt;:core:common</title>
<path fill="none" stroke="black" d="M651.47,-361.57C723.31,-324.37 887.98,-226.74 818.99,-144 793.11,-112.96 688.82,-100.05 612.7,-94.71"/>
<polygon fill="black" stroke="black" points="612.83,-91.21 602.62,-94.04 612.37,-98.2 612.83,-91.21"/>
</g>
<!-- :core:data -->
<g id="node4" class="node">
<title>:core:data</title>
<ellipse fill="none" stroke="black" cx="401.99" cy="-306" rx="57.39" ry="18"/>
<text text-anchor="middle" x="401.99" y="-302.3" font-family="Times,serif" font-size="14.00">:core:data</text>
</g>
<!-- :core:provider&#45;&gt;:core:data -->
<g id="edge3" class="edge">
<title>:core:provider&#45;&gt;:core:data</title>
<path fill="none" stroke="red" stroke-width="2" d="M576.66,-363.09C540.19,-351.37 488.07,-334.64 450.27,-322.5"/>
<polygon fill="red" stroke="red" stroke-width="2" points="451.09,-319.09 440.5,-319.36 448.95,-325.75 451.09,-319.09"/>
</g>
<!-- :core:model -->
<g id="node5" class="node">
<title>:core:model</title>
<ellipse fill="none" stroke="black" cx="579.99" cy="-18" rx="64.99" ry="18"/>
<text text-anchor="middle" x="579.99" y="-14.3" font-family="Times,serif" font-size="14.00">:core:model</text>
</g>
<!-- :core:provider&#45;&gt;:core:model -->
<g id="edge4" class="edge">
<title>:core:provider&#45;&gt;:core:model</title>
<path fill="none" stroke="black" d="M686.25,-369.12C762.1,-355.97 875.99,-321.78 875.99,-235 875.99,-235 875.99,-235 875.99,-161 875.99,-62.59 741.34,-32.33 653.67,-23.06"/>
<polygon fill="black" stroke="black" points="653.79,-19.55 643.49,-22.05 653.1,-26.52 653.79,-19.55"/>
</g>
<!-- :core:common&#45;&gt;:core:model -->
<g id="edge5" class="edge">
<title>:core:common&#45;&gt;:core:model</title>
<path fill="none" stroke="red" stroke-width="2" d="M541.34,-72.05C547.48,-63.63 555.02,-53.28 561.8,-43.97"/>
<polygon fill="red" stroke="red" stroke-width="2" points="564.7,-45.93 567.76,-35.79 559.04,-41.81 564.7,-45.93"/>
</g>
<!-- :core:data&#45;&gt;:core:analytics -->
<g id="edge10" class="edge">
<title>:core:data&#45;&gt;:core:analytics</title>
<path fill="none" stroke="black" d="M356.26,-295.12C300.54,-283.08 206.04,-262.67 142.84,-249.01"/>
<polygon fill="black" stroke="black" points="143.49,-245.57 132.97,-246.88 142.01,-252.41 143.49,-245.57"/>
</g>
<!-- :core:data&#45;&gt;:core:common -->
<g id="edge6" class="edge">
<title>:core:data&#45;&gt;:core:common</title>
<path fill="none" stroke="black" d="M402.88,-288C405.36,-256.31 414.72,-187.5 449.99,-144 460.4,-131.16 474.75,-120.26 488.36,-111.75"/>
<polygon fill="black" stroke="black" points="490.36,-114.63 497.15,-106.5 486.77,-108.62 490.36,-114.63"/>
</g>
<!-- :core:database -->
<g id="node6" class="node">
<title>:core:database</title>
<ellipse fill="none" stroke="black" cx="82.99" cy="-90" rx="78.79" ry="18"/>
<text text-anchor="middle" x="82.99" y="-86.3" font-family="Times,serif" font-size="14.00">:core:database</text>
</g>
<!-- :core:data&#45;&gt;:core:database -->
<g id="edge7" class="edge">
<title>:core:data&#45;&gt;:core:database</title>
<path fill="none" stroke="black" d="M376.46,-289.83C338.2,-266.9 263.96,-221.67 202.99,-180 171.39,-158.4 136.34,-132.12 112.32,-113.74"/>
<polygon fill="black" stroke="black" points="114.37,-110.9 104.31,-107.59 110.11,-116.46 114.37,-110.9"/>
</g>
<!-- :core:datastore -->
<g id="node7" class="node">
<title>:core:datastore</title>
<ellipse fill="none" stroke="black" cx="292.99" cy="-162" rx="81.49" ry="18"/>
<text text-anchor="middle" x="292.99" y="-158.3" font-family="Times,serif" font-size="14.00">:core:datastore</text>
</g>
<!-- :core:data&#45;&gt;:core:datastore -->
<g id="edge8" class="edge">
<title>:core:data&#45;&gt;:core:datastore</title>
<path fill="none" stroke="black" d="M389.28,-288.43C370.26,-263.66 334.29,-216.8 312.1,-187.9"/>
<polygon fill="black" stroke="black" points="314.83,-185.7 305.97,-179.9 309.28,-189.97 314.83,-185.7"/>
</g>
<!-- :core:network -->
<g id="node8" class="node">
<title>:core:network</title>
<ellipse fill="none" stroke="black" cx="734.99" cy="-162" rx="74.99" ry="18"/>
<text text-anchor="middle" x="734.99" y="-158.3" font-family="Times,serif" font-size="14.00">:core:network</text>
</g>
<!-- :core:data&#45;&gt;:core:network -->
<g id="edge9" class="edge">
<title>:core:data&#45;&gt;:core:network</title>
<path fill="none" stroke="black" d="M458.28,-302.46C537.11,-297.75 674.82,-284.94 710.99,-252 728.04,-236.47 733.5,-210.23 735.02,-190.25"/>
<polygon fill="black" stroke="black" points="738.52,-190.34 735.5,-180.18 731.53,-190 738.52,-190.34"/>
</g>
<!-- :core:component&#45;controller -->
<g id="node9" class="node">
<title>:core:component&#45;controller</title>
<ellipse fill="none" stroke="black" cx="565.99" cy="-234" rx="135.68" ry="18"/>
<text text-anchor="middle" x="565.99" y="-230.3" font-family="Times,serif" font-size="14.00">:core:component&#45;controller</text>
</g>
<!-- :core:data&#45;&gt;:core:component&#45;controller -->
<g id="edge11" class="edge">
<title>:core:data&#45;&gt;:core:component&#45;controller</title>
<path fill="none" stroke="red" stroke-width="2" d="M434.79,-291C458.78,-280.76 491.71,-266.71 518.57,-255.24"/>
<polygon fill="red" stroke="red" stroke-width="2" points="519.97,-258.45 527.79,-251.31 517.22,-252.01 519.97,-258.45"/>
</g>
<!-- :core:database&#45;&gt;:core:model -->
<g id="edge12" class="edge">
<title>:core:database&#45;&gt;:core:model</title>
<path fill="none" stroke="black" d="M141.46,-77.85C152.89,-75.8 164.8,-73.76 175.99,-72 293.44,-53.57 430.8,-36.5 511.31,-26.94"/>
<polygon fill="black" stroke="black" points="511.8,-30.41 521.32,-25.76 510.98,-23.46 511.8,-30.41"/>
</g>
<!-- :core:datastore&#45;&gt;:core:common -->
<g id="edge15" class="edge">
<title>:core:datastore&#45;&gt;:core:common</title>
<path fill="none" stroke="black" d="M339.62,-147.17C378.21,-135.72 433.13,-119.44 473.89,-107.34"/>
<polygon fill="black" stroke="black" points="475.07,-110.64 483.67,-104.44 473.08,-103.93 475.07,-110.64"/>
</g>
<!-- :core:datastore&#45;&gt;:core:model -->
<g id="edge14" class="edge">
<title>:core:datastore&#45;&gt;:core:model</title>
<path fill="none" stroke="black" d="M253.33,-146.28C236.49,-137.82 218.57,-125.36 208.99,-108 201.27,-93.99 198.51,-84.09 208.99,-72 246.46,-28.8 407.39,-19.94 504.57,-18.63"/>
<polygon fill="black" stroke="black" points="504.68,-22.12 514.64,-18.51 504.6,-15.12 504.68,-22.12"/>
</g>
<!-- :core:datastore&#45;proto -->
<g id="node10" class="node">
<title>:core:datastore&#45;proto</title>
<ellipse fill="none" stroke="black" cx="326.99" cy="-90" rx="108.58" ry="18"/>
<text text-anchor="middle" x="326.99" y="-86.3" font-family="Times,serif" font-size="14.00">:core:datastore&#45;proto</text>
</g>
<!-- :core:datastore&#45;&gt;:core:datastore&#45;proto -->
<g id="edge13" class="edge">
<title>:core:datastore&#45;&gt;:core:datastore&#45;proto</title>
<path fill="none" stroke="black" d="M301.22,-144.05C305.09,-136.09 309.79,-126.41 314.12,-117.51"/>
<polygon fill="black" stroke="black" points="317.38,-118.8 318.6,-108.28 311.08,-115.74 317.38,-118.8"/>
</g>
<!-- :core:network&#45;&gt;:core:common -->
<g id="edge16" class="edge">
<title>:core:network&#45;&gt;:core:common</title>
<path fill="none" stroke="black" d="M693.31,-146.83C660.64,-135.73 615.03,-120.24 580.15,-108.38"/>
<polygon fill="black" stroke="black" points="581.21,-105.05 570.62,-105.14 578.96,-111.68 581.21,-105.05"/>
</g>
<!-- :core:network&#45;&gt;:core:model -->
<g id="edge17" class="edge">
<title>:core:network&#45;&gt;:core:model</title>
<path fill="none" stroke="black" d="M719.43,-144.38C702.05,-126.09 672.84,-96.07 645.99,-72 634.37,-61.58 621.03,-50.68 609.4,-41.5"/>
<polygon fill="black" stroke="black" points="611.31,-38.55 601.28,-35.14 607,-44.06 611.31,-38.55"/>
</g>
<!-- :core:component&#45;controller&#45;&gt;:core:common -->
<g id="edge18" class="edge">
<title>:core:component&#45;controller&#45;&gt;:core:common</title>
<path fill="none" stroke="black" d="M507.68,-217.69C488.83,-209.67 469.98,-197.7 458.99,-180 450.56,-166.41 451.87,-158.33 458.99,-144 465.49,-130.93 476.92,-120.22 488.69,-111.94"/>
<polygon fill="black" stroke="black" points="490.8,-114.74 497.25,-106.33 486.96,-108.88 490.8,-114.74"/>
</g>
<!-- :core:component&#45;controller&#45;&gt;:core:model -->
<g id="edge19" class="edge">
<title>:core:component&#45;controller&#45;&gt;:core:model</title>
<path fill="none" stroke="black" d="M586.77,-216.17C596.75,-206.72 607.67,-194.03 612.99,-180 630.03,-135.12 626.19,-118.15 612.99,-72 610.24,-62.36 605.16,-52.76 599.8,-44.44"/>
<polygon fill="black" stroke="black" points="602.53,-42.22 593.98,-35.96 596.76,-46.19 602.53,-42.22"/>
</g>
<!-- :core:ifw&#45;api -->
<g id="node11" class="node">
<title>:core:ifw&#45;api</title>
<ellipse fill="none" stroke="black" cx="535.99" cy="-162" rx="67.69" ry="18"/>
<text text-anchor="middle" x="535.99" y="-158.3" font-family="Times,serif" font-size="14.00">:core:ifw&#45;api</text>
</g>
<!-- :core:component&#45;controller&#45;&gt;:core:ifw&#45;api -->
<g id="edge20" class="edge">
<title>:core:component&#45;controller&#45;&gt;:core:ifw&#45;api</title>
<path fill="none" stroke="red" stroke-width="2" d="M558.58,-215.7C555.2,-207.81 551.12,-198.3 547.37,-189.55"/>
<polygon fill="red" stroke="red" stroke-width="2" points="550.48,-187.92 543.32,-180.1 544.05,-190.67 550.48,-187.92"/>
</g>
<!-- :core:ifw&#45;api&#45;&gt;:core:common -->
<g id="edge21" class="edge">
<title>:core:ifw&#45;api&#45;&gt;:core:common</title>
<path fill="none" stroke="red" stroke-width="2" d="M534.26,-143.7C533.49,-135.98 532.56,-126.71 531.7,-118.11"/>
<polygon fill="red" stroke="red" stroke-width="2" points="535.18,-117.71 530.7,-108.1 528.22,-118.4 535.18,-117.71"/>
</g>
</g>
</svg>
