<?xml version="1.0" encoding="UTF-8" standalone="no"?>
<!DOCTYPE svg PUBLIC "-//W3C//DTD SVG 1.1//EN" "http://www.w3.org/Graphics/SVG/1.1/DTD/svg11.dtd">
<svg xmlns="http://www.w3.org/2000/svg" xmlns:xlink="http://www.w3.org/1999/xlink" width="799pt" height="332pt" viewBox="0.00 0.00 799.41 332.00">
  <g id="graph0" class="graph" transform="scale(1 1) rotate(0) translate(4 328)">
    <title>G</title>
    <polygon fill="white" stroke="transparent" points="-4,4 -4,-328 795.41,-328 795.41,4 -4,4"/>
    <g id="node1" class="node">
      <title>:core:rule</title>
      <ellipse fill="none" stroke="black" cx="88.77" cy="-306" rx="55.49" ry="18"/>
      <text text-anchor="middle" x="88.77" y="-302.3" font-family="Times,serif" font-size="14.00">:core:rule</text>
    </g>
    <g id="node2" class="node">
      <title>:core:common</title>
      <ellipse fill="none" stroke="black" cx="262.77" cy="-18" rx="75.29" ry="18"/>
      <text text-anchor="middle" x="262.77" y="-14.3" font-family="Times,serif" font-size="14.00">:core:common</text>
    </g>
    <g id="edge1" class="edge">
      <title>:core:rule-&gt;:core:common</title>
      <path fill="none" stroke="black" d="M60.84,-290.35C46.44,-281.29 30.01,-268.27 20.77,-252 -3.02,-210.12 -5.86,-188.82 11.77,-144 39.26,-74.12 124.74,-43.07 188.36,-29.43"/>
      <polygon fill="black" stroke="black" points="189.27,-32.81 198.37,-27.38 187.87,-25.95 189.27,-32.81"/>
    </g>
    <g id="node3" class="node">
      <title>:core:component-controller</title>
      <ellipse fill="none" stroke="black" cx="170.77" cy="-162" rx="135.68" ry="18"/>
      <text text-anchor="middle" x="170.77" y="-158.3" font-family="Times,serif" font-size="14.00">:core:component-controller</text>
    </g>
    <g id="edge2" class="edge">
      <title>:core:rule-&gt;:core:component-controller</title>
      <path fill="none" stroke="black" d="M98.5,-288.15C112.66,-263.63 139.09,-217.87 155.76,-189"/>
      <polygon fill="black" stroke="black" points="158.83,-190.68 160.8,-180.27 152.77,-187.18 158.83,-190.68"/>
    </g>
    <g id="node4" class="node">
      <title>:core:data</title>
      <ellipse fill="none" stroke="black" cx="440.77" cy="-234" rx="57.39" ry="18"/>
      <text text-anchor="middle" x="440.77" y="-230.3" font-family="Times,serif" font-size="14.00">:core:data</text>
    </g>
    <g id="edge3" class="edge">
      <title>:core:rule-&gt;:core:data</title>
      <path fill="none" stroke="red" stroke-width="2" d="M134.79,-295.85C198.82,-283.12 314.72,-260.07 384.02,-246.28"/>
      <polygon fill="red" stroke="red" stroke-width="2" points="384.78,-249.7 393.9,-244.32 383.41,-242.84 384.78,-249.7"/>
    </g>
    <g id="node5" class="node">
      <title>:core:ifw-api</title>
      <ellipse fill="none" stroke="black" cx="155.77" cy="-90" rx="67.69" ry="18"/>
      <text text-anchor="middle" x="155.77" y="-86.3" font-family="Times,serif" font-size="14.00">:core:ifw-api</text>
    </g>
    <g id="edge4" class="edge">
      <title>:core:rule-&gt;:core:ifw-api</title>
      <path fill="none" stroke="black" d="M72.46,-288.33C44.6,-257.78 -6.21,-191.58 25.77,-144 40.05,-122.76 64.5,-110.02 88.36,-102.39"/>
      <polygon fill="black" stroke="black" points="89.55,-105.69 98.17,-99.52 87.58,-98.97 89.55,-105.69"/>
    </g>
    <g id="edge5" class="edge">
      <title>:core:component-controller-&gt;:core:common</title>
      <path fill="none" stroke="black" d="M196.31,-144.17C208.8,-134.81 223.18,-122.2 232.77,-108 245.42,-89.28 253.17,-64.75 257.61,-46.18"/>
      <polygon fill="black" stroke="black" points="261.06,-46.81 259.81,-36.29 254.22,-45.3 261.06,-46.81"/>
    </g>
    <g id="edge7" class="edge">
      <title>:core:component-controller-&gt;:core:ifw-api</title>
      <path fill="none" stroke="red" stroke-width="2" d="M167.06,-143.7C165.41,-135.98 163.42,-126.71 161.58,-118.11"/>
      <polygon fill="red" stroke="red" stroke-width="2" points="164.95,-117.15 159.44,-108.1 158.11,-118.62 164.95,-117.15"/>
    </g>
    <g id="node6" class="node">
      <title>:core:model</title>
      <ellipse fill="none" stroke="black" cx="421.77" cy="-18" rx="64.99" ry="18"/>
      <text text-anchor="middle" x="421.77" y="-14.3" font-family="Times,serif" font-size="14.00">:core:model</text>
    </g>
    <g id="edge6" class="edge">
      <title>:core:component-controller-&gt;:core:model</title>
      <path fill="none" stroke="black" d="M200.55,-144.15C246.76,-118.01 335.6,-67.75 385.49,-39.53"/>
      <polygon fill="black" stroke="black" points="387.35,-42.49 394.33,-34.52 383.9,-36.4 387.35,-42.49"/>
    </g>
    <g id="edge10" class="edge">
      <title>:core:data-&gt;:core:common</title>
      <path fill="none" stroke="black" d="M409.5,-218.91C391.61,-209.72 369.64,-196.39 353.77,-180 314.85,-139.79 286.75,-79.7 272.77,-45.44"/>
      <polygon fill="black" stroke="black" points="276,-44.09 269.05,-36.1 269.5,-46.68 276,-44.09"/>
    </g>
    <g id="edge15" class="edge">
      <title>:core:data-&gt;:core:component-controller</title>
      <path fill="none" stroke="red" stroke-width="2" d="M397.99,-221.91C355.47,-210.89 289.58,-193.8 239.68,-180.86"/>
      <polygon fill="red" stroke="red" stroke-width="2" points="240.48,-177.46 229.92,-178.34 238.72,-184.23 240.48,-177.46"/>
    </g>
    <g id="node7" class="node">
      <title>:core:database</title>
      <ellipse fill="none" stroke="black" cx="712.77" cy="-162" rx="78.79" ry="18"/>
      <text text-anchor="middle" x="712.77" y="-158.3" font-family="Times,serif" font-size="14.00">:core:database</text>
    </g>
    <g id="edge11" class="edge">
      <title>:core:data-&gt;:core:database</title>
      <path fill="none" stroke="black" d="M483.57,-221.99C529.01,-210.29 601.21,-191.71 652.42,-178.53"/>
      <polygon fill="black" stroke="black" points="653.55,-181.85 662.36,-175.97 651.81,-175.08 653.55,-181.85"/>
    </g>
    <g id="node8" class="node">
      <title>:core:datastore</title>
      <ellipse fill="none" stroke="black" cx="604.77" cy="-90" rx="81.49" ry="18"/>
      <text text-anchor="middle" x="604.77" y="-86.3" font-family="Times,serif" font-size="14.00">:core:datastore</text>
    </g>
    <g id="edge12" class="edge">
      <title>:core:data-&gt;:core:datastore</title>
      <path fill="none" stroke="black" d="M476.33,-219.89C497.5,-210.89 524.01,-197.42 543.77,-180 564.06,-162.11 580.86,-136.1 591.66,-116.81"/>
      <polygon fill="black" stroke="black" points="594.78,-118.4 596.47,-107.94 588.63,-115.06 594.78,-118.4"/>
    </g>
    <g id="node9" class="node">
      <title>:core:network</title>
      <ellipse fill="none" stroke="black" cx="430.77" cy="-90" rx="74.99" ry="18"/>
      <text text-anchor="middle" x="430.77" y="-86.3" font-family="Times,serif" font-size="14.00">:core:network</text>
    </g>
    <g id="edge13" class="edge">
      <title>:core:data-&gt;:core:network</title>
      <path fill="none" stroke="black" d="M478.19,-220.31C496.62,-211.94 517.12,-198.97 527.77,-180 535.61,-166.05 535.93,-157.76 527.77,-144 518.31,-128.05 502.18,-116.6 485.76,-108.51"/>
      <polygon fill="black" stroke="black" points="487.19,-105.32 476.64,-104.36 484.29,-111.69 487.19,-105.32"/>
    </g>
    <g id="node10" class="node">
      <title>:core:analytics</title>
      <ellipse fill="none" stroke="black" cx="440.77" cy="-162" rx="77.99" ry="18"/>
      <text text-anchor="middle" x="440.77" y="-158.3" font-family="Times,serif" font-size="14.00">:core:analytics</text>
    </g>
    <g id="edge14" class="edge">
      <title>:core:data-&gt;:core:analytics</title>
      <path fill="none" stroke="black" d="M440.77,-215.7C440.77,-207.98 440.77,-198.71 440.77,-190.11"/>
      <polygon fill="black" stroke="black" points="444.27,-190.1 440.77,-180.1 437.27,-190.1 444.27,-190.1"/>
    </g>
    <g id="edge8" class="edge">
      <title>:core:ifw-api-&gt;:core:common</title>
      <path fill="none" stroke="red" stroke-width="2" d="M180.05,-73.12C194.72,-63.52 213.62,-51.15 229.65,-40.67"/>
      <polygon fill="red" stroke="red" stroke-width="2" points="231.77,-43.47 238.22,-35.06 227.93,-37.61 231.77,-43.47"/>
    </g>
    <g id="edge9" class="edge">
      <title>:core:ifw-api-&gt;:core:model</title>
      <path fill="none" stroke="black" d="M202.11,-76.81C247.92,-64.75 318.04,-46.3 366.68,-33.5"/>
      <polygon fill="black" stroke="black" points="367.63,-36.87 376.41,-30.94 365.85,-30.1 367.63,-36.87"/>
    </g>
    <g id="edge16" class="edge">
      <title>:core:database-&gt;:core:model</title>
      <path fill="none" stroke="black" d="M714.52,-143.97C715.57,-123.85 713.92,-90.75 694.77,-72 630.57,-9.1 583.82,-54.07 495.77,-36 490.45,-34.91 484.91,-33.72 479.38,-32.51"/>
      <polygon fill="black" stroke="black" points="479.99,-29.06 469.47,-30.3 478.47,-35.89 479.99,-29.06"/>
    </g>
    <g id="edge19" class="edge">
      <title>:core:datastore-&gt;:core:common</title>
      <path fill="none" stroke="black" d="M547.14,-77.2C486.52,-64.8 391.29,-45.31 327.96,-32.34"/>
      <polygon fill="black" stroke="black" points="328.58,-28.9 318.08,-30.32 327.18,-35.76 328.58,-28.9"/>
    </g>
    <g id="edge18" class="edge">
      <title>:core:datastore-&gt;:core:model</title>
      <path fill="none" stroke="black" d="M565.96,-74.15C537.28,-63.18 498.11,-48.2 467.84,-36.62"/>
      <polygon fill="black" stroke="black" points="468.93,-33.29 458.34,-32.99 466.43,-39.83 468.93,-33.29"/>
    </g>
    <g id="node11" class="node">
      <title>:core:datastore-proto</title>
      <ellipse fill="none" stroke="black" cx="613.77" cy="-18" rx="108.58" ry="18"/>
      <text text-anchor="middle" x="613.77" y="-14.3" font-family="Times,serif" font-size="14.00">:core:datastore-proto</text>
    </g>
    <g id="edge17" class="edge">
      <title>:core:datastore-&gt;:core:datastore-proto</title>
      <path fill="none" stroke="black" d="M607,-71.7C607.99,-63.98 609.18,-54.71 610.29,-46.11"/>
      <polygon fill="black" stroke="black" points="613.77,-46.47 611.57,-36.1 606.83,-45.58 613.77,-46.47"/>
    </g>
    <g id="edge20" class="edge">
      <title>:core:network-&gt;:core:common</title>
      <path fill="none" stroke="black" d="M395.14,-74.15C369.73,-63.56 335.35,-49.24 307.99,-37.84"/>
      <polygon fill="black" stroke="black" points="309.22,-34.56 298.64,-33.94 306.52,-41.02 309.22,-34.56"/>
    </g>
    <g id="edge21" class="edge">
      <title>:core:network-&gt;:core:model</title>
      <path fill="none" stroke="black" d="M428.55,-71.7C427.56,-63.98 426.36,-54.71 425.26,-46.11"/>
      <polygon fill="black" stroke="black" points="428.72,-45.58 423.97,-36.1 421.77,-46.47 428.72,-45.58"/>
    </g>
  </g>
</svg>
