<?xml version="1.0" encoding="UTF-8" standalone="no"?>
<!DOCTYPE svg PUBLIC "-//W3C//DTD SVG 1.1//EN" "http://www.w3.org/Graphics/SVG/1.1/DTD/svg11.dtd">
<svg xmlns="http://www.w3.org/2000/svg" xmlns:xlink="http://www.w3.org/1999/xlink" width="913pt" height="404pt" viewBox="0.00 0.00 913.00 404.00">
  <g id="graph0" class="graph" transform="scale(1 1) rotate(0) translate(4 400)">
    <title>G</title>
    <polygon fill="white" stroke="transparent" points="-4,4 -4,-400 909,-400 909,4 -4,4"/>
    <g id="node1" class="node">
      <title>:core:domain</title>
      <ellipse fill="none" stroke="black" cx="158" cy="-378" rx="70.69" ry="18"/>
      <text text-anchor="middle" x="158" y="-374.3" font-family="Times,serif" font-size="14.00">:core:domain</text>
    </g>
    <g id="node2" class="node">
      <title>:core:data</title>
      <ellipse fill="none" stroke="black" cx="526" cy="-234" rx="57.39" ry="18"/>
      <text text-anchor="middle" x="526" y="-230.3" font-family="Times,serif" font-size="14.00">:core:data</text>
    </g>
    <g id="edge1" class="edge">
      <title>:core:domain-&gt;:core:data</title>
      <path fill="none" stroke="black" d="M197.79,-362.96C227.22,-352.47 268.23,-337.66 304,-324 366.7,-300.06 438.73,-270.87 483.31,-252.6"/>
      <polygon fill="black" stroke="black" points="484.74,-255.8 492.66,-248.76 482.08,-249.32 484.74,-255.8"/>
    </g>
    <g id="node3" class="node">
      <title>:core:model</title>
      <ellipse fill="none" stroke="black" cx="283" cy="-18" rx="64.99" ry="18"/>
      <text text-anchor="middle" x="283" y="-14.3" font-family="Times,serif" font-size="14.00">:core:model</text>
    </g>
    <g id="edge2" class="edge">
      <title>:core:domain-&gt;:core:model</title>
      <path fill="none" stroke="black" d="M120.16,-362.56C73.41,-341.96 0,-299.36 0,-235 0,-235 0,-235 0,-161 0,-66.84 126.69,-35.11 210.54,-24.43"/>
      <polygon fill="black" stroke="black" points="211.03,-27.89 220.54,-23.22 210.2,-20.94 211.03,-27.89"/>
    </g>
    <g id="node4" class="node">
      <title>:core:common</title>
      <ellipse fill="none" stroke="black" cx="682" cy="-18" rx="75.29" ry="18"/>
      <text text-anchor="middle" x="682" y="-14.3" font-family="Times,serif" font-size="14.00">:core:common</text>
    </g>
    <g id="edge3" class="edge">
      <title>:core:domain-&gt;:core:common</title>
      <path fill="none" stroke="black" d="M223.96,-371.4C406.51,-355.03 905,-304.02 905,-235 905,-235 905,-235 905,-161 905,-86.46 815.24,-49.34 749.62,-32.17"/>
      <polygon fill="black" stroke="black" points="750.27,-28.72 739.72,-29.68 748.56,-35.51 750.27,-28.72"/>
    </g>
    <g id="node5" class="node">
      <title>:core:component-controller</title>
      <ellipse fill="none" stroke="black" cx="240" cy="-162" rx="135.68" ry="18"/>
      <text text-anchor="middle" x="240" y="-158.3" font-family="Times,serif" font-size="14.00">:core:component-controller</text>
    </g>
    <g id="edge4" class="edge">
      <title>:core:domain-&gt;:core:component-controller</title>
      <path fill="none" stroke="black" d="M160.04,-359.9C162.54,-341.7 167.52,-312.26 176,-288 188.56,-252.08 209.59,-213.5 224.1,-188.86"/>
      <polygon fill="black" stroke="black" points="227.19,-190.51 229.31,-180.13 221.18,-186.92 227.19,-190.51"/>
    </g>
    <g id="node6" class="node">
      <title>:core:ifw-api</title>
      <ellipse fill="none" stroke="black" cx="187" cy="-90" rx="67.69" ry="18"/>
      <text text-anchor="middle" x="187" y="-86.3" font-family="Times,serif" font-size="14.00">:core:ifw-api</text>
    </g>
    <g id="edge5" class="edge">
      <title>:core:domain-&gt;:core:ifw-api</title>
      <path fill="none" stroke="black" d="M143.93,-360.34C112.05,-320.46 40.44,-217.37 85,-144 95.37,-126.93 113.21,-115.11 131.1,-107.04"/>
      <polygon fill="black" stroke="black" points="132.54,-110.23 140.43,-103.15 129.85,-103.77 132.54,-110.23"/>
    </g>
    <g id="node7" class="node">
      <title>:core:rule</title>
      <ellipse fill="none" stroke="black" cx="240" cy="-306" rx="55.49" ry="18"/>
      <text text-anchor="middle" x="240" y="-302.3" font-family="Times,serif" font-size="14.00">:core:rule</text>
    </g>
    <g id="edge6" class="edge">
      <title>:core:domain-&gt;:core:rule</title>
      <path fill="none" stroke="red" stroke-width="2" d="M177.43,-360.41C188.21,-351.21 201.76,-339.64 213.49,-329.63"/>
      <polygon fill="red" stroke="red" stroke-width="2" points="215.94,-332.14 221.27,-322.99 211.39,-326.82 215.94,-332.14"/>
    </g>
    <g id="edge7" class="edge">
      <title>:core:data-&gt;:core:common</title>
      <path fill="none" stroke="black" d="M582.34,-230.73C656.73,-226.41 781.64,-214.15 810,-180 851.11,-130.51 770.94,-70.93 719.85,-39.98"/>
      <polygon fill="black" stroke="black" points="721.38,-36.82 710.99,-34.72 717.81,-42.83 721.38,-36.82"/>
    </g>
    <g id="edge12" class="edge">
      <title>:core:data-&gt;:core:component-controller</title>
      <path fill="none" stroke="red" stroke-width="2" d="M482.25,-222.29C436.81,-211.17 364.97,-193.59 311.31,-180.45"/>
      <polygon fill="red" stroke="red" stroke-width="2" points="312.05,-177.03 301.51,-178.05 310.39,-183.83 312.05,-177.03"/>
    </g>
    <g id="node8" class="node">
      <title>:core:database</title>
      <ellipse fill="none" stroke="black" cx="472" cy="-162" rx="78.79" ry="18"/>
      <text text-anchor="middle" x="472" y="-158.3" font-family="Times,serif" font-size="14.00">:core:database</text>
    </g>
    <g id="edge8" class="edge">
      <title>:core:data-&gt;:core:database</title>
      <path fill="none" stroke="black" d="M513.2,-216.41C506.64,-207.91 498.52,-197.37 491.22,-187.91"/>
      <polygon fill="black" stroke="black" points="493.96,-185.74 485.08,-179.96 488.42,-190.01 493.96,-185.74"/>
    </g>
    <g id="node9" class="node">
      <title>:core:datastore</title>
      <ellipse fill="none" stroke="black" cx="470" cy="-90" rx="81.49" ry="18"/>
      <text text-anchor="middle" x="470" y="-86.3" font-family="Times,serif" font-size="14.00">:core:datastore</text>
    </g>
    <g id="edge9" class="edge">
      <title>:core:data-&gt;:core:datastore</title>
      <path fill="none" stroke="black" d="M540.7,-216.57C555.28,-198.18 573.63,-167.84 560,-144 551.58,-129.27 537.29,-118.22 522.55,-110.14"/>
      <polygon fill="black" stroke="black" points="523.86,-106.88 513.36,-105.48 520.69,-113.13 523.86,-106.88"/>
    </g>
    <g id="node10" class="node">
      <title>:core:network</title>
      <ellipse fill="none" stroke="black" cx="682" cy="-90" rx="74.99" ry="18"/>
      <text text-anchor="middle" x="682" y="-86.3" font-family="Times,serif" font-size="14.00">:core:network</text>
    </g>
    <g id="edge10" class="edge">
      <title>:core:data-&gt;:core:network</title>
      <path fill="none" stroke="black" d="M543.9,-216.71C571.49,-191.59 624.55,-143.3 656.26,-114.43"/>
      <polygon fill="black" stroke="black" points="658.79,-116.86 663.83,-107.54 654.08,-111.68 658.79,-116.86"/>
    </g>
    <g id="node11" class="node">
      <title>:core:analytics</title>
      <ellipse fill="none" stroke="black" cx="723" cy="-162" rx="77.99" ry="18"/>
      <text text-anchor="middle" x="723" y="-158.3" font-family="Times,serif" font-size="14.00">:core:analytics</text>
    </g>
    <g id="edge11" class="edge">
      <title>:core:data-&gt;:core:analytics</title>
      <path fill="none" stroke="black" d="M562.59,-220C593.48,-209.02 638.03,-193.19 672.34,-181"/>
      <polygon fill="black" stroke="black" points="673.93,-184.15 682.18,-177.5 671.59,-177.55 673.93,-184.15"/>
    </g>
    <g id="edge20" class="edge">
      <title>:core:component-controller-&gt;:core:model</title>
      <path fill="none" stroke="black" d="M248.97,-143.71C253.96,-133.53 259.96,-120.28 264,-108 270.69,-87.65 275.63,-63.88 278.79,-46.03"/>
      <polygon fill="black" stroke="black" points="282.26,-46.46 280.49,-36.02 275.36,-45.29 282.26,-46.46"/>
    </g>
    <g id="edge19" class="edge">
      <title>:core:component-controller-&gt;:core:common</title>
      <path fill="none" stroke="black" d="M331.52,-148.63C418.74,-136.39 539.73,-118.07 560,-108 580.83,-97.65 579.63,-86.28 598,-72 612.8,-60.5 630.17,-49.21 645.26,-40.03"/>
      <polygon fill="black" stroke="black" points="647.07,-43.03 653.85,-34.88 643.47,-37.02 647.07,-43.03"/>
    </g>
    <g id="edge21" class="edge">
      <title>:core:component-controller-&gt;:core:ifw-api</title>
      <path fill="none" stroke="red" stroke-width="2" d="M227.17,-144.05C220.79,-135.63 212.95,-125.28 205.9,-115.97"/>
      <polygon fill="red" stroke="red" stroke-width="2" points="208.54,-113.65 199.71,-107.79 202.96,-117.87 208.54,-113.65"/>
    </g>
    <g id="edge23" class="edge">
      <title>:core:ifw-api-&gt;:core:model</title>
      <path fill="none" stroke="black" d="M209.27,-72.76C222.11,-63.4 238.44,-51.49 252.47,-41.26"/>
      <polygon fill="black" stroke="black" points="254.84,-43.87 260.86,-35.15 250.71,-38.21 254.84,-43.87"/>
    </g>
    <g id="edge22" class="edge">
      <title>:core:ifw-api-&gt;:core:common</title>
      <path fill="none" stroke="red" stroke-width="2" d="M248.04,-82.17C327.62,-73 471.05,-55.59 593,-36 600.54,-34.79 608.41,-33.43 616.23,-32.01"/>
      <polygon fill="red" stroke="red" stroke-width="2" points="616.86,-35.46 626.07,-30.21 615.6,-28.57 616.86,-35.46"/>
    </g>
    <g id="edge26" class="edge">
      <title>:core:rule-&gt;:core:data</title>
      <path fill="none" stroke="red" stroke-width="2" d="M282.82,-294.52C333.43,-282.13 417.68,-261.51 472.54,-248.09"/>
      <polygon fill="red" stroke="red" stroke-width="2" points="473.54,-251.44 482.42,-245.67 471.88,-244.64 473.54,-251.44"/>
    </g>
    <g id="edge24" class="edge">
      <title>:core:rule-&gt;:core:common</title>
      <path fill="none" stroke="black" d="M294.19,-302.28C427.53,-294.31 765.35,-265.87 829,-180 851.93,-149.06 800.28,-74.33 798,-72 782.03,-55.67 760.09,-43.9 739.59,-35.66"/>
      <polygon fill="black" stroke="black" points="740.58,-32.29 729.99,-32 738.09,-38.83 740.58,-32.29"/>
    </g>
    <g id="edge25" class="edge">
      <title>:core:rule-&gt;:core:component-controller</title>
      <path fill="none" stroke="black" d="M240,-287.87C240,-263.67 240,-219.21 240,-190.39"/>
      <polygon fill="black" stroke="black" points="243.5,-190.19 240,-180.19 236.5,-190.19 243.5,-190.19"/>
    </g>
    <g id="edge27" class="edge">
      <title>:core:rule-&gt;:core:ifw-api</title>
      <path fill="none" stroke="black" d="M211.41,-290.41C176.42,-270.76 118.88,-232.12 95,-180 88.33,-165.45 86.99,-157.85 95,-144 104.1,-128.26 119.84,-116.78 135.76,-108.61"/>
      <polygon fill="black" stroke="black" points="137.57,-111.63 145.11,-104.18 134.57,-105.3 137.57,-111.63"/>
    </g>
    <g id="edge13" class="edge">
      <title>:core:database-&gt;:core:model</title>
      <path fill="none" stroke="black" d="M441.12,-145.42C422.75,-135.61 399.33,-122.17 380,-108 353.06,-88.26 325.27,-62.05 306.38,-43.2"/>
      <polygon fill="black" stroke="black" points="308.38,-40.25 298.86,-35.61 303.41,-45.18 308.38,-40.25"/>
    </g>
    <g id="edge15" class="edge">
      <title>:core:datastore-&gt;:core:model</title>
      <path fill="none" stroke="black" d="M430.34,-74.15C400.93,-63.15 360.74,-48.1 329.77,-36.51"/>
      <polygon fill="black" stroke="black" points="330.65,-33.1 320.06,-32.87 328.2,-39.66 330.65,-33.1"/>
    </g>
    <g id="edge16" class="edge">
      <title>:core:datastore-&gt;:core:common</title>
      <path fill="none" stroke="black" d="M513.41,-74.67C547.19,-63.51 594.16,-48 629.95,-36.19"/>
      <polygon fill="black" stroke="black" points="631.33,-39.42 639.73,-32.96 629.14,-32.77 631.33,-39.42"/>
    </g>
    <g id="node12" class="node">
      <title>:core:datastore-proto</title>
      <ellipse fill="none" stroke="black" cx="475" cy="-18" rx="108.58" ry="18"/>
      <text text-anchor="middle" x="475" y="-14.3" font-family="Times,serif" font-size="14.00">:core:datastore-proto</text>
    </g>
    <g id="edge14" class="edge">
      <title>:core:datastore-&gt;:core:datastore-proto</title>
      <path fill="none" stroke="black" d="M471.24,-71.7C471.79,-63.98 472.45,-54.71 473.06,-46.11"/>
      <polygon fill="black" stroke="black" points="476.56,-46.33 473.78,-36.1 469.57,-45.83 476.56,-46.33"/>
    </g>
    <g id="edge18" class="edge">
      <title>:core:network-&gt;:core:model</title>
      <path fill="none" stroke="black" d="M619.48,-80.02C553.89,-70.32 447.88,-53.83 357,-36 351.66,-34.95 346.13,-33.8 340.59,-32.61"/>
      <polygon fill="black" stroke="black" points="341.19,-29.16 330.67,-30.42 339.69,-35.99 341.19,-29.16"/>
    </g>
    <g id="edge17" class="edge">
      <title>:core:network-&gt;:core:common</title>
      <path fill="none" stroke="black" d="M682,-71.7C682,-63.98 682,-54.71 682,-46.11"/>
      <polygon fill="black" stroke="black" points="685.5,-46.1 682,-36.1 678.5,-46.1 685.5,-46.1"/>
    </g>
  </g>
</svg>
