<?xml version="1.0" encoding="UTF-8" standalone="no"?>
<!DOCTYPE svg PUBLIC "-//W3C//DTD SVG 1.1//EN"
 "http://www.w3.org/Graphics/SVG/1.1/DTD/svg11.dtd">
<!-- Generated by graphviz version 2.43.0 (0)
 -->
<!-- Title: G Pages: 1 -->
<svg width="1805pt" height="620pt"
 viewBox="0.00 0.00 1805.00 620.00" xmlns="http://www.w3.org/2000/svg" xmlns:xlink="http://www.w3.org/1999/xlink">
<g id="graph0" class="graph" transform="scale(1 1) rotate(0) translate(4 616)">
<title>G</title>
<polygon fill="white" stroke="transparent" points="-4,4 -4,-616 1801,-616 1801,4 -4,4"/>
<!-- :app&#45;compose -->
<g id="node1" class="node">
<title>:app&#45;compose</title>
<ellipse fill="none" stroke="black" cx="1177" cy="-594" rx="74.19" ry="18"/>
<text text-anchor="middle" x="1177" y="-590.3" font-family="Times,serif" font-size="14.00">:app&#45;compose</text>
</g>
<!-- :feature:appdetail -->
<g id="node2" class="node">
<title>:feature:appdetail</title>
<ellipse fill="none" stroke="black" cx="160" cy="-522" rx="93.68" ry="18"/>
<text text-anchor="middle" x="160" y="-518.3" font-family="Times,serif" font-size="14.00">:feature:appdetail</text>
</g>
<!-- :app&#45;compose&#45;&gt;:feature:appdetail -->
<g id="edge1" class="edge">
<title>:app&#45;compose&#45;&gt;:feature:appdetail</title>
<path fill="none" stroke="red" stroke-width="2" d="M1103.54,-591.42C947.91,-587.48 573.72,-574.9 262,-540 253.32,-539.03 244.24,-537.81 235.25,-536.48"/>
<polygon fill="red" stroke="red" stroke-width="2" points="235.57,-532.98 225.15,-534.93 234.5,-539.9 235.57,-532.98"/>
</g>
<!-- :feature:applist -->
<g id="node3" class="node">
<title>:feature:applist</title>
<ellipse fill="none" stroke="black" cx="727" cy="-522" rx="81.79" ry="18"/>
<text text-anchor="middle" x="727" y="-518.3" font-family="Times,serif" font-size="14.00">:feature:applist</text>
</g>
<!-- :app&#45;compose&#45;&gt;:feature:applist -->
<g id="edge2" class="edge">
<title>:app&#45;compose&#45;&gt;:feature:applist</title>
<path fill="none" stroke="black" d="M1114.57,-584.17C1043.79,-574.03 924.96,-556.66 823,-540 814.84,-538.67 806.29,-537.22 797.81,-535.76"/>
<polygon fill="black" stroke="black" points="798.35,-532.3 787.9,-534.04 797.15,-539.2 798.35,-532.3"/>
</g>
<!-- :feature:generalrule -->
<g id="node4" class="node">
<title>:feature:generalrule</title>
<ellipse fill="none" stroke="black" cx="1177" cy="-522" rx="103.98" ry="18"/>
<text text-anchor="middle" x="1177" y="-518.3" font-family="Times,serif" font-size="14.00">:feature:generalrule</text>
</g>
<!-- :app&#45;compose&#45;&gt;:feature:generalrule -->
<g id="edge3" class="edge">
<title>:app&#45;compose&#45;&gt;:feature:generalrule</title>
<path fill="none" stroke="black" d="M1177,-575.7C1177,-567.98 1177,-558.71 1177,-550.11"/>
<polygon fill="black" stroke="black" points="1180.5,-550.1 1177,-540.1 1173.5,-550.1 1180.5,-550.1"/>
</g>
<!-- :feature:search -->
<g id="node5" class="node">
<title>:feature:search</title>
<ellipse fill="none" stroke="black" cx="546" cy="-522" rx="81.49" ry="18"/>
<text text-anchor="middle" x="546" y="-518.3" font-family="Times,serif" font-size="14.00">:feature:search</text>
</g>
<!-- :app&#45;compose&#45;&gt;:feature:search -->
<g id="edge4" class="edge">
<title>:app&#45;compose&#45;&gt;:feature:search</title>
<path fill="none" stroke="black" d="M1106.73,-588.12C1003.31,-580.49 804.16,-564.07 636,-540 628.86,-538.98 621.42,-537.78 614.02,-536.51"/>
<polygon fill="black" stroke="black" points="614.43,-533.03 603.97,-534.74 613.21,-539.92 614.43,-533.03"/>
</g>
<!-- :feature:settings -->
<g id="node6" class="node">
<title>:feature:settings</title>
<ellipse fill="none" stroke="black" cx="359" cy="-522" rx="87.99" ry="18"/>
<text text-anchor="middle" x="359" y="-518.3" font-family="Times,serif" font-size="14.00">:feature:settings</text>
</g>
<!-- :app&#45;compose&#45;&gt;:feature:settings -->
<g id="edge5" class="edge">
<title>:app&#45;compose&#45;&gt;:feature:settings</title>
<path fill="none" stroke="black" d="M1104.62,-590.08C974.44,-584.29 692.35,-569.32 456,-540 447.83,-538.99 439.3,-537.75 430.84,-536.42"/>
<polygon fill="black" stroke="black" points="431.39,-532.96 420.96,-534.81 430.27,-539.87 431.39,-532.96"/>
</g>
<!-- :feature:ruledetail -->
<g id="node7" class="node">
<title>:feature:ruledetail</title>
<ellipse fill="none" stroke="black" cx="960" cy="-522" rx="94.78" ry="18"/>
<text text-anchor="middle" x="960" y="-518.3" font-family="Times,serif" font-size="14.00">:feature:ruledetail</text>
</g>
<!-- :app&#45;compose&#45;&gt;:feature:ruledetail -->
<g id="edge6" class="edge">
<title>:app&#45;compose&#45;&gt;:feature:ruledetail</title>
<path fill="none" stroke="black" d="M1134.39,-579.25C1100.4,-568.29 1052.52,-552.84 1015.53,-540.91"/>
<polygon fill="black" stroke="black" points="1016.48,-537.54 1005.89,-537.8 1014.33,-544.2 1016.48,-537.54"/>
</g>
<!-- :feature:sort -->
<g id="node8" class="node">
<title>:feature:sort</title>
<ellipse fill="none" stroke="black" cx="1406" cy="-522" rx="68.79" ry="18"/>
<text text-anchor="middle" x="1406" y="-518.3" font-family="Times,serif" font-size="14.00">:feature:sort</text>
</g>
<!-- :app&#45;compose&#45;&gt;:feature:sort -->
<g id="edge7" class="edge">
<title>:app&#45;compose&#45;&gt;:feature:sort</title>
<path fill="none" stroke="black" d="M1221.15,-579.5C1258.98,-567.94 1313.52,-551.27 1353.55,-539.03"/>
<polygon fill="black" stroke="black" points="1354.61,-542.37 1363.15,-536.1 1352.56,-535.68 1354.61,-542.37"/>
</g>
<!-- :core:analytics -->
<g id="node9" class="node">
<title>:core:analytics</title>
<ellipse fill="none" stroke="black" cx="1511" cy="-162" rx="77.99" ry="18"/>
<text text-anchor="middle" x="1511" y="-158.3" font-family="Times,serif" font-size="14.00">:core:analytics</text>
</g>
<!-- :app&#45;compose&#45;&gt;:core:analytics -->
<g id="edge8" class="edge">
<title>:app&#45;compose&#45;&gt;:core:analytics</title>
<path fill="none" stroke="black" d="M1251.19,-592.69C1354.07,-590.73 1532.87,-581.27 1581,-540 1618.12,-508.17 1609.83,-480.27 1602,-432 1598,-407.34 1543.27,-253.06 1520.67,-189.91"/>
<polygon fill="black" stroke="black" points="1523.87,-188.48 1517.2,-180.24 1517.28,-190.84 1523.87,-188.48"/>
</g>
<!-- :core:common -->
<g id="node10" class="node">
<title>:core:common</title>
<ellipse fill="none" stroke="black" cx="712" cy="-18" rx="75.29" ry="18"/>
<text text-anchor="middle" x="712" y="-14.3" font-family="Times,serif" font-size="14.00">:core:common</text>
</g>
<!-- :app&#45;compose&#45;&gt;:core:common -->
<g id="edge9" class="edge">
<title>:app&#45;compose&#45;&gt;:core:common</title>
<path fill="none" stroke="black" d="M1103.13,-591.77C857.1,-587.38 78.45,-571.1 35,-540 0.44,-515.26 0,-493.5 0,-451 0,-451 0,-451 0,-161 0,-34.6 437.01,-19.1 626.29,-18.31"/>
<polygon fill="black" stroke="black" points="626.49,-21.81 636.48,-18.28 626.47,-14.81 626.49,-21.81"/>
</g>
<!-- :core:data -->
<g id="node11" class="node">
<title>:core:data</title>
<ellipse fill="none" stroke="black" cx="1043" cy="-234" rx="57.39" ry="18"/>
<text text-anchor="middle" x="1043" y="-230.3" font-family="Times,serif" font-size="14.00">:core:data</text>
</g>
<!-- :app&#45;compose&#45;&gt;:core:data -->
<g id="edge10" class="edge">
<title>:app&#45;compose&#45;&gt;:core:data</title>
<path fill="none" stroke="black" d="M1250.15,-590.85C1331.3,-586.75 1454.69,-574.8 1484,-540 1494.31,-527.76 1490.81,-518.48 1484,-504 1419.9,-367.75 1355.94,-358.71 1223,-288 1184.75,-267.65 1137.66,-254.14 1101.24,-245.86"/>
<polygon fill="black" stroke="black" points="1101.79,-242.39 1091.27,-243.66 1100.28,-249.23 1101.79,-242.39"/>
</g>
<!-- :core:designsystem -->
<g id="node12" class="node">
<title>:core:designsystem</title>
<ellipse fill="none" stroke="black" cx="1037" cy="-378" rx="100.98" ry="18"/>
<text text-anchor="middle" x="1037" y="-374.3" font-family="Times,serif" font-size="14.00">:core:designsystem</text>
</g>
<!-- :app&#45;compose&#45;&gt;:core:designsystem -->
<g id="edge11" class="edge">
<title>:app&#45;compose&#45;&gt;:core:designsystem</title>
<path fill="none" stroke="black" d="M1230.5,-581.41C1252.89,-573.64 1276.75,-560.85 1290,-540 1298.58,-526.5 1298.44,-517.59 1290,-504 1288.47,-501.54 1150.93,-434.4 1079.32,-399.56"/>
<polygon fill="black" stroke="black" points="1080.61,-396.3 1070.09,-395.07 1077.55,-402.59 1080.61,-396.3"/>
</g>
<!-- :core:model -->
<g id="node13" class="node">
<title>:core:model</title>
<ellipse fill="none" stroke="black" cx="1229" cy="-18" rx="64.99" ry="18"/>
<text text-anchor="middle" x="1229" y="-14.3" font-family="Times,serif" font-size="14.00">:core:model</text>
</g>
<!-- :app&#45;compose&#45;&gt;:core:model -->
<g id="edge12" class="edge">
<title>:app&#45;compose&#45;&gt;:core:model</title>
<path fill="none" stroke="black" d="M1250.56,-591.52C1414.79,-586.22 1797,-561.98 1797,-451 1797,-451 1797,-451 1797,-161 1797,-97.77 1744.35,-96.37 1686,-72 1618.55,-43.83 1413.93,-28.85 1302.77,-22.6"/>
<polygon fill="black" stroke="black" points="1302.82,-19.09 1292.64,-22.04 1302.43,-26.08 1302.82,-19.09"/>
</g>
<!-- :core:network -->
<g id="node14" class="node">
<title>:core:network</title>
<ellipse fill="none" stroke="black" cx="1229" cy="-90" rx="74.99" ry="18"/>
<text text-anchor="middle" x="1229" y="-86.3" font-family="Times,serif" font-size="14.00">:core:network</text>
</g>
<!-- :app&#45;compose&#45;&gt;:core:network -->
<g id="edge13" class="edge">
<title>:app&#45;compose&#45;&gt;:core:network</title>
<path fill="none" stroke="black" d="M1250.75,-591.6C1336.26,-588.24 1469.54,-577.03 1501,-540 1526.68,-509.77 1471.64,-439.11 1467,-432 1385.89,-307.75 1314.26,-312.77 1248,-180 1238.33,-160.62 1233.57,-136.47 1231.23,-118.22"/>
<polygon fill="black" stroke="black" points="1234.7,-117.79 1230.11,-108.24 1227.75,-118.57 1234.7,-117.79"/>
</g>
<!-- :core:provider -->
<g id="node15" class="node">
<title>:core:provider</title>
<ellipse fill="none" stroke="black" cx="1655" cy="-306" rx="76.09" ry="18"/>
<text text-anchor="middle" x="1655" y="-302.3" font-family="Times,serif" font-size="14.00">:core:provider</text>
</g>
<!-- :app&#45;compose&#45;&gt;:core:provider -->
<g id="edge14" class="edge">
<title>:app&#45;compose&#45;&gt;:core:provider</title>
<path fill="none" stroke="black" d="M1249.09,-589.47C1370.38,-582.82 1604.7,-566.66 1631,-540 1685.54,-484.71 1672.06,-382.24 1661.7,-333.75"/>
<polygon fill="black" stroke="black" points="1665.11,-332.98 1659.49,-323.99 1658.28,-334.52 1665.11,-332.98"/>
</g>
<!-- :core:rule -->
<g id="node16" class="node">
<title>:core:rule</title>
<ellipse fill="none" stroke="black" cx="307" cy="-306" rx="55.49" ry="18"/>
<text text-anchor="middle" x="307" y="-302.3" font-family="Times,serif" font-size="14.00">:core:rule</text>
</g>
<!-- :app&#45;compose&#45;&gt;:core:rule -->
<g id="edge15" class="edge">
<title>:app&#45;compose&#45;&gt;:core:rule</title>
<path fill="none" stroke="black" d="M1103.22,-592.27C859.43,-589.52 93.13,-577.88 57,-540 -24.47,-454.58 171.7,-361.2 263.16,-323.83"/>
<polygon fill="black" stroke="black" points="264.5,-327.06 272.46,-320.07 261.88,-320.57 264.5,-327.06"/>
</g>
<!-- :core:ui -->
<g id="node17" class="node">
<title>:core:ui</title>
<ellipse fill="none" stroke="black" cx="1019" cy="-450" rx="45.49" ry="18"/>
<text text-anchor="middle" x="1019" y="-446.3" font-family="Times,serif" font-size="14.00">:core:ui</text>
</g>
<!-- :app&#45;compose&#45;&gt;:core:ui -->
<g id="edge16" class="edge">
<title>:app&#45;compose&#45;&gt;:core:ui</title>
<path fill="none" stroke="black" d="M1103.55,-591.48C1018.81,-588 887.11,-576.66 856,-540 845.65,-527.8 846.6,-516.95 856,-504 859.62,-499.01 926.86,-478.27 973.83,-464.27"/>
<polygon fill="black" stroke="black" points="974.93,-467.59 983.51,-461.39 972.93,-460.88 974.93,-467.59"/>
</g>
<!-- :sync:work -->
<g id="node18" class="node">
<title>:sync:work</title>
<ellipse fill="none" stroke="black" cx="1463" cy="-306" rx="60.39" ry="18"/>
<text text-anchor="middle" x="1463" y="-302.3" font-family="Times,serif" font-size="14.00">:sync:work</text>
</g>
<!-- :app&#45;compose&#45;&gt;:sync:work -->
<g id="edge17" class="edge">
<title>:app&#45;compose&#45;&gt;:sync:work</title>
<path fill="none" stroke="black" d="M1251.36,-593.62C1350.08,-592.67 1516.46,-584.32 1555,-540 1607.49,-479.63 1595.03,-429.26 1555,-360 1545.58,-343.71 1529.04,-331.98 1512.56,-323.77"/>
<polygon fill="black" stroke="black" points="1514,-320.58 1503.46,-319.56 1511.07,-326.93 1514,-320.58"/>
</g>
<!-- :feature:appdetail&#45;&gt;:core:data -->
<g id="edge21" class="edge">
<title>:feature:appdetail&#45;&gt;:core:data</title>
<path fill="none" stroke="black" d="M193.8,-505.05C214.41,-495.01 241.11,-481.45 264,-468 338.3,-424.36 347.38,-397.4 425,-360 611.19,-270.29 858.89,-244.91 976.1,-237.77"/>
<polygon fill="black" stroke="black" points="976.57,-241.25 986.35,-237.18 976.16,-234.26 976.57,-241.25"/>
</g>
<!-- :feature:appdetail&#45;&gt;:core:designsystem -->
<g id="edge19" class="edge">
<title>:feature:appdetail&#45;&gt;:core:designsystem</title>
<path fill="none" stroke="black" d="M228.03,-509.61C239.37,-507.73 251.02,-505.8 262,-504 514.34,-462.62 813.08,-414.75 954.67,-392.13"/>
<polygon fill="black" stroke="black" points="955.27,-395.58 964.59,-390.55 954.16,-388.67 955.27,-395.58"/>
</g>
<!-- :feature:appdetail&#45;&gt;:core:rule -->
<g id="edge23" class="edge">
<title>:feature:appdetail&#45;&gt;:core:rule</title>
<path fill="none" stroke="black" d="M192.07,-504.85C207.58,-495.75 225.5,-483.16 238,-468 271.48,-427.38 291.23,-368.09 300.51,-333.94"/>
<polygon fill="black" stroke="black" points="303.92,-334.76 303.06,-324.2 297.14,-332.99 303.92,-334.76"/>
</g>
<!-- :feature:appdetail&#45;&gt;:core:ui -->
<g id="edge18" class="edge">
<title>:feature:appdetail&#45;&gt;:core:ui</title>
<path fill="none" stroke="red" stroke-width="2" d="M225.71,-509.1C237.75,-507.19 250.23,-505.39 262,-504 398.23,-487.92 813.77,-462.93 964.04,-454.16"/>
<polygon fill="red" stroke="red" stroke-width="2" points="964.61,-457.64 974.39,-453.56 964.2,-450.65 964.61,-457.64"/>
</g>
<!-- :core:component&#45;controller -->
<g id="node19" class="node">
<title>:core:component&#45;controller</title>
<ellipse fill="none" stroke="black" cx="548" cy="-162" rx="135.68" ry="18"/>
<text text-anchor="middle" x="548" y="-158.3" font-family="Times,serif" font-size="14.00">:core:component&#45;controller</text>
</g>
<!-- :feature:appdetail&#45;&gt;:core:component&#45;controller -->
<g id="edge20" class="edge">
<title>:feature:appdetail&#45;&gt;:core:component&#45;controller</title>
<path fill="none" stroke="black" d="M162.16,-503.9C168.15,-462.6 188.27,-355.85 243,-288 293.77,-225.06 381.41,-193.52 449.76,-177.89"/>
<polygon fill="black" stroke="black" points="450.68,-181.27 459.69,-175.7 449.18,-174.43 450.68,-181.27"/>
</g>
<!-- :core:domain -->
<g id="node20" class="node">
<title>:core:domain</title>
<ellipse fill="none" stroke="black" cx="505" cy="-378" rx="70.69" ry="18"/>
<text text-anchor="middle" x="505" y="-374.3" font-family="Times,serif" font-size="14.00">:core:domain</text>
</g>
<!-- :feature:appdetail&#45;&gt;:core:domain -->
<g id="edge22" class="edge">
<title>:feature:appdetail&#45;&gt;:core:domain</title>
<path fill="none" stroke="black" d="M222.02,-508.51C260.37,-499.66 310.11,-486.14 352,-468 380.19,-455.79 384.51,-447.55 411,-432 429.41,-421.2 450.04,-409.52 467.28,-399.88"/>
<polygon fill="black" stroke="black" points="469.44,-402.68 476.47,-394.75 466.03,-396.57 469.44,-402.68"/>
</g>
<!-- :feature:applist&#45;&gt;:core:data -->
<g id="edge58" class="edge">
<title>:feature:applist&#45;&gt;:core:data</title>
<path fill="none" stroke="black" d="M754.58,-504.88C770.71,-494.99 791.15,-481.64 808,-468 893.15,-399.11 981.8,-303.61 1021.51,-259.34"/>
<polygon fill="black" stroke="black" points="1024.3,-261.48 1028.35,-251.69 1019.08,-256.81 1024.3,-261.48"/>
</g>
<!-- :feature:applist&#45;&gt;:core:designsystem -->
<g id="edge56" class="edge">
<title>:feature:applist&#45;&gt;:core:designsystem</title>
<path fill="none" stroke="black" d="M791.49,-510.74C830.77,-502.75 881.11,-489.35 922,-468 944.09,-456.46 945.4,-447.4 965,-432 977.99,-421.8 992.63,-410.91 1005.29,-401.68"/>
<polygon fill="black" stroke="black" points="1007.66,-404.29 1013.7,-395.59 1003.55,-398.62 1007.66,-404.29"/>
</g>
<!-- :feature:applist&#45;&gt;:core:ui -->
<g id="edge55" class="edge">
<title>:feature:applist&#45;&gt;:core:ui</title>
<path fill="none" stroke="black" d="M784.19,-508.94C831.49,-498.74 900.34,-483.37 960,-468 964.6,-466.82 969.38,-465.53 974.14,-464.21"/>
<polygon fill="black" stroke="black" points="975.16,-467.56 983.84,-461.49 973.26,-460.82 975.16,-467.56"/>
</g>
<!-- :feature:applist&#45;&gt;:core:component&#45;controller -->
<g id="edge57" class="edge">
<title>:feature:applist&#45;&gt;:core:component&#45;controller</title>
<path fill="none" stroke="black" d="M717.49,-504.11C703.76,-478.09 680,-426.26 680,-379 680,-379 680,-379 680,-305 680,-250.94 628.04,-208.81 589.31,-184.93"/>
<polygon fill="black" stroke="black" points="590.67,-181.66 580.29,-179.54 587.08,-187.67 590.67,-181.66"/>
</g>
<!-- :feature:applist&#45;&gt;:core:domain -->
<g id="edge59" class="edge">
<title>:feature:applist&#45;&gt;:core:domain</title>
<path fill="none" stroke="black" d="M677.24,-507.58C650.06,-498.86 616.62,-485.77 590,-468 563.72,-450.45 539.44,-423.48 523.62,-403.83"/>
<polygon fill="black" stroke="black" points="526.31,-401.59 517.37,-395.9 520.81,-405.92 526.31,-401.59"/>
</g>
<!-- :core:ifw&#45;api -->
<g id="node21" class="node">
<title>:core:ifw&#45;api</title>
<ellipse fill="none" stroke="black" cx="712" cy="-90" rx="67.69" ry="18"/>
<text text-anchor="middle" x="712" y="-86.3" font-family="Times,serif" font-size="14.00">:core:ifw&#45;api</text>
</g>
<!-- :feature:applist&#45;&gt;:core:ifw&#45;api -->
<g id="edge60" class="edge">
<title>:feature:applist&#45;&gt;:core:ifw&#45;api</title>
<path fill="none" stroke="black" d="M741.21,-503.86C760.88,-478.34 794,-428.07 794,-379 794,-379 794,-379 794,-233 794,-186.56 760.71,-141.65 736.55,-115.17"/>
<polygon fill="black" stroke="black" points="738.79,-112.45 729.39,-107.57 733.69,-117.25 738.79,-112.45"/>
</g>
<!-- :feature:generalrule&#45;&gt;:core:data -->
<g id="edge63" class="edge">
<title>:feature:generalrule&#45;&gt;:core:data</title>
<path fill="none" stroke="black" d="M1186.54,-503.93C1191.64,-493.82 1197.39,-480.57 1200,-468 1203.23,-452.46 1203.9,-376.95 1199,-360 1188.59,-323.97 1182.89,-313.07 1155,-288 1136.89,-271.73 1112.91,-259.48 1091.78,-250.89"/>
<polygon fill="black" stroke="black" points="1092.89,-247.57 1082.31,-247.19 1090.35,-254.09 1092.89,-247.57"/>
</g>
<!-- :feature:generalrule&#45;&gt;:core:designsystem -->
<g id="edge62" class="edge">
<title>:feature:generalrule&#45;&gt;:core:designsystem</title>
<path fill="none" stroke="black" d="M1160.7,-504.21C1143.26,-486.28 1114.76,-457.05 1090,-432 1080.71,-422.6 1070.45,-412.32 1061.45,-403.33"/>
<polygon fill="black" stroke="black" points="1063.79,-400.72 1054.24,-396.14 1058.84,-405.68 1063.79,-400.72"/>
</g>
<!-- :feature:generalrule&#45;&gt;:core:ui -->
<g id="edge61" class="edge">
<title>:feature:generalrule&#45;&gt;:core:ui</title>
<path fill="none" stroke="black" d="M1140.75,-504.94C1115.87,-493.92 1082.89,-479.31 1057.53,-468.07"/>
<polygon fill="black" stroke="black" points="1058.78,-464.8 1048.22,-463.94 1055.94,-471.2 1058.78,-464.8"/>
</g>
<!-- :feature:generalrule&#45;&gt;:core:domain -->
<g id="edge64" class="edge">
<title>:feature:generalrule&#45;&gt;:core:domain</title>
<path fill="none" stroke="black" d="M1113.78,-507.64C985.42,-480.52 695.62,-419.28 567.7,-392.25"/>
<polygon fill="black" stroke="black" points="568.18,-388.77 557.67,-390.13 566.73,-395.62 568.18,-388.77"/>
</g>
<!-- :feature:search&#45;&gt;:core:data -->
<g id="edge68" class="edge">
<title>:feature:search&#45;&gt;:core:data</title>
<path fill="none" stroke="black" d="M573.79,-505.01C658.56,-456.23 913.82,-309.34 1007.78,-255.27"/>
<polygon fill="black" stroke="black" points="1009.7,-258.2 1016.62,-250.18 1006.21,-252.13 1009.7,-258.2"/>
</g>
<!-- :feature:search&#45;&gt;:core:designsystem -->
<g id="edge66" class="edge">
<title>:feature:search&#45;&gt;:core:designsystem</title>
<path fill="none" stroke="black" d="M605.52,-509.61C615.68,-507.71 626.14,-505.78 636,-504 729.19,-487.21 756.01,-497.49 846,-468 880,-456.86 885.65,-447.28 918,-432 941.98,-420.67 968.95,-408.6 991.15,-398.85"/>
<polygon fill="black" stroke="black" points="992.6,-402.04 1000.35,-394.82 989.79,-395.63 992.6,-402.04"/>
</g>
<!-- :feature:search&#45;&gt;:core:ui -->
<g id="edge65" class="edge">
<title>:feature:search&#45;&gt;:core:ui</title>
<path fill="none" stroke="black" d="M604.99,-509.43C615.31,-507.53 625.96,-505.64 636,-504 753.53,-484.78 892.09,-466.75 966.1,-457.48"/>
<polygon fill="black" stroke="black" points="966.61,-460.95 976.1,-456.24 965.75,-454 966.61,-460.95"/>
</g>
<!-- :feature:search&#45;&gt;:core:component&#45;controller -->
<g id="edge67" class="edge">
<title>:feature:search&#45;&gt;:core:component&#45;controller</title>
<path fill="none" stroke="black" d="M518.8,-504.85C477.92,-478.27 407.23,-422.02 425,-360 444.69,-291.28 496.1,-223.26 525.85,-187.93"/>
<polygon fill="black" stroke="black" points="528.72,-189.96 532.56,-180.08 523.4,-185.41 528.72,-189.96"/>
</g>
<!-- :feature:search&#45;&gt;:core:domain -->
<g id="edge69" class="edge">
<title>:feature:search&#45;&gt;:core:domain</title>
<path fill="none" stroke="black" d="M532.94,-503.82C526.1,-493.89 518.29,-480.85 514,-468 507.33,-448.02 505.21,-424.23 504.68,-406.28"/>
<polygon fill="black" stroke="black" points="508.18,-406.14 504.53,-396.2 501.18,-406.25 508.18,-406.14"/>
</g>
<!-- :feature:settings&#45;&gt;:core:data -->
<g id="edge72" class="edge">
<title>:feature:settings&#45;&gt;:core:data</title>
<path fill="none" stroke="black" d="M392.01,-505.28C474.61,-466.2 697.29,-362.45 888,-288 923.26,-274.24 963.75,-260.46 994.51,-250.4"/>
<polygon fill="black" stroke="black" points="995.7,-253.69 1004.13,-247.27 993.54,-247.04 995.7,-253.69"/>
</g>
<!-- :feature:settings&#45;&gt;:core:designsystem -->
<g id="edge71" class="edge">
<title>:feature:settings&#45;&gt;:core:designsystem</title>
<path fill="none" stroke="black" d="M422.33,-509.49C433.53,-507.57 445.1,-505.67 456,-504 578.29,-485.32 611.22,-494.73 732,-468 783.88,-456.52 795.06,-447.11 846,-432 888.4,-419.43 936.37,-406.12 973.62,-395.99"/>
<polygon fill="black" stroke="black" points="974.61,-399.34 983.34,-393.35 972.77,-392.59 974.61,-399.34"/>
</g>
<!-- :feature:settings&#45;&gt;:core:rule -->
<g id="edge74" class="edge">
<title>:feature:settings&#45;&gt;:core:rule</title>
<path fill="none" stroke="black" d="M354.83,-503.85C345.82,-466.75 324.45,-378.81 313.59,-334.1"/>
<polygon fill="black" stroke="black" points="316.95,-333.12 311.19,-324.23 310.15,-334.78 316.95,-333.12"/>
</g>
<!-- :feature:settings&#45;&gt;:core:ui -->
<g id="edge70" class="edge">
<title>:feature:settings&#45;&gt;:core:ui</title>
<path fill="none" stroke="black" d="M421.5,-509.28C432.95,-507.35 444.82,-505.49 456,-504 628.54,-480.96 672.71,-484.51 846,-468 885.89,-464.2 930.93,-459.77 965.06,-456.38"/>
<polygon fill="black" stroke="black" points="965.67,-459.84 975.28,-455.37 964.98,-452.87 965.67,-459.84"/>
</g>
<!-- :feature:settings&#45;&gt;:core:domain -->
<g id="edge73" class="edge">
<title>:feature:settings&#45;&gt;:core:domain</title>
<path fill="none" stroke="black" d="M376.32,-504.15C402.12,-479.07 450.74,-431.77 480.27,-403.05"/>
<polygon fill="black" stroke="black" points="482.97,-405.31 487.7,-395.82 478.09,-400.29 482.97,-405.31"/>
</g>
<!-- :feature:ruledetail&#45;&gt;:core:data -->
<g id="edge78" class="edge">
<title>:feature:ruledetail&#45;&gt;:core:data</title>
<path fill="none" stroke="black" d="M1027.26,-509.26C1088.97,-497.81 1172.24,-480.36 1182,-468 1189.39,-458.63 1194.23,-389.29 1181,-360 1159.93,-313.35 1112.12,-276.59 1078.72,-255.33"/>
<polygon fill="black" stroke="black" points="1080.48,-252.3 1070.14,-250 1076.79,-258.25 1080.48,-252.3"/>
</g>
<!-- :feature:ruledetail&#45;&gt;:core:designsystem -->
<g id="edge76" class="edge">
<title>:feature:ruledetail&#45;&gt;:core:designsystem</title>
<path fill="none" stroke="black" d="M1018.23,-507.7C1039.19,-499.8 1060.68,-487.39 1073,-468 1085.79,-447.87 1073.04,-422.44 1059.3,-403.92"/>
<polygon fill="black" stroke="black" points="1061.95,-401.63 1053,-395.94 1056.45,-405.96 1061.95,-401.63"/>
</g>
<!-- :feature:ruledetail&#45;&gt;:core:ui -->
<g id="edge75" class="edge">
<title>:feature:ruledetail&#45;&gt;:core:ui</title>
<path fill="none" stroke="black" d="M974.28,-504.05C981.64,-495.33 990.73,-484.54 998.79,-474.98"/>
<polygon fill="black" stroke="black" points="1001.49,-477.21 1005.26,-467.31 996.13,-472.7 1001.49,-477.21"/>
</g>
<!-- :feature:ruledetail&#45;&gt;:core:component&#45;controller -->
<g id="edge77" class="edge">
<title>:feature:ruledetail&#45;&gt;:core:component&#45;controller</title>
<path fill="none" stroke="black" d="M1011.6,-506.78C1036.84,-498.2 1066.71,-485.49 1090,-468 1133.4,-435.41 1178.82,-403.97 1147,-360 1086.1,-275.86 786.35,-208.21 635.31,-178.84"/>
<polygon fill="black" stroke="black" points="635.63,-175.34 625.14,-176.88 634.3,-182.21 635.63,-175.34"/>
</g>
<!-- :feature:ruledetail&#45;&gt;:core:domain -->
<g id="edge79" class="edge">
<title>:feature:ruledetail&#45;&gt;:core:domain</title>
<path fill="none" stroke="black" d="M898.85,-508.21C854.86,-498.5 794.3,-484.11 742,-468 673.82,-446.99 596.82,-416.85 549.6,-397.59"/>
<polygon fill="black" stroke="black" points="550.85,-394.33 540.27,-393.78 548.2,-400.8 550.85,-394.33"/>
</g>
<!-- :feature:sort&#45;&gt;:core:data -->
<g id="edge82" class="edge">
<title>:feature:sort&#45;&gt;:core:data</title>
<path fill="none" stroke="black" d="M1394.31,-504.14C1364.28,-462 1280.09,-350.91 1185,-288 1158.01,-270.14 1124.17,-257.21 1096.3,-248.59"/>
<polygon fill="black" stroke="black" points="1097.3,-245.24 1086.71,-245.72 1095.29,-251.94 1097.3,-245.24"/>
</g>
<!-- :feature:sort&#45;&gt;:core:designsystem -->
<g id="edge81" class="edge">
<title>:feature:sort&#45;&gt;:core:designsystem</title>
<path fill="none" stroke="black" d="M1377.33,-505.46C1341.35,-486.38 1277.37,-453.86 1220,-432 1182.3,-417.63 1138.99,-404.93 1103.97,-395.56"/>
<polygon fill="black" stroke="black" points="1104.41,-392.06 1093.85,-392.88 1102.63,-398.82 1104.41,-392.06"/>
</g>
<!-- :feature:sort&#45;&gt;:core:ui -->
<g id="edge80" class="edge">
<title>:feature:sort&#45;&gt;:core:ui</title>
<path fill="none" stroke="black" d="M1350.96,-511.05C1275.88,-497.46 1142.39,-473.32 1069.66,-460.16"/>
<polygon fill="black" stroke="black" points="1069.84,-456.64 1059.38,-458.3 1068.6,-463.53 1069.84,-456.64"/>
</g>
<!-- :core:data&#45;&gt;:core:analytics -->
<g id="edge38" class="edge">
<title>:core:data&#45;&gt;:core:analytics</title>
<path fill="none" stroke="black" d="M1095.52,-226.62C1169.13,-217.46 1307.08,-199.54 1424,-180 1430.63,-178.89 1437.53,-177.67 1444.41,-176.4"/>
<polygon fill="black" stroke="black" points="1445.27,-179.8 1454.45,-174.51 1443.98,-172.92 1445.27,-179.8"/>
</g>
<!-- :core:data&#45;&gt;:core:common -->
<g id="edge34" class="edge">
<title>:core:data&#45;&gt;:core:common</title>
<path fill="none" stroke="black" d="M1019.2,-217.61C961.17,-180.1 812.32,-83.86 745.43,-40.61"/>
<polygon fill="black" stroke="black" points="747.23,-37.61 736.93,-35.12 743.43,-43.49 747.23,-37.61"/>
</g>
<!-- :core:data&#45;&gt;:core:network -->
<g id="edge37" class="edge">
<title>:core:data&#45;&gt;:core:network</title>
<path fill="none" stroke="black" d="M1063.98,-216.99C1097.1,-191.7 1161.63,-142.44 1199.43,-113.57"/>
<polygon fill="black" stroke="black" points="1201.7,-116.24 1207.53,-107.39 1197.46,-110.68 1201.7,-116.24"/>
</g>
<!-- :core:data&#45;&gt;:core:component&#45;controller -->
<g id="edge39" class="edge">
<title>:core:data&#45;&gt;:core:component&#45;controller</title>
<path fill="none" stroke="red" stroke-width="2" d="M991.89,-225.77C910.85,-214.31 751.41,-191.77 647.32,-177.04"/>
<polygon fill="red" stroke="red" stroke-width="2" points="647.5,-173.54 637.11,-175.6 646.52,-180.47 647.5,-173.54"/>
</g>
<!-- :core:database -->
<g id="node22" class="node">
<title>:core:database</title>
<ellipse fill="none" stroke="black" cx="1336" cy="-162" rx="78.79" ry="18"/>
<text text-anchor="middle" x="1336" y="-158.3" font-family="Times,serif" font-size="14.00">:core:database</text>
</g>
<!-- :core:data&#45;&gt;:core:database -->
<g id="edge35" class="edge">
<title>:core:data&#45;&gt;:core:database</title>
<path fill="none" stroke="black" d="M1087.18,-222.44C1136.88,-210.57 1217.94,-191.21 1273.97,-177.82"/>
<polygon fill="black" stroke="black" points="1274.86,-181.2 1283.78,-175.48 1273.24,-174.4 1274.86,-181.2"/>
</g>
<!-- :core:datastore -->
<g id="node23" class="node">
<title>:core:datastore</title>
<ellipse fill="none" stroke="black" cx="979" cy="-90" rx="81.49" ry="18"/>
<text text-anchor="middle" x="979" y="-86.3" font-family="Times,serif" font-size="14.00">:core:datastore</text>
</g>
<!-- :core:data&#45;&gt;:core:datastore -->
<g id="edge36" class="edge">
<title>:core:data&#45;&gt;:core:datastore</title>
<path fill="none" stroke="black" d="M1035.41,-216.15C1024.45,-191.84 1004.09,-146.66 991.06,-117.75"/>
<polygon fill="black" stroke="black" points="994.08,-115.95 986.78,-108.27 987.7,-118.82 994.08,-115.95"/>
</g>
<!-- :core:network&#45;&gt;:core:common -->
<g id="edge44" class="edge">
<title>:core:network&#45;&gt;:core:common</title>
<path fill="none" stroke="black" d="M1165.61,-80.42C1069.67,-67.43 888.03,-42.83 786.12,-29.04"/>
<polygon fill="black" stroke="black" points="786.29,-25.53 775.91,-27.65 785.35,-32.46 786.29,-25.53"/>
</g>
<!-- :core:network&#45;&gt;:core:model -->
<g id="edge45" class="edge">
<title>:core:network&#45;&gt;:core:model</title>
<path fill="none" stroke="black" d="M1229,-71.7C1229,-63.98 1229,-54.71 1229,-46.11"/>
<polygon fill="black" stroke="black" points="1232.5,-46.1 1229,-36.1 1225.5,-46.1 1232.5,-46.1"/>
</g>
<!-- :core:provider&#45;&gt;:core:analytics -->
<g id="edge83" class="edge">
<title>:core:provider&#45;&gt;:core:analytics</title>
<path fill="none" stroke="black" d="M1638.2,-288.43C1612.86,-263.45 1564.74,-215.99 1535.5,-187.16"/>
<polygon fill="black" stroke="black" points="1537.72,-184.43 1528.14,-179.9 1532.8,-189.42 1537.72,-184.43"/>
</g>
<!-- :core:provider&#45;&gt;:core:common -->
<g id="edge84" class="edge">
<title>:core:provider&#45;&gt;:core:common</title>
<path fill="none" stroke="black" d="M1654.73,-287.82C1653.16,-253.88 1644.36,-178.56 1598,-144 1534.76,-96.85 963.67,-133.42 889,-108 862.39,-98.94 861.62,-85.56 837,-72 812.77,-58.66 784.49,-46.42 760.97,-37.06"/>
<polygon fill="black" stroke="black" points="762.13,-33.76 751.54,-33.37 759.57,-40.28 762.13,-33.76"/>
</g>
<!-- :core:provider&#45;&gt;:core:data -->
<g id="edge85" class="edge">
<title>:core:provider&#45;&gt;:core:data</title>
<path fill="none" stroke="black" d="M1591.84,-295.91C1572.64,-293.24 1551.47,-290.4 1532,-288 1379.65,-269.22 1200.14,-250.68 1106.74,-241.31"/>
<polygon fill="black" stroke="black" points="1106.9,-237.8 1096.61,-240.29 1106.21,-244.77 1106.9,-237.8"/>
</g>
<!-- :core:provider&#45;&gt;:core:model -->
<g id="edge86" class="edge">
<title>:core:provider&#45;&gt;:core:model</title>
<path fill="none" stroke="black" d="M1657.87,-287.57C1662.16,-255.16 1666.31,-185.2 1631,-144 1549.16,-48.53 1395.75,-24.92 1303.94,-19.71"/>
<polygon fill="black" stroke="black" points="1304.04,-16.21 1293.88,-19.2 1303.69,-23.2 1304.04,-16.21"/>
</g>
<!-- :core:rule&#45;&gt;:core:common -->
<g id="edge51" class="edge">
<title>:core:rule&#45;&gt;:core:common</title>
<path fill="none" stroke="black" d="M302.6,-287.76C292.76,-244.73 274.11,-131.75 332,-72 371.54,-31.18 527.21,-21.23 626.62,-19.13"/>
<polygon fill="black" stroke="black" points="626.72,-22.63 636.65,-18.94 626.59,-15.63 626.72,-22.63"/>
</g>
<!-- :core:rule&#45;&gt;:core:data -->
<g id="edge53" class="edge">
<title>:core:rule&#45;&gt;:core:data</title>
<path fill="none" stroke="red" stroke-width="2" d="M356.01,-297.64C378.52,-294.41 405.58,-290.74 430,-288 628.93,-265.67 865.1,-247.63 977.39,-239.57"/>
<polygon fill="red" stroke="red" stroke-width="2" points="977.82,-243.05 987.54,-238.84 977.32,-236.06 977.82,-243.05"/>
</g>
<!-- :core:rule&#45;&gt;:core:component&#45;controller -->
<g id="edge52" class="edge">
<title>:core:rule&#45;&gt;:core:component&#45;controller</title>
<path fill="none" stroke="black" d="M321.82,-288.53C340.18,-268.97 373.18,-236.43 407,-216 430.52,-201.79 458.48,-190.32 483.27,-181.73"/>
<polygon fill="black" stroke="black" points="484.61,-184.98 492.96,-178.47 482.37,-178.34 484.61,-184.98"/>
</g>
<!-- :core:rule&#45;&gt;:core:ifw&#45;api -->
<g id="edge54" class="edge">
<title>:core:rule&#45;&gt;:core:ifw&#45;api</title>
<path fill="none" stroke="black" d="M311.75,-287.91C322.1,-254.14 350.13,-179.1 403,-144 440.54,-119.08 558.77,-104.22 637.62,-96.84"/>
<polygon fill="black" stroke="black" points="638.35,-100.29 647.99,-95.89 637.71,-93.32 638.35,-100.29"/>
</g>
<!-- :core:ui&#45;&gt;:core:analytics -->
<g id="edge24" class="edge">
<title>:core:ui&#45;&gt;:core:analytics</title>
<path fill="none" stroke="black" d="M1051.54,-437.35C1077.85,-427.51 1115.55,-412.41 1147,-396 1276.02,-328.67 1418.49,-229.61 1479.96,-185.56"/>
<polygon fill="black" stroke="black" points="1482.36,-188.15 1488.43,-179.47 1478.27,-182.46 1482.36,-188.15"/>
</g>
<!-- :core:ui&#45;&gt;:core:designsystem -->
<g id="edge25" class="edge">
<title>:core:ui&#45;&gt;:core:designsystem</title>
<path fill="none" stroke="black" d="M1023.36,-432.05C1025.36,-424.26 1027.79,-414.82 1030.04,-406.08"/>
<polygon fill="black" stroke="black" points="1033.46,-406.83 1032.56,-396.28 1026.68,-405.09 1033.46,-406.83"/>
</g>
<!-- :core:ui&#45;&gt;:core:model -->
<g id="edge26" class="edge">
<title>:core:ui&#45;&gt;:core:model</title>
<path fill="none" stroke="black" d="M1064.19,-447.57C1206.58,-442.13 1642.33,-417.97 1740,-324 1769.15,-295.96 1759,-275.45 1759,-235 1759,-235 1759,-235 1759,-161 1759,-67.51 1447.41,-33.9 1302.05,-23.31"/>
<polygon fill="black" stroke="black" points="1302.1,-19.81 1291.88,-22.59 1301.61,-26.79 1302.1,-19.81"/>
</g>
<!-- :core:ui&#45;&gt;:core:domain -->
<g id="edge27" class="edge">
<title>:core:ui&#45;&gt;:core:domain</title>
<path fill="none" stroke="red" stroke-width="2" d="M976.5,-443.21C888.31,-431.2 684.61,-403.46 576.08,-388.68"/>
<polygon fill="red" stroke="red" stroke-width="2" points="576.26,-385.17 565.88,-387.29 575.32,-392.11 576.26,-385.17"/>
</g>
<!-- :sync:work&#45;&gt;:core:analytics -->
<g id="edge87" class="edge">
<title>:sync:work&#45;&gt;:core:analytics</title>
<path fill="none" stroke="black" d="M1468.79,-287.87C1477.01,-263.56 1492.13,-218.82 1501.87,-190.01"/>
<polygon fill="black" stroke="black" points="1505.3,-190.78 1505.19,-180.19 1498.67,-188.54 1505.3,-190.78"/>
</g>
<!-- :sync:work&#45;&gt;:core:data -->
<g id="edge88" class="edge">
<title>:sync:work&#45;&gt;:core:data</title>
<path fill="none" stroke="black" d="M1411.5,-296.42C1333.28,-283.38 1184.91,-258.65 1102.3,-244.88"/>
<polygon fill="black" stroke="black" points="1102.75,-241.41 1092.31,-243.22 1101.6,-248.31 1102.75,-241.41"/>
</g>
<!-- :core:component&#45;controller&#45;&gt;:core:common -->
<g id="edge46" class="edge">
<title>:core:component&#45;controller&#45;&gt;:core:common</title>
<path fill="none" stroke="black" d="M562.83,-143.96C579.47,-125.3 607.73,-94.96 635,-72 648.24,-60.85 663.81,-49.8 677.47,-40.69"/>
<polygon fill="black" stroke="black" points="679.69,-43.42 686.13,-35 675.85,-37.57 679.69,-43.42"/>
</g>
<!-- :core:component&#45;controller&#45;&gt;:core:model -->
<g id="edge47" class="edge">
<title>:core:component&#45;controller&#45;&gt;:core:model</title>
<path fill="none" stroke="black" d="M677.59,-156.49C808.47,-150.39 1000.78,-136.78 1069,-108 1091.96,-98.31 1090.9,-85.26 1112,-72 1134.04,-58.15 1160.3,-45.91 1182.36,-36.69"/>
<polygon fill="black" stroke="black" points="1183.92,-39.83 1191.85,-32.8 1181.27,-33.36 1183.92,-39.83"/>
</g>
<!-- :core:component&#45;controller&#45;&gt;:core:ifw&#45;api -->
<g id="edge48" class="edge">
<title>:core:component&#45;controller&#45;&gt;:core:ifw&#45;api</title>
<path fill="none" stroke="red" stroke-width="2" d="M586.45,-144.59C610.96,-134.13 642.79,-120.54 668.27,-109.67"/>
<polygon fill="red" stroke="red" stroke-width="2" points="669.87,-112.79 677.69,-105.64 667.12,-106.35 669.87,-112.79"/>
</g>
<!-- :core:domain&#45;&gt;:core:common -->
<g id="edge30" class="edge">
<title>:core:domain&#45;&gt;:core:common</title>
<path fill="none" stroke="black" d="M486.95,-360.44C445.93,-320.78 353.01,-218.14 403,-144 453.9,-68.5 558.97,-38.59 632.38,-26.75"/>
<polygon fill="black" stroke="black" points="633.17,-30.17 642.52,-25.19 632.11,-23.25 633.17,-30.17"/>
</g>
<!-- :core:domain&#45;&gt;:core:data -->
<g id="edge28" class="edge">
<title>:core:domain&#45;&gt;:core:data</title>
<path fill="none" stroke="black" d="M546.26,-363.25C576.74,-352.91 619.18,-338.16 656,-324 694.68,-309.13 702.24,-299.66 742,-288 753.53,-284.62 899.44,-259.49 983.79,-245.08"/>
<polygon fill="black" stroke="black" points="984.49,-248.51 993.76,-243.38 983.31,-241.61 984.49,-248.51"/>
</g>
<!-- :core:domain&#45;&gt;:core:model -->
<g id="edge29" class="edge">
<title>:core:domain&#45;&gt;:core:model</title>
<path fill="none" stroke="black" d="M536.2,-361.75C556.22,-351.66 582.57,-337.78 605,-324 628.64,-309.47 631.62,-301.25 656,-288 844.88,-185.31 922.51,-221.66 1105,-108 1125.3,-95.36 1125.93,-86.43 1145,-72 1160.17,-60.52 1177.87,-49.09 1193.1,-39.8"/>
<polygon fill="black" stroke="black" points="1194.98,-42.75 1201.74,-34.59 1191.37,-36.75 1194.98,-42.75"/>
</g>
<!-- :core:domain&#45;&gt;:core:rule -->
<g id="edge33" class="edge">
<title>:core:domain&#45;&gt;:core:rule</title>
<path fill="none" stroke="red" stroke-width="2" d="M465.41,-363C432.95,-351.53 386.97,-335.27 352.91,-323.23"/>
<polygon fill="red" stroke="red" stroke-width="2" points="353.79,-319.83 343.19,-319.79 351.45,-326.43 353.79,-319.83"/>
</g>
<!-- :core:domain&#45;&gt;:core:component&#45;controller -->
<g id="edge31" class="edge">
<title>:core:domain&#45;&gt;:core:component&#45;controller</title>
<path fill="none" stroke="black" d="M508.45,-359.85C515.9,-322.75 533.57,-234.81 542.55,-190.1"/>
<polygon fill="black" stroke="black" points="546,-190.73 544.54,-180.23 539.14,-189.35 546,-190.73"/>
</g>
<!-- :core:domain&#45;&gt;:core:ifw&#45;api -->
<g id="edge32" class="edge">
<title>:core:domain&#45;&gt;:core:ifw&#45;api</title>
<path fill="none" stroke="black" d="M527.05,-360.79C566.92,-330.2 650.81,-259.83 693,-180 703.18,-160.73 707.91,-136.39 710.1,-118.04"/>
<polygon fill="black" stroke="black" points="713.59,-118.31 711.12,-108.01 706.63,-117.6 713.59,-118.31"/>
</g>
<!-- :core:ifw&#45;api&#45;&gt;:core:common -->
<g id="edge49" class="edge">
<title>:core:ifw&#45;api&#45;&gt;:core:common</title>
<path fill="none" stroke="red" stroke-width="2" d="M712,-71.7C712,-63.98 712,-54.71 712,-46.11"/>
<polygon fill="red" stroke="red" stroke-width="2" points="715.5,-46.1 712,-36.1 708.5,-46.1 715.5,-46.1"/>
</g>
<!-- :core:ifw&#45;api&#45;&gt;:core:model -->
<g id="edge50" class="edge">
<title>:core:ifw&#45;api&#45;&gt;:core:model</title>
<path fill="none" stroke="black" d="M770.8,-81.04C867.52,-67.94 1059.61,-41.94 1161.64,-28.12"/>
<polygon fill="black" stroke="black" points="1162.39,-31.55 1171.83,-26.74 1161.45,-24.61 1162.39,-31.55"/>
</g>
<!-- :core:database&#45;&gt;:core:model -->
<g id="edge40" class="edge">
<title>:core:database&#45;&gt;:core:model</title>
<path fill="none" stroke="black" d="M1335.26,-143.67C1333.65,-124.47 1328.62,-93.4 1313,-72 1302.73,-57.93 1287.48,-46.71 1272.79,-38.28"/>
<polygon fill="black" stroke="black" points="1274.22,-35.08 1263.76,-33.39 1270.89,-41.23 1274.22,-35.08"/>
</g>
<!-- :core:datastore&#45;&gt;:core:common -->
<g id="edge43" class="edge">
<title>:core:datastore&#45;&gt;:core:common</title>
<path fill="none" stroke="black" d="M928.78,-75.83C883.79,-64.04 817.79,-46.74 770.45,-34.32"/>
<polygon fill="black" stroke="black" points="771.21,-30.9 760.64,-31.75 769.43,-37.67 771.21,-30.9"/>
</g>
<!-- :core:datastore&#45;&gt;:core:model -->
<g id="edge42" class="edge">
<title>:core:datastore&#45;&gt;:core:model</title>
<path fill="none" stroke="black" d="M1027.2,-75.5C1069.68,-63.61 1131.47,-46.31 1175.47,-33.99"/>
<polygon fill="black" stroke="black" points="1176.45,-37.35 1185.13,-31.28 1174.56,-30.61 1176.45,-37.35"/>
</g>
<!-- :core:datastore&#45;proto -->
<g id="node24" class="node">
<title>:core:datastore&#45;proto</title>
<ellipse fill="none" stroke="black" cx="979" cy="-18" rx="108.58" ry="18"/>
<text text-anchor="middle" x="979" y="-14.3" font-family="Times,serif" font-size="14.00">:core:datastore&#45;proto</text>
</g>
<!-- :core:datastore&#45;&gt;:core:datastore&#45;proto -->
<g id="edge41" class="edge">
<title>:core:datastore&#45;&gt;:core:datastore&#45;proto</title>
<path fill="none" stroke="black" d="M979,-71.7C979,-63.98 979,-54.71 979,-46.11"/>
<polygon fill="black" stroke="black" points="982.5,-46.1 979,-36.1 975.5,-46.1 982.5,-46.1"/>
</g>
</g>
</svg>
