<?xml version="1.0" encoding="UTF-8" standalone="no"?>
<!DOCTYPE svg PUBLIC "-//W3C//DTD SVG 1.1//EN"
 "http://www.w3.org/Graphics/SVG/1.1/DTD/svg11.dtd">
<!-- Generated by graphviz version 2.43.0 (0)
 -->
<!-- Title: G Pages: 1 -->
<svg width="1041pt" height="548pt"
 viewBox="0.00 0.00 1040.74 548.00" xmlns="http://www.w3.org/2000/svg" xmlns:xlink="http://www.w3.org/1999/xlink">
<g id="graph0" class="graph" transform="scale(1 1) rotate(0) translate(4 544)">
<title>G</title>
<polygon fill="white" stroke="transparent" points="-4,4 -4,-544 1036.74,-544 1036.74,4 -4,4"/>
<!-- :core:ui -->
<g id="node1" class="node">
<title>:core:ui</title>
<ellipse fill="none" stroke="black" cx="442.74" cy="-522" rx="45.49" ry="18"/>
<text text-anchor="middle" x="442.74" y="-518.3" font-family="Times,serif" font-size="14.00">:core:ui</text>
</g>
<!-- :core:analytics -->
<g id="node2" class="node">
<title>:core:analytics</title>
<ellipse fill="none" stroke="black" cx="144.74" cy="-234" rx="77.99" ry="18"/>
<text text-anchor="middle" x="144.74" y="-230.3" font-family="Times,serif" font-size="14.00">:core:analytics</text>
</g>
<!-- :core:ui&#45;&gt;:core:analytics -->
<g id="edge1" class="edge">
<title>:core:ui&#45;&gt;:core:analytics</title>
<path fill="none" stroke="black" d="M426.29,-505.22C376.78,-457.7 228.9,-315.77 169.67,-258.93"/>
<polygon fill="black" stroke="black" points="171.89,-256.2 162.25,-251.8 167.04,-261.25 171.89,-256.2"/>
</g>
<!-- :core:designsystem -->
<g id="node3" class="node">
<title>:core:designsystem</title>
<ellipse fill="none" stroke="black" cx="100.74" cy="-378" rx="100.98" ry="18"/>
<text text-anchor="middle" x="100.74" y="-374.3" font-family="Times,serif" font-size="14.00">:core:designsystem</text>
</g>
<!-- :core:ui&#45;&gt;:core:designsystem -->
<g id="edge2" class="edge">
<title>:core:ui&#45;&gt;:core:designsystem</title>
<path fill="none" stroke="black" d="M410.3,-509.27C381.8,-498.84 339.3,-482.96 302.74,-468 247.79,-445.51 185.37,-417.65 144.64,-399.15"/>
<polygon fill="black" stroke="black" points="146.08,-395.96 135.53,-395 143.18,-402.33 146.08,-395.96"/>
</g>
<!-- :core:model -->
<g id="node4" class="node">
<title>:core:model</title>
<ellipse fill="none" stroke="black" cx="577.74" cy="-18" rx="64.99" ry="18"/>
<text text-anchor="middle" x="577.74" y="-14.3" font-family="Times,serif" font-size="14.00">:core:model</text>
</g>
<!-- :core:ui&#45;&gt;:core:model -->
<g id="edge3" class="edge">
<title>:core:ui&#45;&gt;:core:model</title>
<path fill="none" stroke="black" d="M488.06,-519.79C626.21,-514.88 1032.74,-490.94 1032.74,-379 1032.74,-379 1032.74,-379 1032.74,-161 1032.74,-95.31 975.22,-97.65 914.74,-72 829.51,-35.85 722.72,-24.09 652.47,-20.41"/>
<polygon fill="black" stroke="black" points="652.54,-16.91 642.38,-19.92 652.2,-23.9 652.54,-16.91"/>
</g>
<!-- :core:domain -->
<g id="node5" class="node">
<title>:core:domain</title>
<ellipse fill="none" stroke="black" cx="653.74" cy="-450" rx="70.69" ry="18"/>
<text text-anchor="middle" x="653.74" y="-446.3" font-family="Times,serif" font-size="14.00">:core:domain</text>
</g>
<!-- :core:ui&#45;&gt;:core:domain -->
<g id="edge4" class="edge">
<title>:core:ui&#45;&gt;:core:domain</title>
<path fill="none" stroke="red" stroke-width="2" d="M476.64,-509.75C510.69,-498.46 563.56,-480.92 602.68,-467.94"/>
<polygon fill="red" stroke="red" stroke-width="2" points="603.92,-471.22 612.31,-464.74 601.72,-464.57 603.92,-471.22"/>
</g>
<!-- :core:designsystem&#45;&gt;:core:model -->
<g id="edge5" class="edge">
<title>:core:designsystem&#45;&gt;:core:model</title>
<path fill="none" stroke="black" d="M87.89,-360.11C69.73,-334.51 38.74,-283.69 38.74,-235 38.74,-235 38.74,-235 38.74,-161 38.74,-120.55 27.63,-99 57.74,-72 90.21,-42.88 367.15,-27.61 503.08,-21.81"/>
<polygon fill="black" stroke="black" points="503.57,-25.29 513.41,-21.37 503.28,-18.3 503.57,-25.29"/>
</g>
<!-- :core:domain&#45;&gt;:core:model -->
<g id="edge7" class="edge">
<title>:core:domain&#45;&gt;:core:model</title>
<path fill="none" stroke="black" d="M707.77,-438.19C803.93,-417.4 994.74,-368.4 994.74,-307 994.74,-307 994.74,-307 994.74,-161 994.74,-88.17 763.95,-45.11 645.76,-27.84"/>
<polygon fill="black" stroke="black" points="646.12,-24.35 635.72,-26.39 645.12,-31.28 646.12,-24.35"/>
</g>
<!-- :core:data -->
<g id="node6" class="node">
<title>:core:data</title>
<ellipse fill="none" stroke="black" cx="444.74" cy="-306" rx="57.39" ry="18"/>
<text text-anchor="middle" x="444.74" y="-302.3" font-family="Times,serif" font-size="14.00">:core:data</text>
</g>
<!-- :core:domain&#45;&gt;:core:data -->
<g id="edge6" class="edge">
<title>:core:domain&#45;&gt;:core:data</title>
<path fill="none" stroke="black" d="M615.06,-434.87C591.92,-425.54 562.5,-412.08 538.74,-396 511.1,-377.29 483.89,-350.33 465.91,-330.99"/>
<polygon fill="black" stroke="black" points="468.37,-328.49 459.03,-323.47 463.2,-333.21 468.37,-328.49"/>
</g>
<!-- :core:common -->
<g id="node7" class="node">
<title>:core:common</title>
<ellipse fill="none" stroke="black" cx="629.74" cy="-90" rx="75.29" ry="18"/>
<text text-anchor="middle" x="629.74" y="-86.3" font-family="Times,serif" font-size="14.00">:core:common</text>
</g>
<!-- :core:domain&#45;&gt;:core:common -->
<g id="edge8" class="edge">
<title>:core:domain&#45;&gt;:core:common</title>
<path fill="none" stroke="black" d="M625.38,-433.48C611.95,-424.46 597.24,-411.76 589.74,-396 541.61,-294.87 550.91,-249.78 587.74,-144 591.37,-133.58 597.99,-123.67 604.92,-115.3"/>
<polygon fill="black" stroke="black" points="607.57,-117.59 611.58,-107.78 602.33,-112.95 607.57,-117.59"/>
</g>
<!-- :core:component&#45;controller -->
<g id="node8" class="node">
<title>:core:component&#45;controller</title>
<ellipse fill="none" stroke="black" cx="754.74" cy="-234" rx="135.68" ry="18"/>
<text text-anchor="middle" x="754.74" y="-230.3" font-family="Times,serif" font-size="14.00">:core:component&#45;controller</text>
</g>
<!-- :core:domain&#45;&gt;:core:component&#45;controller -->
<g id="edge9" class="edge">
<title>:core:domain&#45;&gt;:core:component&#45;controller</title>
<path fill="none" stroke="black" d="M680.07,-433.18C693.29,-423.93 708.43,-411.1 717.74,-396 743.55,-354.15 751.38,-296.14 753.74,-262.39"/>
<polygon fill="black" stroke="black" points="757.24,-262.52 754.33,-252.34 750.25,-262.11 757.24,-262.52"/>
</g>
<!-- :core:ifw&#45;api -->
<g id="node9" class="node">
<title>:core:ifw&#45;api</title>
<ellipse fill="none" stroke="black" cx="664.74" cy="-162" rx="67.69" ry="18"/>
<text text-anchor="middle" x="664.74" y="-158.3" font-family="Times,serif" font-size="14.00">:core:ifw&#45;api</text>
</g>
<!-- :core:domain&#45;&gt;:core:ifw&#45;api -->
<g id="edge10" class="edge">
<title>:core:domain&#45;&gt;:core:ifw&#45;api</title>
<path fill="none" stroke="black" d="M691.87,-434.66C777.88,-400.22 973.95,-308.81 899.74,-216 879.7,-190.94 799.24,-176.88 738,-169.63"/>
<polygon fill="black" stroke="black" points="738.3,-166.15 727.97,-168.49 737.51,-173.1 738.3,-166.15"/>
</g>
<!-- :core:rule -->
<g id="node10" class="node">
<title>:core:rule</title>
<ellipse fill="none" stroke="black" cx="653.74" cy="-378" rx="55.49" ry="18"/>
<text text-anchor="middle" x="653.74" y="-374.3" font-family="Times,serif" font-size="14.00">:core:rule</text>
</g>
<!-- :core:domain&#45;&gt;:core:rule -->
<g id="edge11" class="edge">
<title>:core:domain&#45;&gt;:core:rule</title>
<path fill="none" stroke="red" stroke-width="2" d="M653.74,-431.7C653.74,-423.98 653.74,-414.71 653.74,-406.11"/>
<polygon fill="red" stroke="red" stroke-width="2" points="657.24,-406.1 653.74,-396.1 650.24,-406.1 657.24,-406.1"/>
</g>
<!-- :core:data&#45;&gt;:core:analytics -->
<g id="edge16" class="edge">
<title>:core:data&#45;&gt;:core:analytics</title>
<path fill="none" stroke="black" d="M400.15,-294.6C349.11,-282.69 265.13,-263.09 207.5,-249.64"/>
<polygon fill="black" stroke="black" points="207.95,-246.15 197.42,-247.29 206.36,-252.97 207.95,-246.15"/>
</g>
<!-- :core:data&#45;&gt;:core:common -->
<g id="edge12" class="edge">
<title>:core:data&#45;&gt;:core:common</title>
<path fill="none" stroke="black" d="M453.64,-288.04C470.48,-257.02 509.38,-190.08 554.74,-144 566.39,-132.16 580.98,-121.18 594.19,-112.32"/>
<polygon fill="black" stroke="black" points="596.16,-115.21 602.62,-106.82 592.33,-109.35 596.16,-115.21"/>
</g>
<!-- :core:data&#45;&gt;:core:component&#45;controller -->
<g id="edge17" class="edge">
<title>:core:data&#45;&gt;:core:component&#45;controller</title>
<path fill="none" stroke="red" stroke-width="2" d="M489.82,-294.82C539.35,-283.64 619.72,-265.49 678.97,-252.11"/>
<polygon fill="red" stroke="red" stroke-width="2" points="680.05,-255.45 689.03,-249.84 678.51,-248.63 680.05,-255.45"/>
</g>
<!-- :core:database -->
<g id="node11" class="node">
<title>:core:database</title>
<ellipse fill="none" stroke="black" cx="145.74" cy="-90" rx="78.79" ry="18"/>
<text text-anchor="middle" x="145.74" y="-86.3" font-family="Times,serif" font-size="14.00">:core:database</text>
</g>
<!-- :core:data&#45;&gt;:core:database -->
<g id="edge13" class="edge">
<title>:core:data&#45;&gt;:core:database</title>
<path fill="none" stroke="black" d="M411.75,-291.28C339.31,-261.04 172.07,-190.45 163.74,-180 149.97,-162.71 145.88,-137.65 145.01,-118.52"/>
<polygon fill="black" stroke="black" points="148.5,-118.26 144.81,-108.32 141.5,-118.39 148.5,-118.26"/>
</g>
<!-- :core:datastore -->
<g id="node12" class="node">
<title>:core:datastore</title>
<ellipse fill="none" stroke="black" cx="253.74" cy="-162" rx="81.49" ry="18"/>
<text text-anchor="middle" x="253.74" y="-158.3" font-family="Times,serif" font-size="14.00">:core:datastore</text>
</g>
<!-- :core:data&#45;&gt;:core:datastore -->
<g id="edge14" class="edge">
<title>:core:data&#45;&gt;:core:datastore</title>
<path fill="none" stroke="black" d="M423.57,-289.26C389.71,-264.09 323.22,-214.65 284.24,-185.67"/>
<polygon fill="black" stroke="black" points="286,-182.62 275.89,-179.47 281.83,-188.24 286,-182.62"/>
</g>
<!-- :core:network -->
<g id="node13" class="node">
<title>:core:network</title>
<ellipse fill="none" stroke="black" cx="427.74" cy="-162" rx="74.99" ry="18"/>
<text text-anchor="middle" x="427.74" y="-158.3" font-family="Times,serif" font-size="14.00">:core:network</text>
</g>
<!-- :core:data&#45;&gt;:core:network -->
<g id="edge15" class="edge">
<title>:core:data&#45;&gt;:core:network</title>
<path fill="none" stroke="black" d="M442.69,-287.87C439.79,-263.67 434.47,-219.21 431.02,-190.39"/>
<polygon fill="black" stroke="black" points="434.46,-189.7 429.8,-180.19 427.51,-190.53 434.46,-189.7"/>
</g>
<!-- :core:common&#45;&gt;:core:model -->
<g id="edge18" class="edge">
<title>:core:common&#45;&gt;:core:model</title>
<path fill="none" stroke="red" stroke-width="2" d="M617.15,-72.05C610.89,-63.63 603.21,-53.28 596.29,-43.97"/>
<polygon fill="red" stroke="red" stroke-width="2" points="598.99,-41.73 590.21,-35.79 593.37,-45.9 598.99,-41.73"/>
</g>
<!-- :core:component&#45;controller&#45;&gt;:core:model -->
<g id="edge26" class="edge">
<title>:core:component&#45;controller&#45;&gt;:core:model</title>
<path fill="none" stroke="black" d="M759.74,-215.87C764.22,-197.65 769.06,-168.18 761.74,-144 750.6,-107.19 743.71,-96.1 713.74,-72 691.15,-53.84 661.6,-41.32 635.81,-33.04"/>
<polygon fill="black" stroke="black" points="636.72,-29.66 626.13,-30.07 634.67,-36.35 636.72,-29.66"/>
</g>
<!-- :core:component&#45;controller&#45;&gt;:core:common -->
<g id="edge25" class="edge">
<title>:core:component&#45;controller&#45;&gt;:core:common</title>
<path fill="none" stroke="black" d="M756.74,-215.81C758.06,-196.45 757.25,-164.96 741.74,-144 729.04,-126.83 709.35,-115.01 690,-106.97"/>
<polygon fill="black" stroke="black" points="691.15,-103.66 680.57,-103.32 688.63,-110.19 691.15,-103.66"/>
</g>
<!-- :core:component&#45;controller&#45;&gt;:core:ifw&#45;api -->
<g id="edge27" class="edge">
<title>:core:component&#45;controller&#45;&gt;:core:ifw&#45;api</title>
<path fill="none" stroke="red" stroke-width="2" d="M732.95,-216.05C721.18,-206.89 706.48,-195.46 693.74,-185.56"/>
<polygon fill="red" stroke="red" stroke-width="2" points="695.75,-182.68 685.71,-179.31 691.45,-188.21 695.75,-182.68"/>
</g>
<!-- :core:ifw&#45;api&#45;&gt;:core:common -->
<g id="edge28" class="edge">
<title>:core:ifw&#45;api&#45;&gt;:core:common</title>
<path fill="none" stroke="red" stroke-width="2" d="M656.27,-144.05C652.24,-136.01 647.34,-126.2 642.85,-117.23"/>
<polygon fill="red" stroke="red" stroke-width="2" points="645.98,-115.65 638.38,-108.28 639.72,-118.78 645.98,-115.65"/>
</g>
<!-- :core:rule&#45;&gt;:core:data -->
<g id="edge31" class="edge">
<title>:core:rule&#45;&gt;:core:data</title>
<path fill="none" stroke="red" stroke-width="2" d="M616.38,-364.49C581.67,-352.86 529.83,-335.5 492.21,-322.9"/>
<polygon fill="red" stroke="red" stroke-width="2" points="493.08,-319.5 482.49,-319.64 490.86,-326.14 493.08,-319.5"/>
</g>
<!-- :core:rule&#45;&gt;:core:common -->
<g id="edge29" class="edge">
<title>:core:rule&#45;&gt;:core:common</title>
<path fill="none" stroke="black" d="M699.72,-368C784.19,-349.22 950.94,-300.46 899.74,-216 858.18,-147.45 767.78,-116.07 703.03,-101.99"/>
<polygon fill="black" stroke="black" points="703.37,-98.49 692.87,-99.88 701.95,-105.34 703.37,-98.49"/>
</g>
<!-- :core:rule&#45;&gt;:core:component&#45;controller -->
<g id="edge30" class="edge">
<title>:core:rule&#45;&gt;:core:component&#45;controller</title>
<path fill="none" stroke="black" d="M665.72,-360.15C683.24,-335.52 716,-289.47 736.51,-260.63"/>
<polygon fill="black" stroke="black" points="739.52,-262.45 742.46,-252.27 733.81,-258.39 739.52,-262.45"/>
</g>
<!-- :core:rule&#45;&gt;:core:ifw&#45;api -->
<g id="edge32" class="edge">
<title>:core:rule&#45;&gt;:core:ifw&#45;api</title>
<path fill="none" stroke="black" d="M641.87,-360.05C622.51,-330.14 588.32,-266.4 609.74,-216 614.73,-204.27 623.72,-193.88 633.01,-185.48"/>
<polygon fill="black" stroke="black" points="635.42,-188.02 640.8,-178.9 630.9,-182.68 635.42,-188.02"/>
</g>
<!-- :core:database&#45;&gt;:core:model -->
<g id="edge19" class="edge">
<title>:core:database&#45;&gt;:core:model</title>
<path fill="none" stroke="black" d="M204.74,-77.98C216.02,-75.94 227.74,-73.87 238.74,-72 333.43,-55.95 443.31,-39.09 511.69,-28.81"/>
<polygon fill="black" stroke="black" points="512.51,-32.23 521.88,-27.28 511.47,-25.31 512.51,-32.23"/>
</g>
<!-- :core:datastore&#45;&gt;:core:model -->
<g id="edge21" class="edge">
<title>:core:datastore&#45;&gt;:core:model</title>
<path fill="none" stroke="black" d="M251.97,-143.94C250.89,-123.8 252.53,-90.68 271.74,-72 303.99,-40.64 424.21,-27.65 504.01,-22.4"/>
<polygon fill="black" stroke="black" points="504.26,-25.89 514.02,-21.76 503.82,-18.9 504.26,-25.89"/>
</g>
<!-- :core:datastore&#45;&gt;:core:common -->
<g id="edge22" class="edge">
<title>:core:datastore&#45;&gt;:core:common</title>
<path fill="none" stroke="black" d="M313.28,-149.72C323.44,-147.81 333.89,-145.84 343.74,-144 418.31,-130.05 503.85,-114.22 561.81,-103.52"/>
<polygon fill="black" stroke="black" points="562.74,-106.91 571.94,-101.65 561.47,-100.02 562.74,-106.91"/>
</g>
<!-- :core:datastore&#45;proto -->
<g id="node14" class="node">
<title>:core:datastore&#45;proto</title>
<ellipse fill="none" stroke="black" cx="389.74" cy="-90" rx="108.58" ry="18"/>
<text text-anchor="middle" x="389.74" y="-86.3" font-family="Times,serif" font-size="14.00">:core:datastore&#45;proto</text>
</g>
<!-- :core:datastore&#45;&gt;:core:datastore&#45;proto -->
<g id="edge20" class="edge">
<title>:core:datastore&#45;&gt;:core:datastore&#45;proto</title>
<path fill="none" stroke="black" d="M284.26,-145.29C303.36,-135.46 328.2,-122.67 348.98,-111.98"/>
<polygon fill="black" stroke="black" points="350.61,-115.08 357.9,-107.39 347.41,-108.85 350.61,-115.08"/>
</g>
<!-- :core:network&#45;&gt;:core:model -->
<g id="edge24" class="edge">
<title>:core:network&#45;&gt;:core:model</title>
<path fill="none" stroke="black" d="M456.36,-145.11C472.37,-135.5 492.18,-122.34 507.74,-108 528.45,-88.91 547.91,-63.3 561.03,-44.46"/>
<polygon fill="black" stroke="black" points="564.01,-46.3 566.77,-36.07 558.23,-42.35 564.01,-46.3"/>
</g>
<!-- :core:network&#45;&gt;:core:common -->
<g id="edge23" class="edge">
<title>:core:network&#45;&gt;:core:common</title>
<path fill="none" stroke="black" d="M468.62,-146.83C500.52,-135.78 544.99,-120.37 579.14,-108.54"/>
<polygon fill="black" stroke="black" points="580.62,-111.73 588.92,-105.14 578.33,-105.11 580.62,-111.73"/>
</g>
</g>
</svg>
