<svg xmlns="http://www.w3.org/2000/svg" width="913pt" height="404pt" viewBox="0 0 913 404">
    <g class="graph">
        <path fill="#fff" stroke="transparent" d="M0 404V0h913v404H0z"/>
        <g class="node" transform="translate(4 400)">
            <ellipse cx="158" cy="-378" fill="none" stroke="#000" rx="70.69" ry="18"/>
            <text x="158" y="-374.3" font-family="Times,serif" font-size="14" text-anchor="middle">:core:domain</text>
        </g>
        <g class="node" transform="translate(4 400)">
            <ellipse cx="526" cy="-234" fill="none" stroke="#000" rx="57.39" ry="18"/>
            <text x="526" y="-230.3" font-family="Times,serif" font-size="14" text-anchor="middle">:core:data</text>
        </g>
        <g stroke="#000" class="edge">
            <path fill="none" d="M201.79 37.04C231.22 47.53 272.23 62.34 308 76c62.7 23.94 134.73 53.13 179.31 71.4"/>
            <path d="m488.74 144.2 7.92 7.04-10.58-.56 2.66-6.48z"/>
        </g>
        <g class="node" transform="translate(4 400)">
            <ellipse cx="283" cy="-18" fill="none" stroke="#000" rx="64.99" ry="18"/>
            <text x="283" y="-14.3" font-family="Times,serif" font-size="14" text-anchor="middle">:core:model</text>
        </g>
        <g stroke="#000" class="edge">
            <path fill="none" d="M124.16 37.44C77.41 58.04 4 100.64 4 165v74c0 94.16 126.69 125.89 210.54 136.57"/>
            <path d="m215.03 372.11 9.51 4.67-10.34 2.28.83-6.95z"/>
        </g>
        <g class="node" transform="translate(4 400)">
            <ellipse cx="682" cy="-18" fill="none" stroke="#000" rx="75.29" ry="18"/>
            <text x="682" y="-14.3" font-family="Times,serif" font-size="14" text-anchor="middle">:core:common</text>
        </g>
        <g stroke="#000" class="edge">
            <path fill="none" d="M227.96 28.6C410.51 44.97 909 95.98 909 165v74c0 74.54-89.76 111.66-155.38 128.83"/>
            <path d="m754.27 371.28-10.55-.96 8.84-5.83 1.71 6.79z"/>
        </g>
        <g class="node" transform="translate(4 400)">
            <ellipse cx="240" cy="-162" fill="none" stroke="#000" rx="135.68" ry="18"/>
            <text x="240" y="-158.3" font-family="Times,serif" font-size="14" text-anchor="middle">:core:component-controller</text>
        </g>
        <g stroke="#000" class="edge">
            <path fill="none" d="M164.04 40.1c2.5 18.2 7.48 47.64 15.96 71.9 12.56 35.92 33.59 74.5 48.1 99.14"/>
            <path d="m231.19 209.49 2.12 10.38-8.13-6.79 6.01-3.59z"/>
        </g>
        <g class="node" transform="translate(4 400)">
            <ellipse cx="187" cy="-90" fill="none" stroke="#000" rx="67.69" ry="18"/>
            <text x="187" y="-86.3" font-family="Times,serif" font-size="14" text-anchor="middle">:core:ifw-api</text>
        </g>
        <g stroke="#000" class="edge">
            <path fill="none" d="M147.93 39.66C116.05 79.54 44.44 182.63 89 256c10.37 17.07 28.21 28.89 46.1 36.96"/>
            <path d="m136.54 289.77 7.89 7.08-10.58-.62 2.69-6.46z"/>
        </g>
        <g class="node" transform="translate(4 400)">
            <ellipse cx="240" cy="-306" fill="none" stroke="#000" rx="55.49" ry="18"/>
            <text x="240" y="-302.3" font-family="Times,serif" font-size="14" text-anchor="middle">:core:rule</text>
        </g>
        <g stroke="red" stroke-width="2" class="edge">
            <path fill="none" d="M181.43 39.59c10.78 9.2 24.33 20.77 36.06 30.78"/>
            <path fill="red" d="m219.94 67.86 5.33 9.15-9.88-3.83 4.55-5.32z"/>
        </g>
        <g stroke="#000" class="edge">
            <path fill="none" d="M586.34 169.27c74.39 4.32 199.3 16.58 227.66 50.73 41.11 49.49-39.06 109.07-90.15 140.02"/>
            <path d="m725.38 363.18-10.39 2.1 6.82-8.11 3.57 6.01z"/>
        </g>
        <g stroke="red" stroke-width="2" class="edge">
            <path fill="none" d="M486.25 177.71c-45.44 11.12-117.28 28.7-170.94 41.84"/>
            <path fill="red" d="m316.05 222.97-10.54-1.02 8.88-5.78 1.66 6.8z"/>
        </g>
        <g class="node" transform="translate(4 400)">
            <ellipse cx="472" cy="-162" fill="none" stroke="#000" rx="78.79" ry="18"/>
            <text x="472" y="-158.3" font-family="Times,serif" font-size="14" text-anchor="middle">:core:database</text>
        </g>
        <g stroke="#000" class="edge">
            <path fill="none" d="M517.2 183.59c-6.56 8.5-14.68 19.04-21.98 28.5"/>
            <path d="m497.96 214.26-8.88 5.78 3.34-10.05 5.54 4.27z"/>
        </g>
        <g class="node" transform="translate(4 400)">
            <ellipse cx="470" cy="-90" fill="none" stroke="#000" rx="81.49" ry="18"/>
            <text x="470" y="-86.3" font-family="Times,serif" font-size="14" text-anchor="middle">:core:datastore</text>
        </g>
        <g stroke="#000" class="edge">
            <path fill="none" d="M544.7 183.43c14.58 18.39 32.93 48.73 19.3 72.57-8.42 14.73-22.71 25.78-37.45 33.86"/>
            <path d="m527.86 293.12-10.5 1.4 7.33-7.65 3.17 6.25z"/>
        </g>
        <g class="node" transform="translate(4 400)">
            <ellipse cx="682" cy="-90" fill="none" stroke="#000" rx="74.99" ry="18"/>
            <text x="682" y="-86.3" font-family="Times,serif" font-size="14" text-anchor="middle">:core:network</text>
        </g>
        <g stroke="#000" class="edge">
            <path fill="none" d="M547.9 183.29c27.59 25.12 80.65 73.41 112.36 102.28"/>
            <path d="m662.79 283.14 5.04 9.32-9.75-4.14 4.71-5.18z"/>
        </g>
        <g class="node" transform="translate(4 400)">
            <ellipse cx="723" cy="-162" fill="none" stroke="#000" rx="77.99" ry="18"/>
            <text x="723" y="-158.3" font-family="Times,serif" font-size="14" text-anchor="middle">:core:analytics</text>
        </g>
        <g stroke="#000" class="edge">
            <path fill="none" d="M566.59 180c30.89 10.98 75.44 26.81 109.75 39"/>
            <path d="m677.93 215.85 8.25 6.65-10.59-.05 2.34-6.6z"/>
        </g>
        <g stroke="#000" class="edge">
            <path fill="none" d="M252.97 256.29c4.99 10.18 10.99 23.43 15.03 35.71 6.69 20.35 11.63 44.12 14.79 61.97"/>
            <path d="m286.26 353.54-1.77 10.44-5.13-9.27 6.9-1.17z"/>
        </g>
        <g stroke="#000" class="edge">
            <path fill="none" d="M335.52 251.37C422.74 263.61 543.73 281.93 564 292c20.83 10.35 19.63 21.72 38 36 14.8 11.5 32.17 22.79 47.26 31.97"/>
            <path d="m651.07 356.97 6.78 8.15-10.38-2.14 3.6-6.01z"/>
        </g>
        <g stroke="red" stroke-width="2" class="edge">
            <path fill="none" d="M231.17 255.95c-6.38 8.42-14.22 18.77-21.27 28.08"/>
            <path fill="red" d="m212.54 286.35-8.83 5.86 3.25-10.08 5.58 4.22z"/>
        </g>
        <g stroke="#000" class="edge">
            <path fill="none" d="M213.27 327.24c12.84 9.36 29.17 21.27 43.2 31.5"/>
            <path d="m258.84 356.13 6.02 8.72-10.15-3.06 4.13-5.66z"/>
        </g>
        <g stroke="red" stroke-width="2" class="edge">
            <path fill="none" d="M252.04 317.83C331.62 327 475.05 344.41 597 364c7.54 1.21 15.41 2.57 23.23 3.99"/>
            <path fill="red" d="m620.86 364.54 9.21 5.25-10.47 1.64 1.26-6.89z"/>
        </g>
        <g stroke="red" stroke-width="2" class="edge">
            <path fill="none" d="M286.82 105.48c50.61 12.39 134.86 33.01 189.72 46.43"/>
            <path fill="red" d="m477.54 148.56 8.88 5.77-10.54 1.03 1.66-6.8z"/>
        </g>
        <g stroke="#000" class="edge">
            <path fill="none" d="M298.19 97.72C431.53 105.69 769.35 134.13 833 220c22.93 30.94-28.72 105.67-31 108-15.97 16.33-37.91 28.1-58.41 36.34"/>
            <path d="m744.58 367.71-10.59.29 8.1-6.83 2.49 6.54z"/>
        </g>
        <g stroke="#000" class="edge">
            <path fill="none" d="M244 112.13v97.48"/>
            <path d="m247.5 209.81-3.5 10-3.5-10h7z"/>
        </g>
        <g stroke="#000" class="edge">
            <path fill="none" d="M215.41 109.59C180.42 129.24 122.88 167.88 99 220c-6.67 14.55-8.01 22.15 0 36 9.1 15.74 24.84 27.22 40.76 35.39"/>
            <path d="m141.57 288.37 7.54 7.45-10.54-1.12 3-6.33z"/>
        </g>
        <g stroke="#000" class="edge">
            <path fill="none" d="M445.12 254.58c-18.37 9.81-41.79 23.25-61.12 37.42-26.94 19.74-54.73 45.95-73.62 64.8"/>
            <path d="m312.38 359.75-9.52 4.64 4.55-9.57 4.97 4.93z"/>
        </g>
        <g stroke="#000" class="edge">
            <path fill="none" d="M434.34 325.85c-29.41 11-69.6 26.05-100.57 37.64"/>
            <path d="m334.65 366.9-10.59.23 8.14-6.79 2.45 6.56z"/>
        </g>
        <g stroke="#000" class="edge">
            <path fill="none" d="M517.41 325.33c33.78 11.16 80.75 26.67 116.54 38.48"/>
            <path d="m635.33 360.58 8.4 6.46-10.59.19 2.19-6.65z"/>
        </g>
        <g class="node" transform="translate(4 400)">
            <ellipse cx="475" cy="-18" fill="none" stroke="#000" rx="108.58" ry="18"/>
            <text x="475" y="-14.3" font-family="Times,serif" font-size="14" text-anchor="middle">:core:datastore-proto</text>
        </g>
        <g stroke="#000" class="edge">
            <path fill="none" d="M475.24 328.3c.55 7.72 1.21 16.99 1.82 25.59"/>
            <path d="m480.56 353.67-2.78 10.23-4.21-9.73 6.99-.5z"/>
        </g>
        <g stroke="#000" class="edge">
            <path fill="none" d="M623.48 319.98c-65.59 9.7-171.6 26.19-262.48 44.02-5.34 1.05-10.87 2.2-16.41 3.39"/>
            <path d="m345.19 370.84-10.52-1.26 9.02-5.57 1.5 6.83z"/>
        </g>
        <g stroke="#000" class="edge">
            <path fill="none" d="M686 328.3v25.59"/>
            <path d="m689.5 353.9-3.5 10-3.5-10h7z"/>
        </g>
    </g>
</svg>
