<svg xmlns="http://www.w3.org/2000/svg" width="314pt" height="188pt" viewBox="0 0 314.39 188">
    <g class="graph">
        <path fill="#fff" stroke="transparent" d="M0 188V0h314.39v188H0z"/>
        <g class="node" transform="translate(4 184)">
            <ellipse cx="154.39" cy="-162" fill="none" stroke="#000" rx="135.68" ry="18"/>
            <text x="154.39" y="-158.3" font-family="Times,serif" font-size="14" text-anchor="middle">:core:component-controller</text>
        </g>
        <g class="node" transform="translate(4 184)">
            <ellipse cx="75.39" cy="-18" fill="none" stroke="#000" rx="75.29" ry="18"/>
            <text x="75.39" y="-14.3" font-family="Times,serif" font-size="14" text-anchor="middle">:core:common</text>
        </g>
        <g stroke="#000" class="edge">
            <path fill="none" d="M120.51 39.49C105.57 48.08 89.95 60.15 81.39 76c-10.13 18.76-9.92 43.14-7.58 61.64"/>
            <path d="m77.31 137.35-1.93 10.41-4.99-9.34 6.92-1.07z"/>
        </g>
        <g class="node" transform="translate(4 184)">
            <ellipse cx="241.39" cy="-18" fill="none" stroke="#000" rx="64.99" ry="18"/>
            <text x="241.39" y="-14.3" font-family="Times,serif" font-size="14" text-anchor="middle">:core:model</text>
        </g>
        <g stroke="#000" class="edge">
            <path fill="none" d="M194.81 39.41c15.05 8.69 31.16 20.86 40.58 36.59 11.09 18.51 13.1 43.1 12.61 61.74"/>
            <path d="m251.49 138.14-4.02 9.8-2.98-10.16 7 .36z"/>
        </g>
        <g class="node" transform="translate(4 184)">
            <ellipse cx="154.39" cy="-90" fill="none" stroke="#000" rx="67.69" ry="18"/>
            <text x="154.39" y="-86.3" font-family="Times,serif" font-size="14" text-anchor="middle">:core:ifw-api</text>
        </g>
        <g stroke="red" stroke-width="2" class="edge">
            <path fill="none" d="M158.39 40.3v25.59"/>
            <path fill="red" d="m161.89 65.9-3.5 10-3.5-10h7z"/>
        </g>
        <g stroke="red" stroke-width="2" class="edge">
            <path fill="none" d="M139.67 111.59c-10.13 8.98-22.82 20.22-33.93 30.07"/>
            <path fill="red" d="m107.79 144.52-9.81 4.01 5.16-9.25 4.65 5.24z"/>
        </g>
        <g stroke="#000" class="edge">
            <path fill="none" d="M178.57 111.24c11.53 9.27 26.16 21.05 38.8 31.21"/>
            <path d="m219.73 139.86 5.59 8.99-9.98-3.54 4.39-5.45z"/>
        </g>
    </g>
</svg>
