<?xml version="1.0" encoding="UTF-8" standalone="no"?>
<!DOCTYPE svg PUBLIC "-//W3C//DTD SVG 1.1//EN"
 "http://www.w3.org/Graphics/SVG/1.1/DTD/svg11.dtd">
<!-- Generated by graphviz version 2.43.0 (0)
 -->
<!-- Title: G Pages: 1 -->
<svg width="1158pt" height="620pt"
 viewBox="0.00 0.00 1157.74 620.00" xmlns="http://www.w3.org/2000/svg" xmlns:xlink="http://www.w3.org/1999/xlink">
<g id="graph0" class="graph" transform="scale(1 1) rotate(0) translate(4 616)">
<title>G</title>
<polygon fill="white" stroke="transparent" points="-4,4 -4,-616 1153.74,-616 1153.74,4 -4,4"/>
<!-- :feature:appdetail -->
<g id="node1" class="node">
<title>:feature:appdetail</title>
<ellipse fill="none" stroke="black" cx="491" cy="-594" rx="93.68" ry="18"/>
<text text-anchor="middle" x="491" y="-590.3" font-family="Times,serif" font-size="14.00">:feature:appdetail</text>
</g>
<!-- :core:ui -->
<g id="node2" class="node">
<title>:core:ui</title>
<ellipse fill="none" stroke="black" cx="874" cy="-522" rx="45.49" ry="18"/>
<text text-anchor="middle" x="874" y="-518.3" font-family="Times,serif" font-size="14.00">:core:ui</text>
</g>
<!-- :feature:appdetail&#45;&gt;:core:ui -->
<g id="edge1" class="edge">
<title>:feature:appdetail&#45;&gt;:core:ui</title>
<path fill="none" stroke="red" stroke-width="2" d="M556.4,-581.05C632,-567.23 754.79,-544.79 823.44,-532.24"/>
<polygon fill="red" stroke="red" stroke-width="2" points="824.37,-535.63 833.58,-530.39 823.11,-528.74 824.37,-535.63"/>
</g>
<!-- :core:designsystem -->
<g id="node3" class="node">
<title>:core:designsystem</title>
<ellipse fill="none" stroke="black" cx="1049" cy="-450" rx="100.98" ry="18"/>
<text text-anchor="middle" x="1049" y="-446.3" font-family="Times,serif" font-size="14.00">:core:designsystem</text>
</g>
<!-- :feature:appdetail&#45;&gt;:core:designsystem -->
<g id="edge2" class="edge">
<title>:feature:appdetail&#45;&gt;:core:designsystem</title>
<path fill="none" stroke="black" d="M578.7,-587.65C687.55,-580.09 866.37,-564.43 928,-540 965.52,-525.13 1001.89,-495.71 1024.8,-474.77"/>
<polygon fill="black" stroke="black" points="1027.39,-477.14 1032.32,-467.76 1022.62,-472.02 1027.39,-477.14"/>
</g>
<!-- :core:component&#45;controller -->
<g id="node4" class="node">
<title>:core:component&#45;controller</title>
<ellipse fill="none" stroke="black" cx="240" cy="-234" rx="135.68" ry="18"/>
<text text-anchor="middle" x="240" y="-230.3" font-family="Times,serif" font-size="14.00">:core:component&#45;controller</text>
</g>
<!-- :feature:appdetail&#45;&gt;:core:component&#45;controller -->
<g id="edge3" class="edge">
<title>:feature:appdetail&#45;&gt;:core:component&#45;controller</title>
<path fill="none" stroke="black" d="M422.29,-581.63C313.55,-561.65 114,-516.13 114,-451 114,-451 114,-451 114,-377 114,-323.91 163.89,-281.41 200.88,-257.19"/>
<polygon fill="black" stroke="black" points="202.93,-260.04 209.5,-251.72 199.18,-254.13 202.93,-260.04"/>
</g>
<!-- :core:data -->
<g id="node5" class="node">
<title>:core:data</title>
<ellipse fill="none" stroke="black" cx="527" cy="-306" rx="57.39" ry="18"/>
<text text-anchor="middle" x="527" y="-302.3" font-family="Times,serif" font-size="14.00">:core:data</text>
</g>
<!-- :feature:appdetail&#45;&gt;:core:data -->
<g id="edge4" class="edge">
<title>:feature:appdetail&#45;&gt;:core:data</title>
<path fill="none" stroke="black" d="M493.14,-575.97C499.16,-528.19 516.22,-392.62 523.57,-334.27"/>
<polygon fill="black" stroke="black" points="527.05,-334.67 524.82,-324.31 520.1,-333.79 527.05,-334.67"/>
</g>
<!-- :core:domain -->
<g id="node6" class="node">
<title>:core:domain</title>
<ellipse fill="none" stroke="black" cx="340" cy="-450" rx="70.69" ry="18"/>
<text text-anchor="middle" x="340" y="-446.3" font-family="Times,serif" font-size="14.00">:core:domain</text>
</g>
<!-- :feature:appdetail&#45;&gt;:core:domain -->
<g id="edge5" class="edge">
<title>:feature:appdetail&#45;&gt;:core:domain</title>
<path fill="none" stroke="black" d="M473.09,-576.15C446.29,-550.96 395.69,-503.37 365.19,-474.68"/>
<polygon fill="black" stroke="black" points="367.57,-472.13 357.89,-467.82 362.78,-477.23 367.57,-472.13"/>
</g>
<!-- :core:rule -->
<g id="node7" class="node">
<title>:core:rule</title>
<ellipse fill="none" stroke="black" cx="405" cy="-378" rx="55.49" ry="18"/>
<text text-anchor="middle" x="405" y="-374.3" font-family="Times,serif" font-size="14.00">:core:rule</text>
</g>
<!-- :feature:appdetail&#45;&gt;:core:rule -->
<g id="edge6" class="edge">
<title>:feature:appdetail&#45;&gt;:core:rule</title>
<path fill="none" stroke="black" d="M484.11,-575.85C469.13,-538.58 433.53,-450 415.65,-405.49"/>
<polygon fill="black" stroke="black" points="418.78,-403.91 411.81,-395.94 412.29,-406.52 418.78,-403.91"/>
</g>
<!-- :core:ui&#45;&gt;:core:designsystem -->
<g id="edge8" class="edge">
<title>:core:ui&#45;&gt;:core:designsystem</title>
<path fill="none" stroke="black" d="M904.88,-508.65C931.27,-498.09 969.69,-482.72 1000.23,-470.51"/>
<polygon fill="black" stroke="black" points="1001.86,-473.63 1009.84,-466.66 999.26,-467.13 1001.86,-473.63"/>
</g>
<!-- :core:ui&#45;&gt;:core:domain -->
<g id="edge10" class="edge">
<title>:core:ui&#45;&gt;:core:domain</title>
<path fill="none" stroke="red" stroke-width="2" d="M831.2,-515.39C739.76,-503.4 524.51,-475.19 411.75,-460.41"/>
<polygon fill="red" stroke="red" stroke-width="2" points="411.86,-456.89 401.49,-459.06 410.96,-463.83 411.86,-456.89"/>
</g>
<!-- :core:analytics -->
<g id="node8" class="node">
<title>:core:analytics</title>
<ellipse fill="none" stroke="black" cx="874" cy="-234" rx="77.99" ry="18"/>
<text text-anchor="middle" x="874" y="-230.3" font-family="Times,serif" font-size="14.00">:core:analytics</text>
</g>
<!-- :core:ui&#45;&gt;:core:analytics -->
<g id="edge7" class="edge">
<title>:core:ui&#45;&gt;:core:analytics</title>
<path fill="none" stroke="black" d="M874,-503.97C874,-456.29 874,-321.18 874,-262.63"/>
<polygon fill="black" stroke="black" points="877.5,-262.31 874,-252.31 870.5,-262.31 877.5,-262.31"/>
</g>
<!-- :core:model -->
<g id="node9" class="node">
<title>:core:model</title>
<ellipse fill="none" stroke="black" cx="512" cy="-18" rx="64.99" ry="18"/>
<text text-anchor="middle" x="512" y="-14.3" font-family="Times,serif" font-size="14.00">:core:model</text>
</g>
<!-- :core:ui&#45;&gt;:core:model -->
<g id="edge9" class="edge">
<title>:core:ui&#45;&gt;:core:model</title>
<path fill="none" stroke="black" d="M885.86,-504.16C930.06,-439.24 1076.79,-202.26 961,-72 936.55,-44.5 706.97,-28.85 585.92,-22.44"/>
<polygon fill="black" stroke="black" points="585.79,-18.93 575.62,-21.91 585.43,-25.92 585.79,-18.93"/>
</g>
<!-- :core:designsystem&#45;&gt;:core:model -->
<g id="edge11" class="edge">
<title>:core:designsystem&#45;&gt;:core:model</title>
<path fill="none" stroke="black" d="M1045.96,-431.57C1041.58,-404.86 1034,-352.12 1034,-307 1034,-307 1034,-307 1034,-161 1034,-117.63 1029.07,-97.51 994,-72 930.91,-26.1 706.51,-18.88 587.46,-18.39"/>
<polygon fill="black" stroke="black" points="587.33,-14.89 577.32,-18.37 587.31,-21.89 587.33,-14.89"/>
</g>
<!-- :core:component&#45;controller&#45;&gt;:core:model -->
<g id="edge32" class="edge">
<title>:core:component&#45;controller&#45;&gt;:core:model</title>
<path fill="none" stroke="black" d="M233.48,-215.86C227.52,-197.37 221.01,-167.43 231,-144 249.12,-101.49 265.64,-94.49 306,-72 348.47,-48.33 401.73,-34.99 443.46,-27.62"/>
<polygon fill="black" stroke="black" points="444.26,-31.03 453.53,-25.91 443.09,-24.13 444.26,-31.03"/>
</g>
<!-- :core:common -->
<g id="node10" class="node">
<title>:core:common</title>
<ellipse fill="none" stroke="black" cx="390" cy="-90" rx="75.29" ry="18"/>
<text text-anchor="middle" x="390" y="-86.3" font-family="Times,serif" font-size="14.00">:core:common</text>
</g>
<!-- :core:component&#45;controller&#45;&gt;:core:common -->
<g id="edge31" class="edge">
<title>:core:component&#45;controller&#45;&gt;:core:common</title>
<path fill="none" stroke="black" d="M236.29,-215.7C233.17,-196.23 231.39,-164.65 247,-144 263.42,-122.27 289.73,-109.45 315.33,-101.88"/>
<polygon fill="black" stroke="black" points="316.36,-105.23 325.09,-99.23 314.52,-98.48 316.36,-105.23"/>
</g>
<!-- :core:ifw&#45;api -->
<g id="node11" class="node">
<title>:core:ifw&#45;api</title>
<ellipse fill="none" stroke="black" cx="324" cy="-162" rx="67.69" ry="18"/>
<text text-anchor="middle" x="324" y="-158.3" font-family="Times,serif" font-size="14.00">:core:ifw&#45;api</text>
</g>
<!-- :core:component&#45;controller&#45;&gt;:core:ifw&#45;api -->
<g id="edge33" class="edge">
<title>:core:component&#45;controller&#45;&gt;:core:ifw&#45;api</title>
<path fill="none" stroke="red" stroke-width="2" d="M260.33,-216.05C271.22,-206.98 284.79,-195.68 296.59,-185.84"/>
<polygon fill="red" stroke="red" stroke-width="2" points="298.99,-188.4 304.43,-179.31 294.51,-183.02 298.99,-188.4"/>
</g>
<!-- :core:data&#45;&gt;:core:component&#45;controller -->
<g id="edge23" class="edge">
<title>:core:data&#45;&gt;:core:component&#45;controller</title>
<path fill="none" stroke="red" stroke-width="2" d="M483.1,-294.29C437.49,-283.17 365.41,-265.59 311.56,-252.45"/>
<polygon fill="red" stroke="red" stroke-width="2" points="312.27,-249.02 301.72,-250.05 310.61,-255.82 312.27,-249.02"/>
</g>
<!-- :core:data&#45;&gt;:core:analytics -->
<g id="edge22" class="edge">
<title>:core:data&#45;&gt;:core:analytics</title>
<path fill="none" stroke="black" d="M573.8,-295.56C634.01,-283.41 738.99,-262.23 807.49,-248.42"/>
<polygon fill="black" stroke="black" points="808.21,-251.84 817.32,-246.43 806.82,-244.98 808.21,-251.84"/>
</g>
<!-- :core:data&#45;&gt;:core:common -->
<g id="edge18" class="edge">
<title>:core:data&#45;&gt;:core:common</title>
<path fill="none" stroke="black" d="M518.39,-287.98C502.94,-257.96 468.87,-194.06 434,-144 427.37,-134.48 419.45,-124.57 412.16,-115.92"/>
<polygon fill="black" stroke="black" points="414.6,-113.39 405.44,-108.08 409.29,-117.95 414.6,-113.39"/>
</g>
<!-- :core:database -->
<g id="node12" class="node">
<title>:core:database</title>
<ellipse fill="none" stroke="black" cx="873" cy="-90" rx="78.79" ry="18"/>
<text text-anchor="middle" x="873" y="-86.3" font-family="Times,serif" font-size="14.00">:core:database</text>
</g>
<!-- :core:data&#45;&gt;:core:database -->
<g id="edge19" class="edge">
<title>:core:data&#45;&gt;:core:database</title>
<path fill="none" stroke="black" d="M573.88,-295.63C637.47,-280.83 751.55,-246.62 825,-180 843.6,-163.13 856.4,-137.32 864.08,-117.83"/>
<polygon fill="black" stroke="black" points="867.42,-118.89 867.63,-108.3 860.86,-116.45 867.42,-118.89"/>
</g>
<!-- :core:datastore -->
<g id="node13" class="node">
<title>:core:datastore</title>
<ellipse fill="none" stroke="black" cx="735" cy="-162" rx="81.49" ry="18"/>
<text text-anchor="middle" x="735" y="-158.3" font-family="Times,serif" font-size="14.00">:core:datastore</text>
</g>
<!-- :core:data&#45;&gt;:core:datastore -->
<g id="edge20" class="edge">
<title>:core:data&#45;&gt;:core:datastore</title>
<path fill="none" stroke="black" d="M550.05,-289.26C587.26,-263.86 660.64,-213.76 702.93,-184.9"/>
<polygon fill="black" stroke="black" points="704.92,-187.77 711.2,-179.25 700.97,-181.99 704.92,-187.77"/>
</g>
<!-- :core:network -->
<g id="node14" class="node">
<title>:core:network</title>
<ellipse fill="none" stroke="black" cx="561" cy="-162" rx="74.99" ry="18"/>
<text text-anchor="middle" x="561" y="-158.3" font-family="Times,serif" font-size="14.00">:core:network</text>
</g>
<!-- :core:data&#45;&gt;:core:network -->
<g id="edge21" class="edge">
<title>:core:data&#45;&gt;:core:network</title>
<path fill="none" stroke="black" d="M531.1,-287.87C536.92,-263.56 547.63,-218.82 554.53,-190.01"/>
<polygon fill="black" stroke="black" points="557.96,-190.73 556.88,-180.19 551.15,-189.1 557.96,-190.73"/>
</g>
<!-- :core:domain&#45;&gt;:core:component&#45;controller -->
<g id="edge15" class="edge">
<title>:core:domain&#45;&gt;:core:component&#45;controller</title>
<path fill="none" stroke="black" d="M331.99,-431.85C314.58,-394.6 273.21,-306.07 252.4,-261.54"/>
<polygon fill="black" stroke="black" points="255.46,-259.81 248.05,-252.23 249.12,-262.77 255.46,-259.81"/>
</g>
<!-- :core:domain&#45;&gt;:core:data -->
<g id="edge12" class="edge">
<title>:core:domain&#45;&gt;:core:data</title>
<path fill="none" stroke="black" d="M388.45,-436.73C414.39,-428.39 445.69,-415.3 469,-396 489.63,-378.92 505.52,-352.57 515.41,-332.97"/>
<polygon fill="black" stroke="black" points="518.56,-334.49 519.78,-323.96 512.26,-331.44 518.56,-334.49"/>
</g>
<!-- :core:domain&#45;&gt;:core:rule -->
<g id="edge17" class="edge">
<title>:core:domain&#45;&gt;:core:rule</title>
<path fill="none" stroke="red" stroke-width="2" d="M355.4,-432.41C363.58,-423.61 373.77,-412.63 382.79,-402.92"/>
<polygon fill="red" stroke="red" stroke-width="2" points="385.47,-405.18 389.71,-395.47 380.34,-400.42 385.47,-405.18"/>
</g>
<!-- :core:domain&#45;&gt;:core:model -->
<g id="edge13" class="edge">
<title>:core:domain&#45;&gt;:core:model</title>
<path fill="none" stroke="black" d="M269.14,-449.38C169.49,-445.76 0,-422.62 0,-307 0,-307 0,-307 0,-161 0,-70.95 297.8,-35.66 439.16,-23.98"/>
<polygon fill="black" stroke="black" points="439.79,-27.44 449.47,-23.15 439.23,-20.47 439.79,-27.44"/>
</g>
<!-- :core:domain&#45;&gt;:core:common -->
<g id="edge14" class="edge">
<title>:core:domain&#45;&gt;:core:common</title>
<path fill="none" stroke="black" d="M270.72,-446.01C181.55,-438.01 38,-409.26 38,-307 38,-307 38,-307 38,-233 38,-172.26 220.56,-125.36 322.73,-103.87"/>
<polygon fill="black" stroke="black" points="323.58,-107.26 332.66,-101.8 322.16,-100.41 323.58,-107.26"/>
</g>
<!-- :core:domain&#45;&gt;:core:ifw&#45;api -->
<g id="edge16" class="edge">
<title>:core:domain&#45;&gt;:core:ifw&#45;api</title>
<path fill="none" stroke="black" d="M302.05,-434.66C216.41,-400.23 21.21,-308.81 95,-216 114.32,-191.69 191.61,-177.55 251.11,-170.09"/>
<polygon fill="black" stroke="black" points="251.74,-173.54 261.24,-168.86 250.89,-166.59 251.74,-173.54"/>
</g>
<!-- :core:rule&#45;&gt;:core:component&#45;controller -->
<g id="edge36" class="edge">
<title>:core:rule&#45;&gt;:core:component&#45;controller</title>
<path fill="none" stroke="black" d="M386.39,-360.99C357.29,-335.94 300.85,-287.37 267.19,-258.4"/>
<polygon fill="black" stroke="black" points="269.42,-255.7 259.56,-251.83 264.86,-261.01 269.42,-255.7"/>
</g>
<!-- :core:rule&#45;&gt;:core:data -->
<g id="edge37" class="edge">
<title>:core:rule&#45;&gt;:core:data</title>
<path fill="none" stroke="red" stroke-width="2" d="M431.17,-361.98C448.82,-351.86 472.32,-338.37 491.63,-327.29"/>
<polygon fill="red" stroke="red" stroke-width="2" points="493.52,-330.25 500.45,-322.23 490.03,-324.17 493.52,-330.25"/>
</g>
<!-- :core:rule&#45;&gt;:core:common -->
<g id="edge35" class="edge">
<title>:core:rule&#45;&gt;:core:common</title>
<path fill="none" stroke="black" d="M411.49,-360.1C415.08,-349.84 419.17,-336.36 421,-324 432.01,-249.41 410.98,-161.12 398.42,-117.76"/>
<polygon fill="black" stroke="black" points="401.72,-116.57 395.51,-107.98 395.01,-118.56 401.72,-116.57"/>
</g>
<!-- :core:rule&#45;&gt;:core:ifw&#45;api -->
<g id="edge38" class="edge">
<title>:core:rule&#45;&gt;:core:ifw&#45;api</title>
<path fill="none" stroke="black" d="M406.72,-359.83C408.99,-329.04 410.16,-263.23 385,-216 378.6,-203.98 368.28,-193.46 357.94,-185.03"/>
<polygon fill="black" stroke="black" points="359.78,-182.03 349.72,-178.72 355.52,-187.58 359.78,-182.03"/>
</g>
<!-- :core:common&#45;&gt;:core:model -->
<g id="edge24" class="edge">
<title>:core:common&#45;&gt;:core:model</title>
<path fill="none" stroke="red" stroke-width="2" d="M417.68,-73.12C434.96,-63.2 457.39,-50.34 476.03,-39.64"/>
<polygon fill="red" stroke="red" stroke-width="2" points="477.91,-42.59 484.85,-34.58 474.43,-36.52 477.91,-42.59"/>
</g>
<!-- :core:ifw&#45;api&#45;&gt;:core:common -->
<g id="edge34" class="edge">
<title>:core:ifw&#45;api&#45;&gt;:core:common</title>
<path fill="none" stroke="red" stroke-width="2" d="M339.64,-144.41C347.82,-135.73 357.99,-124.95 367.05,-115.34"/>
<polygon fill="red" stroke="red" stroke-width="2" points="369.7,-117.63 374.01,-107.96 364.61,-112.83 369.7,-117.63"/>
</g>
<!-- :core:database&#45;&gt;:core:model -->
<g id="edge25" class="edge">
<title>:core:database&#45;&gt;:core:model</title>
<path fill="none" stroke="black" d="M814.97,-77.65C805.3,-75.76 795.37,-73.82 786,-72 713.13,-57.83 629.34,-41.64 573.8,-30.92"/>
<polygon fill="black" stroke="black" points="574.25,-27.44 563.77,-28.98 572.92,-34.32 574.25,-27.44"/>
</g>
<!-- :core:datastore&#45;&gt;:core:model -->
<g id="edge27" class="edge">
<title>:core:datastore&#45;&gt;:core:model</title>
<path fill="none" stroke="black" d="M675.31,-149.69C628.67,-139.83 568.72,-124.53 550,-108 531.85,-91.98 522.09,-65.79 517.03,-45.96"/>
<polygon fill="black" stroke="black" points="520.39,-44.95 514.73,-35.98 513.57,-46.51 520.39,-44.95"/>
</g>
<!-- :core:datastore&#45;&gt;:core:common -->
<g id="edge28" class="edge">
<title>:core:datastore&#45;&gt;:core:common</title>
<path fill="none" stroke="black" d="M677.25,-149.28C615.98,-136.85 519.36,-117.25 455.35,-104.26"/>
<polygon fill="black" stroke="black" points="455.86,-100.79 445.36,-102.23 454.47,-107.65 455.86,-100.79"/>
</g>
<!-- :core:datastore&#45;proto -->
<g id="node15" class="node">
<title>:core:datastore&#45;proto</title>
<ellipse fill="none" stroke="black" cx="668" cy="-90" rx="108.58" ry="18"/>
<text text-anchor="middle" x="668" y="-86.3" font-family="Times,serif" font-size="14.00">:core:datastore&#45;proto</text>
</g>
<!-- :core:datastore&#45;&gt;:core:datastore&#45;proto -->
<g id="edge26" class="edge">
<title>:core:datastore&#45;&gt;:core:datastore&#45;proto</title>
<path fill="none" stroke="black" d="M718.78,-144.05C710.59,-135.5 700.5,-124.96 691.48,-115.54"/>
<polygon fill="black" stroke="black" points="693.98,-113.08 684.53,-108.28 688.92,-117.92 693.98,-113.08"/>
</g>
<!-- :core:network&#45;&gt;:core:model -->
<g id="edge30" class="edge">
<title>:core:network&#45;&gt;:core:model</title>
<path fill="none" stroke="black" d="M542.3,-144.27C532.92,-134.67 522.42,-121.8 517,-108 509.28,-88.35 508.36,-64.36 509.2,-46.24"/>
<polygon fill="black" stroke="black" points="512.7,-46.28 509.88,-36.07 505.72,-45.82 512.7,-46.28"/>
</g>
<!-- :core:network&#45;&gt;:core:common -->
<g id="edge29" class="edge">
<title>:core:network&#45;&gt;:core:common</title>
<path fill="none" stroke="black" d="M524.74,-146.15C498.78,-135.53 463.63,-121.14 435.75,-109.73"/>
<polygon fill="black" stroke="black" points="436.79,-106.37 426.21,-105.82 434.14,-112.85 436.79,-106.37"/>
</g>
</g>
</svg>
