<?xml version="1.0" encoding="UTF-8" standalone="no"?>
<!DOCTYPE svg PUBLIC "-//W3C//DTD SVG 1.1//EN"
 "http://www.w3.org/Graphics/SVG/1.1/DTD/svg11.dtd">
<!-- Generated by graphviz version 2.43.0 (0)
 -->
<!-- Title: G Pages: 1 -->
<svg width="1182pt" height="548pt"
 viewBox="0.00 0.00 1181.74 548.00" xmlns="http://www.w3.org/2000/svg" xmlns:xlink="http://www.w3.org/1999/xlink">
<g id="graph0" class="graph" transform="scale(1 1) rotate(0) translate(4 544)">
<title>G</title>
<polygon fill="white" stroke="transparent" points="-4,4 -4,-544 1177.74,-544 1177.74,4 -4,4"/>
<!-- :feature:generalrule -->
<g id="node1" class="node">
<title>:feature:generalrule</title>
<ellipse fill="none" stroke="black" cx="366.74" cy="-522" rx="103.98" ry="18"/>
<text text-anchor="middle" x="366.74" y="-518.3" font-family="Times,serif" font-size="14.00">:feature:generalrule</text>
</g>
<!-- :core:ui -->
<g id="node2" class="node">
<title>:core:ui</title>
<ellipse fill="none" stroke="black" cx="330.74" cy="-450" rx="45.49" ry="18"/>
<text text-anchor="middle" x="330.74" y="-446.3" font-family="Times,serif" font-size="14.00">:core:ui</text>
</g>
<!-- :feature:generalrule&#45;&gt;:core:ui -->
<g id="edge1" class="edge">
<title>:feature:generalrule&#45;&gt;:core:ui</title>
<path fill="none" stroke="red" stroke-width="2" d="M358.03,-504.05C353.83,-495.89 348.7,-485.91 344.02,-476.82"/>
<polygon fill="red" stroke="red" stroke-width="2" points="347.06,-475.08 339.38,-467.79 340.84,-478.28 347.06,-475.08"/>
</g>
<!-- :core:designsystem -->
<g id="node3" class="node">
<title>:core:designsystem</title>
<ellipse fill="none" stroke="black" cx="100.74" cy="-378" rx="100.98" ry="18"/>
<text text-anchor="middle" x="100.74" y="-374.3" font-family="Times,serif" font-size="14.00">:core:designsystem</text>
</g>
<!-- :feature:generalrule&#45;&gt;:core:designsystem -->
<g id="edge2" class="edge">
<title>:feature:generalrule&#45;&gt;:core:designsystem</title>
<path fill="none" stroke="black" d="M336.23,-504.71C287.85,-478.89 193.58,-428.56 140.15,-400.04"/>
<polygon fill="black" stroke="black" points="141.78,-396.94 131.31,-395.32 138.48,-403.11 141.78,-396.94"/>
</g>
<!-- :core:data -->
<g id="node4" class="node">
<title>:core:data</title>
<ellipse fill="none" stroke="black" cx="693.74" cy="-234" rx="57.39" ry="18"/>
<text text-anchor="middle" x="693.74" y="-230.3" font-family="Times,serif" font-size="14.00">:core:data</text>
</g>
<!-- :feature:generalrule&#45;&gt;:core:data -->
<g id="edge3" class="edge">
<title>:feature:generalrule&#45;&gt;:core:data</title>
<path fill="none" stroke="black" d="M386.22,-503.97C442.26,-454.95 603.94,-313.54 667.57,-257.89"/>
<polygon fill="black" stroke="black" points="669.96,-260.45 675.18,-251.23 665.35,-255.18 669.96,-260.45"/>
</g>
<!-- :core:domain -->
<g id="node5" class="node">
<title>:core:domain</title>
<ellipse fill="none" stroke="black" cx="764.74" cy="-378" rx="70.69" ry="18"/>
<text text-anchor="middle" x="764.74" y="-374.3" font-family="Times,serif" font-size="14.00">:core:domain</text>
</g>
<!-- :feature:generalrule&#45;&gt;:core:domain -->
<g id="edge4" class="edge">
<title>:feature:generalrule&#45;&gt;:core:domain</title>
<path fill="none" stroke="black" d="M410.09,-505.53C484.77,-478.89 637.18,-424.51 715.65,-396.52"/>
<polygon fill="black" stroke="black" points="717.06,-399.73 725.3,-393.07 714.7,-393.14 717.06,-399.73"/>
</g>
<!-- :core:ui&#45;&gt;:core:designsystem -->
<g id="edge6" class="edge">
<title>:core:ui&#45;&gt;:core:designsystem</title>
<path fill="none" stroke="black" d="M295.81,-438.37C259.67,-427.37 202.58,-409.99 159.48,-396.88"/>
<polygon fill="black" stroke="black" points="160.27,-393.46 149.68,-393.89 158.23,-400.15 160.27,-393.46"/>
</g>
<!-- :core:ui&#45;&gt;:core:domain -->
<g id="edge8" class="edge">
<title>:core:ui&#45;&gt;:core:domain</title>
<path fill="none" stroke="red" stroke-width="2" d="M371.96,-442.35C446.81,-430.28 605.72,-404.65 696.81,-389.96"/>
<polygon fill="red" stroke="red" stroke-width="2" points="697.45,-393.4 706.76,-388.35 696.33,-386.49 697.45,-393.4"/>
</g>
<!-- :core:analytics -->
<g id="node6" class="node">
<title>:core:analytics</title>
<ellipse fill="none" stroke="black" cx="335.74" cy="-162" rx="77.99" ry="18"/>
<text text-anchor="middle" x="335.74" y="-158.3" font-family="Times,serif" font-size="14.00">:core:analytics</text>
</g>
<!-- :core:ui&#45;&gt;:core:analytics -->
<g id="edge5" class="edge">
<title>:core:ui&#45;&gt;:core:analytics</title>
<path fill="none" stroke="black" d="M331.04,-431.97C331.87,-384.29 334.23,-249.18 335.26,-190.63"/>
<polygon fill="black" stroke="black" points="338.76,-190.37 335.44,-180.31 331.76,-190.24 338.76,-190.37"/>
</g>
<!-- :core:model -->
<g id="node7" class="node">
<title>:core:model</title>
<ellipse fill="none" stroke="black" cx="481.74" cy="-18" rx="64.99" ry="18"/>
<text text-anchor="middle" x="481.74" y="-14.3" font-family="Times,serif" font-size="14.00">:core:model</text>
</g>
<!-- :core:ui&#45;&gt;:core:model -->
<g id="edge7" class="edge">
<title>:core:ui&#45;&gt;:core:model</title>
<path fill="none" stroke="black" d="M309.81,-433.68C280.23,-410.07 229.74,-361.76 229.74,-307 229.74,-307 229.74,-307 229.74,-161 229.74,-76.59 338.39,-41.81 413.01,-27.87"/>
<polygon fill="black" stroke="black" points="414.06,-31.24 423.29,-26.04 412.84,-24.35 414.06,-31.24"/>
</g>
<!-- :core:data&#45;&gt;:core:analytics -->
<g id="edge19" class="edge">
<title>:core:data&#45;&gt;:core:analytics</title>
<path fill="none" stroke="black" d="M646.57,-223.78C584.32,-211.6 474.33,-190.1 403.27,-176.2"/>
<polygon fill="black" stroke="black" points="403.57,-172.7 393.08,-174.21 402.22,-179.57 403.57,-172.7"/>
</g>
<!-- :core:common -->
<g id="node8" class="node">
<title>:core:common</title>
<ellipse fill="none" stroke="black" cx="932.74" cy="-18" rx="75.29" ry="18"/>
<text text-anchor="middle" x="932.74" y="-14.3" font-family="Times,serif" font-size="14.00">:core:common</text>
</g>
<!-- :core:data&#45;&gt;:core:common -->
<g id="edge15" class="edge">
<title>:core:data&#45;&gt;:core:common</title>
<path fill="none" stroke="black" d="M700.64,-215.88C709.47,-195.98 726.56,-163.42 750.74,-144 786.92,-114.95 810.01,-133.55 848.74,-108 874.97,-90.7 898.92,-63.69 914.48,-43.96"/>
<polygon fill="black" stroke="black" points="917.28,-46.06 920.62,-36 911.74,-41.78 917.28,-46.06"/>
</g>
<!-- :core:component&#45;controller -->
<g id="node9" class="node">
<title>:core:component&#45;controller</title>
<ellipse fill="none" stroke="black" cx="895.74" cy="-162" rx="135.68" ry="18"/>
<text text-anchor="middle" x="895.74" y="-158.3" font-family="Times,serif" font-size="14.00">:core:component&#45;controller</text>
</g>
<!-- :core:data&#45;&gt;:core:component&#45;controller -->
<g id="edge20" class="edge">
<title>:core:data&#45;&gt;:core:component&#45;controller</title>
<path fill="none" stroke="red" stroke-width="2" d="M730.79,-220.16C761.4,-209.55 805.32,-194.33 840.14,-182.27"/>
<polygon fill="red" stroke="red" stroke-width="2" points="841.4,-185.53 849.71,-178.95 839.11,-178.92 841.4,-185.53"/>
</g>
<!-- :core:database -->
<g id="node12" class="node">
<title>:core:database</title>
<ellipse fill="none" stroke="black" cx="548.74" cy="-162" rx="78.79" ry="18"/>
<text text-anchor="middle" x="548.74" y="-158.3" font-family="Times,serif" font-size="14.00">:core:database</text>
</g>
<!-- :core:data&#45;&gt;:core:database -->
<g id="edge16" class="edge">
<title>:core:data&#45;&gt;:core:database</title>
<path fill="none" stroke="black" d="M663.7,-218.5C642.31,-208.17 613.32,-194.18 589.8,-182.82"/>
<polygon fill="black" stroke="black" points="591.29,-179.65 580.76,-178.46 588.24,-185.96 591.29,-179.65"/>
</g>
<!-- :core:datastore -->
<g id="node13" class="node">
<title>:core:datastore</title>
<ellipse fill="none" stroke="black" cx="758.74" cy="-90" rx="81.49" ry="18"/>
<text text-anchor="middle" x="758.74" y="-86.3" font-family="Times,serif" font-size="14.00">:core:datastore</text>
</g>
<!-- :core:data&#45;&gt;:core:datastore -->
<g id="edge17" class="edge">
<title>:core:data&#45;&gt;:core:datastore</title>
<path fill="none" stroke="black" d="M696.29,-215.89C699.5,-197.42 706.07,-167.51 717.74,-144 722.63,-134.15 729.5,-124.35 736.21,-115.91"/>
<polygon fill="black" stroke="black" points="739.11,-117.9 742.8,-107.96 733.73,-113.43 739.11,-117.9"/>
</g>
<!-- :core:network -->
<g id="node14" class="node">
<title>:core:network</title>
<ellipse fill="none" stroke="black" cx="584.74" cy="-90" rx="74.99" ry="18"/>
<text text-anchor="middle" x="584.74" y="-86.3" font-family="Times,serif" font-size="14.00">:core:network</text>
</g>
<!-- :core:data&#45;&gt;:core:network -->
<g id="edge18" class="edge">
<title>:core:data&#45;&gt;:core:network</title>
<path fill="none" stroke="black" d="M684.41,-216.23C673.83,-197.81 655.61,-167.68 636.74,-144 628.71,-133.92 619.02,-123.63 610.19,-114.83"/>
<polygon fill="black" stroke="black" points="612.63,-112.31 603.03,-107.82 607.73,-117.32 612.63,-112.31"/>
</g>
<!-- :core:domain&#45;&gt;:core:data -->
<g id="edge9" class="edge">
<title>:core:domain&#45;&gt;:core:data</title>
<path fill="none" stroke="black" d="M756.18,-359.87C743.92,-335.35 721.26,-290.03 706.87,-261.26"/>
<polygon fill="black" stroke="black" points="709.94,-259.57 702.34,-252.19 703.68,-262.7 709.94,-259.57"/>
</g>
<!-- :core:domain&#45;&gt;:core:model -->
<g id="edge10" class="edge">
<title>:core:domain&#45;&gt;:core:model</title>
<path fill="none" stroke="black" d="M721.55,-363.65C652.19,-339.61 517.95,-281.85 460.74,-180 437.23,-138.14 448.98,-119.01 458.74,-72 460.62,-62.96 464.12,-53.58 467.83,-45.26"/>
<polygon fill="black" stroke="black" points="471.06,-46.61 472.2,-36.07 464.74,-43.6 471.06,-46.61"/>
</g>
<!-- :core:domain&#45;&gt;:core:common -->
<g id="edge11" class="edge">
<title>:core:domain&#45;&gt;:core:common</title>
<path fill="none" stroke="black" d="M825.97,-368.74C940.07,-351.64 1173.74,-307.72 1173.74,-235 1173.74,-235 1173.74,-235 1173.74,-161 1173.74,-81.8 1075.94,-45.88 1004.95,-30.24"/>
<polygon fill="black" stroke="black" points="1005.63,-26.81 995.12,-28.17 1004.18,-33.66 1005.63,-26.81"/>
</g>
<!-- :core:domain&#45;&gt;:core:component&#45;controller -->
<g id="edge12" class="edge">
<title>:core:domain&#45;&gt;:core:component&#45;controller</title>
<path fill="none" stroke="black" d="M775.24,-359.85C798.14,-322.44 852.69,-233.32 879.84,-188.98"/>
<polygon fill="black" stroke="black" points="882.96,-190.59 885.19,-180.23 876.99,-186.93 882.96,-190.59"/>
</g>
<!-- :core:ifw&#45;api -->
<g id="node10" class="node">
<title>:core:ifw&#45;api</title>
<ellipse fill="none" stroke="black" cx="1001.74" cy="-90" rx="67.69" ry="18"/>
<text text-anchor="middle" x="1001.74" y="-86.3" font-family="Times,serif" font-size="14.00">:core:ifw&#45;api</text>
</g>
<!-- :core:domain&#45;&gt;:core:ifw&#45;api -->
<g id="edge13" class="edge">
<title>:core:domain&#45;&gt;:core:ifw&#45;api</title>
<path fill="none" stroke="black" d="M828.89,-370.35C869.24,-363.69 920.84,-350.4 959.74,-324 1023.59,-280.66 1036.22,-254.39 1056.74,-180 1061,-164.58 1063,-158.72 1056.74,-144 1051.76,-132.27 1042.76,-121.88 1033.48,-113.48"/>
<polygon fill="black" stroke="black" points="1035.58,-110.68 1025.68,-106.9 1031.07,-116.02 1035.58,-110.68"/>
</g>
<!-- :core:rule -->
<g id="node11" class="node">
<title>:core:rule</title>
<ellipse fill="none" stroke="black" cx="895.74" cy="-306" rx="55.49" ry="18"/>
<text text-anchor="middle" x="895.74" y="-302.3" font-family="Times,serif" font-size="14.00">:core:rule</text>
</g>
<!-- :core:domain&#45;&gt;:core:rule -->
<g id="edge14" class="edge">
<title>:core:domain&#45;&gt;:core:rule</title>
<path fill="none" stroke="red" stroke-width="2" d="M793.81,-361.46C813.03,-351.2 838.38,-337.65 859,-326.63"/>
<polygon fill="red" stroke="red" stroke-width="2" points="860.92,-329.57 868.09,-321.77 857.63,-323.4 860.92,-329.57"/>
</g>
<!-- :core:component&#45;controller&#45;&gt;:core:model -->
<g id="edge28" class="edge">
<title>:core:component&#45;controller&#45;&gt;:core:model</title>
<path fill="none" stroke="black" d="M781.11,-152.32C671.91,-142.98 521.16,-126.91 500.74,-108 484.03,-92.53 480.12,-66.28 479.88,-46.28"/>
<polygon fill="black" stroke="black" points="483.38,-46.27 480.06,-36.21 476.38,-46.14 483.38,-46.27"/>
</g>
<!-- :core:component&#45;controller&#45;&gt;:core:common -->
<g id="edge27" class="edge">
<title>:core:component&#45;controller&#45;&gt;:core:common</title>
<path fill="none" stroke="black" d="M900.2,-143.87C906.54,-119.56 918.2,-74.82 925.7,-46.01"/>
<polygon fill="black" stroke="black" points="929.13,-46.75 928.26,-36.19 922.35,-44.98 929.13,-46.75"/>
</g>
<!-- :core:component&#45;controller&#45;&gt;:core:ifw&#45;api -->
<g id="edge29" class="edge">
<title>:core:component&#45;controller&#45;&gt;:core:ifw&#45;api</title>
<path fill="none" stroke="red" stroke-width="2" d="M921.13,-144.23C935.47,-134.77 953.54,-122.83 968.94,-112.66"/>
<polygon fill="red" stroke="red" stroke-width="2" points="971.23,-115.34 977.65,-106.91 967.38,-109.5 971.23,-115.34"/>
</g>
<!-- :core:ifw&#45;api&#45;&gt;:core:model -->
<g id="edge31" class="edge">
<title>:core:ifw&#45;api&#45;&gt;:core:model</title>
<path fill="none" stroke="black" d="M942.85,-81.07C845.45,-67.96 651.4,-41.84 548.85,-28.03"/>
<polygon fill="black" stroke="black" points="549.29,-24.56 538.91,-26.7 548.36,-31.5 549.29,-24.56"/>
</g>
<!-- :core:ifw&#45;api&#45;&gt;:core:common -->
<g id="edge30" class="edge">
<title>:core:ifw&#45;api&#45;&gt;:core:common</title>
<path fill="none" stroke="red" stroke-width="2" d="M985.39,-72.41C976.84,-63.73 966.2,-52.95 956.74,-43.34"/>
<polygon fill="red" stroke="red" stroke-width="2" points="958.97,-40.62 949.46,-35.96 953.98,-45.54 958.97,-40.62"/>
</g>
<!-- :core:rule&#45;&gt;:core:data -->
<g id="edge34" class="edge">
<title>:core:rule&#45;&gt;:core:data</title>
<path fill="none" stroke="red" stroke-width="2" d="M859.16,-292.32C825.91,-280.8 776.66,-263.73 740.55,-251.22"/>
<polygon fill="red" stroke="red" stroke-width="2" points="741.33,-247.79 730.73,-247.82 739.03,-254.4 741.33,-247.79"/>
</g>
<!-- :core:rule&#45;&gt;:core:common -->
<g id="edge32" class="edge">
<title>:core:rule&#45;&gt;:core:common</title>
<path fill="none" stroke="black" d="M936.11,-293.71C960.68,-285.29 991.51,-271.78 1013.74,-252 1066.19,-205.32 1068.37,-177.45 1078.74,-108 1081.1,-92.18 1087.92,-85.1 1078.74,-72 1062.82,-49.29 1036.13,-36.27 1009.88,-28.82"/>
<polygon fill="black" stroke="black" points="1010.43,-25.35 999.87,-26.23 1008.67,-32.13 1010.43,-25.35"/>
</g>
<!-- :core:rule&#45;&gt;:core:component&#45;controller -->
<g id="edge33" class="edge">
<title>:core:rule&#45;&gt;:core:component&#45;controller</title>
<path fill="none" stroke="black" d="M895.74,-287.87C895.74,-263.67 895.74,-219.21 895.74,-190.39"/>
<polygon fill="black" stroke="black" points="899.24,-190.19 895.74,-180.19 892.24,-190.19 899.24,-190.19"/>
</g>
<!-- :core:rule&#45;&gt;:core:ifw&#45;api -->
<g id="edge35" class="edge">
<title>:core:rule&#45;&gt;:core:ifw&#45;api</title>
<path fill="none" stroke="black" d="M924.33,-290.41C959.32,-270.76 1016.86,-232.12 1040.74,-180 1047.41,-165.45 1045.73,-159.2 1040.74,-144 1037.37,-133.74 1031.18,-123.84 1024.7,-115.42"/>
<polygon fill="black" stroke="black" points="1027.28,-113.04 1018.22,-107.54 1021.87,-117.49 1027.28,-113.04"/>
</g>
<!-- :core:database&#45;&gt;:core:model -->
<g id="edge21" class="edge">
<title>:core:database&#45;&gt;:core:model</title>
<path fill="none" stroke="black" d="M510.88,-146.17C494.51,-137.64 477.01,-125.15 467.74,-108 457.34,-88.76 462.48,-63.97 469.29,-45.45"/>
<polygon fill="black" stroke="black" points="472.55,-46.72 473.04,-36.14 466.06,-44.1 472.55,-46.72"/>
</g>
<!-- :core:datastore&#45;&gt;:core:model -->
<g id="edge23" class="edge">
<title>:core:datastore&#45;&gt;:core:model</title>
<path fill="none" stroke="black" d="M707.29,-76C659.28,-63.86 587.8,-45.8 538.23,-33.27"/>
<polygon fill="black" stroke="black" points="538.86,-29.83 528.31,-30.77 537.15,-36.61 538.86,-29.83"/>
</g>
<!-- :core:datastore&#45;&gt;:core:common -->
<g id="edge24" class="edge">
<title>:core:datastore&#45;&gt;:core:common</title>
<path fill="none" stroke="black" d="M796.07,-73.98C822.62,-63.3 858.47,-48.88 886.78,-37.49"/>
<polygon fill="black" stroke="black" points="888.1,-40.73 896.07,-33.75 885.49,-34.24 888.1,-40.73"/>
</g>
<!-- :core:datastore&#45;proto -->
<g id="node15" class="node">
<title>:core:datastore&#45;proto</title>
<ellipse fill="none" stroke="black" cx="730.74" cy="-18" rx="108.58" ry="18"/>
<text text-anchor="middle" x="730.74" y="-14.3" font-family="Times,serif" font-size="14.00">:core:datastore&#45;proto</text>
</g>
<!-- :core:datastore&#45;&gt;:core:datastore&#45;proto -->
<g id="edge22" class="edge">
<title>:core:datastore&#45;&gt;:core:datastore&#45;proto</title>
<path fill="none" stroke="black" d="M751.96,-72.05C748.81,-64.18 744.99,-54.62 741.46,-45.79"/>
<polygon fill="black" stroke="black" points="744.61,-44.26 737.65,-36.28 738.12,-46.86 744.61,-44.26"/>
</g>
<!-- :core:network&#45;&gt;:core:model -->
<g id="edge26" class="edge">
<title>:core:network&#45;&gt;:core:model</title>
<path fill="none" stroke="black" d="M560.85,-72.76C546.84,-63.24 528.96,-51.09 513.75,-40.75"/>
<polygon fill="black" stroke="black" points="515.38,-37.63 505.15,-34.91 511.45,-43.42 515.38,-37.63"/>
</g>
<!-- :core:network&#45;&gt;:core:common -->
<g id="edge25" class="edge">
<title>:core:network&#45;&gt;:core:common</title>
<path fill="none" stroke="black" d="M639.86,-77.83C649.49,-75.88 659.41,-73.88 668.74,-72 748.72,-55.91 768.76,-52.09 848.74,-36 854.77,-34.79 861.05,-33.52 867.33,-32.25"/>
<polygon fill="black" stroke="black" points="868.06,-35.68 877.17,-30.27 866.67,-28.82 868.06,-35.68"/>
</g>
</g>
</svg>
