<svg xmlns="http://www.w3.org/2000/svg" width="799pt" height="332pt" viewBox="0 0 799.41 332">
    <g class="graph">
        <path fill="#fff" stroke="transparent" d="M0 332V0h799.41v332H0z"/>
        <g class="node" transform="translate(4 328)">
            <ellipse cx="88.77" cy="-306" fill="none" stroke="#000" rx="55.49" ry="18"/>
            <text x="88.77" y="-302.3" font-family="Times,serif" font-size="14" text-anchor="middle">:core:rule</text>
        </g>
        <g class="node" transform="translate(4 328)">
            <ellipse cx="262.77" cy="-18" fill="none" stroke="#000" rx="75.29" ry="18"/>
            <text x="262.77" y="-14.3" font-family="Times,serif" font-size="14" text-anchor="middle">:core:common</text>
        </g>
        <g stroke="#000" class="edge">
            <path fill="none" d="M64.84 37.65C50.44 46.71 34.01 59.73 24.77 76c-23.79 41.88-26.63 63.18-9 108 27.49 69.88 112.97 100.93 176.59 114.57"/>
            <path d="m193.27 295.19 9.1 5.43-10.5 1.43 1.4-6.86z"/>
        </g>
        <g class="node" transform="translate(4 328)">
            <ellipse cx="170.77" cy="-162" fill="none" stroke="#000" rx="135.68" ry="18"/>
            <text x="170.77" y="-158.3" font-family="Times,serif" font-size="14" text-anchor="middle">:core:component-controller</text>
        </g>
        <g stroke="#000" class="edge">
            <path fill="none" d="M102.5 39.85c14.16 24.52 40.59 70.28 57.26 99.15"/>
            <path d="m162.83 137.32 1.97 10.41-8.03-6.91 6.06-3.5z"/>
        </g>
        <g class="node" transform="translate(4 328)">
            <ellipse cx="440.77" cy="-234" fill="none" stroke="#000" rx="57.39" ry="18"/>
            <text x="440.77" y="-230.3" font-family="Times,serif" font-size="14" text-anchor="middle">:core:data</text>
        </g>
        <g stroke="red" stroke-width="2" class="edge">
            <path fill="none" d="M138.79 32.15c64.03 12.73 179.93 35.78 249.23 49.57"/>
            <path fill="red" d="m388.78 78.3 9.12 5.38-10.49 1.48 1.37-6.86z"/>
        </g>
        <g class="node" transform="translate(4 328)">
            <ellipse cx="155.77" cy="-90" fill="none" stroke="#000" rx="67.69" ry="18"/>
            <text x="155.77" y="-86.3" font-family="Times,serif" font-size="14" text-anchor="middle">:core:ifw-api</text>
        </g>
        <g stroke="#000" class="edge">
            <path fill="none" d="M76.46 39.67C48.6 70.22-2.21 136.42 29.77 184c14.28 21.24 38.73 33.98 62.59 41.61"/>
            <path d="m93.55 222.31 8.62 6.17-10.59.55 1.97-6.72z"/>
        </g>
        <g stroke="#000" class="edge">
            <path fill="none" d="M200.31 183.83c12.49 9.36 26.87 21.97 36.46 36.17 12.65 18.72 20.4 43.25 24.84 61.82"/>
            <path d="m265.06 281.19-1.25 10.52-5.59-9.01 6.84-1.51z"/>
        </g>
        <g stroke="red" stroke-width="2" class="edge">
            <path fill="none" d="M171.06 184.3c-1.65 7.72-3.64 16.99-5.48 25.59"/>
            <path fill="red" d="m168.95 210.85-5.51 9.05-1.33-10.52 6.84 1.47z"/>
        </g>
        <g class="node" transform="translate(4 328)">
            <ellipse cx="421.77" cy="-18" fill="none" stroke="#000" rx="64.99" ry="18"/>
            <text x="421.77" y="-14.3" font-family="Times,serif" font-size="14" text-anchor="middle">:core:model</text>
        </g>
        <g stroke="#000" class="edge">
            <path fill="none" d="M204.55 183.85c46.21 26.14 135.05 76.4 184.94 104.62"/>
            <path d="m391.35 285.51 6.98 7.97-10.43-1.88 3.45-6.09z"/>
        </g>
        <g stroke="#000" class="edge">
            <path fill="none" d="M413.5 109.09c-17.89 9.19-39.86 22.52-55.73 38.91-38.92 40.21-67.02 100.3-81 134.56"/>
            <path d="m280 283.91-6.95 7.99.45-10.58 6.5 2.59z"/>
        </g>
        <g stroke="red" stroke-width="2" class="edge">
            <path fill="none" d="M401.99 106.09c-42.52 11.02-108.41 28.11-158.31 41.05"/>
            <path fill="red" d="m244.48 150.54-10.56-.88 8.8-5.89 1.76 6.77z"/>
        </g>
        <g class="node" transform="translate(4 328)">
            <ellipse cx="712.77" cy="-162" fill="none" stroke="#000" rx="78.79" ry="18"/>
            <text x="712.77" y="-158.3" font-family="Times,serif" font-size="14" text-anchor="middle">:core:database</text>
        </g>
        <g stroke="#000" class="edge">
            <path fill="none" d="M487.57 106.01c45.44 11.7 117.64 30.28 168.85 43.46"/>
            <path d="m657.55 146.15 8.81 5.88-10.55.89 1.74-6.77z"/>
        </g>
        <g class="node" transform="translate(4 328)">
            <ellipse cx="604.77" cy="-90" fill="none" stroke="#000" rx="81.49" ry="18"/>
            <text x="604.77" y="-86.3" font-family="Times,serif" font-size="14" text-anchor="middle">:core:datastore</text>
        </g>
        <g stroke="#000" class="edge">
            <path fill="none" d="M480.33 108.11c21.17 9 47.68 22.47 67.44 39.89 20.29 17.89 37.09 43.9 47.89 63.19"/>
            <path d="m598.78 209.6 1.69 10.46-7.84-7.12 6.15-3.34z"/>
        </g>
        <g class="node" transform="translate(4 328)">
            <ellipse cx="430.77" cy="-90" fill="none" stroke="#000" rx="74.99" ry="18"/>
            <text x="430.77" y="-86.3" font-family="Times,serif" font-size="14" text-anchor="middle">:core:network</text>
        </g>
        <g stroke="#000" class="edge">
            <path fill="none" d="M482.19 107.69c18.43 8.37 38.93 21.34 49.58 40.31 7.84 13.95 8.16 22.24 0 36-9.46 15.95-25.59 27.4-42.01 35.49"/>
            <path d="m491.19 222.68-10.55.96 7.65-7.33 2.9 6.37z"/>
        </g>
        <g class="node" transform="translate(4 328)">
            <ellipse cx="440.77" cy="-162" fill="none" stroke="#000" rx="77.99" ry="18"/>
            <text x="440.77" y="-158.3" font-family="Times,serif" font-size="14" text-anchor="middle">:core:analytics</text>
        </g>
        <g stroke="#000" class="edge">
            <path fill="none" d="M444.77 112.3v25.59"/>
            <path d="m448.27 137.9-3.5 10-3.5-10h7z"/>
        </g>
        <g stroke="red" stroke-width="2" class="edge">
            <path fill="none" d="M184.05 254.88c14.67 9.6 33.57 21.97 49.6 32.45"/>
            <path fill="red" d="m235.77 284.53 6.45 8.41-10.29-2.55 3.84-5.86z"/>
        </g>
        <g stroke="#000" class="edge">
            <path fill="none" d="M206.11 251.19c45.81 12.06 115.93 30.51 164.57 43.31"/>
            <path d="m371.63 291.13 8.78 5.93-10.56.84 1.78-6.77z"/>
        </g>
        <g stroke="#000" class="edge">
            <path fill="none" d="M718.52 184.03c1.05 20.12-.6 53.22-19.75 71.97-64.2 62.9-110.95 17.93-199 36-5.32 1.09-10.86 2.28-16.39 3.49"/>
            <path d="m483.99 298.94-10.52-1.24 9-5.59 1.52 6.83z"/>
        </g>
        <g stroke="#000" class="edge">
            <path fill="none" d="M551.14 250.8c-60.62 12.4-155.85 31.89-219.18 44.86"/>
            <path d="m332.58 299.1-10.5-1.42 9.1-5.44 1.4 6.86z"/>
        </g>
        <g stroke="#000" class="edge">
            <path fill="none" d="M569.96 253.85c-28.68 10.97-67.85 25.95-98.12 37.53"/>
            <path d="m472.93 294.71-10.59.3 8.09-6.84 2.5 6.54z"/>
        </g>
        <g class="node" transform="translate(4 328)">
            <ellipse cx="613.77" cy="-18" fill="none" stroke="#000" rx="108.58" ry="18"/>
            <text x="613.77" y="-14.3" font-family="Times,serif" font-size="14" text-anchor="middle">:core:datastore-proto</text>
        </g>
        <g stroke="#000" class="edge">
            <path fill="none" d="M611 256.3c.99 7.72 2.18 16.99 3.29 25.59"/>
            <path d="m617.77 281.53-2.2 10.37-4.74-9.48 6.94-.89z"/>
        </g>
        <g stroke="#000" class="edge">
            <path fill="none" d="M399.14 253.85c-25.41 10.59-59.79 24.91-87.15 36.31"/>
            <path d="m313.22 293.44-10.58.62 7.88-7.08 2.7 6.46z"/>
        </g>
        <g stroke="#000" class="edge">
            <path fill="none" d="M432.55 256.3c-.99 7.72-2.19 16.99-3.29 25.59"/>
            <path d="m432.72 282.42-4.75 9.48-2.2-10.37 6.95.89z"/>
        </g>
    </g>
</svg>
