<svg xmlns="http://www.w3.org/2000/svg" width="835pt" height="332pt" viewBox="0 0 835.48 332">
    <g class="graph">
        <path fill="#fff" stroke="transparent" d="M0 332V0h835.48v332H0z"/>
        <g class="node" transform="translate(4 328)">
            <ellipse cx="196.32" cy="-306" fill="none" stroke="#000" rx="76.09" ry="18"/>
            <text x="196.32" y="-302.3" font-family="Times,serif" font-size="14" text-anchor="middle">:core:provider</text>
        </g>
        <g class="node" transform="translate(4 328)">
            <ellipse cx="95.32" cy="-162" fill="none" stroke="#000" rx="77.99" ry="18"/>
            <text x="95.32" y="-158.3" font-family="Times,serif" font-size="14" text-anchor="middle">:core:analytics</text>
        </g>
        <g stroke="#000" class="edge">
            <path fill="none" d="M188.34 39.85c-17.62 24.76-50.63 71.18-71.13 99.99"/>
            <path d="m119.94 142.05-8.65 6.13 2.94-10.18 5.71 4.05z"/>
        </g>
        <g class="node" transform="translate(4 328)">
            <ellipse cx="403.32" cy="-18" fill="none" stroke="#000" rx="75.29" ry="18"/>
            <text x="403.32" y="-14.3" font-family="Times,serif" font-size="14" text-anchor="middle">:core:common</text>
        </g>
        <g stroke="#000" class="edge">
            <path fill="none" d="M157.25 36.85C90.27 60.87-27.24 114.43 12.32 184c72.32 127.2 167.41 79.87 311 108 6.04 1.18 12.31 2.43 18.6 3.68"/>
            <path d="m342.65 292.26 9.11 5.39-10.49 1.47 1.38-6.86z"/>
        </g>
        <g class="node" transform="translate(4 328)">
            <ellipse cx="239.32" cy="-234" fill="none" stroke="#000" rx="57.39" ry="18"/>
            <text x="239.32" y="-230.3" font-family="Times,serif" font-size="14" text-anchor="middle">:core:data</text>
        </g>
        <g stroke="red" stroke-width="2" class="edge">
            <path fill="none" d="M210.73 39.95c5.07 8.25 11.27 18.35 16.9 27.51"/>
            <path fill="red" d="m230.75 65.86 2.26 10.35-8.22-6.69 5.96-3.66z"/>
        </g>
        <g class="node" transform="translate(4 328)">
            <ellipse cx="650.32" cy="-18" fill="none" stroke="#000" rx="64.99" ry="18"/>
            <text x="650.32" y="-14.3" font-family="Times,serif" font-size="14" text-anchor="middle">:core:model</text>
        </g>
        <g stroke="#000" class="edge">
            <path fill="none" d="M274.04 26.61C422.91 35.6 751.11 64.64 819.32 148c46.17 56.42-56.9 114.06-120.2 142.62"/>
            <path d="m700.27 293.94-10.56.85 7.73-7.25 2.83 6.4z"/>
        </g>
        <g stroke="#000" class="edge">
            <path fill="none" d="m213.48 109.5-73.07 35.53"/>
            <path d="m141.64 148.32-10.52 1.22 7.46-7.52 3.06 6.3z"/>
        </g>
        <g stroke="#000" class="edge">
            <path fill="none" d="M234.42 112.13c-10.2 18.74-28.1 49.14-48.1 71.87-16.47 18.71-32.45 13.42-43 36-6.77 14.5-10.14 23.63 0 36 51.72 63.09 100.02 19.91 180 36 6.03 1.21 12.3 2.48 18.58 3.75"/>
            <path d="m342.64 292.32 9.11 5.41-10.5 1.45 1.39-6.86z"/>
        </g>
        <g class="node" transform="translate(4 328)">
            <ellipse cx="727.32" cy="-162" fill="none" stroke="#000" rx="78.79" ry="18"/>
            <text x="727.32" y="-158.3" font-family="Times,serif" font-size="14" text-anchor="middle">:core:database</text>
        </g>
        <g stroke="#000" class="edge">
            <path fill="none" d="M296.34 100.95c76.89 8.88 223.76 26.72 347.98 47.05 6.63 1.09 13.53 2.3 20.42 3.56"/>
            <path d="m665.6 148.15 9.18 5.28-10.47 1.61 1.29-6.89z"/>
        </g>
        <g class="node" transform="translate(4 328)">
            <ellipse cx="229.32" cy="-90" fill="none" stroke="#000" rx="81.49" ry="18"/>
            <text x="229.32" y="-86.3" font-family="Times,serif" font-size="14" text-anchor="middle">:core:datastore</text>
        </g>
        <g stroke="#000" class="edge">
            <path fill="none" d="M242.11 112.13c-1.7 24.2-4.83 68.66-6.86 97.48"/>
            <path d="m238.72 210.08-4.19 9.73-2.79-10.22 6.98.49z"/>
        </g>
        <g class="node" transform="translate(4 328)">
            <ellipse cx="403.32" cy="-90" fill="none" stroke="#000" rx="74.99" ry="18"/>
            <text x="403.32" y="-86.3" font-family="Times,serif" font-size="14" text-anchor="middle">:core:network</text>
        </g>
        <g stroke="#000" class="edge">
            <path fill="none" d="M262.13 111.29c29.01 25.12 84.79 73.41 118.13 102.28"/>
            <path d="m382.95 211.27 5.27 9.19-9.85-3.9 4.58-5.29z"/>
        </g>
        <g class="node" transform="translate(4 328)">
            <ellipse cx="495.32" cy="-162" fill="none" stroke="#000" rx="135.68" ry="18"/>
            <text x="495.32" y="-158.3" font-family="Times,serif" font-size="14" text-anchor="middle">:core:component-controller</text>
        </g>
        <g stroke="red" stroke-width="2" class="edge">
            <path fill="none" d="M285.02 106.4c40.08 10.96 101.29 27.7 148.04 40.48"/>
            <path fill="red" d="m434.08 143.53 8.73 6.02-10.57.74 1.84-6.76z"/>
        </g>
        <g stroke="#000" class="edge">
            <path fill="none" d="M731.81 184.21c-.2 18.82-2.75 49.29-15.49 71.79-6.89 12.18-17.7 22.85-28.38 31.36"/>
            <path d="m689.96 290.22-10.09 3.23 5.88-8.82 4.21 5.59z"/>
        </g>
        <g stroke="#000" class="edge">
            <path fill="none" d="M270.65 254.02c26.55 10.68 62.39 25.1 90.71 36.49"/>
            <path d="m362.68 287.27 7.97 6.98-10.58-.49 2.61-6.49z"/>
        </g>
        <g stroke="#000" class="edge">
            <path fill="none" d="M292.34 250.39c10.32 1.92 20.95 3.86 30.98 5.61 91.89 16.03 198.46 32.76 265.31 43.03"/>
            <path d="m589.25 295.59 9.35 4.97-10.41 1.95 1.06-6.92z"/>
        </g>
        <g class="node" transform="translate(4 328)">
            <ellipse cx="201.32" cy="-18" fill="none" stroke="#000" rx="108.58" ry="18"/>
            <text x="201.32" y="-14.3" font-family="Times,serif" font-size="14" text-anchor="middle">:core:datastore-proto</text>
        </g>
        <g stroke="#000" class="edge">
            <path fill="none" d="M226.54 255.95c-3.15 7.87-6.97 17.43-10.5 26.26"/>
            <path d="m219.19 283.74-6.96 7.98.46-10.58 6.5 2.6z"/>
        </g>
        <g stroke="#000" class="edge">
            <path fill="none" d="M407.32 256.3v25.59"/>
            <path d="m410.82 281.9-3.5 10-3.5-10h7z"/>
        </g>
        <g stroke="#000" class="edge">
            <path fill="none" d="M453.78 252.17c41.83 11.85 103.3 29.27 147.15 41.7"/>
            <path d="m601.89 290.5 8.67 6.1-10.58.64 1.91-6.74z"/>
        </g>
        <g stroke="#000" class="edge">
            <path fill="none" d="M502.03 184.12c2.1 19.01 2.72 49.91-10.71 71.88-8.72 14.25-22.87 25.31-37.09 33.55"/>
            <path d="m455.87 292.64-10.46 1.68 7.13-7.84 3.33 6.16z"/>
        </g>
        <g stroke="#000" class="edge">
            <path fill="none" d="M580.47 180.49c43.15 9 89.93 22.34 102.85 39.51 14.09 18.72 3.11 44.58-9.17 63.6"/>
            <path d="m676.87 285.82-8.55 6.25 2.79-10.22 5.76 3.97z"/>
        </g>
        <g class="node" transform="translate(4 328)">
            <ellipse cx="602.32" cy="-90" fill="none" stroke="#000" rx="67.69" ry="18"/>
            <text x="602.32" y="-86.3" font-family="Times,serif" font-size="14" text-anchor="middle">:core:ifw-api</text>
        </g>
        <g stroke="red" stroke-width="2" class="edge">
            <path fill="none" d="M524.95 183.77c14.47 9.46 32.72 21.4 48.26 31.57"/>
            <path fill="red" d="m575.55 212.69 6.45 8.4-10.28-2.54 3.83-5.86z"/>
        </g>
        <g stroke="red" stroke-width="2" class="edge">
            <path fill="none" d="M567 252.83c-31.34 11.02-75.44 26.54-109.36 38.47"/>
            <path fill="red" d="m458.52 294.7-10.6.02 8.27-6.62 2.33 6.6z"/>
        </g>
        <g stroke="#000" class="edge">
            <path fill="none" d="M617.94 255.95c5.72 8.34 12.73 18.56 19.06 27.8"/>
            <path d="m640.04 281.98 2.77 10.23-8.54-6.27 5.77-3.96z"/>
        </g>
    </g>
</svg>
