<?xml version="1.0" encoding="UTF-8" standalone="no"?>
<!DOCTYPE svg PUBLIC "-//W3C//DTD SVG 1.1//EN" "http://www.w3.org/Graphics/SVG/1.1/DTD/svg11.dtd">
<svg xmlns="http://www.w3.org/2000/svg" xmlns:xlink="http://www.w3.org/1999/xlink" width="777pt" height="404pt" viewBox="0.00 0.00 776.87 404.00">
  <g id="graph0" class="graph" transform="scale(1 1) rotate(0) translate(4 400)">
    <title>G</title>
    <polygon fill="white" stroke="transparent" points="-4,4 -4,-400 772.87,-400 772.87,4 -4,4"/>
    <g id="node1" class="node">
      <title>:sync:work</title>
      <ellipse fill="none" stroke="black" cx="453.99" cy="-378" rx="60.39" ry="18"/>
      <text text-anchor="middle" x="453.99" y="-374.3" font-family="Times,serif" font-size="14.00">:sync:work</text>
    </g>
    <g id="node2" class="node">
      <title>:core:analytics</title>
      <ellipse fill="none" stroke="black" cx="77.99" cy="-162" rx="77.99" ry="18"/>
      <text text-anchor="middle" x="77.99" y="-158.3" font-family="Times,serif" font-size="14.00">:core:analytics</text>
    </g>
    <g id="edge1" class="edge">
      <title>:sync:work-&gt;:core:analytics</title>
      <path fill="none" stroke="black" d="M427.25,-361.78C361.15,-324.16 189.97,-226.73 114.57,-183.82"/>
      <polygon fill="black" stroke="black" points="116.29,-180.77 105.86,-178.86 112.82,-186.85 116.29,-180.77"/>
    </g>
    <g id="node3" class="node">
      <title>:core:data</title>
      <ellipse fill="none" stroke="black" cx="402.99" cy="-234" rx="57.39" ry="18"/>
      <text text-anchor="middle" x="402.99" y="-230.3" font-family="Times,serif" font-size="14.00">:core:data</text>
    </g>
    <g id="edge2" class="edge">
      <title>:sync:work-&gt;:core:data</title>
      <path fill="none" stroke="black" d="M447.84,-359.87C439.07,-335.46 422.9,-290.43 412.56,-261.64"/>
      <polygon fill="black" stroke="black" points="415.84,-260.42 409.17,-252.19 409.25,-262.78 415.84,-260.42"/>
    </g>
    <g id="node4" class="node">
      <title>:core:git</title>
      <ellipse fill="none" stroke="black" cx="658.99" cy="-306" rx="49.29" ry="18"/>
      <text text-anchor="middle" x="658.99" y="-302.3" font-family="Times,serif" font-size="14.00">:core:git</text>
    </g>
    <g id="edge3" class="edge">
      <title>:sync:work-&gt;:core:git</title>
      <path fill="none" stroke="black" d="M492.07,-364C526.68,-352.18 577.77,-334.73 614.3,-322.26"/>
      <polygon fill="black" stroke="black" points="615.86,-325.43 624.19,-318.88 613.6,-318.8 615.86,-325.43"/>
    </g>
    <g id="node5" class="node">
      <title>:core:rule</title>
      <ellipse fill="none" stroke="black" cx="535.99" cy="-306" rx="55.49" ry="18"/>
      <text text-anchor="middle" x="535.99" y="-302.3" font-family="Times,serif" font-size="14.00">:core:rule</text>
    </g>
    <g id="edge4" class="edge">
      <title>:sync:work-&gt;:core:rule</title>
      <path fill="none" stroke="red" stroke-width="2" d="M473.01,-360.76C483.78,-351.58 497.41,-339.94 509.24,-329.84"/>
      <polygon fill="red" stroke="red" stroke-width="2" points="511.74,-332.3 517.08,-323.15 507.2,-326.98 511.74,-332.3"/>
    </g>
    <g id="edge9" class="edge">
      <title>:core:data-&gt;:core:analytics</title>
      <path fill="none" stroke="black" d="M357.12,-223.12C301.15,-211.06 206.16,-190.6 142.76,-176.95"/>
      <polygon fill="black" stroke="black" points="143.37,-173.5 132.86,-174.82 141.9,-180.35 143.37,-173.5"/>
    </g>
    <g id="node6" class="node">
      <title>:core:common</title>
      <ellipse fill="none" stroke="black" cx="619.99" cy="-18" rx="75.29" ry="18"/>
      <text text-anchor="middle" x="619.99" y="-14.3" font-family="Times,serif" font-size="14.00">:core:common</text>
    </g>
    <g id="edge5" class="edge">
      <title>:core:data-&gt;:core:common</title>
      <path fill="none" stroke="black" d="M458.11,-229.18C534.67,-222.92 668.16,-208.25 706.99,-180 748.14,-150.07 773.09,-114.43 744.99,-72 732.13,-52.57 710.55,-40.24 688.92,-32.43"/>
      <polygon fill="black" stroke="black" points="689.93,-29.08 679.34,-29.25 687.73,-35.72 689.93,-29.08"/>
    </g>
    <g id="node7" class="node">
      <title>:core:database</title>
      <ellipse fill="none" stroke="black" cx="252.99" cy="-162" rx="78.79" ry="18"/>
      <text text-anchor="middle" x="252.99" y="-158.3" font-family="Times,serif" font-size="14.00">:core:database</text>
    </g>
    <g id="edge6" class="edge">
      <title>:core:data-&gt;:core:database</title>
      <path fill="none" stroke="black" d="M372.28,-218.67C350.01,-208.27 319.62,-194.09 295.1,-182.65"/>
      <polygon fill="black" stroke="black" points="296.55,-179.47 286.01,-178.41 293.59,-185.81 296.55,-179.47"/>
    </g>
    <g id="node8" class="node">
      <title>:core:datastore</title>
      <ellipse fill="none" stroke="black" cx="256.99" cy="-90" rx="81.49" ry="18"/>
      <text text-anchor="middle" x="256.99" y="-86.3" font-family="Times,serif" font-size="14.00">:core:datastore</text>
    </g>
    <g id="edge7" class="edge">
      <title>:core:data-&gt;:core:datastore</title>
      <path fill="none" stroke="black" d="M393.97,-216.09C383.19,-196.98 363.73,-165.72 340.99,-144 328.09,-131.67 311.88,-120.64 297.16,-111.89"/>
      <polygon fill="black" stroke="black" points="298.64,-108.7 288.23,-106.73 295.14,-114.76 298.64,-108.7"/>
    </g>
    <g id="node9" class="node">
      <title>:core:network</title>
      <ellipse fill="none" stroke="black" cx="468.99" cy="-90" rx="74.99" ry="18"/>
      <text text-anchor="middle" x="468.99" y="-86.3" font-family="Times,serif" font-size="14.00">:core:network</text>
    </g>
    <g id="edge8" class="edge">
      <title>:core:data-&gt;:core:network</title>
      <path fill="none" stroke="black" d="M402.65,-216C402.93,-197.36 405.4,-167.06 416.99,-144 422.55,-132.96 431.24,-122.75 439.94,-114.3"/>
      <polygon fill="black" stroke="black" points="442.5,-116.69 447.5,-107.35 437.77,-111.54 442.5,-116.69"/>
    </g>
    <g id="node10" class="node">
      <title>:core:component-controller</title>
      <ellipse fill="none" stroke="black" cx="561.99" cy="-162" rx="135.68" ry="18"/>
      <text text-anchor="middle" x="561.99" y="-158.3" font-family="Times,serif" font-size="14.00">:core:component-controller</text>
    </g>
    <g id="edge10" class="edge">
      <title>:core:data-&gt;:core:component-controller</title>
      <path fill="none" stroke="red" stroke-width="2" d="M434.79,-219C457.87,-208.84 489.47,-194.93 515.4,-183.51"/>
      <polygon fill="red" stroke="red" stroke-width="2" points="516.93,-186.66 524.67,-179.43 514.11,-180.26 516.93,-186.66"/>
    </g>
    <g id="edge24" class="edge">
      <title>:core:rule-&gt;:core:data</title>
      <path fill="none" stroke="red" stroke-width="2" d="M508.11,-290.33C488.38,-279.94 461.72,-265.91 440.18,-254.57"/>
      <polygon fill="red" stroke="red" stroke-width="2" points="441.77,-251.46 431.3,-249.9 438.51,-257.65 441.77,-251.46"/>
    </g>
    <g id="edge22" class="edge">
      <title>:core:rule-&gt;:core:common</title>
      <path fill="none" stroke="black" d="M578.67,-294.51C607.56,-286.07 645.66,-272.25 674.99,-252 736.91,-209.26 751.48,-182.19 763.99,-108 766.65,-92.22 773.15,-85.12 763.99,-72 748.38,-49.62 722.22,-36.67 696.44,-29.18"/>
      <polygon fill="black" stroke="black" points="697.16,-25.75 686.6,-26.57 695.37,-32.51 697.16,-25.75"/>
    </g>
    <g id="edge23" class="edge">
      <title>:core:rule-&gt;:core:component-controller</title>
      <path fill="none" stroke="black" d="M539.13,-287.87C543.56,-263.67 551.7,-219.21 556.98,-190.39"/>
      <polygon fill="black" stroke="black" points="560.49,-190.66 558.85,-180.19 553.6,-189.4 560.49,-190.66"/>
    </g>
    <g id="node13" class="node">
      <title>:core:ifw-api</title>
      <ellipse fill="none" stroke="black" cx="667.99" cy="-90" rx="67.69" ry="18"/>
      <text text-anchor="middle" x="667.99" y="-86.3" font-family="Times,serif" font-size="14.00">:core:ifw-api</text>
    </g>
    <g id="edge25" class="edge">
      <title>:core:rule-&gt;:core:ifw-api</title>
      <path fill="none" stroke="black" d="M569.9,-291.67C611.01,-273.44 678.36,-236.4 706.99,-180 717.85,-158.61 704.61,-133.52 690.69,-115.44"/>
      <polygon fill="black" stroke="black" points="693.38,-113.19 684.34,-107.66 687.96,-117.62 693.38,-113.19"/>
    </g>
    <g id="node11" class="node">
      <title>:core:model</title>
      <ellipse fill="none" stroke="black" cx="406.99" cy="-18" rx="64.99" ry="18"/>
      <text text-anchor="middle" x="406.99" y="-14.3" font-family="Times,serif" font-size="14.00">:core:model</text>
    </g>
    <g id="edge11" class="edge">
      <title>:core:database-&gt;:core:model</title>
      <path fill="none" stroke="black" d="M212.41,-146.5C195.18,-138.09 176.83,-125.61 166.99,-108 159.19,-94.03 156.95,-84.46 166.99,-72 214.38,-13.23 259.31,-52.45 332.99,-36 338.22,-34.83 343.65,-33.61 349.09,-32.37"/>
      <polygon fill="black" stroke="black" points="349.87,-35.78 358.85,-30.15 348.32,-28.96 349.87,-35.78"/>
    </g>
    <g id="edge14" class="edge">
      <title>:core:datastore-&gt;:core:common</title>
      <path fill="none" stroke="black" d="M316.12,-77.6C381.09,-65.07 485.22,-44.99 553.12,-31.9"/>
      <polygon fill="black" stroke="black" points="554.12,-35.27 563.28,-29.94 552.8,-28.39 554.12,-35.27"/>
    </g>
    <g id="edge13" class="edge">
      <title>:core:datastore-&gt;:core:model</title>
      <path fill="none" stroke="black" d="M290.28,-73.46C312.68,-63.01 342.37,-49.16 366.19,-38.04"/>
      <polygon fill="black" stroke="black" points="367.75,-41.17 375.34,-33.77 364.79,-34.83 367.75,-41.17"/>
    </g>
    <g id="node12" class="node">
      <title>:core:datastore-proto</title>
      <ellipse fill="none" stroke="black" cx="214.99" cy="-18" rx="108.58" ry="18"/>
      <text text-anchor="middle" x="214.99" y="-14.3" font-family="Times,serif" font-size="14.00">:core:datastore-proto</text>
    </g>
    <g id="edge12" class="edge">
      <title>:core:datastore-&gt;:core:datastore-proto</title>
      <path fill="none" stroke="black" d="M246.83,-72.05C241.95,-63.92 235.99,-54 230.56,-44.94"/>
      <polygon fill="black" stroke="black" points="233.5,-43.05 225.36,-36.28 227.5,-46.65 233.5,-43.05"/>
    </g>
    <g id="edge15" class="edge">
      <title>:core:network-&gt;:core:common</title>
      <path fill="none" stroke="black" d="M501.76,-73.81C524.04,-63.48 553.73,-49.72 577.78,-38.57"/>
      <polygon fill="black" stroke="black" points="579.43,-41.66 587.03,-34.28 576.49,-35.31 579.43,-41.66"/>
    </g>
    <g id="edge16" class="edge">
      <title>:core:network-&gt;:core:model</title>
      <path fill="none" stroke="black" d="M453.98,-72.05C446.37,-63.46 436.98,-52.86 428.6,-43.4"/>
      <polygon fill="black" stroke="black" points="431.11,-40.95 421.86,-35.79 425.87,-45.6 431.11,-40.95"/>
    </g>
    <g id="edge17" class="edge">
      <title>:core:component-controller-&gt;:core:common</title>
      <path fill="none" stroke="black" d="M566.53,-143.92C571.6,-125.75 580.49,-96.32 590.99,-72 594.86,-63.05 599.75,-53.6 604.4,-45.21"/>
      <polygon fill="black" stroke="black" points="607.59,-46.68 609.49,-36.26 601.5,-43.22 607.59,-46.68"/>
    </g>
    <g id="edge18" class="edge">
      <title>:core:component-controller-&gt;:core:model</title>
      <path fill="none" stroke="black" d="M484.13,-147.17C442.54,-138.03 397.4,-124.66 384.99,-108 371.27,-89.57 380.02,-63.62 390.27,-44.49"/>
      <polygon fill="black" stroke="black" points="393.36,-46.13 395.32,-35.72 387.3,-42.63 393.36,-46.13"/>
    </g>
    <g id="edge19" class="edge">
      <title>:core:component-controller-&gt;:core:ifw-api</title>
      <path fill="none" stroke="red" stroke-width="2" d="M587.38,-144.23C601.72,-134.77 619.79,-122.83 635.19,-112.66"/>
      <polygon fill="red" stroke="red" stroke-width="2" points="637.49,-115.34 643.9,-106.91 633.63,-109.5 637.49,-115.34"/>
    </g>
    <g id="edge20" class="edge">
      <title>:core:ifw-api-&gt;:core:common</title>
      <path fill="none" stroke="red" stroke-width="2" d="M656.37,-72.05C650.65,-63.71 643.64,-53.49 637.31,-44.25"/>
      <polygon fill="red" stroke="red" stroke-width="2" points="640.05,-42.06 631.51,-35.79 634.27,-46.02 640.05,-42.06"/>
    </g>
    <g id="edge21" class="edge">
      <title>:core:ifw-api-&gt;:core:model</title>
      <path fill="none" stroke="black" d="M622.23,-76.73C577.6,-64.76 509.67,-46.54 462.09,-33.78"/>
      <polygon fill="black" stroke="black" points="462.83,-30.35 452.26,-31.14 461.02,-37.11 462.83,-30.35"/>
    </g>
  </g>
</svg>
