<?xml version="1.0" encoding="UTF-8" standalone="no"?>
<!DOCTYPE svg PUBLIC "-//W3C//DTD SVG 1.1//EN"
 "http://www.w3.org/Graphics/SVG/1.1/DTD/svg11.dtd">
<!-- Generated by graphviz version 2.43.0 (0)
 -->
<!-- Title: G Pages: 1 -->
<svg width="314pt" height="188pt"
 viewBox="0.00 0.00 314.39 188.00" xmlns="http://www.w3.org/2000/svg" xmlns:xlink="http://www.w3.org/1999/xlink">
<g id="graph0" class="graph" transform="scale(1 1) rotate(0) translate(4 184)">
<title>G</title>
<polygon fill="white" stroke="transparent" points="-4,4 -4,-184 310.39,-184 310.39,4 -4,4"/>
<!-- :core:component&#45;controller -->
<g id="node1" class="node">
<title>:core:component&#45;controller</title>
<ellipse fill="none" stroke="black" cx="154.39" cy="-162" rx="135.68" ry="18"/>
<text text-anchor="middle" x="154.39" y="-158.3" font-family="Times,serif" font-size="14.00">:core:component&#45;controller</text>
</g>
<!-- :core:common -->
<g id="node2" class="node">
<title>:core:common</title>
<ellipse fill="none" stroke="black" cx="75.39" cy="-18" rx="75.29" ry="18"/>
<text text-anchor="middle" x="75.39" y="-14.3" font-family="Times,serif" font-size="14.00">:core:common</text>
</g>
<!-- :core:component&#45;controller&#45;&gt;:core:common -->
<g id="edge1" class="edge">
<title>:core:component&#45;controller&#45;&gt;:core:common</title>
<path fill="none" stroke="black" d="M116.51,-144.51C101.57,-135.92 85.95,-123.85 77.39,-108 67.26,-89.24 67.47,-64.86 69.81,-46.36"/>
<polygon fill="black" stroke="black" points="73.31,-46.65 71.38,-36.24 66.39,-45.58 73.31,-46.65"/>
</g>
<!-- :core:model -->
<g id="node3" class="node">
<title>:core:model</title>
<ellipse fill="none" stroke="black" cx="241.39" cy="-18" rx="64.99" ry="18"/>
<text text-anchor="middle" x="241.39" y="-14.3" font-family="Times,serif" font-size="14.00">:core:model</text>
</g>
<!-- :core:component&#45;controller&#45;&gt;:core:model -->
<g id="edge2" class="edge">
<title>:core:component&#45;controller&#45;&gt;:core:model</title>
<path fill="none" stroke="black" d="M190.81,-144.59C205.86,-135.9 221.97,-123.73 231.39,-108 242.48,-89.49 244.49,-64.9 244,-46.26"/>
<polygon fill="black" stroke="black" points="247.49,-45.86 243.47,-36.06 240.49,-46.22 247.49,-45.86"/>
</g>
<!-- :core:ifw&#45;api -->
<g id="node4" class="node">
<title>:core:ifw&#45;api</title>
<ellipse fill="none" stroke="black" cx="154.39" cy="-90" rx="67.69" ry="18"/>
<text text-anchor="middle" x="154.39" y="-86.3" font-family="Times,serif" font-size="14.00">:core:ifw&#45;api</text>
</g>
<!-- :core:component&#45;controller&#45;&gt;:core:ifw&#45;api -->
<g id="edge3" class="edge">
<title>:core:component&#45;controller&#45;&gt;:core:ifw&#45;api</title>
<path fill="none" stroke="red" stroke-width="2" d="M154.39,-143.7C154.39,-135.98 154.39,-126.71 154.39,-118.11"/>
<polygon fill="red" stroke="red" stroke-width="2" points="157.89,-118.1 154.39,-108.1 150.89,-118.1 157.89,-118.1"/>
</g>
<!-- :core:ifw&#45;api&#45;&gt;:core:common -->
<g id="edge4" class="edge">
<title>:core:ifw&#45;api&#45;&gt;:core:common</title>
<path fill="none" stroke="red" stroke-width="2" d="M135.67,-72.41C125.54,-63.43 112.85,-52.19 101.74,-42.34"/>
<polygon fill="red" stroke="red" stroke-width="2" points="103.79,-39.48 93.98,-35.47 99.14,-44.72 103.79,-39.48"/>
</g>
<!-- :core:ifw&#45;api&#45;&gt;:core:model -->
<g id="edge5" class="edge">
<title>:core:ifw&#45;api&#45;&gt;:core:model</title>
<path fill="none" stroke="black" d="M174.57,-72.76C186.1,-63.49 200.73,-51.71 213.37,-41.55"/>
<polygon fill="black" stroke="black" points="215.73,-44.14 221.32,-35.15 211.34,-38.69 215.73,-44.14"/>
</g>
</g>
</svg>
