<?xml version="1.0" encoding="UTF-8" standalone="no"?>
<!DOCTYPE svg PUBLIC "-//W3C//DTD SVG 1.1//EN"
 "http://www.w3.org/Graphics/SVG/1.1/DTD/svg11.dtd">
<!-- Generated by graphviz version 2.43.0 (0)
 -->
<!-- Title: G Pages: 1 -->
<svg width="280pt" height="260pt"
 viewBox="0.00 0.00 279.68 260.00" xmlns="http://www.w3.org/2000/svg" xmlns:xlink="http://www.w3.org/1999/xlink">
<g id="graph0" class="graph" transform="scale(1 1) rotate(0) translate(4 256)">
<title>G</title>
<polygon fill="white" stroke="transparent" points="-4,4 -4,-256 275.68,-256 275.68,4 -4,4"/>
<!-- :core:component&#45;controller -->
<g id="node1" class="node">
<title>:core:component&#45;controller</title>
<ellipse fill="none" stroke="black" cx="135.84" cy="-234" rx="135.68" ry="18"/>
<text text-anchor="middle" x="135.84" y="-230.3" font-family="Times,serif" font-size="14.00">:core:component&#45;controller</text>
</g>
<!-- :core:common -->
<g id="node2" class="node">
<title>:core:common</title>
<ellipse fill="none" stroke="black" cx="128.84" cy="-90" rx="75.29" ry="18"/>
<text text-anchor="middle" x="128.84" y="-86.3" font-family="Times,serif" font-size="14.00">:core:common</text>
</g>
<!-- :core:component&#45;controller&#45;&gt;:core:common -->
<g id="edge1" class="edge">
<title>:core:component&#45;controller&#45;&gt;:core:common</title>
<path fill="none" stroke="black" d="M97.78,-216.6C82.81,-208.03 67.22,-195.94 58.84,-180 51.39,-165.84 51.72,-158.33 58.84,-144 65.34,-130.93 76.77,-120.22 88.53,-111.94"/>
<polygon fill="black" stroke="black" points="90.64,-114.74 97.09,-106.33 86.81,-108.88 90.64,-114.74"/>
</g>
<!-- :core:model -->
<g id="node3" class="node">
<title>:core:model</title>
<ellipse fill="none" stroke="black" cx="179.84" cy="-18" rx="64.99" ry="18"/>
<text text-anchor="middle" x="179.84" y="-14.3" font-family="Times,serif" font-size="14.00">:core:model</text>
</g>
<!-- :core:component&#45;controller&#45;&gt;:core:model -->
<g id="edge2" class="edge">
<title>:core:component&#45;controller&#45;&gt;:core:model</title>
<path fill="none" stroke="black" d="M173.9,-216.6C188.87,-208.03 204.46,-195.94 212.84,-180 235.17,-137.51 226.03,-118.15 212.84,-72 210.08,-62.36 205.01,-52.76 199.65,-44.44"/>
<polygon fill="black" stroke="black" points="202.37,-42.22 193.82,-35.96 196.6,-46.19 202.37,-42.22"/>
</g>
<!-- :core:ifw&#45;api -->
<g id="node4" class="node">
<title>:core:ifw&#45;api</title>
<ellipse fill="none" stroke="black" cx="135.84" cy="-162" rx="67.69" ry="18"/>
<text text-anchor="middle" x="135.84" y="-158.3" font-family="Times,serif" font-size="14.00">:core:ifw&#45;api</text>
</g>
<!-- :core:component&#45;controller&#45;&gt;:core:ifw&#45;api -->
<g id="edge3" class="edge">
<title>:core:component&#45;controller&#45;&gt;:core:ifw&#45;api</title>
<path fill="none" stroke="red" stroke-width="2" d="M135.84,-215.7C135.84,-207.98 135.84,-198.71 135.84,-190.11"/>
<polygon fill="red" stroke="red" stroke-width="2" points="139.34,-190.1 135.84,-180.1 132.34,-190.1 139.34,-190.1"/>
</g>
<!-- :core:common&#45;&gt;:core:model -->
<g id="edge4" class="edge">
<title>:core:common&#45;&gt;:core:model</title>
<path fill="none" stroke="red" stroke-width="2" d="M141.18,-72.05C147.32,-63.63 154.86,-53.28 161.65,-43.97"/>
<polygon fill="red" stroke="red" stroke-width="2" points="164.55,-45.93 167.61,-35.79 158.89,-41.81 164.55,-45.93"/>
</g>
<!-- :core:ifw&#45;api&#45;&gt;:core:common -->
<g id="edge5" class="edge">
<title>:core:ifw&#45;api&#45;&gt;:core:common</title>
<path fill="none" stroke="red" stroke-width="2" d="M134.11,-143.7C133.34,-135.98 132.41,-126.71 131.55,-118.11"/>
<polygon fill="red" stroke="red" stroke-width="2" points="135.03,-117.71 130.55,-108.1 128.06,-118.4 135.03,-117.71"/>
</g>
</g>
</svg>
