<?xml version="1.0" encoding="UTF-8" standalone="no"?>
<!DOCTYPE svg PUBLIC "-//W3C//DTD SVG 1.1//EN" "http://www.w3.org/Graphics/SVG/1.1/DTD/svg11.dtd">
<svg xmlns="http://www.w3.org/2000/svg" xmlns:xlink="http://www.w3.org/1999/xlink" width="1127pt" height="548pt" viewBox="0.00 0.00 1127.23 548.00">
  <g id="graph0" class="graph" transform="scale(1 1) rotate(0) translate(4 544)">
    <title>G</title>
    <polygon fill="white" stroke="transparent" points="-4,4 -4,-544 1123.23,-544 1123.23,4 -4,4"/>
    <g id="node1" class="node">
      <title>:feature:search</title>
      <ellipse fill="none" stroke="black" cx="670.74" cy="-522" rx="81.49" ry="18"/>
      <text text-anchor="middle" x="670.74" y="-518.3" font-family="Times,serif" font-size="14.00">:feature:search</text>
    </g>
    <g id="node2" class="node">
      <title>:core:ui</title>
      <ellipse fill="none" stroke="black" cx="373.74" cy="-450" rx="45.49" ry="18"/>
      <text text-anchor="middle" x="373.74" y="-446.3" font-family="Times,serif" font-size="14.00">:core:ui</text>
    </g>
    <g id="edge1" class="edge">
      <title>:feature:search-&gt;:core:ui</title>
      <path fill="none" stroke="red" stroke-width="2" d="M617.3,-508.4C561.6,-495.28 475.12,-474.9 421.6,-462.28"/>
      <polygon fill="red" stroke="red" stroke-width="2" points="422.21,-458.83 411.68,-459.94 420.61,-465.64 422.21,-458.83"/>
    </g>
    <g id="node3" class="node">
      <title>:core:designsystem</title>
      <ellipse fill="none" stroke="black" cx="100.74" cy="-378" rx="100.98" ry="18"/>
      <text text-anchor="middle" x="100.74" y="-374.3" font-family="Times,serif" font-size="14.00">:core:designsystem</text>
    </g>
    <g id="edge2" class="edge">
      <title>:feature:search-&gt;:core:designsystem</title>
      <path fill="none" stroke="black" d="M596.07,-514.88C524.28,-507.79 413.19,-493.66 319.74,-468 255.95,-450.49 185.68,-419.75 142.37,-399.38"/>
      <polygon fill="black" stroke="black" points="143.82,-396.19 133.28,-395.07 140.82,-402.52 143.82,-396.19"/>
    </g>
    <g id="node4" class="node">
      <title>:core:component-controller</title>
      <ellipse fill="none" stroke="black" cx="933.74" cy="-162" rx="135.68" ry="18"/>
      <text text-anchor="middle" x="933.74" y="-158.3" font-family="Times,serif" font-size="14.00">:core:component-controller</text>
    </g>
    <g id="edge3" class="edge">
      <title>:feature:search-&gt;:core:component-controller</title>
      <path fill="none" stroke="black" d="M735.41,-511.1C846.03,-492.32 1059.74,-447.21 1059.74,-379 1059.74,-379 1059.74,-379 1059.74,-305 1059.74,-251.91 1009.85,-209.41 972.86,-185.19"/>
      <polygon fill="black" stroke="black" points="974.56,-182.13 964.24,-179.72 970.81,-188.04 974.56,-182.13"/>
    </g>
    <g id="node5" class="node">
      <title>:core:data</title>
      <ellipse fill="none" stroke="black" cx="684.74" cy="-234" rx="57.39" ry="18"/>
      <text text-anchor="middle" x="684.74" y="-230.3" font-family="Times,serif" font-size="14.00">:core:data</text>
    </g>
    <g id="edge4" class="edge">
      <title>:feature:search-&gt;:core:data</title>
      <path fill="none" stroke="black" d="M671.57,-503.97C673.91,-456.29 680.52,-321.18 683.39,-262.63"/>
      <polygon fill="black" stroke="black" points="686.9,-262.47 683.89,-252.31 679.91,-262.12 686.9,-262.47"/>
    </g>
    <g id="node6" class="node">
      <title>:core:domain</title>
      <ellipse fill="none" stroke="black" cx="769.74" cy="-378" rx="70.69" ry="18"/>
      <text text-anchor="middle" x="769.74" y="-374.3" font-family="Times,serif" font-size="14.00">:core:domain</text>
    </g>
    <g id="edge5" class="edge">
      <title>:feature:search-&gt;:core:domain</title>
      <path fill="none" stroke="black" d="M682.49,-504.15C699.75,-479.39 732.11,-432.97 752.2,-404.16"/>
      <polygon fill="black" stroke="black" points="755.16,-406.03 758.01,-395.82 749.42,-402.03 755.16,-406.03"/>
    </g>
    <g id="edge7" class="edge">
      <title>:core:ui-&gt;:core:designsystem</title>
      <path fill="none" stroke="black" d="M336.64,-439.49C292.72,-428.23 218.82,-409.28 165.42,-395.58"/>
      <polygon fill="black" stroke="black" points="166.26,-392.19 155.7,-393.09 164.52,-398.97 166.26,-392.19"/>
    </g>
    <g id="edge9" class="edge">
      <title>:core:ui-&gt;:core:domain</title>
      <path fill="none" stroke="red" stroke-width="2" d="M414.63,-441.77C482.92,-429.7 620.81,-405.33 703.23,-390.76"/>
      <polygon fill="red" stroke="red" stroke-width="2" points="704,-394.17 713.24,-388.99 702.78,-387.28 704,-394.17"/>
    </g>
    <g id="node7" class="node">
      <title>:core:analytics</title>
      <ellipse fill="none" stroke="black" cx="373.74" cy="-162" rx="77.99" ry="18"/>
      <text text-anchor="middle" x="373.74" y="-158.3" font-family="Times,serif" font-size="14.00">:core:analytics</text>
    </g>
    <g id="edge6" class="edge">
      <title>:core:ui-&gt;:core:analytics</title>
      <path fill="none" stroke="black" d="M373.74,-431.97C373.74,-384.29 373.74,-249.18 373.74,-190.63"/>
      <polygon fill="black" stroke="black" points="377.24,-190.31 373.74,-180.31 370.24,-190.31 377.24,-190.31"/>
    </g>
    <g id="node8" class="node">
      <title>:core:model</title>
      <ellipse fill="none" stroke="black" cx="386.74" cy="-18" rx="64.99" ry="18"/>
      <text text-anchor="middle" x="386.74" y="-14.3" font-family="Times,serif" font-size="14.00">:core:model</text>
    </g>
    <g id="edge8" class="edge">
      <title>:core:ui-&gt;:core:model</title>
      <path fill="none" stroke="black" d="M344.25,-436.11C302.12,-415.47 229.74,-370.73 229.74,-307 229.74,-307 229.74,-307 229.74,-161 229.74,-115.19 248.37,-103.39 281.74,-72 297.85,-56.85 319.11,-45.04 338.29,-36.44"/>
      <polygon fill="black" stroke="black" points="339.7,-39.65 347.51,-32.48 336.94,-33.22 339.7,-39.65"/>
    </g>
    <g id="edge29" class="edge">
      <title>:core:component-controller-&gt;:core:model</title>
      <path fill="none" stroke="black" d="M816.99,-152.76C666.13,-141.61 420.88,-121.56 405.74,-108 388.78,-92.81 384.89,-66.52 384.74,-46.44"/>
      <polygon fill="black" stroke="black" points="388.24,-46.39 384.96,-36.32 381.24,-46.24 388.24,-46.39"/>
    </g>
    <g id="node9" class="node">
      <title>:core:common</title>
      <ellipse fill="none" stroke="black" cx="868.74" cy="-18" rx="75.29" ry="18"/>
      <text text-anchor="middle" x="868.74" y="-14.3" font-family="Times,serif" font-size="14.00">:core:common</text>
    </g>
    <g id="edge28" class="edge">
      <title>:core:component-controller-&gt;:core:common</title>
      <path fill="none" stroke="black" d="M941.75,-143.89C949.27,-125.16 957.71,-94.77 945.74,-72 938.56,-58.34 926.1,-47.52 913.26,-39.31"/>
      <polygon fill="black" stroke="black" points="914.76,-36.13 904.38,-34.04 911.19,-42.15 914.76,-36.13"/>
    </g>
    <g id="node10" class="node">
      <title>:core:ifw-api</title>
      <ellipse fill="none" stroke="black" cx="868.74" cy="-90" rx="67.69" ry="18"/>
      <text text-anchor="middle" x="868.74" y="-86.3" font-family="Times,serif" font-size="14.00">:core:ifw-api</text>
    </g>
    <g id="edge30" class="edge">
      <title>:core:component-controller-&gt;:core:ifw-api</title>
      <path fill="none" stroke="red" stroke-width="2" d="M918.01,-144.05C910.02,-135.46 900.18,-124.86 891.4,-115.4"/>
      <polygon fill="red" stroke="red" stroke-width="2" points="893.7,-112.74 884.33,-107.79 888.57,-117.5 893.7,-112.74"/>
    </g>
    <g id="edge21" class="edge">
      <title>:core:data-&gt;:core:component-controller</title>
      <path fill="none" stroke="red" stroke-width="2" d="M725.86,-221.44C764.72,-210.52 823.65,-193.95 868.85,-181.24"/>
      <polygon fill="red" stroke="red" stroke-width="2" points="869.89,-184.59 878.57,-178.51 867.99,-177.85 869.89,-184.59"/>
    </g>
    <g id="edge20" class="edge">
      <title>:core:data-&gt;:core:analytics</title>
      <path fill="none" stroke="black" d="M639.52,-222.82C586.22,-210.82 497.3,-190.81 437.14,-177.27"/>
      <polygon fill="black" stroke="black" points="437.9,-173.85 427.37,-175.07 436.36,-180.68 437.9,-173.85"/>
    </g>
    <g id="edge16" class="edge">
      <title>:core:data-&gt;:core:common</title>
      <path fill="none" stroke="black" d="M693.24,-215.97C709.35,-184.83 746.78,-117.69 791.74,-72 803.51,-60.04 818.32,-49.1 831.81,-40.3"/>
      <polygon fill="black" stroke="black" points="833.86,-43.15 840.43,-34.84 830.11,-37.24 833.86,-43.15"/>
    </g>
    <g id="node12" class="node">
      <title>:core:database</title>
      <ellipse fill="none" stroke="black" cx="548.74" cy="-162" rx="78.79" ry="18"/>
      <text text-anchor="middle" x="548.74" y="-158.3" font-family="Times,serif" font-size="14.00">:core:database</text>
    </g>
    <g id="edge17" class="edge">
      <title>:core:data-&gt;:core:database</title>
      <path fill="none" stroke="black" d="M656.23,-218.33C636.47,-208.15 609.89,-194.47 588.11,-183.26"/>
      <polygon fill="black" stroke="black" points="589.6,-180.09 579.1,-178.63 586.39,-186.32 589.6,-180.09"/>
    </g>
    <g id="node13" class="node">
      <title>:core:datastore</title>
      <ellipse fill="none" stroke="black" cx="663.74" cy="-90" rx="81.49" ry="18"/>
      <text text-anchor="middle" x="663.74" y="-86.3" font-family="Times,serif" font-size="14.00">:core:datastore</text>
    </g>
    <g id="edge18" class="edge">
      <title>:core:data-&gt;:core:datastore</title>
      <path fill="none" stroke="black" d="M682.21,-215.87C678.63,-191.67 672.05,-147.21 667.79,-118.39"/>
      <polygon fill="black" stroke="black" points="671.21,-117.57 666.28,-108.19 664.28,-118.59 671.21,-117.57"/>
    </g>
    <g id="node14" class="node">
      <title>:core:network</title>
      <ellipse fill="none" stroke="black" cx="489.74" cy="-90" rx="74.99" ry="18"/>
      <text text-anchor="middle" x="489.74" y="-86.3" font-family="Times,serif" font-size="14.00">:core:network</text>
    </g>
    <g id="edge19" class="edge">
      <title>:core:data-&gt;:core:network</title>
      <path fill="none" stroke="black" d="M679.67,-215.86C672.94,-195.95 659.22,-163.36 636.74,-144 614.32,-124.68 584.31,-112.2 557.25,-104.24"/>
      <polygon fill="black" stroke="black" points="558.01,-100.82 547.43,-101.51 556.13,-107.56 558.01,-100.82"/>
    </g>
    <g id="edge13" class="edge">
      <title>:core:domain-&gt;:core:component-controller</title>
      <path fill="none" stroke="black" d="M782.61,-360.21C811.28,-322.8 880.54,-232.42 914.42,-188.21"/>
      <polygon fill="black" stroke="black" points="917.4,-190.08 920.71,-180.01 911.84,-185.82 917.4,-190.08"/>
    </g>
    <g id="edge10" class="edge">
      <title>:core:domain-&gt;:core:data</title>
      <path fill="none" stroke="black" d="M759.66,-360.15C744.9,-335.49 717.29,-289.37 700.02,-260.53"/>
      <polygon fill="black" stroke="black" points="702.95,-258.61 694.81,-251.82 696.95,-262.2 702.95,-258.61"/>
    </g>
    <g id="edge11" class="edge">
      <title>:core:domain-&gt;:core:model</title>
      <path fill="none" stroke="black" d="M702.56,-372.11C565.77,-360.3 267.74,-324.33 267.74,-235 267.74,-235 267.74,-235 267.74,-161 267.74,-108.22 316.63,-64.76 351.74,-40.36"/>
      <polygon fill="black" stroke="black" points="353.99,-43.06 360.33,-34.57 350.08,-37.25 353.99,-43.06"/>
    </g>
    <g id="edge12" class="edge">
      <title>:core:domain-&gt;:core:common</title>
      <path fill="none" stroke="black" d="M832.55,-369.63C879.69,-362.41 944.94,-348.76 997.74,-324 1072.91,-288.75 1103.44,-261.95 1116.74,-180 1125.47,-126.22 1104.24,-101.97 1058.74,-72 1024.62,-49.53 981.05,-36.5 944.24,-28.98"/>
      <polygon fill="black" stroke="black" points="944.53,-25.47 934.05,-27 943.2,-32.34 944.53,-25.47"/>
    </g>
    <g id="edge14" class="edge">
      <title>:core:domain-&gt;:core:ifw-api</title>
      <path fill="none" stroke="black" d="M766.41,-360C759.38,-319.37 746.94,-214.76 788.74,-144 797.08,-129.88 810.84,-118.78 824.61,-110.47"/>
      <polygon fill="black" stroke="black" points="826.61,-113.36 833.6,-105.41 823.17,-107.26 826.61,-113.36"/>
    </g>
    <g id="node11" class="node">
      <title>:core:rule</title>
      <ellipse fill="none" stroke="black" cx="933.74" cy="-306" rx="55.49" ry="18"/>
      <text text-anchor="middle" x="933.74" y="-302.3" font-family="Times,serif" font-size="14.00">:core:rule</text>
    </g>
    <g id="edge15" class="edge">
      <title>:core:domain-&gt;:core:rule</title>
      <path fill="none" stroke="red" stroke-width="2" d="M804.52,-362.15C830.17,-351.21 865.18,-336.26 892.29,-324.69"/>
      <polygon fill="red" stroke="red" stroke-width="2" points="893.69,-327.9 901.52,-320.75 890.95,-321.46 893.69,-327.9"/>
    </g>
    <g id="edge32" class="edge">
      <title>:core:ifw-api-&gt;:core:model</title>
      <path fill="none" stroke="black" d="M811.13,-80.44C792.79,-77.73 772.41,-74.73 753.74,-72 648.64,-56.64 526.57,-39.07 453.06,-28.51"/>
      <polygon fill="black" stroke="black" points="453.42,-25.02 443.02,-27.07 452.42,-31.95 453.42,-25.02"/>
    </g>
    <g id="edge31" class="edge">
      <title>:core:ifw-api-&gt;:core:common</title>
      <path fill="none" stroke="red" stroke-width="2" d="M868.74,-71.7C868.74,-63.98 868.74,-54.71 868.74,-46.11"/>
      <polygon fill="red" stroke="red" stroke-width="2" points="872.24,-46.1 868.74,-36.1 865.24,-46.1 872.24,-46.1"/>
    </g>
    <g id="edge34" class="edge">
      <title>:core:rule-&gt;:core:component-controller</title>
      <path fill="none" stroke="black" d="M933.74,-287.87C933.74,-263.67 933.74,-219.21 933.74,-190.39"/>
      <polygon fill="black" stroke="black" points="937.24,-190.19 933.74,-180.19 930.24,-190.19 937.24,-190.19"/>
    </g>
    <g id="edge35" class="edge">
      <title>:core:rule-&gt;:core:data</title>
      <path fill="none" stroke="red" stroke-width="2" d="M893.46,-293.68C850.5,-281.6 782.36,-262.44 735.7,-249.33"/>
      <polygon fill="red" stroke="red" stroke-width="2" points="736.37,-245.88 725.79,-246.54 734.47,-252.62 736.37,-245.88"/>
    </g>
    <g id="edge33" class="edge">
      <title>:core:rule-&gt;:core:common</title>
      <path fill="none" stroke="black" d="M978.64,-295.49C1006.04,-287.73 1040.21,-274.29 1063.74,-252 1100.27,-217.39 1123.42,-187.28 1097.74,-144 1061.92,-83.65 985.57,-50.56 930.88,-33.84"/>
      <polygon fill="black" stroke="black" points="931.85,-30.48 921.27,-31.01 929.87,-37.19 931.85,-30.48"/>
    </g>
    <g id="edge36" class="edge">
      <title>:core:rule-&gt;:core:ifw-api</title>
      <path fill="none" stroke="black" d="M964.29,-290.74C1018.83,-263.37 1123.24,-201.13 1078.74,-144 1061.56,-121.94 993.45,-107.62 939.39,-99.5"/>
      <polygon fill="black" stroke="black" points="939.88,-96.03 929.48,-98.05 938.87,-102.96 939.88,-96.03"/>
    </g>
    <g id="edge22" class="edge">
      <title>:core:database-&gt;:core:model</title>
      <path fill="none" stroke="black" d="M496.27,-148.55C447.2,-136.39 380.36,-118.24 372.74,-108 359.39,-90.04 365.34,-64.36 373.18,-45.2"/>
      <polygon fill="black" stroke="black" points="376.47,-46.4 377.36,-35.84 370.08,-43.54 376.47,-46.4"/>
    </g>
    <g id="edge24" class="edge">
      <title>:core:datastore-&gt;:core:model</title>
      <path fill="none" stroke="black" d="M612.29,-76C564.28,-63.86 492.8,-45.8 443.23,-33.27"/>
      <polygon fill="black" stroke="black" points="443.86,-29.83 433.31,-30.77 442.15,-36.61 443.86,-29.83"/>
    </g>
    <g id="edge25" class="edge">
      <title>:core:datastore-&gt;:core:common</title>
      <path fill="none" stroke="black" d="M706.22,-74.5C738.56,-63.45 783.21,-48.2 817.53,-36.49"/>
      <polygon fill="black" stroke="black" points="819.04,-39.67 827.37,-33.13 816.78,-33.05 819.04,-39.67"/>
    </g>
    <g id="node15" class="node">
      <title>:core:datastore-proto</title>
      <ellipse fill="none" stroke="black" cx="663.74" cy="-18" rx="108.58" ry="18"/>
      <text text-anchor="middle" x="663.74" y="-14.3" font-family="Times,serif" font-size="14.00">:core:datastore-proto</text>
    </g>
    <g id="edge23" class="edge">
      <title>:core:datastore-&gt;:core:datastore-proto</title>
      <path fill="none" stroke="black" d="M663.74,-71.7C663.74,-63.98 663.74,-54.71 663.74,-46.11"/>
      <polygon fill="black" stroke="black" points="667.24,-46.1 663.74,-36.1 660.24,-46.1 667.24,-46.1"/>
    </g>
    <g id="edge27" class="edge">
      <title>:core:network-&gt;:core:model</title>
      <path fill="none" stroke="black" d="M465.85,-72.76C451.84,-63.24 433.96,-51.09 418.75,-40.75"/>
      <polygon fill="black" stroke="black" points="420.38,-37.63 410.15,-34.91 416.45,-43.42 420.38,-37.63"/>
    </g>
    <g id="edge26" class="edge">
      <title>:core:network-&gt;:core:common</title>
      <path fill="none" stroke="black" d="M544.37,-77.71C554.14,-75.76 564.24,-73.78 573.74,-72 665.95,-54.69 689.47,-53 781.74,-36 788.45,-34.76 795.45,-33.45 802.43,-32.11"/>
      <polygon fill="black" stroke="black" points="803.46,-35.48 812.61,-30.15 802.13,-28.6 803.46,-35.48"/>
    </g>
  </g>
</svg>
