<?xml version="1.0" encoding="UTF-8" standalone="no"?>
<!DOCTYPE svg PUBLIC "-//W3C//DTD SVG 1.1//EN"
 "http://www.w3.org/Graphics/SVG/1.1/DTD/svg11.dtd">
<!-- Generated by graphviz version 2.43.0 (0)
 -->
<!-- Title: G Pages: 1 -->
<svg width="1010pt" height="620pt"
 viewBox="0.00 0.00 1010.00 620.00" xmlns="http://www.w3.org/2000/svg" xmlns:xlink="http://www.w3.org/1999/xlink">
<g id="graph0" class="graph" transform="scale(1 1) rotate(0) translate(4 616)">
<title>G</title>
<polygon fill="white" stroke="transparent" points="-4,4 -4,-616 1006,-616 1006,4 -4,4"/>
<!-- :feature:applist -->
<g id="node1" class="node">
<title>:feature:applist</title>
<ellipse fill="none" stroke="black" cx="554" cy="-594" rx="81.79" ry="18"/>
<text text-anchor="middle" x="554" y="-590.3" font-family="Times,serif" font-size="14.00">:feature:applist</text>
</g>
<!-- :core:ui -->
<g id="node2" class="node">
<title>:core:ui</title>
<ellipse fill="none" stroke="black" cx="705" cy="-522" rx="45.49" ry="18"/>
<text text-anchor="middle" x="705" y="-518.3" font-family="Times,serif" font-size="14.00">:core:ui</text>
</g>
<!-- :feature:applist&#45;&gt;:core:ui -->
<g id="edge1" class="edge">
<title>:feature:applist&#45;&gt;:core:ui</title>
<path fill="none" stroke="red" stroke-width="2" d="M587.51,-577.46C611.14,-566.51 642.8,-551.83 667.31,-540.47"/>
<polygon fill="red" stroke="red" stroke-width="2" points="669.05,-543.52 676.65,-536.14 666.11,-537.17 669.05,-543.52"/>
</g>
<!-- :core:designsystem -->
<g id="node3" class="node">
<title>:core:designsystem</title>
<ellipse fill="none" stroke="black" cx="705" cy="-450" rx="100.98" ry="18"/>
<text text-anchor="middle" x="705" y="-446.3" font-family="Times,serif" font-size="14.00">:core:designsystem</text>
</g>
<!-- :feature:applist&#45;&gt;:core:designsystem -->
<g id="edge2" class="edge">
<title>:feature:applist&#45;&gt;:core:designsystem</title>
<path fill="none" stroke="black" d="M571.91,-576.15C598.71,-550.96 649.31,-503.37 679.81,-474.68"/>
<polygon fill="black" stroke="black" points="682.22,-477.23 687.11,-467.82 677.43,-472.13 682.22,-477.23"/>
</g>
<!-- :core:component&#45;controller -->
<g id="node4" class="node">
<title>:core:component&#45;controller</title>
<ellipse fill="none" stroke="black" cx="240" cy="-234" rx="135.68" ry="18"/>
<text text-anchor="middle" x="240" y="-230.3" font-family="Times,serif" font-size="14.00">:core:component&#45;controller</text>
</g>
<!-- :feature:applist&#45;&gt;:core:component&#45;controller -->
<g id="edge3" class="edge">
<title>:feature:applist&#45;&gt;:core:component&#45;controller</title>
<path fill="none" stroke="black" d="M479.57,-586.42C345.23,-572.48 76,-534.16 76,-451 76,-451 76,-451 76,-377 76,-317.51 138.45,-277.37 186.27,-255.35"/>
<polygon fill="black" stroke="black" points="187.91,-258.45 195.62,-251.19 185.06,-252.06 187.91,-258.45"/>
</g>
<!-- :core:data -->
<g id="node5" class="node">
<title>:core:data</title>
<ellipse fill="none" stroke="black" cx="564" cy="-306" rx="57.39" ry="18"/>
<text text-anchor="middle" x="564" y="-302.3" font-family="Times,serif" font-size="14.00">:core:data</text>
</g>
<!-- :feature:applist&#45;&gt;:core:data -->
<g id="edge4" class="edge">
<title>:feature:applist&#45;&gt;:core:data</title>
<path fill="none" stroke="black" d="M554.6,-575.97C556.26,-528.29 560.99,-393.18 563.03,-334.63"/>
<polygon fill="black" stroke="black" points="566.54,-334.42 563.39,-324.31 559.55,-334.18 566.54,-334.42"/>
</g>
<!-- :core:domain -->
<g id="node6" class="node">
<title>:core:domain</title>
<ellipse fill="none" stroke="black" cx="459" cy="-450" rx="70.69" ry="18"/>
<text text-anchor="middle" x="459" y="-446.3" font-family="Times,serif" font-size="14.00">:core:domain</text>
</g>
<!-- :feature:applist&#45;&gt;:core:domain -->
<g id="edge5" class="edge">
<title>:feature:applist&#45;&gt;:core:domain</title>
<path fill="none" stroke="black" d="M542.73,-576.15C526.16,-551.39 495.11,-504.97 475.83,-476.16"/>
<polygon fill="black" stroke="black" points="478.73,-474.19 470.26,-467.82 472.91,-478.08 478.73,-474.19"/>
</g>
<!-- :core:ifw&#45;api -->
<g id="node7" class="node">
<title>:core:ifw&#45;api</title>
<ellipse fill="none" stroke="black" cx="76" cy="-162" rx="67.69" ry="18"/>
<text text-anchor="middle" x="76" y="-158.3" font-family="Times,serif" font-size="14.00">:core:ifw&#45;api</text>
</g>
<!-- :feature:applist&#45;&gt;:core:ifw&#45;api -->
<g id="edge6" class="edge">
<title>:feature:applist&#45;&gt;:core:ifw&#45;api</title>
<path fill="none" stroke="black" d="M476.44,-588.18C370.01,-580.77 184.72,-564.77 122,-540 59.58,-515.34 0,-518.12 0,-451 0,-451 0,-451 0,-305 0,-259.39 30.86,-214.25 53.25,-187.5"/>
<polygon fill="black" stroke="black" points="56,-189.67 59.88,-179.81 50.7,-185.09 56,-189.67"/>
</g>
<!-- :core:ui&#45;&gt;:core:designsystem -->
<g id="edge8" class="edge">
<title>:core:ui&#45;&gt;:core:designsystem</title>
<path fill="none" stroke="black" d="M705,-503.7C705,-495.98 705,-486.71 705,-478.11"/>
<polygon fill="black" stroke="black" points="708.5,-478.1 705,-468.1 701.5,-478.1 708.5,-478.1"/>
</g>
<!-- :core:ui&#45;&gt;:core:domain -->
<g id="edge10" class="edge">
<title>:core:ui&#45;&gt;:core:domain</title>
<path fill="none" stroke="red" stroke-width="2" d="M669.23,-510.82C628.55,-499.25 561.64,-480.21 514.24,-466.72"/>
<polygon fill="red" stroke="red" stroke-width="2" points="515.02,-463.3 504.44,-463.93 513.1,-470.03 515.02,-463.3"/>
</g>
<!-- :core:analytics -->
<g id="node8" class="node">
<title>:core:analytics</title>
<ellipse fill="none" stroke="black" cx="896" cy="-234" rx="77.99" ry="18"/>
<text text-anchor="middle" x="896" y="-230.3" font-family="Times,serif" font-size="14.00">:core:analytics</text>
</g>
<!-- :core:ui&#45;&gt;:core:analytics -->
<g id="edge7" class="edge">
<title>:core:ui&#45;&gt;:core:analytics</title>
<path fill="none" stroke="black" d="M741.68,-511.34C765.53,-503.33 795.67,-489.68 815,-468 868.81,-407.65 887.31,-309.59 893.31,-262.27"/>
<polygon fill="black" stroke="black" points="896.8,-262.51 894.5,-252.17 889.85,-261.69 896.8,-262.51"/>
</g>
<!-- :core:model -->
<g id="node9" class="node">
<title>:core:model</title>
<ellipse fill="none" stroke="black" cx="515" cy="-18" rx="64.99" ry="18"/>
<text text-anchor="middle" x="515" y="-14.3" font-family="Times,serif" font-size="14.00">:core:model</text>
</g>
<!-- :core:ui&#45;&gt;:core:model -->
<g id="edge9" class="edge">
<title>:core:ui&#45;&gt;:core:model</title>
<path fill="none" stroke="black" d="M750.11,-519.47C833.19,-514 1002,-489.31 1002,-379 1002,-379 1002,-379 1002,-161 1002,-117.99 998.44,-97.77 964,-72 906.64,-29.08 702.77,-20.42 590.51,-18.99"/>
<polygon fill="black" stroke="black" points="590.31,-15.48 580.27,-18.87 590.23,-22.48 590.31,-15.48"/>
</g>
<!-- :core:component&#45;controller&#45;&gt;:core:ifw&#45;api -->
<g id="edge32" class="edge">
<title>:core:component&#45;controller&#45;&gt;:core:ifw&#45;api</title>
<path fill="none" stroke="red" stroke-width="2" d="M201.55,-216.59C177.04,-206.13 145.21,-192.54 119.73,-181.67"/>
<polygon fill="red" stroke="red" stroke-width="2" points="120.88,-178.35 110.31,-177.64 118.13,-184.79 120.88,-178.35"/>
</g>
<!-- :core:component&#45;controller&#45;&gt;:core:model -->
<g id="edge31" class="edge">
<title>:core:component&#45;controller&#45;&gt;:core:model</title>
<path fill="none" stroke="black" d="M240.08,-215.8C241.21,-182.84 248.58,-110.63 290,-72 312.53,-50.99 388.96,-36.12 446.54,-27.58"/>
<polygon fill="black" stroke="black" points="447.3,-31 456.69,-26.11 446.3,-24.08 447.3,-31"/>
</g>
<!-- :core:common -->
<g id="node10" class="node">
<title>:core:common</title>
<ellipse fill="none" stroke="black" cx="374" cy="-90" rx="75.29" ry="18"/>
<text text-anchor="middle" x="374" y="-86.3" font-family="Times,serif" font-size="14.00">:core:common</text>
</g>
<!-- :core:component&#45;controller&#45;&gt;:core:common -->
<g id="edge30" class="edge">
<title>:core:component&#45;controller&#45;&gt;:core:common</title>
<path fill="none" stroke="black" d="M256.16,-215.87C279.83,-190.79 324.04,-143.95 351.06,-115.31"/>
<polygon fill="black" stroke="black" points="353.88,-117.42 358.2,-107.75 348.79,-112.62 353.88,-117.42"/>
</g>
<!-- :core:data&#45;&gt;:core:component&#45;controller -->
<g id="edge22" class="edge">
<title>:core:data&#45;&gt;:core:component&#45;controller</title>
<path fill="none" stroke="red" stroke-width="2" d="M518.27,-295.12C466.19,-283.87 380.24,-265.3 317.62,-251.77"/>
<polygon fill="red" stroke="red" stroke-width="2" points="318.3,-248.34 307.78,-249.64 316.82,-255.18 318.3,-248.34"/>
</g>
<!-- :core:data&#45;&gt;:core:analytics -->
<g id="edge21" class="edge">
<title>:core:data&#45;&gt;:core:analytics</title>
<path fill="none" stroke="black" d="M610.16,-295.27C667.41,-283.2 765.38,-262.54 830.41,-248.83"/>
<polygon fill="black" stroke="black" points="831.49,-252.18 840.55,-246.69 830.05,-245.33 831.49,-252.18"/>
</g>
<!-- :core:data&#45;&gt;:core:common -->
<g id="edge17" class="edge">
<title>:core:data&#45;&gt;:core:common</title>
<path fill="none" stroke="black" d="M552.41,-288.1C531.23,-257.73 484.07,-192.58 437,-144 426.78,-133.45 414.6,-122.82 403.7,-113.89"/>
<polygon fill="black" stroke="black" points="405.64,-110.96 395.66,-107.41 401.25,-116.41 405.64,-110.96"/>
</g>
<!-- :core:database -->
<g id="node12" class="node">
<title>:core:database</title>
<ellipse fill="none" stroke="black" cx="857" cy="-90" rx="78.79" ry="18"/>
<text text-anchor="middle" x="857" y="-86.3" font-family="Times,serif" font-size="14.00">:core:database</text>
</g>
<!-- :core:data&#45;&gt;:core:database -->
<g id="edge18" class="edge">
<title>:core:data&#45;&gt;:core:database</title>
<path fill="none" stroke="black" d="M596.97,-291.13C664.06,-262.66 811.5,-198.75 828,-180 843.22,-162.71 850.48,-137.28 853.92,-118.03"/>
<polygon fill="black" stroke="black" points="857.39,-118.47 855.47,-108.05 850.48,-117.4 857.39,-118.47"/>
</g>
<!-- :core:datastore -->
<g id="node13" class="node">
<title>:core:datastore</title>
<ellipse fill="none" stroke="black" cx="738" cy="-162" rx="81.49" ry="18"/>
<text text-anchor="middle" x="738" y="-158.3" font-family="Times,serif" font-size="14.00">:core:datastore</text>
</g>
<!-- :core:data&#45;&gt;:core:datastore -->
<g id="edge19" class="edge">
<title>:core:data&#45;&gt;:core:datastore</title>
<path fill="none" stroke="black" d="M583.62,-288.99C614.4,-263.87 674.15,-215.11 709.61,-186.17"/>
<polygon fill="black" stroke="black" points="712.11,-188.65 717.64,-179.61 707.68,-183.22 712.11,-188.65"/>
</g>
<!-- :core:network -->
<g id="node14" class="node">
<title>:core:network</title>
<ellipse fill="none" stroke="black" cx="564" cy="-162" rx="74.99" ry="18"/>
<text text-anchor="middle" x="564" y="-158.3" font-family="Times,serif" font-size="14.00">:core:network</text>
</g>
<!-- :core:data&#45;&gt;:core:network -->
<g id="edge20" class="edge">
<title>:core:data&#45;&gt;:core:network</title>
<path fill="none" stroke="black" d="M564,-287.87C564,-263.67 564,-219.21 564,-190.39"/>
<polygon fill="black" stroke="black" points="567.5,-190.19 564,-180.19 560.5,-190.19 567.5,-190.19"/>
</g>
<!-- :core:domain&#45;&gt;:core:component&#45;controller -->
<g id="edge14" class="edge">
<title>:core:domain&#45;&gt;:core:component&#45;controller</title>
<path fill="none" stroke="black" d="M395.07,-442.17C361.39,-435.48 321.67,-422.23 295,-396 258.17,-359.77 245.99,-297.89 241.97,-262.33"/>
<polygon fill="black" stroke="black" points="245.44,-261.8 240.97,-252.19 238.47,-262.49 245.44,-261.8"/>
</g>
<!-- :core:domain&#45;&gt;:core:data -->
<g id="edge11" class="edge">
<title>:core:domain&#45;&gt;:core:data</title>
<path fill="none" stroke="black" d="M471.14,-432.21C484.14,-414.28 505.41,-385.04 524,-360 530.87,-350.74 538.48,-340.63 545.2,-331.74"/>
<polygon fill="black" stroke="black" points="548.07,-333.74 551.32,-323.66 542.49,-329.52 548.07,-333.74"/>
</g>
<!-- :core:domain&#45;&gt;:core:ifw&#45;api -->
<g id="edge15" class="edge">
<title>:core:domain&#45;&gt;:core:ifw&#45;api</title>
<path fill="none" stroke="black" d="M401.76,-439.27C331.2,-424.78 210.87,-391.64 131,-324 100.27,-297.98 88.9,-290.15 76,-252 69.29,-232.15 69.69,-208.35 71.55,-190.36"/>
<polygon fill="black" stroke="black" points="75.04,-190.61 72.8,-180.26 68.1,-189.75 75.04,-190.61"/>
</g>
<!-- :core:domain&#45;&gt;:core:model -->
<g id="edge12" class="edge">
<title>:core:domain&#45;&gt;:core:model</title>
<path fill="none" stroke="black" d="M483.17,-433.05C545.06,-392.08 714.03,-279.35 851,-180 902.51,-142.64 987.15,-119.67 945,-72 921.84,-45.81 705.59,-29.71 588.88,-22.86"/>
<polygon fill="black" stroke="black" points="588.78,-19.34 578.59,-22.26 588.37,-26.33 588.78,-19.34"/>
</g>
<!-- :core:domain&#45;&gt;:core:common -->
<g id="edge13" class="edge">
<title>:core:domain&#45;&gt;:core:common</title>
<path fill="none" stroke="black" d="M456.96,-431.79C451.08,-384.8 432.32,-250.66 398,-144 395.15,-135.15 391.25,-125.82 387.42,-117.49"/>
<polygon fill="black" stroke="black" points="390.49,-115.79 383.03,-108.27 384.17,-118.8 390.49,-115.79"/>
</g>
<!-- :core:rule -->
<g id="node11" class="node">
<title>:core:rule</title>
<ellipse fill="none" stroke="black" cx="359" cy="-378" rx="55.49" ry="18"/>
<text text-anchor="middle" x="359" y="-374.3" font-family="Times,serif" font-size="14.00">:core:rule</text>
</g>
<!-- :core:domain&#45;&gt;:core:rule -->
<g id="edge16" class="edge">
<title>:core:domain&#45;&gt;:core:rule</title>
<path fill="none" stroke="red" stroke-width="2" d="M435.81,-432.76C422.11,-423.18 404.6,-410.92 389.76,-400.53"/>
<polygon fill="red" stroke="red" stroke-width="2" points="391.58,-397.53 381.38,-394.67 387.56,-403.27 391.58,-397.53"/>
</g>
<!-- :core:ifw&#45;api&#45;&gt;:core:common -->
<g id="edge33" class="edge">
<title>:core:ifw&#45;api&#45;&gt;:core:common</title>
<path fill="none" stroke="red" stroke-width="2" d="M124.87,-149.52C176.09,-137.49 256.69,-118.56 312.27,-105.5"/>
<polygon fill="red" stroke="red" stroke-width="2" points="313.41,-108.83 322.35,-103.13 311.81,-102.01 313.41,-108.83"/>
</g>
<!-- :core:common&#45;&gt;:core:model -->
<g id="edge23" class="edge">
<title>:core:common&#45;&gt;:core:model</title>
<path fill="none" stroke="red" stroke-width="2" d="M405.29,-73.46C426.02,-63.17 453.38,-49.59 475.59,-38.56"/>
<polygon fill="red" stroke="red" stroke-width="2" points="477.36,-41.59 484.76,-34.01 474.25,-35.32 477.36,-41.59"/>
</g>
<!-- :core:rule&#45;&gt;:core:component&#45;controller -->
<g id="edge35" class="edge">
<title>:core:rule&#45;&gt;:core:component&#45;controller</title>
<path fill="none" stroke="black" d="M345.12,-360.43C324.47,-335.8 285.51,-289.3 261.26,-260.37"/>
<polygon fill="black" stroke="black" points="263.64,-257.76 254.54,-252.35 258.28,-262.26 263.64,-257.76"/>
</g>
<!-- :core:rule&#45;&gt;:core:data -->
<g id="edge36" class="edge">
<title>:core:rule&#45;&gt;:core:data</title>
<path fill="none" stroke="red" stroke-width="2" d="M395.65,-364.49C429.59,-352.9 480.22,-335.61 517.1,-323.02"/>
<polygon fill="red" stroke="red" stroke-width="2" points="518.3,-326.3 526.63,-319.76 516.03,-319.68 518.3,-326.3"/>
</g>
<!-- :core:rule&#45;&gt;:core:ifw&#45;api -->
<g id="edge37" class="edge">
<title>:core:rule&#45;&gt;:core:ifw&#45;api</title>
<path fill="none" stroke="black" d="M312.46,-368.16C252.63,-354.26 149.91,-321.39 95,-252 81.25,-234.62 76.86,-209.57 75.71,-190.47"/>
<polygon fill="black" stroke="black" points="79.2,-190.16 75.36,-180.29 72.2,-190.4 79.2,-190.16"/>
</g>
<!-- :core:rule&#45;&gt;:core:common -->
<g id="edge34" class="edge">
<title>:core:rule&#45;&gt;:core:common</title>
<path fill="none" stroke="black" d="M363.75,-359.79C370.09,-335.84 380.98,-291.03 385,-252 389.82,-205.18 383.57,-150.47 378.71,-118.39"/>
<polygon fill="black" stroke="black" points="382.16,-117.76 377.14,-108.43 375.24,-118.85 382.16,-117.76"/>
</g>
<!-- :core:database&#45;&gt;:core:model -->
<g id="edge24" class="edge">
<title>:core:database&#45;&gt;:core:model</title>
<path fill="none" stroke="black" d="M800.53,-77.44C738.49,-64.74 639.22,-44.43 575.59,-31.4"/>
<polygon fill="black" stroke="black" points="576.19,-27.95 565.7,-29.38 574.79,-34.81 576.19,-27.95"/>
</g>
<!-- :core:datastore&#45;&gt;:core:model -->
<g id="edge26" class="edge">
<title>:core:datastore&#45;&gt;:core:model</title>
<path fill="none" stroke="black" d="M680.35,-149.25C623.71,-137.2 544.28,-118.74 534,-108 518.42,-91.72 514.3,-65.97 513.71,-46.34"/>
<polygon fill="black" stroke="black" points="517.21,-46.16 513.69,-36.17 510.21,-46.17 517.21,-46.16"/>
</g>
<!-- :core:datastore&#45;&gt;:core:common -->
<g id="edge27" class="edge">
<title>:core:datastore&#45;&gt;:core:common</title>
<path fill="none" stroke="black" d="M678.71,-149.6C613.56,-137.07 509.14,-116.99 441.06,-103.9"/>
<polygon fill="black" stroke="black" points="441.35,-100.39 430.87,-101.94 440.03,-107.26 441.35,-100.39"/>
</g>
<!-- :core:datastore&#45;proto -->
<g id="node15" class="node">
<title>:core:datastore&#45;proto</title>
<ellipse fill="none" stroke="black" cx="652" cy="-90" rx="108.58" ry="18"/>
<text text-anchor="middle" x="652" y="-86.3" font-family="Times,serif" font-size="14.00">:core:datastore&#45;proto</text>
</g>
<!-- :core:datastore&#45;&gt;:core:datastore&#45;proto -->
<g id="edge25" class="edge">
<title>:core:datastore&#45;&gt;:core:datastore&#45;proto</title>
<path fill="none" stroke="black" d="M717.62,-144.41C706.56,-135.41 692.71,-124.14 680.59,-114.27"/>
<polygon fill="black" stroke="black" points="682.5,-111.31 672.53,-107.71 678.08,-116.74 682.5,-111.31"/>
</g>
<!-- :core:network&#45;&gt;:core:model -->
<g id="edge29" class="edge">
<title>:core:network&#45;&gt;:core:model</title>
<path fill="none" stroke="black" d="M535.68,-145.18C522.53,-136.17 508.24,-123.55 501,-108 491.81,-88.26 496.76,-63.67 503.18,-45.34"/>
<polygon fill="black" stroke="black" points="506.5,-46.46 506.82,-35.87 499.97,-43.95 506.5,-46.46"/>
</g>
<!-- :core:network&#45;&gt;:core:common -->
<g id="edge28" class="edge">
<title>:core:network&#45;&gt;:core:common</title>
<path fill="none" stroke="black" d="M524.63,-146.5C495.08,-135.61 454.44,-120.64 422.82,-108.99"/>
<polygon fill="black" stroke="black" points="423.91,-105.66 413.32,-105.49 421.49,-112.23 423.91,-105.66"/>
</g>
</g>
</svg>
