<?xml version="1.0" encoding="UTF-8" standalone="no"?>
<!DOCTYPE svg PUBLIC "-//W3C//DTD SVG 1.1//EN"
 "http://www.w3.org/Graphics/SVG/1.1/DTD/svg11.dtd">
<!-- Generated by graphviz version 2.43.0 (0)
 -->
<!-- Title: G Pages: 1 -->
<svg width="1160pt" height="620pt"
 viewBox="0.00 0.00 1159.74 620.00" xmlns="http://www.w3.org/2000/svg" xmlns:xlink="http://www.w3.org/1999/xlink">
<g id="graph0" class="graph" transform="scale(1 1) rotate(0) translate(4 616)">
<title>G</title>
<polygon fill="white" stroke="transparent" points="-4,4 -4,-616 1155.74,-616 1155.74,4 -4,4"/>
<!-- :feature:applist -->
<g id="node1" class="node">
<title>:feature:applist</title>
<ellipse fill="none" stroke="black" cx="502" cy="-594" rx="81.79" ry="18"/>
<text text-anchor="middle" x="502" y="-590.3" font-family="Times,serif" font-size="14.00">:feature:applist</text>
</g>
<!-- :core:ui -->
<g id="node2" class="node">
<title>:core:ui</title>
<ellipse fill="none" stroke="black" cx="801" cy="-522" rx="45.49" ry="18"/>
<text text-anchor="middle" x="801" y="-518.3" font-family="Times,serif" font-size="14.00">:core:ui</text>
</g>
<!-- :feature:applist&#45;&gt;:core:ui -->
<g id="edge1" class="edge">
<title>:feature:applist&#45;&gt;:core:ui</title>
<path fill="none" stroke="red" stroke-width="2" d="M555.8,-580.4C611.87,-567.28 698.93,-546.9 752.82,-534.28"/>
<polygon fill="red" stroke="red" stroke-width="2" points="753.87,-537.63 762.81,-531.94 752.27,-530.81 753.87,-537.63"/>
</g>
<!-- :core:designsystem -->
<g id="node3" class="node">
<title>:core:designsystem</title>
<ellipse fill="none" stroke="black" cx="1051" cy="-450" rx="100.98" ry="18"/>
<text text-anchor="middle" x="1051" y="-446.3" font-family="Times,serif" font-size="14.00">:core:designsystem</text>
</g>
<!-- :feature:applist&#45;&gt;:core:designsystem -->
<g id="edge2" class="edge">
<title>:feature:applist&#45;&gt;:core:designsystem</title>
<path fill="none" stroke="black" d="M578.73,-587.64C651.14,-581.15 762.15,-567.47 855,-540 912.23,-523.07 974.33,-492.63 1012.95,-472.12"/>
<polygon fill="black" stroke="black" points="1014.62,-475.2 1021.78,-467.39 1011.31,-469.03 1014.62,-475.2"/>
</g>
<!-- :core:component&#45;controller -->
<g id="node4" class="node">
<title>:core:component&#45;controller</title>
<ellipse fill="none" stroke="black" cx="278" cy="-234" rx="135.68" ry="18"/>
<text text-anchor="middle" x="278" y="-230.3" font-family="Times,serif" font-size="14.00">:core:component&#45;controller</text>
</g>
<!-- :feature:applist&#45;&gt;:core:component&#45;controller -->
<g id="edge3" class="edge">
<title>:feature:applist&#45;&gt;:core:component&#45;controller</title>
<path fill="none" stroke="black" d="M437.06,-582.99C326.6,-564.12 114,-518.96 114,-451 114,-451 114,-451 114,-377 114,-317.51 176.45,-277.37 224.27,-255.35"/>
<polygon fill="black" stroke="black" points="225.91,-258.45 233.62,-251.19 223.06,-252.06 225.91,-258.45"/>
</g>
<!-- :core:data -->
<g id="node5" class="node">
<title>:core:data</title>
<ellipse fill="none" stroke="black" cx="527" cy="-306" rx="57.39" ry="18"/>
<text text-anchor="middle" x="527" y="-302.3" font-family="Times,serif" font-size="14.00">:core:data</text>
</g>
<!-- :feature:applist&#45;&gt;:core:data -->
<g id="edge4" class="edge">
<title>:feature:applist&#45;&gt;:core:data</title>
<path fill="none" stroke="black" d="M503.49,-575.97C507.66,-528.29 519.47,-393.18 524.58,-334.63"/>
<polygon fill="black" stroke="black" points="528.1,-334.57 525.49,-324.31 521.13,-333.96 528.1,-334.57"/>
</g>
<!-- :core:domain -->
<g id="node6" class="node">
<title>:core:domain</title>
<ellipse fill="none" stroke="black" cx="417" cy="-450" rx="70.69" ry="18"/>
<text text-anchor="middle" x="417" y="-446.3" font-family="Times,serif" font-size="14.00">:core:domain</text>
</g>
<!-- :feature:applist&#45;&gt;:core:domain -->
<g id="edge5" class="edge">
<title>:feature:applist&#45;&gt;:core:domain</title>
<path fill="none" stroke="black" d="M491.75,-575.87C477.01,-551.24 449.71,-505.64 432.49,-476.88"/>
<polygon fill="black" stroke="black" points="435.43,-474.97 427.29,-468.19 429.42,-478.57 435.43,-474.97"/>
</g>
<!-- :core:ifw&#45;api -->
<g id="node7" class="node">
<title>:core:ifw&#45;api</title>
<ellipse fill="none" stroke="black" cx="114" cy="-162" rx="67.69" ry="18"/>
<text text-anchor="middle" x="114" y="-158.3" font-family="Times,serif" font-size="14.00">:core:ifw&#45;api</text>
</g>
<!-- :feature:applist&#45;&gt;:core:ifw&#45;api -->
<g id="edge6" class="edge">
<title>:feature:applist&#45;&gt;:core:ifw&#45;api</title>
<path fill="none" stroke="black" d="M420.75,-591.3C349.33,-587.31 243.86,-575.25 159,-540 97.35,-514.39 38,-517.76 38,-451 38,-451 38,-451 38,-305 38,-259.39 68.86,-214.25 91.25,-187.5"/>
<polygon fill="black" stroke="black" points="94,-189.67 97.88,-179.81 88.7,-185.09 94,-189.67"/>
</g>
<!-- :core:ui&#45;&gt;:core:designsystem -->
<g id="edge8" class="edge">
<title>:core:ui&#45;&gt;:core:designsystem</title>
<path fill="none" stroke="black" d="M837.09,-510.9C876.93,-499.74 941.78,-481.58 989.64,-468.18"/>
<polygon fill="black" stroke="black" points="990.6,-471.55 999.28,-465.48 988.71,-464.81 990.6,-471.55"/>
</g>
<!-- :core:ui&#45;&gt;:core:domain -->
<g id="edge10" class="edge">
<title>:core:ui&#45;&gt;:core:domain</title>
<path fill="none" stroke="red" stroke-width="2" d="M760.63,-513.64C694.52,-501.59 562.57,-477.54 482.79,-462.99"/>
<polygon fill="red" stroke="red" stroke-width="2" points="483.32,-459.53 472.85,-461.18 482.06,-466.42 483.32,-459.53"/>
</g>
<!-- :core:analytics -->
<g id="node8" class="node">
<title>:core:analytics</title>
<ellipse fill="none" stroke="black" cx="801" cy="-234" rx="77.99" ry="18"/>
<text text-anchor="middle" x="801" y="-230.3" font-family="Times,serif" font-size="14.00">:core:analytics</text>
</g>
<!-- :core:ui&#45;&gt;:core:analytics -->
<g id="edge7" class="edge">
<title>:core:ui&#45;&gt;:core:analytics</title>
<path fill="none" stroke="black" d="M801,-503.97C801,-456.29 801,-321.18 801,-262.63"/>
<polygon fill="black" stroke="black" points="804.5,-262.31 801,-252.31 797.5,-262.31 804.5,-262.31"/>
</g>
<!-- :core:model -->
<g id="node9" class="node">
<title>:core:model</title>
<ellipse fill="none" stroke="black" cx="746" cy="-18" rx="64.99" ry="18"/>
<text text-anchor="middle" x="746" y="-14.3" font-family="Times,serif" font-size="14.00">:core:model</text>
</g>
<!-- :core:ui&#45;&gt;:core:model -->
<g id="edge9" class="edge">
<title>:core:ui&#45;&gt;:core:model</title>
<path fill="none" stroke="black" d="M821.02,-505.71C860.59,-473.59 945,-394.77 945,-307 945,-307 945,-307 945,-161 945,-118.66 941.74,-101.12 911,-72 885.17,-47.53 847.99,-34.36 815.46,-27.27"/>
<polygon fill="black" stroke="black" points="816.03,-23.81 805.53,-25.26 814.64,-30.67 816.03,-23.81"/>
</g>
<!-- :core:designsystem&#45;&gt;:core:model -->
<g id="edge11" class="edge">
<title>:core:designsystem&#45;&gt;:core:model</title>
<path fill="none" stroke="black" d="M1046.35,-431.66C1039.62,-405.05 1028,-352.45 1028,-307 1028,-307 1028,-307 1028,-161 1028,-67.11 901.75,-35.29 818.2,-24.51"/>
<polygon fill="black" stroke="black" points="818.58,-21.03 808.24,-23.3 817.74,-27.98 818.58,-21.03"/>
</g>
<!-- :core:component&#45;controller&#45;&gt;:core:ifw&#45;api -->
<g id="edge33" class="edge">
<title>:core:component&#45;controller&#45;&gt;:core:ifw&#45;api</title>
<path fill="none" stroke="red" stroke-width="2" d="M239.55,-216.59C215.04,-206.13 183.21,-192.54 157.73,-181.67"/>
<polygon fill="red" stroke="red" stroke-width="2" points="158.88,-178.35 148.31,-177.64 156.13,-184.79 158.88,-178.35"/>
</g>
<!-- :core:component&#45;controller&#45;&gt;:core:model -->
<g id="edge32" class="edge">
<title>:core:component&#45;controller&#45;&gt;:core:model</title>
<path fill="none" stroke="black" d="M263.8,-215.61C239.18,-183.28 194.61,-113.44 232,-72 260.84,-40.03 535.54,-26.2 671.09,-21.29"/>
<polygon fill="black" stroke="black" points="671.53,-24.77 681.4,-20.92 671.28,-17.78 671.53,-24.77"/>
</g>
<!-- :core:common -->
<g id="node10" class="node">
<title>:core:common</title>
<ellipse fill="none" stroke="black" cx="316" cy="-90" rx="75.29" ry="18"/>
<text text-anchor="middle" x="316" y="-86.3" font-family="Times,serif" font-size="14.00">:core:common</text>
</g>
<!-- :core:component&#45;controller&#45;&gt;:core:common -->
<g id="edge31" class="edge">
<title>:core:component&#45;controller&#45;&gt;:core:common</title>
<path fill="none" stroke="black" d="M282.58,-215.87C289.09,-191.56 301.06,-146.82 308.77,-118.01"/>
<polygon fill="black" stroke="black" points="312.2,-118.75 311.4,-108.19 305.43,-116.94 312.2,-118.75"/>
</g>
<!-- :core:data&#45;&gt;:core:component&#45;controller -->
<g id="edge23" class="edge">
<title>:core:data&#45;&gt;:core:component&#45;controller</title>
<path fill="none" stroke="red" stroke-width="2" d="M485.88,-293.44C447.02,-282.52 388.09,-265.95 342.89,-253.24"/>
<polygon fill="red" stroke="red" stroke-width="2" points="343.75,-249.85 333.17,-250.51 341.85,-256.59 343.75,-249.85"/>
</g>
<!-- :core:data&#45;&gt;:core:analytics -->
<g id="edge22" class="edge">
<title>:core:data&#45;&gt;:core:analytics</title>
<path fill="none" stroke="black" d="M569.81,-294.06C615.77,-282.32 689.13,-263.58 740.86,-250.36"/>
<polygon fill="black" stroke="black" points="741.76,-253.75 750.58,-247.88 740.03,-246.96 741.76,-253.75"/>
</g>
<!-- :core:data&#45;&gt;:core:common -->
<g id="edge18" class="edge">
<title>:core:data&#45;&gt;:core:common</title>
<path fill="none" stroke="black" d="M514.88,-288.17C492.2,-257.35 440.83,-190.73 388,-144 375.72,-133.14 361.32,-122.22 348.63,-113.13"/>
<polygon fill="black" stroke="black" points="350.36,-110.07 340.17,-107.16 346.32,-115.79 350.36,-110.07"/>
</g>
<!-- :core:database -->
<g id="node12" class="node">
<title>:core:database</title>
<ellipse fill="none" stroke="black" cx="800" cy="-90" rx="78.79" ry="18"/>
<text text-anchor="middle" x="800" y="-86.3" font-family="Times,serif" font-size="14.00">:core:database</text>
</g>
<!-- :core:data&#45;&gt;:core:database -->
<g id="edge19" class="edge">
<title>:core:data&#45;&gt;:core:database</title>
<path fill="none" stroke="black" d="M557.79,-290.58C623.36,-259.77 771.45,-189.51 779,-180 792.84,-162.56 797.82,-137.52 799.49,-118.43"/>
<polygon fill="black" stroke="black" points="803,-118.46 800.13,-108.26 796.01,-118.03 803,-118.46"/>
</g>
<!-- :core:datastore -->
<g id="node13" class="node">
<title>:core:datastore</title>
<ellipse fill="none" stroke="black" cx="521" cy="-162" rx="81.49" ry="18"/>
<text text-anchor="middle" x="521" y="-158.3" font-family="Times,serif" font-size="14.00">:core:datastore</text>
</g>
<!-- :core:data&#45;&gt;:core:datastore -->
<g id="edge20" class="edge">
<title>:core:data&#45;&gt;:core:datastore</title>
<path fill="none" stroke="black" d="M526.28,-287.87C525.25,-263.67 523.38,-219.21 522.16,-190.39"/>
<polygon fill="black" stroke="black" points="525.65,-190.03 521.73,-180.19 518.65,-190.33 525.65,-190.03"/>
</g>
<!-- :core:network -->
<g id="node14" class="node">
<title>:core:network</title>
<ellipse fill="none" stroke="black" cx="695" cy="-162" rx="74.99" ry="18"/>
<text text-anchor="middle" x="695" y="-158.3" font-family="Times,serif" font-size="14.00">:core:network</text>
</g>
<!-- :core:data&#45;&gt;:core:network -->
<g id="edge21" class="edge">
<title>:core:data&#45;&gt;:core:network</title>
<path fill="none" stroke="black" d="M545.95,-288.99C575.74,-263.81 633.66,-214.85 667.86,-185.94"/>
<polygon fill="black" stroke="black" points="670.23,-188.52 675.61,-179.39 665.71,-183.17 670.23,-188.52"/>
</g>
<!-- :core:domain&#45;&gt;:core:component&#45;controller -->
<g id="edge15" class="edge">
<title>:core:domain&#45;&gt;:core:component&#45;controller</title>
<path fill="none" stroke="black" d="M387.13,-433.42C371.92,-424.25 354.13,-411.41 342,-396 309.93,-355.27 292.03,-296.41 283.76,-262.29"/>
<polygon fill="black" stroke="black" points="287.08,-261.09 281.41,-252.14 280.26,-262.67 287.08,-261.09"/>
</g>
<!-- :core:domain&#45;&gt;:core:data -->
<g id="edge12" class="edge">
<title>:core:domain&#45;&gt;:core:data</title>
<path fill="none" stroke="black" d="M435.67,-432.23C446.31,-422.23 459.56,-408.98 470,-396 486.24,-375.82 501.9,-350.84 512.68,-332.48"/>
<polygon fill="black" stroke="black" points="515.72,-334.21 517.71,-323.8 509.67,-330.7 515.72,-334.21"/>
</g>
<!-- :core:domain&#45;&gt;:core:ifw&#45;api -->
<g id="edge16" class="edge">
<title>:core:domain&#45;&gt;:core:ifw&#45;api</title>
<path fill="none" stroke="black" d="M375.2,-435.29C322.27,-416.42 230.21,-378.49 166,-324 135.9,-298.46 126.14,-289.56 114,-252 107.55,-232.06 107.94,-208.27 109.72,-190.3"/>
<polygon fill="black" stroke="black" points="113.22,-190.56 110.93,-180.22 106.27,-189.73 113.22,-190.56"/>
</g>
<!-- :core:domain&#45;&gt;:core:model -->
<g id="edge13" class="edge">
<title>:core:domain&#45;&gt;:core:model</title>
<path fill="none" stroke="black" d="M483.59,-443.7C617.57,-431.21 907,-394.13 907,-307 907,-307 907,-307 907,-161 907,-120.55 914.42,-102.62 888,-72 868.86,-49.82 839.51,-36.91 812.46,-29.4"/>
<polygon fill="black" stroke="black" points="813.17,-25.97 802.61,-26.87 811.43,-32.75 813.17,-25.97"/>
</g>
<!-- :core:domain&#45;&gt;:core:common -->
<g id="edge14" class="edge">
<title>:core:domain&#45;&gt;:core:common</title>
<path fill="none" stroke="black" d="M355.02,-441.04C238.86,-424.37 0,-381.09 0,-307 0,-307 0,-307 0,-233 0,-190.16 3.75,-171.01 37,-144 66.91,-119.7 164.31,-105.32 235.63,-97.8"/>
<polygon fill="black" stroke="black" points="236.37,-101.24 245.96,-96.74 235.65,-94.28 236.37,-101.24"/>
</g>
<!-- :core:rule -->
<g id="node11" class="node">
<title>:core:rule</title>
<ellipse fill="none" stroke="black" cx="406" cy="-378" rx="55.49" ry="18"/>
<text text-anchor="middle" x="406" y="-374.3" font-family="Times,serif" font-size="14.00">:core:rule</text>
</g>
<!-- :core:domain&#45;&gt;:core:rule -->
<g id="edge17" class="edge">
<title>:core:domain&#45;&gt;:core:rule</title>
<path fill="none" stroke="red" stroke-width="2" d="M414.28,-431.7C413.07,-423.98 411.61,-414.71 410.26,-406.11"/>
<polygon fill="red" stroke="red" stroke-width="2" points="413.7,-405.44 408.69,-396.1 406.78,-406.53 413.7,-405.44"/>
</g>
<!-- :core:ifw&#45;api&#45;&gt;:core:common -->
<g id="edge34" class="edge">
<title>:core:ifw&#45;api&#45;&gt;:core:common</title>
<path fill="none" stroke="red" stroke-width="2" d="M153.43,-147.34C185.44,-136.24 230.79,-120.53 265.46,-108.51"/>
<polygon fill="red" stroke="red" stroke-width="2" points="266.64,-111.81 274.94,-105.23 264.34,-105.2 266.64,-111.81"/>
</g>
<!-- :core:common&#45;&gt;:core:model -->
<g id="edge24" class="edge">
<title>:core:common&#45;&gt;:core:model</title>
<path fill="none" stroke="red" stroke-width="2" d="M372.44,-77.91C383.24,-75.88 394.46,-73.83 405,-72 500.18,-55.52 610.72,-38.78 679.53,-28.64"/>
<polygon fill="red" stroke="red" stroke-width="2" points="680.4,-32.05 689.79,-27.13 679.38,-25.12 680.4,-32.05"/>
</g>
<!-- :core:rule&#45;&gt;:core:component&#45;controller -->
<g id="edge36" class="edge">
<title>:core:rule&#45;&gt;:core:component&#45;controller</title>
<path fill="none" stroke="black" d="M391.07,-360.43C368.64,-335.56 326.13,-288.4 300.11,-259.53"/>
<polygon fill="black" stroke="black" points="302.53,-256.99 293.24,-251.9 297.33,-261.67 302.53,-256.99"/>
</g>
<!-- :core:rule&#45;&gt;:core:data -->
<g id="edge37" class="edge">
<title>:core:rule&#45;&gt;:core:data</title>
<path fill="none" stroke="red" stroke-width="2" d="M431.96,-361.98C449.46,-351.86 472.77,-338.37 491.92,-327.29"/>
<polygon fill="red" stroke="red" stroke-width="2" points="493.76,-330.27 500.67,-322.23 490.26,-324.21 493.76,-330.27"/>
</g>
<!-- :core:rule&#45;&gt;:core:ifw&#45;api -->
<g id="edge38" class="edge">
<title>:core:rule&#45;&gt;:core:ifw&#45;api</title>
<path fill="none" stroke="black" d="M358.44,-368.75C296.69,-355.45 190.07,-323.17 133,-252 119.14,-234.71 114.76,-209.65 113.64,-190.53"/>
<polygon fill="black" stroke="black" points="117.13,-190.21 113.31,-180.33 110.13,-190.44 117.13,-190.21"/>
</g>
<!-- :core:rule&#45;&gt;:core:common -->
<g id="edge35" class="edge">
<title>:core:rule&#45;&gt;:core:common</title>
<path fill="none" stroke="black" d="M412.99,-359.8C424.19,-329.52 442.98,-265.22 423,-216 414.61,-195.32 402.81,-196.69 388,-180 369.41,-159.05 349.47,-134.19 335.29,-116.08"/>
<polygon fill="black" stroke="black" points="337.74,-113.52 328.83,-107.78 332.21,-117.82 337.74,-113.52"/>
</g>
<!-- :core:database&#45;&gt;:core:model -->
<g id="edge25" class="edge">
<title>:core:database&#45;&gt;:core:model</title>
<path fill="none" stroke="black" d="M786.93,-72.05C780.43,-63.63 772.44,-53.28 765.26,-43.97"/>
<polygon fill="black" stroke="black" points="767.83,-41.57 758.95,-35.79 762.29,-45.84 767.83,-41.57"/>
</g>
<!-- :core:datastore&#45;&gt;:core:model -->
<g id="edge27" class="edge">
<title>:core:datastore&#45;&gt;:core:model</title>
<path fill="none" stroke="black" d="M481.8,-146.17C465.16,-137.69 447.45,-125.24 438,-108 430.31,-93.97 427.69,-84.24 438,-72 467.25,-37.28 589.87,-25.31 671.29,-21.18"/>
<polygon fill="black" stroke="black" points="671.68,-24.66 681.5,-20.69 671.35,-17.67 671.68,-24.66"/>
</g>
<!-- :core:datastore&#45;&gt;:core:common -->
<g id="edge28" class="edge">
<title>:core:datastore&#45;&gt;:core:common</title>
<path fill="none" stroke="black" d="M478.52,-146.5C446.18,-135.45 401.53,-120.2 367.21,-108.49"/>
<polygon fill="black" stroke="black" points="367.97,-105.05 357.37,-105.13 365.7,-111.67 367.97,-105.05"/>
</g>
<!-- :core:datastore&#45;proto -->
<g id="node15" class="node">
<title>:core:datastore&#45;proto</title>
<ellipse fill="none" stroke="black" cx="556" cy="-90" rx="108.58" ry="18"/>
<text text-anchor="middle" x="556" y="-86.3" font-family="Times,serif" font-size="14.00">:core:datastore&#45;proto</text>
</g>
<!-- :core:datastore&#45;&gt;:core:datastore&#45;proto -->
<g id="edge26" class="edge">
<title>:core:datastore&#45;&gt;:core:datastore&#45;proto</title>
<path fill="none" stroke="black" d="M529.47,-144.05C533.5,-136.01 538.4,-126.2 542.89,-117.23"/>
<polygon fill="black" stroke="black" points="546.02,-118.78 547.36,-108.28 539.76,-115.65 546.02,-118.78"/>
</g>
<!-- :core:network&#45;&gt;:core:model -->
<g id="edge30" class="edge">
<title>:core:network&#45;&gt;:core:model</title>
<path fill="none" stroke="black" d="M696.34,-143.73C698.21,-125.39 702.5,-95.82 712,-72 715.85,-62.35 721.52,-52.57 727.14,-44.08"/>
<polygon fill="black" stroke="black" points="730.08,-45.97 732.89,-35.75 724.32,-41.99 730.08,-45.97"/>
</g>
<!-- :core:network&#45;&gt;:core:common -->
<g id="edge29" class="edge">
<title>:core:network&#45;&gt;:core:common</title>
<path fill="none" stroke="black" d="M639.91,-149.67C630.28,-147.74 620.35,-145.79 611,-144 533.81,-129.26 445.04,-113.47 385.21,-102.99"/>
<polygon fill="black" stroke="black" points="385.57,-99.5 375.12,-101.23 384.37,-106.4 385.57,-99.5"/>
</g>
</g>
</svg>
