<?xml version="1.0" encoding="UTF-8" standalone="no"?>
<!DOCTYPE svg PUBLIC "-//W3C//DTD SVG 1.1//EN"
 "http://www.w3.org/Graphics/SVG/1.1/DTD/svg11.dtd">
<!-- Generated by graphviz version 2.43.0 (0)
 -->
<!-- Title: G Pages: 1 -->
<svg width="972pt" height="476pt"
 viewBox="0.00 0.00 972.39 476.00" xmlns="http://www.w3.org/2000/svg" xmlns:xlink="http://www.w3.org/1999/xlink">
<g id="graph0" class="graph" transform="scale(1 1) rotate(0) translate(4 472)">
<title>G</title>
<polygon fill="white" stroke="transparent" points="-4,4 -4,-472 968.39,-472 968.39,4 -4,4"/>
<!-- :core:domain -->
<g id="node1" class="node">
<title>:core:domain</title>
<ellipse fill="none" stroke="black" cx="849.39" cy="-450" rx="70.69" ry="18"/>
<text text-anchor="middle" x="849.39" y="-446.3" font-family="Times,serif" font-size="14.00">:core:domain</text>
</g>
<!-- :core:data -->
<g id="node2" class="node">
<title>:core:data</title>
<ellipse fill="none" stroke="black" cx="408.39" cy="-306" rx="57.39" ry="18"/>
<text text-anchor="middle" x="408.39" y="-302.3" font-family="Times,serif" font-size="14.00">:core:data</text>
</g>
<!-- :core:domain&#45;&gt;:core:data -->
<g id="edge1" class="edge">
<title>:core:domain&#45;&gt;:core:data</title>
<path fill="none" stroke="black" d="M793.65,-438.66C747.26,-429.42 679.78,-414.5 622.39,-396 559.9,-375.86 490.14,-345.24 447.75,-325.68"/>
<polygon fill="black" stroke="black" points="449.17,-322.48 438.62,-321.44 446.22,-328.83 449.17,-322.48"/>
</g>
<!-- :core:model -->
<g id="node3" class="node">
<title>:core:model</title>
<ellipse fill="none" stroke="black" cx="488.39" cy="-18" rx="64.99" ry="18"/>
<text text-anchor="middle" x="488.39" y="-14.3" font-family="Times,serif" font-size="14.00">:core:model</text>
</g>
<!-- :core:domain&#45;&gt;:core:model -->
<g id="edge2" class="edge">
<title>:core:domain&#45;&gt;:core:model</title>
<path fill="none" stroke="black" d="M875.2,-433.02C909.1,-409.8 964.39,-363.31 964.39,-307 964.39,-307 964.39,-307 964.39,-161 964.39,-77.58 692.55,-39.15 559.73,-25.35"/>
<polygon fill="black" stroke="black" points="559.94,-21.85 549.64,-24.32 559.23,-28.82 559.94,-21.85"/>
</g>
<!-- :core:common -->
<g id="node4" class="node">
<title>:core:common</title>
<ellipse fill="none" stroke="black" cx="540.39" cy="-90" rx="75.29" ry="18"/>
<text text-anchor="middle" x="540.39" y="-86.3" font-family="Times,serif" font-size="14.00">:core:common</text>
</g>
<!-- :core:domain&#45;&gt;:core:common -->
<g id="edge3" class="edge">
<title>:core:domain&#45;&gt;:core:common</title>
<path fill="none" stroke="black" d="M865.72,-432.23C888.32,-407.17 926.39,-357.48 926.39,-307 926.39,-307 926.39,-307 926.39,-233 926.39,-189.07 918.7,-170.13 883.39,-144 843.32,-114.35 711.77,-100.89 623.73,-95.07"/>
<polygon fill="black" stroke="black" points="623.69,-91.56 613.49,-94.42 623.24,-98.55 623.69,-91.56"/>
</g>
<!-- :core:component&#45;controller -->
<g id="node5" class="node">
<title>:core:component&#45;controller</title>
<ellipse fill="none" stroke="black" cx="686.39" cy="-234" rx="135.68" ry="18"/>
<text text-anchor="middle" x="686.39" y="-230.3" font-family="Times,serif" font-size="14.00">:core:component&#45;controller</text>
</g>
<!-- :core:domain&#45;&gt;:core:component&#45;controller -->
<g id="edge4" class="edge">
<title>:core:domain&#45;&gt;:core:component&#45;controller</title>
<path fill="none" stroke="black" d="M836.6,-432.21C808.1,-394.8 739.26,-304.42 705.59,-260.21"/>
<polygon fill="black" stroke="black" points="708.19,-257.84 699.34,-252.01 702.62,-262.09 708.19,-257.84"/>
</g>
<!-- :core:ifw&#45;api -->
<g id="node6" class="node">
<title>:core:ifw&#45;api</title>
<ellipse fill="none" stroke="black" cx="806.39" cy="-162" rx="67.69" ry="18"/>
<text text-anchor="middle" x="806.39" y="-158.3" font-family="Times,serif" font-size="14.00">:core:ifw&#45;api</text>
</g>
<!-- :core:domain&#45;&gt;:core:ifw&#45;api -->
<g id="edge5" class="edge">
<title>:core:domain&#45;&gt;:core:ifw&#45;api</title>
<path fill="none" stroke="black" d="M852.99,-431.98C860.56,-392.61 875.29,-292.73 848.39,-216 844.74,-205.59 838.11,-195.68 831.18,-187.31"/>
<polygon fill="black" stroke="black" points="833.77,-184.96 824.53,-179.78 828.53,-189.6 833.77,-184.96"/>
</g>
<!-- :core:rule -->
<g id="node7" class="node">
<title>:core:rule</title>
<ellipse fill="none" stroke="black" cx="686.39" cy="-378" rx="55.49" ry="18"/>
<text text-anchor="middle" x="686.39" y="-374.3" font-family="Times,serif" font-size="14.00">:core:rule</text>
</g>
<!-- :core:domain&#45;&gt;:core:rule -->
<g id="edge6" class="edge">
<title>:core:domain&#45;&gt;:core:rule</title>
<path fill="none" stroke="red" stroke-width="2" d="M814.82,-434.15C789.43,-423.25 754.83,-408.39 727.94,-396.85"/>
<polygon fill="red" stroke="red" stroke-width="2" points="728.98,-393.48 718.41,-392.75 726.22,-399.92 728.98,-393.48"/>
</g>
<!-- :core:data&#45;&gt;:core:common -->
<g id="edge7" class="edge">
<title>:core:data&#45;&gt;:core:common</title>
<path fill="none" stroke="black" d="M429.56,-289.2C441.37,-279.52 455.62,-266.27 465.39,-252 494.57,-209.37 485.4,-190.27 508.39,-144 512.88,-134.95 518.39,-125.4 523.56,-116.94"/>
<polygon fill="black" stroke="black" points="526.65,-118.6 528.98,-108.26 520.72,-114.89 526.65,-118.6"/>
</g>
<!-- :core:data&#45;&gt;:core:component&#45;controller -->
<g id="edge12" class="edge">
<title>:core:data&#45;&gt;:core:component&#45;controller</title>
<path fill="none" stroke="red" stroke-width="2" d="M451.52,-294.14C495.51,-283.06 564.46,-265.7 616.3,-252.65"/>
<polygon fill="red" stroke="red" stroke-width="2" points="617.26,-256.02 626.1,-250.18 615.55,-249.23 617.26,-256.02"/>
</g>
<!-- :core:database -->
<g id="node8" class="node">
<title>:core:database</title>
<ellipse fill="none" stroke="black" cx="330.39" cy="-90" rx="78.79" ry="18"/>
<text text-anchor="middle" x="330.39" y="-86.3" font-family="Times,serif" font-size="14.00">:core:database</text>
</g>
<!-- :core:data&#45;&gt;:core:database -->
<g id="edge8" class="edge">
<title>:core:data&#45;&gt;:core:database</title>
<path fill="none" stroke="black" d="M357.6,-297.59C330.09,-290.7 298.34,-277.45 281.39,-252 252.98,-209.37 286.47,-149.61 310.4,-116.18"/>
<polygon fill="black" stroke="black" points="313.4,-118.01 316.53,-107.89 307.77,-113.85 313.4,-118.01"/>
</g>
<!-- :core:datastore -->
<g id="node9" class="node">
<title>:core:datastore</title>
<ellipse fill="none" stroke="black" cx="125.39" cy="-162" rx="81.49" ry="18"/>
<text text-anchor="middle" x="125.39" y="-158.3" font-family="Times,serif" font-size="14.00">:core:datastore</text>
</g>
<!-- :core:data&#45;&gt;:core:datastore -->
<g id="edge9" class="edge">
<title>:core:data&#45;&gt;:core:datastore</title>
<path fill="none" stroke="black" d="M357.56,-297.46C318.21,-290.06 263.36,-276.25 220.39,-252 190.98,-235.4 163.54,-207.86 145.78,-187.81"/>
<polygon fill="black" stroke="black" points="148.21,-185.26 139.02,-179.99 142.92,-189.84 148.21,-185.26"/>
</g>
<!-- :core:network -->
<g id="node10" class="node">
<title>:core:network</title>
<ellipse fill="none" stroke="black" cx="381.39" cy="-162" rx="74.99" ry="18"/>
<text text-anchor="middle" x="381.39" y="-158.3" font-family="Times,serif" font-size="14.00">:core:network</text>
</g>
<!-- :core:data&#45;&gt;:core:network -->
<g id="edge10" class="edge">
<title>:core:data&#45;&gt;:core:network</title>
<path fill="none" stroke="black" d="M360.3,-296.15C335.19,-288.82 306.61,-275.61 291.39,-252 282.72,-238.55 283.45,-229.89 291.39,-216 299.96,-201.01 314.61,-189.84 329.63,-181.72"/>
<polygon fill="black" stroke="black" points="331.59,-184.65 338.97,-177.05 328.46,-178.38 331.59,-184.65"/>
</g>
<!-- :core:analytics -->
<g id="node11" class="node">
<title>:core:analytics</title>
<ellipse fill="none" stroke="black" cx="378.39" cy="-234" rx="77.99" ry="18"/>
<text text-anchor="middle" x="378.39" y="-230.3" font-family="Times,serif" font-size="14.00">:core:analytics</text>
</g>
<!-- :core:data&#45;&gt;:core:analytics -->
<g id="edge11" class="edge">
<title>:core:data&#45;&gt;:core:analytics</title>
<path fill="none" stroke="black" d="M401.13,-288.05C397.71,-280.09 393.56,-270.41 389.75,-261.51"/>
<polygon fill="black" stroke="black" points="392.95,-260.09 385.79,-252.28 386.51,-262.85 392.95,-260.09"/>
</g>
<!-- :core:common&#45;&gt;:core:model -->
<g id="edge13" class="edge">
<title>:core:common&#45;&gt;:core:model</title>
<path fill="none" stroke="red" stroke-width="2" d="M527.8,-72.05C521.54,-63.63 513.85,-53.28 506.93,-43.97"/>
<polygon fill="red" stroke="red" stroke-width="2" points="509.63,-41.73 500.86,-35.79 504.01,-45.9 509.63,-41.73"/>
</g>
<!-- :core:component&#45;controller&#45;&gt;:core:model -->
<g id="edge21" class="edge">
<title>:core:component&#45;controller&#45;&gt;:core:model</title>
<path fill="none" stroke="black" d="M684.38,-215.99C679.7,-183.67 665.18,-112.96 624.39,-72 604.49,-52.02 576.19,-39.4 550.55,-31.51"/>
<polygon fill="black" stroke="black" points="551.46,-28.13 540.88,-28.71 549.52,-34.85 551.46,-28.13"/>
</g>
<!-- :core:component&#45;controller&#45;&gt;:core:common -->
<g id="edge20" class="edge">
<title>:core:component&#45;controller&#45;&gt;:core:common</title>
<path fill="none" stroke="black" d="M668.78,-215.87C642.88,-190.68 594.41,-143.55 565,-114.94"/>
<polygon fill="black" stroke="black" points="567.22,-112.21 557.61,-107.75 562.34,-117.23 567.22,-112.21"/>
</g>
<!-- :core:component&#45;controller&#45;&gt;:core:ifw&#45;api -->
<g id="edge22" class="edge">
<title>:core:component&#45;controller&#45;&gt;:core:ifw&#45;api</title>
<path fill="none" stroke="red" stroke-width="2" d="M715.13,-216.23C731.78,-206.52 752.89,-194.21 770.61,-183.87"/>
<polygon fill="red" stroke="red" stroke-width="2" points="772.65,-186.73 779.52,-178.67 769.12,-180.69 772.65,-186.73"/>
</g>
<!-- :core:ifw&#45;api&#45;&gt;:core:common -->
<g id="edge23" class="edge">
<title>:core:ifw&#45;api&#45;&gt;:core:common</title>
<path fill="none" stroke="red" stroke-width="2" d="M760.05,-148.81C715.35,-137.04 647.52,-119.19 599.06,-106.44"/>
<polygon fill="red" stroke="red" stroke-width="2" points="599.9,-103.04 589.34,-103.88 598.12,-109.81 599.9,-103.04"/>
</g>
<!-- :core:rule&#45;&gt;:core:data -->
<g id="edge26" class="edge">
<title>:core:rule&#45;&gt;:core:data</title>
<path fill="none" stroke="red" stroke-width="2" d="M644.16,-366.37C595.22,-354.04 514.49,-333.72 461.38,-320.34"/>
<polygon fill="red" stroke="red" stroke-width="2" points="462.02,-316.89 451.46,-317.85 460.31,-323.68 462.02,-316.89"/>
</g>
<!-- :core:rule&#45;&gt;:core:common -->
<g id="edge24" class="edge">
<title>:core:rule&#45;&gt;:core:common</title>
<path fill="none" stroke="black" d="M657.85,-362.39C622.91,-342.71 565.43,-304.05 541.39,-252 521.29,-208.5 527.66,-151.05 534.06,-117.85"/>
<polygon fill="black" stroke="black" points="537.51,-118.47 536.11,-107.97 530.66,-117.05 537.51,-118.47"/>
</g>
<!-- :core:rule&#45;&gt;:core:component&#45;controller -->
<g id="edge25" class="edge">
<title>:core:rule&#45;&gt;:core:component&#45;controller</title>
<path fill="none" stroke="black" d="M686.39,-359.87C686.39,-335.67 686.39,-291.21 686.39,-262.39"/>
<polygon fill="black" stroke="black" points="689.89,-262.19 686.39,-252.19 682.89,-262.19 689.89,-262.19"/>
</g>
<!-- :core:rule&#45;&gt;:core:ifw&#45;api -->
<g id="edge27" class="edge">
<title>:core:rule&#45;&gt;:core:ifw&#45;api</title>
<path fill="none" stroke="black" d="M714.98,-362.41C749.97,-342.76 807.5,-304.12 831.39,-252 840.72,-231.62 832.43,-206.99 822.97,-188.81"/>
<polygon fill="black" stroke="black" points="825.94,-186.96 818,-179.95 819.84,-190.38 825.94,-186.96"/>
</g>
<!-- :core:database&#45;&gt;:core:model -->
<g id="edge14" class="edge">
<title>:core:database&#45;&gt;:core:model</title>
<path fill="none" stroke="black" d="M365.06,-73.64C388.9,-63.08 420.71,-48.98 446.05,-37.76"/>
<polygon fill="black" stroke="black" points="447.69,-40.86 455.42,-33.61 444.85,-34.46 447.69,-40.86"/>
</g>
<!-- :core:datastore&#45;&gt;:core:model -->
<g id="edge16" class="edge">
<title>:core:datastore&#45;&gt;:core:model</title>
<path fill="none" stroke="black" d="M67.43,-149.29C44.7,-141.56 20.87,-128.83 7.39,-108 -1.31,-94.57 -3.29,-83.92 7.39,-72 33.99,-42.3 285.7,-27.5 413.98,-21.84"/>
<polygon fill="black" stroke="black" points="414.29,-25.33 424.13,-21.4 413.98,-18.33 414.29,-25.33"/>
</g>
<!-- :core:datastore&#45;&gt;:core:common -->
<g id="edge17" class="edge">
<title>:core:datastore&#45;&gt;:core:common</title>
<path fill="none" stroke="black" d="M187.97,-150.44C263.97,-137.63 391.78,-116.07 470.81,-102.74"/>
<polygon fill="black" stroke="black" points="471.39,-106.19 480.67,-101.07 470.23,-99.28 471.39,-106.19"/>
</g>
<!-- :core:datastore&#45;proto -->
<g id="node12" class="node">
<title>:core:datastore&#45;proto</title>
<ellipse fill="none" stroke="black" cx="125.39" cy="-90" rx="108.58" ry="18"/>
<text text-anchor="middle" x="125.39" y="-86.3" font-family="Times,serif" font-size="14.00">:core:datastore&#45;proto</text>
</g>
<!-- :core:datastore&#45;&gt;:core:datastore&#45;proto -->
<g id="edge15" class="edge">
<title>:core:datastore&#45;&gt;:core:datastore&#45;proto</title>
<path fill="none" stroke="black" d="M125.39,-143.7C125.39,-135.98 125.39,-126.71 125.39,-118.11"/>
<polygon fill="black" stroke="black" points="128.89,-118.1 125.39,-108.1 121.89,-118.1 128.89,-118.1"/>
</g>
<!-- :core:network&#45;&gt;:core:model -->
<g id="edge19" class="edge">
<title>:core:network&#45;&gt;:core:model</title>
<path fill="none" stroke="black" d="M394.08,-144.15C412.74,-119.39 447.72,-72.97 469.43,-44.16"/>
<polygon fill="black" stroke="black" points="472.49,-45.92 475.71,-35.82 466.9,-41.71 472.49,-45.92"/>
</g>
<!-- :core:network&#45;&gt;:core:common -->
<g id="edge18" class="edge">
<title>:core:network&#45;&gt;:core:common</title>
<path fill="none" stroke="black" d="M415.5,-145.98C439.2,-135.55 471.01,-121.54 496.59,-110.28"/>
<polygon fill="black" stroke="black" points="498.32,-113.35 506.06,-106.11 495.5,-106.94 498.32,-113.35"/>
</g>
</g>
</svg>
