<?xml version="1.0" encoding="UTF-8" standalone="no"?>
<!DOCTYPE svg PUBLIC "-//W3C//DTD SVG 1.1//EN"
 "http://www.w3.org/Graphics/SVG/1.1/DTD/svg11.dtd">
<!-- Generated by graphviz version 2.43.0 (0)
 -->
<!-- Title: G Pages: 1 -->
<svg width="908pt" height="404pt"
 viewBox="0.00 0.00 908.46 404.00" xmlns="http://www.w3.org/2000/svg" xmlns:xlink="http://www.w3.org/1999/xlink">
<g id="graph0" class="graph" transform="scale(1 1) rotate(0) translate(4 400)">
<title>G</title>
<polygon fill="white" stroke="transparent" points="-4,4 -4,-400 904.46,-400 904.46,4 -4,4"/>
<!-- :core:rule -->
<g id="node1" class="node">
<title>:core:rule</title>
<ellipse fill="none" stroke="black" cx="91.92" cy="-378" rx="55.49" ry="18"/>
<text text-anchor="middle" x="91.92" y="-374.3" font-family="Times,serif" font-size="14.00">:core:rule</text>
</g>
<!-- :core:common -->
<g id="node2" class="node">
<title>:core:common</title>
<ellipse fill="none" stroke="black" cx="337.92" cy="-90" rx="75.29" ry="18"/>
<text text-anchor="middle" x="337.92" y="-86.3" font-family="Times,serif" font-size="14.00">:core:common</text>
</g>
<!-- :core:rule&#45;&gt;:core:common -->
<g id="edge1" class="edge">
<title>:core:rule&#45;&gt;:core:common</title>
<path fill="none" stroke="black" d="M64.07,-362.3C49.71,-353.22 33.27,-340.21 23.92,-324 -0.17,-282.25 -9.26,-258.26 13.92,-216 60.15,-131.73 174.47,-103.94 254.13,-94.97"/>
<polygon fill="black" stroke="black" points="254.57,-98.44 264.15,-93.91 253.84,-91.48 254.57,-98.44"/>
</g>
<!-- :core:component&#45;controller -->
<g id="node3" class="node">
<title>:core:component&#45;controller</title>
<ellipse fill="none" stroke="black" cx="173.92" cy="-234" rx="135.68" ry="18"/>
<text text-anchor="middle" x="173.92" y="-230.3" font-family="Times,serif" font-size="14.00">:core:component&#45;controller</text>
</g>
<!-- :core:rule&#45;&gt;:core:component&#45;controller -->
<g id="edge2" class="edge">
<title>:core:rule&#45;&gt;:core:component&#45;controller</title>
<path fill="none" stroke="black" d="M101.65,-360.15C115.81,-335.63 142.24,-289.87 158.91,-261"/>
<polygon fill="black" stroke="black" points="161.98,-262.68 163.95,-252.27 155.92,-259.18 161.98,-262.68"/>
</g>
<!-- :core:data -->
<g id="node4" class="node">
<title>:core:data</title>
<ellipse fill="none" stroke="black" cx="443.92" cy="-306" rx="57.39" ry="18"/>
<text text-anchor="middle" x="443.92" y="-302.3" font-family="Times,serif" font-size="14.00">:core:data</text>
</g>
<!-- :core:rule&#45;&gt;:core:data -->
<g id="edge3" class="edge">
<title>:core:rule&#45;&gt;:core:data</title>
<path fill="none" stroke="red" stroke-width="2" d="M137.94,-367.85C201.97,-355.12 317.87,-332.07 387.18,-318.28"/>
<polygon fill="red" stroke="red" stroke-width="2" points="387.93,-321.7 397.05,-316.32 386.56,-314.84 387.93,-321.7"/>
</g>
<!-- :core:ifw&#45;api -->
<g id="node5" class="node">
<title>:core:ifw&#45;api</title>
<ellipse fill="none" stroke="black" cx="203.92" cy="-162" rx="67.69" ry="18"/>
<text text-anchor="middle" x="203.92" y="-158.3" font-family="Times,serif" font-size="14.00">:core:ifw&#45;api</text>
</g>
<!-- :core:rule&#45;&gt;:core:ifw&#45;api -->
<g id="edge4" class="edge">
<title>:core:rule&#45;&gt;:core:ifw&#45;api</title>
<path fill="none" stroke="black" d="M75.64,-360.52C47.19,-329.7 -5.42,-262.28 28.92,-216 51.49,-185.59 91.02,-172.01 126.81,-166.18"/>
<polygon fill="black" stroke="black" points="127.39,-169.64 136.78,-164.74 126.38,-162.71 127.39,-169.64"/>
</g>
<!-- :core:model -->
<g id="node6" class="node">
<title>:core:model</title>
<ellipse fill="none" stroke="black" cx="440.92" cy="-18" rx="64.99" ry="18"/>
<text text-anchor="middle" x="440.92" y="-14.3" font-family="Times,serif" font-size="14.00">:core:model</text>
</g>
<!-- :core:common&#45;&gt;:core:model -->
<g id="edge5" class="edge">
<title>:core:common&#45;&gt;:core:model</title>
<path fill="none" stroke="red" stroke-width="2" d="M361.81,-72.76C375.82,-63.24 393.7,-51.09 408.92,-40.75"/>
<polygon fill="red" stroke="red" stroke-width="2" points="411.21,-43.42 417.52,-34.91 407.28,-37.63 411.21,-43.42"/>
</g>
<!-- :core:component&#45;controller&#45;&gt;:core:common -->
<g id="edge6" class="edge">
<title>:core:component&#45;controller&#45;&gt;:core:common</title>
<path fill="none" stroke="black" d="M219.39,-216.95C239.77,-208.22 263.17,-195.91 280.92,-180 300.56,-162.4 316.12,-136.51 325.98,-117.19"/>
<polygon fill="black" stroke="black" points="329.21,-118.55 330.49,-108.03 322.93,-115.46 329.21,-118.55"/>
</g>
<!-- :core:component&#45;controller&#45;&gt;:core:ifw&#45;api -->
<g id="edge8" class="edge">
<title>:core:component&#45;controller&#45;&gt;:core:ifw&#45;api</title>
<path fill="none" stroke="red" stroke-width="2" d="M181.34,-215.7C184.72,-207.81 188.79,-198.3 192.55,-189.55"/>
<polygon fill="red" stroke="red" stroke-width="2" points="195.87,-190.67 196.59,-180.1 189.44,-187.92 195.87,-190.67"/>
</g>
<!-- :core:component&#45;controller&#45;&gt;:core:model -->
<g id="edge7" class="edge">
<title>:core:component&#45;controller&#45;&gt;:core:model</title>
<path fill="none" stroke="black" d="M153.15,-216.17C143.17,-206.72 132.25,-194.03 126.92,-180 121.25,-165.04 118.87,-157.82 126.92,-144 175.47,-60.67 291.12,-32.81 367.7,-23.55"/>
<polygon fill="black" stroke="black" points="368.22,-27.01 377.76,-22.41 367.43,-20.06 368.22,-27.01"/>
</g>
<!-- :core:data&#45;&gt;:core:common -->
<g id="edge10" class="edge">
<title>:core:data&#45;&gt;:core:common</title>
<path fill="none" stroke="black" d="M407.83,-291.98C389.55,-283.47 368.77,-270.46 356.92,-252 330.72,-211.18 331.19,-152.35 334.29,-118.26"/>
<polygon fill="black" stroke="black" points="337.79,-118.43 335.36,-108.12 330.83,-117.7 337.79,-118.43"/>
</g>
<!-- :core:data&#45;&gt;:core:component&#45;controller -->
<g id="edge15" class="edge">
<title>:core:data&#45;&gt;:core:component&#45;controller</title>
<path fill="none" stroke="red" stroke-width="2" d="M401.14,-293.91C358.62,-282.89 292.73,-265.8 242.83,-252.86"/>
<polygon fill="red" stroke="red" stroke-width="2" points="243.63,-249.46 233.07,-250.34 241.87,-256.23 243.63,-249.46"/>
</g>
<!-- :core:database -->
<g id="node7" class="node">
<title>:core:database</title>
<ellipse fill="none" stroke="black" cx="547.92" cy="-90" rx="78.79" ry="18"/>
<text text-anchor="middle" x="547.92" y="-86.3" font-family="Times,serif" font-size="14.00">:core:database</text>
</g>
<!-- :core:data&#45;&gt;:core:database -->
<g id="edge11" class="edge">
<title>:core:data&#45;&gt;:core:database</title>
<path fill="none" stroke="black" d="M487.89,-294.35C509.98,-286.53 534.79,-273.43 547.92,-252 573.2,-210.75 564.3,-151.67 555.88,-117.74"/>
<polygon fill="black" stroke="black" points="559.26,-116.84 553.32,-108.06 552.49,-118.63 559.26,-116.84"/>
</g>
<!-- :core:datastore -->
<g id="node8" class="node">
<title>:core:datastore</title>
<ellipse fill="none" stroke="black" cx="696.92" cy="-162" rx="81.49" ry="18"/>
<text text-anchor="middle" x="696.92" y="-158.3" font-family="Times,serif" font-size="14.00">:core:datastore</text>
</g>
<!-- :core:data&#45;&gt;:core:datastore -->
<g id="edge12" class="edge">
<title>:core:data&#45;&gt;:core:datastore</title>
<path fill="none" stroke="black" d="M489.72,-295.18C522.52,-286.87 566.89,-272.91 601.92,-252 630.75,-234.79 658.1,-207.59 675.99,-187.79"/>
<polygon fill="black" stroke="black" points="678.82,-189.87 682.83,-180.07 673.58,-185.23 678.82,-189.87"/>
</g>
<!-- :core:network -->
<g id="node9" class="node">
<title>:core:network</title>
<ellipse fill="none" stroke="black" cx="440.92" cy="-162" rx="74.99" ry="18"/>
<text text-anchor="middle" x="440.92" y="-158.3" font-family="Times,serif" font-size="14.00">:core:network</text>
</g>
<!-- :core:data&#45;&gt;:core:network -->
<g id="edge13" class="edge">
<title>:core:data&#45;&gt;:core:network</title>
<path fill="none" stroke="black" d="M481.34,-292.31C499.77,-283.94 520.27,-270.97 530.92,-252 538.76,-238.05 538.86,-229.89 530.92,-216 522.35,-201.01 507.7,-189.84 492.68,-181.72"/>
<polygon fill="black" stroke="black" points="493.85,-178.38 483.34,-177.05 490.72,-184.65 493.85,-178.38"/>
</g>
<!-- :core:analytics -->
<g id="node10" class="node">
<title>:core:analytics</title>
<ellipse fill="none" stroke="black" cx="443.92" cy="-234" rx="77.99" ry="18"/>
<text text-anchor="middle" x="443.92" y="-230.3" font-family="Times,serif" font-size="14.00">:core:analytics</text>
</g>
<!-- :core:data&#45;&gt;:core:analytics -->
<g id="edge14" class="edge">
<title>:core:data&#45;&gt;:core:analytics</title>
<path fill="none" stroke="black" d="M443.92,-287.7C443.92,-279.98 443.92,-270.71 443.92,-262.11"/>
<polygon fill="black" stroke="black" points="447.42,-262.1 443.92,-252.1 440.42,-262.1 447.42,-262.1"/>
</g>
<!-- :core:ifw&#45;api&#45;&gt;:core:common -->
<g id="edge9" class="edge">
<title>:core:ifw&#45;api&#45;&gt;:core:common</title>
<path fill="none" stroke="red" stroke-width="2" d="M233.33,-145.64C252.66,-135.54 278.16,-122.22 299.14,-111.26"/>
<polygon fill="red" stroke="red" stroke-width="2" points="300.88,-114.3 308.12,-106.57 297.64,-108.1 300.88,-114.3"/>
</g>
<!-- :core:database&#45;&gt;:core:model -->
<g id="edge16" class="edge">
<title>:core:database&#45;&gt;:core:model</title>
<path fill="none" stroke="black" d="M523.11,-72.76C508.42,-63.15 489.63,-50.87 473.73,-40.46"/>
<polygon fill="black" stroke="black" points="475.52,-37.45 465.24,-34.91 471.69,-43.31 475.52,-37.45"/>
</g>
<!-- :core:datastore&#45;&gt;:core:common -->
<g id="edge19" class="edge">
<title>:core:datastore&#45;&gt;:core:common</title>
<path fill="none" stroke="black" d="M638.04,-149.52C573.9,-137.01 471.52,-117.05 404.5,-103.98"/>
<polygon fill="black" stroke="black" points="404.95,-100.5 394.46,-102.02 403.61,-107.37 404.95,-100.5"/>
</g>
<!-- :core:datastore&#45;&gt;:core:model -->
<g id="edge18" class="edge">
<title>:core:datastore&#45;&gt;:core:model</title>
<path fill="none" stroke="black" d="M689.68,-143.86C680.26,-123.64 661.88,-90.44 635.92,-72 599.61,-46.21 551.36,-32.96 511.94,-26.16"/>
<polygon fill="black" stroke="black" points="512.29,-22.67 501.86,-24.53 511.17,-29.58 512.29,-22.67"/>
</g>
<!-- :core:datastore&#45;proto -->
<g id="node11" class="node">
<title>:core:datastore&#45;proto</title>
<ellipse fill="none" stroke="black" cx="791.92" cy="-90" rx="108.58" ry="18"/>
<text text-anchor="middle" x="791.92" y="-86.3" font-family="Times,serif" font-size="14.00">:core:datastore&#45;proto</text>
</g>
<!-- :core:datastore&#45;&gt;:core:datastore&#45;proto -->
<g id="edge17" class="edge">
<title>:core:datastore&#45;&gt;:core:datastore&#45;proto</title>
<path fill="none" stroke="black" d="M719.44,-144.41C731.89,-135.24 747.54,-123.7 761.11,-113.71"/>
<polygon fill="black" stroke="black" points="763.27,-116.46 769.24,-107.71 759.11,-110.83 763.27,-116.46"/>
</g>
<!-- :core:network&#45;&gt;:core:common -->
<g id="edge20" class="edge">
<title>:core:network&#45;&gt;:core:common</title>
<path fill="none" stroke="black" d="M417.03,-144.76C403.12,-135.31 385.4,-123.26 370.25,-112.97"/>
<polygon fill="black" stroke="black" points="371.92,-109.87 361.68,-107.15 367.99,-115.66 371.92,-109.87"/>
</g>
<!-- :core:network&#45;&gt;:core:model -->
<g id="edge21" class="edge">
<title>:core:network&#45;&gt;:core:model</title>
<path fill="none" stroke="black" d="M440.92,-143.87C440.92,-119.67 440.92,-75.21 440.92,-46.39"/>
<polygon fill="black" stroke="black" points="444.42,-46.19 440.92,-36.19 437.42,-46.19 444.42,-46.19"/>
</g>
</g>
</svg>
