<?xml version="1.0" encoding="UTF-8" standalone="no"?>
<!DOCTYPE svg PUBLIC "-//W3C//DTD SVG 1.1//EN"
 "http://www.w3.org/Graphics/SVG/1.1/DTD/svg11.dtd">
<!-- Generated by graphviz version 2.43.0 (0)
 -->
<!-- Title: G Pages: 1 -->
<svg width="1150pt" height="620pt"
 viewBox="0.00 0.00 1149.58 620.00" xmlns="http://www.w3.org/2000/svg" xmlns:xlink="http://www.w3.org/1999/xlink">
<g id="graph0" class="graph" transform="scale(1 1) rotate(0) translate(4 616)">
<title>G</title>
<polygon fill="white" stroke="transparent" points="-4,4 -4,-616 1145.58,-616 1145.58,4 -4,4"/>
<!-- :feature:search -->
<g id="node1" class="node">
<title>:feature:search</title>
<ellipse fill="none" stroke="black" cx="544.84" cy="-594" rx="81.49" ry="18"/>
<text text-anchor="middle" x="544.84" y="-590.3" font-family="Times,serif" font-size="14.00">:feature:search</text>
</g>
<!-- :core:ui -->
<g id="node2" class="node">
<title>:core:ui</title>
<ellipse fill="none" stroke="black" cx="839.84" cy="-522" rx="45.49" ry="18"/>
<text text-anchor="middle" x="839.84" y="-518.3" font-family="Times,serif" font-size="14.00">:core:ui</text>
</g>
<!-- :feature:search&#45;&gt;:core:ui -->
<g id="edge1" class="edge">
<title>:feature:search&#45;&gt;:core:ui</title>
<path fill="none" stroke="red" stroke-width="2" d="M598.26,-580.32C653.48,-567.22 738.89,-546.95 791.97,-534.36"/>
<polygon fill="red" stroke="red" stroke-width="2" points="792.89,-537.74 801.81,-532.02 791.27,-530.93 792.89,-537.74"/>
</g>
<!-- :core:designsystem -->
<g id="node3" class="node">
<title>:core:designsystem</title>
<ellipse fill="none" stroke="black" cx="1040.84" cy="-450" rx="100.98" ry="18"/>
<text text-anchor="middle" x="1040.84" y="-446.3" font-family="Times,serif" font-size="14.00">:core:designsystem</text>
</g>
<!-- :feature:search&#45;&gt;:core:designsystem -->
<g id="edge2" class="edge">
<title>:feature:search&#45;&gt;:core:designsystem</title>
<path fill="none" stroke="black" d="M623.94,-589.82C696.13,-584.88 804.81,-572.25 893.84,-540 937.56,-524.16 982.54,-494.61 1011.03,-473.92"/>
<polygon fill="black" stroke="black" points="1013.35,-476.56 1019.33,-467.81 1009.2,-470.93 1013.35,-476.56"/>
</g>
<!-- :core:component&#45;controller -->
<g id="node4" class="node">
<title>:core:component&#45;controller</title>
<ellipse fill="none" stroke="black" cx="135.84" cy="-234" rx="135.68" ry="18"/>
<text text-anchor="middle" x="135.84" y="-230.3" font-family="Times,serif" font-size="14.00">:core:component&#45;controller</text>
</g>
<!-- :feature:search&#45;&gt;:core:component&#45;controller -->
<g id="edge3" class="edge">
<title>:feature:search&#45;&gt;:core:component&#45;controller</title>
<path fill="none" stroke="black" d="M479,-583.31C366.4,-564.88 148.84,-520.29 148.84,-451 148.84,-451 148.84,-451 148.84,-377 148.84,-336.83 143.61,-290.53 139.79,-262.01"/>
<polygon fill="black" stroke="black" points="143.24,-261.43 138.41,-252 136.31,-262.39 143.24,-261.43"/>
</g>
<!-- :core:data -->
<g id="node5" class="node">
<title>:core:data</title>
<ellipse fill="none" stroke="black" cx="544.84" cy="-306" rx="57.39" ry="18"/>
<text text-anchor="middle" x="544.84" y="-302.3" font-family="Times,serif" font-size="14.00">:core:data</text>
</g>
<!-- :feature:search&#45;&gt;:core:data -->
<g id="edge4" class="edge">
<title>:feature:search&#45;&gt;:core:data</title>
<path fill="none" stroke="black" d="M544.84,-575.97C544.84,-528.29 544.84,-393.18 544.84,-334.63"/>
<polygon fill="black" stroke="black" points="548.34,-334.31 544.84,-324.31 541.34,-334.31 548.34,-334.31"/>
</g>
<!-- :core:domain -->
<g id="node6" class="node">
<title>:core:domain</title>
<ellipse fill="none" stroke="black" cx="431.84" cy="-450" rx="70.69" ry="18"/>
<text text-anchor="middle" x="431.84" y="-446.3" font-family="Times,serif" font-size="14.00">:core:domain</text>
</g>
<!-- :feature:search&#45;&gt;:core:domain -->
<g id="edge5" class="edge">
<title>:feature:search&#45;&gt;:core:domain</title>
<path fill="none" stroke="black" d="M531.43,-576.15C511.64,-551.28 474.47,-504.57 451.56,-475.79"/>
<polygon fill="black" stroke="black" points="454.19,-473.47 445.23,-467.82 448.71,-477.83 454.19,-473.47"/>
</g>
<!-- :core:ui&#45;&gt;:core:designsystem -->
<g id="edge7" class="edge">
<title>:core:ui&#45;&gt;:core:designsystem</title>
<path fill="none" stroke="black" d="M873.03,-509.44C904.15,-498.6 951.19,-482.22 987.56,-469.55"/>
<polygon fill="black" stroke="black" points="988.75,-472.85 997.04,-466.25 986.44,-466.24 988.75,-472.85"/>
</g>
<!-- :core:ui&#45;&gt;:core:domain -->
<g id="edge9" class="edge">
<title>:core:ui&#45;&gt;:core:domain</title>
<path fill="none" stroke="red" stroke-width="2" d="M798.85,-513.97C728.46,-501.89 583.97,-477.1 498.79,-462.49"/>
<polygon fill="red" stroke="red" stroke-width="2" points="499.15,-459 488.7,-460.76 497.97,-465.9 499.15,-459"/>
</g>
<!-- :core:analytics -->
<g id="node7" class="node">
<title>:core:analytics</title>
<ellipse fill="none" stroke="black" cx="839.84" cy="-234" rx="77.99" ry="18"/>
<text text-anchor="middle" x="839.84" y="-230.3" font-family="Times,serif" font-size="14.00">:core:analytics</text>
</g>
<!-- :core:ui&#45;&gt;:core:analytics -->
<g id="edge6" class="edge">
<title>:core:ui&#45;&gt;:core:analytics</title>
<path fill="none" stroke="black" d="M839.84,-503.97C839.84,-456.29 839.84,-321.18 839.84,-262.63"/>
<polygon fill="black" stroke="black" points="843.34,-262.31 839.84,-252.31 836.34,-262.31 843.34,-262.31"/>
</g>
<!-- :core:model -->
<g id="node8" class="node">
<title>:core:model</title>
<ellipse fill="none" stroke="black" cx="579.84" cy="-18" rx="64.99" ry="18"/>
<text text-anchor="middle" x="579.84" y="-14.3" font-family="Times,serif" font-size="14.00">:core:model</text>
</g>
<!-- :core:ui&#45;&gt;:core:model -->
<g id="edge8" class="edge">
<title>:core:ui&#45;&gt;:core:model</title>
<path fill="none" stroke="black" d="M850.57,-504.17C891.12,-438.23 1026.75,-195.14 904.84,-72 870.73,-37.55 739.16,-25.48 654.25,-21.26"/>
<polygon fill="black" stroke="black" points="654.28,-17.76 644.13,-20.79 653.95,-24.75 654.28,-17.76"/>
</g>
<!-- :core:designsystem&#45;&gt;:core:model -->
<g id="edge10" class="edge">
<title>:core:designsystem&#45;&gt;:core:model</title>
<path fill="none" stroke="black" d="M1031.31,-431.66C1017.83,-405.47 994.84,-353.9 994.84,-307 994.84,-307 994.84,-307 994.84,-161 994.84,-118.5 993.22,-98.31 959.84,-72 913.79,-35.72 751.41,-24.27 654.45,-20.66"/>
<polygon fill="black" stroke="black" points="654.53,-17.16 644.41,-20.31 654.28,-24.16 654.53,-17.16"/>
</g>
<!-- :core:component&#45;controller&#45;&gt;:core:model -->
<g id="edge31" class="edge">
<title>:core:component&#45;controller&#45;&gt;:core:model</title>
<path fill="none" stroke="black" d="M139.37,-215.68C143.69,-197.04 152.15,-166.97 165.84,-144 188.21,-106.45 194.2,-92.44 232.84,-72 279.28,-47.44 420.58,-31.92 507.88,-24.4"/>
<polygon fill="black" stroke="black" points="508.32,-27.88 517.99,-23.55 507.73,-20.91 508.32,-27.88"/>
</g>
<!-- :core:common -->
<g id="node9" class="node">
<title>:core:common</title>
<ellipse fill="none" stroke="black" cx="316.84" cy="-90" rx="75.29" ry="18"/>
<text text-anchor="middle" x="316.84" y="-86.3" font-family="Times,serif" font-size="14.00">:core:common</text>
</g>
<!-- :core:component&#45;controller&#45;&gt;:core:common -->
<g id="edge30" class="edge">
<title>:core:component&#45;controller&#45;&gt;:core:common</title>
<path fill="none" stroke="black" d="M145.19,-215.93C156.62,-196.38 177.58,-164.44 202.84,-144 221.23,-129.12 244.49,-117.34 265.19,-108.7"/>
<polygon fill="black" stroke="black" points="266.53,-111.93 274.49,-104.95 263.91,-105.44 266.53,-111.93"/>
</g>
<!-- :core:ifw&#45;api -->
<g id="node10" class="node">
<title>:core:ifw&#45;api</title>
<ellipse fill="none" stroke="black" cx="279.84" cy="-162" rx="67.69" ry="18"/>
<text text-anchor="middle" x="279.84" y="-158.3" font-family="Times,serif" font-size="14.00">:core:ifw&#45;api</text>
</g>
<!-- :core:component&#45;controller&#45;&gt;:core:ifw&#45;api -->
<g id="edge32" class="edge">
<title>:core:component&#45;controller&#45;&gt;:core:ifw&#45;api</title>
<path fill="none" stroke="red" stroke-width="2" d="M169.96,-216.41C190.92,-206.22 217.87,-193.12 239.83,-182.45"/>
<polygon fill="red" stroke="red" stroke-width="2" points="241.44,-185.56 248.9,-178.04 238.38,-179.26 241.44,-185.56"/>
</g>
<!-- :core:data&#45;&gt;:core:component&#45;controller -->
<g id="edge22" class="edge">
<title>:core:data&#45;&gt;:core:component&#45;controller</title>
<path fill="none" stroke="red" stroke-width="2" d="M495.91,-296.63C429.18,-285.21 308.44,-264.54 225.3,-250.31"/>
<polygon fill="red" stroke="red" stroke-width="2" points="225.81,-246.85 215.36,-248.61 224.62,-253.75 225.81,-246.85"/>
</g>
<!-- :core:data&#45;&gt;:core:analytics -->
<g id="edge21" class="edge">
<title>:core:data&#45;&gt;:core:analytics</title>
<path fill="none" stroke="black" d="M589,-294.52C639.12,-282.63 721.21,-263.15 777.75,-249.73"/>
<polygon fill="black" stroke="black" points="778.73,-253.1 787.65,-247.38 777.11,-246.29 778.73,-253.1"/>
</g>
<!-- :core:data&#45;&gt;:core:common -->
<g id="edge17" class="edge">
<title>:core:data&#45;&gt;:core:common</title>
<path fill="none" stroke="black" d="M536.12,-287.8C519.15,-255.78 478.84,-186.43 427.84,-144 410.19,-129.32 387.8,-117.63 367.75,-109"/>
<polygon fill="black" stroke="black" points="369.01,-105.73 358.44,-105.13 366.33,-112.19 369.01,-105.73"/>
</g>
<!-- :core:database -->
<g id="node12" class="node">
<title>:core:database</title>
<ellipse fill="none" stroke="black" cx="526.84" cy="-90" rx="78.79" ry="18"/>
<text text-anchor="middle" x="526.84" y="-86.3" font-family="Times,serif" font-size="14.00">:core:database</text>
</g>
<!-- :core:data&#45;&gt;:core:database -->
<g id="edge18" class="edge">
<title>:core:data&#45;&gt;:core:database</title>
<path fill="none" stroke="black" d="M566.34,-289.23C603.3,-260.15 671.91,-196.23 638.84,-144 627.81,-126.59 609.35,-114.78 590.57,-106.83"/>
<polygon fill="black" stroke="black" points="591.64,-103.49 581.05,-103.12 589.1,-110.01 591.64,-103.49"/>
</g>
<!-- :core:datastore -->
<g id="node13" class="node">
<title>:core:datastore</title>
<ellipse fill="none" stroke="black" cx="766.84" cy="-162" rx="81.49" ry="18"/>
<text text-anchor="middle" x="766.84" y="-158.3" font-family="Times,serif" font-size="14.00">:core:datastore</text>
</g>
<!-- :core:data&#45;&gt;:core:datastore -->
<g id="edge19" class="edge">
<title>:core:data&#45;&gt;:core:datastore</title>
<path fill="none" stroke="black" d="M583.84,-292.81C609.91,-283.7 644.35,-269.78 671.84,-252 699.86,-233.88 727.16,-207.05 745.25,-187.59"/>
<polygon fill="black" stroke="black" points="748.02,-189.75 752.18,-180.01 742.85,-185.03 748.02,-189.75"/>
</g>
<!-- :core:network -->
<g id="node14" class="node">
<title>:core:network</title>
<ellipse fill="none" stroke="black" cx="554.84" cy="-162" rx="74.99" ry="18"/>
<text text-anchor="middle" x="554.84" y="-158.3" font-family="Times,serif" font-size="14.00">:core:network</text>
</g>
<!-- :core:data&#45;&gt;:core:network -->
<g id="edge20" class="edge">
<title>:core:data&#45;&gt;:core:network</title>
<path fill="none" stroke="black" d="M546.04,-287.87C547.75,-263.67 550.88,-219.21 552.91,-190.39"/>
<polygon fill="black" stroke="black" points="556.42,-190.41 553.63,-180.19 549.43,-189.92 556.42,-190.41"/>
</g>
<!-- :core:domain&#45;&gt;:core:component&#45;controller -->
<g id="edge14" class="edge">
<title>:core:domain&#45;&gt;:core:component&#45;controller</title>
<path fill="none" stroke="black" d="M368.82,-441.65C330.95,-434.75 283.37,-421.46 247.84,-396 222.22,-377.65 175.1,-301.68 150.96,-261"/>
<polygon fill="black" stroke="black" points="153.86,-259.01 145.76,-252.17 147.83,-262.57 153.86,-259.01"/>
</g>
<!-- :core:domain&#45;&gt;:core:data -->
<g id="edge11" class="edge">
<title>:core:domain&#45;&gt;:core:data</title>
<path fill="none" stroke="black" d="M445.24,-432.15C465.04,-407.28 502.21,-360.57 525.11,-331.79"/>
<polygon fill="black" stroke="black" points="527.96,-333.83 531.45,-323.82 522.48,-329.47 527.96,-333.83"/>
</g>
<!-- :core:domain&#45;&gt;:core:model -->
<g id="edge12" class="edge">
<title>:core:domain&#45;&gt;:core:model</title>
<path fill="none" stroke="black" d="M455.13,-433C489.41,-409.39 555.37,-363.73 610.84,-324 654.77,-292.53 666.13,-285.12 708.84,-252 728.8,-236.51 730.78,-228.32 752.84,-216 795.54,-192.14 820.81,-213.09 856.84,-180 882.63,-156.31 881.57,-142.26 888.84,-108 892.16,-92.35 899.15,-84.23 888.84,-72 859.44,-37.13 736.12,-25.2 654.44,-21.12"/>
<polygon fill="black" stroke="black" points="654.35,-17.61 644.19,-20.64 654.02,-24.61 654.35,-17.61"/>
</g>
<!-- :core:domain&#45;&gt;:core:common -->
<g id="edge13" class="edge">
<title>:core:domain&#45;&gt;:core:common</title>
<path fill="none" stroke="black" d="M432.43,-431.86C433.34,-383.34 430.79,-242.19 375.84,-144 369.31,-132.34 359.25,-121.9 349.28,-113.44"/>
<polygon fill="black" stroke="black" points="351.36,-110.62 341.37,-107.09 346.97,-116.07 351.36,-110.62"/>
</g>
<!-- :core:domain&#45;&gt;:core:ifw&#45;api -->
<g id="edge15" class="edge">
<title>:core:domain&#45;&gt;:core:ifw&#45;api</title>
<path fill="none" stroke="black" d="M365.98,-443.13C334.79,-436.66 300.2,-423.31 280.84,-396 280.84,-396 280.84,-216 280.84,-216 280.76,-207.68 280.61,-198.63 280.45,-190.4"/>
<polygon fill="black" stroke="black" points="283.95,-190.11 280.24,-180.18 276.95,-190.25 283.95,-190.11"/>
</g>
<!-- :core:rule -->
<g id="node11" class="node">
<title>:core:rule</title>
<ellipse fill="none" stroke="black" cx="344.84" cy="-378" rx="55.49" ry="18"/>
<text text-anchor="middle" x="344.84" y="-374.3" font-family="Times,serif" font-size="14.00">:core:rule</text>
</g>
<!-- :core:domain&#45;&gt;:core:rule -->
<g id="edge16" class="edge">
<title>:core:domain&#45;&gt;:core:rule</title>
<path fill="none" stroke="red" stroke-width="2" d="M411.22,-432.41C399.68,-423.12 385.13,-411.42 372.6,-401.34"/>
<polygon fill="red" stroke="red" stroke-width="2" points="374.69,-398.53 364.71,-394.99 370.31,-403.98 374.69,-398.53"/>
</g>
<!-- :core:common&#45;&gt;:core:model -->
<g id="edge23" class="edge">
<title>:core:common&#45;&gt;:core:model</title>
<path fill="none" stroke="red" stroke-width="2" d="M365.08,-76.16C410.21,-64.15 477.57,-46.22 524.79,-33.65"/>
<polygon fill="red" stroke="red" stroke-width="2" points="525.78,-37.01 534.54,-31.06 523.98,-30.25 525.78,-37.01"/>
</g>
<!-- :core:ifw&#45;api&#45;&gt;:core:common -->
<g id="edge33" class="edge">
<title>:core:ifw&#45;api&#45;&gt;:core:common</title>
<path fill="none" stroke="red" stroke-width="2" d="M288.79,-144.05C293.05,-136.01 298.23,-126.2 302.98,-117.23"/>
<polygon fill="red" stroke="red" stroke-width="2" points="306.13,-118.75 307.71,-108.28 299.94,-115.48 306.13,-118.75"/>
</g>
<!-- :core:rule&#45;&gt;:core:component&#45;controller -->
<g id="edge35" class="edge">
<title>:core:rule&#45;&gt;:core:component&#45;controller</title>
<path fill="none" stroke="black" d="M324.7,-360.86C301.42,-342.47 261.71,-311.87 225.84,-288 209.56,-277.17 191.03,-266.06 175.02,-256.82"/>
<polygon fill="black" stroke="black" points="176.35,-253.55 165.93,-251.62 172.87,-259.63 176.35,-253.55"/>
</g>
<!-- :core:rule&#45;&gt;:core:data -->
<g id="edge36" class="edge">
<title>:core:rule&#45;&gt;:core:data</title>
<path fill="none" stroke="red" stroke-width="2" d="M381.06,-364.32C413.88,-352.84 462.44,-335.84 498.16,-323.34"/>
<polygon fill="red" stroke="red" stroke-width="2" points="499.59,-326.54 507.87,-319.94 497.28,-319.94 499.59,-326.54"/>
</g>
<!-- :core:rule&#45;&gt;:core:common -->
<g id="edge34" class="edge">
<title>:core:rule&#45;&gt;:core:common</title>
<path fill="none" stroke="black" d="M349.84,-360.05C360.55,-320.81 382.7,-221.2 356.84,-144 353.43,-133.83 347.22,-124.06 340.69,-115.73"/>
<polygon fill="black" stroke="black" points="343.26,-113.35 334.15,-107.93 337.9,-117.84 343.26,-113.35"/>
</g>
<!-- :core:rule&#45;&gt;:core:ifw&#45;api -->
<g id="edge37" class="edge">
<title>:core:rule&#45;&gt;:core:ifw&#45;api</title>
<path fill="none" stroke="black" d="M343.68,-359.95C341.19,-329.9 333.81,-265.95 313.84,-216 309.98,-206.36 304.31,-196.57 298.69,-188.08"/>
<polygon fill="black" stroke="black" points="301.51,-185.99 292.94,-179.76 295.75,-189.97 301.51,-185.99"/>
</g>
<!-- :core:database&#45;&gt;:core:model -->
<g id="edge24" class="edge">
<title>:core:database&#45;&gt;:core:model</title>
<path fill="none" stroke="black" d="M539.67,-72.05C546.05,-63.63 553.88,-53.28 560.93,-43.97"/>
<polygon fill="black" stroke="black" points="563.88,-45.87 567.13,-35.79 558.3,-41.65 563.88,-45.87"/>
</g>
<!-- :core:datastore&#45;&gt;:core:model -->
<g id="edge26" class="edge">
<title>:core:datastore&#45;&gt;:core:model</title>
<path fill="none" stroke="black" d="M724.5,-146.59C701.86,-137.64 674.31,-124.65 652.84,-108 629.83,-90.16 609.37,-63.8 596,-44.4"/>
<polygon fill="black" stroke="black" points="598.86,-42.38 590.38,-36.03 593.05,-46.28 598.86,-42.38"/>
</g>
<!-- :core:datastore&#45;&gt;:core:common -->
<g id="edge27" class="edge">
<title>:core:datastore&#45;&gt;:core:common</title>
<path fill="none" stroke="black" d="M702.36,-150.97C619.14,-138.03 474.78,-115.57 388.3,-102.12"/>
<polygon fill="black" stroke="black" points="388.72,-98.64 378.3,-100.56 387.65,-105.56 388.72,-98.64"/>
</g>
<!-- :core:datastore&#45;proto -->
<g id="node15" class="node">
<title>:core:datastore&#45;proto</title>
<ellipse fill="none" stroke="black" cx="770.84" cy="-90" rx="108.58" ry="18"/>
<text text-anchor="middle" x="770.84" y="-86.3" font-family="Times,serif" font-size="14.00">:core:datastore&#45;proto</text>
</g>
<!-- :core:datastore&#45;&gt;:core:datastore&#45;proto -->
<g id="edge25" class="edge">
<title>:core:datastore&#45;&gt;:core:datastore&#45;proto</title>
<path fill="none" stroke="black" d="M767.83,-143.7C768.27,-135.98 768.8,-126.71 769.29,-118.11"/>
<polygon fill="black" stroke="black" points="772.78,-118.29 769.86,-108.1 765.8,-117.89 772.78,-118.29"/>
</g>
<!-- :core:network&#45;&gt;:core:model -->
<g id="edge29" class="edge">
<title>:core:network&#45;&gt;:core:model</title>
<path fill="none" stroke="black" d="M499.95,-149.77C476.98,-142.07 452.48,-129.24 438.84,-108 430.19,-94.54 429.73,-85.15 438.84,-72 455.21,-48.35 483.55,-35.24 510.54,-27.98"/>
<polygon fill="black" stroke="black" points="511.52,-31.34 520.4,-25.56 509.85,-24.54 511.52,-31.34"/>
</g>
<!-- :core:network&#45;&gt;:core:common -->
<g id="edge28" class="edge">
<title>:core:network&#45;&gt;:core:common</title>
<path fill="none" stroke="black" d="M509.51,-147.67C470.43,-136.17 413.87,-119.54 372.14,-107.26"/>
<polygon fill="black" stroke="black" points="372.98,-103.86 362.4,-104.4 371.01,-110.58 372.98,-103.86"/>
</g>
</g>
</svg>
