<?xml version="1.0" encoding="UTF-8" standalone="no"?>
<!DOCTYPE svg PUBLIC "-//W3C//DTD SVG 1.1//EN"
 "http://www.w3.org/Graphics/SVG/1.1/DTD/svg11.dtd">
<!-- Generated by graphviz version 2.43.0 (0)
 -->
<!-- Title: G Pages: 1 -->
<svg width="818pt" height="332pt"
 viewBox="0.00 0.00 817.64 332.00" xmlns="http://www.w3.org/2000/svg" xmlns:xlink="http://www.w3.org/1999/xlink">
<g id="graph0" class="graph" transform="scale(1 1) rotate(0) translate(4 328)">
<title>G</title>
<polygon fill="white" stroke="transparent" points="-4,4 -4,-328 813.64,-328 813.64,4 -4,4"/>
<!-- :sync:work -->
<g id="node1" class="node">
<title>:sync:work</title>
<ellipse fill="none" stroke="black" cx="212.99" cy="-306" rx="60.39" ry="18"/>
<text text-anchor="middle" x="212.99" y="-302.3" font-family="Times,serif" font-size="14.00">:sync:work</text>
</g>
<!-- :core:analytics -->
<g id="node2" class="node">
<title>:core:analytics</title>
<ellipse fill="none" stroke="black" cx="77.99" cy="-162" rx="77.99" ry="18"/>
<text text-anchor="middle" x="77.99" y="-158.3" font-family="Times,serif" font-size="14.00">:core:analytics</text>
</g>
<!-- :sync:work&#45;&gt;:core:analytics -->
<g id="edge1" class="edge">
<title>:sync:work&#45;&gt;:core:analytics</title>
<path fill="none" stroke="black" d="M197.24,-288.43C173.49,-263.45 128.38,-215.99 100.96,-187.16"/>
<polygon fill="black" stroke="black" points="103.49,-184.74 94.06,-179.9 98.42,-189.56 103.49,-184.74"/>
</g>
<!-- :core:data -->
<g id="node3" class="node">
<title>:core:data</title>
<ellipse fill="none" stroke="black" cx="347.99" cy="-234" rx="57.39" ry="18"/>
<text text-anchor="middle" x="347.99" y="-230.3" font-family="Times,serif" font-size="14.00">:core:data</text>
</g>
<!-- :sync:work&#45;&gt;:core:data -->
<g id="edge2" class="edge">
<title>:sync:work&#45;&gt;:core:data</title>
<path fill="none" stroke="red" stroke-width="2" d="M241.95,-289.98C262.02,-279.58 288.92,-265.63 310.6,-254.39"/>
<polygon fill="red" stroke="red" stroke-width="2" points="312.28,-257.46 319.54,-249.75 309.05,-251.25 312.28,-257.46"/>
</g>
<!-- :core:data&#45;&gt;:core:analytics -->
<g id="edge7" class="edge">
<title>:core:data&#45;&gt;:core:analytics</title>
<path fill="none" stroke="black" d="M305.21,-221.91C260.04,-210.2 188.5,-191.65 137.77,-178.5"/>
<polygon fill="black" stroke="black" points="138.47,-175.06 127.91,-175.94 136.72,-181.84 138.47,-175.06"/>
</g>
<!-- :core:common -->
<g id="node4" class="node">
<title>:core:common</title>
<ellipse fill="none" stroke="black" cx="317.99" cy="-18" rx="75.29" ry="18"/>
<text text-anchor="middle" x="317.99" y="-14.3" font-family="Times,serif" font-size="14.00">:core:common</text>
</g>
<!-- :core:data&#45;&gt;:core:common -->
<g id="edge3" class="edge">
<title>:core:data&#45;&gt;:core:common</title>
<path fill="none" stroke="black" d="M293.52,-228.22C261.47,-222.28 223.34,-209.1 202.99,-180 181.72,-149.58 230.78,-73.44 231.99,-72 243.32,-58.57 258.96,-47.53 273.8,-39.07"/>
<polygon fill="black" stroke="black" points="275.76,-41.98 282.88,-34.14 272.43,-35.83 275.76,-41.98"/>
</g>
<!-- :core:database -->
<g id="node5" class="node">
<title>:core:database</title>
<ellipse fill="none" stroke="black" cx="730.99" cy="-162" rx="78.79" ry="18"/>
<text text-anchor="middle" x="730.99" y="-158.3" font-family="Times,serif" font-size="14.00">:core:database</text>
</g>
<!-- :core:data&#45;&gt;:core:database -->
<g id="edge4" class="edge">
<title>:core:data&#45;&gt;:core:database</title>
<path fill="none" stroke="black" d="M396.11,-224.21C463.02,-211.98 584.58,-189.76 661.38,-175.72"/>
<polygon fill="black" stroke="black" points="662.24,-179.12 671.45,-173.88 660.98,-172.24 662.24,-179.12"/>
</g>
<!-- :core:datastore -->
<g id="node6" class="node">
<title>:core:datastore</title>
<ellipse fill="none" stroke="black" cx="690.99" cy="-90" rx="81.49" ry="18"/>
<text text-anchor="middle" x="690.99" y="-86.3" font-family="Times,serif" font-size="14.00">:core:datastore</text>
</g>
<!-- :core:data&#45;&gt;:core:datastore -->
<g id="edge5" class="edge">
<title>:core:data&#45;&gt;:core:datastore</title>
<path fill="none" stroke="black" d="M390.09,-221.8C424.49,-212.16 474.09,-197.13 515.99,-180 565.23,-159.87 619.47,-131.21 654.31,-111.9"/>
<polygon fill="black" stroke="black" points="656.14,-114.89 663.17,-106.96 652.73,-108.77 656.14,-114.89"/>
</g>
<!-- :core:network -->
<g id="node7" class="node">
<title>:core:network</title>
<ellipse fill="none" stroke="black" cx="516.99" cy="-90" rx="74.99" ry="18"/>
<text text-anchor="middle" x="516.99" y="-86.3" font-family="Times,serif" font-size="14.00">:core:network</text>
</g>
<!-- :core:data&#45;&gt;:core:network -->
<g id="edge6" class="edge">
<title>:core:data&#45;&gt;:core:network</title>
<path fill="none" stroke="black" d="M399.92,-226.18C431,-219.46 469,-206.18 492.99,-180 508.32,-163.28 514.03,-137.79 516.08,-118.36"/>
<polygon fill="black" stroke="black" points="519.57,-118.54 516.87,-108.29 512.6,-117.99 519.57,-118.54"/>
</g>
<!-- :core:component&#45;controller -->
<g id="node8" class="node">
<title>:core:component&#45;controller</title>
<ellipse fill="none" stroke="black" cx="347.99" cy="-162" rx="135.68" ry="18"/>
<text text-anchor="middle" x="347.99" y="-158.3" font-family="Times,serif" font-size="14.00">:core:component&#45;controller</text>
</g>
<!-- :core:data&#45;&gt;:core:component&#45;controller -->
<g id="edge8" class="edge">
<title>:core:data&#45;&gt;:core:component&#45;controller</title>
<path fill="none" stroke="red" stroke-width="2" d="M347.99,-215.7C347.99,-207.98 347.99,-198.71 347.99,-190.11"/>
<polygon fill="red" stroke="red" stroke-width="2" points="351.49,-190.1 347.99,-180.1 344.49,-190.1 351.49,-190.1"/>
</g>
<!-- :core:model -->
<g id="node9" class="node">
<title>:core:model</title>
<ellipse fill="none" stroke="black" cx="507.99" cy="-18" rx="64.99" ry="18"/>
<text text-anchor="middle" x="507.99" y="-14.3" font-family="Times,serif" font-size="14.00">:core:model</text>
</g>
<!-- :core:database&#45;&gt;:core:model -->
<g id="edge9" class="edge">
<title>:core:database&#45;&gt;:core:model</title>
<path fill="none" stroke="black" d="M751.8,-144.44C772.91,-125.67 799.97,-94.71 780.99,-72 752.18,-37.51 626.02,-45.03 581.99,-36 576.67,-34.91 571.14,-33.72 565.6,-32.51"/>
<polygon fill="black" stroke="black" points="566.21,-29.06 555.69,-30.3 564.69,-35.89 566.21,-29.06"/>
</g>
<!-- :core:datastore&#45;&gt;:core:common -->
<g id="edge12" class="edge">
<title>:core:datastore&#45;&gt;:core:common</title>
<path fill="none" stroke="black" d="M631.45,-77.74C621.29,-75.82 610.84,-73.85 600.99,-72 527.31,-58.14 442.82,-42.33 385.48,-31.61"/>
<polygon fill="black" stroke="black" points="385.92,-28.13 375.45,-29.73 384.64,-35.01 385.92,-28.13"/>
</g>
<!-- :core:datastore&#45;&gt;:core:model -->
<g id="edge11" class="edge">
<title>:core:datastore&#45;&gt;:core:model</title>
<path fill="none" stroke="black" d="M652.18,-74.15C623.5,-63.18 584.33,-48.2 554.06,-36.62"/>
<polygon fill="black" stroke="black" points="555.16,-33.29 544.57,-32.99 552.66,-39.83 555.16,-33.29"/>
</g>
<!-- :core:datastore&#45;proto -->
<g id="node10" class="node">
<title>:core:datastore&#45;proto</title>
<ellipse fill="none" stroke="black" cx="699.99" cy="-18" rx="108.58" ry="18"/>
<text text-anchor="middle" x="699.99" y="-14.3" font-family="Times,serif" font-size="14.00">:core:datastore&#45;proto</text>
</g>
<!-- :core:datastore&#45;&gt;:core:datastore&#45;proto -->
<g id="edge10" class="edge">
<title>:core:datastore&#45;&gt;:core:datastore&#45;proto</title>
<path fill="none" stroke="black" d="M693.22,-71.7C694.21,-63.98 695.4,-54.71 696.51,-46.11"/>
<polygon fill="black" stroke="black" points="699.99,-46.47 697.79,-36.1 693.05,-45.58 699.99,-46.47"/>
</g>
<!-- :core:network&#45;&gt;:core:common -->
<g id="edge13" class="edge">
<title>:core:network&#45;&gt;:core:common</title>
<path fill="none" stroke="black" d="M476.72,-74.83C445.4,-63.82 401.77,-48.47 368.18,-36.65"/>
<polygon fill="black" stroke="black" points="369.14,-33.28 358.54,-33.26 366.82,-39.88 369.14,-33.28"/>
</g>
<!-- :core:network&#45;&gt;:core:model -->
<g id="edge14" class="edge">
<title>:core:network&#45;&gt;:core:model</title>
<path fill="none" stroke="black" d="M514.77,-71.7C513.78,-63.98 512.58,-54.71 511.48,-46.11"/>
<polygon fill="black" stroke="black" points="514.94,-45.58 510.19,-36.1 508,-46.47 514.94,-45.58"/>
</g>
<!-- :core:component&#45;controller&#45;&gt;:core:common -->
<g id="edge15" class="edge">
<title>:core:component&#45;controller&#45;&gt;:core:common</title>
<path fill="none" stroke="black" d="M289.68,-145.69C270.83,-137.67 251.98,-125.7 240.99,-108 232.56,-94.41 233.55,-86.16 240.99,-72 248.17,-58.34 260.64,-47.52 273.47,-39.31"/>
<polygon fill="black" stroke="black" points="275.54,-42.15 282.36,-34.04 271.97,-36.13 275.54,-42.15"/>
</g>
<!-- :core:component&#45;controller&#45;&gt;:core:model -->
<g id="edge16" class="edge">
<title>:core:component&#45;controller&#45;&gt;:core:model</title>
<path fill="none" stroke="black" d="M362.46,-143.99C378.7,-125.34 406.3,-95.03 432.99,-72 445.97,-60.81 461.26,-49.67 474.65,-40.52"/>
<polygon fill="black" stroke="black" points="476.79,-43.3 483.12,-34.81 472.87,-37.5 476.79,-43.3"/>
</g>
<!-- :core:ifw&#45;api -->
<g id="node11" class="node">
<title>:core:ifw&#45;api</title>
<ellipse fill="none" stroke="black" cx="317.99" cy="-90" rx="67.69" ry="18"/>
<text text-anchor="middle" x="317.99" y="-86.3" font-family="Times,serif" font-size="14.00">:core:ifw&#45;api</text>
</g>
<!-- :core:component&#45;controller&#45;&gt;:core:ifw&#45;api -->
<g id="edge17" class="edge">
<title>:core:component&#45;controller&#45;&gt;:core:ifw&#45;api</title>
<path fill="none" stroke="red" stroke-width="2" d="M340.58,-143.7C337.2,-135.81 333.12,-126.3 329.37,-117.55"/>
<polygon fill="red" stroke="red" stroke-width="2" points="332.48,-115.92 325.32,-108.1 326.05,-118.67 332.48,-115.92"/>
</g>
<!-- :core:ifw&#45;api&#45;&gt;:core:common -->
<g id="edge18" class="edge">
<title>:core:ifw&#45;api&#45;&gt;:core:common</title>
<path fill="none" stroke="red" stroke-width="2" d="M317.99,-71.7C317.99,-63.98 317.99,-54.71 317.99,-46.11"/>
<polygon fill="red" stroke="red" stroke-width="2" points="321.49,-46.1 317.99,-36.1 314.49,-46.1 321.49,-46.1"/>
</g>
<!-- :core:ifw&#45;api&#45;&gt;:core:model -->
<g id="edge19" class="edge">
<title>:core:ifw&#45;api&#45;&gt;:core:model</title>
<path fill="none" stroke="black" d="M355.99,-75C386.12,-63.9 428.38,-48.33 460.7,-36.42"/>
<polygon fill="black" stroke="black" points="462.22,-39.59 470.39,-32.85 459.8,-33.03 462.22,-39.59"/>
</g>
</g>
</svg>
