<?xml version="1.0" encoding="UTF-8" standalone="no"?>
<!DOCTYPE svg PUBLIC "-//W3C//DTD SVG 1.1//EN"
 "http://www.w3.org/Graphics/SVG/1.1/DTD/svg11.dtd">
<!-- Generated by graphviz version 2.43.0 (0)
 -->
<!-- Title: G Pages: 1 -->
<svg width="795pt" height="332pt"
 viewBox="0.00 0.00 795.30 332.00" xmlns="http://www.w3.org/2000/svg" xmlns:xlink="http://www.w3.org/1999/xlink">
<g id="graph0" class="graph" transform="scale(1 1) rotate(0) translate(4 328)">
<title>G</title>
<polygon fill="white" stroke="transparent" points="-4,4 -4,-328 791.3,-328 791.3,4 -4,4"/>
<!-- :core:data -->
<g id="node1" class="node">
<title>:core:data</title>
<ellipse fill="none" stroke="black" cx="410.3" cy="-306" rx="57.39" ry="18"/>
<text text-anchor="middle" x="410.3" y="-302.3" font-family="Times,serif" font-size="14.00">:core:data</text>
</g>
<!-- :core:common -->
<g id="node2" class="node">
<title>:core:common</title>
<ellipse fill="none" stroke="black" cx="144.3" cy="-90" rx="75.29" ry="18"/>
<text text-anchor="middle" x="144.3" y="-86.3" font-family="Times,serif" font-size="14.00">:core:common</text>
</g>
<!-- :core:data&#45;&gt;:core:common -->
<g id="edge1" class="edge">
<title>:core:data&#45;&gt;:core:common</title>
<path fill="none" stroke="black" d="M354.69,-301.6C250.54,-294.67 34.52,-277.37 12.3,-252 -30.8,-202.77 53.06,-142.66 105.88,-111.67"/>
<polygon fill="black" stroke="black" points="107.78,-114.62 114.7,-106.59 104.29,-108.55 107.78,-114.62"/>
</g>
<!-- :core:database -->
<g id="node3" class="node">
<title>:core:database</title>
<ellipse fill="none" stroke="black" cx="628.3" cy="-90" rx="78.79" ry="18"/>
<text text-anchor="middle" x="628.3" y="-86.3" font-family="Times,serif" font-size="14.00">:core:database</text>
</g>
<!-- :core:data&#45;&gt;:core:database -->
<g id="edge2" class="edge">
<title>:core:data&#45;&gt;:core:database</title>
<path fill="none" stroke="black" d="M438.89,-290.29C476.35,-269.82 542.2,-229.64 584.3,-180 599.99,-161.5 611.73,-136.45 619.12,-117.64"/>
<polygon fill="black" stroke="black" points="622.43,-118.77 622.68,-108.18 615.88,-116.3 622.43,-118.77"/>
</g>
<!-- :core:datastore -->
<g id="node4" class="node">
<title>:core:datastore</title>
<ellipse fill="none" stroke="black" cx="494.3" cy="-162" rx="81.49" ry="18"/>
<text text-anchor="middle" x="494.3" y="-158.3" font-family="Times,serif" font-size="14.00">:core:datastore</text>
</g>
<!-- :core:data&#45;&gt;:core:datastore -->
<g id="edge3" class="edge">
<title>:core:data&#45;&gt;:core:datastore</title>
<path fill="none" stroke="black" d="M420.27,-288.15C434.78,-263.63 461.85,-217.87 478.92,-189"/>
<polygon fill="black" stroke="black" points="482.01,-190.66 484.09,-180.27 475.99,-187.09 482.01,-190.66"/>
</g>
<!-- :core:network -->
<g id="node5" class="node">
<title>:core:network</title>
<ellipse fill="none" stroke="black" cx="320.3" cy="-162" rx="74.99" ry="18"/>
<text text-anchor="middle" x="320.3" y="-158.3" font-family="Times,serif" font-size="14.00">:core:network</text>
</g>
<!-- :core:data&#45;&gt;:core:network -->
<g id="edge4" class="edge">
<title>:core:data&#45;&gt;:core:network</title>
<path fill="none" stroke="black" d="M399.63,-288.15C384,-263.49 354.77,-217.37 336.49,-188.53"/>
<polygon fill="black" stroke="black" points="339.28,-186.4 330.97,-179.82 333.37,-190.15 339.28,-186.4"/>
</g>
<!-- :core:analytics -->
<g id="node6" class="node">
<title>:core:analytics</title>
<ellipse fill="none" stroke="black" cx="709.3" cy="-234" rx="77.99" ry="18"/>
<text text-anchor="middle" x="709.3" y="-230.3" font-family="Times,serif" font-size="14.00">:core:analytics</text>
</g>
<!-- :core:data&#45;&gt;:core:analytics -->
<g id="edge5" class="edge">
<title>:core:data&#45;&gt;:core:analytics</title>
<path fill="none" stroke="black" d="M454.74,-294.6C505.54,-282.7 589.06,-263.15 646.5,-249.7"/>
<polygon fill="black" stroke="black" points="647.61,-253.04 656.55,-247.35 646.01,-246.22 647.61,-253.04"/>
</g>
<!-- :core:component&#45;controller -->
<g id="node7" class="node">
<title>:core:component&#45;controller</title>
<ellipse fill="none" stroke="black" cx="157.3" cy="-234" rx="135.68" ry="18"/>
<text text-anchor="middle" x="157.3" y="-230.3" font-family="Times,serif" font-size="14.00">:core:component&#45;controller</text>
</g>
<!-- :core:data&#45;&gt;:core:component&#45;controller -->
<g id="edge6" class="edge">
<title>:core:data&#45;&gt;:core:component&#45;controller</title>
<path fill="none" stroke="red" stroke-width="2" d="M368.81,-293.52C329.24,-282.57 269.01,-265.91 222.93,-253.16"/>
<polygon fill="red" stroke="red" stroke-width="2" points="223.6,-249.71 213.03,-250.42 221.73,-256.46 223.6,-249.71"/>
</g>
<!-- :core:model -->
<g id="node8" class="node">
<title>:core:model</title>
<ellipse fill="none" stroke="black" cx="247.3" cy="-18" rx="64.99" ry="18"/>
<text text-anchor="middle" x="247.3" y="-14.3" font-family="Times,serif" font-size="14.00">:core:model</text>
</g>
<!-- :core:common&#45;&gt;:core:model -->
<g id="edge7" class="edge">
<title>:core:common&#45;&gt;:core:model</title>
<path fill="none" stroke="red" stroke-width="2" d="M168.19,-72.76C182.2,-63.24 200.08,-51.09 215.3,-40.75"/>
<polygon fill="red" stroke="red" stroke-width="2" points="217.6,-43.42 223.9,-34.91 213.66,-37.63 217.6,-43.42"/>
</g>
<!-- :core:database&#45;&gt;:core:model -->
<g id="edge8" class="edge">
<title>:core:database&#45;&gt;:core:model</title>
<path fill="none" stroke="black" d="M568.77,-78.06C498.46,-65.14 382,-43.75 310.23,-30.56"/>
<polygon fill="black" stroke="black" points="310.45,-27.04 299.98,-28.68 309.18,-33.93 310.45,-27.04"/>
</g>
<!-- :core:datastore&#45;&gt;:core:common -->
<g id="edge11" class="edge">
<title>:core:datastore&#45;&gt;:core:common</title>
<path fill="none" stroke="black" d="M436.12,-149.36C373.84,-136.91 275.25,-117.19 210.17,-104.17"/>
<polygon fill="black" stroke="black" points="210.52,-100.67 200.03,-102.14 209.15,-107.54 210.52,-100.67"/>
</g>
<!-- :core:datastore&#45;&gt;:core:model -->
<g id="edge10" class="edge">
<title>:core:datastore&#45;&gt;:core:model</title>
<path fill="none" stroke="black" d="M502.32,-143.85C510.17,-124.23 518.75,-92.22 502.3,-72 479.64,-44.14 386.93,-30.45 319.82,-24.07"/>
<polygon fill="black" stroke="black" points="319.97,-20.57 309.7,-23.14 319.34,-27.54 319.97,-20.57"/>
</g>
<!-- :core:datastore&#45;proto -->
<g id="node9" class="node">
<title>:core:datastore&#45;proto</title>
<ellipse fill="none" stroke="black" cx="384.3" cy="-90" rx="108.58" ry="18"/>
<text text-anchor="middle" x="384.3" y="-86.3" font-family="Times,serif" font-size="14.00">:core:datastore&#45;proto</text>
</g>
<!-- :core:datastore&#45;&gt;:core:datastore&#45;proto -->
<g id="edge9" class="edge">
<title>:core:datastore&#45;&gt;:core:datastore&#45;proto</title>
<path fill="none" stroke="black" d="M468.79,-144.76C454.01,-135.36 435.2,-123.39 419.08,-113.13"/>
<polygon fill="black" stroke="black" points="420.76,-110.05 410.44,-107.63 417,-115.96 420.76,-110.05"/>
</g>
<!-- :core:network&#45;&gt;:core:common -->
<g id="edge12" class="edge">
<title>:core:network&#45;&gt;:core:common</title>
<path fill="none" stroke="black" d="M283.41,-146.33C256.51,-135.63 219.87,-121.05 190.94,-109.55"/>
<polygon fill="black" stroke="black" points="192.04,-106.22 181.45,-105.78 189.45,-112.72 192.04,-106.22"/>
</g>
<!-- :core:network&#45;&gt;:core:model -->
<g id="edge13" class="edge">
<title>:core:network&#45;&gt;:core:model</title>
<path fill="none" stroke="black" d="M298.3,-144.64C287.06,-135.16 274.15,-122.27 266.3,-108 255.81,-88.9 251.11,-64.55 249,-46.14"/>
<polygon fill="black" stroke="black" points="252.48,-45.7 248.04,-36.08 245.51,-46.37 252.48,-45.7"/>
</g>
<!-- :core:component&#45;controller&#45;&gt;:core:common -->
<g id="edge14" class="edge">
<title>:core:component&#45;controller&#45;&gt;:core:common</title>
<path fill="none" stroke="black" d="M121.08,-216.5C106.57,-207.85 91.39,-195.74 83.3,-180 75.99,-165.77 76.67,-158.56 83.3,-144 88.81,-131.91 98.59,-121.52 108.73,-113.21"/>
<polygon fill="black" stroke="black" points="111.03,-115.86 116.86,-107.01 106.79,-110.29 111.03,-115.86"/>
</g>
<!-- :core:component&#45;controller&#45;&gt;:core:model -->
<g id="edge15" class="edge">
<title>:core:component&#45;controller&#45;&gt;:core:model</title>
<path fill="none" stroke="black" d="M118.29,-216.59C102.31,-207.96 85.07,-195.83 74.3,-180 47.08,-139.98 31.12,-110.61 60.3,-72 75.12,-52.4 133.6,-37.95 181.27,-29.13"/>
<polygon fill="black" stroke="black" points="182.04,-32.55 191.26,-27.33 180.8,-25.66 182.04,-32.55"/>
</g>
<!-- :core:ifw&#45;api -->
<g id="node10" class="node">
<title>:core:ifw&#45;api</title>
<ellipse fill="none" stroke="black" cx="160.3" cy="-162" rx="67.69" ry="18"/>
<text text-anchor="middle" x="160.3" y="-158.3" font-family="Times,serif" font-size="14.00">:core:ifw&#45;api</text>
</g>
<!-- :core:component&#45;controller&#45;&gt;:core:ifw&#45;api -->
<g id="edge16" class="edge">
<title>:core:component&#45;controller&#45;&gt;:core:ifw&#45;api</title>
<path fill="none" stroke="red" stroke-width="2" d="M158.05,-215.7C158.38,-207.98 158.77,-198.71 159.14,-190.11"/>
<polygon fill="red" stroke="red" stroke-width="2" points="162.64,-190.25 159.57,-180.1 155.65,-189.95 162.64,-190.25"/>
</g>
<!-- :core:ifw&#45;api&#45;&gt;:core:common -->
<g id="edge17" class="edge">
<title>:core:ifw&#45;api&#45;&gt;:core:common</title>
<path fill="none" stroke="red" stroke-width="2" d="M156.35,-143.7C154.59,-135.98 152.47,-126.71 150.5,-118.11"/>
<polygon fill="red" stroke="red" stroke-width="2" points="153.85,-117.07 148.21,-108.1 147.03,-118.63 153.85,-117.07"/>
</g>
</g>
</svg>
