<svg xmlns="http://www.w3.org/2000/svg" width="1576" height="548pt" viewBox="0 0 1181.74 548">
    <g class="graph">
        <path fill="#fff" stroke="transparent" d="M0 548V0h1181.74v548H0z"/>
        <g class="node" transform="translate(4 544)">
            <ellipse cx="632.74" cy="-522" fill="none" stroke="#000" rx="87.99" ry="18"/>
            <text x="632.74" y="-518.3" font-family="Times,serif" font-size="14" text-anchor="middle">:feature:settings</text>
        </g>
        <g class="node" transform="translate(4 544)">
            <ellipse cx="305.74" cy="-450" fill="none" stroke="#000" rx="45.49" ry="18"/>
            <text x="305.74" y="-446.3" font-family="Times,serif" font-size="14" text-anchor="middle">:core:ui</text>
        </g>
        <g stroke="red" stroke-width="2" class="edge">
            <path fill="none" d="M578.28 35.51c-62.56 13.4-160.7 34.41-219.42 46.97"/>
            <path fill="red" d="m359.24 85.98-10.51-1.33 9.05-5.51 1.46 6.84z"/>
        </g>
        <g class="node" transform="translate(4 544)">
            <ellipse cx="100.74" cy="-378" fill="none" stroke="#000" rx="100.98" ry="18"/>
            <text x="100.74" y="-374.3" font-family="Times,serif" font-size="14" text-anchor="middle">:core:designsystem</text>
        </g>
        <g stroke="#000" class="edge">
            <path fill="none" d="M550.5 25.37C471.77 29.77 353.17 42.04 255.74 76c-44.98 15.68-91.42 45.46-120.7 66.24"/>
            <path d="m137.04 145.11-10.16 3 6.07-8.69 4.09 5.69z"/>
        </g>
        <g class="node" transform="translate(4 544)">
            <ellipse cx="646.74" cy="-234" fill="none" stroke="#000" rx="57.39" ry="18"/>
            <text x="646.74" y="-230.3" font-family="Times,serif" font-size="14" text-anchor="middle">:core:data</text>
        </g>
        <g stroke="#000" class="edge">
            <path fill="none" d="M637.57 40.03c2.34 47.68 8.95 182.79 11.82 241.34"/>
            <path d="m652.9 281.53-3.01 10.16-3.98-9.81 6.99-.35z"/>
        </g>
        <g class="node" transform="translate(4 544)">
            <ellipse cx="731.74" cy="-378" fill="none" stroke="#000" rx="70.69" ry="18"/>
            <text x="731.74" y="-374.3" font-family="Times,serif" font-size="14" text-anchor="middle">:core:domain</text>
        </g>
        <g stroke="#000" class="edge">
            <path fill="none" d="M648.49 39.85c17.26 24.76 49.62 71.18 69.71 99.99"/>
            <path d="m721.16 137.97 2.85 10.21-8.59-6.21 5.74-4z"/>
        </g>
        <g class="node" transform="translate(4 544)">
            <ellipse cx="879.74" cy="-306" fill="none" stroke="#000" rx="55.49" ry="18"/>
            <text x="879.74" y="-302.3" font-family="Times,serif" font-size="14" text-anchor="middle">:core:rule</text>
        </g>
        <g stroke="#000" class="edge">
            <path fill="none" d="M665.41 39.22c37.13 21.8 102.71 63.15 150.33 108.78 20.12 19.28 39.03 44.86 51.77 63.65"/>
            <path d="m870.45 209.75 2.63 10.26-8.46-6.38 5.83-3.88z"/>
        </g>
        <g stroke="#000" class="edge">
            <path fill="none" d="M276.35 106.4c-31.77 10.85-80.11 27.36-117.4 40.09"/>
            <path d="m159.84 149.89-10.6-.09 8.33-6.54 2.27 6.63z"/>
        </g>
        <g stroke="red" stroke-width="2" class="edge">
            <path fill="none" d="M350.97 101.78c73.49 12.07 227.75 37.42 317.02 52.09"/>
            <path fill="red" d="m668.71 150.44 9.3 5.07-10.44 1.84 1.14-6.91z"/>
        </g>
        <g class="node" transform="translate(4 544)">
            <ellipse cx="373.74" cy="-162" fill="none" stroke="#000" rx="77.99" ry="18"/>
            <text x="373.74" y="-158.3" font-family="Times,serif" font-size="14" text-anchor="middle">:core:analytics</text>
        </g>
        <g stroke="#000" class="edge">
            <path fill="none" d="M313.79 112.03c11.36 47.78 43.59 183.35 57.47 241.7"/>
            <path d="m374.72 353.16-1.09 10.53-5.72-8.92 6.81-1.61z"/>
        </g>
        <g class="node" transform="translate(4 544)">
            <ellipse cx="607.74" cy="-18" fill="none" stroke="#000" rx="64.99" ry="18"/>
            <text x="607.74" y="-14.3" font-family="Times,serif" font-size="14" text-anchor="middle">:core:model</text>
        </g>
        <g stroke="#000" class="edge">
            <path fill="none" d="M294.36 110.98c-22.21 24.83-60.62 75.13-60.62 126.02v146c0 51.16 28.58 63.61 73 89 90.21 51.56 128.97 16.36 231 36 5.42 1.04 11.05 2.2 16.67 3.41"/>
            <path d="m555.46 508.05 9.02 5.56-10.52 1.28 1.5-6.84z"/>
        </g>
        <g stroke="#000" class="edge">
            <path fill="none" d="M607.78 322.01c-45.75 11.74-118.51 30.39-169.94 43.58"/>
            <path d="m438.41 369.06-10.55-.91 8.81-5.87 1.74 6.78z"/>
        </g>
        <g class="node" transform="translate(4 544)">
            <ellipse cx="988.74" cy="-18" fill="none" stroke="#000" rx="75.29" ry="18"/>
            <text x="988.74" y="-14.3" font-family="Times,serif" font-size="14" text-anchor="middle">:core:common</text>
        </g>
        <g stroke="#000" class="edge">
            <path fill="none" d="M706.2 314.47c103.26 7.02 316.59 24.43 338.54 49.53 34.4 39.34-4.13 101.77-30.84 136.18"/>
            <path d="m1016.39 502.67-8.97 5.63 3.51-10 5.46 4.37z"/>
        </g>
        <g class="node" transform="translate(4 544)">
            <ellipse cx="895.74" cy="-162" fill="none" stroke="#000" rx="135.68" ry="18"/>
            <text x="895.74" y="-158.3" font-family="Times,serif" font-size="14" text-anchor="middle">:core:component-controller</text>
        </g>
        <g stroke="red" stroke-width="2" class="edge">
            <path fill="none" d="M691.86 322.56c38.86 10.92 97.79 27.49 142.99 40.2"/>
            <path fill="red" d="m835.89 359.41 8.68 6.08-10.58.66 1.9-6.74z"/>
        </g>
        <g class="node" transform="translate(4 544)">
            <ellipse cx="586.74" cy="-162" fill="none" stroke="#000" rx="78.79" ry="18"/>
            <text x="586.74" y="-158.3" font-family="Times,serif" font-size="14" text-anchor="middle">:core:database</text>
        </g>
        <g stroke="#000" class="edge">
            <path fill="none" d="M636.52 327.59c-7.36 8.59-16.5 19.25-24.67 28.78"/>
            <path d="m614.44 358.73-9.17 5.31 3.86-9.87 5.31 4.56z"/>
        </g>
        <g class="node" transform="translate(4 544)">
            <ellipse cx="479.74" cy="-90" fill="none" stroke="#000" rx="81.49" ry="18"/>
            <text x="479.74" y="-86.3" font-family="Times,serif" font-size="14" text-anchor="middle">:core:datastore</text>
        </g>
        <g stroke="#000" class="edge">
            <path fill="none" d="M597.99 316.95c-32.04 6.39-71.26 19.62-95.25 47.05-14.74 16.86-18.98 42.33-19.83 61.72"/>
            <path d="m486.4 425.82-3.66 9.94-3.33-10.05 6.99.11z"/>
        </g>
        <g class="node" transform="translate(4 544)">
            <ellipse cx="729.74" cy="-90" fill="none" stroke="#000" rx="74.99" ry="18"/>
            <text x="729.74" y="-86.3" font-family="Times,serif" font-size="14" text-anchor="middle">:core:network</text>
        </g>
        <g stroke="#000" class="edge">
            <path fill="none" d="M660.59 327.85c14.33 24.52 41.08 70.28 57.95 99.15"/>
            <path d="m721.62 425.33 2.03 10.4-8.07-6.86 6.04-3.54z"/>
        </g>
        <g stroke="#000" class="edge">
            <path fill="none" d="M725.66 183.85c-14.76 24.66-42.37 70.78-59.64 99.62"/>
            <path d="m668.95 285.39-8.14 6.79 2.14-10.38 6 3.59z"/>
        </g>
        <g stroke="red" stroke-width="2" class="edge">
            <path fill="none" d="M767.85 182.19c22.52 10.65 52.75 24.95 76.69 36.27"/>
            <path fill="red" d="m846.16 215.36 7.55 7.43-10.54-1.11 2.99-6.32z"/>
        </g>
        <g stroke="#000" class="edge">
            <path fill="none" d="M671.72 173.83C570.43 188.46 376.01 233 290.74 364c-46.88 72.02 89.8 102.04 103 108 7.41 3.35 97.88 24.87 159.91 39.44"/>
            <path d="m554.79 508.11 8.94 5.69-10.53 1.13 1.59-6.82z"/>
        </g>
        <g stroke="#000" class="edge">
            <path fill="none" d="M799.54 174.02c122.4 15.25 378.2 56.5 378.2 134.98v74c0 65.7-74.32 105.16-128.75 125.25"/>
            <path d="m1050.02 511.6-10.6.06 8.25-6.65 2.35 6.59z"/>
        </g>
        <g stroke="#000" class="edge">
            <path fill="none" d="M748.61 183.79c28.67 37.41 97.93 127.79 131.81 172"/>
            <path d="m883.4 353.92 3.31 10.07-8.87-5.81 5.56-4.26z"/>
        </g>
        <g class="node" transform="translate(4 544)">
            <ellipse cx="892.74" cy="-90" fill="none" stroke="#000" rx="67.69" ry="18"/>
            <text x="892.74" y="-86.3" font-family="Times,serif" font-size="14" text-anchor="middle">:core:ifw-api</text>
        </g>
        <g stroke="#000" class="edge">
            <path fill="none" d="M731.53 184.07c-9.23 41.68-26.61 150.05 23.21 215.93 10.76 14.23 49.97 28.26 84.47 38.3"/>
            <path d="m840.59 435.06 8.66 6.1-10.57.63 1.91-6.73z"/>
        </g>
        <g stroke="red" stroke-width="2" class="edge">
            <path fill="none" d="M844.48 250.8c-39.71 11.92-101.2 30.4-144.23 43.32"/>
            <path fill="red" d="m701.14 297.51-10.59-.47 8.57-6.23 2.02 6.7z"/>
        </g>
        <g stroke="#000" class="edge">
            <path fill="none" d="M926.14 249.62c27.08 8.31 61.83 21.93 87.6 42.38 30.72 24.38 39.11 34.63 51 72 7.53 23.66-7.81 105.81-9 108-6.58 12.11-17.14 22.61-27.75 31.01"/>
            <path d="m1030.04 505.84-10.11 3.17 5.93-8.78 4.18 5.61z"/>
        </g>
        <g stroke="#000" class="edge">
            <path fill="none" d="M885.67 256.13c2.73 24.2 7.74 68.66 10.98 97.48"/>
            <path d="m900.16 353.48-2.36 10.33-4.59-9.54 6.95-.79z"/>
        </g>
        <g stroke="#000" class="edge">
            <path fill="none" d="M915.72 252.89c38.78 18.81 102.26 56.45 129.02 111.11 7.04 14.37 9.21 22.92 0 36-17.29 24.55-47.05 37.79-75.38 44.9"/>
            <path d="m969.95 448.36-10.52-1.19 8.97-5.63 1.55 6.82z"/>
        </g>
        <g stroke="#000" class="edge">
            <path fill="none" d="M801.48 394.44C741.89 403.13 673 416.88 649.74 436c-18.79 15.45-28.48 41.88-33.35 61.94"/>
            <path d="m619.8 498.73-5.54 9.03-1.3-10.52 6.84 1.49z"/>
        </g>
        <g stroke="#000" class="edge">
            <path fill="none" d="M932.92 399.46c14.64 8.89 30.78 21.2 40.82 36.54 12.01 18.34 16.58 42.95 18.25 61.64"/>
            <path d="m995.5 497.66-2.82 10.21-4.16-9.75 6.98-.46z"/>
        </g>
        <g stroke="red" stroke-width="2" class="edge">
            <path fill="none" d="M899 400.3c-.33 7.72-.73 16.99-1.1 25.59"/>
            <path fill="red" d="m901.4 426.05-3.93 9.85-3.06-10.15 6.99.3z"/>
        </g>
        <g stroke="#000" class="edge">
            <path fill="none" d="M848.72 466.8c-49.78 12.22-127.55 31.32-180.31 44.28"/>
            <path d="m669.09 514.52-10.55-1.01 8.88-5.79 1.67 6.8z"/>
        </g>
        <g stroke="red" stroke-width="2" class="edge">
            <path fill="none" d="M919.01 471.24c12.75 9.29 28.94 21.1 42.9 31.28"/>
            <path fill="red" d="m964.25 499.89 6.01 8.72-10.14-3.06 4.13-5.66z"/>
        </g>
        <g stroke="#000" class="edge">
            <path fill="none" d="M593.27 400.13c3.58 24.2 10.16 68.66 14.42 97.48"/>
            <path d="m611.2 497.41-2 10.4-4.93-9.38 6.93-1.02z"/>
        </g>
        <g stroke="#000" class="edge">
            <path fill="none" d="M512.79 470.88c18.33 10.03 42.2 23.08 61.89 33.85"/>
            <path d="m576.6 501.79 7.09 7.87-10.45-1.73 3.36-6.14z"/>
        </g>
        <g stroke="#000" class="edge">
            <path fill="none" d="m550.81 464.22 368.42 50.67"/>
            <path d="m919.71 511.42 9.43 4.83-10.39 2.11.96-6.94z"/>
        </g>
        <g class="node" transform="translate(4 544)">
            <ellipse cx="415.74" cy="-18" fill="none" stroke="#000" rx="108.58" ry="18"/>
            <text x="415.74" y="-14.3" font-family="Times,serif" font-size="14" text-anchor="middle">:core:datastore-proto</text>
        </g>
        <g stroke="#000" class="edge">
            <path fill="none" d="M468.25 471.95c-7.75 8.47-17.27 18.88-25.82 28.23"/>
            <path d="m444.87 502.71-9.33 5.01 4.16-9.74 5.17 4.73z"/>
        </g>
        <g stroke="#000" class="edge">
            <path fill="none" d="M706.06 470.88c-17.28 9.92-39.71 22.78-58.35 33.48"/>
            <path d="m649.31 507.48-10.42 1.94 6.94-8.01 3.48 6.07z"/>
        </g>
        <g stroke="#000" class="edge">
            <path fill="none" d="M781.55 467.92c43.3 11.7 107.2 28.97 153.37 41.45"/>
            <path d="m936.03 506.05 8.75 5.99-10.57.77 1.82-6.76z"/>
        </g>
    </g>
</svg>
