<?xml version="1.0" encoding="UTF-8" standalone="no"?>
<!DOCTYPE svg PUBLIC "-//W3C//DTD SVG 1.1//EN"
 "http://www.w3.org/Graphics/SVG/1.1/DTD/svg11.dtd">
<!-- Generated by graphviz version 2.43.0 (0)
 -->
<!-- Title: G Pages: 1 -->
<svg width="1247pt" height="620pt"
 viewBox="0.00 0.00 1246.73 620.00" xmlns="http://www.w3.org/2000/svg" xmlns:xlink="http://www.w3.org/1999/xlink">
<g id="graph0" class="graph" transform="scale(1 1) rotate(0) translate(4 616)">
<title>G</title>
<polygon fill="white" stroke="transparent" points="-4,4 -4,-616 1242.73,-616 1242.73,4 -4,4"/>
<!-- :feature:sort -->
<g id="node1" class="node">
<title>:feature:sort</title>
<ellipse fill="none" stroke="black" cx="886.99" cy="-594" rx="68.79" ry="18"/>
<text text-anchor="middle" x="886.99" y="-590.3" font-family="Times,serif" font-size="14.00">:feature:sort</text>
</g>
<!-- :core:ui -->
<g id="node2" class="node">
<title>:core:ui</title>
<ellipse fill="none" stroke="black" cx="886.99" cy="-522" rx="45.49" ry="18"/>
<text text-anchor="middle" x="886.99" y="-518.3" font-family="Times,serif" font-size="14.00">:core:ui</text>
</g>
<!-- :feature:sort&#45;&gt;:core:ui -->
<g id="edge1" class="edge">
<title>:feature:sort&#45;&gt;:core:ui</title>
<path fill="none" stroke="red" stroke-width="2" d="M886.99,-575.7C886.99,-567.98 886.99,-558.71 886.99,-550.11"/>
<polygon fill="red" stroke="red" stroke-width="2" points="890.49,-550.1 886.99,-540.1 883.49,-550.1 890.49,-550.1"/>
</g>
<!-- :core:designsystem -->
<g id="node3" class="node">
<title>:core:designsystem</title>
<ellipse fill="none" stroke="black" cx="1137.99" cy="-450" rx="100.98" ry="18"/>
<text text-anchor="middle" x="1137.99" y="-446.3" font-family="Times,serif" font-size="14.00">:core:designsystem</text>
</g>
<!-- :feature:sort&#45;&gt;:core:designsystem -->
<g id="edge2" class="edge">
<title>:feature:sort&#45;&gt;:core:designsystem</title>
<path fill="none" stroke="black" d="M914.81,-577.26C959.97,-551.72 1049.27,-501.19 1100.16,-472.41"/>
<polygon fill="black" stroke="black" points="1101.91,-475.44 1108.89,-467.47 1098.46,-469.34 1101.91,-475.44"/>
</g>
<!-- :core:data -->
<g id="node4" class="node">
<title>:core:data</title>
<ellipse fill="none" stroke="black" cx="466.99" cy="-306" rx="57.39" ry="18"/>
<text text-anchor="middle" x="466.99" y="-302.3" font-family="Times,serif" font-size="14.00">:core:data</text>
</g>
<!-- :feature:sort&#45;&gt;:core:data -->
<g id="edge3" class="edge">
<title>:feature:sort&#45;&gt;:core:data</title>
<path fill="none" stroke="black" d="M837.6,-581.37C754.99,-559.4 588.72,-503.98 495.99,-396 481.07,-378.63 473.79,-353.42 470.26,-334.26"/>
<polygon fill="black" stroke="black" points="473.71,-333.64 468.66,-324.33 466.8,-334.76 473.71,-333.64"/>
</g>
<!-- :core:ui&#45;&gt;:core:designsystem -->
<g id="edge5" class="edge">
<title>:core:ui&#45;&gt;:core:designsystem</title>
<path fill="none" stroke="black" d="M922.96,-510.97C962.9,-499.83 1028.1,-481.65 1076.25,-468.22"/>
<polygon fill="black" stroke="black" points="1077.26,-471.57 1085.95,-465.51 1075.38,-464.83 1077.26,-471.57"/>
</g>
<!-- :core:analytics -->
<g id="node5" class="node">
<title>:core:analytics</title>
<ellipse fill="none" stroke="black" cx="77.99" cy="-234" rx="77.99" ry="18"/>
<text text-anchor="middle" x="77.99" y="-230.3" font-family="Times,serif" font-size="14.00">:core:analytics</text>
</g>
<!-- :core:ui&#45;&gt;:core:analytics -->
<g id="edge4" class="edge">
<title>:core:ui&#45;&gt;:core:analytics</title>
<path fill="none" stroke="black" d="M851.72,-510.48C782.89,-489.78 626.07,-441.8 495.99,-396 359.53,-347.95 200.65,-284.71 124,-253.73"/>
<polygon fill="black" stroke="black" points="125.21,-250.45 114.63,-249.94 122.59,-256.94 125.21,-250.45"/>
</g>
<!-- :core:model -->
<g id="node6" class="node">
<title>:core:model</title>
<ellipse fill="none" stroke="black" cx="711.99" cy="-18" rx="64.99" ry="18"/>
<text text-anchor="middle" x="711.99" y="-14.3" font-family="Times,serif" font-size="14.00">:core:model</text>
</g>
<!-- :core:ui&#45;&gt;:core:model -->
<g id="edge6" class="edge">
<title>:core:ui&#45;&gt;:core:model</title>
<path fill="none" stroke="black" d="M907.15,-505.74C947,-473.67 1031.99,-394.96 1031.99,-307 1031.99,-307 1031.99,-307 1031.99,-161 1031.99,-54.27 881.43,-27.15 786.85,-20.64"/>
<polygon fill="black" stroke="black" points="786.95,-17.14 776.75,-20.01 786.51,-24.12 786.95,-17.14"/>
</g>
<!-- :core:domain -->
<g id="node7" class="node">
<title>:core:domain</title>
<ellipse fill="none" stroke="black" cx="830.99" cy="-450" rx="70.69" ry="18"/>
<text text-anchor="middle" x="830.99" y="-446.3" font-family="Times,serif" font-size="14.00">:core:domain</text>
</g>
<!-- :core:ui&#45;&gt;:core:domain -->
<g id="edge7" class="edge">
<title>:core:ui&#45;&gt;:core:domain</title>
<path fill="none" stroke="red" stroke-width="2" d="M873.72,-504.41C866.92,-495.91 858.49,-485.37 850.92,-475.91"/>
<polygon fill="red" stroke="red" stroke-width="2" points="853.54,-473.58 844.56,-467.96 848.07,-477.95 853.54,-473.58"/>
</g>
<!-- :core:designsystem&#45;&gt;:core:model -->
<g id="edge8" class="edge">
<title>:core:designsystem&#45;&gt;:core:model</title>
<path fill="none" stroke="black" d="M1133.34,-431.66C1126.62,-405.05 1114.99,-352.45 1114.99,-307 1114.99,-307 1114.99,-307 1114.99,-161 1114.99,-110.95 1089.07,-97.49 1045.99,-72 1002.9,-46.5 868.96,-31.45 784.36,-24.25"/>
<polygon fill="black" stroke="black" points="784.56,-20.75 774.3,-23.41 783.97,-27.73 784.56,-20.75"/>
</g>
<!-- :core:data&#45;&gt;:core:analytics -->
<g id="edge19" class="edge">
<title>:core:data&#45;&gt;:core:analytics</title>
<path fill="none" stroke="black" d="M423.93,-294.13C414.74,-291.96 405.07,-289.81 395.99,-288 296.24,-268.14 270.23,-269.24 169.99,-252 162.34,-250.68 154.34,-249.27 146.38,-247.83"/>
<polygon fill="black" stroke="black" points="146.82,-244.35 136.36,-246.01 145.57,-251.24 146.82,-244.35"/>
</g>
<!-- :core:common -->
<g id="node8" class="node">
<title>:core:common</title>
<ellipse fill="none" stroke="black" cx="660.99" cy="-90" rx="75.29" ry="18"/>
<text text-anchor="middle" x="660.99" y="-86.3" font-family="Times,serif" font-size="14.00">:core:common</text>
</g>
<!-- :core:data&#45;&gt;:core:common -->
<g id="edge15" class="edge">
<title>:core:data&#45;&gt;:core:common</title>
<path fill="none" stroke="black" d="M478.43,-287.96C499.39,-257.36 546.2,-191.86 593.99,-144 604.87,-133.11 617.94,-122.33 629.64,-113.37"/>
<polygon fill="black" stroke="black" points="631.97,-116 637.87,-107.19 627.77,-110.4 631.97,-116"/>
</g>
<!-- :core:component&#45;controller -->
<g id="node9" class="node">
<title>:core:component&#45;controller</title>
<ellipse fill="none" stroke="black" cx="715.99" cy="-234" rx="135.68" ry="18"/>
<text text-anchor="middle" x="715.99" y="-230.3" font-family="Times,serif" font-size="14.00">:core:component&#45;controller</text>
</g>
<!-- :core:data&#45;&gt;:core:component&#45;controller -->
<g id="edge20" class="edge">
<title>:core:data&#45;&gt;:core:component&#45;controller</title>
<path fill="none" stroke="red" stroke-width="2" d="M508.11,-293.44C546.97,-282.52 605.9,-265.95 651.1,-253.24"/>
<polygon fill="red" stroke="red" stroke-width="2" points="652.14,-256.59 660.82,-250.51 650.24,-249.85 652.14,-256.59"/>
</g>
<!-- :core:database -->
<g id="node12" class="node">
<title>:core:database</title>
<ellipse fill="none" stroke="black" cx="176.99" cy="-90" rx="78.79" ry="18"/>
<text text-anchor="middle" x="176.99" y="-86.3" font-family="Times,serif" font-size="14.00">:core:database</text>
</g>
<!-- :core:data&#45;&gt;:core:database -->
<g id="edge16" class="edge">
<title>:core:data&#45;&gt;:core:database</title>
<path fill="none" stroke="black" d="M430.66,-292.04C365.91,-268.29 234.43,-216.84 202.99,-180 188.18,-162.64 181.8,-137.22 179.06,-117.99"/>
<polygon fill="black" stroke="black" points="182.53,-117.55 177.87,-108.03 175.58,-118.37 182.53,-117.55"/>
</g>
<!-- :core:datastore -->
<g id="node13" class="node">
<title>:core:datastore</title>
<ellipse fill="none" stroke="black" cx="292.99" cy="-162" rx="81.49" ry="18"/>
<text text-anchor="middle" x="292.99" y="-158.3" font-family="Times,serif" font-size="14.00">:core:datastore</text>
</g>
<!-- :core:data&#45;&gt;:core:datastore -->
<g id="edge17" class="edge">
<title>:core:data&#45;&gt;:core:datastore</title>
<path fill="none" stroke="black" d="M447.37,-288.99C416.6,-263.87 356.85,-215.11 321.38,-186.17"/>
<polygon fill="black" stroke="black" points="323.31,-183.22 313.35,-179.61 318.88,-188.65 323.31,-183.22"/>
</g>
<!-- :core:network -->
<g id="node14" class="node">
<title>:core:network</title>
<ellipse fill="none" stroke="black" cx="466.99" cy="-162" rx="74.99" ry="18"/>
<text text-anchor="middle" x="466.99" y="-158.3" font-family="Times,serif" font-size="14.00">:core:network</text>
</g>
<!-- :core:data&#45;&gt;:core:network -->
<g id="edge18" class="edge">
<title>:core:data&#45;&gt;:core:network</title>
<path fill="none" stroke="black" d="M466.99,-287.87C466.99,-263.67 466.99,-219.21 466.99,-190.39"/>
<polygon fill="black" stroke="black" points="470.49,-190.19 466.99,-180.19 463.49,-190.19 470.49,-190.19"/>
</g>
<!-- :core:domain&#45;&gt;:core:data -->
<g id="edge9" class="edge">
<title>:core:domain&#45;&gt;:core:data</title>
<path fill="none" stroke="black" d="M766.13,-442.63C691.86,-434.41 575.61,-418.46 537.99,-396 512.68,-380.89 492.76,-353.17 480.54,-332.67"/>
<polygon fill="black" stroke="black" points="483.49,-330.77 475.48,-323.83 477.41,-334.25 483.49,-330.77"/>
</g>
<!-- :core:domain&#45;&gt;:core:model -->
<g id="edge10" class="edge">
<title>:core:domain&#45;&gt;:core:model</title>
<path fill="none" stroke="black" d="M870.04,-434.9C918.26,-414.68 993.99,-372.49 993.99,-307 993.99,-307 993.99,-307 993.99,-161 993.99,-67.11 867.75,-35.29 784.19,-24.51"/>
<polygon fill="black" stroke="black" points="784.58,-21.03 774.23,-23.3 783.73,-27.98 784.58,-21.03"/>
</g>
<!-- :core:domain&#45;&gt;:core:common -->
<g id="edge11" class="edge">
<title>:core:domain&#45;&gt;:core:common</title>
<path fill="none" stroke="black" d="M793.85,-434.46C733.4,-408.45 615.95,-347.57 570.99,-252 564.18,-237.52 566.08,-231.23 570.99,-216 574.63,-204.73 616.34,-149.19 641.68,-116.05"/>
<polygon fill="black" stroke="black" points="644.74,-117.82 648.04,-107.75 639.18,-113.56 644.74,-117.82"/>
</g>
<!-- :core:domain&#45;&gt;:core:component&#45;controller -->
<g id="edge12" class="edge">
<title>:core:domain&#45;&gt;:core:component&#45;controller</title>
<path fill="none" stroke="black" d="M805.47,-433.09C792.32,-423.73 776.99,-410.84 766.99,-396 738.9,-354.31 725.56,-296.25 719.82,-262.45"/>
<polygon fill="black" stroke="black" points="723.24,-261.7 718.21,-252.37 716.33,-262.8 723.24,-261.7"/>
</g>
<!-- :core:ifw&#45;api -->
<g id="node10" class="node">
<title>:core:ifw&#45;api</title>
<ellipse fill="none" stroke="black" cx="859.99" cy="-162" rx="67.69" ry="18"/>
<text text-anchor="middle" x="859.99" y="-158.3" font-family="Times,serif" font-size="14.00">:core:ifw&#45;api</text>
</g>
<!-- :core:domain&#45;&gt;:core:ifw&#45;api -->
<g id="edge13" class="edge">
<title>:core:domain&#45;&gt;:core:ifw&#45;api</title>
<path fill="none" stroke="black" d="M859.42,-433.51C872.86,-424.5 887.56,-411.8 894.99,-396 927.6,-326.66 893.75,-234.03 873.24,-189.33"/>
<polygon fill="black" stroke="black" points="876.28,-187.59 868.85,-180.04 869.95,-190.58 876.28,-187.59"/>
</g>
<!-- :core:rule -->
<g id="node11" class="node">
<title>:core:rule</title>
<ellipse fill="none" stroke="black" cx="830.99" cy="-378" rx="55.49" ry="18"/>
<text text-anchor="middle" x="830.99" y="-374.3" font-family="Times,serif" font-size="14.00">:core:rule</text>
</g>
<!-- :core:domain&#45;&gt;:core:rule -->
<g id="edge14" class="edge">
<title>:core:domain&#45;&gt;:core:rule</title>
<path fill="none" stroke="red" stroke-width="2" d="M830.99,-431.7C830.99,-423.98 830.99,-414.71 830.99,-406.11"/>
<polygon fill="red" stroke="red" stroke-width="2" points="834.49,-406.1 830.99,-396.1 827.49,-406.1 834.49,-406.1"/>
</g>
<!-- :core:common&#45;&gt;:core:model -->
<g id="edge21" class="edge">
<title>:core:common&#45;&gt;:core:model</title>
<path fill="none" stroke="red" stroke-width="2" d="M673.34,-72.05C679.48,-63.63 687.02,-53.28 693.8,-43.97"/>
<polygon fill="red" stroke="red" stroke-width="2" points="696.7,-45.93 699.76,-35.79 691.04,-41.81 696.7,-45.93"/>
</g>
<!-- :core:component&#45;controller&#45;&gt;:core:model -->
<g id="edge29" class="edge">
<title>:core:component&#45;controller&#45;&gt;:core:model</title>
<path fill="none" stroke="black" d="M724.15,-215.82C737.15,-186.1 759.67,-123.34 744.99,-72 742.24,-62.36 737.16,-52.76 731.8,-44.44"/>
<polygon fill="black" stroke="black" points="734.53,-42.22 725.98,-35.96 728.76,-46.19 734.53,-42.22"/>
</g>
<!-- :core:component&#45;controller&#45;&gt;:core:common -->
<g id="edge28" class="edge">
<title>:core:component&#45;controller&#45;&gt;:core:common</title>
<path fill="none" stroke="black" d="M709.36,-215.87C699.9,-191.46 682.46,-146.43 671.31,-117.64"/>
<polygon fill="black" stroke="black" points="674.53,-116.25 667.65,-108.19 668,-118.78 674.53,-116.25"/>
</g>
<!-- :core:component&#45;controller&#45;&gt;:core:ifw&#45;api -->
<g id="edge30" class="edge">
<title>:core:component&#45;controller&#45;&gt;:core:ifw&#45;api</title>
<path fill="none" stroke="red" stroke-width="2" d="M750.12,-216.41C771.08,-206.22 798.02,-193.12 819.98,-182.45"/>
<polygon fill="red" stroke="red" stroke-width="2" points="821.59,-185.56 829.06,-178.04 818.53,-179.26 821.59,-185.56"/>
</g>
<!-- :core:ifw&#45;api&#45;&gt;:core:common -->
<g id="edge31" class="edge">
<title>:core:ifw&#45;api&#45;&gt;:core:common</title>
<path fill="none" stroke="red" stroke-width="2" d="M820.68,-147.17C789.34,-136.15 745.24,-120.63 711.32,-108.7"/>
<polygon fill="red" stroke="red" stroke-width="2" points="712.19,-105.3 701.59,-105.28 709.87,-111.9 712.19,-105.3"/>
</g>
<!-- :core:rule&#45;&gt;:core:data -->
<g id="edge34" class="edge">
<title>:core:rule&#45;&gt;:core:data</title>
<path fill="none" stroke="red" stroke-width="2" d="M784.52,-368.06C718.21,-355.31 596.52,-331.91 524.58,-318.07"/>
<polygon fill="red" stroke="red" stroke-width="2" points="524.82,-314.56 514.34,-316.11 523.5,-321.43 524.82,-314.56"/>
</g>
<!-- :core:rule&#45;&gt;:core:common -->
<g id="edge32" class="edge">
<title>:core:rule&#45;&gt;:core:common</title>
<path fill="none" stroke="black" d="M849.48,-360.72C893.14,-320.35 994.74,-213.89 936.99,-144 912.8,-114.72 815.97,-101.45 743.79,-95.55"/>
<polygon fill="black" stroke="black" points="744.02,-92.06 733.77,-94.76 743.47,-99.04 744.02,-92.06"/>
</g>
<!-- :core:rule&#45;&gt;:core:component&#45;controller -->
<g id="edge33" class="edge">
<title>:core:rule&#45;&gt;:core:component&#45;controller</title>
<path fill="none" stroke="black" d="M817.58,-360.43C797.62,-335.8 759.97,-289.3 736.54,-260.37"/>
<polygon fill="black" stroke="black" points="739.05,-257.91 730.04,-252.35 733.61,-262.32 739.05,-257.91"/>
</g>
<!-- :core:rule&#45;&gt;:core:ifw&#45;api -->
<g id="edge35" class="edge">
<title>:core:rule&#45;&gt;:core:ifw&#45;api</title>
<path fill="none" stroke="black" d="M836.47,-359.84C843.79,-335.97 856.35,-291.23 860.99,-252 862.87,-236.11 861.14,-232 860.99,-216 860.91,-207.68 860.77,-198.63 860.61,-190.4"/>
<polygon fill="black" stroke="black" points="864.1,-190.11 860.4,-180.18 857.1,-190.25 864.1,-190.11"/>
</g>
<!-- :core:database&#45;&gt;:core:model -->
<g id="edge22" class="edge">
<title>:core:database&#45;&gt;:core:model</title>
<path fill="none" stroke="black" d="M235.44,-77.75C246.88,-75.71 258.8,-73.69 269.99,-72 400.84,-52.22 554.38,-35.19 641.72,-26.08"/>
<polygon fill="black" stroke="black" points="642.2,-29.55 651.78,-25.03 641.47,-22.59 642.2,-29.55"/>
</g>
<!-- :core:datastore&#45;&gt;:core:model -->
<g id="edge24" class="edge">
<title>:core:datastore&#45;&gt;:core:model</title>
<path fill="none" stroke="black" d="M289.35,-144C286.13,-123.91 284.46,-90.85 302.99,-72 348.05,-26.17 531.05,-18.55 636.36,-18.09"/>
<polygon fill="black" stroke="black" points="636.62,-21.59 646.61,-18.07 636.61,-14.59 636.62,-21.59"/>
</g>
<!-- :core:datastore&#45;&gt;:core:common -->
<g id="edge25" class="edge">
<title>:core:datastore&#45;&gt;:core:common</title>
<path fill="none" stroke="black" d="M352.53,-149.68C418.64,-137.1 525.12,-116.85 594.07,-103.73"/>
<polygon fill="black" stroke="black" points="594.8,-107.15 603.97,-101.85 593.49,-100.28 594.8,-107.15"/>
</g>
<!-- :core:datastore&#45;proto -->
<g id="node15" class="node">
<title>:core:datastore&#45;proto</title>
<ellipse fill="none" stroke="black" cx="420.99" cy="-90" rx="108.58" ry="18"/>
<text text-anchor="middle" x="420.99" y="-86.3" font-family="Times,serif" font-size="14.00">:core:datastore&#45;proto</text>
</g>
<!-- :core:datastore&#45;&gt;:core:datastore&#45;proto -->
<g id="edge23" class="edge">
<title>:core:datastore&#45;&gt;:core:datastore&#45;proto</title>
<path fill="none" stroke="black" d="M322.04,-145.12C339.74,-135.44 362.59,-122.94 381.87,-112.4"/>
<polygon fill="black" stroke="black" points="383.63,-115.42 390.73,-107.55 380.27,-109.28 383.63,-115.42"/>
</g>
<!-- :core:network&#45;&gt;:core:model -->
<g id="edge27" class="edge">
<title>:core:network&#45;&gt;:core:model</title>
<path fill="none" stroke="black" d="M490.57,-144.76C504.91,-134.62 523.4,-121.04 538.99,-108 556.84,-93.08 557.36,-84.48 576.99,-72 602.15,-56.01 632.9,-43.48 658.7,-34.62"/>
<polygon fill="black" stroke="black" points="659.95,-37.89 668.33,-31.41 657.73,-31.25 659.95,-37.89"/>
</g>
<!-- :core:network&#45;&gt;:core:common -->
<g id="edge26" class="edge">
<title>:core:network&#45;&gt;:core:common</title>
<path fill="none" stroke="black" d="M506.72,-146.67C537.06,-135.72 579.05,-120.57 611.56,-108.84"/>
<polygon fill="black" stroke="black" points="613.1,-112 621.32,-105.32 610.72,-105.42 613.1,-112"/>
</g>
</g>
</svg>
