<?xml version="1.0" encoding="UTF-8" standalone="no"?>
<!DOCTYPE svg PUBLIC "-//W3C//DTD SVG 1.1//EN"
 "http://www.w3.org/Graphics/SVG/1.1/DTD/svg11.dtd">
<!-- Generated by graphviz version 2.43.0 (0)
 -->
<!-- Title: G Pages: 1 -->
<svg width="950pt" height="620pt"
 viewBox="0.00 0.00 950.00 620.00" xmlns="http://www.w3.org/2000/svg" xmlns:xlink="http://www.w3.org/1999/xlink">
<g id="graph0" class="graph" transform="scale(1 1) rotate(0) translate(4 616)">
<title>G</title>
<polygon fill="white" stroke="transparent" points="-4,4 -4,-616 946,-616 946,4 -4,4"/>
<!-- :feature:generalrule -->
<g id="node1" class="node">
<title>:feature:generalrule</title>
<ellipse fill="none" stroke="black" cx="466" cy="-594" rx="103.98" ry="18"/>
<text text-anchor="middle" x="466" y="-590.3" font-family="Times,serif" font-size="14.00">:feature:generalrule</text>
</g>
<!-- :core:ui -->
<g id="node2" class="node">
<title>:core:ui</title>
<ellipse fill="none" stroke="black" cx="430" cy="-522" rx="45.49" ry="18"/>
<text text-anchor="middle" x="430" y="-518.3" font-family="Times,serif" font-size="14.00">:core:ui</text>
</g>
<!-- :feature:generalrule&#45;&gt;:core:ui -->
<g id="edge1" class="edge">
<title>:feature:generalrule&#45;&gt;:core:ui</title>
<path fill="none" stroke="red" stroke-width="2" d="M457.29,-576.05C453.08,-567.89 447.95,-557.91 443.28,-548.82"/>
<polygon fill="red" stroke="red" stroke-width="2" points="446.32,-547.08 438.63,-539.79 440.1,-550.28 446.32,-547.08"/>
</g>
<!-- :core:designsystem -->
<g id="node3" class="node">
<title>:core:designsystem</title>
<ellipse fill="none" stroke="black" cx="693" cy="-450" rx="100.98" ry="18"/>
<text text-anchor="middle" x="693" y="-446.3" font-family="Times,serif" font-size="14.00">:core:designsystem</text>
</g>
<!-- :feature:generalrule&#45;&gt;:core:designsystem -->
<g id="edge2" class="edge">
<title>:feature:generalrule&#45;&gt;:core:designsystem</title>
<path fill="none" stroke="black" d="M492.48,-576.43C533.49,-550.78 612.37,-501.44 658.02,-472.88"/>
<polygon fill="black" stroke="black" points="660.06,-475.73 666.68,-467.46 656.35,-469.8 660.06,-475.73"/>
</g>
<!-- :core:data -->
<g id="node4" class="node">
<title>:core:data</title>
<ellipse fill="none" stroke="black" cx="377" cy="-306" rx="57.39" ry="18"/>
<text text-anchor="middle" x="377" y="-302.3" font-family="Times,serif" font-size="14.00">:core:data</text>
</g>
<!-- :feature:generalrule&#45;&gt;:core:data -->
<g id="edge3" class="edge">
<title>:feature:generalrule&#45;&gt;:core:data</title>
<path fill="none" stroke="black" d="M420.76,-577.62C403.58,-569.31 385.81,-557.16 376,-540 338.29,-474.02 356.46,-379.4 368.81,-333.71"/>
<polygon fill="black" stroke="black" points="372.21,-334.53 371.56,-323.96 365.48,-332.63 372.21,-334.53"/>
</g>
<!-- :core:domain -->
<g id="node5" class="node">
<title>:core:domain</title>
<ellipse fill="none" stroke="black" cx="503" cy="-450" rx="70.69" ry="18"/>
<text text-anchor="middle" x="503" y="-446.3" font-family="Times,serif" font-size="14.00">:core:domain</text>
</g>
<!-- :feature:generalrule&#45;&gt;:core:domain -->
<g id="edge4" class="edge">
<title>:feature:generalrule&#45;&gt;:core:domain</title>
<path fill="none" stroke="black" d="M472.35,-575.97C476.05,-565.66 480.64,-552.18 484,-540 489.63,-519.57 494.58,-496.11 498.01,-478.4"/>
<polygon fill="black" stroke="black" points="501.52,-478.68 499.95,-468.21 494.64,-477.38 501.52,-478.68"/>
</g>
<!-- :core:ui&#45;&gt;:core:designsystem -->
<g id="edge6" class="edge">
<title>:core:ui&#45;&gt;:core:designsystem</title>
<path fill="none" stroke="black" d="M466.57,-511.27C508.65,-500.07 578.49,-481.48 629.5,-467.9"/>
<polygon fill="black" stroke="black" points="630.68,-471.21 639.44,-465.26 628.88,-464.45 630.68,-471.21"/>
</g>
<!-- :core:ui&#45;&gt;:core:domain -->
<g id="edge8" class="edge">
<title>:core:ui&#45;&gt;:core:domain</title>
<path fill="none" stroke="red" stroke-width="2" d="M446.56,-505.12C455.98,-496.09 467.94,-484.62 478.42,-474.57"/>
<polygon fill="red" stroke="red" stroke-width="2" points="480.94,-477 485.74,-467.55 476.1,-471.95 480.94,-477"/>
</g>
<!-- :core:analytics -->
<g id="node6" class="node">
<title>:core:analytics</title>
<ellipse fill="none" stroke="black" cx="204" cy="-234" rx="77.99" ry="18"/>
<text text-anchor="middle" x="204" y="-230.3" font-family="Times,serif" font-size="14.00">:core:analytics</text>
</g>
<!-- :core:ui&#45;&gt;:core:analytics -->
<g id="edge5" class="edge">
<title>:core:ui&#45;&gt;:core:analytics</title>
<path fill="none" stroke="black" d="M416.87,-504.39C378.97,-456.42 269.18,-317.49 223.89,-260.18"/>
<polygon fill="black" stroke="black" points="226.39,-257.69 217.45,-252.02 220.9,-262.03 226.39,-257.69"/>
</g>
<!-- :core:model -->
<g id="node7" class="node">
<title>:core:model</title>
<ellipse fill="none" stroke="black" cx="504" cy="-18" rx="64.99" ry="18"/>
<text text-anchor="middle" x="504" y="-14.3" font-family="Times,serif" font-size="14.00">:core:model</text>
</g>
<!-- :core:ui&#45;&gt;:core:model -->
<g id="edge7" class="edge">
<title>:core:ui&#45;&gt;:core:model</title>
<path fill="none" stroke="black" d="M386.8,-516.08C277.76,-502.48 0,-459.88 0,-379 0,-379 0,-379 0,-161 0,-110.12 27.51,-96.67 72,-72 131.78,-38.85 322.81,-26.09 429.74,-21.45"/>
<polygon fill="black" stroke="black" points="429.97,-24.94 439.81,-21.02 429.68,-17.95 429.97,-24.94"/>
</g>
<!-- :core:designsystem&#45;&gt;:core:model -->
<g id="edge9" class="edge">
<title>:core:designsystem&#45;&gt;:core:model</title>
<path fill="none" stroke="black" d="M769.4,-438.16C842.6,-422.96 942,-387.49 942,-307 942,-307 942,-307 942,-161 942,-96.72 886.89,-97.77 828,-72 747.54,-36.79 646.55,-24.76 578.9,-20.77"/>
<polygon fill="black" stroke="black" points="578.93,-17.27 568.76,-20.22 578.55,-24.26 578.93,-17.27"/>
</g>
<!-- :core:data&#45;&gt;:core:analytics -->
<g id="edge20" class="edge">
<title>:core:data&#45;&gt;:core:analytics</title>
<path fill="none" stroke="black" d="M343.23,-291.34C316.82,-280.65 279.79,-265.67 250.56,-253.84"/>
<polygon fill="black" stroke="black" points="251.56,-250.47 240.98,-249.96 248.93,-256.96 251.56,-250.47"/>
</g>
<!-- :core:common -->
<g id="node8" class="node">
<title>:core:common</title>
<ellipse fill="none" stroke="black" cx="590" cy="-90" rx="75.29" ry="18"/>
<text text-anchor="middle" x="590" y="-86.3" font-family="Times,serif" font-size="14.00">:core:common</text>
</g>
<!-- :core:data&#45;&gt;:core:common -->
<g id="edge16" class="edge">
<title>:core:data&#45;&gt;:core:common</title>
<path fill="none" stroke="black" d="M386.55,-288.05C392.2,-277.76 399.33,-264.28 405,-252 426.65,-205.09 411.07,-180.13 448,-144 467.93,-124.5 495.69,-112.06 521.38,-104.18"/>
<polygon fill="black" stroke="black" points="522.47,-107.51 531.11,-101.38 520.53,-100.78 522.47,-107.51"/>
</g>
<!-- :core:component&#45;controller -->
<g id="node9" class="node">
<title>:core:component&#45;controller</title>
<ellipse fill="none" stroke="black" cx="664" cy="-234" rx="135.68" ry="18"/>
<text text-anchor="middle" x="664" y="-230.3" font-family="Times,serif" font-size="14.00">:core:component&#45;controller</text>
</g>
<!-- :core:data&#45;&gt;:core:component&#45;controller -->
<g id="edge21" class="edge">
<title>:core:data&#45;&gt;:core:component&#45;controller</title>
<path fill="none" stroke="red" stroke-width="2" d="M420.9,-294.29C466.51,-283.17 538.59,-265.59 592.44,-252.45"/>
<polygon fill="red" stroke="red" stroke-width="2" points="593.39,-255.82 602.28,-250.05 591.73,-249.02 593.39,-255.82"/>
</g>
<!-- :core:database -->
<g id="node12" class="node">
<title>:core:database</title>
<ellipse fill="none" stroke="black" cx="418" cy="-90" rx="78.79" ry="18"/>
<text text-anchor="middle" x="418" y="-86.3" font-family="Times,serif" font-size="14.00">:core:database</text>
</g>
<!-- :core:data&#45;&gt;:core:database -->
<g id="edge17" class="edge">
<title>:core:data&#45;&gt;:core:database</title>
<path fill="none" stroke="black" d="M380.29,-287.85C387.39,-250.75 404.24,-162.81 412.81,-118.1"/>
<polygon fill="black" stroke="black" points="416.25,-118.71 414.7,-108.23 409.38,-117.4 416.25,-118.71"/>
</g>
<!-- :core:datastore -->
<g id="node13" class="node">
<title>:core:datastore</title>
<ellipse fill="none" stroke="black" cx="277" cy="-162" rx="81.49" ry="18"/>
<text text-anchor="middle" x="277" y="-158.3" font-family="Times,serif" font-size="14.00">:core:datastore</text>
</g>
<!-- :core:data&#45;&gt;:core:datastore -->
<g id="edge18" class="edge">
<title>:core:data&#45;&gt;:core:datastore</title>
<path fill="none" stroke="black" d="M368.13,-288C358.26,-269.64 341.41,-239.81 324,-216 316.89,-206.27 308.33,-196.22 300.48,-187.53"/>
<polygon fill="black" stroke="black" points="302.88,-184.96 293.53,-179.97 297.72,-189.7 302.88,-184.96"/>
</g>
<!-- :core:network -->
<g id="node14" class="node">
<title>:core:network</title>
<ellipse fill="none" stroke="black" cx="103" cy="-162" rx="74.99" ry="18"/>
<text text-anchor="middle" x="103" y="-158.3" font-family="Times,serif" font-size="14.00">:core:network</text>
</g>
<!-- :core:data&#45;&gt;:core:network -->
<g id="edge19" class="edge">
<title>:core:data&#45;&gt;:core:network</title>
<path fill="none" stroke="black" d="M360.1,-288.47C349.6,-278.11 335.88,-264.41 324,-252 308.99,-236.32 309.48,-227.38 291,-216 270.08,-203.12 212.63,-187.85 166.7,-177.01"/>
<polygon fill="black" stroke="black" points="167.33,-173.56 156.79,-174.7 165.74,-180.38 167.33,-173.56"/>
</g>
<!-- :core:domain&#45;&gt;:core:data -->
<g id="edge10" class="edge">
<title>:core:domain&#45;&gt;:core:data</title>
<path fill="none" stroke="black" d="M484.58,-432.38C473.61,-422.21 459.61,-408.75 448,-396 429.13,-375.28 409.38,-350.21 395.52,-331.96"/>
<polygon fill="black" stroke="black" points="398.03,-329.48 389.21,-323.6 392.44,-333.69 398.03,-329.48"/>
</g>
<!-- :core:domain&#45;&gt;:core:model -->
<g id="edge11" class="edge">
<title>:core:domain&#45;&gt;:core:model</title>
<path fill="none" stroke="black" d="M552.17,-436.89C659.25,-409.83 904,-343.93 904,-307 904,-307 904,-307 904,-161 904,-91.08 684.19,-46.79 570.46,-28.55"/>
<polygon fill="black" stroke="black" points="570.89,-25.08 560.46,-26.97 569.79,-31.99 570.89,-25.08"/>
</g>
<!-- :core:domain&#45;&gt;:core:common -->
<g id="edge12" class="edge">
<title>:core:domain&#45;&gt;:core:common</title>
<path fill="none" stroke="black" d="M494.7,-431.97C482.72,-405.77 462,-353.7 462,-307 462,-307 462,-307 462,-233 462,-178.77 514.15,-135.91 551.87,-112.01"/>
<polygon fill="black" stroke="black" points="553.94,-114.84 560.63,-106.63 550.28,-108.88 553.94,-114.84"/>
</g>
<!-- :core:domain&#45;&gt;:core:component&#45;controller -->
<g id="edge13" class="edge">
<title>:core:domain&#45;&gt;:core:component&#45;controller</title>
<path fill="none" stroke="black" d="M546.94,-435.86C568.24,-427.51 592.69,-414.67 609,-396 642.67,-357.47 655.96,-297.35 661.03,-262.51"/>
<polygon fill="black" stroke="black" points="664.56,-262.52 662.4,-252.15 657.62,-261.6 664.56,-262.52"/>
</g>
<!-- :core:ifw&#45;api -->
<g id="node10" class="node">
<title>:core:ifw&#45;api</title>
<ellipse fill="none" stroke="black" cx="799" cy="-162" rx="67.69" ry="18"/>
<text text-anchor="middle" x="799" y="-158.3" font-family="Times,serif" font-size="14.00">:core:ifw&#45;api</text>
</g>
<!-- :core:domain&#45;&gt;:core:ifw&#45;api -->
<g id="edge14" class="edge">
<title>:core:domain&#45;&gt;:core:ifw&#45;api</title>
<path fill="none" stroke="black" d="M546.93,-435.72C602.57,-417.31 699.35,-379.86 767,-324 798.9,-297.66 812.08,-290.96 826,-252 833.54,-230.89 824.97,-206.51 815.54,-188.61"/>
<polygon fill="black" stroke="black" points="818.58,-186.87 810.61,-179.89 812.48,-190.32 818.58,-186.87"/>
</g>
<!-- :core:rule -->
<g id="node11" class="node">
<title>:core:rule</title>
<ellipse fill="none" stroke="black" cx="545" cy="-378" rx="55.49" ry="18"/>
<text text-anchor="middle" x="545" y="-374.3" font-family="Times,serif" font-size="14.00">:core:rule</text>
</g>
<!-- :core:domain&#45;&gt;:core:rule -->
<g id="edge15" class="edge">
<title>:core:domain&#45;&gt;:core:rule</title>
<path fill="none" stroke="red" stroke-width="2" d="M513.17,-432.05C518.12,-423.8 524.18,-413.7 529.68,-404.54"/>
<polygon fill="red" stroke="red" stroke-width="2" points="532.78,-406.16 534.93,-395.79 526.78,-402.56 532.78,-406.16"/>
</g>
<!-- :core:common&#45;&gt;:core:model -->
<g id="edge22" class="edge">
<title>:core:common&#45;&gt;:core:model</title>
<path fill="none" stroke="red" stroke-width="2" d="M569.62,-72.41C558.29,-63.19 544.04,-51.59 531.71,-41.55"/>
<polygon fill="red" stroke="red" stroke-width="2" points="533.9,-38.83 523.94,-35.23 529.48,-44.26 533.9,-38.83"/>
</g>
<!-- :core:component&#45;controller&#45;&gt;:core:model -->
<g id="edge30" class="edge">
<title>:core:component&#45;controller&#45;&gt;:core:model</title>
<path fill="none" stroke="black" d="M671.54,-215.96C684.31,-184.22 705.86,-115.31 674,-72 652.07,-42.2 613.49,-28.68 578.62,-22.73"/>
<polygon fill="black" stroke="black" points="578.83,-19.22 568.42,-21.18 577.78,-26.14 578.83,-19.22"/>
</g>
<!-- :core:component&#45;controller&#45;&gt;:core:common -->
<g id="edge29" class="edge">
<title>:core:component&#45;controller&#45;&gt;:core:common</title>
<path fill="none" stroke="black" d="M655.07,-215.87C642.3,-191.35 618.68,-146.03 603.68,-117.26"/>
<polygon fill="black" stroke="black" points="606.68,-115.44 598.96,-108.19 600.48,-118.67 606.68,-115.44"/>
</g>
<!-- :core:component&#45;controller&#45;&gt;:core:ifw&#45;api -->
<g id="edge31" class="edge">
<title>:core:component&#45;controller&#45;&gt;:core:ifw&#45;api</title>
<path fill="none" stroke="red" stroke-width="2" d="M695.99,-216.41C715.33,-206.38 740.1,-193.54 760.51,-182.96"/>
<polygon fill="red" stroke="red" stroke-width="2" points="762.28,-185.98 769.54,-178.27 759.05,-179.77 762.28,-185.98"/>
</g>
<!-- :core:ifw&#45;api&#45;&gt;:core:common -->
<g id="edge32" class="edge">
<title>:core:ifw&#45;api&#45;&gt;:core:common</title>
<path fill="none" stroke="red" stroke-width="2" d="M758.7,-147.5C725.42,-136.35 677.94,-120.45 641.83,-108.36"/>
<polygon fill="red" stroke="red" stroke-width="2" points="642.56,-104.91 631.96,-105.06 640.34,-111.55 642.56,-104.91"/>
</g>
<!-- :core:rule&#45;&gt;:core:data -->
<g id="edge35" class="edge">
<title>:core:rule&#45;&gt;:core:data</title>
<path fill="none" stroke="red" stroke-width="2" d="M512.21,-363.34C485.7,-352.29 448.19,-336.66 419.4,-324.66"/>
<polygon fill="red" stroke="red" stroke-width="2" points="420.57,-321.36 409.99,-320.75 417.88,-327.82 420.57,-321.36"/>
</g>
<!-- :core:rule&#45;&gt;:core:common -->
<g id="edge33" class="edge">
<title>:core:rule&#45;&gt;:core:common</title>
<path fill="none" stroke="black" d="M537.59,-359.85C525.8,-330.17 505.4,-267.46 519,-216 528.94,-178.39 553.09,-140.24 570.47,-116.15"/>
<polygon fill="black" stroke="black" points="573.41,-118.07 576.52,-107.94 567.77,-113.91 573.41,-118.07"/>
</g>
<!-- :core:rule&#45;&gt;:core:component&#45;controller -->
<g id="edge34" class="edge">
<title>:core:rule&#45;&gt;:core:component&#45;controller</title>
<path fill="none" stroke="black" d="M558.88,-360.43C579.53,-335.8 618.49,-289.3 642.74,-260.37"/>
<polygon fill="black" stroke="black" points="645.72,-262.26 649.46,-252.35 640.36,-257.76 645.72,-262.26"/>
</g>
<!-- :core:rule&#45;&gt;:core:ifw&#45;api -->
<g id="edge36" class="edge">
<title>:core:rule&#45;&gt;:core:ifw&#45;api</title>
<path fill="none" stroke="black" d="M594.11,-369.74C656.5,-357.6 761.74,-326.67 809,-252 820.7,-233.51 816.52,-208.46 810.38,-189.65"/>
<polygon fill="black" stroke="black" points="813.65,-188.39 806.96,-180.18 807.06,-190.77 813.65,-188.39"/>
</g>
<!-- :core:database&#45;&gt;:core:model -->
<g id="edge23" class="edge">
<title>:core:database&#45;&gt;:core:model</title>
<path fill="none" stroke="black" d="M438.38,-72.41C449.71,-63.19 463.96,-51.59 476.29,-41.55"/>
<polygon fill="black" stroke="black" points="478.52,-44.26 484.06,-35.23 474.1,-38.83 478.52,-44.26"/>
</g>
<!-- :core:datastore&#45;&gt;:core:model -->
<g id="edge25" class="edge">
<title>:core:datastore&#45;&gt;:core:model</title>
<path fill="none" stroke="black" d="M222.27,-148.56C171.59,-136.49 102.88,-118.5 95,-108 85.4,-95.2 84.44,-84.02 95,-72 116.77,-47.23 319.06,-30.66 430.75,-23.32"/>
<polygon fill="black" stroke="black" points="431.19,-26.8 440.94,-22.66 430.73,-19.81 431.19,-26.8"/>
</g>
<!-- :core:datastore&#45;&gt;:core:common -->
<g id="edge26" class="edge">
<title>:core:datastore&#45;&gt;:core:common</title>
<path fill="none" stroke="black" d="M331.88,-148.73C386.38,-136.54 469.84,-117.87 527.01,-105.09"/>
<polygon fill="black" stroke="black" points="528.02,-108.45 537.01,-102.85 526.49,-101.62 528.02,-108.45"/>
</g>
<!-- :core:datastore&#45;proto -->
<g id="node15" class="node">
<title>:core:datastore&#45;proto</title>
<ellipse fill="none" stroke="black" cx="213" cy="-90" rx="108.58" ry="18"/>
<text text-anchor="middle" x="213" y="-86.3" font-family="Times,serif" font-size="14.00">:core:datastore&#45;proto</text>
</g>
<!-- :core:datastore&#45;&gt;:core:datastore&#45;proto -->
<g id="edge24" class="edge">
<title>:core:datastore&#45;&gt;:core:datastore&#45;proto</title>
<path fill="none" stroke="black" d="M261.51,-144.05C253.76,-135.58 244.24,-125.17 235.69,-115.82"/>
<polygon fill="black" stroke="black" points="238.13,-113.29 228.79,-108.28 232.96,-118.02 238.13,-113.29"/>
</g>
<!-- :core:network&#45;&gt;:core:model -->
<g id="edge28" class="edge">
<title>:core:network&#45;&gt;:core:model</title>
<path fill="none" stroke="black" d="M91.79,-144.09C80.28,-124.4 66.34,-92.03 84,-72 106.5,-46.48 316.17,-30.15 430.49,-23.07"/>
<polygon fill="black" stroke="black" points="430.8,-26.55 440.57,-22.45 430.38,-19.57 430.8,-26.55"/>
</g>
<!-- :core:network&#45;&gt;:core:common -->
<g id="edge27" class="edge">
<title>:core:network&#45;&gt;:core:common</title>
<path fill="none" stroke="black" d="M156.65,-149.42C166.71,-147.45 177.15,-145.55 187,-144 327.94,-121.83 365.06,-130.17 506,-108 512.52,-106.97 519.3,-105.79 526.05,-104.54"/>
<polygon fill="black" stroke="black" points="526.73,-107.98 535.9,-102.67 525.42,-101.1 526.73,-107.98"/>
</g>
</g>
</svg>
