<?xml version="1.0" encoding="UTF-8" standalone="no"?>
<!DOCTYPE svg PUBLIC "-//W3C//DTD SVG 1.1//EN"
 "http://www.w3.org/Graphics/SVG/1.1/DTD/svg11.dtd">
<!-- Generated by graphviz version 2.43.0 (0)
 -->
<!-- Title: G Pages: 1 -->
<svg width="209pt" height="188pt"
 viewBox="0.00 0.00 209.14 188.00" xmlns="http://www.w3.org/2000/svg" xmlns:xlink="http://www.w3.org/1999/xlink">
<g id="graph0" class="graph" transform="scale(1 1) rotate(0) translate(4 184)">
<title>G</title>
<polygon fill="white" stroke="transparent" points="-4,4 -4,-184 205.14,-184 205.14,4 -4,4"/>
<!-- :core:network -->
<g id="node1" class="node">
<title>:core:network</title>
<ellipse fill="none" stroke="black" cx="126.39" cy="-162" rx="74.99" ry="18"/>
<text text-anchor="middle" x="126.39" y="-158.3" font-family="Times,serif" font-size="14.00">:core:network</text>
</g>
<!-- :core:common -->
<g id="node2" class="node">
<title>:core:common</title>
<ellipse fill="none" stroke="black" cx="75.39" cy="-90" rx="75.29" ry="18"/>
<text text-anchor="middle" x="75.39" y="-86.3" font-family="Times,serif" font-size="14.00">:core:common</text>
</g>
<!-- :core:network&#45;&gt;:core:common -->
<g id="edge1" class="edge">
<title>:core:network&#45;&gt;:core:common</title>
<path fill="none" stroke="red" stroke-width="2" d="M114.05,-144.05C107.91,-135.63 100.37,-125.28 93.58,-115.97"/>
<polygon fill="red" stroke="red" stroke-width="2" points="96.34,-113.81 87.63,-107.79 90.69,-117.93 96.34,-113.81"/>
</g>
<!-- :core:model -->
<g id="node3" class="node">
<title>:core:model</title>
<ellipse fill="none" stroke="black" cx="126.39" cy="-18" rx="64.99" ry="18"/>
<text text-anchor="middle" x="126.39" y="-14.3" font-family="Times,serif" font-size="14.00">:core:model</text>
</g>
<!-- :core:network&#45;&gt;:core:model -->
<g id="edge2" class="edge">
<title>:core:network&#45;&gt;:core:model</title>
<path fill="none" stroke="black" d="M140.38,-144.04C147.59,-134.18 155.64,-121.13 159.39,-108 163.79,-92.62 163.79,-87.38 159.39,-72 156.64,-62.36 151.56,-52.76 146.2,-44.44"/>
<polygon fill="black" stroke="black" points="148.93,-42.22 140.38,-35.96 143.16,-46.19 148.93,-42.22"/>
</g>
<!-- :core:common&#45;&gt;:core:model -->
<g id="edge3" class="edge">
<title>:core:common&#45;&gt;:core:model</title>
<path fill="none" stroke="red" stroke-width="2" d="M87.74,-72.05C93.88,-63.63 101.42,-53.28 108.2,-43.97"/>
<polygon fill="red" stroke="red" stroke-width="2" points="111.1,-45.93 114.16,-35.79 105.44,-41.81 111.1,-45.93"/>
</g>
</g>
</svg>
