<svg xmlns="http://www.w3.org/2000/svg" width="542pt" height="116pt" viewBox="0 0 541.93 116">
    <g class="graph">
        <path fill="#fff" stroke="transparent" d="M0 116V0h541.93v116H0z"/>
        <g class="node" transform="translate(4 112)">
            <ellipse cx="300.54" cy="-90" fill="none" stroke="#000" rx="81.49" ry="18"/>
            <text x="300.54" y="-86.3" font-family="Times,serif" font-size="14" text-anchor="middle">:core:datastore</text>
        </g>
        <g class="node" transform="translate(4 112)">
            <ellipse cx="108.54" cy="-18" fill="none" stroke="#000" rx="108.58" ry="18"/>
            <text x="108.54" y="-14.3" font-family="Times,serif" font-size="14" text-anchor="middle">:core:datastore-proto</text>
        </g>
        <g stroke="red" stroke-width="2" class="edge">
            <path fill="none" d="M264.29 37.67c-28.9 10.54-68.11 24.84-99.44 36.26"/>
            <path fill="red" d="m166 77.24-10.6.13 8.2-6.71 2.4 6.58z"/>
        </g>
        <g class="node" transform="translate(4 112)">
            <ellipse cx="300.54" cy="-18" fill="none" stroke="#000" rx="64.99" ry="18"/>
            <text x="300.54" y="-14.3" font-family="Times,serif" font-size="14" text-anchor="middle">:core:model</text>
        </g>
        <g stroke="#000" class="edge">
            <path fill="none" d="M304.54 40.3v25.59"/>
            <path d="m308.04 65.9-3.5 10-3.5-10h7z"/>
        </g>
        <g class="node" transform="translate(4 112)">
            <ellipse cx="458.54" cy="-18" fill="none" stroke="#000" rx="75.29" ry="18"/>
            <text x="458.54" y="-14.3" font-family="Times,serif" font-size="14" text-anchor="middle">:core:common</text>
        </g>
        <g stroke="#000" class="edge">
            <path fill="none" d="M339.21 38.36c23.52 10.42 54.8 24.28 79.96 35.43"/>
            <path d="m420.77 70.66 7.72 7.25-10.56-.85 2.84-6.4z"/>
        </g>
    </g>
</svg>
