<?xml version="1.0" encoding="UTF-8" standalone="no"?>
<!DOCTYPE svg PUBLIC "-//W3C//DTD SVG 1.1//EN"
 "http://www.w3.org/Graphics/SVG/1.1/DTD/svg11.dtd">
<!-- Generated by graphviz version 2.43.0 (0)
 -->
<!-- Title: G Pages: 1 -->
<svg width="885pt" height="620pt"
 viewBox="0.00 0.00 884.74 620.00" xmlns="http://www.w3.org/2000/svg" xmlns:xlink="http://www.w3.org/1999/xlink">
<g id="graph0" class="graph" transform="scale(1 1) rotate(0) translate(4 616)">
<title>G</title>
<polygon fill="white" stroke="transparent" points="-4,4 -4,-616 880.74,-616 880.74,4 -4,4"/>
<!-- :feature:generalrule -->
<g id="node1" class="node">
<title>:feature:generalrule</title>
<ellipse fill="none" stroke="black" cx="502" cy="-594" rx="103.98" ry="18"/>
<text text-anchor="middle" x="502" y="-590.3" font-family="Times,serif" font-size="14.00">:feature:generalrule</text>
</g>
<!-- :core:ui -->
<g id="node2" class="node">
<title>:core:ui</title>
<ellipse fill="none" stroke="black" cx="600" cy="-522" rx="45.49" ry="18"/>
<text text-anchor="middle" x="600" y="-518.3" font-family="Times,serif" font-size="14.00">:core:ui</text>
</g>
<!-- :feature:generalrule&#45;&gt;:core:ui -->
<g id="edge1" class="edge">
<title>:feature:generalrule&#45;&gt;:core:ui</title>
<path fill="none" stroke="red" stroke-width="2" d="M525.22,-576.41C538.85,-566.68 556.2,-554.29 570.75,-543.89"/>
<polygon fill="red" stroke="red" stroke-width="2" points="572.84,-546.7 578.95,-538.04 568.77,-541 572.84,-546.7"/>
</g>
<!-- :core:designsystem -->
<g id="node3" class="node">
<title>:core:designsystem</title>
<ellipse fill="none" stroke="black" cx="238" cy="-450" rx="100.98" ry="18"/>
<text text-anchor="middle" x="238" y="-446.3" font-family="Times,serif" font-size="14.00">:core:designsystem</text>
</g>
<!-- :feature:generalrule&#45;&gt;:core:designsystem -->
<g id="edge2" class="edge">
<title>:feature:generalrule&#45;&gt;:core:designsystem</title>
<path fill="none" stroke="black" d="M471.72,-576.71C423.8,-550.94 330.53,-500.77 277.44,-472.22"/>
<polygon fill="black" stroke="black" points="278.8,-468.97 268.34,-467.32 275.49,-475.14 278.8,-468.97"/>
</g>
<!-- :core:data -->
<g id="node4" class="node">
<title>:core:data</title>
<ellipse fill="none" stroke="black" cx="527" cy="-306" rx="57.39" ry="18"/>
<text text-anchor="middle" x="527" y="-302.3" font-family="Times,serif" font-size="14.00">:core:data</text>
</g>
<!-- :feature:generalrule&#45;&gt;:core:data -->
<g id="edge3" class="edge">
<title>:feature:generalrule&#45;&gt;:core:data</title>
<path fill="none" stroke="black" d="M503.49,-575.97C507.66,-528.29 519.47,-393.18 524.58,-334.63"/>
<polygon fill="black" stroke="black" points="528.1,-334.57 525.49,-324.31 521.13,-333.96 528.1,-334.57"/>
</g>
<!-- :core:domain -->
<g id="node5" class="node">
<title>:core:domain</title>
<ellipse fill="none" stroke="black" cx="428" cy="-450" rx="70.69" ry="18"/>
<text text-anchor="middle" x="428" y="-446.3" font-family="Times,serif" font-size="14.00">:core:domain</text>
</g>
<!-- :feature:generalrule&#45;&gt;:core:domain -->
<g id="edge4" class="edge">
<title>:feature:generalrule&#45;&gt;:core:domain</title>
<path fill="none" stroke="black" d="M493.07,-575.87C480.3,-551.35 456.68,-506.03 441.68,-477.26"/>
<polygon fill="black" stroke="black" points="444.68,-475.44 436.96,-468.19 438.48,-478.67 444.68,-475.44"/>
</g>
<!-- :core:ui&#45;&gt;:core:designsystem -->
<g id="edge6" class="edge">
<title>:core:ui&#45;&gt;:core:designsystem</title>
<path fill="none" stroke="black" d="M559.88,-513.24C500.59,-501.78 388.55,-480.11 313.56,-465.61"/>
<polygon fill="black" stroke="black" points="314.18,-462.17 303.69,-463.7 312.85,-469.04 314.18,-462.17"/>
</g>
<!-- :core:ui&#45;&gt;:core:domain -->
<g id="edge8" class="edge">
<title>:core:ui&#45;&gt;:core:domain</title>
<path fill="none" stroke="red" stroke-width="2" d="M569.25,-508.49C542.57,-497.63 503.59,-481.76 473.33,-469.45"/>
<polygon fill="red" stroke="red" stroke-width="2" points="474.42,-466.11 463.84,-465.59 471.78,-472.6 474.42,-466.11"/>
</g>
<!-- :core:analytics -->
<g id="node6" class="node">
<title>:core:analytics</title>
<ellipse fill="none" stroke="black" cx="768" cy="-234" rx="77.99" ry="18"/>
<text text-anchor="middle" x="768" y="-230.3" font-family="Times,serif" font-size="14.00">:core:analytics</text>
</g>
<!-- :core:ui&#45;&gt;:core:analytics -->
<g id="edge5" class="edge">
<title>:core:ui&#45;&gt;:core:analytics</title>
<path fill="none" stroke="black" d="M609.76,-504.39C637.82,-456.62 718.88,-318.63 752.79,-260.89"/>
<polygon fill="black" stroke="black" points="755.96,-262.41 758,-252.02 749.92,-258.87 755.96,-262.41"/>
</g>
<!-- :core:model -->
<g id="node7" class="node">
<title>:core:model</title>
<ellipse fill="none" stroke="black" cx="386" cy="-18" rx="64.99" ry="18"/>
<text text-anchor="middle" x="386" y="-14.3" font-family="Times,serif" font-size="14.00">:core:model</text>
</g>
<!-- :core:ui&#45;&gt;:core:model -->
<g id="edge7" class="edge">
<title>:core:ui&#45;&gt;:core:model</title>
<path fill="none" stroke="black" d="M644.33,-517.95C721.88,-509.94 874,-481.2 874,-379 874,-379 874,-379 874,-161 874,-120.55 884.96,-99.17 855,-72 826.33,-46 584.51,-29.51 459.79,-22.65"/>
<polygon fill="black" stroke="black" points="459.73,-19.15 449.55,-22.1 459.35,-26.13 459.73,-19.15"/>
</g>
<!-- :core:data&#45;&gt;:core:analytics -->
<g id="edge19" class="edge">
<title>:core:data&#45;&gt;:core:analytics</title>
<path fill="none" stroke="black" d="M567.61,-293.2C607.14,-281.72 667.56,-264.17 711.72,-251.35"/>
<polygon fill="black" stroke="black" points="712.82,-254.67 721.44,-248.52 710.86,-247.95 712.82,-254.67"/>
</g>
<!-- :core:common -->
<g id="node8" class="node">
<title>:core:common</title>
<ellipse fill="none" stroke="black" cx="283" cy="-90" rx="75.29" ry="18"/>
<text text-anchor="middle" x="283" y="-86.3" font-family="Times,serif" font-size="14.00">:core:common</text>
</g>
<!-- :core:data&#45;&gt;:core:common -->
<g id="edge15" class="edge">
<title>:core:data&#45;&gt;:core:common</title>
<path fill="none" stroke="black" d="M516.11,-288.23C503.25,-269.25 480.5,-238.12 456,-216 434.04,-196.17 423.29,-198.25 400,-180 381.69,-165.65 380.17,-158.53 362,-144 348.01,-132.81 331.69,-121.58 317.53,-112.37"/>
<polygon fill="black" stroke="black" points="319.33,-109.37 309.03,-106.9 315.55,-115.25 319.33,-109.37"/>
</g>
<!-- :core:component&#45;controller -->
<g id="node9" class="node">
<title>:core:component&#45;controller</title>
<ellipse fill="none" stroke="black" cx="240" cy="-234" rx="135.68" ry="18"/>
<text text-anchor="middle" x="240" y="-230.3" font-family="Times,serif" font-size="14.00">:core:component&#45;controller</text>
</g>
<!-- :core:data&#45;&gt;:core:component&#45;controller -->
<g id="edge20" class="edge">
<title>:core:data&#45;&gt;:core:component&#45;controller</title>
<path fill="none" stroke="red" stroke-width="2" d="M483.1,-294.29C437.49,-283.17 365.41,-265.59 311.56,-252.45"/>
<polygon fill="red" stroke="red" stroke-width="2" points="312.27,-249.02 301.72,-250.05 310.61,-255.82 312.27,-249.02"/>
</g>
<!-- :core:database -->
<g id="node12" class="node">
<title>:core:database</title>
<ellipse fill="none" stroke="black" cx="767" cy="-90" rx="78.79" ry="18"/>
<text text-anchor="middle" x="767" y="-86.3" font-family="Times,serif" font-size="14.00">:core:database</text>
</g>
<!-- :core:data&#45;&gt;:core:database -->
<g id="edge16" class="edge">
<title>:core:data&#45;&gt;:core:database</title>
<path fill="none" stroke="black" d="M552.75,-289.79C583.21,-271.88 635.55,-241.33 681,-216 710.53,-199.54 727.7,-207.03 748,-180 761.31,-162.28 765.73,-137.26 767.02,-118.26"/>
<polygon fill="black" stroke="black" points="770.52,-118.28 767.45,-108.14 763.53,-117.98 770.52,-118.28"/>
</g>
<!-- :core:datastore -->
<g id="node13" class="node">
<title>:core:datastore</title>
<ellipse fill="none" stroke="black" cx="490" cy="-162" rx="81.49" ry="18"/>
<text text-anchor="middle" x="490" y="-158.3" font-family="Times,serif" font-size="14.00">:core:datastore</text>
</g>
<!-- :core:data&#45;&gt;:core:datastore -->
<g id="edge17" class="edge">
<title>:core:data&#45;&gt;:core:datastore</title>
<path fill="none" stroke="black" d="M522.54,-287.87C516.2,-263.56 504.54,-218.82 497.04,-190.01"/>
<polygon fill="black" stroke="black" points="500.39,-188.98 494.48,-180.19 493.61,-190.75 500.39,-188.98"/>
</g>
<!-- :core:network -->
<g id="node14" class="node">
<title>:core:network</title>
<ellipse fill="none" stroke="black" cx="664" cy="-162" rx="74.99" ry="18"/>
<text text-anchor="middle" x="664" y="-158.3" font-family="Times,serif" font-size="14.00">:core:network</text>
</g>
<!-- :core:data&#45;&gt;:core:network -->
<g id="edge18" class="edge">
<title>:core:data&#45;&gt;:core:network</title>
<path fill="none" stroke="black" d="M542.98,-288.43C567.09,-263.45 612.87,-215.99 640.69,-187.16"/>
<polygon fill="black" stroke="black" points="643.27,-189.53 647.69,-179.9 638.23,-184.67 643.27,-189.53"/>
</g>
<!-- :core:domain&#45;&gt;:core:data -->
<g id="edge9" class="edge">
<title>:core:domain&#45;&gt;:core:data</title>
<path fill="none" stroke="black" d="M439.75,-432.15C457.01,-407.39 489.37,-360.97 509.46,-332.16"/>
<polygon fill="black" stroke="black" points="512.42,-334.03 515.27,-323.82 506.68,-330.03 512.42,-334.03"/>
</g>
<!-- :core:domain&#45;&gt;:core:model -->
<g id="edge10" class="edge">
<title>:core:domain&#45;&gt;:core:model</title>
<path fill="none" stroke="black" d="M376,-437.58C366.69,-435.64 357.07,-433.71 348,-432 186.5,-401.58 0,-471.34 0,-307 0,-307 0,-307 0,-161 0,-93.49 210.61,-48.24 320.69,-29.19"/>
<polygon fill="black" stroke="black" points="321.43,-32.62 330.7,-27.49 320.25,-25.72 321.43,-32.62"/>
</g>
<!-- :core:domain&#45;&gt;:core:common -->
<g id="edge11" class="edge">
<title>:core:domain&#45;&gt;:core:common</title>
<path fill="none" stroke="black" d="M379.79,-436.66C275.44,-409.27 38,-342.98 38,-307 38,-307 38,-307 38,-233 38,-152.83 137.42,-117.17 209.6,-101.86"/>
<polygon fill="black" stroke="black" points="210.48,-105.25 219.59,-99.83 209.09,-98.39 210.48,-105.25"/>
</g>
<!-- :core:domain&#45;&gt;:core:component&#45;controller -->
<g id="edge12" class="edge">
<title>:core:domain&#45;&gt;:core:component&#45;controller</title>
<path fill="none" stroke="black" d="M373.34,-438.51C346.57,-430.82 315.73,-417.79 295,-396 259.58,-358.76 246.9,-297.77 242.41,-262.51"/>
<polygon fill="black" stroke="black" points="245.87,-261.99 241.27,-252.45 238.92,-262.78 245.87,-261.99"/>
</g>
<!-- :core:ifw&#45;api -->
<g id="node10" class="node">
<title>:core:ifw&#45;api</title>
<ellipse fill="none" stroke="black" cx="285" cy="-162" rx="67.69" ry="18"/>
<text text-anchor="middle" x="285" y="-158.3" font-family="Times,serif" font-size="14.00">:core:ifw&#45;api</text>
</g>
<!-- :core:domain&#45;&gt;:core:ifw&#45;api -->
<g id="edge13" class="edge">
<title>:core:domain&#45;&gt;:core:ifw&#45;api</title>
<path fill="none" stroke="black" d="M431.72,-431.99C439.78,-390.45 454.37,-282.37 405,-216 390.85,-196.98 368.37,-184.66 346.66,-176.75"/>
<polygon fill="black" stroke="black" points="347.71,-173.4 337.11,-173.51 345.46,-180.03 347.71,-173.4"/>
</g>
<!-- :core:rule -->
<g id="node11" class="node">
<title>:core:rule</title>
<ellipse fill="none" stroke="black" cx="359" cy="-378" rx="55.49" ry="18"/>
<text text-anchor="middle" x="359" y="-374.3" font-family="Times,serif" font-size="14.00">:core:rule</text>
</g>
<!-- :core:domain&#45;&gt;:core:rule -->
<g id="edge14" class="edge">
<title>:core:domain&#45;&gt;:core:rule</title>
<path fill="none" stroke="red" stroke-width="2" d="M411.65,-432.41C402.88,-423.52 391.93,-412.41 382.29,-402.63"/>
<polygon fill="red" stroke="red" stroke-width="2" points="384.75,-400.13 375.23,-395.47 379.76,-405.05 384.75,-400.13"/>
</g>
<!-- :core:common&#45;&gt;:core:model -->
<g id="edge21" class="edge">
<title>:core:common&#45;&gt;:core:model</title>
<path fill="none" stroke="red" stroke-width="2" d="M306.89,-72.76C320.9,-63.24 338.78,-51.09 353.99,-40.75"/>
<polygon fill="red" stroke="red" stroke-width="2" points="356.29,-43.42 362.6,-34.91 352.36,-37.63 356.29,-43.42"/>
</g>
<!-- :core:component&#45;controller&#45;&gt;:core:model -->
<g id="edge29" class="edge">
<title>:core:component&#45;controller&#45;&gt;:core:model</title>
<path fill="none" stroke="black" d="M222.76,-216.04C214.16,-206.38 204.63,-193.52 200,-180 184.44,-134.59 170.05,-110.29 199,-72 213.82,-52.4 272.3,-37.95 319.97,-29.13"/>
<polygon fill="black" stroke="black" points="320.73,-32.55 329.96,-27.33 319.49,-25.66 320.73,-32.55"/>
</g>
<!-- :core:component&#45;controller&#45;&gt;:core:common -->
<g id="edge28" class="edge">
<title>:core:component&#45;controller&#45;&gt;:core:common</title>
<path fill="none" stroke="black" d="M225.77,-216.04C212.23,-197.71 195.62,-167.91 208,-144 215.03,-130.43 227.31,-119.59 239.93,-111.33"/>
<polygon fill="black" stroke="black" points="241.93,-114.22 248.66,-106.03 238.29,-108.23 241.93,-114.22"/>
</g>
<!-- :core:component&#45;controller&#45;&gt;:core:ifw&#45;api -->
<g id="edge30" class="edge">
<title>:core:component&#45;controller&#45;&gt;:core:ifw&#45;api</title>
<path fill="none" stroke="red" stroke-width="2" d="M250.89,-216.05C256.25,-207.71 262.83,-197.49 268.77,-188.25"/>
<polygon fill="red" stroke="red" stroke-width="2" points="271.74,-190.09 274.21,-179.79 265.86,-186.31 271.74,-190.09"/>
</g>
<!-- :core:ifw&#45;api&#45;&gt;:core:common -->
<g id="edge31" class="edge">
<title>:core:ifw&#45;api&#45;&gt;:core:common</title>
<path fill="none" stroke="red" stroke-width="2" d="M284.51,-143.7C284.29,-135.98 284.02,-126.71 283.77,-118.11"/>
<polygon fill="red" stroke="red" stroke-width="2" points="287.27,-118 283.49,-108.1 280.28,-118.2 287.27,-118"/>
</g>
<!-- :core:rule&#45;&gt;:core:data -->
<g id="edge34" class="edge">
<title>:core:rule&#45;&gt;:core:data</title>
<path fill="none" stroke="red" stroke-width="2" d="M391.79,-363.34C418.3,-352.29 455.81,-336.66 484.6,-324.66"/>
<polygon fill="red" stroke="red" stroke-width="2" points="486.12,-327.82 494.01,-320.75 483.43,-321.36 486.12,-327.82"/>
</g>
<!-- :core:rule&#45;&gt;:core:common -->
<g id="edge32" class="edge">
<title>:core:rule&#45;&gt;:core:common</title>
<path fill="none" stroke="black" d="M309.89,-369.74C247.5,-357.6 142.26,-326.67 95,-252 53.9,-187.06 161.97,-134.28 230.85,-108.36"/>
<polygon fill="black" stroke="black" points="232.12,-111.63 240.29,-104.89 229.7,-105.06 232.12,-111.63"/>
</g>
<!-- :core:rule&#45;&gt;:core:component&#45;controller -->
<g id="edge33" class="edge">
<title>:core:rule&#45;&gt;:core:component&#45;controller</title>
<path fill="none" stroke="black" d="M345.12,-360.43C324.47,-335.8 285.51,-289.3 261.26,-260.37"/>
<polygon fill="black" stroke="black" points="263.64,-257.76 254.54,-252.35 258.28,-262.26 263.64,-257.76"/>
</g>
<!-- :core:rule&#45;&gt;:core:ifw&#45;api -->
<g id="edge35" class="edge">
<title>:core:rule&#45;&gt;:core:ifw&#45;api</title>
<path fill="none" stroke="black" d="M368.57,-360.09C384.69,-329.15 412.88,-262.34 385,-216 374.96,-199.31 357.69,-187.6 340.31,-179.51"/>
<polygon fill="black" stroke="black" points="341.26,-176.11 330.69,-175.38 338.5,-182.54 341.26,-176.11"/>
</g>
<!-- :core:database&#45;&gt;:core:model -->
<g id="edge22" class="edge">
<title>:core:database&#45;&gt;:core:model</title>
<path fill="none" stroke="black" d="M707.47,-78.06C637.15,-65.14 520.69,-43.75 448.93,-30.56"/>
<polygon fill="black" stroke="black" points="449.14,-27.04 438.68,-28.68 447.88,-33.93 449.14,-27.04"/>
</g>
<!-- :core:datastore&#45;&gt;:core:model -->
<g id="edge24" class="edge">
<title>:core:datastore&#45;&gt;:core:model</title>
<path fill="none" stroke="black" d="M452.37,-145.82C435.44,-137.16 416.69,-124.66 405,-108 392.35,-89.97 387.84,-65.18 386.36,-46.34"/>
<polygon fill="black" stroke="black" points="389.85,-46.1 385.81,-36.3 382.86,-46.48 389.85,-46.1"/>
</g>
<!-- :core:datastore&#45;&gt;:core:common -->
<g id="edge25" class="edge">
<title>:core:datastore&#45;&gt;:core:common</title>
<path fill="none" stroke="black" d="M447.36,-146.58C414.47,-135.46 368.87,-120.04 334.04,-108.26"/>
<polygon fill="black" stroke="black" points="335.12,-104.93 324.52,-105.04 332.88,-111.56 335.12,-104.93"/>
</g>
<!-- :core:datastore&#45;proto -->
<g id="node15" class="node">
<title>:core:datastore&#45;proto</title>
<ellipse fill="none" stroke="black" cx="523" cy="-90" rx="108.58" ry="18"/>
<text text-anchor="middle" x="523" y="-86.3" font-family="Times,serif" font-size="14.00">:core:datastore&#45;proto</text>
</g>
<!-- :core:datastore&#45;&gt;:core:datastore&#45;proto -->
<g id="edge23" class="edge">
<title>:core:datastore&#45;&gt;:core:datastore&#45;proto</title>
<path fill="none" stroke="black" d="M497.99,-144.05C501.74,-136.09 506.31,-126.41 510.5,-117.51"/>
<polygon fill="black" stroke="black" points="513.76,-118.81 514.86,-108.28 507.43,-115.83 513.76,-118.81"/>
</g>
<!-- :core:network&#45;&gt;:core:model -->
<g id="edge27" class="edge">
<title>:core:network&#45;&gt;:core:model</title>
<path fill="none" stroke="black" d="M664.61,-143.95C664.34,-123.82 660.64,-90.72 641,-72 615,-47.22 523.09,-32.79 457.07,-25.4"/>
<polygon fill="black" stroke="black" points="457.44,-21.92 447.12,-24.32 456.68,-28.88 457.44,-21.92"/>
</g>
<!-- :core:network&#45;&gt;:core:common -->
<g id="edge26" class="edge">
<title>:core:network&#45;&gt;:core:common</title>
<path fill="none" stroke="black" d="M608.91,-149.66C599.28,-147.73 589.35,-145.78 580,-144 502.18,-129.18 412.64,-113.37 352.4,-102.92"/>
<polygon fill="black" stroke="black" points="352.69,-99.42 342.24,-101.16 351.5,-106.31 352.69,-99.42"/>
</g>
</g>
</svg>
