<?xml version="1.0" encoding="UTF-8" standalone="no"?>
<!DOCTYPE svg PUBLIC "-//W3C//DTD SVG 1.1//EN"
 "http://www.w3.org/Graphics/SVG/1.1/DTD/svg11.dtd">
<!-- Generated by graphviz version 2.43.0 (0)
 -->
<!-- Title: G Pages: 1 -->
<svg width="1181pt" height="548pt"
 viewBox="0.00 0.00 1180.74 548.00" xmlns="http://www.w3.org/2000/svg" xmlns:xlink="http://www.w3.org/1999/xlink">
<g id="graph0" class="graph" transform="scale(1 1) rotate(0) translate(4 544)">
<title>G</title>
<polygon fill="white" stroke="transparent" points="-4,4 -4,-544 1176.74,-544 1176.74,4 -4,4"/>
<!-- :feature:appdetail -->
<g id="node1" class="node">
<title>:feature:appdetail</title>
<ellipse fill="none" stroke="black" cx="574.74" cy="-522" rx="93.68" ry="18"/>
<text text-anchor="middle" x="574.74" y="-518.3" font-family="Times,serif" font-size="14.00">:feature:appdetail</text>
</g>
<!-- :core:ui -->
<g id="node2" class="node">
<title>:core:ui</title>
<ellipse fill="none" stroke="black" cx="267.74" cy="-450" rx="45.49" ry="18"/>
<text text-anchor="middle" x="267.74" y="-446.3" font-family="Times,serif" font-size="14.00">:core:ui</text>
</g>
<!-- :feature:appdetail&#45;&gt;:core:ui -->
<g id="edge1" class="edge">
<title>:feature:appdetail&#45;&gt;:core:ui</title>
<path fill="none" stroke="red" stroke-width="2" d="M517,-507.83C458.95,-494.6 370.48,-474.43 316.04,-462.01"/>
<polygon fill="red" stroke="red" stroke-width="2" points="316.81,-458.6 306.29,-459.79 315.26,-465.42 316.81,-458.6"/>
</g>
<!-- :core:designsystem -->
<g id="node3" class="node">
<title>:core:designsystem</title>
<ellipse fill="none" stroke="black" cx="100.74" cy="-378" rx="100.98" ry="18"/>
<text text-anchor="middle" x="100.74" y="-374.3" font-family="Times,serif" font-size="14.00">:core:designsystem</text>
</g>
<!-- :feature:appdetail&#45;&gt;:core:designsystem -->
<g id="edge2" class="edge">
<title>:feature:appdetail&#45;&gt;:core:designsystem</title>
<path fill="none" stroke="black" d="M481.42,-520.42C406.33,-516.91 299.56,-504.94 213.74,-468 178.6,-452.88 145.06,-423.98 123.78,-403.22"/>
<polygon fill="black" stroke="black" points="126.07,-400.56 116.51,-395.97 121.12,-405.51 126.07,-400.56"/>
</g>
<!-- :core:component&#45;controller -->
<g id="node4" class="node">
<title>:core:component&#45;controller</title>
<ellipse fill="none" stroke="black" cx="681.74" cy="-162" rx="135.68" ry="18"/>
<text text-anchor="middle" x="681.74" y="-158.3" font-family="Times,serif" font-size="14.00">:core:component&#45;controller</text>
</g>
<!-- :feature:appdetail&#45;&gt;:core:component&#45;controller -->
<g id="edge3" class="edge">
<title>:feature:appdetail&#45;&gt;:core:component&#45;controller</title>
<path fill="none" stroke="black" d="M566.13,-503.75C552.42,-473.92 528.75,-411 544.74,-360 566.87,-289.41 624.22,-221.97 657.28,-187.27"/>
<polygon fill="black" stroke="black" points="659.9,-189.59 664.33,-179.97 654.87,-184.72 659.9,-189.59"/>
</g>
<!-- :core:data -->
<g id="node5" class="node">
<title>:core:data</title>
<ellipse fill="none" stroke="black" cx="913.74" cy="-234" rx="57.39" ry="18"/>
<text text-anchor="middle" x="913.74" y="-230.3" font-family="Times,serif" font-size="14.00">:core:data</text>
</g>
<!-- :feature:appdetail&#45;&gt;:core:data -->
<g id="edge4" class="edge">
<title>:feature:appdetail&#45;&gt;:core:data</title>
<path fill="none" stroke="black" d="M608.84,-505.18C628.07,-495.58 652.1,-482.42 671.74,-468 761.81,-401.88 852.6,-304.24 892.59,-259.28"/>
<polygon fill="black" stroke="black" points="895.45,-261.33 899.45,-251.52 890.21,-256.69 895.45,-261.33"/>
</g>
<!-- :core:domain -->
<g id="node6" class="node">
<title>:core:domain</title>
<ellipse fill="none" stroke="black" cx="624.74" cy="-378" rx="70.69" ry="18"/>
<text text-anchor="middle" x="624.74" y="-374.3" font-family="Times,serif" font-size="14.00">:core:domain</text>
</g>
<!-- :feature:appdetail&#45;&gt;:core:domain -->
<g id="edge5" class="edge">
<title>:feature:appdetail&#45;&gt;:core:domain</title>
<path fill="none" stroke="black" d="M580.77,-503.87C589.37,-479.46 605.22,-434.43 615.36,-405.64"/>
<polygon fill="black" stroke="black" points="618.67,-406.78 618.69,-396.19 612.07,-404.46 618.67,-406.78"/>
</g>
<!-- :core:rule -->
<g id="node7" class="node">
<title>:core:rule</title>
<ellipse fill="none" stroke="black" cx="740.74" cy="-306" rx="55.49" ry="18"/>
<text text-anchor="middle" x="740.74" y="-302.3" font-family="Times,serif" font-size="14.00">:core:rule</text>
</g>
<!-- :feature:appdetail&#45;&gt;:core:rule -->
<g id="edge6" class="edge">
<title>:feature:appdetail&#45;&gt;:core:rule</title>
<path fill="none" stroke="black" d="M597.31,-504.25C625.69,-482.18 674.39,-440.87 704.74,-396 717.74,-376.78 727.25,-352.14 733.22,-333.67"/>
<polygon fill="black" stroke="black" points="736.56,-334.69 736.17,-324.11 729.87,-332.63 736.56,-334.69"/>
</g>
<!-- :core:ui&#45;&gt;:core:designsystem -->
<g id="edge8" class="edge">
<title>:core:ui&#45;&gt;:core:designsystem</title>
<path fill="none" stroke="black" d="M237.5,-436.32C212.5,-425.85 176.58,-410.79 147.82,-398.73"/>
<polygon fill="black" stroke="black" points="148.94,-395.41 138.37,-394.77 146.24,-401.87 148.94,-395.41"/>
</g>
<!-- :core:ui&#45;&gt;:core:domain -->
<g id="edge10" class="edge">
<title>:core:ui&#45;&gt;:core:domain</title>
<path fill="none" stroke="red" stroke-width="2" d="M307.65,-441.17C369,-429.15 487.04,-406 560.52,-391.59"/>
<polygon fill="red" stroke="red" stroke-width="2" points="561.44,-394.98 570.58,-389.62 560.09,-388.11 561.44,-394.98"/>
</g>
<!-- :core:analytics -->
<g id="node8" class="node">
<title>:core:analytics</title>
<ellipse fill="none" stroke="black" cx="373.74" cy="-162" rx="77.99" ry="18"/>
<text text-anchor="middle" x="373.74" y="-158.3" font-family="Times,serif" font-size="14.00">:core:analytics</text>
</g>
<!-- :core:ui&#45;&gt;:core:analytics -->
<g id="edge7" class="edge">
<title>:core:ui&#45;&gt;:core:analytics</title>
<path fill="none" stroke="black" d="M274.05,-431.97C291.84,-383.98 342.45,-247.41 363.92,-189.49"/>
<polygon fill="black" stroke="black" points="367.27,-190.54 367.46,-179.94 360.7,-188.11 367.27,-190.54"/>
</g>
<!-- :core:model -->
<g id="node9" class="node">
<title>:core:model</title>
<ellipse fill="none" stroke="black" cx="634.74" cy="-18" rx="64.99" ry="18"/>
<text text-anchor="middle" x="634.74" y="-14.3" font-family="Times,serif" font-size="14.00">:core:model</text>
</g>
<!-- :core:ui&#45;&gt;:core:model -->
<g id="edge9" class="edge">
<title>:core:ui&#45;&gt;:core:model</title>
<path fill="none" stroke="black" d="M260.05,-431.91C248.95,-405.62 229.74,-353.45 229.74,-307 229.74,-307 229.74,-307 229.74,-161 229.74,-106.3 266.38,-97.56 314.74,-72 356.87,-49.73 483.18,-33.74 563.94,-25.46"/>
<polygon fill="black" stroke="black" points="564.44,-28.93 574.04,-24.44 563.74,-21.96 564.44,-28.93"/>
</g>
<!-- :core:component&#45;controller&#45;&gt;:core:model -->
<g id="edge30" class="edge">
<title>:core:component&#45;controller&#45;&gt;:core:model</title>
<path fill="none" stroke="black" d="M673.42,-143.59C668.73,-133.37 662.98,-120.12 658.74,-108 651.59,-87.54 645.29,-63.82 640.94,-46.02"/>
<polygon fill="black" stroke="black" points="644.34,-45.2 638.61,-36.29 637.53,-46.83 644.34,-45.2"/>
</g>
<!-- :core:common -->
<g id="node10" class="node">
<title>:core:common</title>
<ellipse fill="none" stroke="black" cx="1062.74" cy="-18" rx="75.29" ry="18"/>
<text text-anchor="middle" x="1062.74" y="-14.3" font-family="Times,serif" font-size="14.00">:core:common</text>
</g>
<!-- :core:component&#45;controller&#45;&gt;:core:common -->
<g id="edge29" class="edge">
<title>:core:component&#45;controller&#45;&gt;:core:common</title>
<path fill="none" stroke="black" d="M685.96,-143.77C691.98,-123.13 705.13,-89.19 729.74,-72 821.4,-7.95 868.57,-55.1 978.74,-36 984.99,-34.92 991.5,-33.72 997.99,-32.48"/>
<polygon fill="black" stroke="black" points="999,-35.85 1008.15,-30.51 997.67,-28.98 999,-35.85"/>
</g>
<!-- :core:ifw&#45;api -->
<g id="node11" class="node">
<title>:core:ifw&#45;api</title>
<ellipse fill="none" stroke="black" cx="538.74" cy="-90" rx="67.69" ry="18"/>
<text text-anchor="middle" x="538.74" y="-86.3" font-family="Times,serif" font-size="14.00">:core:ifw&#45;api</text>
</g>
<!-- :core:component&#45;controller&#45;&gt;:core:ifw&#45;api -->
<g id="edge31" class="edge">
<title>:core:component&#45;controller&#45;&gt;:core:ifw&#45;api</title>
<path fill="none" stroke="red" stroke-width="2" d="M647.85,-144.41C627.04,-134.22 600.28,-121.12 578.47,-110.45"/>
<polygon fill="red" stroke="red" stroke-width="2" points="579.98,-107.29 569.46,-106.04 576.9,-113.58 579.98,-107.29"/>
</g>
<!-- :core:data&#45;&gt;:core:component&#45;controller -->
<g id="edge22" class="edge">
<title>:core:data&#45;&gt;:core:component&#45;controller</title>
<path fill="none" stroke="red" stroke-width="2" d="M873.86,-220.97C838,-210.15 784.76,-194.08 743.41,-181.61"/>
<polygon fill="red" stroke="red" stroke-width="2" points="744.3,-178.22 733.71,-178.68 742.28,-184.92 744.3,-178.22"/>
</g>
<!-- :core:data&#45;&gt;:core:analytics -->
<g id="edge21" class="edge">
<title>:core:data&#45;&gt;:core:analytics</title>
<path fill="none" stroke="black" d="M861.96,-226.29C766.35,-213.89 561.69,-187.36 450.12,-172.9"/>
<polygon fill="black" stroke="black" points="450.31,-169.4 439.95,-171.58 449.41,-176.34 450.31,-169.4"/>
</g>
<!-- :core:data&#45;&gt;:core:common -->
<g id="edge17" class="edge">
<title>:core:data&#45;&gt;:core:common</title>
<path fill="none" stroke="black" d="M962.69,-224.5C991.65,-217.17 1027.15,-203.84 1050.74,-180 1085.55,-144.83 1084.54,-121.01 1077.74,-72 1076.56,-63.48 1074.35,-54.39 1071.99,-46.2"/>
<polygon fill="black" stroke="black" points="1075.26,-44.94 1068.98,-36.41 1068.57,-46.99 1075.26,-44.94"/>
</g>
<!-- :core:database -->
<g id="node12" class="node">
<title>:core:database</title>
<ellipse fill="none" stroke="black" cx="913.74" cy="-162" rx="78.79" ry="18"/>
<text text-anchor="middle" x="913.74" y="-158.3" font-family="Times,serif" font-size="14.00">:core:database</text>
</g>
<!-- :core:data&#45;&gt;:core:database -->
<g id="edge18" class="edge">
<title>:core:data&#45;&gt;:core:database</title>
<path fill="none" stroke="black" d="M913.74,-215.7C913.74,-207.98 913.74,-198.71 913.74,-190.11"/>
<polygon fill="black" stroke="black" points="917.24,-190.1 913.74,-180.1 910.24,-190.1 917.24,-190.1"/>
</g>
<!-- :core:datastore -->
<g id="node13" class="node">
<title>:core:datastore</title>
<ellipse fill="none" stroke="black" cx="987.74" cy="-90" rx="81.49" ry="18"/>
<text text-anchor="middle" x="987.74" y="-86.3" font-family="Times,serif" font-size="14.00">:core:datastore</text>
</g>
<!-- :core:data&#45;&gt;:core:datastore -->
<g id="edge19" class="edge">
<title>:core:data&#45;&gt;:core:datastore</title>
<path fill="none" stroke="black" d="M963.12,-224.68C989.14,-217.51 1018.87,-204.28 1034.74,-180 1048.54,-158.88 1031.83,-133.28 1014.63,-114.96"/>
<polygon fill="black" stroke="black" points="1016.84,-112.23 1007.32,-107.59 1011.88,-117.16 1016.84,-112.23"/>
</g>
<!-- :core:network -->
<g id="node14" class="node">
<title>:core:network</title>
<ellipse fill="none" stroke="black" cx="813.74" cy="-90" rx="74.99" ry="18"/>
<text text-anchor="middle" x="813.74" y="-86.3" font-family="Times,serif" font-size="14.00">:core:network</text>
</g>
<!-- :core:data&#45;&gt;:core:network -->
<g id="edge20" class="edge">
<title>:core:data&#45;&gt;:core:network</title>
<path fill="none" stroke="black" d="M951.58,-220.41C970.21,-212.08 990.95,-199.1 1001.74,-180 1009.61,-166.07 1011.4,-156.76 1001.74,-144 993.93,-133.68 928.58,-116.82 877.09,-104.89"/>
<polygon fill="black" stroke="black" points="877.86,-101.48 867.33,-102.65 876.29,-108.3 877.86,-101.48"/>
</g>
<!-- :core:domain&#45;&gt;:core:component&#45;controller -->
<g id="edge14" class="edge">
<title>:core:domain&#45;&gt;:core:component&#45;controller</title>
<path fill="none" stroke="black" d="M627.39,-359.8C630.32,-341.78 635.46,-312.7 641.74,-288 650.48,-253.65 663.37,-214.89 672.14,-189.76"/>
<polygon fill="black" stroke="black" points="675.49,-190.79 675.51,-180.2 668.88,-188.47 675.49,-190.79"/>
</g>
<!-- :core:domain&#45;&gt;:core:data -->
<g id="edge11" class="edge">
<title>:core:domain&#45;&gt;:core:data</title>
<path fill="none" stroke="black" d="M630.09,-359.69C637.31,-339.31 652.18,-305.95 676.74,-288 725.95,-252.05 795.14,-239.8 846.07,-235.95"/>
<polygon fill="black" stroke="black" points="846.57,-239.42 856.32,-235.26 846.11,-232.44 846.57,-239.42"/>
</g>
<!-- :core:domain&#45;&gt;:core:rule -->
<g id="edge16" class="edge">
<title>:core:domain&#45;&gt;:core:rule</title>
<path fill="none" stroke="red" stroke-width="2" d="M651.06,-361.12C667.57,-351.15 689.02,-338.21 706.8,-327.48"/>
<polygon fill="red" stroke="red" stroke-width="2" points="708.96,-330.26 715.72,-322.1 705.35,-324.27 708.96,-330.26"/>
</g>
<!-- :core:domain&#45;&gt;:core:model -->
<g id="edge12" class="edge">
<title>:core:domain&#45;&gt;:core:model</title>
<path fill="none" stroke="black" d="M572.76,-365.64C459.59,-338.4 207.21,-262.72 286.74,-144 346.59,-54.66 477.12,-28.72 560.2,-21.46"/>
<polygon fill="black" stroke="black" points="560.66,-24.93 570.34,-20.64 560.1,-17.95 560.66,-24.93"/>
</g>
<!-- :core:domain&#45;&gt;:core:common -->
<g id="edge13" class="edge">
<title>:core:domain&#45;&gt;:core:common</title>
<path fill="none" stroke="black" d="M693.59,-373.59C840.77,-364.43 1172.74,-332.91 1172.74,-235 1172.74,-235 1172.74,-235 1172.74,-161 1172.74,-110.05 1127.93,-66.29 1095.51,-41.3"/>
<polygon fill="black" stroke="black" points="1097.26,-38.24 1087.15,-35.06 1093.07,-43.84 1097.26,-38.24"/>
</g>
<!-- :core:domain&#45;&gt;:core:ifw&#45;api -->
<g id="edge15" class="edge">
<title>:core:domain&#45;&gt;:core:ifw&#45;api</title>
<path fill="none" stroke="black" d="M612.57,-360.19C589.75,-327.48 541.35,-252.14 524.74,-180 519.99,-159.36 524.18,-135.65 529.19,-117.9"/>
<polygon fill="black" stroke="black" points="532.57,-118.79 532.17,-108.2 525.88,-116.73 532.57,-118.79"/>
</g>
<!-- :core:rule&#45;&gt;:core:component&#45;controller -->
<g id="edge35" class="edge">
<title>:core:rule&#45;&gt;:core:component&#45;controller</title>
<path fill="none" stroke="black" d="M733.62,-287.87C723.48,-263.46 704.77,-218.43 692.81,-189.64"/>
<polygon fill="black" stroke="black" points="695.95,-188.08 688.88,-180.19 689.49,-190.77 695.95,-188.08"/>
</g>
<!-- :core:rule&#45;&gt;:core:data -->
<g id="edge36" class="edge">
<title>:core:rule&#45;&gt;:core:data</title>
<path fill="none" stroke="red" stroke-width="2" d="M774.1,-291.5C801.56,-280.39 840.7,-264.55 870.56,-252.47"/>
<polygon fill="red" stroke="red" stroke-width="2" points="871.94,-255.69 879.9,-248.69 869.31,-249.2 871.94,-255.69"/>
</g>
<!-- :core:rule&#45;&gt;:core:common -->
<g id="edge34" class="edge">
<title>:core:rule&#45;&gt;:core:common</title>
<path fill="none" stroke="black" d="M795.55,-303.37C874.03,-297.67 1015.69,-274.12 1076.74,-180 1103.15,-139.29 1105.1,-118.92 1092.74,-72 1090.25,-62.54 1085.64,-52.99 1080.77,-44.66"/>
<polygon fill="black" stroke="black" points="1083.73,-42.79 1075.47,-36.15 1077.79,-46.49 1083.73,-42.79"/>
</g>
<!-- :core:rule&#45;&gt;:core:ifw&#45;api -->
<g id="edge37" class="edge">
<title>:core:rule&#45;&gt;:core:ifw&#45;api</title>
<path fill="none" stroke="black" d="M700.54,-293.59C651.74,-277.33 571.65,-242.33 536.74,-180 526.21,-161.2 527.74,-136.48 531.32,-117.87"/>
<polygon fill="black" stroke="black" points="534.77,-118.49 533.52,-107.97 527.94,-116.97 534.77,-118.49"/>
</g>
<!-- :core:ifw&#45;api&#45;&gt;:core:model -->
<g id="edge33" class="edge">
<title>:core:ifw&#45;api&#45;&gt;:core:model</title>
<path fill="none" stroke="black" d="M561.01,-72.76C573.85,-63.4 590.18,-51.49 604.21,-41.26"/>
<polygon fill="black" stroke="black" points="606.58,-43.87 612.6,-35.15 602.45,-38.21 606.58,-43.87"/>
</g>
<!-- :core:ifw&#45;api&#45;&gt;:core:common -->
<g id="edge32" class="edge">
<title>:core:ifw&#45;api&#45;&gt;:core:common</title>
<path fill="none" stroke="red" stroke-width="2" d="M596.38,-80.49C616.13,-77.67 638.39,-74.59 658.74,-72 800.72,-53.96 837.36,-58.22 978.74,-36 985.26,-34.98 992.04,-33.8 998.8,-32.55"/>
<polygon fill="red" stroke="red" stroke-width="2" points="999.47,-35.98 1008.64,-30.67 998.17,-29.1 999.47,-35.98"/>
</g>
<!-- :core:database&#45;&gt;:core:model -->
<g id="edge23" class="edge">
<title>:core:database&#45;&gt;:core:model</title>
<path fill="none" stroke="black" d="M860.43,-148.59C814.47,-137.36 752.07,-120.68 729.74,-108 700.38,-91.32 672.93,-63.79 655.16,-43.76"/>
<polygon fill="black" stroke="black" points="657.59,-41.22 648.39,-35.96 652.3,-45.81 657.59,-41.22"/>
</g>
<!-- :core:datastore&#45;&gt;:core:model -->
<g id="edge25" class="edge">
<title>:core:datastore&#45;&gt;:core:model</title>
<path fill="none" stroke="black" d="M929.45,-77.44C865.04,-64.67 761.77,-44.19 696.14,-31.18"/>
<polygon fill="black" stroke="black" points="696.43,-27.67 685.94,-29.15 695.07,-34.53 696.43,-27.67"/>
</g>
<!-- :core:datastore&#45;&gt;:core:common -->
<g id="edge26" class="edge">
<title>:core:datastore&#45;&gt;:core:common</title>
<path fill="none" stroke="black" d="M1005.52,-72.41C1015.07,-63.5 1027,-52.36 1037.5,-42.56"/>
<polygon fill="black" stroke="black" points="1039.91,-45.09 1044.83,-35.71 1035.14,-39.98 1039.91,-45.09"/>
</g>
<!-- :core:datastore&#45;proto -->
<g id="node15" class="node">
<title>:core:datastore&#45;proto</title>
<ellipse fill="none" stroke="black" cx="860.74" cy="-18" rx="108.58" ry="18"/>
<text text-anchor="middle" x="860.74" y="-14.3" font-family="Times,serif" font-size="14.00">:core:datastore&#45;proto</text>
</g>
<!-- :core:datastore&#45;&gt;:core:datastore&#45;proto -->
<g id="edge24" class="edge">
<title>:core:datastore&#45;&gt;:core:datastore&#45;proto</title>
<path fill="none" stroke="black" d="M958.92,-73.12C941.36,-63.44 918.69,-50.94 899.56,-40.4"/>
<polygon fill="black" stroke="black" points="901.22,-37.31 890.77,-35.55 897.84,-43.44 901.22,-37.31"/>
</g>
<!-- :core:network&#45;&gt;:core:model -->
<g id="edge28" class="edge">
<title>:core:network&#45;&gt;:core:model</title>
<path fill="none" stroke="black" d="M776.22,-74.33C748.19,-63.36 709.75,-48.33 680.01,-36.7"/>
<polygon fill="black" stroke="black" points="681.28,-33.44 670.69,-33.06 678.73,-39.96 681.28,-33.44"/>
</g>
<!-- :core:network&#45;&gt;:core:common -->
<g id="edge27" class="edge">
<title>:core:network&#45;&gt;:core:common</title>
<path fill="none" stroke="black" d="M860.28,-75.92C901.64,-64.29 962.19,-47.27 1006.29,-34.87"/>
<polygon fill="black" stroke="black" points="1007.32,-38.21 1016,-32.14 1005.43,-31.48 1007.32,-38.21"/>
</g>
</g>
</svg>
