<?xml version="1.0" encoding="UTF-8" standalone="no"?>
<!DOCTYPE svg PUBLIC "-//W3C//DTD SVG 1.1//EN" "http://www.w3.org/Graphics/SVG/1.1/DTD/svg11.dtd">
<svg xmlns="http://www.w3.org/2000/svg" xmlns:xlink="http://www.w3.org/1999/xlink" width="542pt" height="116pt" viewBox="0.00 0.00 541.93 116.00">
  <g id="graph0" class="graph" transform="scale(1 1) rotate(0) translate(4 112)">
    <title>G</title>
    <polygon fill="white" stroke="transparent" points="-4,4 -4,-112 537.93,-112 537.93,4 -4,4"/>
    <g id="node1" class="node">
      <title>:core:datastore</title>
      <ellipse fill="none" stroke="black" cx="300.54" cy="-90" rx="81.49" ry="18"/>
      <text text-anchor="middle" x="300.54" y="-86.3" font-family="Times,serif" font-size="14.00">:core:datastore</text>
    </g>
    <g id="node2" class="node">
      <title>:core:datastore-proto</title>
      <ellipse fill="none" stroke="black" cx="108.54" cy="-18" rx="108.58" ry="18"/>
      <text text-anchor="middle" x="108.54" y="-14.3" font-family="Times,serif" font-size="14.00">:core:datastore-proto</text>
    </g>
    <g id="edge1" class="edge">
      <title>:core:datastore-&gt;:core:datastore-proto</title>
      <path fill="none" stroke="red" stroke-width="2" d="M260.29,-74.33C231.39,-63.79 192.18,-49.49 160.85,-38.07"/>
      <polygon fill="red" stroke="red" stroke-width="2" points="162,-34.76 151.4,-34.63 159.6,-41.34 162,-34.76"/>
    </g>
    <g id="node3" class="node">
      <title>:core:model</title>
      <ellipse fill="none" stroke="black" cx="300.54" cy="-18" rx="64.99" ry="18"/>
      <text text-anchor="middle" x="300.54" y="-14.3" font-family="Times,serif" font-size="14.00">:core:model</text>
    </g>
    <g id="edge2" class="edge">
      <title>:core:datastore-&gt;:core:model</title>
      <path fill="none" stroke="black" d="M300.54,-71.7C300.54,-63.98 300.54,-54.71 300.54,-46.11"/>
      <polygon fill="black" stroke="black" points="304.04,-46.1 300.54,-36.1 297.04,-46.1 304.04,-46.1"/>
    </g>
    <g id="node4" class="node">
      <title>:core:common</title>
      <ellipse fill="none" stroke="black" cx="458.54" cy="-18" rx="75.29" ry="18"/>
      <text text-anchor="middle" x="458.54" y="-14.3" font-family="Times,serif" font-size="14.00">:core:common</text>
    </g>
    <g id="edge3" class="edge">
      <title>:core:datastore-&gt;:core:common</title>
      <path fill="none" stroke="black" d="M335.21,-73.64C358.73,-63.22 390.01,-49.36 415.17,-38.21"/>
      <polygon fill="black" stroke="black" points="416.77,-41.34 424.49,-34.09 413.93,-34.94 416.77,-41.34"/>
    </g>
  </g>
</svg>
