<?xml version="1.0" encoding="UTF-8" standalone="no"?>
<!DOCTYPE svg PUBLIC "-//W3C//DTD SVG 1.1//EN"
 "http://www.w3.org/Graphics/SVG/1.1/DTD/svg11.dtd">
<!-- Generated by graphviz version 2.43.0 (0)
 -->
<!-- Title: G Pages: 1 -->
<svg width="1769pt" height="692pt"
 viewBox="0.00 0.00 1769.20 692.00" xmlns="http://www.w3.org/2000/svg" xmlns:xlink="http://www.w3.org/1999/xlink">
<g id="graph0" class="graph" transform="scale(1 1) rotate(0) translate(4 688)">
<title>G</title>
<polygon fill="white" stroke="transparent" points="-4,4 -4,-688 1765.2,-688 1765.2,4 -4,4"/>
<!-- :app&#45;compose -->
<g id="node1" class="node">
<title>:app&#45;compose</title>
<ellipse fill="none" stroke="black" cx="1200.2" cy="-666" rx="74.19" ry="18"/>
<text text-anchor="middle" x="1200.2" y="-662.3" font-family="Times,serif" font-size="14.00">:app&#45;compose</text>
</g>
<!-- :feature:appdetail -->
<g id="node2" class="node">
<title>:feature:appdetail</title>
<ellipse fill="none" stroke="black" cx="183.2" cy="-594" rx="93.68" ry="18"/>
<text text-anchor="middle" x="183.2" y="-590.3" font-family="Times,serif" font-size="14.00">:feature:appdetail</text>
</g>
<!-- :app&#45;compose&#45;&gt;:feature:appdetail -->
<g id="edge1" class="edge">
<title>:app&#45;compose&#45;&gt;:feature:appdetail</title>
<path fill="none" stroke="red" stroke-width="2" d="M1126.74,-663.42C971.11,-659.48 596.92,-646.9 285.2,-612 276.52,-611.03 267.45,-609.81 258.45,-608.48"/>
<polygon fill="red" stroke="red" stroke-width="2" points="258.77,-604.98 248.35,-606.93 257.71,-611.9 258.77,-604.98"/>
</g>
<!-- :feature:applist -->
<g id="node3" class="node">
<title>:feature:applist</title>
<ellipse fill="none" stroke="black" cx="376.2" cy="-594" rx="81.79" ry="18"/>
<text text-anchor="middle" x="376.2" y="-590.3" font-family="Times,serif" font-size="14.00">:feature:applist</text>
</g>
<!-- :app&#45;compose&#45;&gt;:feature:applist -->
<g id="edge2" class="edge">
<title>:app&#45;compose&#45;&gt;:feature:applist</title>
<path fill="none" stroke="black" d="M1127.37,-662.45C995.32,-657.22 707.78,-643.07 467.2,-612 459.78,-611.04 452.04,-609.87 444.35,-608.59"/>
<polygon fill="black" stroke="black" points="444.75,-605.11 434.3,-606.86 443.57,-612.01 444.75,-605.11"/>
</g>
<!-- :feature:generalrule -->
<g id="node4" class="node">
<title>:feature:generalrule</title>
<ellipse fill="none" stroke="black" cx="1200.2" cy="-594" rx="103.98" ry="18"/>
<text text-anchor="middle" x="1200.2" y="-590.3" font-family="Times,serif" font-size="14.00">:feature:generalrule</text>
</g>
<!-- :app&#45;compose&#45;&gt;:feature:generalrule -->
<g id="edge3" class="edge">
<title>:app&#45;compose&#45;&gt;:feature:generalrule</title>
<path fill="none" stroke="black" d="M1200.2,-647.7C1200.2,-639.98 1200.2,-630.71 1200.2,-622.11"/>
<polygon fill="black" stroke="black" points="1203.7,-622.1 1200.2,-612.1 1196.7,-622.1 1203.7,-622.1"/>
</g>
<!-- :feature:search -->
<g id="node5" class="node">
<title>:feature:search</title>
<ellipse fill="none" stroke="black" cx="997.2" cy="-594" rx="81.49" ry="18"/>
<text text-anchor="middle" x="997.2" y="-590.3" font-family="Times,serif" font-size="14.00">:feature:search</text>
</g>
<!-- :app&#45;compose&#45;&gt;:feature:search -->
<g id="edge4" class="edge">
<title>:app&#45;compose&#45;&gt;:feature:search</title>
<path fill="none" stroke="black" d="M1159.12,-650.83C1127.38,-639.89 1083.25,-624.67 1049.08,-612.89"/>
<polygon fill="black" stroke="black" points="1049.86,-609.46 1039.27,-609.51 1047.58,-616.07 1049.86,-609.46"/>
</g>
<!-- :feature:settings -->
<g id="node6" class="node">
<title>:feature:settings</title>
<ellipse fill="none" stroke="black" cx="564.2" cy="-594" rx="87.99" ry="18"/>
<text text-anchor="middle" x="564.2" y="-590.3" font-family="Times,serif" font-size="14.00">:feature:settings</text>
</g>
<!-- :app&#45;compose&#45;&gt;:feature:settings -->
<g id="edge5" class="edge">
<title>:app&#45;compose&#45;&gt;:feature:settings</title>
<path fill="none" stroke="black" d="M1130.91,-659.6C1028.91,-651.31 832.44,-634.08 666.2,-612 657.19,-610.8 647.74,-609.41 638.39,-607.95"/>
<polygon fill="black" stroke="black" points="638.74,-604.46 628.31,-606.35 637.64,-611.38 638.74,-604.46"/>
</g>
<!-- :feature:ruledetail -->
<g id="node7" class="node">
<title>:feature:ruledetail</title>
<ellipse fill="none" stroke="black" cx="803.2" cy="-594" rx="94.78" ry="18"/>
<text text-anchor="middle" x="803.2" y="-590.3" font-family="Times,serif" font-size="14.00">:feature:ruledetail</text>
</g>
<!-- :app&#45;compose&#45;&gt;:feature:ruledetail -->
<g id="edge6" class="edge">
<title>:app&#45;compose&#45;&gt;:feature:ruledetail</title>
<path fill="none" stroke="black" d="M1142.05,-654.75C1072.8,-642.54 956.87,-622.1 880.22,-608.58"/>
<polygon fill="black" stroke="black" points="880.6,-605.09 870.14,-606.8 879.38,-611.99 880.6,-605.09"/>
</g>
<!-- :feature:sort -->
<g id="node8" class="node">
<title>:feature:sort</title>
<ellipse fill="none" stroke="black" cx="1429.2" cy="-594" rx="68.79" ry="18"/>
<text text-anchor="middle" x="1429.2" y="-590.3" font-family="Times,serif" font-size="14.00">:feature:sort</text>
</g>
<!-- :app&#45;compose&#45;&gt;:feature:sort -->
<g id="edge7" class="edge">
<title>:app&#45;compose&#45;&gt;:feature:sort</title>
<path fill="none" stroke="black" d="M1244.36,-651.5C1282.18,-639.94 1336.72,-623.27 1376.76,-611.03"/>
<polygon fill="black" stroke="black" points="1377.81,-614.37 1386.35,-608.1 1375.76,-607.68 1377.81,-614.37"/>
</g>
<!-- :core:analytics -->
<g id="node9" class="node">
<title>:core:analytics</title>
<ellipse fill="none" stroke="black" cx="1427.2" cy="-234" rx="77.99" ry="18"/>
<text text-anchor="middle" x="1427.2" y="-230.3" font-family="Times,serif" font-size="14.00">:core:analytics</text>
</g>
<!-- :app&#45;compose&#45;&gt;:core:analytics -->
<g id="edge8" class="edge">
<title>:app&#45;compose&#45;&gt;:core:analytics</title>
<path fill="none" stroke="black" d="M1274.27,-665.08C1369.15,-663.43 1525.76,-654.17 1562.2,-612 1637.91,-524.4 1547.74,-463.68 1496.2,-360 1478.89,-325.16 1456.87,-286.06 1442.42,-261.01"/>
<polygon fill="black" stroke="black" points="1445.32,-259.04 1437.28,-252.14 1439.27,-262.55 1445.32,-259.04"/>
</g>
<!-- :core:common -->
<g id="node10" class="node">
<title>:core:common</title>
<ellipse fill="none" stroke="black" cx="767.2" cy="-90" rx="75.29" ry="18"/>
<text text-anchor="middle" x="767.2" y="-86.3" font-family="Times,serif" font-size="14.00">:core:common</text>
</g>
<!-- :app&#45;compose&#45;&gt;:core:common -->
<g id="edge9" class="edge">
<title>:app&#45;compose&#45;&gt;:core:common</title>
<path fill="none" stroke="black" d="M1126.27,-664.34C879.13,-661.79 95.12,-650.67 58.2,-612 -109.17,-436.68 117.36,-243.89 338.2,-144 398.15,-116.88 577.24,-102.05 684.14,-95.39"/>
<polygon fill="black" stroke="black" points="684.48,-98.88 694.25,-94.77 684.05,-91.89 684.48,-98.88"/>
</g>
<!-- :core:data -->
<g id="node11" class="node">
<title>:core:data</title>
<ellipse fill="none" stroke="black" cx="939.2" cy="-306" rx="57.39" ry="18"/>
<text text-anchor="middle" x="939.2" y="-302.3" font-family="Times,serif" font-size="14.00">:core:data</text>
</g>
<!-- :app&#45;compose&#45;&gt;:core:data -->
<g id="edge10" class="edge">
<title>:app&#45;compose&#45;&gt;:core:data</title>
<path fill="none" stroke="black" d="M1273.36,-662.85C1354.5,-658.75 1477.89,-646.8 1507.2,-612 1517.51,-599.76 1514.35,-590.32 1507.2,-576 1435.93,-433.15 1366.25,-424.48 1220.2,-360 1150.69,-329.31 1063.85,-316.37 1005.25,-310.93"/>
<polygon fill="black" stroke="black" points="1005.28,-307.42 995.01,-310.03 1004.67,-314.39 1005.28,-307.42"/>
</g>
<!-- :core:designsystem -->
<g id="node12" class="node">
<title>:core:designsystem</title>
<ellipse fill="none" stroke="black" cx="944.2" cy="-450" rx="100.98" ry="18"/>
<text text-anchor="middle" x="944.2" y="-446.3" font-family="Times,serif" font-size="14.00">:core:designsystem</text>
</g>
<!-- :app&#45;compose&#45;&gt;:core:designsystem -->
<g id="edge11" class="edge">
<title>:app&#45;compose&#45;&gt;:core:designsystem</title>
<path fill="none" stroke="black" d="M1253.71,-653.41C1276.1,-645.64 1299.95,-632.85 1313.2,-612 1321.79,-598.5 1322.63,-588.93 1313.2,-576 1282.4,-533.75 1250.8,-556.56 1201.2,-540 1130.52,-516.4 1049.3,-488.07 997.41,-469.82"/>
<polygon fill="black" stroke="black" points="998.35,-466.44 987.76,-466.42 996.03,-473.04 998.35,-466.44"/>
</g>
<!-- :core:model -->
<g id="node13" class="node">
<title>:core:model</title>
<ellipse fill="none" stroke="black" cx="939.2" cy="-18" rx="64.99" ry="18"/>
<text text-anchor="middle" x="939.2" y="-14.3" font-family="Times,serif" font-size="14.00">:core:model</text>
</g>
<!-- :app&#45;compose&#45;&gt;:core:model -->
<g id="edge12" class="edge">
<title>:app&#45;compose&#45;&gt;:core:model</title>
<path fill="none" stroke="black" d="M1273.84,-663.46C1391.24,-659.93 1614.69,-648.48 1684.2,-612 1730.52,-587.69 1761.2,-575.3 1761.2,-523 1761.2,-523 1761.2,-523 1761.2,-161 1761.2,-43.9 1627.53,-97.36 1513.2,-72 1337.22,-32.96 1124.71,-22.62 1014.2,-19.92"/>
<polygon fill="black" stroke="black" points="1014.23,-16.42 1004.16,-19.69 1014.07,-23.42 1014.23,-16.42"/>
</g>
<!-- :core:network -->
<g id="node14" class="node">
<title>:core:network</title>
<ellipse fill="none" stroke="black" cx="1320.2" cy="-162" rx="74.99" ry="18"/>
<text text-anchor="middle" x="1320.2" y="-158.3" font-family="Times,serif" font-size="14.00">:core:network</text>
</g>
<!-- :app&#45;compose&#45;&gt;:core:network -->
<g id="edge13" class="edge">
<title>:app&#45;compose&#45;&gt;:core:network</title>
<path fill="none" stroke="black" d="M1272.71,-662.27C1380.65,-657.2 1577.61,-643.8 1640.2,-612 1688.42,-587.5 1723.2,-577.09 1723.2,-523 1723.2,-523 1723.2,-523 1723.2,-377 1723.2,-232.1 1517.45,-185.01 1399.98,-169.94"/>
<polygon fill="black" stroke="black" points="1400.29,-166.45 1389.94,-168.7 1399.44,-173.4 1400.29,-166.45"/>
</g>
<!-- :core:provider -->
<g id="node15" class="node">
<title>:core:provider</title>
<ellipse fill="none" stroke="black" cx="1619.2" cy="-378" rx="76.09" ry="18"/>
<text text-anchor="middle" x="1619.2" y="-374.3" font-family="Times,serif" font-size="14.00">:core:provider</text>
</g>
<!-- :app&#45;compose&#45;&gt;:core:provider -->
<g id="edge14" class="edge">
<title>:app&#45;compose&#45;&gt;:core:provider</title>
<path fill="none" stroke="black" d="M1271.45,-660.95C1384.27,-653.79 1593.67,-637.26 1616.2,-612 1667.52,-554.49 1644.11,-453.53 1628.79,-405.64"/>
<polygon fill="black" stroke="black" points="1632.05,-404.38 1625.58,-396 1625.41,-406.59 1632.05,-404.38"/>
</g>
<!-- :core:rule -->
<g id="node16" class="node">
<title>:core:rule</title>
<ellipse fill="none" stroke="black" cx="322.2" cy="-378" rx="55.49" ry="18"/>
<text text-anchor="middle" x="322.2" y="-374.3" font-family="Times,serif" font-size="14.00">:core:rule</text>
</g>
<!-- :app&#45;compose&#45;&gt;:core:rule -->
<g id="edge15" class="edge">
<title>:app&#45;compose&#45;&gt;:core:rule</title>
<path fill="none" stroke="black" d="M1126.43,-664.27C882.64,-661.52 116.33,-649.88 80.2,-612 0.29,-528.22 189.84,-434.26 278.99,-396.3"/>
<polygon fill="black" stroke="black" points="280.46,-399.47 288.32,-392.37 277.74,-393.02 280.46,-399.47"/>
</g>
<!-- :core:ui -->
<g id="node17" class="node">
<title>:core:ui</title>
<ellipse fill="none" stroke="black" cx="772.2" cy="-522" rx="45.49" ry="18"/>
<text text-anchor="middle" x="772.2" y="-518.3" font-family="Times,serif" font-size="14.00">:core:ui</text>
</g>
<!-- :app&#45;compose&#45;&gt;:core:ui -->
<g id="edge16" class="edge">
<title>:app&#45;compose&#45;&gt;:core:ui</title>
<path fill="none" stroke="black" d="M1127.45,-662.58C995.41,-657.44 727.3,-643.23 699.2,-612 688.5,-600.11 691.94,-590.25 699.2,-576 706.73,-561.23 720.51,-549.62 734.08,-541.07"/>
<polygon fill="black" stroke="black" points="736.05,-543.98 742.91,-535.9 732.51,-537.94 736.05,-543.98"/>
</g>
<!-- :sync:work -->
<g id="node18" class="node">
<title>:sync:work</title>
<ellipse fill="none" stroke="black" cx="1427.2" cy="-378" rx="60.39" ry="18"/>
<text text-anchor="middle" x="1427.2" y="-374.3" font-family="Times,serif" font-size="14.00">:sync:work</text>
</g>
<!-- :app&#45;compose&#45;&gt;:sync:work -->
<g id="edge17" class="edge">
<title>:app&#45;compose&#45;&gt;:sync:work</title>
<path fill="none" stroke="black" d="M1274.04,-664.27C1363.55,-661.63 1506.64,-651.2 1540.2,-612 1596.71,-546.01 1503.52,-446.88 1454.43,-402.24"/>
<polygon fill="black" stroke="black" points="1456.47,-399.37 1446.68,-395.31 1451.8,-404.59 1456.47,-399.37"/>
</g>
<!-- :feature:appdetail&#45;&gt;:core:data -->
<g id="edge21" class="edge">
<title>:feature:appdetail&#45;&gt;:core:data</title>
<path fill="none" stroke="black" d="M205.35,-576.46C264.67,-533.06 433.5,-415.49 593.2,-360 686.9,-327.45 801.77,-314.86 872.73,-310.01"/>
<polygon fill="black" stroke="black" points="873.12,-313.49 882.87,-309.35 872.67,-306.51 873.12,-313.49"/>
</g>
<!-- :feature:appdetail&#45;&gt;:core:designsystem -->
<g id="edge19" class="edge">
<title>:feature:appdetail&#45;&gt;:core:designsystem</title>
<path fill="none" stroke="black" d="M241.64,-579.88C287.56,-569.45 353.08,-554.28 410.2,-540 470.45,-524.94 484.3,-516.11 545.2,-504 647.57,-483.64 766.31,-469 847.47,-460.33"/>
<polygon fill="black" stroke="black" points="848.1,-463.78 857.67,-459.25 847.36,-456.82 848.1,-463.78"/>
</g>
<!-- :feature:appdetail&#45;&gt;:core:rule -->
<g id="edge23" class="edge">
<title>:feature:appdetail&#45;&gt;:core:rule</title>
<path fill="none" stroke="black" d="M189.92,-575.98C202.43,-545.42 231.32,-479.96 267.2,-432 275.21,-421.3 285.44,-410.81 294.89,-402.02"/>
<polygon fill="black" stroke="black" points="297.51,-404.38 302.59,-395.08 292.82,-399.18 297.51,-404.38"/>
</g>
<!-- :feature:appdetail&#45;&gt;:core:ui -->
<g id="edge18" class="edge">
<title>:feature:appdetail&#45;&gt;:core:ui</title>
<path fill="none" stroke="red" stroke-width="2" d="M249.78,-581.34C261.57,-579.44 273.73,-577.58 285.2,-576 441.98,-554.42 628.15,-536.21 718.15,-527.87"/>
<polygon fill="red" stroke="red" stroke-width="2" points="718.48,-531.36 728.12,-526.95 717.84,-524.39 718.48,-531.36"/>
</g>
<!-- :core:component&#45;controller -->
<g id="node19" class="node">
<title>:core:component&#45;controller</title>
<ellipse fill="none" stroke="black" cx="608.2" cy="-234" rx="135.68" ry="18"/>
<text text-anchor="middle" x="608.2" y="-230.3" font-family="Times,serif" font-size="14.00">:core:component&#45;controller</text>
</g>
<!-- :feature:appdetail&#45;&gt;:core:component&#45;controller -->
<g id="edge20" class="edge">
<title>:feature:appdetail&#45;&gt;:core:component&#45;controller</title>
<path fill="none" stroke="black" d="M183.76,-575.77C186.08,-533.25 197.89,-422.27 258.2,-360 321.79,-294.36 422.16,-263.09 499.14,-248.25"/>
<polygon fill="black" stroke="black" points="500.17,-251.62 509.36,-246.35 498.89,-244.73 500.17,-251.62"/>
</g>
<!-- :core:domain -->
<g id="node20" class="node">
<title>:core:domain</title>
<ellipse fill="none" stroke="black" cx="608.2" cy="-450" rx="70.69" ry="18"/>
<text text-anchor="middle" x="608.2" y="-446.3" font-family="Times,serif" font-size="14.00">:core:domain</text>
</g>
<!-- :feature:appdetail&#45;&gt;:core:domain -->
<g id="edge22" class="edge">
<title>:feature:appdetail&#45;&gt;:core:domain</title>
<path fill="none" stroke="black" d="M227.88,-578.07C307.53,-551.46 473.52,-496 557.38,-467.98"/>
<polygon fill="black" stroke="black" points="558.57,-471.27 566.95,-464.78 556.35,-464.63 558.57,-471.27"/>
</g>
<!-- :feature:applist&#45;&gt;:core:data -->
<g id="edge58" class="edge">
<title>:feature:applist&#45;&gt;:core:data</title>
<path fill="none" stroke="black" d="M387.82,-576.16C410.93,-543.81 465.88,-472.61 528.2,-432 638.54,-360.11 792.2,-327.92 876.92,-314.87"/>
<polygon fill="black" stroke="black" points="877.54,-318.32 886.91,-313.37 876.5,-311.39 877.54,-318.32"/>
</g>
<!-- :feature:applist&#45;&gt;:core:designsystem -->
<g id="edge56" class="edge">
<title>:feature:applist&#45;&gt;:core:designsystem</title>
<path fill="none" stroke="black" d="M419.31,-578.49C476.44,-559.62 580.58,-526.41 671.2,-504 735.18,-488.18 808.55,-474.16 863.11,-464.52"/>
<polygon fill="black" stroke="black" points="863.82,-467.95 873.07,-462.77 862.61,-461.06 863.82,-467.95"/>
</g>
<!-- :feature:applist&#45;&gt;:core:ui -->
<g id="edge55" class="edge">
<title>:feature:applist&#45;&gt;:core:ui</title>
<path fill="none" stroke="black" d="M436.39,-581.65C446.67,-579.74 457.24,-577.8 467.2,-576 556.45,-559.91 660.56,-542 721.16,-531.67"/>
<polygon fill="black" stroke="black" points="721.96,-535.08 731.23,-529.95 720.78,-528.18 721.96,-535.08"/>
</g>
<!-- :feature:applist&#45;&gt;:core:component&#45;controller -->
<g id="edge57" class="edge">
<title>:feature:applist&#45;&gt;:core:component&#45;controller</title>
<path fill="none" stroke="black" d="M382.07,-575.86C388.56,-557.62 399.74,-528.14 412.2,-504 447.04,-436.51 459.38,-421.31 504.2,-360 530.55,-323.96 564.03,-284.75 585.77,-260.04"/>
<polygon fill="black" stroke="black" points="588.67,-262.05 592.67,-252.24 583.43,-257.41 588.67,-262.05"/>
</g>
<!-- :feature:applist&#45;&gt;:core:domain -->
<g id="edge59" class="edge">
<title>:feature:applist&#45;&gt;:core:domain</title>
<path fill="none" stroke="black" d="M402.82,-576.71C444.97,-550.91 527.09,-500.65 573.7,-472.12"/>
<polygon fill="black" stroke="black" points="575.55,-475.09 582.26,-466.88 571.9,-469.12 575.55,-475.09"/>
</g>
<!-- :core:ifw&#45;api -->
<g id="node21" class="node">
<title>:core:ifw&#45;api</title>
<ellipse fill="none" stroke="black" cx="444.2" cy="-162" rx="67.69" ry="18"/>
<text text-anchor="middle" x="444.2" y="-158.3" font-family="Times,serif" font-size="14.00">:core:ifw&#45;api</text>
</g>
<!-- :feature:applist&#45;&gt;:core:ifw&#45;api -->
<g id="edge60" class="edge">
<title>:feature:applist&#45;&gt;:core:ifw&#45;api</title>
<path fill="none" stroke="black" d="M343.74,-577.35C303.22,-555.29 239.2,-510.95 239.2,-451 239.2,-451 239.2,-451 239.2,-305 239.2,-233.74 323.94,-195.42 384.45,-177.13"/>
<polygon fill="black" stroke="black" points="385.69,-180.41 394.32,-174.26 383.74,-173.69 385.69,-180.41"/>
</g>
<!-- :feature:generalrule&#45;&gt;:core:data -->
<g id="edge63" class="edge">
<title>:feature:generalrule&#45;&gt;:core:data</title>
<path fill="none" stroke="black" d="M1202.4,-575.85C1206.9,-532.54 1212.04,-418.05 1150.2,-360 1128.69,-339.8 1054.81,-324.51 1000.52,-315.67"/>
<polygon fill="black" stroke="black" points="1001.06,-312.21 990.63,-314.09 999.95,-319.12 1001.06,-312.21"/>
</g>
<!-- :feature:generalrule&#45;&gt;:core:designsystem -->
<g id="edge62" class="edge">
<title>:feature:generalrule&#45;&gt;:core:designsystem</title>
<path fill="none" stroke="black" d="M1170.84,-576.71C1124.38,-550.94 1033.93,-500.77 982.45,-472.22"/>
<polygon fill="black" stroke="black" points="984.06,-469.11 973.62,-467.32 980.67,-475.23 984.06,-469.11"/>
</g>
<!-- :feature:generalrule&#45;&gt;:core:ui -->
<g id="edge61" class="edge">
<title>:feature:generalrule&#45;&gt;:core:ui</title>
<path fill="none" stroke="black" d="M1125.55,-581.37C1058.43,-570.83 957.16,-554.75 869.2,-540 854.13,-537.47 837.76,-534.64 822.84,-532.02"/>
<polygon fill="black" stroke="black" points="823.22,-528.53 812.77,-530.25 822.01,-535.43 823.22,-528.53"/>
</g>
<!-- :feature:generalrule&#45;&gt;:core:domain -->
<g id="edge64" class="edge">
<title>:feature:generalrule&#45;&gt;:core:domain</title>
<path fill="none" stroke="black" d="M1148.01,-578.36C1081.79,-559.99 963.94,-527.99 862.2,-504 798.08,-488.88 724.33,-473.74 672.87,-463.53"/>
<polygon fill="black" stroke="black" points="673.38,-460.07 662.89,-461.56 672.02,-466.93 673.38,-460.07"/>
</g>
<!-- :feature:search&#45;&gt;:core:data -->
<g id="edge68" class="edge">
<title>:feature:search&#45;&gt;:core:data</title>
<path fill="none" stroke="black" d="M1059.94,-582.51C1084.57,-574.99 1110.44,-562.1 1125.2,-540 1169.65,-473.49 1173.4,-423.85 1125.2,-360 1109.95,-339.8 1048.15,-325.01 999.91,-316.26"/>
<polygon fill="black" stroke="black" points="1000.31,-312.78 989.85,-314.49 999.09,-319.67 1000.31,-312.78"/>
</g>
<!-- :feature:search&#45;&gt;:core:designsystem -->
<g id="edge66" class="edge">
<title>:feature:search&#45;&gt;:core:designsystem</title>
<path fill="none" stroke="black" d="M993.85,-575.88C990,-557.67 982.93,-528.2 973.2,-504 969.57,-494.95 964.75,-485.48 960.08,-477.09"/>
<polygon fill="black" stroke="black" points="962.97,-475.09 954.95,-468.16 956.89,-478.57 962.97,-475.09"/>
</g>
<!-- :feature:search&#45;&gt;:core:ui -->
<g id="edge65" class="edge">
<title>:feature:search&#45;&gt;:core:ui</title>
<path fill="none" stroke="black" d="M952.21,-579C912.73,-566.72 855.63,-548.95 816.39,-536.75"/>
<polygon fill="black" stroke="black" points="817.4,-533.4 806.82,-533.77 815.32,-540.08 817.4,-533.4"/>
</g>
<!-- :feature:search&#45;&gt;:core:component&#45;controller -->
<g id="edge67" class="edge">
<title>:feature:search&#45;&gt;:core:component&#45;controller</title>
<path fill="none" stroke="black" d="M1012.34,-576.31C1038.17,-545.72 1085.12,-479.45 1054.2,-432 1010.08,-364.27 783.56,-287.95 671.35,-253.56"/>
<polygon fill="black" stroke="black" points="672.1,-250.13 661.51,-250.56 670.06,-256.82 672.1,-250.13"/>
</g>
<!-- :feature:search&#45;&gt;:core:domain -->
<g id="edge69" class="edge">
<title>:feature:search&#45;&gt;:core:domain</title>
<path fill="none" stroke="black" d="M953.55,-578.68C928.03,-569.41 895.74,-556.08 869.2,-540 847.89,-527.08 848.45,-515.24 826.2,-504 780.73,-481.03 724.81,-467.69 680.99,-460.15"/>
<polygon fill="black" stroke="black" points="681.42,-456.67 670.98,-458.49 680.27,-463.58 681.42,-456.67"/>
</g>
<!-- :feature:settings&#45;&gt;:core:data -->
<g id="edge72" class="edge">
<title>:feature:settings&#45;&gt;:core:data</title>
<path fill="none" stroke="black" d="M584.49,-576.38C606.62,-558.34 643.16,-528.79 675.2,-504 759.05,-439.13 859.89,-364.92 909.15,-328.9"/>
<polygon fill="black" stroke="black" points="911.44,-331.56 917.45,-322.84 907.31,-325.91 911.44,-331.56"/>
</g>
<!-- :feature:settings&#45;&gt;:core:designsystem -->
<g id="edge71" class="edge">
<title>:feature:settings&#45;&gt;:core:designsystem</title>
<path fill="none" stroke="black" d="M602.2,-577.7C624.24,-568.13 652.12,-554.84 675.2,-540 696.17,-526.52 695.91,-515.15 718.2,-504 760,-483.1 810.3,-470.26 852.82,-462.47"/>
<polygon fill="black" stroke="black" points="853.65,-465.87 862.89,-460.69 852.44,-458.98 853.65,-465.87"/>
</g>
<!-- :feature:settings&#45;&gt;:core:rule -->
<g id="edge74" class="edge">
<title>:feature:settings&#45;&gt;:core:rule</title>
<path fill="none" stroke="black" d="M545.21,-576.21C502.15,-538.13 397.03,-445.17 348.08,-401.88"/>
<polygon fill="black" stroke="black" points="350.25,-399.13 340.44,-395.13 345.62,-404.37 350.25,-399.13"/>
</g>
<!-- :feature:settings&#45;&gt;:core:ui -->
<g id="edge70" class="edge">
<title>:feature:settings&#45;&gt;:core:ui</title>
<path fill="none" stroke="black" d="M607.81,-578.33C643.41,-566.34 693.47,-549.5 728.98,-537.55"/>
<polygon fill="black" stroke="black" points="730.22,-540.82 738.58,-534.32 727.99,-534.19 730.22,-540.82"/>
</g>
<!-- :feature:settings&#45;&gt;:core:domain -->
<g id="edge73" class="edge">
<title>:feature:settings&#45;&gt;:core:domain</title>
<path fill="none" stroke="black" d="M569.51,-575.87C577.04,-551.56 590.91,-506.82 599.83,-478.01"/>
<polygon fill="black" stroke="black" points="603.26,-478.78 602.88,-468.19 596.57,-476.71 603.26,-478.78"/>
</g>
<!-- :feature:ruledetail&#45;&gt;:core:data -->
<g id="edge78" class="edge">
<title>:feature:ruledetail&#45;&gt;:core:data</title>
<path fill="none" stroke="black" d="M872.48,-581.7C934.2,-567.35 1019.91,-535.76 1054.2,-468 1081.71,-413.67 1015.96,-357.37 972.94,-327.89"/>
<polygon fill="black" stroke="black" points="974.66,-324.84 964.4,-322.19 970.77,-330.66 974.66,-324.84"/>
</g>
<!-- :feature:ruledetail&#45;&gt;:core:designsystem -->
<g id="edge76" class="edge">
<title>:feature:ruledetail&#45;&gt;:core:designsystem</title>
<path fill="none" stroke="black" d="M870.19,-581.17C894.37,-573.48 919.54,-560.82 935.2,-540 948.3,-522.59 949.75,-497.55 948.38,-478.45"/>
<polygon fill="black" stroke="black" points="951.84,-477.87 947.35,-468.28 944.87,-478.58 951.84,-477.87"/>
</g>
<!-- :feature:ruledetail&#45;&gt;:core:ui -->
<g id="edge75" class="edge">
<title>:feature:ruledetail&#45;&gt;:core:ui</title>
<path fill="none" stroke="black" d="M795.7,-576.05C792.12,-567.97 787.76,-558.12 783.77,-549.11"/>
<polygon fill="black" stroke="black" points="786.89,-547.52 779.64,-539.79 780.49,-550.35 786.89,-547.52"/>
</g>
<!-- :feature:ruledetail&#45;&gt;:core:component&#45;controller -->
<g id="edge77" class="edge">
<title>:feature:ruledetail&#45;&gt;:core:component&#45;controller</title>
<path fill="none" stroke="black" d="M813.54,-576C823.19,-557.9 834.89,-528.52 826.2,-504 788.26,-396.92 687.54,-301.35 637.4,-258.64"/>
<polygon fill="black" stroke="black" points="639.43,-255.77 629.52,-252.01 634.92,-261.12 639.43,-255.77"/>
</g>
<!-- :feature:ruledetail&#45;&gt;:core:domain -->
<g id="edge79" class="edge">
<title>:feature:ruledetail&#45;&gt;:core:domain</title>
<path fill="none" stroke="black" d="M775.08,-576.65C758.25,-566.58 736.62,-553.12 718.2,-540 688.75,-519.02 656.8,-492.74 634.96,-474.2"/>
<polygon fill="black" stroke="black" points="636.99,-471.33 627.12,-467.49 632.45,-476.65 636.99,-471.33"/>
</g>
<!-- :feature:sort&#45;&gt;:core:data -->
<g id="edge82" class="edge">
<title>:feature:sort&#45;&gt;:core:data</title>
<path fill="none" stroke="black" d="M1416.32,-576.01C1382.38,-532.56 1285.66,-416.83 1177.2,-360 1123.01,-331.6 1054.14,-318.37 1004.44,-312.24"/>
<polygon fill="black" stroke="black" points="1004.8,-308.76 994.46,-311.07 1003.98,-315.71 1004.8,-308.76"/>
</g>
<!-- :feature:sort&#45;&gt;:core:designsystem -->
<g id="edge81" class="edge">
<title>:feature:sort&#45;&gt;:core:designsystem</title>
<path fill="none" stroke="black" d="M1390.48,-579.01C1361.84,-568.55 1321.95,-553.75 1287.2,-540 1248.68,-524.75 1240.79,-516.24 1201.2,-504 1144.39,-486.43 1078.68,-473 1027.93,-464.05"/>
<polygon fill="black" stroke="black" points="1028.44,-460.59 1017.99,-462.32 1027.24,-467.48 1028.44,-460.59"/>
</g>
<!-- :feature:sort&#45;&gt;:core:ui -->
<g id="edge80" class="edge">
<title>:feature:sort&#45;&gt;:core:ui</title>
<path fill="none" stroke="black" d="M1371.75,-584.02C1353.1,-581.26 1332.3,-578.33 1313.2,-576 1135.6,-554.3 924.33,-535.67 826.68,-527.47"/>
<polygon fill="black" stroke="black" points="826.72,-523.96 816.46,-526.61 826.14,-530.94 826.72,-523.96"/>
</g>
<!-- :core:common&#45;&gt;:core:model -->
<g id="edge40" class="edge">
<title>:core:common&#45;&gt;:core:model</title>
<path fill="none" stroke="red" stroke-width="2" d="M803.68,-74.15C830.35,-63.3 866.65,-48.53 894.97,-37"/>
<polygon fill="red" stroke="red" stroke-width="2" points="896.31,-40.24 904.25,-33.23 893.67,-33.75 896.31,-40.24"/>
</g>
<!-- :core:data&#45;&gt;:core:analytics -->
<g id="edge38" class="edge">
<title>:core:data&#45;&gt;:core:analytics</title>
<path fill="none" stroke="black" d="M981.83,-293.91C991.14,-291.73 1000.97,-289.63 1010.2,-288 1148.98,-263.55 1185.66,-271.59 1325.2,-252 1335.51,-250.55 1346.38,-248.89 1357.03,-247.18"/>
<polygon fill="black" stroke="black" points="1357.84,-250.6 1367.15,-245.54 1356.71,-243.69 1357.84,-250.6"/>
</g>
<!-- :core:data&#45;&gt;:core:common -->
<g id="edge34" class="edge">
<title>:core:data&#45;&gt;:core:common</title>
<path fill="none" stroke="black" d="M925.71,-288.21C895.5,-250.63 822.34,-159.6 786.98,-115.61"/>
<polygon fill="black" stroke="black" points="789.63,-113.32 780.64,-107.71 784.17,-117.7 789.63,-113.32"/>
</g>
<!-- :core:data&#45;&gt;:core:network -->
<g id="edge37" class="edge">
<title>:core:data&#45;&gt;:core:network</title>
<path fill="none" stroke="black" d="M974.71,-291.77C1043.35,-266.18 1194.35,-209.9 1272,-180.97"/>
<polygon fill="black" stroke="black" points="1273.4,-184.18 1281.55,-177.41 1270.96,-177.62 1273.4,-184.18"/>
</g>
<!-- :core:data&#45;&gt;:core:component&#45;controller -->
<g id="edge39" class="edge">
<title>:core:data&#45;&gt;:core:component&#45;controller</title>
<path fill="none" stroke="red" stroke-width="2" d="M893.18,-295.27C839.98,-284.02 751.52,-265.31 687.24,-251.72"/>
<polygon fill="red" stroke="red" stroke-width="2" points="687.65,-248.22 677.15,-249.58 686.2,-255.07 687.65,-248.22"/>
</g>
<!-- :core:database -->
<g id="node22" class="node">
<title>:core:database</title>
<ellipse fill="none" stroke="black" cx="939.2" cy="-90" rx="78.79" ry="18"/>
<text text-anchor="middle" x="939.2" y="-86.3" font-family="Times,serif" font-size="14.00">:core:database</text>
</g>
<!-- :core:data&#45;&gt;:core:database -->
<g id="edge35" class="edge">
<title>:core:data&#45;&gt;:core:database</title>
<path fill="none" stroke="black" d="M939.2,-287.85C939.2,-250.83 939.2,-163.18 939.2,-118.39"/>
<polygon fill="black" stroke="black" points="942.7,-118.23 939.2,-108.23 935.7,-118.23 942.7,-118.23"/>
</g>
<!-- :core:datastore -->
<g id="node23" class="node">
<title>:core:datastore</title>
<ellipse fill="none" stroke="black" cx="1146.2" cy="-162" rx="81.49" ry="18"/>
<text text-anchor="middle" x="1146.2" y="-158.3" font-family="Times,serif" font-size="14.00">:core:datastore</text>
</g>
<!-- :core:data&#45;&gt;:core:datastore -->
<g id="edge36" class="edge">
<title>:core:data&#45;&gt;:core:datastore</title>
<path fill="none" stroke="black" d="M962.15,-289.26C999.1,-263.91 1071.9,-213.97 1114.02,-185.08"/>
<polygon fill="black" stroke="black" points="1116.26,-187.79 1122.52,-179.25 1112.3,-182.02 1116.26,-187.79"/>
</g>
<!-- :core:network&#45;&gt;:core:common -->
<g id="edge45" class="edge">
<title>:core:network&#45;&gt;:core:common</title>
<path fill="none" stroke="black" d="M1267.03,-149.35C1256.83,-147.37 1246.21,-145.48 1236.2,-144 1066.19,-118.92 1021.22,-133.08 851.2,-108 844.58,-107.02 837.68,-105.86 830.82,-104.62"/>
<polygon fill="black" stroke="black" points="831.3,-101.15 820.83,-102.74 830.01,-108.02 831.3,-101.15"/>
</g>
<!-- :core:network&#45;&gt;:core:model -->
<g id="edge46" class="edge">
<title>:core:network&#45;&gt;:core:model</title>
<path fill="none" stroke="black" d="M1321.85,-143.83C1322.75,-123.59 1320.8,-90.37 1301.2,-72 1260.85,-34.18 1107.87,-23.29 1014.17,-20.19"/>
<polygon fill="black" stroke="black" points="1014.28,-16.69 1004.18,-19.88 1014.06,-23.69 1014.28,-16.69"/>
</g>
<!-- :core:provider&#45;&gt;:core:analytics -->
<g id="edge83" class="edge">
<title>:core:provider&#45;&gt;:core:analytics</title>
<path fill="none" stroke="black" d="M1601.54,-360.29C1581.43,-341.65 1547.2,-311.08 1515.2,-288 1499.37,-276.57 1480.97,-265.22 1465.11,-255.98"/>
<polygon fill="black" stroke="black" points="1466.52,-252.75 1456.11,-250.79 1463.03,-258.81 1466.52,-252.75"/>
</g>
<!-- :core:provider&#45;&gt;:core:common -->
<g id="edge84" class="edge">
<title>:core:provider&#45;&gt;:core:common</title>
<path fill="none" stroke="black" d="M1613.78,-359.85C1601.96,-325.63 1570.3,-249.3 1514.2,-216 1426.41,-163.89 1156.49,-199.14 1056.2,-180 969.19,-163.39 871.32,-130.01 814.72,-109.18"/>
<polygon fill="black" stroke="black" points="815.91,-105.89 805.32,-105.7 813.48,-112.46 815.91,-105.89"/>
</g>
<!-- :core:provider&#45;&gt;:core:data -->
<g id="edge85" class="edge">
<title>:core:provider&#45;&gt;:core:data</title>
<path fill="none" stroke="black" d="M1556.38,-367.79C1537.1,-365.11 1515.8,-362.28 1496.2,-360 1318.32,-339.25 1107.77,-320.9 1003.86,-312.25"/>
<polygon fill="black" stroke="black" points="1004.09,-308.76 993.84,-311.42 1003.51,-315.74 1004.09,-308.76"/>
</g>
<!-- :core:provider&#45;&gt;:core:model -->
<g id="edge86" class="edge">
<title>:core:provider&#45;&gt;:core:model</title>
<path fill="none" stroke="black" d="M1632.88,-360.25C1652.21,-334.82 1685.2,-284.21 1685.2,-235 1685.2,-235 1685.2,-235 1685.2,-161 1685.2,-92.75 1197.14,-42.01 1010.56,-25.1"/>
<polygon fill="black" stroke="black" points="1010.84,-21.61 1000.57,-24.2 1010.22,-28.58 1010.84,-21.61"/>
</g>
<!-- :core:rule&#45;&gt;:core:common -->
<g id="edge51" class="edge">
<title>:core:rule&#45;&gt;:core:common</title>
<path fill="none" stroke="black" d="M319.53,-359.84C313.86,-316.49 305.75,-201.93 367.2,-144 411.17,-102.56 577.51,-92.9 681.34,-91.01"/>
<polygon fill="black" stroke="black" points="681.56,-94.51 691.5,-90.85 681.44,-87.51 681.56,-94.51"/>
</g>
<!-- :core:rule&#45;&gt;:core:data -->
<g id="edge53" class="edge">
<title>:core:rule&#45;&gt;:core:data</title>
<path fill="none" stroke="red" stroke-width="2" d="M370.06,-368.83C388.51,-365.83 409.81,-362.55 429.2,-360 588.88,-339.03 777.56,-321.23 874.52,-312.59"/>
<polygon fill="red" stroke="red" stroke-width="2" points="875.09,-316.06 884.75,-311.69 874.48,-309.08 875.09,-316.06"/>
</g>
<!-- :core:rule&#45;&gt;:core:component&#45;controller -->
<g id="edge52" class="edge">
<title>:core:rule&#45;&gt;:core:component&#45;controller</title>
<path fill="none" stroke="black" d="M351.2,-362.6C401.89,-337.44 506.79,-285.35 565.7,-256.11"/>
<polygon fill="black" stroke="black" points="567.34,-259.2 574.74,-251.62 564.23,-252.93 567.34,-259.2"/>
</g>
<!-- :core:rule&#45;&gt;:core:ifw&#45;api -->
<g id="edge54" class="edge">
<title>:core:rule&#45;&gt;:core:ifw&#45;api</title>
<path fill="none" stroke="black" d="M331.78,-360.21C353.02,-322.95 404.2,-233.17 429.52,-188.76"/>
<polygon fill="black" stroke="black" points="432.59,-190.43 434.51,-180.01 426.51,-186.96 432.59,-190.43"/>
</g>
<!-- :core:ui&#45;&gt;:core:analytics -->
<g id="edge24" class="edge">
<title>:core:ui&#45;&gt;:core:analytics</title>
<path fill="none" stroke="black" d="M779.81,-504.1C789.63,-484.12 808.56,-451.16 834.2,-432 993.77,-312.81 1229.45,-263.26 1350.01,-244.76"/>
<polygon fill="black" stroke="black" points="1350.53,-248.22 1359.9,-243.27 1349.49,-241.3 1350.53,-248.22"/>
</g>
<!-- :core:ui&#45;&gt;:core:designsystem -->
<g id="edge25" class="edge">
<title>:core:ui&#45;&gt;:core:designsystem</title>
<path fill="none" stroke="black" d="M802.95,-508.49C828.85,-497.95 866.34,-482.69 896.18,-470.54"/>
<polygon fill="black" stroke="black" points="897.64,-473.73 905.58,-466.72 895,-467.25 897.64,-473.73"/>
</g>
<!-- :core:ui&#45;&gt;:core:model -->
<g id="edge26" class="edge">
<title>:core:ui&#45;&gt;:core:model</title>
<path fill="none" stroke="black" d="M729.38,-515.43C590.76,-496.21 163.2,-427.19 163.2,-307 163.2,-307 163.2,-307 163.2,-161 163.2,-42.64 298.71,-97.91 414.2,-72 571.92,-36.62 761.62,-24.83 864.3,-20.92"/>
<polygon fill="black" stroke="black" points="864.7,-24.41 874.57,-20.55 864.44,-17.42 864.7,-24.41"/>
</g>
<!-- :core:ui&#45;&gt;:core:domain -->
<g id="edge27" class="edge">
<title>:core:ui&#45;&gt;:core:domain</title>
<path fill="none" stroke="red" stroke-width="2" d="M742.5,-508.32C717.29,-497.56 680.76,-481.97 652.16,-469.76"/>
<polygon fill="red" stroke="red" stroke-width="2" points="653.37,-466.47 642.8,-465.77 650.62,-472.91 653.37,-466.47"/>
</g>
<!-- :sync:work&#45;&gt;:core:analytics -->
<g id="edge87" class="edge">
<title>:sync:work&#45;&gt;:core:analytics</title>
<path fill="none" stroke="black" d="M1427.2,-359.87C1427.2,-335.67 1427.2,-291.21 1427.2,-262.39"/>
<polygon fill="black" stroke="black" points="1430.7,-262.19 1427.2,-252.19 1423.7,-262.19 1430.7,-262.19"/>
</g>
<!-- :sync:work&#45;&gt;:core:data -->
<g id="edge88" class="edge">
<title>:sync:work&#45;&gt;:core:data</title>
<path fill="none" stroke="black" d="M1381.95,-365.86C1372.49,-363.74 1362.55,-361.67 1353.2,-360 1230.07,-338.03 1084.76,-321.59 1003.17,-313.21"/>
<polygon fill="black" stroke="black" points="1003.36,-309.71 993.05,-312.18 1002.65,-316.68 1003.36,-309.71"/>
</g>
<!-- :core:component&#45;controller&#45;&gt;:core:common -->
<g id="edge47" class="edge">
<title>:core:component&#45;controller&#45;&gt;:core:common</title>
<path fill="none" stroke="black" d="M627.07,-216.15C655.28,-190.96 708.57,-143.37 740.68,-114.68"/>
<polygon fill="black" stroke="black" points="743.24,-117.1 748.36,-107.82 738.57,-111.88 743.24,-117.1"/>
</g>
<!-- :core:component&#45;controller&#45;&gt;:core:model -->
<g id="edge48" class="edge">
<title>:core:component&#45;controller&#45;&gt;:core:model</title>
<path fill="none" stroke="black" d="M611.02,-215.78C617.41,-182.44 636.3,-109.12 683.2,-72 711.5,-49.61 803.39,-34.59 868.97,-26.42"/>
<polygon fill="black" stroke="black" points="869.76,-29.85 879.26,-25.17 868.91,-22.9 869.76,-29.85"/>
</g>
<!-- :core:component&#45;controller&#45;&gt;:core:ifw&#45;api -->
<g id="edge49" class="edge">
<title>:core:component&#45;controller&#45;&gt;:core:ifw&#45;api</title>
<path fill="none" stroke="red" stroke-width="2" d="M569.75,-216.59C545.24,-206.13 513.41,-192.54 487.94,-181.67"/>
<polygon fill="red" stroke="red" stroke-width="2" points="489.08,-178.35 478.51,-177.64 486.34,-184.79 489.08,-178.35"/>
</g>
<!-- :core:domain&#45;&gt;:core:common -->
<g id="edge30" class="edge">
<title>:core:domain&#45;&gt;:core:common</title>
<path fill="none" stroke="black" d="M625.47,-432.52C657.26,-400.96 724.43,-328.29 753.2,-252 770.01,-207.42 770.68,-151.15 769.23,-118.3"/>
<polygon fill="black" stroke="black" points="772.71,-117.91 768.67,-108.12 765.72,-118.29 772.71,-117.91"/>
</g>
<!-- :core:domain&#45;&gt;:core:data -->
<g id="edge28" class="edge">
<title>:core:domain&#45;&gt;:core:data</title>
<path fill="none" stroke="black" d="M642.69,-434.21C703.92,-407.94 831.39,-353.25 897.47,-324.9"/>
<polygon fill="black" stroke="black" points="898.95,-328.08 906.76,-320.92 896.19,-321.65 898.95,-328.08"/>
</g>
<!-- :core:domain&#45;&gt;:core:model -->
<g id="edge29" class="edge">
<title>:core:domain&#45;&gt;:core:model</title>
<path fill="none" stroke="black" d="M578.66,-433.52C497.11,-388.84 280.52,-255.69 367.2,-144 427.78,-65.95 726.16,-34.36 866.28,-23.67"/>
<polygon fill="black" stroke="black" points="866.78,-27.15 876.49,-22.91 866.26,-20.17 866.78,-27.15"/>
</g>
<!-- :core:domain&#45;&gt;:core:rule -->
<g id="edge33" class="edge">
<title>:core:domain&#45;&gt;:core:rule</title>
<path fill="none" stroke="red" stroke-width="2" d="M559.04,-436.97C507.73,-424.41 427.55,-404.78 374.94,-391.91"/>
<polygon fill="red" stroke="red" stroke-width="2" points="375.68,-388.48 365.13,-389.51 374.01,-395.28 375.68,-388.48"/>
</g>
<!-- :core:domain&#45;&gt;:core:component&#45;controller -->
<g id="edge31" class="edge">
<title>:core:domain&#45;&gt;:core:component&#45;controller</title>
<path fill="none" stroke="black" d="M608.2,-431.85C608.2,-394.83 608.2,-307.18 608.2,-262.39"/>
<polygon fill="black" stroke="black" points="611.7,-262.23 608.2,-252.23 604.7,-262.23 611.7,-262.23"/>
</g>
<!-- :core:domain&#45;&gt;:core:ifw&#45;api -->
<g id="edge32" class="edge">
<title>:core:domain&#45;&gt;:core:ifw&#45;api</title>
<path fill="none" stroke="black" d="M594.4,-432.22C561.7,-392.15 480.88,-291.32 463.2,-252 454.37,-232.34 449.55,-208.35 446.98,-190.23"/>
<polygon fill="black" stroke="black" points="450.42,-189.54 445.69,-180.06 443.48,-190.43 450.42,-189.54"/>
</g>
<!-- :core:ifw&#45;api&#45;&gt;:core:common -->
<g id="edge50" class="edge">
<title>:core:ifw&#45;api&#45;&gt;:core:common</title>
<path fill="none" stroke="red" stroke-width="2" d="M495.03,-149.99C551.41,-137.77 642.45,-118.04 703.54,-104.8"/>
<polygon fill="red" stroke="red" stroke-width="2" points="704.42,-108.19 713.45,-102.65 702.93,-101.35 704.42,-108.19"/>
</g>
<!-- :core:database&#45;&gt;:core:model -->
<g id="edge41" class="edge">
<title>:core:database&#45;&gt;:core:model</title>
<path fill="none" stroke="black" d="M939.2,-71.7C939.2,-63.98 939.2,-54.71 939.2,-46.11"/>
<polygon fill="black" stroke="black" points="942.7,-46.1 939.2,-36.1 935.7,-46.1 942.7,-46.1"/>
</g>
<!-- :core:datastore&#45;&gt;:core:common -->
<g id="edge44" class="edge">
<title>:core:datastore&#45;&gt;:core:common</title>
<path fill="none" stroke="black" d="M1084.95,-150.03C1001.92,-135.16 862.62,-110.18 851.2,-108 845.07,-106.83 838.68,-105.58 832.29,-104.32"/>
<polygon fill="black" stroke="black" points="832.79,-100.85 822.29,-102.33 831.42,-107.71 832.79,-100.85"/>
</g>
<!-- :core:datastore&#45;&gt;:core:model -->
<g id="edge43" class="edge">
<title>:core:datastore&#45;&gt;:core:model</title>
<path fill="none" stroke="black" d="M1119.11,-144.97C1102.96,-135 1082.34,-121.55 1065.2,-108 1046.95,-93.57 1045.72,-86.08 1027.2,-72 1011.54,-60.09 993.03,-48.6 977.04,-39.38"/>
<polygon fill="black" stroke="black" points="978.38,-36.11 967.95,-34.23 974.93,-42.2 978.38,-36.11"/>
</g>
<!-- :core:datastore&#45;proto -->
<g id="node24" class="node">
<title>:core:datastore&#45;proto</title>
<ellipse fill="none" stroke="black" cx="1183.2" cy="-90" rx="108.58" ry="18"/>
<text text-anchor="middle" x="1183.2" y="-86.3" font-family="Times,serif" font-size="14.00">:core:datastore&#45;proto</text>
</g>
<!-- :core:datastore&#45;&gt;:core:datastore&#45;proto -->
<g id="edge42" class="edge">
<title>:core:datastore&#45;&gt;:core:datastore&#45;proto</title>
<path fill="none" stroke="black" d="M1155.16,-144.05C1159.41,-136.01 1164.6,-126.2 1169.34,-117.23"/>
<polygon fill="black" stroke="black" points="1172.49,-118.75 1174.07,-108.28 1166.31,-115.48 1172.49,-118.75"/>
</g>
</g>
</svg>
