<?xml version="1.0" encoding="UTF-8" standalone="no"?>
<!DOCTYPE svg PUBLIC "-//W3C//DTD SVG 1.1//EN"
 "http://www.w3.org/Graphics/SVG/1.1/DTD/svg11.dtd">
<!-- Generated by graphviz version 2.43.0 (0)
 -->
<!-- Title: G Pages: 1 -->
<svg width="935pt" height="620pt"
 viewBox="0.00 0.00 934.74 620.00" xmlns="http://www.w3.org/2000/svg" xmlns:xlink="http://www.w3.org/1999/xlink">
<g id="graph0" class="graph" transform="scale(1 1) rotate(0) translate(4 616)">
<title>G</title>
<polygon fill="white" stroke="transparent" points="-4,4 -4,-616 930.74,-616 930.74,4 -4,4"/>
<!-- :feature:sort -->
<g id="node1" class="node">
<title>:feature:sort</title>
<ellipse fill="none" stroke="black" cx="559" cy="-594" rx="68.79" ry="18"/>
<text text-anchor="middle" x="559" y="-590.3" font-family="Times,serif" font-size="14.00">:feature:sort</text>
</g>
<!-- :core:ui -->
<g id="node2" class="node">
<title>:core:ui</title>
<ellipse fill="none" stroke="black" cx="559" cy="-522" rx="45.49" ry="18"/>
<text text-anchor="middle" x="559" y="-518.3" font-family="Times,serif" font-size="14.00">:core:ui</text>
</g>
<!-- :feature:sort&#45;&gt;:core:ui -->
<g id="edge1" class="edge">
<title>:feature:sort&#45;&gt;:core:ui</title>
<path fill="none" stroke="red" stroke-width="2" d="M559,-575.7C559,-567.98 559,-558.71 559,-550.11"/>
<polygon fill="red" stroke="red" stroke-width="2" points="562.5,-550.1 559,-540.1 555.5,-550.1 562.5,-550.1"/>
</g>
<!-- :core:designsystem -->
<g id="node3" class="node">
<title>:core:designsystem</title>
<ellipse fill="none" stroke="black" cx="212" cy="-450" rx="100.98" ry="18"/>
<text text-anchor="middle" x="212" y="-446.3" font-family="Times,serif" font-size="14.00">:core:designsystem</text>
</g>
<!-- :feature:sort&#45;&gt;:core:designsystem -->
<g id="edge2" class="edge">
<title>:feature:sort&#45;&gt;:core:designsystem</title>
<path fill="none" stroke="black" d="M523.5,-578.47C460.81,-552.82 330.48,-499.48 259.9,-470.6"/>
<polygon fill="black" stroke="black" points="260.93,-467.24 250.35,-466.69 258.28,-473.72 260.93,-467.24"/>
</g>
<!-- :core:data -->
<g id="node4" class="node">
<title>:core:data</title>
<ellipse fill="none" stroke="black" cx="536" cy="-306" rx="57.39" ry="18"/>
<text text-anchor="middle" x="536" y="-302.3" font-family="Times,serif" font-size="14.00">:core:data</text>
</g>
<!-- :feature:sort&#45;&gt;:core:data -->
<g id="edge3" class="edge">
<title>:feature:sort&#45;&gt;:core:data</title>
<path fill="none" stroke="black" d="M582.52,-577.01C594.04,-567.72 606.75,-554.9 613,-540 619.19,-525.25 615.96,-519.72 613,-504 600.92,-439.9 568.53,-369.91 549.83,-333.06"/>
<polygon fill="black" stroke="black" points="552.86,-331.3 545.17,-324.01 546.64,-334.5 552.86,-331.3"/>
</g>
<!-- :core:ui&#45;&gt;:core:designsystem -->
<g id="edge5" class="edge">
<title>:core:ui&#45;&gt;:core:designsystem</title>
<path fill="none" stroke="black" d="M519.53,-513.04C462.87,-501.61 357.43,-480.34 286,-465.93"/>
<polygon fill="black" stroke="black" points="286.65,-462.49 276.15,-463.94 285.26,-469.35 286.65,-462.49"/>
</g>
<!-- :core:analytics -->
<g id="node5" class="node">
<title>:core:analytics</title>
<ellipse fill="none" stroke="black" cx="818" cy="-234" rx="77.99" ry="18"/>
<text text-anchor="middle" x="818" y="-230.3" font-family="Times,serif" font-size="14.00">:core:analytics</text>
</g>
<!-- :core:ui&#45;&gt;:core:analytics -->
<g id="edge4" class="edge">
<title>:core:ui&#45;&gt;:core:analytics</title>
<path fill="none" stroke="black" d="M573.67,-504.8C617,-456.95 744.63,-316.02 796.11,-259.17"/>
<polygon fill="black" stroke="black" points="798.73,-261.49 802.85,-251.73 793.54,-256.79 798.73,-261.49"/>
</g>
<!-- :core:model -->
<g id="node6" class="node">
<title>:core:model</title>
<ellipse fill="none" stroke="black" cx="436" cy="-18" rx="64.99" ry="18"/>
<text text-anchor="middle" x="436" y="-14.3" font-family="Times,serif" font-size="14.00">:core:model</text>
</g>
<!-- :core:ui&#45;&gt;:core:model -->
<g id="edge6" class="edge">
<title>:core:ui&#45;&gt;:core:model</title>
<path fill="none" stroke="black" d="M602.3,-516.06C698.99,-502.37 924,-454.65 924,-307 924,-307 924,-307 924,-161 924,-120.55 934.96,-99.17 905,-72 876.33,-46 634.51,-29.51 509.79,-22.65"/>
<polygon fill="black" stroke="black" points="509.73,-19.15 499.55,-22.1 509.35,-26.13 509.73,-19.15"/>
</g>
<!-- :core:domain -->
<g id="node7" class="node">
<title>:core:domain</title>
<ellipse fill="none" stroke="black" cx="402" cy="-450" rx="70.69" ry="18"/>
<text text-anchor="middle" x="402" y="-446.3" font-family="Times,serif" font-size="14.00">:core:domain</text>
</g>
<!-- :core:ui&#45;&gt;:core:domain -->
<g id="edge7" class="edge">
<title>:core:ui&#45;&gt;:core:domain</title>
<path fill="none" stroke="red" stroke-width="2" d="M529.84,-508C505.96,-497.35 471.84,-482.14 444.86,-470.11"/>
<polygon fill="red" stroke="red" stroke-width="2" points="446.2,-466.87 435.64,-466 443.35,-473.27 446.2,-466.87"/>
</g>
<!-- :core:data&#45;&gt;:core:analytics -->
<g id="edge18" class="edge">
<title>:core:data&#45;&gt;:core:analytics</title>
<path fill="none" stroke="black" d="M579.44,-294.22C627.01,-282.41 703.61,-263.39 757.14,-250.11"/>
<polygon fill="black" stroke="black" points="758,-253.5 766.86,-247.69 756.31,-246.71 758,-253.5"/>
</g>
<!-- :core:common -->
<g id="node8" class="node">
<title>:core:common</title>
<ellipse fill="none" stroke="black" cx="333" cy="-90" rx="75.29" ry="18"/>
<text text-anchor="middle" x="333" y="-86.3" font-family="Times,serif" font-size="14.00">:core:common</text>
</g>
<!-- :core:data&#45;&gt;:core:common -->
<g id="edge14" class="edge">
<title>:core:data&#45;&gt;:core:common</title>
<path fill="none" stroke="black" d="M523.95,-287.92C501.9,-257.26 452.73,-191.67 403,-144 391.47,-132.94 377.64,-122.06 365.34,-113.05"/>
<polygon fill="black" stroke="black" points="367.27,-110.13 357.11,-107.14 363.19,-115.82 367.27,-110.13"/>
</g>
<!-- :core:component&#45;controller -->
<g id="node9" class="node">
<title>:core:component&#45;controller</title>
<ellipse fill="none" stroke="black" cx="278" cy="-234" rx="135.68" ry="18"/>
<text text-anchor="middle" x="278" y="-230.3" font-family="Times,serif" font-size="14.00">:core:component&#45;controller</text>
</g>
<!-- :core:data&#45;&gt;:core:component&#45;controller -->
<g id="edge19" class="edge">
<title>:core:data&#45;&gt;:core:component&#45;controller</title>
<path fill="none" stroke="red" stroke-width="2" d="M494.26,-293.68C453.92,-282.73 392.14,-265.97 344.93,-253.16"/>
<polygon fill="red" stroke="red" stroke-width="2" points="345.65,-249.73 335.09,-250.49 343.82,-256.48 345.65,-249.73"/>
</g>
<!-- :core:database -->
<g id="node12" class="node">
<title>:core:database</title>
<ellipse fill="none" stroke="black" cx="817" cy="-90" rx="78.79" ry="18"/>
<text text-anchor="middle" x="817" y="-86.3" font-family="Times,serif" font-size="14.00">:core:database</text>
</g>
<!-- :core:data&#45;&gt;:core:database -->
<g id="edge15" class="edge">
<title>:core:data&#45;&gt;:core:database</title>
<path fill="none" stroke="black" d="M567,-290.82C633.84,-260.15 786.14,-189.6 794,-180 808.18,-162.68 813.73,-137.63 815.84,-118.51"/>
<polygon fill="black" stroke="black" points="819.35,-118.58 816.72,-108.32 812.38,-117.98 819.35,-118.58"/>
</g>
<!-- :core:datastore -->
<g id="node13" class="node">
<title>:core:datastore</title>
<ellipse fill="none" stroke="black" cx="536" cy="-162" rx="81.49" ry="18"/>
<text text-anchor="middle" x="536" y="-158.3" font-family="Times,serif" font-size="14.00">:core:datastore</text>
</g>
<!-- :core:data&#45;&gt;:core:datastore -->
<g id="edge16" class="edge">
<title>:core:data&#45;&gt;:core:datastore</title>
<path fill="none" stroke="black" d="M536,-287.87C536,-263.67 536,-219.21 536,-190.39"/>
<polygon fill="black" stroke="black" points="539.5,-190.19 536,-180.19 532.5,-190.19 539.5,-190.19"/>
</g>
<!-- :core:network -->
<g id="node14" class="node">
<title>:core:network</title>
<ellipse fill="none" stroke="black" cx="710" cy="-162" rx="74.99" ry="18"/>
<text text-anchor="middle" x="710" y="-158.3" font-family="Times,serif" font-size="14.00">:core:network</text>
</g>
<!-- :core:data&#45;&gt;:core:network -->
<g id="edge17" class="edge">
<title>:core:data&#45;&gt;:core:network</title>
<path fill="none" stroke="black" d="M555.62,-288.99C586.48,-263.81 646.47,-214.85 681.9,-185.94"/>
<polygon fill="black" stroke="black" points="684.38,-188.43 689.91,-179.39 679.95,-183 684.38,-188.43"/>
</g>
<!-- :core:domain&#45;&gt;:core:data -->
<g id="edge8" class="edge">
<title>:core:domain&#45;&gt;:core:data</title>
<path fill="none" stroke="black" d="M424.03,-432.65C436.86,-422.68 453.01,-409.32 466,-396 485.55,-375.95 505.01,-350.66 518.44,-332.17"/>
<polygon fill="black" stroke="black" points="521.35,-334.11 524.34,-323.94 515.67,-330.03 521.35,-334.11"/>
</g>
<!-- :core:domain&#45;&gt;:core:model -->
<g id="edge9" class="edge">
<title>:core:domain&#45;&gt;:core:model</title>
<path fill="none" stroke="black" d="M350.46,-437.48C341.02,-435.53 331.23,-433.62 322,-432 207.09,-411.86 161.46,-456.97 62,-396 20.9,-370.8 0,-355.21 0,-307 0,-307 0,-307 0,-161 0,-84.83 243.64,-43.19 366.66,-27.02"/>
<polygon fill="black" stroke="black" points="367.28,-30.47 376.75,-25.71 366.38,-23.52 367.28,-30.47"/>
</g>
<!-- :core:domain&#45;&gt;:core:common -->
<g id="edge10" class="edge">
<title>:core:domain&#45;&gt;:core:common</title>
<path fill="none" stroke="black" d="M349.26,-437.97C309.44,-428.86 253.84,-414.44 207,-396 128.01,-364.9 38,-391.89 38,-307 38,-307 38,-307 38,-233 38,-192.55 28.11,-172.3 57,-144 84.08,-117.48 179.94,-103.63 251.12,-96.84"/>
<polygon fill="black" stroke="black" points="251.8,-100.29 261.44,-95.88 251.16,-93.32 251.8,-100.29"/>
</g>
<!-- :core:domain&#45;&gt;:core:component&#45;controller -->
<g id="edge11" class="edge">
<title>:core:domain&#45;&gt;:core:component&#45;controller</title>
<path fill="none" stroke="black" d="M377.08,-433.12C363.95,-423.68 348.45,-410.7 338,-396 308.37,-354.32 291.52,-296.25 283.62,-262.45"/>
<polygon fill="black" stroke="black" points="286.96,-261.37 281.36,-252.37 280.13,-262.9 286.96,-261.37"/>
</g>
<!-- :core:ifw&#45;api -->
<g id="node10" class="node">
<title>:core:ifw&#45;api</title>
<ellipse fill="none" stroke="black" cx="134" cy="-162" rx="67.69" ry="18"/>
<text text-anchor="middle" x="134" y="-158.3" font-family="Times,serif" font-size="14.00">:core:ifw&#45;api</text>
</g>
<!-- :core:domain&#45;&gt;:core:ifw&#45;api -->
<g id="edge12" class="edge">
<title>:core:domain&#45;&gt;:core:ifw&#45;api</title>
<path fill="none" stroke="black" d="M359.88,-435.3C308.21,-416.8 220.32,-379.59 162,-324 124.72,-288.47 113.37,-267.07 120,-216 121.13,-207.28 123.27,-197.95 125.54,-189.58"/>
<polygon fill="black" stroke="black" points="128.91,-190.54 128.32,-179.96 122.18,-188.6 128.91,-190.54"/>
</g>
<!-- :core:rule -->
<g id="node11" class="node">
<title>:core:rule</title>
<ellipse fill="none" stroke="black" cx="402" cy="-378" rx="55.49" ry="18"/>
<text text-anchor="middle" x="402" y="-374.3" font-family="Times,serif" font-size="14.00">:core:rule</text>
</g>
<!-- :core:domain&#45;&gt;:core:rule -->
<g id="edge13" class="edge">
<title>:core:domain&#45;&gt;:core:rule</title>
<path fill="none" stroke="red" stroke-width="2" d="M402,-431.7C402,-423.98 402,-414.71 402,-406.11"/>
<polygon fill="red" stroke="red" stroke-width="2" points="405.5,-406.1 402,-396.1 398.5,-406.1 405.5,-406.1"/>
</g>
<!-- :core:common&#45;&gt;:core:model -->
<g id="edge20" class="edge">
<title>:core:common&#45;&gt;:core:model</title>
<path fill="none" stroke="red" stroke-width="2" d="M356.89,-72.76C370.9,-63.24 388.78,-51.09 403.99,-40.75"/>
<polygon fill="red" stroke="red" stroke-width="2" points="406.29,-43.42 412.6,-34.91 402.36,-37.63 406.29,-43.42"/>
</g>
<!-- :core:component&#45;controller&#45;&gt;:core:model -->
<g id="edge28" class="edge">
<title>:core:component&#45;controller&#45;&gt;:core:model</title>
<path fill="none" stroke="black" d="M267.3,-216C248.87,-184.31 216.12,-115.5 249,-72 263.82,-52.4 322.3,-37.95 369.97,-29.13"/>
<polygon fill="black" stroke="black" points="370.73,-32.55 379.96,-27.33 369.49,-25.66 370.73,-32.55"/>
</g>
<!-- :core:component&#45;controller&#45;&gt;:core:common -->
<g id="edge27" class="edge">
<title>:core:component&#45;controller&#45;&gt;:core:common</title>
<path fill="none" stroke="black" d="M284.63,-215.87C294.09,-191.46 311.53,-146.43 322.68,-117.64"/>
<polygon fill="black" stroke="black" points="325.99,-118.78 326.34,-108.19 319.47,-116.25 325.99,-118.78"/>
</g>
<!-- :core:component&#45;controller&#45;&gt;:core:ifw&#45;api -->
<g id="edge29" class="edge">
<title>:core:component&#45;controller&#45;&gt;:core:ifw&#45;api</title>
<path fill="none" stroke="red" stroke-width="2" d="M243.87,-216.41C222.92,-206.22 195.97,-193.12 174.01,-182.45"/>
<polygon fill="red" stroke="red" stroke-width="2" points="175.46,-179.26 164.94,-178.04 172.4,-185.56 175.46,-179.26"/>
</g>
<!-- :core:ifw&#45;api&#45;&gt;:core:common -->
<g id="edge30" class="edge">
<title>:core:ifw&#45;api&#45;&gt;:core:common</title>
<path fill="none" stroke="red" stroke-width="2" d="M173.32,-147.17C204.66,-136.15 248.76,-120.63 282.68,-108.7"/>
<polygon fill="red" stroke="red" stroke-width="2" points="284.13,-111.9 292.4,-105.28 281.8,-105.3 284.13,-111.9"/>
</g>
<!-- :core:rule&#45;&gt;:core:data -->
<g id="edge33" class="edge">
<title>:core:rule&#45;&gt;:core:data</title>
<path fill="none" stroke="red" stroke-width="2" d="M430.09,-362.33C449.97,-351.94 476.84,-337.91 498.54,-326.57"/>
<polygon fill="red" stroke="red" stroke-width="2" points="500.24,-329.63 507.48,-321.9 497,-323.42 500.24,-329.63"/>
</g>
<!-- :core:rule&#45;&gt;:core:common -->
<g id="edge31" class="edge">
<title>:core:rule&#45;&gt;:core:common</title>
<path fill="none" stroke="black" d="M408.92,-360.11C420.11,-330.29 439.35,-266.7 423,-216 415.95,-194.13 377.81,-145.3 353.5,-115.55"/>
<polygon fill="black" stroke="black" points="356.1,-113.21 347.04,-107.71 350.69,-117.66 356.1,-113.21"/>
</g>
<!-- :core:rule&#45;&gt;:core:component&#45;controller -->
<g id="edge32" class="edge">
<title>:core:rule&#45;&gt;:core:component&#45;controller</title>
<path fill="none" stroke="black" d="M387.53,-360.43C365.81,-335.56 324.63,-288.4 299.42,-259.53"/>
<polygon fill="black" stroke="black" points="301.97,-257.13 292.76,-251.9 296.7,-261.74 301.97,-257.13"/>
</g>
<!-- :core:rule&#45;&gt;:core:ifw&#45;api -->
<g id="edge34" class="edge">
<title>:core:rule&#45;&gt;:core:ifw&#45;api</title>
<path fill="none" stroke="black" d="M352.26,-370.09C288.76,-358.32 181.33,-327.76 133,-252 121.41,-233.84 122.74,-209.06 126.36,-190.26"/>
<polygon fill="black" stroke="black" points="129.83,-190.77 128.6,-180.25 123,-189.24 129.83,-190.77"/>
</g>
<!-- :core:database&#45;&gt;:core:model -->
<g id="edge21" class="edge">
<title>:core:database&#45;&gt;:core:model</title>
<path fill="none" stroke="black" d="M757.47,-78.06C687.15,-65.14 570.69,-43.75 498.93,-30.56"/>
<polygon fill="black" stroke="black" points="499.14,-27.04 488.68,-28.68 497.88,-33.93 499.14,-27.04"/>
</g>
<!-- :core:datastore&#45;&gt;:core:model -->
<g id="edge23" class="edge">
<title>:core:datastore&#45;&gt;:core:model</title>
<path fill="none" stroke="black" d="M500.54,-145.66C484.3,-136.9 466.21,-124.36 455,-108 442.55,-89.83 438.02,-65.06 436.48,-46.26"/>
<polygon fill="black" stroke="black" points="439.98,-46.02 435.9,-36.24 432.99,-46.43 439.98,-46.02"/>
</g>
<!-- :core:datastore&#45;&gt;:core:common -->
<g id="edge24" class="edge">
<title>:core:datastore&#45;&gt;:core:common</title>
<path fill="none" stroke="black" d="M493.94,-146.5C461.91,-135.45 417.69,-120.2 383.71,-108.49"/>
<polygon fill="black" stroke="black" points="384.56,-105.08 373.97,-105.13 382.28,-111.7 384.56,-105.08"/>
</g>
<!-- :core:datastore&#45;proto -->
<g id="node15" class="node">
<title>:core:datastore&#45;proto</title>
<ellipse fill="none" stroke="black" cx="573" cy="-90" rx="108.58" ry="18"/>
<text text-anchor="middle" x="573" y="-86.3" font-family="Times,serif" font-size="14.00">:core:datastore&#45;proto</text>
</g>
<!-- :core:datastore&#45;&gt;:core:datastore&#45;proto -->
<g id="edge22" class="edge">
<title>:core:datastore&#45;&gt;:core:datastore&#45;proto</title>
<path fill="none" stroke="black" d="M544.96,-144.05C549.21,-136.01 554.39,-126.2 559.14,-117.23"/>
<polygon fill="black" stroke="black" points="562.29,-118.75 563.87,-108.28 556.1,-115.48 562.29,-118.75"/>
</g>
<!-- :core:network&#45;&gt;:core:model -->
<g id="edge26" class="edge">
<title>:core:network&#45;&gt;:core:model</title>
<path fill="none" stroke="black" d="M711.47,-143.67C712.15,-123.58 709.93,-90.83 691,-72 665.54,-46.67 573.5,-32.37 507.3,-25.16"/>
<polygon fill="black" stroke="black" points="507.64,-21.68 497.33,-24.11 506.9,-28.64 507.64,-21.68"/>
</g>
<!-- :core:network&#45;&gt;:core:common -->
<g id="edge25" class="edge">
<title>:core:network&#45;&gt;:core:common</title>
<path fill="none" stroke="black" d="M654.91,-149.68C645.28,-147.75 635.35,-145.79 626,-144 549.45,-129.33 461.43,-113.56 402.01,-103.07"/>
<polygon fill="black" stroke="black" points="402.45,-99.59 391.99,-101.3 401.23,-106.48 402.45,-99.59"/>
</g>
</g>
</svg>
