<svg xmlns="http://www.w3.org/2000/svg" width="1181pt" height="548pt" viewBox="0 0 1180.74 548">
    <g class="graph">
        <path fill="#fff" stroke="transparent" d="M0 548V0h1180.74v548H0z"/>
        <g class="node" transform="translate(4 544)">
            <ellipse cx="574.74" cy="-522" fill="none" stroke="#000" rx="93.68" ry="18"/>
            <text x="574.74" y="-518.3" font-family="Times,serif" font-size="14" text-anchor="middle">:feature:appdetail</text>
        </g>
        <g class="node" transform="translate(4 544)">
            <ellipse cx="267.74" cy="-450" fill="none" stroke="#000" rx="45.49" ry="18"/>
            <text x="267.74" y="-446.3" font-family="Times,serif" font-size="14" text-anchor="middle">:core:ui</text>
        </g>
        <g stroke="red" stroke-width="2" class="edge">
            <path fill="none" d="M521 36.17c-58.05 13.23-146.52 33.4-200.96 45.82"/>
            <path fill="red" d="m320.81 85.4-10.52-1.19 8.97-5.63 1.55 6.82z"/>
        </g>
        <g class="node" transform="translate(4 544)">
            <ellipse cx="100.74" cy="-378" fill="none" stroke="#000" rx="100.98" ry="18"/>
            <text x="100.74" y="-374.3" font-family="Times,serif" font-size="14" text-anchor="middle">:core:designsystem</text>
        </g>
        <g stroke="#000" class="edge">
            <path fill="none" d="M485.42 23.58C410.33 27.09 303.56 39.06 217.74 76c-35.14 15.12-68.68 44.02-89.96 64.78"/>
            <path d="m130.07 143.44-9.56 4.59 4.61-9.54 4.95 4.95z"/>
        </g>
        <g class="node" transform="translate(4 544)">
            <ellipse cx="681.74" cy="-162" fill="none" stroke="#000" rx="135.68" ry="18"/>
            <text x="681.74" y="-158.3" font-family="Times,serif" font-size="14" text-anchor="middle">:core:component-controller</text>
        </g>
        <g stroke="#000" class="edge">
            <path fill="none" d="M570.13 40.25C556.42 70.08 532.75 133 548.74 184c22.13 70.59 79.48 138.03 112.54 172.73"/>
            <path d="m663.9 354.41 4.43 9.62-9.46-4.75 5.03-4.87z"/>
        </g>
        <g class="node" transform="translate(4 544)">
            <ellipse cx="913.74" cy="-234" fill="none" stroke="#000" rx="57.39" ry="18"/>
            <text x="913.74" y="-230.3" font-family="Times,serif" font-size="14" text-anchor="middle">:core:data</text>
        </g>
        <g stroke="#000" class="edge">
            <path fill="none" d="M612.84 38.82c19.23 9.6 43.26 22.76 62.9 37.18 90.07 66.12 180.86 163.76 220.85 208.72"/>
            <path d="m899.45 282.67 4 9.81-9.24-5.17 5.24-4.64z"/>
        </g>
        <g class="node" transform="translate(4 544)">
            <ellipse cx="624.74" cy="-378" fill="none" stroke="#000" rx="70.69" ry="18"/>
            <text x="624.74" y="-374.3" font-family="Times,serif" font-size="14" text-anchor="middle">:core:domain</text>
        </g>
        <g stroke="#000" class="edge">
            <path fill="none" d="M584.77 40.13c8.6 24.41 24.45 69.44 34.59 98.23"/>
            <path d="m622.67 137.22.02 10.59-6.62-8.27 6.6-2.32z"/>
        </g>
        <g class="node" transform="translate(4 544)">
            <ellipse cx="740.74" cy="-306" fill="none" stroke="#000" rx="55.49" ry="18"/>
            <text x="740.74" y="-302.3" font-family="Times,serif" font-size="14" text-anchor="middle">:core:rule</text>
        </g>
        <g stroke="#000" class="edge">
            <path fill="none" d="M601.31 39.75c28.38 22.07 77.08 63.38 107.43 108.25 13 19.22 22.51 43.86 28.48 62.33"/>
            <path d="m740.56 209.31-.39 10.58-6.3-8.52 6.69-2.06z"/>
        </g>
        <g stroke="#000" class="edge">
            <path fill="none" d="M241.5 107.68c-25 10.47-60.92 25.53-89.68 37.59"/>
            <path d="m152.94 148.59-10.57.64 7.87-7.1 2.7 6.46z"/>
        </g>
        <g stroke="red" stroke-width="2" class="edge">
            <path fill="none" d="M311.65 102.83C373 114.85 491.04 138 564.52 152.41"/>
            <path fill="red" d="m565.44 149.02 9.14 5.36-10.49 1.51 1.35-6.87z"/>
        </g>
        <g class="node" transform="translate(4 544)">
            <ellipse cx="373.74" cy="-162" fill="none" stroke="#000" rx="77.99" ry="18"/>
            <text x="373.74" y="-158.3" font-family="Times,serif" font-size="14" text-anchor="middle">:core:analytics</text>
        </g>
        <g stroke="#000" class="edge">
            <path fill="none" d="M278.05 112.03c17.79 47.99 68.4 184.56 89.87 242.48"/>
            <path d="m371.27 353.46.19 10.6-6.76-8.17 6.57-2.43z"/>
        </g>
        <g class="node" transform="translate(4 544)">
            <ellipse cx="634.74" cy="-18" fill="none" stroke="#000" rx="64.99" ry="18"/>
            <text x="634.74" y="-14.3" font-family="Times,serif" font-size="14" text-anchor="middle">:core:model</text>
        </g>
        <g stroke="#000" class="edge">
            <path fill="none" d="M264.05 112.09c-11.1 26.29-30.31 78.46-30.31 124.91v146c0 54.7 36.64 63.44 85 89 42.13 22.27 168.44 38.26 249.2 46.54"/>
            <path d="m568.44 515.07 9.6 4.49-10.3 2.48.7-6.97z"/>
        </g>
        <g stroke="#000" class="edge">
            <path fill="none" d="M677.42 400.41c-4.69 10.22-10.44 23.47-14.68 35.59-7.15 20.46-13.45 44.18-17.8 61.98"/>
            <path d="m648.34 498.8-5.73 8.91-1.08-10.54 6.81 1.63z"/>
        </g>
        <g class="node" transform="translate(4 544)">
            <ellipse cx="1062.74" cy="-18" fill="none" stroke="#000" rx="75.29" ry="18"/>
            <text x="1062.74" y="-14.3" font-family="Times,serif" font-size="14" text-anchor="middle">:core:common</text>
        </g>
        <g stroke="#000" class="edge">
            <path fill="none" d="M689.96 400.23c6.02 20.64 19.17 54.58 43.78 71.77 91.66 64.05 138.83 16.9 249 36 6.25 1.08 12.76 2.28 19.25 3.52"/>
            <path d="m1003 508.15 9.15 5.34-10.48 1.53 1.33-6.87z"/>
        </g>
        <g class="node" transform="translate(4 544)">
            <ellipse cx="538.74" cy="-90" fill="none" stroke="#000" rx="67.69" ry="18"/>
            <text x="538.74" y="-86.3" font-family="Times,serif" font-size="14" text-anchor="middle">:core:ifw-api</text>
        </g>
        <g stroke="red" stroke-width="2" class="edge">
            <path fill="none" d="M651.85 399.59c-20.81 10.19-47.57 23.29-69.38 33.96"/>
            <path fill="red" d="m583.98 436.71-10.52 1.25 7.44-7.54 3.08 6.29z"/>
        </g>
        <g stroke="red" stroke-width="2" class="edge">
            <path fill="none" d="M877.86 323.03c-35.86 10.82-89.1 26.89-130.45 39.36"/>
            <path fill="red" d="m748.3 365.78-10.59-.46 8.57-6.24 2.02 6.7z"/>
        </g>
        <g stroke="#000" class="edge">
            <path fill="none" d="M865.96 317.71c-95.61 12.4-300.27 38.93-411.84 53.39"/>
            <path d="m454.31 374.6-10.36-2.18 9.46-4.76.9 6.94z"/>
        </g>
        <g stroke="#000" class="edge">
            <path fill="none" d="M966.69 319.5c28.96 7.33 64.46 20.66 88.05 44.5 34.81 35.17 33.8 58.99 27 108-1.18 8.52-3.39 17.61-5.75 25.8"/>
            <path d="m1079.26 499.06-6.28 8.53-.41-10.58 6.69 2.05z"/>
        </g>
        <g class="node" transform="translate(4 544)">
            <ellipse cx="913.74" cy="-162" fill="none" stroke="#000" rx="78.79" ry="18"/>
            <text x="913.74" y="-158.3" font-family="Times,serif" font-size="14" text-anchor="middle">:core:database</text>
        </g>
        <g stroke="#000" class="edge">
            <path fill="none" d="M917.74 328.3v25.59"/>
            <path d="m921.24 353.9-3.5 10-3.5-10h7z"/>
        </g>
        <g class="node" transform="translate(4 544)">
            <ellipse cx="987.74" cy="-90" fill="none" stroke="#000" rx="81.49" ry="18"/>
            <text x="987.74" y="-86.3" font-family="Times,serif" font-size="14" text-anchor="middle">:core:datastore</text>
        </g>
        <g stroke="#000" class="edge">
            <path fill="none" d="M967.12 319.32c26.02 7.17 55.75 20.4 71.62 44.68 13.8 21.12-2.91 46.72-20.11 65.04"/>
            <path d="m1020.84 431.77-9.52 4.64 4.56-9.57 4.96 4.93z"/>
        </g>
        <g class="node" transform="translate(4 544)">
            <ellipse cx="813.74" cy="-90" fill="none" stroke="#000" rx="74.99" ry="18"/>
            <text x="813.74" y="-86.3" font-family="Times,serif" font-size="14" text-anchor="middle">:core:network</text>
        </g>
        <g stroke="#000" class="edge">
            <path fill="none" d="M955.58 323.59c18.63 8.33 39.37 21.31 50.16 40.41 7.87 13.93 9.66 23.24 0 36-7.81 10.32-73.16 27.18-124.65 39.11"/>
            <path d="m881.86 442.52-10.53-1.17 8.96-5.65 1.57 6.82z"/>
        </g>
        <g stroke="#000" class="edge">
            <path fill="none" d="M631.39 184.2c2.93 18.02 8.07 47.1 14.35 71.8 8.74 34.35 21.63 73.11 30.4 98.24"/>
            <path d="m679.49 353.21.02 10.59-6.63-8.27 6.61-2.32z"/>
        </g>
        <g stroke="#000" class="edge">
            <path fill="none" d="M634.09 184.31c7.22 20.38 22.09 53.74 46.65 71.69 49.21 35.95 118.4 48.2 169.33 52.05"/>
            <path d="m850.57 304.58 9.75 4.16-10.21 2.82.46-6.98z"/>
        </g>
        <g stroke="red" stroke-width="2" class="edge">
            <path fill="none" d="M655.06 182.88c16.51 9.97 37.96 22.91 55.74 33.64"/>
            <path fill="red" d="m712.96 213.74 6.76 8.16-10.37-2.17 3.61-5.99z"/>
        </g>
        <g stroke="#000" class="edge">
            <path fill="none" d="M576.76 178.36C463.59 205.6 211.21 281.28 290.74 400c59.85 89.34 190.38 115.28 273.46 122.54"/>
            <path d="m564.66 519.07 9.68 4.29-10.24 2.69.56-6.98z"/>
        </g>
        <g stroke="#000" class="edge">
            <path fill="none" d="M697.59 170.41c147.18 9.16 479.15 40.68 479.15 138.59v74c0 50.95-44.81 94.71-77.23 119.7"/>
            <path d="m1101.26 505.76-10.11 3.18 5.92-8.78 4.19 5.6z"/>
        </g>
        <g stroke="#000" class="edge">
            <path fill="none" d="M616.57 183.81c-22.82 32.71-71.22 108.05-87.83 180.19-4.75 20.64-.56 44.35 4.45 62.1"/>
            <path d="m536.57 425.21-.4 10.59-6.29-8.53 6.69-2.06z"/>
        </g>
        <g stroke="#000" class="edge">
            <path fill="none" d="M737.62 256.13c-10.14 24.41-28.85 69.44-40.81 98.23"/>
            <path d="m699.95 355.92-7.07 7.89.61-10.58 6.46 2.69z"/>
        </g>
        <g stroke="red" stroke-width="2" class="edge">
            <path fill="none" d="M778.1 252.5c27.46 11.11 66.6 26.95 96.46 39.03"/>
            <path fill="red" d="m875.94 288.31 7.96 7-10.59-.51 2.63-6.49z"/>
        </g>
        <g stroke="#000" class="edge">
            <path fill="none" d="M799.55 240.63c78.48 5.7 220.14 29.25 281.19 123.37 26.41 40.71 28.36 61.08 16 108-2.49 9.46-7.1 19.01-11.97 27.34"/>
            <path d="m1087.73 501.21-8.26 6.64 2.32-10.34 5.94 3.7z"/>
        </g>
        <g stroke="#000" class="edge">
            <path fill="none" d="M704.54 250.41c-48.8 16.26-128.89 51.26-163.8 113.59-10.53 18.8-9 43.52-5.42 62.13"/>
            <path d="m538.77 425.51-1.25 10.52-5.58-9 6.83-1.52z"/>
        </g>
        <g stroke="#000" class="edge">
            <path fill="none" d="M565.01 471.24c12.84 9.36 29.17 21.27 43.2 31.5"/>
            <path d="m610.58 500.13 6.02 8.72-10.15-3.06 4.13-5.66z"/>
        </g>
        <g stroke="red" stroke-width="2" class="edge">
            <path fill="none" d="M600.38 463.51c19.75 2.82 42.01 5.9 62.36 8.49 141.98 18.04 178.62 13.78 320 36 6.52 1.02 13.3 2.2 20.06 3.45"/>
            <path fill="red" d="m1003.47 508.02 9.17 5.31-10.47 1.57 1.3-6.88z"/>
        </g>
        <g stroke="#000" class="edge">
            <path fill="none" d="M864.43 395.41c-45.96 11.23-108.36 27.91-130.69 40.59-29.36 16.68-56.81 44.21-74.58 64.24"/>
            <path d="m661.59 502.78-9.2 5.26 3.91-9.85 5.29 4.59z"/>
        </g>
        <g stroke="#000" class="edge">
            <path fill="none" d="M933.45 466.56c-64.41 12.77-167.68 33.25-233.31 46.26"/>
            <path d="m700.43 516.33-10.49-1.48 9.13-5.38 1.36 6.86z"/>
        </g>
        <g stroke="#000" class="edge">
            <path fill="none" d="M1009.52 471.59c9.55 8.91 21.48 20.05 31.98 29.85"/>
            <path d="m1043.91 498.91 4.92 9.38-9.69-4.27 4.77-5.11z"/>
        </g>
        <g class="node" transform="translate(4 544)">
            <ellipse cx="860.74" cy="-18" fill="none" stroke="#000" rx="108.58" ry="18"/>
            <text x="860.74" y="-14.3" font-family="Times,serif" font-size="14" text-anchor="middle">:core:datastore-proto</text>
        </g>
        <g stroke="#000" class="edge">
            <path fill="none" d="M962.92 470.88c-17.56 9.68-40.23 22.18-59.36 32.72"/>
            <path d="m905.22 506.69-10.45 1.76 7.07-7.89 3.38 6.13z"/>
        </g>
        <g stroke="#000" class="edge">
            <path fill="none" d="M780.22 469.67c-28.03 10.97-66.47 26-96.21 37.63"/>
            <path d="m685.28 510.56-10.59.38 8.04-6.9 2.55 6.52z"/>
        </g>
        <g stroke="#000" class="edge">
            <path fill="none" d="M864.28 468.08c41.36 11.63 101.91 28.65 146.01 41.05"/>
            <path d="m1011.32 505.79 8.68 6.07-10.57.66 1.89-6.73z"/>
        </g>
    </g>
</svg>
