<?xml version="1.0" encoding="UTF-8" standalone="no"?>
<!DOCTYPE svg PUBLIC "-//W3C//DTD SVG 1.1//EN"
 "http://www.w3.org/Graphics/SVG/1.1/DTD/svg11.dtd">
<!-- Generated by graphviz version 2.43.0 (0)
 -->
<!-- Title: G Pages: 1 -->
<svg width="1161pt" height="548pt"
 viewBox="0.00 0.00 1160.84 548.00" xmlns="http://www.w3.org/2000/svg" xmlns:xlink="http://www.w3.org/1999/xlink">
<g id="graph0" class="graph" transform="scale(1 1) rotate(0) translate(4 544)">
<title>G</title>
<polygon fill="white" stroke="transparent" points="-4,4 -4,-544 1156.84,-544 1156.84,4 -4,4"/>
<!-- :core:ui -->
<g id="node1" class="node">
<title>:core:ui</title>
<ellipse fill="none" stroke="black" cx="866.1" cy="-522" rx="45.49" ry="18"/>
<text text-anchor="middle" x="866.1" y="-518.3" font-family="Times,serif" font-size="14.00">:core:ui</text>
</g>
<!-- :core:analytics -->
<g id="node2" class="node">
<title>:core:analytics</title>
<ellipse fill="none" stroke="black" cx="185.1" cy="-234" rx="77.99" ry="18"/>
<text text-anchor="middle" x="185.1" y="-230.3" font-family="Times,serif" font-size="14.00">:core:analytics</text>
</g>
<!-- :core:ui&#45;&gt;:core:analytics -->
<g id="edge1" class="edge">
<title>:core:ui&#45;&gt;:core:analytics</title>
<path fill="none" stroke="black" d="M825.49,-513.58C727.68,-494.39 473.67,-436.54 292.1,-324 261.51,-305.04 230.29,-278.01 209.53,-258.72"/>
<polygon fill="black" stroke="black" points="211.79,-256.04 202.11,-251.74 206.99,-261.14 211.79,-256.04"/>
</g>
<!-- :core:designsystem -->
<g id="node3" class="node">
<title>:core:designsystem</title>
<ellipse fill="none" stroke="black" cx="1052.1" cy="-450" rx="100.98" ry="18"/>
<text text-anchor="middle" x="1052.1" y="-446.3" font-family="Times,serif" font-size="14.00">:core:designsystem</text>
</g>
<!-- :core:ui&#45;&gt;:core:designsystem -->
<g id="edge2" class="edge">
<title>:core:ui&#45;&gt;:core:designsystem</title>
<path fill="none" stroke="black" d="M898.08,-508.97C926.44,-498.29 968.35,-482.52 1001.3,-470.12"/>
<polygon fill="black" stroke="black" points="1002.65,-473.35 1010.78,-466.55 1000.18,-466.8 1002.65,-473.35"/>
</g>
<!-- :core:model -->
<g id="node4" class="node">
<title>:core:model</title>
<ellipse fill="none" stroke="black" cx="541.1" cy="-18" rx="64.99" ry="18"/>
<text text-anchor="middle" x="541.1" y="-14.3" font-family="Times,serif" font-size="14.00">:core:model</text>
</g>
<!-- :core:ui&#45;&gt;:core:model -->
<g id="edge3" class="edge">
<title>:core:ui&#45;&gt;:core:model</title>
<path fill="none" stroke="black" d="M877.64,-504.38C894.29,-478.72 923.1,-427.35 923.1,-379 923.1,-379 923.1,-379 923.1,-161 923.1,-98.11 870.1,-98.58 813.1,-72 749.79,-42.47 670.78,-29.39 614.26,-23.6"/>
<polygon fill="black" stroke="black" points="614.27,-20.08 603.98,-22.6 613.59,-27.05 614.27,-20.08"/>
</g>
<!-- :core:domain -->
<g id="node5" class="node">
<title>:core:domain</title>
<ellipse fill="none" stroke="black" cx="809.1" cy="-450" rx="70.69" ry="18"/>
<text text-anchor="middle" x="809.1" y="-446.3" font-family="Times,serif" font-size="14.00">:core:domain</text>
</g>
<!-- :core:ui&#45;&gt;:core:domain -->
<g id="edge4" class="edge">
<title>:core:ui&#45;&gt;:core:domain</title>
<path fill="none" stroke="red" stroke-width="2" d="M852.88,-504.76C845.96,-496.27 837.34,-485.68 829.58,-476.15"/>
<polygon fill="red" stroke="red" stroke-width="2" points="832.07,-473.67 823.05,-468.12 826.65,-478.09 832.07,-473.67"/>
</g>
<!-- :core:domain&#45;&gt;:core:model -->
<g id="edge6" class="edge">
<title>:core:domain&#45;&gt;:core:model</title>
<path fill="none" stroke="black" d="M825.22,-432.19C847.53,-407.09 885.1,-357.33 885.1,-307 885.1,-307 885.1,-307 885.1,-161 885.1,-100.56 701.4,-52.63 602.48,-31.19"/>
<polygon fill="black" stroke="black" points="603.11,-27.75 592.6,-29.08 601.65,-34.6 603.11,-27.75"/>
</g>
<!-- :core:data -->
<g id="node6" class="node">
<title>:core:data</title>
<ellipse fill="none" stroke="black" cx="358.1" cy="-306" rx="57.39" ry="18"/>
<text text-anchor="middle" x="358.1" y="-302.3" font-family="Times,serif" font-size="14.00">:core:data</text>
</g>
<!-- :core:domain&#45;&gt;:core:data -->
<g id="edge5" class="edge">
<title>:core:domain&#45;&gt;:core:data</title>
<path fill="none" stroke="black" d="M747.22,-441.18C692.57,-433.21 611.21,-418.76 543.1,-396 488.57,-377.77 429.3,-347.17 392.92,-327.03"/>
<polygon fill="black" stroke="black" points="394.61,-323.97 384.18,-322.15 391.2,-330.09 394.61,-323.97"/>
</g>
<!-- :core:common -->
<g id="node7" class="node">
<title>:core:common</title>
<ellipse fill="none" stroke="black" cx="541.1" cy="-90" rx="75.29" ry="18"/>
<text text-anchor="middle" x="541.1" y="-86.3" font-family="Times,serif" font-size="14.00">:core:common</text>
</g>
<!-- :core:domain&#45;&gt;:core:common -->
<g id="edge7" class="edge">
<title>:core:domain&#45;&gt;:core:common</title>
<path fill="none" stroke="black" d="M816.79,-431.91C827.9,-405.62 847.1,-353.45 847.1,-307 847.1,-307 847.1,-307 847.1,-233 847.1,-192.14 853.95,-171.89 824.1,-144 795.5,-117.27 695.95,-103.41 622.99,-96.68"/>
<polygon fill="black" stroke="black" points="623.15,-93.18 612.88,-95.77 622.53,-100.15 623.15,-93.18"/>
</g>
<!-- :core:component&#45;controller -->
<g id="node8" class="node">
<title>:core:component&#45;controller</title>
<ellipse fill="none" stroke="black" cx="607.1" cy="-234" rx="135.68" ry="18"/>
<text text-anchor="middle" x="607.1" y="-230.3" font-family="Times,serif" font-size="14.00">:core:component&#45;controller</text>
</g>
<!-- :core:domain&#45;&gt;:core:component&#45;controller -->
<g id="edge8" class="edge">
<title>:core:domain&#45;&gt;:core:component&#45;controller</title>
<path fill="none" stroke="black" d="M793.25,-432.21C757.72,-394.56 671.56,-303.29 630.12,-259.38"/>
<polygon fill="black" stroke="black" points="632.57,-256.88 623.16,-252.01 627.48,-261.68 632.57,-256.88"/>
</g>
<!-- :core:ifw&#45;api -->
<g id="node9" class="node">
<title>:core:ifw&#45;api</title>
<ellipse fill="none" stroke="black" cx="747.1" cy="-162" rx="67.69" ry="18"/>
<text text-anchor="middle" x="747.1" y="-158.3" font-family="Times,serif" font-size="14.00">:core:ifw&#45;api</text>
</g>
<!-- :core:domain&#45;&gt;:core:ifw&#45;api -->
<g id="edge9" class="edge">
<title>:core:domain&#45;&gt;:core:ifw&#45;api</title>
<path fill="none" stroke="black" d="M807.47,-431.75C803.5,-392.71 791.92,-294.85 769.1,-216 766.55,-207.2 763,-197.87 759.48,-189.55"/>
<polygon fill="black" stroke="black" points="762.66,-188.07 755.44,-180.31 756.25,-190.88 762.66,-188.07"/>
</g>
<!-- :core:rule -->
<g id="node10" class="node">
<title>:core:rule</title>
<ellipse fill="none" stroke="black" cx="607.1" cy="-378" rx="55.49" ry="18"/>
<text text-anchor="middle" x="607.1" y="-374.3" font-family="Times,serif" font-size="14.00">:core:rule</text>
</g>
<!-- :core:domain&#45;&gt;:core:rule -->
<g id="edge10" class="edge">
<title>:core:domain&#45;&gt;:core:rule</title>
<path fill="none" stroke="red" stroke-width="2" d="M768.71,-435C735.35,-423.44 687.99,-407.03 653.16,-394.96"/>
<polygon fill="red" stroke="red" stroke-width="2" points="654.28,-391.65 643.69,-391.68 651.99,-398.26 654.28,-391.65"/>
</g>
<!-- :core:data&#45;&gt;:core:analytics -->
<g id="edge15" class="edge">
<title>:core:data&#45;&gt;:core:analytics</title>
<path fill="none" stroke="black" d="M324.33,-291.34C297.92,-280.65 260.89,-265.67 231.66,-253.84"/>
<polygon fill="black" stroke="black" points="232.66,-250.47 222.08,-249.96 230.03,-256.96 232.66,-250.47"/>
</g>
<!-- :core:data&#45;&gt;:core:common -->
<g id="edge11" class="edge">
<title>:core:data&#45;&gt;:core:common</title>
<path fill="none" stroke="black" d="M363.94,-287.85C376.76,-250.98 407.9,-165.78 429.1,-144 444.65,-128.03 465.95,-116.31 485.81,-108.01"/>
<polygon fill="black" stroke="black" points="487.1,-111.26 495.11,-104.32 484.52,-104.76 487.1,-111.26"/>
</g>
<!-- :core:data&#45;&gt;:core:component&#45;controller -->
<g id="edge16" class="edge">
<title>:core:data&#45;&gt;:core:component&#45;controller</title>
<path fill="none" stroke="red" stroke-width="2" d="M399.22,-293.44C438.08,-282.52 497.01,-265.95 542.21,-253.24"/>
<polygon fill="red" stroke="red" stroke-width="2" points="543.25,-256.59 551.93,-250.51 541.35,-249.85 543.25,-256.59"/>
</g>
<!-- :core:database -->
<g id="node11" class="node">
<title>:core:database</title>
<ellipse fill="none" stroke="black" cx="369.1" cy="-90" rx="78.79" ry="18"/>
<text text-anchor="middle" x="369.1" y="-86.3" font-family="Times,serif" font-size="14.00">:core:database</text>
</g>
<!-- :core:data&#45;&gt;:core:database -->
<g id="edge12" class="edge">
<title>:core:data&#45;&gt;:core:database</title>
<path fill="none" stroke="black" d="M358.98,-287.85C360.89,-250.83 365.39,-163.18 367.69,-118.39"/>
<polygon fill="black" stroke="black" points="371.2,-118.4 368.22,-108.23 364.21,-118.04 371.2,-118.4"/>
</g>
<!-- :core:datastore -->
<g id="node12" class="node">
<title>:core:datastore</title>
<ellipse fill="none" stroke="black" cx="90.1" cy="-162" rx="81.49" ry="18"/>
<text text-anchor="middle" x="90.1" y="-158.3" font-family="Times,serif" font-size="14.00">:core:datastore</text>
</g>
<!-- :core:data&#45;&gt;:core:datastore -->
<g id="edge13" class="edge">
<title>:core:data&#45;&gt;:core:datastore</title>
<path fill="none" stroke="black" d="M341.2,-288.47C330.7,-278.11 316.98,-264.41 305.1,-252 290.09,-236.32 290.54,-227.46 272.1,-216 252.29,-203.68 198.6,-188.75 154.63,-177.88"/>
<polygon fill="black" stroke="black" points="155.39,-174.46 144.84,-175.49 153.73,-181.26 155.39,-174.46"/>
</g>
<!-- :core:network -->
<g id="node13" class="node">
<title>:core:network</title>
<ellipse fill="none" stroke="black" cx="264.1" cy="-162" rx="74.99" ry="18"/>
<text text-anchor="middle" x="264.1" y="-158.3" font-family="Times,serif" font-size="14.00">:core:network</text>
</g>
<!-- :core:data&#45;&gt;:core:network -->
<g id="edge14" class="edge">
<title>:core:data&#45;&gt;:core:network</title>
<path fill="none" stroke="black" d="M348.92,-288.22C338.78,-270.05 321.7,-240.38 305.1,-216 298.65,-206.53 291.09,-196.5 284.24,-187.74"/>
<polygon fill="black" stroke="black" points="286.89,-185.45 277.94,-179.79 281.41,-189.8 286.89,-185.45"/>
</g>
<!-- :core:common&#45;&gt;:core:model -->
<g id="edge17" class="edge">
<title>:core:common&#45;&gt;:core:model</title>
<path fill="none" stroke="red" stroke-width="2" d="M541.1,-71.7C541.1,-63.98 541.1,-54.71 541.1,-46.11"/>
<polygon fill="red" stroke="red" stroke-width="2" points="544.6,-46.1 541.1,-36.1 537.6,-46.1 544.6,-46.1"/>
</g>
<!-- :core:component&#45;controller&#45;&gt;:core:model -->
<g id="edge25" class="edge">
<title>:core:component&#45;controller&#45;&gt;:core:model</title>
<path fill="none" stroke="black" d="M615.22,-215.75C628.49,-184.81 650.91,-118.79 625.1,-72 616.9,-57.12 602.56,-45.84 588.03,-37.6"/>
<polygon fill="black" stroke="black" points="589.49,-34.41 579.01,-32.85 586.23,-40.61 589.49,-34.41"/>
</g>
<!-- :core:component&#45;controller&#45;&gt;:core:common -->
<g id="edge24" class="edge">
<title>:core:component&#45;controller&#45;&gt;:core:common</title>
<path fill="none" stroke="black" d="M599.14,-215.87C587.74,-191.35 566.68,-146.03 553.31,-117.26"/>
<polygon fill="black" stroke="black" points="556.48,-115.78 549.09,-108.19 550.13,-118.73 556.48,-115.78"/>
</g>
<!-- :core:component&#45;controller&#45;&gt;:core:ifw&#45;api -->
<g id="edge26" class="edge">
<title>:core:component&#45;controller&#45;&gt;:core:ifw&#45;api</title>
<path fill="none" stroke="red" stroke-width="2" d="M640.28,-216.41C660.42,-206.34 686.26,-193.42 707.47,-182.81"/>
<polygon fill="red" stroke="red" stroke-width="2" points="709.17,-185.88 716.55,-178.27 706.04,-179.62 709.17,-185.88"/>
</g>
<!-- :core:ifw&#45;api&#45;&gt;:core:common -->
<g id="edge27" class="edge">
<title>:core:ifw&#45;api&#45;&gt;:core:common</title>
<path fill="none" stroke="red" stroke-width="2" d="M706.89,-147.34C674.14,-136.21 627.7,-120.43 592.29,-108.4"/>
<polygon fill="red" stroke="red" stroke-width="2" points="593.21,-105.01 582.62,-105.11 590.96,-111.64 593.21,-105.01"/>
</g>
<!-- :core:rule&#45;&gt;:core:data -->
<g id="edge30" class="edge">
<title>:core:rule&#45;&gt;:core:data</title>
<path fill="none" stroke="red" stroke-width="2" d="M566.82,-365.68C523.86,-353.6 455.72,-334.44 409.06,-321.33"/>
<polygon fill="red" stroke="red" stroke-width="2" points="409.73,-317.88 399.16,-318.54 407.83,-324.62 409.73,-317.88"/>
</g>
<!-- :core:rule&#45;&gt;:core:common -->
<g id="edge28" class="edge">
<title>:core:rule&#45;&gt;:core:common</title>
<path fill="none" stroke="black" d="M578.51,-362.41C543.52,-342.76 485.98,-304.12 462.1,-252 439.62,-202.94 483.79,-146.52 514.66,-115.19"/>
<polygon fill="black" stroke="black" points="517.51,-117.29 522.18,-107.78 512.6,-112.31 517.51,-117.29"/>
</g>
<!-- :core:rule&#45;&gt;:core:component&#45;controller -->
<g id="edge29" class="edge">
<title>:core:rule&#45;&gt;:core:component&#45;controller</title>
<path fill="none" stroke="black" d="M607.1,-359.87C607.1,-335.67 607.1,-291.21 607.1,-262.39"/>
<polygon fill="black" stroke="black" points="610.6,-262.19 607.1,-252.19 603.6,-262.19 610.6,-262.19"/>
</g>
<!-- :core:rule&#45;&gt;:core:ifw&#45;api -->
<g id="edge31" class="edge">
<title>:core:rule&#45;&gt;:core:ifw&#45;api</title>
<path fill="none" stroke="black" d="M635.69,-362.41C670.69,-342.76 728.22,-304.12 752.1,-252 761.04,-232.5 758.83,-208.04 754.93,-189.69"/>
<polygon fill="black" stroke="black" points="758.33,-188.84 752.58,-179.94 751.52,-190.48 758.33,-188.84"/>
</g>
<!-- :core:database&#45;&gt;:core:model -->
<g id="edge18" class="edge">
<title>:core:database&#45;&gt;:core:model</title>
<path fill="none" stroke="black" d="M406,-73.98C432.49,-63.2 468.33,-48.62 496.43,-37.18"/>
<polygon fill="black" stroke="black" points="498.08,-40.29 506.03,-33.27 495.44,-33.8 498.08,-40.29"/>
</g>
<!-- :core:datastore&#45;&gt;:core:model -->
<g id="edge20" class="edge">
<title>:core:datastore&#45;&gt;:core:model</title>
<path fill="none" stroke="black" d="M50.9,-146.17C34.26,-137.69 16.55,-125.24 7.1,-108 -0.59,-93.97 -3.64,-83.86 7.1,-72 37.34,-38.61 326.69,-25.42 466.37,-20.97"/>
<polygon fill="black" stroke="black" points="466.68,-24.46 476.57,-20.65 466.47,-17.46 466.68,-24.46"/>
</g>
<!-- :core:datastore&#45;&gt;:core:common -->
<g id="edge21" class="edge">
<title>:core:datastore&#45;&gt;:core:common</title>
<path fill="none" stroke="black" d="M148.6,-149.45C159.07,-147.52 169.89,-145.63 180.1,-144 302.7,-124.47 334.63,-128.33 457.1,-108 463.61,-106.92 470.38,-105.7 477.14,-104.43"/>
<polygon fill="black" stroke="black" points="477.82,-107.86 486.98,-102.54 476.5,-100.99 477.82,-107.86"/>
</g>
<!-- :core:datastore&#45;proto -->
<g id="node14" class="node">
<title>:core:datastore&#45;proto</title>
<ellipse fill="none" stroke="black" cx="125.1" cy="-90" rx="108.58" ry="18"/>
<text text-anchor="middle" x="125.1" y="-86.3" font-family="Times,serif" font-size="14.00">:core:datastore&#45;proto</text>
</g>
<!-- :core:datastore&#45;&gt;:core:datastore&#45;proto -->
<g id="edge19" class="edge">
<title>:core:datastore&#45;&gt;:core:datastore&#45;proto</title>
<path fill="none" stroke="black" d="M98.57,-144.05C102.6,-136.01 107.5,-126.2 111.99,-117.23"/>
<polygon fill="black" stroke="black" points="115.12,-118.78 116.46,-108.28 108.86,-115.65 115.12,-118.78"/>
</g>
<!-- :core:network&#45;&gt;:core:model -->
<g id="edge23" class="edge">
<title>:core:network&#45;&gt;:core:model</title>
<path fill="none" stroke="black" d="M262.18,-143.7C261,-123.64 262.42,-90.91 281.1,-72 306.93,-45.85 401.56,-31.71 469.2,-24.77"/>
<polygon fill="black" stroke="black" points="469.79,-28.22 479.39,-23.75 469.09,-21.26 469.79,-28.22"/>
</g>
<!-- :core:network&#45;&gt;:core:common -->
<g id="edge22" class="edge">
<title>:core:network&#45;&gt;:core:common</title>
<path fill="none" stroke="black" d="M313.62,-148.49C360.6,-136.61 431.26,-118.76 481.34,-106.1"/>
<polygon fill="black" stroke="black" points="482.24,-109.49 491.07,-103.64 480.52,-102.7 482.24,-109.49"/>
</g>
</g>
</svg>
