<?xml version="1.0" encoding="UTF-8" standalone="no"?>
<!DOCTYPE svg PUBLIC "-//W3C//DTD SVG 1.1//EN"
 "http://www.w3.org/Graphics/SVG/1.1/DTD/svg11.dtd">
<!-- Generated by graphviz version 2.43.0 (0)
 -->
<!-- Title: G Pages: 1 -->
<svg width="782pt" height="404pt"
 viewBox="0.00 0.00 781.89 404.00" xmlns="http://www.w3.org/2000/svg" xmlns:xlink="http://www.w3.org/1999/xlink">
<g id="graph0" class="graph" transform="scale(1 1) rotate(0) translate(4 400)">
<title>G</title>
<polygon fill="white" stroke="transparent" points="-4,4 -4,-400 777.89,-400 777.89,4 -4,4"/>
<!-- :sync:work -->
<g id="node1" class="node">
<title>:sync:work</title>
<ellipse fill="none" stroke="black" cx="248.24" cy="-378" rx="60.39" ry="18"/>
<text text-anchor="middle" x="248.24" y="-374.3" font-family="Times,serif" font-size="14.00">:sync:work</text>
</g>
<!-- :core:analytics -->
<g id="node2" class="node">
<title>:core:analytics</title>
<ellipse fill="none" stroke="black" cx="176.24" cy="-234" rx="77.99" ry="18"/>
<text text-anchor="middle" x="176.24" y="-230.3" font-family="Times,serif" font-size="14.00">:core:analytics</text>
</g>
<!-- :sync:work&#45;&gt;:core:analytics -->
<g id="edge1" class="edge">
<title>:sync:work&#45;&gt;:core:analytics</title>
<path fill="none" stroke="black" d="M239.7,-360.15C227.32,-335.73 204.26,-290.26 189.62,-261.38"/>
<polygon fill="black" stroke="black" points="192.64,-259.6 185,-252.27 186.4,-262.77 192.64,-259.6"/>
</g>
<!-- :core:data -->
<g id="node3" class="node">
<title>:core:data</title>
<ellipse fill="none" stroke="black" cx="320.24" cy="-306" rx="57.39" ry="18"/>
<text text-anchor="middle" x="320.24" y="-302.3" font-family="Times,serif" font-size="14.00">:core:data</text>
</g>
<!-- :sync:work&#45;&gt;:core:data -->
<g id="edge2" class="edge">
<title>:sync:work&#45;&gt;:core:data</title>
<path fill="none" stroke="red" stroke-width="2" d="M265.31,-360.41C274.45,-351.52 285.88,-340.41 295.94,-330.63"/>
<polygon fill="red" stroke="red" stroke-width="2" points="298.57,-332.95 303.3,-323.47 293.69,-327.93 298.57,-332.95"/>
</g>
<!-- :core:data&#45;&gt;:core:analytics -->
<g id="edge7" class="edge">
<title>:core:data&#45;&gt;:core:analytics</title>
<path fill="none" stroke="black" d="M290.41,-290.5C269.26,-280.22 240.63,-266.3 217.33,-254.97"/>
<polygon fill="black" stroke="black" points="218.56,-251.68 208.04,-250.46 215.5,-257.98 218.56,-251.68"/>
</g>
<!-- :core:common -->
<g id="node4" class="node">
<title>:core:common</title>
<ellipse fill="none" stroke="black" cx="406.24" cy="-90" rx="75.29" ry="18"/>
<text text-anchor="middle" x="406.24" y="-86.3" font-family="Times,serif" font-size="14.00">:core:common</text>
</g>
<!-- :core:data&#45;&gt;:core:common -->
<g id="edge3" class="edge">
<title>:core:data&#45;&gt;:core:common</title>
<path fill="none" stroke="black" d="M325.36,-287.73C334.41,-257.86 354.49,-194.89 377.24,-144 381.22,-135.1 386.14,-125.67 390.79,-117.27"/>
<polygon fill="black" stroke="black" points="393.98,-118.74 395.85,-108.31 387.88,-115.29 393.98,-118.74"/>
</g>
<!-- :core:database -->
<g id="node5" class="node">
<title>:core:database</title>
<ellipse fill="none" stroke="black" cx="695.24" cy="-90" rx="78.79" ry="18"/>
<text text-anchor="middle" x="695.24" y="-86.3" font-family="Times,serif" font-size="14.00">:core:database</text>
</g>
<!-- :core:data&#45;&gt;:core:database -->
<g id="edge4" class="edge">
<title>:core:data&#45;&gt;:core:database</title>
<path fill="none" stroke="black" d="M377.33,-304.33C466.05,-302.03 631.03,-292.29 671.24,-252 706.25,-216.92 704.56,-154.36 700.02,-118.42"/>
<polygon fill="black" stroke="black" points="703.44,-117.59 698.56,-108.18 696.51,-118.58 703.44,-117.59"/>
</g>
<!-- :core:datastore -->
<g id="node6" class="node">
<title>:core:datastore</title>
<ellipse fill="none" stroke="black" cx="81.24" cy="-162" rx="81.49" ry="18"/>
<text text-anchor="middle" x="81.24" y="-158.3" font-family="Times,serif" font-size="14.00">:core:datastore</text>
</g>
<!-- :core:data&#45;&gt;:core:datastore -->
<g id="edge5" class="edge">
<title>:core:data&#45;&gt;:core:datastore</title>
<path fill="none" stroke="black" d="M313.72,-287.94C305.16,-267.8 288.22,-234.68 263.24,-216 244.75,-202.16 191.81,-187.56 147.76,-177.2"/>
<polygon fill="black" stroke="black" points="148.47,-173.77 137.94,-174.92 146.89,-180.59 148.47,-173.77"/>
</g>
<!-- :core:network -->
<g id="node7" class="node">
<title>:core:network</title>
<ellipse fill="none" stroke="black" cx="255.24" cy="-162" rx="74.99" ry="18"/>
<text text-anchor="middle" x="255.24" y="-158.3" font-family="Times,serif" font-size="14.00">:core:network</text>
</g>
<!-- :core:data&#45;&gt;:core:network -->
<g id="edge6" class="edge">
<title>:core:data&#45;&gt;:core:network</title>
<path fill="none" stroke="black" d="M317.69,-287.89C314.48,-269.42 307.92,-239.51 296.24,-216 291.35,-206.15 284.49,-196.35 277.77,-187.91"/>
<polygon fill="black" stroke="black" points="280.26,-185.43 271.18,-179.96 274.87,-189.9 280.26,-185.43"/>
</g>
<!-- :core:component&#45;controller -->
<g id="node8" class="node">
<title>:core:component&#45;controller</title>
<ellipse fill="none" stroke="black" cx="526.24" cy="-234" rx="135.68" ry="18"/>
<text text-anchor="middle" x="526.24" y="-230.3" font-family="Times,serif" font-size="14.00">:core:component&#45;controller</text>
</g>
<!-- :core:data&#45;&gt;:core:component&#45;controller -->
<g id="edge8" class="edge">
<title>:core:data&#45;&gt;:core:component&#45;controller</title>
<path fill="none" stroke="red" stroke-width="2" d="M357.55,-292.32C388.81,-281.7 433.94,-266.37 469.65,-254.23"/>
<polygon fill="red" stroke="red" stroke-width="2" points="471.11,-257.43 479.45,-250.9 468.86,-250.8 471.11,-257.43"/>
</g>
<!-- :core:model -->
<g id="node9" class="node">
<title>:core:model</title>
<ellipse fill="none" stroke="black" cx="406.24" cy="-18" rx="64.99" ry="18"/>
<text text-anchor="middle" x="406.24" y="-14.3" font-family="Times,serif" font-size="14.00">:core:model</text>
</g>
<!-- :core:common&#45;&gt;:core:model -->
<g id="edge9" class="edge">
<title>:core:common&#45;&gt;:core:model</title>
<path fill="none" stroke="red" stroke-width="2" d="M406.24,-71.7C406.24,-63.98 406.24,-54.71 406.24,-46.11"/>
<polygon fill="red" stroke="red" stroke-width="2" points="409.74,-46.1 406.24,-36.1 402.74,-46.1 409.74,-46.1"/>
</g>
<!-- :core:database&#45;&gt;:core:model -->
<g id="edge10" class="edge">
<title>:core:database&#45;&gt;:core:model</title>
<path fill="none" stroke="black" d="M643.24,-76.4C592.56,-64.13 515.67,-45.51 463.32,-32.83"/>
<polygon fill="black" stroke="black" points="464.06,-29.4 453.52,-30.45 462.41,-36.21 464.06,-29.4"/>
</g>
<!-- :core:datastore&#45;&gt;:core:common -->
<g id="edge13" class="edge">
<title>:core:datastore&#45;&gt;:core:common</title>
<path fill="none" stroke="black" d="M137.48,-148.89C194.5,-136.61 282.6,-117.63 342.25,-104.78"/>
<polygon fill="black" stroke="black" points="343.27,-108.14 352.31,-102.62 341.8,-101.3 343.27,-108.14"/>
</g>
<!-- :core:datastore&#45;&gt;:core:model -->
<g id="edge12" class="edge">
<title>:core:datastore&#45;&gt;:core:model</title>
<path fill="none" stroke="black" d="M65.81,-144.11C50.02,-124.74 30.16,-92.96 48.24,-72 84.03,-30.52 237.2,-20.96 331.21,-19.08"/>
<polygon fill="black" stroke="black" points="331.31,-22.58 341.25,-18.9 331.19,-15.58 331.31,-22.58"/>
</g>
<!-- :core:datastore&#45;proto -->
<g id="node10" class="node">
<title>:core:datastore&#45;proto</title>
<ellipse fill="none" stroke="black" cx="166.24" cy="-90" rx="108.58" ry="18"/>
<text text-anchor="middle" x="166.24" y="-86.3" font-family="Times,serif" font-size="14.00">:core:datastore&#45;proto</text>
</g>
<!-- :core:datastore&#45;&gt;:core:datastore&#45;proto -->
<g id="edge11" class="edge">
<title>:core:datastore&#45;&gt;:core:datastore&#45;proto</title>
<path fill="none" stroke="black" d="M101.39,-144.41C112.32,-135.41 126,-124.14 137.98,-114.27"/>
<polygon fill="black" stroke="black" points="140.45,-116.77 145.95,-107.71 136,-111.37 140.45,-116.77"/>
</g>
<!-- :core:network&#45;&gt;:core:common -->
<g id="edge14" class="edge">
<title>:core:network&#45;&gt;:core:common</title>
<path fill="none" stroke="black" d="M288.01,-145.81C310.29,-135.48 339.98,-121.72 364.03,-110.57"/>
<polygon fill="black" stroke="black" points="365.68,-113.66 373.28,-106.28 362.74,-107.31 365.68,-113.66"/>
</g>
<!-- :core:network&#45;&gt;:core:model -->
<g id="edge15" class="edge">
<title>:core:network&#45;&gt;:core:model</title>
<path fill="none" stroke="black" d="M265.29,-144.14C277.21,-125.09 298.48,-93.88 322.24,-72 335.92,-59.4 352.98,-48.02 368.15,-39.05"/>
<polygon fill="black" stroke="black" points="369.89,-42.09 376.82,-34.06 366.4,-36.02 369.89,-42.09"/>
</g>
<!-- :core:component&#45;controller&#45;&gt;:core:common -->
<g id="edge16" class="edge">
<title>:core:component&#45;controller&#45;&gt;:core:common</title>
<path fill="none" stroke="black" d="M532.92,-215.68C539.11,-196.48 545.43,-165.42 531.24,-144 518.38,-124.57 496.8,-112.24 475.17,-104.43"/>
<polygon fill="black" stroke="black" points="476.18,-101.08 465.59,-101.25 473.98,-107.72 476.18,-101.08"/>
</g>
<!-- :core:component&#45;controller&#45;&gt;:core:model -->
<g id="edge17" class="edge">
<title>:core:component&#45;controller&#45;&gt;:core:model</title>
<path fill="none" stroke="black" d="M536.61,-216C546.28,-197.88 558,-168.5 549.24,-144 531.85,-95.34 482.16,-59.41 446.24,-38.86"/>
<polygon fill="black" stroke="black" points="447.87,-35.77 437.43,-33.97 444.47,-41.89 447.87,-35.77"/>
</g>
<!-- :core:ifw&#45;api -->
<g id="node11" class="node">
<title>:core:ifw&#45;api</title>
<ellipse fill="none" stroke="black" cx="454.24" cy="-162" rx="67.69" ry="18"/>
<text text-anchor="middle" x="454.24" y="-158.3" font-family="Times,serif" font-size="14.00">:core:ifw&#45;api</text>
</g>
<!-- :core:component&#45;controller&#45;&gt;:core:ifw&#45;api -->
<g id="edge18" class="edge">
<title>:core:component&#45;controller&#45;&gt;:core:ifw&#45;api</title>
<path fill="none" stroke="red" stroke-width="2" d="M508.81,-216.05C499.79,-207.28 488.63,-196.43 478.75,-186.83"/>
<polygon fill="red" stroke="red" stroke-width="2" points="481.12,-184.25 471.51,-179.79 476.24,-189.27 481.12,-184.25"/>
</g>
<!-- :core:ifw&#45;api&#45;&gt;:core:common -->
<g id="edge19" class="edge">
<title>:core:ifw&#45;api&#45;&gt;:core:common</title>
<path fill="none" stroke="red" stroke-width="2" d="M442.62,-144.05C436.9,-135.71 429.89,-125.49 423.56,-116.25"/>
<polygon fill="red" stroke="red" stroke-width="2" points="426.3,-114.06 417.76,-107.79 420.52,-118.02 426.3,-114.06"/>
</g>
</g>
</svg>
