<?xml version="1.0" encoding="UTF-8" standalone="no"?>
<!DOCTYPE svg PUBLIC "-//W3C//DTD SVG 1.1//EN"
 "http://www.w3.org/Graphics/SVG/1.1/DTD/svg11.dtd">
<!-- Generated by graphviz version 2.43.0 (0)
 -->
<!-- Title: G Pages: 1 -->
<svg width="432pt" height="188pt"
 viewBox="0.00 0.00 431.93 188.00" xmlns="http://www.w3.org/2000/svg" xmlns:xlink="http://www.w3.org/1999/xlink">
<g id="graph0" class="graph" transform="scale(1 1) rotate(0) translate(4 184)">
<title>G</title>
<polygon fill="white" stroke="transparent" points="-4,4 -4,-184 427.93,-184 427.93,4 -4,4"/>
<!-- :core:datastore -->
<g id="node1" class="node">
<title>:core:datastore</title>
<ellipse fill="none" stroke="black" cx="245.54" cy="-162" rx="81.49" ry="18"/>
<text text-anchor="middle" x="245.54" y="-158.3" font-family="Times,serif" font-size="14.00">:core:datastore</text>
</g>
<!-- :core:datastore&#45;proto -->
<g id="node2" class="node">
<title>:core:datastore&#45;proto</title>
<ellipse fill="none" stroke="black" cx="108.54" cy="-90" rx="108.58" ry="18"/>
<text text-anchor="middle" x="108.54" y="-86.3" font-family="Times,serif" font-size="14.00">:core:datastore&#45;proto</text>
</g>
<!-- :core:datastore&#45;&gt;:core:datastore&#45;proto -->
<g id="edge1" class="edge">
<title>:core:datastore&#45;&gt;:core:datastore&#45;proto</title>
<path fill="none" stroke="black" d="M214.79,-145.29C195.55,-135.46 170.53,-122.67 149.6,-111.98"/>
<polygon fill="black" stroke="black" points="151.11,-108.82 140.61,-107.39 147.92,-115.05 151.11,-108.82"/>
</g>
<!-- :core:model -->
<g id="node3" class="node">
<title>:core:model</title>
<ellipse fill="none" stroke="black" cx="296.54" cy="-18" rx="64.99" ry="18"/>
<text text-anchor="middle" x="296.54" y="-14.3" font-family="Times,serif" font-size="14.00">:core:model</text>
</g>
<!-- :core:datastore&#45;&gt;:core:model -->
<g id="edge2" class="edge">
<title>:core:datastore&#45;&gt;:core:model</title>
<path fill="none" stroke="black" d="M247.49,-143.78C249.95,-125.48 255.07,-95.95 264.54,-72 268.26,-62.61 273.56,-52.96 278.78,-44.52"/>
<polygon fill="black" stroke="black" points="281.86,-46.21 284.34,-35.91 275.98,-42.41 281.86,-46.21"/>
</g>
<!-- :core:common -->
<g id="node4" class="node">
<title>:core:common</title>
<ellipse fill="none" stroke="black" cx="348.54" cy="-90" rx="75.29" ry="18"/>
<text text-anchor="middle" x="348.54" y="-86.3" font-family="Times,serif" font-size="14.00">:core:common</text>
</g>
<!-- :core:datastore&#45;&gt;:core:common -->
<g id="edge3" class="edge">
<title>:core:datastore&#45;&gt;:core:common</title>
<path fill="none" stroke="red" stroke-width="2" d="M269.43,-144.76C283.34,-135.31 301.06,-123.26 316.21,-112.97"/>
<polygon fill="red" stroke="red" stroke-width="2" points="318.48,-115.66 324.78,-107.15 314.54,-109.87 318.48,-115.66"/>
</g>
<!-- :core:common&#45;&gt;:core:model -->
<g id="edge4" class="edge">
<title>:core:common&#45;&gt;:core:model</title>
<path fill="none" stroke="red" stroke-width="2" d="M335.95,-72.05C329.69,-63.63 322.01,-53.28 315.09,-43.97"/>
<polygon fill="red" stroke="red" stroke-width="2" points="317.79,-41.73 309.01,-35.79 312.17,-45.9 317.79,-41.73"/>
</g>
</g>
</svg>
