<?xml version="1.0" encoding="UTF-8" standalone="no"?>
<!DOCTYPE svg PUBLIC "-//W3C//DTD SVG 1.1//EN" "http://www.w3.org/Graphics/SVG/1.1/DTD/svg11.dtd">
<svg xmlns="http://www.w3.org/2000/svg" xmlns:xlink="http://www.w3.org/1999/xlink" width="1181pt" height="548pt" viewBox="0.00 0.00 1180.74 548.00">
  <g id="graph0" class="graph" transform="scale(1 1) rotate(0) translate(4 544)">
    <title>G</title>
    <polygon fill="white" stroke="transparent" points="-4,4 -4,-544 1176.74,-544 1176.74,4 -4,4"/>
    <g id="node1" class="node">
      <title>:feature:sort</title>
      <ellipse fill="none" stroke="black" cx="286.74" cy="-522" rx="68.79" ry="18"/>
      <text text-anchor="middle" x="286.74" y="-518.3" font-family="Times,serif" font-size="14.00">:feature:sort</text>
    </g>
    <g id="node2" class="node">
      <title>:core:ui</title>
      <ellipse fill="none" stroke="black" cx="286.74" cy="-450" rx="45.49" ry="18"/>
      <text text-anchor="middle" x="286.74" y="-446.3" font-family="Times,serif" font-size="14.00">:core:ui</text>
    </g>
    <g id="edge1" class="edge">
      <title>:feature:sort-&gt;:core:ui</title>
      <path fill="none" stroke="red" stroke-width="2" d="M286.74,-503.7C286.74,-495.98 286.74,-486.71 286.74,-478.11"/>
      <polygon fill="red" stroke="red" stroke-width="2" points="290.24,-478.1 286.74,-468.1 283.24,-478.1 290.24,-478.1"/>
    </g>
    <g id="node3" class="node">
      <title>:core:designsystem</title>
      <ellipse fill="none" stroke="black" cx="100.74" cy="-378" rx="100.98" ry="18"/>
      <text text-anchor="middle" x="100.74" y="-374.3" font-family="Times,serif" font-size="14.00">:core:designsystem</text>
    </g>
    <g id="edge2" class="edge">
      <title>:feature:sort-&gt;:core:designsystem</title>
      <path fill="none" stroke="black" d="M265.4,-504.71C232.31,-479.45 168.51,-430.74 130.78,-401.93"/>
      <polygon fill="black" stroke="black" points="132.76,-399.04 122.69,-395.76 128.52,-404.61 132.76,-399.04"/>
    </g>
    <g id="node4" class="node">
      <title>:core:data</title>
      <ellipse fill="none" stroke="black" cx="739.74" cy="-234" rx="57.39" ry="18"/>
      <text text-anchor="middle" x="739.74" y="-230.3" font-family="Times,serif" font-size="14.00">:core:data</text>
    </g>
    <g id="edge3" class="edge">
      <title>:feature:sort-&gt;:core:data</title>
      <path fill="none" stroke="black" d="M315.89,-505.58C375.23,-473.82 513.78,-397.9 623.74,-324 655.08,-302.94 689.16,-276.31 712.21,-257.69"/>
      <polygon fill="black" stroke="black" points="714.63,-260.24 720.19,-251.22 710.22,-254.8 714.63,-260.24"/>
    </g>
    <g id="edge5" class="edge">
      <title>:core:ui-&gt;:core:designsystem</title>
      <path fill="none" stroke="black" d="M254.77,-436.97C226.41,-426.29 184.49,-410.52 151.54,-398.12"/>
      <polygon fill="black" stroke="black" points="152.66,-394.8 142.07,-394.55 150.19,-401.35 152.66,-394.8"/>
    </g>
    <g id="node5" class="node">
      <title>:core:analytics</title>
      <ellipse fill="none" stroke="black" cx="1066.74" cy="-162" rx="77.99" ry="18"/>
      <text text-anchor="middle" x="1066.74" y="-158.3" font-family="Times,serif" font-size="14.00">:core:analytics</text>
    </g>
    <g id="edge4" class="edge">
      <title>:core:ui-&gt;:core:analytics</title>
      <path fill="none" stroke="black" d="M320.95,-437.98C409.7,-409.2 654.43,-328.69 854.74,-252 913.49,-229.51 980.24,-200.98 1022.88,-182.38"/>
      <polygon fill="black" stroke="black" points="1024.37,-185.54 1032.13,-178.33 1021.56,-179.13 1024.37,-185.54"/>
    </g>
    <g id="node6" class="node">
      <title>:core:model</title>
      <ellipse fill="none" stroke="black" cx="420.74" cy="-18" rx="64.99" ry="18"/>
      <text text-anchor="middle" x="420.74" y="-14.3" font-family="Times,serif" font-size="14.00">:core:model</text>
    </g>
    <g id="edge6" class="edge">
      <title>:core:ui-&gt;:core:model</title>
      <path fill="none" stroke="black" d="M275.21,-432.38C258.55,-406.72 229.74,-355.35 229.74,-307 229.74,-307 229.74,-307 229.74,-161 229.74,-118.33 234.75,-101.33 265.74,-72 289.59,-49.43 323.45,-36.44 353.44,-28.97"/>
      <polygon fill="black" stroke="black" points="354.5,-32.32 363.45,-26.65 352.91,-25.5 354.5,-32.32"/>
    </g>
    <g id="node7" class="node">
      <title>:core:domain</title>
      <ellipse fill="none" stroke="black" cx="343.74" cy="-378" rx="70.69" ry="18"/>
      <text text-anchor="middle" x="343.74" y="-374.3" font-family="Times,serif" font-size="14.00">:core:domain</text>
    </g>
    <g id="edge7" class="edge">
      <title>:core:ui-&gt;:core:domain</title>
      <path fill="none" stroke="red" stroke-width="2" d="M299.96,-432.76C306.88,-424.27 315.5,-413.68 323.26,-404.15"/>
      <polygon fill="red" stroke="red" stroke-width="2" points="326.2,-406.09 329.8,-396.12 320.77,-401.67 326.2,-406.09"/>
    </g>
    <g id="edge18" class="edge">
      <title>:core:data-&gt;:core:analytics</title>
      <path fill="none" stroke="black" d="M785.55,-223.19C841.86,-211.14 937.79,-190.6 1001.72,-176.92"/>
      <polygon fill="black" stroke="black" points="1002.64,-180.3 1011.69,-174.78 1001.18,-173.46 1002.64,-180.3"/>
    </g>
    <g id="node8" class="node">
      <title>:core:common</title>
      <ellipse fill="none" stroke="black" cx="819.74" cy="-18" rx="75.29" ry="18"/>
      <text text-anchor="middle" x="819.74" y="-14.3" font-family="Times,serif" font-size="14.00">:core:common</text>
    </g>
    <g id="edge14" class="edge">
      <title>:core:data-&gt;:core:common</title>
      <path fill="none" stroke="black" d="M789.15,-224.69C818.35,-217.43 854.12,-204.1 877.74,-180 912.3,-144.74 927.58,-115.23 903.74,-72 895.82,-57.63 882.18,-46.62 868.17,-38.46"/>
      <polygon fill="black" stroke="black" points="869.43,-35.16 858.96,-33.5 866.11,-41.32 869.43,-35.16"/>
    </g>
    <g id="node9" class="node">
      <title>:core:component-controller</title>
      <ellipse fill="none" stroke="black" cx="507.74" cy="-162" rx="135.68" ry="18"/>
      <text text-anchor="middle" x="507.74" y="-158.3" font-family="Times,serif" font-size="14.00">:core:component-controller</text>
    </g>
    <g id="edge19" class="edge">
      <title>:core:data-&gt;:core:component-controller</title>
      <path fill="none" stroke="red" stroke-width="2" d="M699.86,-220.97C664,-210.15 610.76,-194.08 569.41,-181.61"/>
      <polygon fill="red" stroke="red" stroke-width="2" points="570.3,-178.22 559.71,-178.68 568.28,-184.92 570.3,-178.22"/>
    </g>
    <g id="node12" class="node">
      <title>:core:database</title>
      <ellipse fill="none" stroke="black" cx="739.74" cy="-162" rx="78.79" ry="18"/>
      <text text-anchor="middle" x="739.74" y="-158.3" font-family="Times,serif" font-size="14.00">:core:database</text>
    </g>
    <g id="edge15" class="edge">
      <title>:core:data-&gt;:core:database</title>
      <path fill="none" stroke="black" d="M739.74,-215.7C739.74,-207.98 739.74,-198.71 739.74,-190.11"/>
      <polygon fill="black" stroke="black" points="743.24,-190.1 739.74,-180.1 736.24,-190.1 743.24,-190.1"/>
    </g>
    <g id="node13" class="node">
      <title>:core:datastore</title>
      <ellipse fill="none" stroke="black" cx="607.74" cy="-90" rx="81.49" ry="18"/>
      <text text-anchor="middle" x="607.74" y="-86.3" font-family="Times,serif" font-size="14.00">:core:datastore</text>
    </g>
    <g id="edge16" class="edge">
      <title>:core:data-&gt;:core:datastore</title>
      <path fill="none" stroke="black" d="M777.58,-220.41C796.21,-212.08 816.95,-199.1 827.74,-180 835.61,-166.07 837.64,-156.57 827.74,-144 810.46,-122.06 744.54,-108.15 689.32,-100.11"/>
      <polygon fill="black" stroke="black" points="689.54,-96.6 679.15,-98.67 688.56,-103.54 689.54,-96.6"/>
    </g>
    <g id="node14" class="node">
      <title>:core:network</title>
      <ellipse fill="none" stroke="black" cx="819.74" cy="-90" rx="74.99" ry="18"/>
      <text text-anchor="middle" x="819.74" y="-86.3" font-family="Times,serif" font-size="14.00">:core:network</text>
    </g>
    <g id="edge17" class="edge">
      <title>:core:data-&gt;:core:network</title>
      <path fill="none" stroke="black" d="M789.12,-224.68C815.14,-217.51 844.87,-204.28 860.74,-180 874.12,-159.53 859.55,-133.99 844.2,-115.53"/>
      <polygon fill="black" stroke="black" points="846.66,-113.03 837.42,-107.84 841.41,-117.65 846.66,-113.03"/>
    </g>
    <g id="edge8" class="edge">
      <title>:core:domain-&gt;:core:data</title>
      <path fill="none" stroke="black" d="M402.11,-367.74C448.91,-359.29 515.79,-344.92 571.74,-324 620.91,-305.62 673.83,-275.72 706.86,-255.72"/>
      <polygon fill="black" stroke="black" points="708.93,-258.56 715.63,-250.35 705.27,-252.59 708.93,-258.56"/>
    </g>
    <g id="edge9" class="edge">
      <title>:core:domain-&gt;:core:model</title>
      <path fill="none" stroke="black" d="M327.62,-360.19C305.31,-335.09 267.74,-285.33 267.74,-235 267.74,-235 267.74,-235 267.74,-161 267.74,-120.46 261.43,-102.84 287.74,-72 305.33,-51.38 332.06,-38.71 356.96,-30.96"/>
      <polygon fill="black" stroke="black" points="358.11,-34.27 366.75,-28.13 356.17,-27.55 358.11,-34.27"/>
    </g>
    <g id="edge10" class="edge">
      <title>:core:domain-&gt;:core:common</title>
      <path fill="none" stroke="black" d="M411.58,-372.52C609.57,-358.55 1172.74,-312.03 1172.74,-235 1172.74,-235 1172.74,-235 1172.74,-161 1172.74,-100.11 989.66,-53.27 887.2,-31.83"/>
      <polygon fill="black" stroke="black" points="887.74,-28.37 877.24,-29.77 886.33,-35.22 887.74,-28.37"/>
    </g>
    <g id="edge11" class="edge">
      <title>:core:domain-&gt;:core:component-controller</title>
      <path fill="none" stroke="black" d="M356.61,-360.21C385.28,-322.8 454.54,-232.42 488.42,-188.21"/>
      <polygon fill="black" stroke="black" points="491.4,-190.08 494.71,-180.01 485.84,-185.82 491.4,-190.08"/>
    </g>
    <g id="node10" class="node">
      <title>:core:ifw-api</title>
      <ellipse fill="none" stroke="black" cx="364.74" cy="-90" rx="67.69" ry="18"/>
      <text text-anchor="middle" x="364.74" y="-86.3" font-family="Times,serif" font-size="14.00">:core:ifw-api</text>
    </g>
    <g id="edge12" class="edge">
      <title>:core:domain-&gt;:core:ifw-api</title>
      <path fill="none" stroke="black" d="M343.33,-359.95C342.63,-321.33 342.19,-224.27 352.74,-144 353.86,-135.45 355.72,-126.25 357.63,-117.95"/>
      <polygon fill="black" stroke="black" points="361.08,-118.59 360.04,-108.04 354.28,-116.93 361.08,-118.59"/>
    </g>
    <g id="node11" class="node">
      <title>:core:rule</title>
      <ellipse fill="none" stroke="black" cx="507.74" cy="-306" rx="55.49" ry="18"/>
      <text text-anchor="middle" x="507.74" y="-302.3" font-family="Times,serif" font-size="14.00">:core:rule</text>
    </g>
    <g id="edge13" class="edge">
      <title>:core:domain-&gt;:core:rule</title>
      <path fill="none" stroke="red" stroke-width="2" d="M378.52,-362.15C404.17,-351.21 439.18,-336.26 466.29,-324.69"/>
      <polygon fill="red" stroke="red" stroke-width="2" points="467.69,-327.9 475.52,-320.75 464.95,-321.46 467.69,-327.9"/>
    </g>
    <g id="edge27" class="edge">
      <title>:core:component-controller-&gt;:core:model</title>
      <path fill="none" stroke="black" d="M497.25,-143.87C482.16,-119.24 454.22,-73.64 436.6,-44.88"/>
      <polygon fill="black" stroke="black" points="439.48,-42.89 431.27,-36.19 433.51,-46.54 439.48,-42.89"/>
    </g>
    <g id="edge26" class="edge">
      <title>:core:component-controller-&gt;:core:common</title>
      <path fill="none" stroke="black" d="M588.78,-147.5C623.83,-139.4 664.36,-126.9 697.74,-108 717.99,-96.54 717.37,-86.28 735.74,-72 750.54,-60.5 767.91,-49.21 783,-40.03"/>
      <polygon fill="black" stroke="black" points="784.81,-43.03 791.59,-34.88 781.21,-37.02 784.81,-43.03"/>
    </g>
    <g id="edge28" class="edge">
      <title>:core:component-controller-&gt;:core:ifw-api</title>
      <path fill="none" stroke="red" stroke-width="2" d="M473.85,-144.41C453.04,-134.22 426.28,-121.12 404.47,-110.45"/>
      <polygon fill="red" stroke="red" stroke-width="2" points="405.98,-107.29 395.46,-106.04 402.9,-113.58 405.98,-107.29"/>
    </g>
    <g id="edge30" class="edge">
      <title>:core:ifw-api-&gt;:core:model</title>
      <path fill="none" stroke="black" d="M378.3,-72.05C385.11,-63.54 393.49,-53.07 401,-43.68"/>
      <polygon fill="black" stroke="black" points="403.8,-45.78 407.31,-35.79 398.33,-41.41 403.8,-45.78"/>
    </g>
    <g id="edge29" class="edge">
      <title>:core:ifw-api-&gt;:core:common</title>
      <path fill="none" stroke="red" stroke-width="2" d="M424.14,-81.23C496.65,-71.56 622.94,-54.09 730.74,-36 738.27,-34.74 746.14,-33.34 753.95,-31.91"/>
      <polygon fill="red" stroke="red" stroke-width="2" points="754.59,-35.35 763.79,-30.09 753.32,-28.47 754.59,-35.35"/>
    </g>
    <g id="edge33" class="edge">
      <title>:core:rule-&gt;:core:data</title>
      <path fill="none" stroke="red" stroke-width="2" d="M546.83,-293.2C586.25,-281.31 647.23,-262.91 690.05,-249.99"/>
      <polygon fill="red" stroke="red" stroke-width="2" points="691.15,-253.32 699.71,-247.08 689.12,-246.62 691.15,-253.32"/>
    </g>
    <g id="edge31" class="edge">
      <title>:core:rule-&gt;:core:common</title>
      <path fill="none" stroke="black" d="M561.99,-302.59C623.34,-298.24 725.16,-286.07 805.74,-252 856.18,-230.67 875.3,-225.53 905.74,-180 932.75,-139.61 948.05,-113.48 922.74,-72 912.67,-55.49 895.62,-43.9 878.27,-35.87"/>
      <polygon fill="black" stroke="black" points="879.21,-32.47 868.64,-31.77 876.46,-38.91 879.21,-32.47"/>
    </g>
    <g id="edge32" class="edge">
      <title>:core:rule-&gt;:core:component-controller</title>
      <path fill="none" stroke="black" d="M507.74,-287.87C507.74,-263.67 507.74,-219.21 507.74,-190.39"/>
      <polygon fill="black" stroke="black" points="511.24,-190.19 507.74,-180.19 504.24,-190.19 511.24,-190.19"/>
    </g>
    <g id="edge34" class="edge">
      <title>:core:rule-&gt;:core:ifw-api</title>
      <path fill="none" stroke="black" d="M479.15,-290.41C444.16,-270.76 386.62,-232.12 362.74,-180 353.91,-160.74 355.12,-136.58 358.13,-118.3"/>
      <polygon fill="black" stroke="black" points="361.61,-118.77 360.06,-108.29 354.73,-117.45 361.61,-118.77"/>
    </g>
    <g id="edge20" class="edge">
      <title>:core:database-&gt;:core:model</title>
      <path fill="none" stroke="black" d="M684.01,-149.23C623.17,-136.15 532.4,-115.82 517.74,-108 496.93,-96.9 496.11,-87.96 478.74,-72 468.09,-62.22 456.32,-51.46 446.18,-42.2"/>
      <polygon fill="black" stroke="black" points="448.53,-39.61 438.79,-35.45 443.82,-44.78 448.53,-39.61"/>
    </g>
    <g id="edge22" class="edge">
      <title>:core:datastore-&gt;:core:model</title>
      <path fill="none" stroke="black" d="M568.08,-74.15C538.67,-63.15 498.48,-48.1 467.51,-36.51"/>
      <polygon fill="black" stroke="black" points="468.39,-33.1 457.8,-32.87 465.94,-39.66 468.39,-33.1"/>
    </g>
    <g id="edge23" class="edge">
      <title>:core:datastore-&gt;:core:common</title>
      <path fill="none" stroke="black" d="M651.15,-74.67C684.93,-63.51 731.9,-48 767.69,-36.19"/>
      <polygon fill="black" stroke="black" points="769.07,-39.42 777.47,-32.96 766.88,-32.77 769.07,-39.42"/>
    </g>
    <g id="node15" class="node">
      <title>:core:datastore-proto</title>
      <ellipse fill="none" stroke="black" cx="612.74" cy="-18" rx="108.58" ry="18"/>
      <text text-anchor="middle" x="612.74" y="-14.3" font-family="Times,serif" font-size="14.00">:core:datastore-proto</text>
    </g>
    <g id="edge21" class="edge">
      <title>:core:datastore-&gt;:core:datastore-proto</title>
      <path fill="none" stroke="black" d="M608.98,-71.7C609.53,-63.98 610.19,-54.71 610.8,-46.11"/>
      <polygon fill="black" stroke="black" points="614.3,-46.33 611.52,-36.1 607.32,-45.83 614.3,-46.33"/>
    </g>
    <g id="edge25" class="edge">
      <title>:core:network-&gt;:core:model</title>
      <path fill="none" stroke="black" d="M757.22,-80.02C691.63,-70.32 585.62,-53.83 494.74,-36 489.41,-34.95 483.87,-33.8 478.33,-32.61"/>
      <polygon fill="black" stroke="black" points="478.93,-29.16 468.41,-30.42 477.43,-35.99 478.93,-29.16"/>
    </g>
    <g id="edge24" class="edge">
      <title>:core:network-&gt;:core:common</title>
      <path fill="none" stroke="black" d="M819.74,-71.7C819.74,-63.98 819.74,-54.71 819.74,-46.11"/>
      <polygon fill="black" stroke="black" points="823.24,-46.1 819.74,-36.1 816.24,-46.1 823.24,-46.1"/>
    </g>
  </g>
</svg>
