<?xml version="1.0" encoding="UTF-8" standalone="no"?>
<!DOCTYPE svg PUBLIC "-//W3C//DTD SVG 1.1//EN"
 "http://www.w3.org/Graphics/SVG/1.1/DTD/svg11.dtd">
<!-- Generated by graphviz version 2.43.0 (0)
 -->
<!-- Title: G Pages: 1 -->
<svg width="1160pt" height="620pt"
 viewBox="0.00 0.00 1159.99 620.00" xmlns="http://www.w3.org/2000/svg" xmlns:xlink="http://www.w3.org/1999/xlink">
<g id="graph0" class="graph" transform="scale(1 1) rotate(0) translate(4 616)">
<title>G</title>
<polygon fill="white" stroke="transparent" points="-4,4 -4,-616 1155.99,-616 1155.99,4 -4,4"/>
<!-- :feature:settings -->
<g id="node1" class="node">
<title>:feature:settings</title>
<ellipse fill="none" stroke="black" cx="520.25" cy="-594" rx="87.99" ry="18"/>
<text text-anchor="middle" x="520.25" y="-590.3" font-family="Times,serif" font-size="14.00">:feature:settings</text>
</g>
<!-- :core:ui -->
<g id="node2" class="node">
<title>:core:ui</title>
<ellipse fill="none" stroke="black" cx="865.25" cy="-522" rx="45.49" ry="18"/>
<text text-anchor="middle" x="865.25" y="-518.3" font-family="Times,serif" font-size="14.00">:core:ui</text>
</g>
<!-- :feature:settings&#45;&gt;:core:ui -->
<g id="edge1" class="edge">
<title>:feature:settings&#45;&gt;:core:ui</title>
<path fill="none" stroke="red" stroke-width="2" d="M580.34,-580.81C647.09,-567.26 753.61,-545.65 815.75,-533.04"/>
<polygon fill="red" stroke="red" stroke-width="2" points="816.6,-536.44 825.7,-531.02 815.2,-529.58 816.6,-536.44"/>
</g>
<!-- :core:designsystem -->
<g id="node3" class="node">
<title>:core:designsystem</title>
<ellipse fill="none" stroke="black" cx="1051.25" cy="-450" rx="100.98" ry="18"/>
<text text-anchor="middle" x="1051.25" y="-446.3" font-family="Times,serif" font-size="14.00">:core:designsystem</text>
</g>
<!-- :feature:settings&#45;&gt;:core:designsystem -->
<g id="edge2" class="edge">
<title>:feature:settings&#45;&gt;:core:designsystem</title>
<path fill="none" stroke="black" d="M607.88,-592.79C690.65,-589.96 817,-578.8 919.25,-540 959.35,-524.78 999.35,-495.3 1024.62,-474.45"/>
<polygon fill="black" stroke="black" points="1026.88,-477.12 1032.29,-468.01 1022.38,-471.76 1026.88,-477.12"/>
</g>
<!-- :core:data -->
<g id="node4" class="node">
<title>:core:data</title>
<ellipse fill="none" stroke="black" cx="513.25" cy="-306" rx="57.39" ry="18"/>
<text text-anchor="middle" x="513.25" y="-302.3" font-family="Times,serif" font-size="14.00">:core:data</text>
</g>
<!-- :feature:settings&#45;&gt;:core:data -->
<g id="edge3" class="edge">
<title>:feature:settings&#45;&gt;:core:data</title>
<path fill="none" stroke="black" d="M519.83,-575.97C518.66,-528.29 515.35,-393.18 513.92,-334.63"/>
<polygon fill="black" stroke="black" points="517.41,-334.22 513.67,-324.31 510.41,-334.39 517.41,-334.22"/>
</g>
<!-- :core:domain -->
<g id="node5" class="node">
<title>:core:domain</title>
<ellipse fill="none" stroke="black" cx="421.25" cy="-450" rx="70.69" ry="18"/>
<text text-anchor="middle" x="421.25" y="-446.3" font-family="Times,serif" font-size="14.00">:core:domain</text>
</g>
<!-- :feature:settings&#45;&gt;:core:domain -->
<g id="edge4" class="edge">
<title>:feature:settings&#45;&gt;:core:domain</title>
<path fill="none" stroke="black" d="M508.5,-576.15C491.23,-551.39 458.87,-504.97 438.79,-476.16"/>
<polygon fill="black" stroke="black" points="441.57,-474.03 432.98,-467.82 435.82,-478.03 441.57,-474.03"/>
</g>
<!-- :core:rule -->
<g id="node6" class="node">
<title>:core:rule</title>
<ellipse fill="none" stroke="black" cx="55.25" cy="-378" rx="55.49" ry="18"/>
<text text-anchor="middle" x="55.25" y="-374.3" font-family="Times,serif" font-size="14.00">:core:rule</text>
</g>
<!-- :feature:settings&#45;&gt;:core:rule -->
<g id="edge5" class="edge">
<title>:feature:settings&#45;&gt;:core:rule</title>
<path fill="none" stroke="black" d="M486.05,-577.26C401.87,-538.52 184.92,-438.68 95.1,-397.34"/>
<polygon fill="black" stroke="black" points="96.35,-394.06 85.8,-393.06 93.42,-400.42 96.35,-394.06"/>
</g>
<!-- :core:ui&#45;&gt;:core:designsystem -->
<g id="edge7" class="edge">
<title>:core:ui&#45;&gt;:core:designsystem</title>
<path fill="none" stroke="black" d="M897.22,-508.97C925.58,-498.29 967.5,-482.52 1000.45,-470.12"/>
<polygon fill="black" stroke="black" points="1001.79,-473.35 1009.92,-466.55 999.33,-466.8 1001.79,-473.35"/>
</g>
<!-- :core:ui&#45;&gt;:core:domain -->
<g id="edge9" class="edge">
<title>:core:ui&#45;&gt;:core:domain</title>
<path fill="none" stroke="red" stroke-width="2" d="M823.87,-514.48C747.33,-502.41 582.94,-476.49 489.62,-461.78"/>
<polygon fill="red" stroke="red" stroke-width="2" points="490.13,-458.32 479.7,-460.22 489.04,-465.23 490.13,-458.32"/>
</g>
<!-- :core:analytics -->
<g id="node7" class="node">
<title>:core:analytics</title>
<ellipse fill="none" stroke="black" cx="779.25" cy="-234" rx="77.99" ry="18"/>
<text text-anchor="middle" x="779.25" y="-230.3" font-family="Times,serif" font-size="14.00">:core:analytics</text>
</g>
<!-- :core:ui&#45;&gt;:core:analytics -->
<g id="edge6" class="edge">
<title>:core:ui&#45;&gt;:core:analytics</title>
<path fill="none" stroke="black" d="M860.12,-503.97C845.73,-456.09 804.82,-320.06 787.33,-261.9"/>
<polygon fill="black" stroke="black" points="790.68,-260.87 784.45,-252.31 783.98,-262.89 790.68,-260.87"/>
</g>
<!-- :core:model -->
<g id="node8" class="node">
<title>:core:model</title>
<ellipse fill="none" stroke="black" cx="575.25" cy="-18" rx="64.99" ry="18"/>
<text text-anchor="middle" x="575.25" y="-14.3" font-family="Times,serif" font-size="14.00">:core:model</text>
</g>
<!-- :core:ui&#45;&gt;:core:model -->
<g id="edge8" class="edge">
<title>:core:ui&#45;&gt;:core:model</title>
<path fill="none" stroke="black" d="M875.65,-504.25C896.47,-469.1 941.25,-384.47 941.25,-307 941.25,-307 941.25,-307 941.25,-161 941.25,-118.66 940.11,-98.69 907.25,-72 868.71,-40.71 734.83,-27.6 649.31,-22.33"/>
<polygon fill="black" stroke="black" points="649.32,-18.82 639.13,-21.72 648.9,-25.81 649.32,-18.82"/>
</g>
<!-- :core:designsystem&#45;&gt;:core:model -->
<g id="edge10" class="edge">
<title>:core:designsystem&#45;&gt;:core:model</title>
<path fill="none" stroke="black" d="M1041.71,-431.66C1028.24,-405.47 1005.25,-353.9 1005.25,-307 1005.25,-307 1005.25,-307 1005.25,-161 1005.25,-115.63 992.72,-97.57 955.25,-72 906.93,-39.04 746.1,-26.36 649.85,-21.65"/>
<polygon fill="black" stroke="black" points="649.75,-18.14 639.59,-21.16 649.42,-25.13 649.75,-18.14"/>
</g>
<!-- :core:data&#45;&gt;:core:analytics -->
<g id="edge21" class="edge">
<title>:core:data&#45;&gt;:core:analytics</title>
<path fill="none" stroke="black" d="M555.69,-293.83C600.1,-282.14 670.18,-263.7 720.03,-250.58"/>
<polygon fill="black" stroke="black" points="720.93,-253.96 729.71,-248.03 719.15,-247.19 720.93,-253.96"/>
</g>
<!-- :core:common -->
<g id="node9" class="node">
<title>:core:common</title>
<ellipse fill="none" stroke="black" cx="312.25" cy="-90" rx="75.29" ry="18"/>
<text text-anchor="middle" x="312.25" y="-86.3" font-family="Times,serif" font-size="14.00">:core:common</text>
</g>
<!-- :core:data&#45;&gt;:core:common -->
<g id="edge17" class="edge">
<title>:core:data&#45;&gt;:core:common</title>
<path fill="none" stroke="black" d="M502.35,-288.21C481.92,-257.47 435.43,-190.95 386.25,-144 374.24,-132.54 359.64,-121.57 346.58,-112.61"/>
<polygon fill="black" stroke="black" points="348.53,-109.69 338.27,-107.02 344.62,-115.51 348.53,-109.69"/>
</g>
<!-- :core:component&#45;controller -->
<g id="node10" class="node">
<title>:core:component&#45;controller</title>
<ellipse fill="none" stroke="black" cx="257.25" cy="-234" rx="135.68" ry="18"/>
<text text-anchor="middle" x="257.25" y="-230.3" font-family="Times,serif" font-size="14.00">:core:component&#45;controller</text>
</g>
<!-- :core:data&#45;&gt;:core:component&#45;controller -->
<g id="edge22" class="edge">
<title>:core:data&#45;&gt;:core:component&#45;controller</title>
<path fill="none" stroke="red" stroke-width="2" d="M471.54,-293.6C431.47,-282.64 370.26,-265.9 323.5,-253.12"/>
<polygon fill="red" stroke="red" stroke-width="2" points="324.33,-249.71 313.76,-250.45 322.48,-256.47 324.33,-249.71"/>
</g>
<!-- :core:database -->
<g id="node12" class="node">
<title>:core:database</title>
<ellipse fill="none" stroke="black" cx="522.25" cy="-90" rx="78.79" ry="18"/>
<text text-anchor="middle" x="522.25" y="-86.3" font-family="Times,serif" font-size="14.00">:core:database</text>
</g>
<!-- :core:data&#45;&gt;:core:database -->
<g id="edge18" class="edge">
<title>:core:data&#45;&gt;:core:database</title>
<path fill="none" stroke="black" d="M529.15,-288.52C549.55,-266.11 583.91,-223.77 597.25,-180 601.91,-164.7 604.6,-158.21 597.25,-144 590.28,-130.54 578.14,-119.77 565.64,-111.54"/>
<polygon fill="black" stroke="black" points="567.34,-108.48 556.98,-106.26 563.69,-114.46 567.34,-108.48"/>
</g>
<!-- :core:datastore -->
<g id="node13" class="node">
<title>:core:datastore</title>
<ellipse fill="none" stroke="black" cx="725.25" cy="-162" rx="81.49" ry="18"/>
<text text-anchor="middle" x="725.25" y="-158.3" font-family="Times,serif" font-size="14.00">:core:datastore</text>
</g>
<!-- :core:data&#45;&gt;:core:datastore -->
<g id="edge19" class="edge">
<title>:core:data&#45;&gt;:core:datastore</title>
<path fill="none" stroke="black" d="M549.65,-292.09C573.58,-282.75 605.03,-268.85 630.25,-252 657.99,-233.46 685.33,-206.7 703.51,-187.37"/>
<polygon fill="black" stroke="black" points="706.25,-189.56 710.48,-179.84 701.12,-184.8 706.25,-189.56"/>
</g>
<!-- :core:network -->
<g id="node14" class="node">
<title>:core:network</title>
<ellipse fill="none" stroke="black" cx="513.25" cy="-162" rx="74.99" ry="18"/>
<text text-anchor="middle" x="513.25" y="-158.3" font-family="Times,serif" font-size="14.00">:core:network</text>
</g>
<!-- :core:data&#45;&gt;:core:network -->
<g id="edge20" class="edge">
<title>:core:data&#45;&gt;:core:network</title>
<path fill="none" stroke="black" d="M513.25,-287.87C513.25,-263.67 513.25,-219.21 513.25,-190.39"/>
<polygon fill="black" stroke="black" points="516.75,-190.19 513.25,-180.19 509.75,-190.19 516.75,-190.19"/>
</g>
<!-- :core:domain&#45;&gt;:core:data -->
<g id="edge11" class="edge">
<title>:core:domain&#45;&gt;:core:data</title>
<path fill="none" stroke="black" d="M432.16,-432.15C448.14,-407.49 478.02,-361.37 496.7,-332.53"/>
<polygon fill="black" stroke="black" points="499.84,-334.12 502.34,-323.82 493.97,-330.31 499.84,-334.12"/>
</g>
<!-- :core:domain&#45;&gt;:core:rule -->
<g id="edge16" class="edge">
<title>:core:domain&#45;&gt;:core:rule</title>
<path fill="none" stroke="red" stroke-width="2" d="M362.98,-439.75C302.94,-429.95 206.74,-413.5 124.25,-396 118.6,-394.8 112.72,-393.48 106.87,-392.11"/>
<polygon fill="red" stroke="red" stroke-width="2" points="107.65,-388.69 97.11,-389.78 106.02,-395.5 107.65,-388.69"/>
</g>
<!-- :core:domain&#45;&gt;:core:model -->
<g id="edge12" class="edge">
<title>:core:domain&#45;&gt;:core:model</title>
<path fill="none" stroke="black" d="M492.11,-448.69C626.09,-443.97 903.25,-412.74 903.25,-235 903.25,-235 903.25,-235 903.25,-161 903.25,-120.55 913.42,-100.02 884.25,-72 851.44,-40.5 729.81,-27.54 649.28,-22.34"/>
<polygon fill="black" stroke="black" points="649.39,-18.84 639.19,-21.71 648.95,-25.83 649.39,-18.84"/>
</g>
<!-- :core:domain&#45;&gt;:core:common -->
<g id="edge13" class="edge">
<title>:core:domain&#45;&gt;:core:common</title>
<path fill="none" stroke="black" d="M422.89,-431.96C426.07,-392.53 430.42,-292.56 402.25,-216 387.8,-176.77 357.44,-138.84 335.98,-115.25"/>
<polygon fill="black" stroke="black" points="338.45,-112.77 329.08,-107.82 333.32,-117.53 338.45,-112.77"/>
</g>
<!-- :core:domain&#45;&gt;:core:component&#45;controller -->
<g id="edge14" class="edge">
<title>:core:domain&#45;&gt;:core:component&#45;controller</title>
<path fill="none" stroke="black" d="M408.38,-432.21C379.71,-394.8 310.45,-304.42 276.56,-260.21"/>
<polygon fill="black" stroke="black" points="279.14,-257.82 270.28,-252.01 273.59,-262.08 279.14,-257.82"/>
</g>
<!-- :core:ifw&#45;api -->
<g id="node11" class="node">
<title>:core:ifw&#45;api</title>
<ellipse fill="none" stroke="black" cx="113.25" cy="-162" rx="67.69" ry="18"/>
<text text-anchor="middle" x="113.25" y="-158.3" font-family="Times,serif" font-size="14.00">:core:ifw&#45;api</text>
</g>
<!-- :core:domain&#45;&gt;:core:ifw&#45;api -->
<g id="edge15" class="edge">
<title>:core:domain&#45;&gt;:core:ifw&#45;api</title>
<path fill="none" stroke="black" d="M376.76,-435.95C305.74,-412.43 168.99,-355.48 112.25,-252 101.95,-233.22 103.09,-208.7 106.31,-190.15"/>
<polygon fill="black" stroke="black" points="109.75,-190.76 108.31,-180.27 102.89,-189.37 109.75,-190.76"/>
</g>
<!-- :core:rule&#45;&gt;:core:data -->
<g id="edge36" class="edge">
<title>:core:rule&#45;&gt;:core:data</title>
<path fill="none" stroke="red" stroke-width="2" d="M104.26,-369.51C188.67,-356.61 361.22,-330.24 452.89,-316.23"/>
<polygon fill="red" stroke="red" stroke-width="2" points="453.49,-319.67 462.85,-314.7 452.43,-312.75 453.49,-319.67"/>
</g>
<!-- :core:rule&#45;&gt;:core:common -->
<g id="edge34" class="edge">
<title>:core:rule&#45;&gt;:core:common</title>
<path fill="none" stroke="black" d="M46.68,-359.97C26.89,-317.89 -16.49,-207.83 36.25,-144 60.44,-114.72 157.27,-101.45 229.45,-95.55"/>
<polygon fill="black" stroke="black" points="229.77,-99.04 239.46,-94.76 229.22,-92.06 229.77,-99.04"/>
</g>
<!-- :core:rule&#45;&gt;:core:component&#45;controller -->
<g id="edge35" class="edge">
<title>:core:rule&#45;&gt;:core:component&#45;controller</title>
<path fill="none" stroke="black" d="M77.63,-361.26C113.41,-336.12 183.6,-286.77 224.85,-257.77"/>
<polygon fill="black" stroke="black" points="227.02,-260.52 233.19,-251.91 223,-254.8 227.02,-260.52"/>
</g>
<!-- :core:rule&#45;&gt;:core:ifw&#45;api -->
<g id="edge37" class="edge">
<title>:core:rule&#45;&gt;:core:ifw&#45;api</title>
<path fill="none" stroke="black" d="M55.46,-359.96C56.34,-329.93 60.47,-266 79.25,-216 82.9,-206.28 88.52,-196.47 94.15,-187.98"/>
<polygon fill="black" stroke="black" points="97.09,-189.88 99.93,-179.68 91.35,-185.88 97.09,-189.88"/>
</g>
<!-- :core:common&#45;&gt;:core:model -->
<g id="edge23" class="edge">
<title>:core:common&#45;&gt;:core:model</title>
<path fill="none" stroke="red" stroke-width="2" d="M360.48,-76.16C405.62,-64.15 472.98,-46.22 520.2,-33.65"/>
<polygon fill="red" stroke="red" stroke-width="2" points="521.19,-37.01 529.95,-31.06 519.39,-30.25 521.19,-37.01"/>
</g>
<!-- :core:component&#45;controller&#45;&gt;:core:model -->
<g id="edge31" class="edge">
<title>:core:component&#45;controller&#45;&gt;:core:model</title>
<path fill="none" stroke="black" d="M246.05,-215.6C226.79,-183.25 192.72,-113.37 228.25,-72 262.59,-32.01 409.01,-21.86 500.32,-19.49"/>
<polygon fill="black" stroke="black" points="500.44,-22.99 510.35,-19.25 500.27,-15.99 500.44,-22.99"/>
</g>
<!-- :core:component&#45;controller&#45;&gt;:core:common -->
<g id="edge30" class="edge">
<title>:core:component&#45;controller&#45;&gt;:core:common</title>
<path fill="none" stroke="black" d="M263.88,-215.87C273.34,-191.46 290.78,-146.43 301.93,-117.64"/>
<polygon fill="black" stroke="black" points="305.24,-118.78 305.59,-108.19 298.71,-116.25 305.24,-118.78"/>
</g>
<!-- :core:component&#45;controller&#45;&gt;:core:ifw&#45;api -->
<g id="edge32" class="edge">
<title>:core:component&#45;controller&#45;&gt;:core:ifw&#45;api</title>
<path fill="none" stroke="red" stroke-width="2" d="M223.12,-216.41C202.16,-206.22 175.22,-193.12 153.26,-182.45"/>
<polygon fill="red" stroke="red" stroke-width="2" points="154.7,-179.26 144.18,-178.04 151.64,-185.56 154.7,-179.26"/>
</g>
<!-- :core:ifw&#45;api&#45;&gt;:core:common -->
<g id="edge33" class="edge">
<title>:core:ifw&#45;api&#45;&gt;:core:common</title>
<path fill="none" stroke="red" stroke-width="2" d="M152.56,-147.17C183.9,-136.15 228,-120.63 261.92,-108.7"/>
<polygon fill="red" stroke="red" stroke-width="2" points="263.37,-111.9 271.64,-105.28 261.05,-105.3 263.37,-111.9"/>
</g>
<!-- :core:database&#45;&gt;:core:model -->
<g id="edge24" class="edge">
<title>:core:database&#45;&gt;:core:model</title>
<path fill="none" stroke="black" d="M535.07,-72.05C541.45,-63.63 549.29,-53.28 556.34,-43.97"/>
<polygon fill="black" stroke="black" points="559.29,-45.87 562.53,-35.79 553.71,-41.65 559.29,-45.87"/>
</g>
<!-- :core:datastore&#45;&gt;:core:model -->
<g id="edge26" class="edge">
<title>:core:datastore&#45;&gt;:core:model</title>
<path fill="none" stroke="black" d="M697.85,-144.81C682.49,-135.1 663.42,-121.95 648.25,-108 627.16,-88.62 606.81,-63.05 592.97,-44.29"/>
<polygon fill="black" stroke="black" points="595.62,-41.98 586.91,-35.94 589.95,-46.09 595.62,-41.98"/>
</g>
<!-- :core:datastore&#45;&gt;:core:common -->
<g id="edge27" class="edge">
<title>:core:datastore&#45;&gt;:core:common</title>
<path fill="none" stroke="black" d="M662.52,-150.37C587.04,-137.58 460.69,-116.16 382.15,-102.85"/>
<polygon fill="black" stroke="black" points="382.31,-99.33 371.87,-101.11 381.14,-106.23 382.31,-99.33"/>
</g>
<!-- :core:datastore&#45;proto -->
<g id="node15" class="node">
<title>:core:datastore&#45;proto</title>
<ellipse fill="none" stroke="black" cx="766.25" cy="-90" rx="108.58" ry="18"/>
<text text-anchor="middle" x="766.25" y="-86.3" font-family="Times,serif" font-size="14.00">:core:datastore&#45;proto</text>
</g>
<!-- :core:datastore&#45;&gt;:core:datastore&#45;proto -->
<g id="edge25" class="edge">
<title>:core:datastore&#45;&gt;:core:datastore&#45;proto</title>
<path fill="none" stroke="black" d="M735.17,-144.05C739.93,-135.92 745.75,-126 751.05,-116.94"/>
<polygon fill="black" stroke="black" points="754.09,-118.67 756.13,-108.28 748.05,-115.14 754.09,-118.67"/>
</g>
<!-- :core:network&#45;&gt;:core:model -->
<g id="edge29" class="edge">
<title>:core:network&#45;&gt;:core:model</title>
<path fill="none" stroke="black" d="M476.71,-146.17C460.62,-137.59 443.34,-125.05 434.25,-108 426.72,-93.88 425.14,-85.15 434.25,-72 450.62,-48.35 478.95,-35.24 505.95,-27.98"/>
<polygon fill="black" stroke="black" points="506.93,-31.34 515.8,-25.56 505.26,-24.54 506.93,-31.34"/>
</g>
<!-- :core:network&#45;&gt;:core:common -->
<g id="edge28" class="edge">
<title>:core:network&#45;&gt;:core:common</title>
<path fill="none" stroke="black" d="M472.57,-146.83C440.93,-135.82 396.87,-120.47 362.93,-108.65"/>
<polygon fill="black" stroke="black" points="363.8,-105.25 353.2,-105.26 361.5,-111.86 363.8,-105.25"/>
</g>
</g>
</svg>
