<svg xmlns="http://www.w3.org/2000/svg" width="1867pt" height="620pt" viewBox="0 0 1867 620">
    <g class="graph">
        <path fill="#fff" stroke="transparent" d="M0 620V0h1867v620H0z"/>
        <g class="node" transform="translate(4 616)">
            <ellipse cx="793" cy="-594" fill="none" stroke="#000" rx="74.19" ry="18"/>
            <text x="793" y="-590.3" font-family="Times,serif" font-size="14" text-anchor="middle">:app-compose</text>
        </g>
        <g class="node" transform="translate(4 616)">
            <ellipse cx="478" cy="-522" fill="none" stroke="#000" rx="93.68" ry="18"/>
            <text x="478" y="-518.3" font-family="Times,serif" font-size="14" text-anchor="middle">:feature:appdetail</text>
        </g>
        <g stroke="red" stroke-width="2" class="edge">
            <path fill="none" d="M744.28 34.72c-53.15 11.81-135.43 30.09-193.63 43.03"/>
            <path fill="red" d="m551.32 81.18-10.53-1.25 9.01-5.58 1.52 6.83z"/>
        </g>
        <g class="node" transform="translate(4 616)">
            <ellipse cx="1711" cy="-522" fill="none" stroke="#000" rx="81.79" ry="18"/>
            <text x="1711" y="-518.3" font-family="Times,serif" font-size="14" text-anchor="middle">:feature:applist</text>
        </g>
        <g stroke="#000" class="edge">
            <path fill="none" d="M870.29 24.73C1014.92 28.8 1347.05 41.38 1624 76c7.63.95 15.58 2.14 23.47 3.45"/>
            <path d="m1648.13 76.01 9.27 5.14-10.45 1.76 1.18-6.9z"/>
        </g>
        <g class="node" transform="translate(4 616)">
            <ellipse cx="1081" cy="-522" fill="none" stroke="#000" rx="103.98" ry="18"/>
            <text x="1081" y="-518.3" font-family="Times,serif" font-size="14" text-anchor="middle">:feature:generalrule</text>
        </g>
        <g stroke="#000" class="edge">
            <path fill="none" d="M847.5 35.27c47.2 11.48 118.04 28.69 170.07 41.34"/>
            <path d="m1018.49 73.23 8.89 5.76-10.54 1.04 1.65-6.8z"/>
        </g>
        <g class="node" transform="translate(4 616)">
            <ellipse cx="1530" cy="-522" fill="none" stroke="#000" rx="81.49" ry="18"/>
            <text x="1530" y="-518.3" font-family="Times,serif" font-size="14" text-anchor="middle">:feature:search</text>
        </g>
        <g stroke="#000" class="edge">
            <path fill="none" d="M869.07 26.43C988.84 32.68 1236.26 47.95 1444 76c7.34.99 14.99 2.18 22.59 3.47"/>
            <path d="m1467.29 76.04 9.24 5.17-10.45 1.73 1.21-6.9z"/>
        </g>
        <g class="node" transform="translate(4 616)">
            <ellipse cx="677" cy="-522" fill="none" stroke="#000" rx="87.99" ry="18"/>
            <text x="677" y="-518.3" font-family="Times,serif" font-size="14" text-anchor="middle">:feature:settings</text>
        </g>
        <g stroke="#000" class="edge">
            <path fill="none" d="M770.68 38.88C754.74 48.5 734.2 60.9 716.8 71.4"/>
            <path d="m718.39 74.52-10.37 2.17 6.76-8.16 3.61 5.99z"/>
        </g>
        <g class="node" transform="translate(4 616)">
            <ellipse cx="1336" cy="-522" fill="none" stroke="#000" rx="94.78" ry="18"/>
            <text x="1336" y="-518.3" font-family="Times,serif" font-size="14" text-anchor="middle">:feature:ruledetail</text>
        </g>
        <g stroke="#000" class="edge">
            <path fill="none" d="M862.89 30.36C948.02 40.02 1100.74 57.89 1231 76c9.43 1.31 19.31 2.75 29.11 4.23"/>
            <path d="m1260.91 76.81 9.36 4.96-10.41 1.96 1.05-6.92z"/>
        </g>
        <g class="node" transform="translate(4 616)">
            <ellipse cx="890" cy="-522" fill="none" stroke="#000" rx="68.79" ry="18"/>
            <text x="890" y="-518.3" font-family="Times,serif" font-size="14" text-anchor="middle">:feature:sort</text>
        </g>
        <g stroke="#000" class="edge">
            <path fill="none" d="M819.5 39.24c12.97 9.36 29.48 21.27 43.65 31.5"/>
            <path d="m865.56 68.16 6.06 8.69-10.15-3.01 4.09-5.68z"/>
        </g>
        <g class="node" transform="translate(4 616)">
            <ellipse cx="400" cy="-162" fill="none" stroke="#000" rx="77.99" ry="18"/>
            <text x="400" y="-158.3" font-family="Times,serif" font-size="14" text-anchor="middle">:core:analytics</text>
        </g>
        <g stroke="#000" class="edge">
            <path fill="none" d="M722.71 22.05C613.63 22.42 404.59 29.89 234 76c-90.8 24.54-192-5.06-192 89v146c0 62.13 187.14 108.32 292.31 129.38"/>
            <path d="m335.09 436.97 9.13 5.37-10.49 1.49 1.36-6.86z"/>
        </g>
        <g class="node" transform="translate(4 616)">
            <ellipse cx="629" cy="-18" fill="none" stroke="#000" rx="75.29" ry="18"/>
            <text x="629" y="-14.3" font-family="Times,serif" font-size="14" text-anchor="middle">:core:common</text>
        </g>
        <g stroke="#000" class="edge">
            <path fill="none" d="M723.46 24.54C548.13 28.75 115.93 42.44 60 76c-40.07 24.05-56 42.27-56 89v290c0 110.24 372.3 134.9 544.04 140.42"/>
            <path d="m548.18 591.92 9.88 3.8-10.1 3.2.22-7z"/>
        </g>
        <g class="node" transform="translate(4 616)">
            <ellipse cx="683" cy="-234" fill="none" stroke="#000" rx="57.39" ry="18"/>
            <text x="683" y="-230.3" font-family="Times,serif" font-size="14" text-anchor="middle">:core:data</text>
        </g>
        <g stroke="#000" class="edge">
            <path fill="none" d="M725.13 26.54C606.87 33.12 381.9 49.04 358 76c-39 43.99-30.3 121.69 150 252 34.09 24.64 79.63 37.92 116.24 45.02"/>
            <path d="m625.11 369.62 9.21 5.25-10.47 1.64 1.26-6.89z"/>
        </g>
        <g class="node" transform="translate(4 616)">
            <ellipse cx="923" cy="-378" fill="none" stroke="#000" rx="100.98" ry="18"/>
            <text x="923" y="-374.3" font-family="Times,serif" font-size="14" text-anchor="middle">:core:designsystem</text>
        </g>
        <g stroke="#000" class="edge">
            <path fill="none" d="M798.07 40.26c1.73 18.6 6.24 48.62 17.93 71.74 20.54 40.6 57.55 78.36 83.16 101.52"/>
            <path d="m901.56 210.97 5.15 9.26-9.8-4.02 4.65-5.24z"/>
        </g>
        <g class="node" transform="translate(4 616)">
            <ellipse cx="1206" cy="-18" fill="none" stroke="#000" rx="64.99" ry="18"/>
            <text x="1206" y="-14.3" font-family="Times,serif" font-size="14" text-anchor="middle">:core:model</text>
        </g>
        <g stroke="#000" class="edge">
            <path fill="none" d="M871.29 22.46C1093.72 21.45 1743.9 23.1 1822 76c36.06 24.42 41 45.45 41 89v290c0 117.11-406.07 137.82-577.78 141.35"/>
            <path d="m1285.06 599.85-10.06-3.31 9.93-3.69.13 7z"/>
        </g>
        <g class="node" transform="translate(4 616)">
            <ellipse cx="1007" cy="-90" fill="none" stroke="#000" rx="74.99" ry="18"/>
            <text x="1007" y="-86.3" font-family="Times,serif" font-size="14" text-anchor="middle">:core:network</text>
        </g>
        <g stroke="#000" class="edge">
            <path fill="none" d="M870.92 24.13C1098.28 27.96 1773.89 42.16 1806 76c11.01 11.61 2.25 20.16 0 36-12.79 90.24-57 105.85-57 197v74c0 33.63-478.83 105.22-665.1 131.79"/>
            <path d="m1084.31 518.27-10.39-2.06 9.41-4.87.98 6.93z"/>
        </g>
        <g class="node" transform="translate(4 616)">
            <ellipse cx="296" cy="-306" fill="none" stroke="#000" rx="76.09" ry="18"/>
            <text x="296" y="-302.3" font-family="Times,serif" font-size="14" text-anchor="middle">:core:provider</text>
        </g>
        <g stroke="#000" class="edge">
            <path fill="none" d="M724.31 25.72C594.97 31.29 335.79 46.09 308 76c-52.48 56.5-31.28 157.95-17 206.16"/>
            <path d="m294.39 281.28-.39 10.59-6.29-8.52 6.68-2.07z"/>
        </g>
        <g class="node" transform="translate(4 616)">
            <ellipse cx="597" cy="-306" fill="none" stroke="#000" rx="55.49" ry="18"/>
            <text x="597" y="-302.3" font-family="Times,serif" font-size="14" text-anchor="middle">:core:rule</text>
        </g>
        <g stroke="#000" class="edge">
            <path fill="none" d="M725.38 27C611.96 34.07 401.49 50.48 379 76c-72.92 82.75 98.6 176.41 180.96 214.97"/>
            <path d="m561.45 287.8 7.61 7.37-10.54-1.01 2.93-6.36z"/>
        </g>
        <g class="node" transform="translate(4 616)">
            <ellipse cx="1153" cy="-450" fill="none" stroke="#000" rx="45.49" ry="18"/>
            <text x="1153" y="-446.3" font-family="Times,serif" font-size="14" text-anchor="middle">:core:ui</text>
        </g>
        <g stroke="#000" class="edge">
            <path fill="none" d="M867.93 27.36C977.25 34.82 1176.62 51.61 1198 76c16.75 19.11-.01 46.23-16.88 65.5"/>
            <path d="m1183.58 144-9.35 4.98 4.2-9.73 5.15 4.75z"/>
        </g>
        <g class="node" transform="translate(4 616)">
            <ellipse cx="192" cy="-378" fill="none" stroke="#000" rx="60.39" ry="18"/>
            <text x="192" y="-374.3" font-family="Times,serif" font-size="14" text-anchor="middle">:sync:work</text>
        </g>
        <g stroke="#000" class="edge">
            <path fill="none" d="M724.84 26.3C589.13 33.08 306.22 50.13 270 76c-44.43 31.73-62.82 96.85-69.93 133.81"/>
            <path d="m203.48 210.64-5.19 9.23-1.7-10.46 6.89 1.23z"/>
        </g>
        <g stroke="#000" class="edge">
            <path fill="none" d="M480.88 112.12C479.07 154.41 480.36 264.9 537 328c22.21 24.75 56.71 37.94 87.02 44.97"/>
            <path d="m625.07 369.62 9.04 5.51-10.51 1.33 1.47-6.84z"/>
        </g>
        <g stroke="#000" class="edge">
            <path fill="none" d="M528.36 109.79c82.18 26.23 253.09 80.77 342.06 109.16"/>
            <path d="m871.61 215.65 8.46 6.38-10.59.29 2.13-6.67z"/>
        </g>
        <g stroke="#000" class="edge">
            <path fill="none" d="M499.13 112.12c9.31 9.92 20.58 22.96 28.87 35.88 28.38 44.25 51.46 101.36 63.63 134.31"/>
            <path d="m594.92 281.13.13 10.59-6.7-8.2 6.57-2.39z"/>
        </g>
        <g stroke="red" stroke-width="2" class="edge">
            <path fill="none" d="M548.29 106.77c11.87 1.9 24.14 3.73 35.71 5.23 99.52 12.88 395.71 38.18 518.61 48.48"/>
            <path fill="red" d="m1103.24 157.02 9.67 4.32-10.26 2.66.59-6.98z"/>
        </g>
        <g class="node" transform="translate(4 616)">
            <ellipse cx="1102" cy="-162" fill="none" stroke="#000" rx="135.68" ry="18"/>
            <text x="1102" y="-158.3" font-family="Times,serif" font-size="14" text-anchor="middle">:core:component-controller</text>
        </g>
        <g stroke="#000" class="edge">
            <path fill="none" d="M511.73 111.22c32.98 17.95 87.8 47.67 135.27 72.78 153.57 81.24 201.2 85.52 347 180 30.81 19.97 63.39 46.56 85.42 65.46"/>
            <path d="m1081.76 426.86 5.27 9.19-9.85-3.9 4.58-5.29z"/>
        </g>
        <g class="node" transform="translate(4 616)">
            <ellipse cx="1227" cy="-378" fill="none" stroke="#000" rx="70.69" ry="18"/>
            <text x="1227" y="-374.3" font-family="Times,serif" font-size="14" text-anchor="middle">:core:domain</text>
        </g>
        <g stroke="#000" class="edge">
            <path fill="none" d="M545.4 107.28C634.72 124.55 802.74 156.94 946 184c75.23 14.21 161.68 30.25 219.46 40.92"/>
            <path d="m1166.35 221.53 9.2 5.25-10.47 1.63 1.27-6.88z"/>
        </g>
        <g stroke="#000" class="edge">
            <path fill="none" d="M1683.34 110.72c-37.15 18.27-100.73 49.02-156.34 73.28-157.95 68.9-192.83 102.16-360 144-144.24 36.1-319 47.62-412.77 51.29"/>
            <path d="m754.16 382.79-10.12-3.12 9.86-3.87.26 6.99z"/>
        </g>
        <g stroke="#000" class="edge">
            <path fill="none" d="M1657.95 107.04c-85.29 17.83-251.21 51.84-392.95 76.96-85.53 15.16-183.64 30.29-252.05 40.49"/>
            <path d="m1013.06 228.01-10.41-1.99 9.38-4.94 1.03 6.93z"/>
        </g>
        <g stroke="#000" class="edge">
            <path fill="none" d="M1656.37 106.64c-10.74 1.93-21.88 3.81-32.37 5.36-146.83 21.64-184.59 18.73-332 36-27.22 3.19-57.49 6.98-82.46 10.17"/>
            <path d="m1209.9 161.65-10.36-2.2 9.47-4.74.89 6.94z"/>
        </g>
        <g stroke="#000" class="edge">
            <path fill="none" d="M1703.81 112.13C1687.99 138.04 1661 189.26 1661 237v74c0 86.82-258.15 121.27-422.33 134.39"/>
            <path d="m1238.73 448.9-10.25-2.71 9.7-4.27.55 6.98z"/>
        </g>
        <g stroke="#000" class="edge">
            <path fill="none" d="M1670.77 109.16C1639.18 119.46 1595.76 134 1558 148c-40.01 14.83-48.26 23.32-89 36-56.79 17.68-122.94 31.91-171.06 41.16"/>
            <path d="m1298.43 228.63-10.48-1.57 9.17-5.3 1.31 6.87z"/>
        </g>
        <g class="node" transform="translate(4 616)">
            <ellipse cx="1206" cy="-90" fill="none" stroke="#000" rx="67.69" ry="18"/>
            <text x="1206" y="-86.3" font-family="Times,serif" font-size="14" text-anchor="middle">:core:ifw-api</text>
        </g>
        <g stroke="#000" class="edge">
            <path fill="none" d="M1730.27 111.96C1751.4 137.26 1787 187.25 1787 237v146c0 40.97 7.3 62.56-24 89-35.61 30.09-332.91 44.96-476.27 50.44"/>
            <path d="m1286.8 525.94-10.12-3.12 9.86-3.88.26 7z"/>
        </g>
        <g stroke="#000" class="edge">
            <path fill="none" d="M1036.86 109.97C980.24 129.18 885.33 166.53 817 220c-26.29 20.57-82.93 96.14-111.99 136"/>
            <path d="m707.79 358.13-8.71 6.03 3.04-10.15 5.67 4.12z"/>
        </g>
        <g stroke="#000" class="edge">
            <path fill="none" d="M1066.25 111.85c-28.03 25.19-80.98 72.78-112.9 101.47"/>
            <path d="m955.5 216.09-9.78 4.09 5.1-9.29 4.68 5.2z"/>
        </g>
        <g stroke="#000" class="edge">
            <path fill="none" d="M1102.43 111.95c9.29 9.02 20.84 20.26 30.93 30.06"/>
            <path d="m1135.99 139.69 4.73 9.48-9.61-4.46 4.88-5.02z"/>
        </g>
        <g stroke="#000" class="edge">
            <path fill="none" d="M1083.95 112.07c-.28 19.55 2.21 51.49 19.05 71.93 15.85 19.25 39.86 31.6 62.82 39.49"/>
            <path d="m1167.11 220.22 8.46 6.38-10.59.29 2.13-6.67z"/>
        </g>
        <g stroke="#000" class="edge">
            <path fill="none" d="M1491.2 109.36c-53.03 17.75-146.16 48.76-226.2 74.64-50.56 16.35-67.41 10.46-114 36-21.86 11.98-21.98 22.61-43 36-63.73 40.59-82.2 48.47-154 72-68.49 22.44-150.13 36.95-204.95 45.02"/>
            <path d="m749.53 376.49-10.4-2.04 9.4-4.89 1 6.93z"/>
        </g>
        <g stroke="#000" class="edge">
            <path fill="none" d="M1475.13 106.47c-60.27 11.99-149.72 30.57-183.13 41.53-37.43 12.28-43.38 24.31-81 36-63.37 19.7-137.1 33.19-193.55 41.63"/>
            <path d="m1017.88 229.11-10.4-2.01 9.38-4.92 1.02 6.93z"/>
        </g>
        <g stroke="#000" class="edge">
            <path fill="none" d="M1474.46 106.28c-10.16 1.92-20.61 3.88-30.46 5.72-82.93 15.49-179.39 33.25-236.7 43.78"/>
            <path d="m1207.88 159.23-10.47-1.64 9.2-5.25 1.27 6.89z"/>
        </g>
        <g stroke="#000" class="edge">
            <path fill="none" d="M1523.31 111.94c-12.1 18.58-32.92 48.84-54.31 72.06-99.5 107.99-126.82 136.07-250 216-19.38 12.57-42.22 23.87-62.27 32.77"/>
            <path d="m1158 436.03-10.56.78 7.77-7.2 2.79 6.42z"/>
        </g>
        <g stroke="#000" class="edge">
            <path fill="none" d="M1517.28 111.65c-23.36 22.93-64.94 62.54-83.28 72.35-41.01 21.94-91.6 35.18-132.03 42.94"/>
            <path d="m1302.4 230.42-10.47-1.62 9.19-5.26 1.28 6.88z"/>
        </g>
        <g stroke="#000" class="edge">
            <path fill="none" d="M681.36 112.03c1 47.68 3.83 182.79 5.06 241.34"/>
            <path d="m689.93 353.62-3.29 10.07-3.71-9.92 7-.15z"/>
        </g>
        <g stroke="#000" class="edge">
            <path fill="none" d="M709.22 111.29c44.55 25.72 131.2 75.73 180.72 104.32"/>
            <path d="m891.82 212.65 6.91 8.03-10.41-1.97 3.5-6.06z"/>
        </g>
        <g stroke="#000" class="edge">
            <path fill="none" d="M674.59 112.15C660.66 149.42 627.54 238 610.9 282.51"/>
            <path d="m614.11 283.92-6.78 8.14.22-10.59 6.56 2.45z"/>
        </g>
        <g stroke="#000" class="edge">
            <path fill="none" d="M749.96 105.14c96.31 14.16 268.96 39.55 355.14 52.23"/>
            <path d="m1105.78 153.93 9.39 4.92-10.41 2.01 1.02-6.93z"/>
        </g>
        <g stroke="#000" class="edge">
            <path fill="none" d="M746.23 106.07c53.9 9.62 132.26 24.69 199.77 41.93 83.39 21.3 178.49 52.4 235.04 71.64"/>
            <path d="m1182.46 216.43 8.34 6.54-10.6.08 2.26-6.62z"/>
        </g>
        <g stroke="#000" class="edge">
            <path fill="none" d="M1317.33 111.6c-30.92 22.47-84.93 61.08-106.33 72.4-39.18 20.73-54.24 14.5-93 36-23.32 12.93-24.34 23.7-48 36-109.72 57.05-250.58 94.92-327.23 112.89"/>
            <path d="m743.38 372.35-10.53-1.16 8.95-5.66 1.58 6.82z"/>
        </g>
        <g stroke="#000" class="edge">
            <path fill="none" d="M1269.23 106.08c-47.8 8.63-111.85 22.43-166.23 41.92-50.6 18.13-105.32 47.49-140.08 67.49"/>
            <path d="m964.5 218.62-10.41 1.99 6.9-8.04 3.51 6.05z"/>
        </g>
        <g stroke="#000" class="edge">
            <path fill="none" d="M1299.84 110.36c-30.19 11.55-71.41 27.32-101.81 38.94"/>
            <path d="m1199.16 152.62-10.59.3 8.09-6.84 2.5 6.54z"/>
        </g>
        <g stroke="#000" class="edge">
            <path fill="none" d="M1339.88 112.38c-.84 30.57-5.51 95.3-28.88 143.62-37.94 78.44-121.02 142.36-168.95 174.5"/>
            <path d="m1143.8 433.54-10.28 2.59 6.42-8.43 3.86 5.84z"/>
        </g>
        <g stroke="#000" class="edge">
            <path fill="none" d="M1327.07 111.85c-19.1 24.87-54.95 71.58-77.04 100.36"/>
            <path d="m1252.78 214.37-8.87 5.81 3.32-10.07 5.55 4.26z"/>
        </g>
        <g stroke="#000" class="edge">
            <path fill="none" d="M862.17 110.12c-18.11 9.46-40.61 22.71-58.17 37.88-31.1 26.86-37.77 36.23-58 72-24.99 44.19-42.87 100.96-52.02 133.93"/>
            <path d="m697.31 355.02-5.99 8.73-.77-10.57 6.76 1.84z"/>
        </g>
        <g stroke="#000" class="edge">
            <path fill="none" d="M897.98 112.13c5.65 24.31 16.05 69.05 22.74 97.86"/>
            <path d="m924.15 209.28-1.14 10.53-5.68-8.95 6.82-1.58z"/>
        </g>
        <g stroke="#000" class="edge">
            <path fill="none" d="M940.41 107.35c47.91 12.76 122.23 32.54 170.15 45.29"/>
            <path d="m1111.6 149.3 8.77 5.95-10.57.81 1.8-6.76z"/>
        </g>
        <g stroke="#000" class="edge">
            <path fill="none" d="M643.4 393.78c-47.73 11.81-124.61 30.83-178.33 44.11"/>
            <path d="m465.87 441.3-10.55-.99 8.87-5.8 1.68 6.79z"/>
        </g>
        <g stroke="#000" class="edge">
            <path fill="none" d="M679.27 400.07c-4.6 10.33-10.46 23.81-15.27 35.93-12.56 31.62-19.2 38.66-26 72-4.15 20.34-5.33 43.81-5.5 61.53"/>
            <path d="m636 569.75-3.5 10-3.5-10h7z"/>
        </g>
        <g stroke="#000" class="edge">
            <path fill="none" d="M686.06 400.15c-.09 20.24 3.1 53.45 22.94 71.85 35.19 32.65 165.75 27.5 213 36 7.32 1.32 14.97 2.73 22.58 4.15"/>
            <path d="m945.36 508.74 9.18 5.29-10.48 1.59 1.3-6.88z"/>
        </g>
        <g stroke="red" stroke-width="2" class="edge">
            <path fill="none" d="m736.3 391.24 278.69 46.56"/>
            <path fill="red" d="m1015.67 434.36 9.29 5.1-10.44 1.81 1.15-6.91z"/>
        </g>
        <g class="node" transform="translate(4 616)">
            <ellipse cx="793" cy="-162" fill="none" stroke="#000" rx="78.79" ry="18"/>
            <text x="793" y="-158.3" font-family="Times,serif" font-size="14" text-anchor="middle">:core:database</text>
        </g>
        <g stroke="#000" class="edge">
            <path fill="none" d="M711.14 398.36c15.29 9.73 35.3 22.46 52.15 33.19"/>
            <path d="m765.21 428.62 6.56 8.32-10.32-2.41 3.76-5.91z"/>
        </g>
        <g class="node" transform="translate(4 616)">
            <ellipse cx="795" cy="-90" fill="none" stroke="#000" rx="81.49" ry="18"/>
            <text x="795" y="-86.3" font-family="Times,serif" font-size="14" text-anchor="middle">:core:datastore</text>
        </g>
        <g stroke="#000" class="edge">
            <path fill="none" d="M678.75 399.92c-8.01 19.1-17.04 50.36-2.75 72.08 12.25 18.61 32.56 30.72 53.18 38.58"/>
            <path d="m730.37 507.29 8.28 6.61-10.59-.01 2.31-6.6z"/>
        </g>
        <g stroke="#000" class="edge">
            <path fill="none" d="M952.36 537.19C892.97 547.6 798.51 564.41 717 580c-6.14 1.17-12.52 2.42-18.91 3.68"/>
            <path d="m698.58 587.15-10.49-1.47 9.13-5.39 1.36 6.86z"/>
        </g>
        <g stroke="#000" class="edge">
            <path fill="none" d="M1051.27 541.17c31.94 11.23 76.68 26.97 110.53 38.87"/>
            <path d="m1163.21 576.83 8.27 6.62-10.6-.02 2.33-6.6z"/>
        </g>
        <g stroke="#000" class="edge">
            <path fill="none" d="M312.34 327.85c18.14 24.76 52.13 71.18 73.23 99.99"/>
            <path d="m388.59 426.04 3.09 10.14-8.73-6 5.64-4.14z"/>
        </g>
        <g stroke="#000" class="edge">
            <path fill="none" d="M296.54 328.1C291.12 359.95 284.36 429.03 317 472c56.41 74.26 163.63 104.47 237.41 116.72"/>
            <path d="m555.26 585.31 9.33 5.02-10.42 1.89 1.09-6.91z"/>
        </g>
        <g stroke="#000" class="edge">
            <path fill="none" d="M358.36 321.56c73 13.2 197.27 35.68 270.28 48.88"/>
            <path d="m629.37 367.02 9.22 5.22-10.47 1.67 1.25-6.89z"/>
        </g>
        <g stroke="#000" class="edge">
            <path fill="none" d="M330.67 326.54C394.94 358.47 549.09 431.84 686 472c87.93 25.79 121.18-5.25 203 36 20.77 10.47 17.28 25.43 38 36 65.56 33.45 149.31 45.95 208.65 50.54"/>
            <path d="m1135.97 591.05 9.73 4.21-10.23 2.78.5-6.99z"/>
        </g>
        <g stroke="#000" class="edge">
            <path fill="none" d="M602.91 328.03c5.34 47.78 20.51 183.35 27.04 241.7"/>
            <path d="m633.43 569.37-2.37 10.32-4.59-9.55 6.96-.77z"/>
        </g>
        <g stroke="red" stroke-width="2" class="edge">
            <path fill="none" d="M620.51 326.88c11.47 9.34 26.15 21.28 38.79 31.57"/>
            <path fill="red" d="m661.72 355.91 5.54 9.03-9.96-3.6 4.42-5.43z"/>
        </g>
        <g stroke="#000" class="edge">
            <path fill="none" d="M656.45 310.97C728.28 312.76 856.1 322.25 956 364c24.6 10.28 25.43 21.8 48 36 18.35 11.54 39.5 22.83 57.76 32.01"/>
            <path d="m1063.35 428.88 7.4 7.59-10.52-1.32 3.12-6.27z"/>
        </g>
        <g stroke="#000" class="edge">
            <path fill="none" d="M640 322.89c31.06 9.88 75.41 24.89 113 41.11 47.82 20.63 158.98 90.42 208 108 4.48 1.61 115.53 25.02 187.8 40.18"/>
            <path d="m1149.66 508.79 9.07 5.48-10.51 1.37 1.44-6.85z"/>
        </g>
        <g stroke="#000" class="edge">
            <path fill="none" d="M1130.21 180.74c-17.89 9.78-41.49 23.87-60.21 39.26-16.77 13.78-13.46 26.55-33 36-200.58 96.98-301.98-66.11-500 36-57.98 29.9-100.15 97.3-120.1 134.72"/>
            <path d="m419.8 428.72-7.71 7.26 1.5-10.49 6.21 3.23z"/>
        </g>
        <g stroke="#000" class="edge">
            <path fill="none" d="M1122.07 177.63c-36.14 11-93.23 28.38-136.33 41.49"/>
            <path d="m986.53 222.54-10.59-.43 8.55-6.26 2.04 6.69z"/>
        </g>
        <g stroke="#000" class="edge">
            <path fill="none" d="M1201.74 169.88c35.34 4.81 82.95 17.4 109.26 50.12 90.33 112.32 100.68 208.85 14 324-13.87 18.43-35.69 30.66-56.62 38.67"/>
            <path d="m1269.46 586-10.59.06 8.24-6.66 2.35 6.6z"/>
        </g>
        <g stroke="red" stroke-width="2" class="edge">
            <path fill="none" d="M1173.79 182.88c9.54 9.03 21.67 20.5 32.3 30.55"/>
            <path fill="red" d="m1208.64 211.03 4.86 9.42-9.67-4.33 4.81-5.09z"/>
        </g>
        <g stroke="#000" class="edge">
            <path fill="none" d="M195.92 256.23c.7 19.11 4.31 50.1 19.08 71.77 34.69 50.87 97.61 86.26 141.27 106.09"/>
            <path d="m357.83 430.95 7.72 7.25-10.56-.85 2.84-6.4z"/>
        </g>
        <g stroke="#000" class="edge">
            <path fill="none" d="M241.64 249.82c38.65 9.64 95.27 24.85 143.36 42.18 37.06 13.35 43.69 23.35 81 36 54.19 18.37 117.91 32.94 162.97 42.11"/>
            <path d="m629.75 366.7 9.11 5.4-10.49 1.46 1.38-6.86z"/>
        </g>
        <g stroke="#000" class="edge">
            <path fill="none" d="M246.88 247.79c75.54 13.06 216.92 37.5 296.28 51.21"/>
            <path d="m544.21 295.63 9.26 5.15-10.45 1.75 1.19-6.9z"/>
        </g>
        <g class="node" transform="translate(4 616)">
            <ellipse cx="115" cy="-306" fill="none" stroke="#000" rx="49.29" ry="18"/>
            <text x="115" y="-302.3" font-family="Times,serif" font-size="14" text-anchor="middle">:core:git</text>
        </g>
        <g stroke="#000" class="edge">
            <path fill="none" d="M178.14 255.24c-10.08 9.16-22.84 20.76-33.93 30.84"/>
            <path d="m146.25 288.96-9.75 4.13 5.04-9.31 4.71 5.18z"/>
        </g>
        <g stroke="#000" class="edge">
            <path fill="none" d="M999.73 465.23C890.88 476.34 734.12 494.33 709 508c-26.74 14.55-48.21 42.56-61.42 63.28"/>
            <path d="m650.48 573.25-8.22 6.69 2.25-10.36 5.97 3.67z"/>
        </g>
        <g stroke="#000" class="edge">
            <path fill="none" d="M1185.6 468.6c42.52 9.07 88.69 22.43 101.4 39.4 9.59 12.81 7.44 21.84 0 36-7.43 14.14-20.54 25.24-33.85 33.55"/>
            <path d="m1254.84 580.62-10.41 1.99 6.89-8.04 3.52 6.05z"/>
        </g>
        <g stroke="red" stroke-width="2" class="edge">
            <path fill="none" d="M1130.91 471.77c14.07 9.46 31.8 21.4 46.91 31.57"/>
            <path fill="red" d="m1180.02 500.6 6.34 8.49-10.25-2.68 3.91-5.81z"/>
        </g>
        <g stroke="#000" class="edge">
            <path fill="none" d="M1222.11 255.93c-10.87 19.42-30.86 51.24-55.11 72.07-13.34 11.46-265.29 138.51-282 144-93.71 30.8-142.88-26.74-219 36-18.32 15.1-26.48 41.4-30.1 61.51"/>
            <path d="m639.32 570.29-4.97 9.36-1.95-10.42 6.92 1.06z"/>
        </g>
        <g stroke="#000" class="edge">
            <path fill="none" d="M1214.84 255.6c-23.08 23.3-64.77 63.81-83.84 72.4-33.84 15.24-264.87 37.28-379.61 47.46"/>
            <path d="m751.59 378.96-10.27-2.61 9.66-4.36.61 6.97z"/>
        </g>
        <g stroke="#000" class="edge">
            <path fill="none" d="M1243.05 255.78c32.96 48.18 118.49 189.73 60.95 288.22-9.49 16.24-25.99 27.9-42.55 36.06"/>
            <path d="m1262.84 583.28-10.55.97 7.64-7.34 2.91 6.37z"/>
        </g>
        <g stroke="red" stroke-width="2" class="edge">
            <path fill="none" d="M1167.42 246.06c-121.43 13.5-384.91 42.77-504.8 56.09"/>
            <path fill="red" d="m662.84 305.65-10.33-2.37 9.56-4.59.77 6.96z"/>
        </g>
        <g stroke="#000" class="edge">
            <path fill="none" d="M1228.55 256.16c-3.13 18.51-9.63 48.46-21.55 71.84-19.9 39.03-53.38 77.2-76.3 100.89"/>
            <path d="m1133.17 431.37-9.51 4.68 4.51-9.58 5 4.9z"/>
        </g>
        <g stroke="#000" class="edge">
            <path fill="none" d="M1237.03 255.95c12.98 39.23 40.35 138.83 13.97 216.05-3.5 10.24-9.87 20.03-16.56 28.35"/>
            <path d="m1236.92 502.85-9.18 5.3 3.87-9.87 5.31 4.57z"/>
        </g>
        <g stroke="red" stroke-width="2" class="edge">
            <path fill="none" d="M1153.34 535.97c-18.56 2.78-39.31 5.72-58.34 8.03-167.53 20.35-211.07 11.23-378 36-6.63.98-13.52 2.15-20.38 3.4"/>
            <path fill="red" d="m697.1 586.87-10.47-1.59 9.18-5.29 1.29 6.88z"/>
        </g>
        <g stroke="#000" class="edge">
            <path fill="none" d="M1210 544.3v25.59"/>
            <path d="m1213.5 569.9-3.5 10-3.5-10h7z"/>
        </g>
        <g stroke="#000" class="edge">
            <path fill="none" d="M861.46 464.45c81.3 12.23 213.01 33.2 233.54 43.55 20.77 10.48 19.92 21.36 38 36 13.66 11.06 29.54 22.24 43.32 31.47"/>
            <path d="m1178.61 572.79 6.41 8.44-10.27-2.6 3.86-5.84z"/>
        </g>
        <g stroke="#000" class="edge">
            <path fill="none" d="M762.98 542.19c-24.97 10.53-58.39 24.62-85.1 35.88"/>
            <path d="m678.95 581.42-10.57.66 7.85-7.11 2.72 6.45z"/>
        </g>
        <g stroke="#000" class="edge">
            <path fill="none" d="M859.8 537.98c11.36 2.02 23.14 4.1 34.2 6.02 87.14 15.1 187.93 31.89 251.8 42.44"/>
            <path d="m1146.43 583 9.3 5.08-10.44 1.83 1.14-6.91z"/>
        </g>
        <g class="node" transform="translate(4 616)">
            <ellipse cx="831" cy="-18" fill="none" stroke="#000" rx="108.58" ry="18"/>
            <text x="831" y="-14.3" font-family="Times,serif" font-size="14" text-anchor="middle">:core:datastore-proto</text>
        </g>
        <g stroke="#000" class="edge">
            <path fill="none" d="M807.71 543.95c4.14 8.04 9.18 17.85 13.8 26.82"/>
            <path d="m824.65 569.23 1.47 10.49-7.69-7.29 6.22-3.2z"/>
        </g>
    </g>
</svg>
