<svg xmlns="http://www.w3.org/2000/svg" width="1036" height="404pt" viewBox="0 0 776.87 404">
    <g class="graph">
        <path fill="#fff" stroke="transparent" d="M0 404V0h776.87v404H0z"/>
        <g class="node" transform="translate(4 400)">
            <ellipse cx="453.99" cy="-378" fill="none" stroke="#000" rx="60.39" ry="18"/>
            <text x="453.99" y="-374.3" font-family="Times,serif" font-size="14" text-anchor="middle">:sync:work</text>
        </g>
        <g class="node" transform="translate(4 400)">
            <ellipse cx="77.99" cy="-162" fill="none" stroke="#000" rx="77.99" ry="18"/>
            <text x="77.99" y="-158.3" font-family="Times,serif" font-size="14" text-anchor="middle">:core:analytics</text>
        </g>
        <g stroke="#000" class="edge">
            <path fill="none" d="M431.25 38.22c-66.1 37.62-237.28 135.05-312.68 177.96"/>
            <path d="m120.29 219.23-10.43 1.91 6.96-7.99 3.47 6.08z"/>
        </g>
        <g class="node" transform="translate(4 400)">
            <ellipse cx="402.99" cy="-234" fill="none" stroke="#000" rx="57.39" ry="18"/>
            <text x="402.99" y="-230.3" font-family="Times,serif" font-size="14" text-anchor="middle">:core:data</text>
        </g>
        <g stroke="#000" class="edge">
            <path fill="none" d="M451.84 40.13c-8.77 24.41-24.94 69.44-35.28 98.23"/>
            <path d="m419.84 139.58-6.67 8.23.08-10.59 6.59 2.36z"/>
        </g>
        <g class="node" transform="translate(4 400)">
            <ellipse cx="658.99" cy="-306" fill="none" stroke="#000" rx="49.29" ry="18"/>
            <text x="658.99" y="-302.3" font-family="Times,serif" font-size="14" text-anchor="middle">:core:git</text>
        </g>
        <g stroke="#000" class="edge">
            <path fill="none" d="M496.07 36c34.61 11.82 85.7 29.27 122.23 41.74"/>
            <path d="m619.86 74.57 8.33 6.55-10.59.08 2.26-6.63z"/>
        </g>
        <g class="node" transform="translate(4 400)">
            <ellipse cx="535.99" cy="-306" fill="none" stroke="#000" rx="55.49" ry="18"/>
            <text x="535.99" y="-302.3" font-family="Times,serif" font-size="14" text-anchor="middle">:core:rule</text>
        </g>
        <g stroke="red" stroke-width="2" class="edge">
            <path fill="none" d="M477.01 39.24c10.77 9.18 24.4 20.82 36.23 30.92"/>
            <path fill="red" d="m515.74 67.7 5.34 9.15-9.88-3.83 4.54-5.32z"/>
        </g>
        <g stroke="#000" class="edge">
            <path fill="none" d="M361.12 176.88c-55.97 12.06-150.96 32.52-214.36 46.17"/>
            <path d="m147.37 226.5-10.51-1.32 9.04-5.53 1.47 6.85z"/>
        </g>
        <g class="node" transform="translate(4 400)">
            <ellipse cx="619.99" cy="-18" fill="none" stroke="#000" rx="75.29" ry="18"/>
            <text x="619.99" y="-14.3" font-family="Times,serif" font-size="14" text-anchor="middle">:core:common</text>
        </g>
        <g stroke="#000" class="edge">
            <path fill="none" d="M462.11 170.82c76.56 6.26 210.05 20.93 248.88 49.18 41.15 29.93 66.1 65.57 38 108-12.86 19.43-34.44 31.76-56.07 39.57"/>
            <path d="m693.93 370.92-10.59-.17 8.39-6.47 2.2 6.64z"/>
        </g>
        <g class="node" transform="translate(4 400)">
            <ellipse cx="252.99" cy="-162" fill="none" stroke="#000" rx="78.79" ry="18"/>
            <text x="252.99" y="-158.3" font-family="Times,serif" font-size="14" text-anchor="middle">:core:database</text>
        </g>
        <g stroke="#000" class="edge">
            <path fill="none" d="M376.28 181.33c-22.27 10.4-52.66 24.58-77.18 36.02"/>
            <path d="m300.55 220.53-10.54 1.06 7.58-7.4 2.96 6.34z"/>
        </g>
        <g class="node" transform="translate(4 400)">
            <ellipse cx="256.99" cy="-90" fill="none" stroke="#000" rx="81.49" ry="18"/>
            <text x="256.99" y="-86.3" font-family="Times,serif" font-size="14" text-anchor="middle">:core:datastore</text>
        </g>
        <g stroke="#000" class="edge">
            <path fill="none" d="M397.97 183.91c-10.78 19.11-30.24 50.37-52.98 72.09-12.9 12.33-29.11 23.36-43.83 32.11"/>
            <path d="m302.64 291.3-10.41 1.97 6.91-8.03 3.5 6.06z"/>
        </g>
        <g class="node" transform="translate(4 400)">
            <ellipse cx="468.99" cy="-90" fill="none" stroke="#000" rx="74.99" ry="18"/>
            <text x="468.99" y="-86.3" font-family="Times,serif" font-size="14" text-anchor="middle">:core:network</text>
        </g>
        <g stroke="#000" class="edge">
            <path fill="none" d="M406.65 184c.28 18.64 2.75 48.94 14.34 72 5.56 11.04 14.25 21.25 22.95 29.7"/>
            <path d="m446.5 283.31 5 9.34-9.73-4.19 4.73-5.15z"/>
        </g>
        <g class="node" transform="translate(4 400)">
            <ellipse cx="561.99" cy="-162" fill="none" stroke="#000" rx="135.68" ry="18"/>
            <text x="561.99" y="-158.3" font-family="Times,serif" font-size="14" text-anchor="middle">:core:component-controller</text>
        </g>
        <g stroke="red" stroke-width="2" class="edge">
            <path fill="none" d="M438.79 181c23.08 10.16 54.68 24.07 80.61 35.49"/>
            <path fill="red" d="m520.93 213.34 7.74 7.23-10.56-.83 2.82-6.4z"/>
        </g>
        <g stroke="red" stroke-width="2" class="edge">
            <path fill="none" d="M512.11 109.67c-19.73 10.39-46.39 24.42-67.93 35.76"/>
            <path fill="red" d="m445.77 148.54-10.47 1.56 7.21-7.75 3.26 6.19z"/>
        </g>
        <g stroke="#000" class="edge">
            <path fill="none" d="M582.67 105.49c28.89 8.44 66.99 22.26 96.32 42.51 61.92 42.74 76.49 69.81 89 144 2.66 15.78 9.16 22.88 0 36-15.61 22.38-41.77 35.33-67.55 42.82"/>
            <path d="m701.16 374.25-10.56-.82 8.77-5.94 1.79 6.76z"/>
        </g>
        <g stroke="#000" class="edge">
            <path fill="none" d="M543.13 112.13c4.43 24.2 12.57 68.66 17.85 97.48"/>
            <path d="m564.49 209.34-1.64 10.47-5.25-9.21 6.89-1.26z"/>
        </g>
        <g class="node" transform="translate(4 400)">
            <ellipse cx="667.99" cy="-90" fill="none" stroke="#000" rx="67.69" ry="18"/>
            <text x="667.99" y="-86.3" font-family="Times,serif" font-size="14" text-anchor="middle">:core:ifw-api</text>
        </g>
        <g stroke="#000" class="edge">
            <path fill="none" d="M573.9 108.33C615.01 126.56 682.36 163.6 710.99 220c10.86 21.39-2.38 46.48-16.3 64.56"/>
            <path d="m697.38 286.81-9.04 5.53 3.62-9.96 5.42 4.43z"/>
        </g>
        <g class="node" transform="translate(4 400)">
            <ellipse cx="406.99" cy="-18" fill="none" stroke="#000" rx="64.99" ry="18"/>
            <text x="406.99" y="-14.3" font-family="Times,serif" font-size="14" text-anchor="middle">:core:model</text>
        </g>
        <g stroke="#000" class="edge">
            <path fill="none" d="M216.41 253.5c-17.23 8.41-35.58 20.89-45.42 38.5-7.8 13.97-10.04 23.54 0 36 47.39 58.77 92.32 19.55 166 36 5.23 1.17 10.66 2.39 16.1 3.63"/>
            <path d="m353.87 364.22 8.98 5.63-10.53 1.19 1.55-6.82z"/>
        </g>
        <g stroke="#000" class="edge">
            <path fill="none" d="M320.12 322.4c64.97 12.53 169.1 32.61 237 45.7"/>
            <path d="m558.12 364.73 9.16 5.33-10.48 1.55 1.32-6.88z"/>
        </g>
        <g stroke="#000" class="edge">
            <path fill="none" d="M294.28 326.54c22.4 10.45 52.09 24.3 75.91 35.42"/>
            <path d="m371.75 358.83 7.59 7.4-10.55-1.06 2.96-6.34z"/>
        </g>
        <g class="node" transform="translate(4 400)">
            <ellipse cx="214.99" cy="-18" fill="none" stroke="#000" rx="108.58" ry="18"/>
            <text x="214.99" y="-14.3" font-family="Times,serif" font-size="14" text-anchor="middle">:core:datastore-proto</text>
        </g>
        <g stroke="#000" class="edge">
            <path fill="none" d="M250.83 327.95c-4.88 8.13-10.84 18.05-16.27 27.11"/>
            <path d="m237.5 356.95-8.14 6.77 2.14-10.37 6 3.6z"/>
        </g>
        <g stroke="#000" class="edge">
            <path fill="none" d="M505.76 326.19c22.28 10.33 51.97 24.09 76.02 35.24"/>
            <path d="m583.43 358.34 7.6 7.38-10.54-1.03 2.94-6.35z"/>
        </g>
        <g stroke="#000" class="edge">
            <path fill="none" d="M457.98 327.95 432.6 356.6"/>
            <path d="m435.11 359.05-9.25 5.16 4.01-9.81 5.24 4.65z"/>
        </g>
        <g stroke="#000" class="edge">
            <path fill="none" d="M570.53 256.08c5.07 18.17 13.96 47.6 24.46 71.92 3.87 8.95 8.76 18.4 13.41 26.79"/>
            <path d="m611.59 353.32 1.9 10.42-7.99-6.96 6.09-3.46z"/>
        </g>
        <g stroke="#000" class="edge">
            <path fill="none" d="M488.13 252.83c-41.59 9.14-86.73 22.51-99.14 39.17-13.72 18.43-4.97 44.38 5.28 63.51"/>
            <path d="m397.36 353.87 1.96 10.41-8.02-6.91 6.06-3.5z"/>
        </g>
        <g stroke="red" stroke-width="2" class="edge">
            <path fill="none" d="M591.38 255.77c14.34 9.46 32.41 21.4 47.81 31.57"/>
            <path fill="red" d="m641.49 284.66 6.41 8.43-10.27-2.59 3.86-5.84z"/>
        </g>
        <g stroke="red" stroke-width="2" class="edge">
            <path fill="none" d="M660.37 327.95c-5.72 8.34-12.73 18.56-19.06 27.8"/>
            <path fill="red" d="m644.05 357.94-8.54 6.27 2.76-10.23 5.78 3.96z"/>
        </g>
        <g stroke="#000" class="edge">
            <path fill="none" d="M626.23 323.27c-44.63 11.97-112.56 30.19-160.14 42.95"/>
            <path d="m466.83 369.65-10.57-.79 8.76-5.97 1.81 6.76z"/>
        </g>
    </g>
</svg>
