<svg xmlns="http://www.w3.org/2000/svg" width="1127pt" height="548pt" viewBox="0 0 1127.23 548">
    <g class="graph">
        <path fill="#fff" stroke="transparent" d="M0 548V0h1127.23v548H0z"/>
        <g class="node" transform="translate(4 544)">
            <ellipse cx="670.74" cy="-522" fill="none" stroke="#000" rx="94.78" ry="18"/>
            <text x="670.74" y="-518.3" font-family="Times,serif" font-size="14" text-anchor="middle">:feature:ruledetail</text>
        </g>
        <g class="node" transform="translate(4 544)">
            <ellipse cx="373.74" cy="-450" fill="none" stroke="#000" rx="45.49" ry="18"/>
            <text x="373.74" y="-446.3" font-family="Times,serif" font-size="14" text-anchor="middle">:core:ui</text>
        </g>
        <g stroke="red" stroke-width="2" class="edge">
            <path fill="none" d="M617.83 36.41c-55.59 13.1-139.26 32.82-191.72 45.19"/>
            <path fill="red" d="m426.59 85.08-10.53-1.11 8.93-5.7 1.6 6.81z"/>
        </g>
        <g class="node" transform="translate(4 544)">
            <ellipse cx="100.74" cy="-378" fill="none" stroke="#000" rx="100.98" ry="18"/>
            <text x="100.74" y="-374.3" font-family="Times,serif" font-size="14" text-anchor="middle">:core:designsystem</text>
        </g>
        <g stroke="#000" class="edge">
            <path fill="none" d="M589.89 30.15c-71.82 7.39-177 21.38-266.15 45.85-63.79 17.51-134.06 48.25-177.37 68.62"/>
            <path d="m147.82 147.81-10.54 1.12 7.54-7.45 3 6.33z"/>
        </g>
        <g class="node" transform="translate(4 544)">
            <ellipse cx="933.74" cy="-162" fill="none" stroke="#000" rx="135.68" ry="18"/>
            <text x="933.74" y="-158.3" font-family="Times,serif" font-size="14" text-anchor="middle">:core:component-controller</text>
        </g>
        <g stroke="#000" class="edge">
            <path fill="none" d="M745.64 33.97c112.2 19.38 318.1 64.08 318.1 131.03v74c0 53.09-49.89 95.59-86.88 119.81"/>
            <path d="m978.56 361.87-10.32 2.41 6.57-8.32 3.75 5.91z"/>
        </g>
        <g class="node" transform="translate(4 544)">
            <ellipse cx="684.74" cy="-234" fill="none" stroke="#000" rx="57.39" ry="18"/>
            <text x="684.74" y="-230.3" font-family="Times,serif" font-size="14" text-anchor="middle">:core:data</text>
        </g>
        <g stroke="#000" class="edge">
            <path fill="none" d="M675.57 40.03c2.34 47.68 8.95 182.79 11.82 241.34"/>
            <path d="m690.9 281.53-3.01 10.16-3.98-9.81 6.99-.35z"/>
        </g>
        <g class="node" transform="translate(4 544)">
            <ellipse cx="769.74" cy="-378" fill="none" stroke="#000" rx="70.69" ry="18"/>
            <text x="769.74" y="-374.3" font-family="Times,serif" font-size="14" text-anchor="middle">:core:domain</text>
        </g>
        <g stroke="#000" class="edge">
            <path fill="none" d="M686.68 40.13c17.25 24.73 49.24 70.63 69.27 99.36"/>
            <path d="m758.91 137.61 2.85 10.2-8.59-6.2 5.74-4z"/>
        </g>
        <g stroke="#000" class="edge">
            <path fill="none" d="M340.64 104.51c-43.92 11.26-117.82 30.21-171.22 43.91"/>
            <path d="m170.26 151.81-10.56-.9 8.82-5.88 1.74 6.78z"/>
        </g>
        <g stroke="red" stroke-width="2" class="edge">
            <path fill="none" d="M418.63 102.23c68.29 12.07 206.18 36.44 288.6 51.01"/>
            <path fill="red" d="m708 149.83 9.24 5.18-10.46 1.71 1.22-6.89z"/>
        </g>
        <g class="node" transform="translate(4 544)">
            <ellipse cx="373.74" cy="-162" fill="none" stroke="#000" rx="77.99" ry="18"/>
            <text x="373.74" y="-158.3" font-family="Times,serif" font-size="14" text-anchor="middle">:core:analytics</text>
        </g>
        <g stroke="#000" class="edge">
            <path fill="none" d="M377.74 112.03v241.34"/>
            <path d="m381.24 353.69-3.5 10-3.5-10h7z"/>
        </g>
        <g class="node" transform="translate(4 544)">
            <ellipse cx="386.74" cy="-18" fill="none" stroke="#000" rx="64.99" ry="18"/>
            <text x="386.74" y="-14.3" font-family="Times,serif" font-size="14" text-anchor="middle">:core:model</text>
        </g>
        <g stroke="#000" class="edge">
            <path fill="none" d="M348.25 107.89C306.12 128.53 233.74 173.27 233.74 237v146c0 45.81 18.63 57.61 52 89 16.11 15.15 37.37 26.96 56.55 35.56"/>
            <path d="m343.7 504.35 7.81 7.17-10.57-.74 2.76-6.43z"/>
        </g>
        <g stroke="#000" class="edge">
            <path fill="none" d="M820.99 391.24c-150.86 11.15-396.11 31.2-411.25 44.76-16.96 15.19-20.85 41.48-21 61.56"/>
            <path d="m392.24 497.61-3.28 10.07-3.72-9.92 7-.15z"/>
        </g>
        <g class="node" transform="translate(4 544)">
            <ellipse cx="868.74" cy="-18" fill="none" stroke="#000" rx="75.29" ry="18"/>
            <text x="868.74" y="-14.3" font-family="Times,serif" font-size="14" text-anchor="middle">:core:common</text>
        </g>
        <g stroke="#000" class="edge">
            <path fill="none" d="M945.75 400.11c7.52 18.73 15.96 49.12 3.99 71.89-7.18 13.66-19.64 24.48-32.48 32.69"/>
            <path d="m918.76 507.87-10.38 2.09 6.81-8.11 3.57 6.02z"/>
        </g>
        <g class="node" transform="translate(4 544)">
            <ellipse cx="868.74" cy="-90" fill="none" stroke="#000" rx="67.69" ry="18"/>
            <text x="868.74" y="-86.3" font-family="Times,serif" font-size="14" text-anchor="middle">:core:ifw-api</text>
        </g>
        <g stroke="red" stroke-width="2" class="edge">
            <path fill="none" d="M922.01 399.95c-7.99 8.59-17.83 19.19-26.61 28.65"/>
            <path fill="red" d="m897.7 431.26-9.37 4.95 4.24-9.71 5.13 4.76z"/>
        </g>
        <g stroke="red" stroke-width="2" class="edge">
            <path fill="none" d="M729.86 322.56c38.86 10.92 97.79 27.49 142.99 40.2"/>
            <path fill="red" d="m873.89 359.41 8.68 6.08-10.58.66 1.9-6.74z"/>
        </g>
        <g stroke="#000" class="edge">
            <path fill="none" d="M643.52 321.18c-53.3 12-142.22 32.01-202.38 45.55"/>
            <path d="m441.9 370.15-10.53-1.22 8.99-5.61 1.54 6.83z"/>
        </g>
        <g stroke="#000" class="edge">
            <path fill="none" d="M697.24 328.03c16.11 31.14 53.54 98.28 98.5 143.97 11.77 11.96 26.58 22.9 40.07 31.7"/>
            <path d="m837.86 500.85 6.57 8.31-10.32-2.4 3.75-5.91z"/>
        </g>
        <g class="node" transform="translate(4 544)">
            <ellipse cx="548.74" cy="-162" fill="none" stroke="#000" rx="78.79" ry="18"/>
            <text x="548.74" y="-158.3" font-family="Times,serif" font-size="14" text-anchor="middle">:core:database</text>
        </g>
        <g stroke="#000" class="edge">
            <path fill="none" d="M660.23 325.67c-19.76 10.18-46.34 23.86-68.12 35.07"/>
            <path d="m593.6 363.91-10.5 1.46 7.29-7.69 3.21 6.23z"/>
        </g>
        <g class="node" transform="translate(4 544)">
            <ellipse cx="663.74" cy="-90" fill="none" stroke="#000" rx="81.49" ry="18"/>
            <text x="663.74" y="-86.3" font-family="Times,serif" font-size="14" text-anchor="middle">:core:datastore</text>
        </g>
        <g stroke="#000" class="edge">
            <path fill="none" d="M686.21 328.13c-3.58 24.2-10.16 68.66-14.42 97.48"/>
            <path d="m675.21 426.43-4.93 9.38-2-10.4 6.93 1.02z"/>
        </g>
        <g class="node" transform="translate(4 544)">
            <ellipse cx="489.74" cy="-90" fill="none" stroke="#000" rx="74.99" ry="18"/>
            <text x="489.74" y="-86.3" font-family="Times,serif" font-size="14" text-anchor="middle">:core:network</text>
        </g>
        <g stroke="#000" class="edge">
            <path fill="none" d="M683.67 328.14c-6.73 19.91-20.45 52.5-42.93 71.86-22.42 19.32-52.43 31.8-79.49 39.76"/>
            <path d="m562.01 443.18-10.58-.69 8.7-6.05 1.88 6.74z"/>
        </g>
        <g stroke="#000" class="edge">
            <path fill="none" d="M786.61 183.79c28.67 37.41 97.93 127.79 131.81 172"/>
            <path d="m921.4 353.92 3.31 10.07-8.87-5.81 5.56-4.26z"/>
        </g>
        <g stroke="#000" class="edge">
            <path fill="none" d="M763.66 183.85c-14.76 24.66-42.37 70.78-59.64 99.62"/>
            <path d="m706.95 285.39-8.14 6.79 2.14-10.38 6 3.59z"/>
        </g>
        <g stroke="#000" class="edge">
            <path fill="none" d="M706.56 171.89C569.77 183.7 271.74 219.67 271.74 309v74c0 52.78 48.89 96.24 84 120.64"/>
            <path d="m357.99 500.94 6.34 8.49-10.25-2.68 3.91-5.81z"/>
        </g>
        <g stroke="#000" class="edge">
            <path fill="none" d="M836.55 174.37c47.14 7.22 112.39 20.87 165.19 45.63 75.17 35.25 105.7 62.05 119 144 8.73 53.78-12.5 78.03-58 108-34.12 22.47-77.69 35.5-114.5 43.02"/>
            <path d="M948.53 518.53 938.05 517l9.15-5.34 1.33 6.87z"/>
        </g>
        <g stroke="#000" class="edge">
            <path fill="none" d="M770.41 184c-7.03 40.63-19.47 145.24 22.33 216 8.34 14.12 22.1 25.22 35.87 33.53"/>
            <path d="m830.61 430.64 6.99 7.95-10.43-1.85 3.44-6.1z"/>
        </g>
        <g class="node" transform="translate(4 544)">
            <ellipse cx="933.74" cy="-306" fill="none" stroke="#000" rx="55.49" ry="18"/>
            <text x="933.74" y="-302.3" font-family="Times,serif" font-size="14" text-anchor="middle">:core:rule</text>
        </g>
        <g stroke="red" stroke-width="2" class="edge">
            <path fill="none" d="M808.52 181.85c25.65 10.94 60.66 25.89 87.77 37.46"/>
            <path fill="red" d="m897.69 216.1 7.83 7.15-10.57-.71 2.74-6.44z"/>
        </g>
        <g stroke="#000" class="edge">
            <path fill="none" d="M815.13 463.56c-18.34 2.71-38.72 5.71-57.39 8.44-105.1 15.36-227.17 32.93-300.68 43.49"/>
            <path d="m457.42 518.98-10.4-2.05 9.4-4.88 1 6.93z"/>
        </g>
        <g stroke="red" stroke-width="2" class="edge">
            <path fill="none" d="M872.74 472.3v25.59"/>
            <path fill="red" d="m876.24 497.9-3.5 10-3.5-10h7z"/>
        </g>
        <g stroke="#000" class="edge">
            <path fill="none" d="M937.74 256.13v97.48"/>
            <path d="m941.24 353.81-3.5 10-3.5-10h7z"/>
        </g>
        <g stroke="red" stroke-width="2" class="edge">
            <path fill="none" d="M897.46 250.32c-42.96 12.08-111.1 31.24-157.76 44.35"/>
            <path fill="red" d="m740.37 298.12-10.58-.66 8.68-6.08 1.9 6.74z"/>
        </g>
        <g stroke="#000" class="edge">
            <path fill="none" d="M982.64 248.51c27.4 7.76 61.57 21.2 85.1 43.49 36.53 34.61 59.68 64.72 34 108-35.82 60.35-112.17 93.44-166.86 110.16"/>
            <path d="m935.85 513.52-10.58-.53 8.6-6.18 1.98 6.71z"/>
        </g>
        <g stroke="#000" class="edge">
            <path fill="none" d="M968.29 253.26c54.54 27.37 158.95 89.61 114.45 146.74-17.18 22.06-85.29 36.38-139.35 44.5"/>
            <path d="m943.88 447.97-10.4-2.02 9.39-4.91 1.01 6.93z"/>
        </g>
        <g stroke="#000" class="edge">
            <path fill="none" d="M500.27 395.45C451.2 407.61 384.36 425.76 376.74 436c-13.35 17.96-7.4 43.64.44 62.8"/>
            <path d="m380.47 497.6.89 10.56-7.28-7.7 6.39-2.86z"/>
        </g>
        <g stroke="#000" class="edge">
            <path fill="none" d="M616.29 468c-48.01 12.14-119.49 30.2-169.06 42.73"/>
            <path d="m447.86 514.17-10.55-.94 8.84-5.84 1.71 6.78z"/>
        </g>
        <g stroke="#000" class="edge">
            <path fill="none" d="M710.22 469.5c32.34 11.05 76.99 26.3 111.31 38.01"/>
            <path d="m823.04 504.33 8.33 6.54-10.59.08 2.26-6.62z"/>
        </g>
        <g class="node" transform="translate(4 544)">
            <ellipse cx="663.74" cy="-18" fill="none" stroke="#000" rx="108.58" ry="18"/>
            <text x="663.74" y="-14.3" font-family="Times,serif" font-size="14" text-anchor="middle">:core:datastore-proto</text>
        </g>
        <g stroke="#000" class="edge">
            <path fill="none" d="M667.74 472.3v25.59"/>
            <path d="m671.24 497.9-3.5 10-3.5-10h7z"/>
        </g>
        <g stroke="#000" class="edge">
            <path fill="none" d="M469.85 471.24c-14.01 9.52-31.89 21.67-47.1 32.01"/>
            <path d="m424.38 506.37-10.23 2.72 6.3-8.51 3.93 5.79z"/>
        </g>
        <g stroke="#000" class="edge">
            <path fill="none" d="M548.37 466.29c9.77 1.95 19.87 3.93 29.37 5.71 92.21 17.31 115.73 19 208 36 6.71 1.24 13.71 2.55 20.69 3.89"/>
            <path d="m807.46 508.52 9.15 5.33-10.48 1.55 1.33-6.88z"/>
        </g>
    </g>
</svg>
