<?xml version="1.0" encoding="UTF-8" standalone="no"?>
<!DOCTYPE svg PUBLIC "-//W3C//DTD SVG 1.1//EN"
 "http://www.w3.org/Graphics/SVG/1.1/DTD/svg11.dtd">
<!-- Generated by graphviz version 2.43.0 (0)
 -->
<!-- Title: G Pages: 1 -->
<svg width="1702pt" height="692pt"
 viewBox="0.00 0.00 1702.00 692.00" xmlns="http://www.w3.org/2000/svg" xmlns:xlink="http://www.w3.org/1999/xlink">
<g id="graph0" class="graph" transform="scale(1 1) rotate(0) translate(4 688)">
<title>G</title>
<polygon fill="white" stroke="transparent" points="-4,4 -4,-688 1698,-688 1698,4 -4,4"/>
<!-- :app&#45;compose -->
<g id="node1" class="node">
<title>:app&#45;compose</title>
<ellipse fill="none" stroke="black" cx="1084" cy="-666" rx="74.19" ry="18"/>
<text text-anchor="middle" x="1084" y="-662.3" font-family="Times,serif" font-size="14.00">:app&#45;compose</text>
</g>
<!-- :feature:appdetail -->
<g id="node2" class="node">
<title>:feature:appdetail</title>
<ellipse fill="none" stroke="black" cx="160" cy="-594" rx="93.68" ry="18"/>
<text text-anchor="middle" x="160" y="-590.3" font-family="Times,serif" font-size="14.00">:feature:appdetail</text>
</g>
<!-- :app&#45;compose&#45;&gt;:feature:appdetail -->
<g id="edge1" class="edge">
<title>:app&#45;compose&#45;&gt;:feature:appdetail</title>
<path fill="none" stroke="red" stroke-width="2" d="M1011.21,-662.5C868.36,-657.11 541.38,-642.33 268,-612 258.1,-610.9 247.71,-609.54 237.46,-608.07"/>
<polygon fill="red" stroke="red" stroke-width="2" points="237.68,-604.56 227.28,-606.56 236.66,-611.48 237.68,-604.56"/>
</g>
<!-- :feature:applist -->
<g id="node3" class="node">
<title>:feature:applist</title>
<ellipse fill="none" stroke="black" cx="392" cy="-594" rx="81.79" ry="18"/>
<text text-anchor="middle" x="392" y="-590.3" font-family="Times,serif" font-size="14.00">:feature:applist</text>
</g>
<!-- :app&#45;compose&#45;&gt;:feature:applist -->
<g id="edge2" class="edge">
<title>:app&#45;compose&#45;&gt;:feature:applist</title>
<path fill="none" stroke="black" d="M1012.51,-660.94C899.65,-654.03 673.42,-638.12 483,-612 475.58,-610.98 467.85,-609.77 460.17,-608.47"/>
<polygon fill="black" stroke="black" points="460.57,-604.99 450.12,-606.72 459.37,-611.89 460.57,-604.99"/>
</g>
<!-- :feature:generalrule -->
<g id="node4" class="node">
<title>:feature:generalrule</title>
<ellipse fill="none" stroke="black" cx="1216" cy="-594" rx="103.98" ry="18"/>
<text text-anchor="middle" x="1216" y="-590.3" font-family="Times,serif" font-size="14.00">:feature:generalrule</text>
</g>
<!-- :app&#45;compose&#45;&gt;:feature:generalrule -->
<g id="edge3" class="edge">
<title>:app&#45;compose&#45;&gt;:feature:generalrule</title>
<path fill="none" stroke="black" d="M1113.3,-649.46C1131.87,-639.61 1156.13,-626.75 1176.41,-616"/>
<polygon fill="black" stroke="black" points="1178.22,-619 1185.41,-611.22 1174.94,-612.81 1178.22,-619"/>
</g>
<!-- :feature:search -->
<g id="node5" class="node">
<title>:feature:search</title>
<ellipse fill="none" stroke="black" cx="781" cy="-594" rx="81.49" ry="18"/>
<text text-anchor="middle" x="781" y="-590.3" font-family="Times,serif" font-size="14.00">:feature:search</text>
</g>
<!-- :app&#45;compose&#45;&gt;:feature:search -->
<g id="edge4" class="edge">
<title>:app&#45;compose&#45;&gt;:feature:search</title>
<path fill="none" stroke="black" d="M1032.26,-653.05C980.44,-641.07 900.58,-622.63 844.85,-609.75"/>
<polygon fill="black" stroke="black" points="845.61,-606.34 835.08,-607.49 844.04,-613.16 845.61,-606.34"/>
</g>
<!-- :feature:settings -->
<g id="node6" class="node">
<title>:feature:settings</title>
<ellipse fill="none" stroke="black" cx="968" cy="-594" rx="87.99" ry="18"/>
<text text-anchor="middle" x="968" y="-590.3" font-family="Times,serif" font-size="14.00">:feature:settings</text>
</g>
<!-- :app&#45;compose&#45;&gt;:feature:settings -->
<g id="edge5" class="edge">
<title>:app&#45;compose&#45;&gt;:feature:settings</title>
<path fill="none" stroke="black" d="M1057.68,-649.12C1041.74,-639.5 1021.2,-627.1 1003.8,-616.6"/>
<polygon fill="black" stroke="black" points="1005.39,-613.48 995.02,-611.31 1001.78,-619.47 1005.39,-613.48"/>
</g>
<!-- :feature:ruledetail -->
<g id="node7" class="node">
<title>:feature:ruledetail</title>
<ellipse fill="none" stroke="black" cx="587" cy="-594" rx="94.78" ry="18"/>
<text text-anchor="middle" x="587" y="-590.3" font-family="Times,serif" font-size="14.00">:feature:ruledetail</text>
</g>
<!-- :app&#45;compose&#45;&gt;:feature:ruledetail -->
<g id="edge6" class="edge">
<title>:app&#45;compose&#45;&gt;:feature:ruledetail</title>
<path fill="none" stroke="black" d="M1019.94,-656.92C942.08,-646.97 806.76,-629.26 691,-612 682.74,-610.77 674.12,-609.44 665.53,-608.08"/>
<polygon fill="black" stroke="black" points="665.91,-604.59 655.49,-606.47 664.81,-611.51 665.91,-604.59"/>
</g>
<!-- :feature:sort -->
<g id="node8" class="node">
<title>:feature:sort</title>
<ellipse fill="none" stroke="black" cx="1407" cy="-594" rx="68.79" ry="18"/>
<text text-anchor="middle" x="1407" y="-590.3" font-family="Times,serif" font-size="14.00">:feature:sort</text>
</g>
<!-- :app&#45;compose&#45;&gt;:feature:sort -->
<g id="edge7" class="edge">
<title>:app&#45;compose&#45;&gt;:feature:sort</title>
<path fill="none" stroke="black" d="M1137.53,-653.44C1187.17,-642.72 1263.08,-626.31 1329,-612 1334.42,-610.82 1340.05,-609.6 1345.69,-608.37"/>
<polygon fill="black" stroke="black" points="1346.79,-611.71 1355.81,-606.17 1345.3,-604.87 1346.79,-611.71"/>
</g>
<!-- :core:analytics -->
<g id="node9" class="node">
<title>:core:analytics</title>
<ellipse fill="none" stroke="black" cx="1272" cy="-234" rx="77.99" ry="18"/>
<text text-anchor="middle" x="1272" y="-230.3" font-family="Times,serif" font-size="14.00">:core:analytics</text>
</g>
<!-- :app&#45;compose&#45;&gt;:core:analytics -->
<g id="edge8" class="edge">
<title>:app&#45;compose&#45;&gt;:core:analytics</title>
<path fill="none" stroke="black" d="M1157.54,-663.42C1271.08,-659.86 1482.78,-648.4 1548,-612 1591.94,-587.48 1618,-573.32 1618,-523 1618,-523 1618,-523 1618,-449 1618,-408.55 1625.3,-390.73 1599,-360 1536.49,-286.98 1426.42,-256.48 1351.4,-243.82"/>
<polygon fill="black" stroke="black" points="1351.95,-240.37 1341.52,-242.22 1350.83,-247.28 1351.95,-240.37"/>
</g>
<!-- :core:common -->
<g id="node10" class="node">
<title>:core:common</title>
<ellipse fill="none" stroke="black" cx="538" cy="-90" rx="75.29" ry="18"/>
<text text-anchor="middle" x="538" y="-86.3" font-family="Times,serif" font-size="14.00">:core:common</text>
</g>
<!-- :app&#45;compose&#45;&gt;:core:common -->
<g id="edge9" class="edge">
<title>:app&#45;compose&#45;&gt;:core:common</title>
<path fill="none" stroke="black" d="M1010.62,-663.44C778.89,-658.24 75.64,-640.21 36,-612 1.23,-587.26 0,-565.67 0,-523 0,-523 0,-523 0,-233 0,-139.98 304.44,-106.56 455.29,-95.7"/>
<polygon fill="black" stroke="black" points="455.71,-99.18 465.44,-94.99 455.22,-92.2 455.71,-99.18"/>
</g>
<!-- :core:data -->
<g id="node11" class="node">
<title>:core:data</title>
<ellipse fill="none" stroke="black" cx="742" cy="-306" rx="57.39" ry="18"/>
<text text-anchor="middle" x="742" y="-302.3" font-family="Times,serif" font-size="14.00">:core:data</text>
</g>
<!-- :app&#45;compose&#45;&gt;:core:data -->
<g id="edge10" class="edge">
<title>:app&#45;compose&#45;&gt;:core:data</title>
<path fill="none" stroke="black" d="M1009.85,-665.6C823.83,-666.32 348.77,-663.11 301,-612 168.63,-470.37 543.46,-357.33 687.88,-320.09"/>
<polygon fill="black" stroke="black" points="689.05,-323.41 697.87,-317.54 687.32,-316.62 689.05,-323.41"/>
</g>
<!-- :core:designsystem -->
<g id="node12" class="node">
<title>:core:designsystem</title>
<ellipse fill="none" stroke="black" cx="1042" cy="-450" rx="100.98" ry="18"/>
<text text-anchor="middle" x="1042" y="-446.3" font-family="Times,serif" font-size="14.00">:core:designsystem</text>
</g>
<!-- :app&#45;compose&#45;&gt;:core:designsystem -->
<g id="edge11" class="edge">
<title>:app&#45;compose&#45;&gt;:core:designsystem</title>
<path fill="none" stroke="black" d="M1154.93,-660.64C1264.25,-653.18 1463.62,-636.39 1485,-612 1495.55,-599.97 1494.6,-588.8 1485,-576 1442.48,-519.32 1246.3,-481.18 1129.74,-463.1"/>
<polygon fill="black" stroke="black" points="1130.18,-459.63 1119.76,-461.57 1129.12,-466.54 1130.18,-459.63"/>
</g>
<!-- :core:model -->
<g id="node13" class="node">
<title>:core:model</title>
<ellipse fill="none" stroke="black" cx="1071" cy="-18" rx="64.99" ry="18"/>
<text text-anchor="middle" x="1071" y="-14.3" font-family="Times,serif" font-size="14.00">:core:model</text>
</g>
<!-- :app&#45;compose&#45;&gt;:core:model -->
<g id="edge12" class="edge">
<title>:app&#45;compose&#45;&gt;:core:model</title>
<path fill="none" stroke="black" d="M1158.11,-664.96C1287.32,-663.71 1547.57,-655.66 1626,-612 1669.5,-587.79 1694,-572.78 1694,-523 1694,-523 1694,-523 1694,-161 1694,-49.69 1311.19,-25.63 1145.72,-20.43"/>
<polygon fill="black" stroke="black" points="1145.72,-16.93 1135.62,-20.13 1145.51,-23.93 1145.72,-16.93"/>
</g>
<!-- :core:network -->
<g id="node14" class="node">
<title>:core:network</title>
<ellipse fill="none" stroke="black" cx="1025" cy="-162" rx="74.99" ry="18"/>
<text text-anchor="middle" x="1025" y="-158.3" font-family="Times,serif" font-size="14.00">:core:network</text>
</g>
<!-- :app&#45;compose&#45;&gt;:core:network -->
<g id="edge13" class="edge">
<title>:app&#45;compose&#45;&gt;:core:network</title>
<path fill="none" stroke="black" d="M1157.81,-664.24C1279.31,-661.84 1515.18,-652 1587,-612 1630.73,-587.65 1656,-573.05 1656,-523 1656,-523 1656,-523 1656,-305 1656,-194.22 1281.12,-169.85 1109.26,-164.5"/>
<polygon fill="black" stroke="black" points="1109.34,-161 1099.24,-164.2 1109.13,-168 1109.34,-161"/>
</g>
<!-- :core:provider -->
<g id="node15" class="node">
<title>:core:provider</title>
<ellipse fill="none" stroke="black" cx="1514" cy="-378" rx="76.09" ry="18"/>
<text text-anchor="middle" x="1514" y="-374.3" font-family="Times,serif" font-size="14.00">:core:provider</text>
</g>
<!-- :app&#45;compose&#45;&gt;:core:provider -->
<g id="edge14" class="edge">
<title>:app&#45;compose&#45;&gt;:core:provider</title>
<path fill="none" stroke="black" d="M1156.04,-661.47C1274.56,-654.91 1500.04,-639.02 1524,-612 1575.29,-554.16 1544.51,-453 1525.55,-405.3"/>
<polygon fill="black" stroke="black" points="1528.76,-403.89 1521.72,-395.97 1522.28,-406.55 1528.76,-403.89"/>
</g>
<!-- :core:rule -->
<g id="node16" class="node">
<title>:core:rule</title>
<ellipse fill="none" stroke="black" cx="203" cy="-378" rx="55.49" ry="18"/>
<text text-anchor="middle" x="203" y="-374.3" font-family="Times,serif" font-size="14.00">:core:rule</text>
</g>
<!-- :app&#45;compose&#45;&gt;:core:rule -->
<g id="edge15" class="edge">
<title>:app&#45;compose&#45;&gt;:core:rule</title>
<path fill="none" stroke="black" d="M1010.39,-663.95C780.58,-660.3 89.77,-646.51 57,-612 -7.23,-544.37 111.64,-444.24 171.52,-400.62"/>
<polygon fill="black" stroke="black" points="173.82,-403.28 179.9,-394.61 169.74,-397.6 173.82,-403.28"/>
</g>
<!-- :core:ui -->
<g id="node17" class="node">
<title>:core:ui</title>
<ellipse fill="none" stroke="black" cx="891" cy="-522" rx="45.49" ry="18"/>
<text text-anchor="middle" x="891" y="-518.3" font-family="Times,serif" font-size="14.00">:core:ui</text>
</g>
<!-- :app&#45;compose&#45;&gt;:core:ui -->
<g id="edge16" class="edge">
<title>:app&#45;compose&#45;&gt;:core:ui</title>
<path fill="none" stroke="black" d="M1085.17,-647.96C1085.55,-628.16 1083.06,-595.67 1065,-576 1048.22,-557.73 986.5,-541.92 941.32,-532.43"/>
<polygon fill="black" stroke="black" points="941.88,-528.98 931.38,-530.39 940.47,-535.83 941.88,-528.98"/>
</g>
<!-- :sync:work -->
<g id="node18" class="node">
<title>:sync:work</title>
<ellipse fill="none" stroke="black" cx="1360" cy="-378" rx="60.39" ry="18"/>
<text text-anchor="middle" x="1360" y="-374.3" font-family="Times,serif" font-size="14.00">:sync:work</text>
</g>
<!-- :app&#45;compose&#45;&gt;:sync:work -->
<g id="edge17" class="edge">
<title>:app&#45;compose&#45;&gt;:sync:work</title>
<path fill="none" stroke="black" d="M1155.62,-661C1269.04,-653.93 1479.51,-637.52 1502,-612 1562.9,-542.89 1449.37,-444.35 1391.25,-400.95"/>
<polygon fill="black" stroke="black" points="1393.23,-398.07 1383.1,-394.96 1389.09,-403.71 1393.23,-398.07"/>
</g>
<!-- :feature:appdetail&#45;&gt;:core:data -->
<g id="edge21" class="edge">
<title>:feature:appdetail&#45;&gt;:core:data</title>
<path fill="none" stroke="black" d="M170.68,-575.87C199.32,-531.58 282.72,-413.01 386,-360 435.46,-334.61 588.18,-318.91 676.7,-311.7"/>
<polygon fill="black" stroke="black" points="677.22,-315.17 686.91,-310.88 676.66,-308.19 677.22,-315.17"/>
</g>
<!-- :feature:appdetail&#45;&gt;:core:designsystem -->
<g id="edge19" class="edge">
<title>:feature:appdetail&#45;&gt;:core:designsystem</title>
<path fill="none" stroke="black" d="M221.3,-580.38C311.61,-562.05 485.85,-527.67 635,-504 742.59,-486.93 866.82,-471.35 949.45,-461.56"/>
<polygon fill="black" stroke="black" points="950.04,-465.02 959.57,-460.37 949.22,-458.06 950.04,-465.02"/>
</g>
<!-- :feature:appdetail&#45;&gt;:core:rule -->
<g id="edge23" class="edge">
<title>:feature:appdetail&#45;&gt;:core:rule</title>
<path fill="none" stroke="black" d="M163.45,-575.85C170.9,-538.75 188.57,-450.81 197.55,-406.1"/>
<polygon fill="black" stroke="black" points="201,-406.73 199.54,-396.23 194.14,-405.35 201,-406.73"/>
</g>
<!-- :feature:appdetail&#45;&gt;:core:ui -->
<g id="edge18" class="edge">
<title>:feature:appdetail&#45;&gt;:core:ui</title>
<path fill="none" stroke="red" stroke-width="2" d="M236.06,-583.4C257.08,-580.86 279.91,-578.22 301,-576 498.02,-555.28 732.61,-535.73 836.67,-527.33"/>
<polygon fill="red" stroke="red" stroke-width="2" points="837.23,-530.79 846.92,-526.5 836.67,-523.81 837.23,-530.79"/>
</g>
<!-- :core:component&#45;controller -->
<g id="node19" class="node">
<title>:core:component&#45;controller</title>
<ellipse fill="none" stroke="black" cx="350" cy="-234" rx="135.68" ry="18"/>
<text text-anchor="middle" x="350" y="-230.3" font-family="Times,serif" font-size="14.00">:core:component&#45;controller</text>
</g>
<!-- :feature:appdetail&#45;&gt;:core:component&#45;controller -->
<g id="edge20" class="edge">
<title>:feature:appdetail&#45;&gt;:core:component&#45;controller</title>
<path fill="none" stroke="black" d="M152.62,-576.03C136.37,-535.91 101.77,-433.11 139,-360 167.22,-304.57 231.95,-271.7 282.32,-253.69"/>
<polygon fill="black" stroke="black" points="283.56,-256.96 291.87,-250.39 281.27,-250.35 283.56,-256.96"/>
</g>
<!-- :core:domain -->
<g id="node20" class="node">
<title>:core:domain</title>
<ellipse fill="none" stroke="black" cx="590" cy="-450" rx="70.69" ry="18"/>
<text text-anchor="middle" x="590" y="-446.3" font-family="Times,serif" font-size="14.00">:core:domain</text>
</g>
<!-- :feature:appdetail&#45;&gt;:core:domain -->
<g id="edge22" class="edge">
<title>:feature:appdetail&#45;&gt;:core:domain</title>
<path fill="none" stroke="black" d="M205.2,-578.07C285.89,-551.43 454.16,-495.86 538.91,-467.87"/>
<polygon fill="black" stroke="black" points="540.17,-471.14 548.57,-464.68 537.98,-464.49 540.17,-471.14"/>
</g>
<!-- :feature:applist&#45;&gt;:core:data -->
<g id="edge59" class="edge">
<title>:feature:applist&#45;&gt;:core:data</title>
<path fill="none" stroke="black" d="M401.04,-576.04C418.55,-544.43 459.86,-475.74 510,-432 567.05,-382.24 647.28,-344.58 696.88,-324.17"/>
<polygon fill="black" stroke="black" points="698.43,-327.32 706.38,-320.32 695.8,-320.83 698.43,-327.32"/>
</g>
<!-- :feature:applist&#45;&gt;:core:designsystem -->
<g id="edge57" class="edge">
<title>:feature:applist&#45;&gt;:core:designsystem</title>
<path fill="none" stroke="black" d="M447.98,-580.77C566.08,-554.97 840.54,-495.01 970.86,-466.54"/>
<polygon fill="black" stroke="black" points="971.72,-469.94 980.74,-464.38 970.23,-463.1 971.72,-469.94"/>
</g>
<!-- :feature:applist&#45;&gt;:core:ui -->
<g id="edge56" class="edge">
<title>:feature:applist&#45;&gt;:core:ui</title>
<path fill="none" stroke="black" d="M450.62,-581.32C461.37,-579.39 472.5,-577.52 483,-576 637.33,-553.66 678.92,-569.7 832,-540 836.78,-539.07 841.74,-537.93 846.66,-536.69"/>
<polygon fill="black" stroke="black" points="847.87,-539.99 856.62,-534.02 846.06,-533.23 847.87,-539.99"/>
</g>
<!-- :feature:applist&#45;&gt;:core:component&#45;controller -->
<g id="edge58" class="edge">
<title>:feature:applist&#45;&gt;:core:component&#45;controller</title>
<path fill="none" stroke="black" d="M386.82,-575.82C376.88,-541.87 355.45,-463.58 348,-396 342.74,-348.29 347.09,-335.99 348,-288 348.16,-279.68 348.45,-270.63 348.77,-262.4"/>
<polygon fill="black" stroke="black" points="352.28,-262.32 349.19,-252.18 345.28,-262.03 352.28,-262.32"/>
</g>
<!-- :feature:applist&#45;&gt;:core:domain -->
<g id="edge60" class="edge">
<title>:feature:applist&#45;&gt;:core:domain</title>
<path fill="none" stroke="black" d="M415.1,-576.43C450.74,-550.87 519.18,-501.79 559.06,-473.19"/>
<polygon fill="black" stroke="black" points="561.26,-475.92 567.35,-467.24 557.18,-470.23 561.26,-475.92"/>
</g>
<!-- :core:ifw&#45;api -->
<g id="node21" class="node">
<title>:core:ifw&#45;api</title>
<ellipse fill="none" stroke="black" cx="350" cy="-162" rx="67.69" ry="18"/>
<text text-anchor="middle" x="350" y="-158.3" font-family="Times,serif" font-size="14.00">:core:ifw&#45;api</text>
</g>
<!-- :feature:applist&#45;&gt;:core:ifw&#45;api -->
<g id="edge61" class="edge">
<title>:feature:applist&#45;&gt;:core:ifw&#45;api</title>
<path fill="none" stroke="black" d="M355.79,-577.73C297.42,-550.87 184.47,-489.03 139,-396 111.82,-340.39 141.47,-261.19 187,-216 201.88,-201.23 249.75,-186.67 289.79,-176.55"/>
<polygon fill="black" stroke="black" points="290.65,-179.95 299.51,-174.15 288.96,-173.15 290.65,-179.95"/>
</g>
<!-- :feature:generalrule&#45;&gt;:core:data -->
<g id="edge64" class="edge">
<title>:feature:generalrule&#45;&gt;:core:data</title>
<path fill="none" stroke="black" d="M1215.07,-575.81C1212.58,-544.41 1203.55,-476.87 1171,-432 1137.12,-385.31 1116.66,-381.17 1063,-360 979.21,-326.94 875.25,-314.5 808.76,-309.82"/>
<polygon fill="black" stroke="black" points="808.63,-306.31 798.42,-309.14 808.17,-313.29 808.63,-306.31"/>
</g>
<!-- :feature:generalrule&#45;&gt;:core:designsystem -->
<g id="edge63" class="edge">
<title>:feature:generalrule&#45;&gt;:core:designsystem</title>
<path fill="none" stroke="black" d="M1195.36,-576.15C1164.35,-550.85 1105.67,-502.96 1070.58,-474.32"/>
<polygon fill="black" stroke="black" points="1072.58,-471.44 1062.62,-467.82 1068.15,-476.86 1072.58,-471.44"/>
</g>
<!-- :feature:generalrule&#45;&gt;:core:ui -->
<g id="edge62" class="edge">
<title>:feature:generalrule&#45;&gt;:core:ui</title>
<path fill="none" stroke="black" d="M1153.34,-579.5C1091.04,-566.09 996.79,-545.79 939.84,-533.52"/>
<polygon fill="black" stroke="black" points="940.51,-530.08 930,-531.4 939.04,-536.93 940.51,-530.08"/>
</g>
<!-- :feature:generalrule&#45;&gt;:core:domain -->
<g id="edge65" class="edge">
<title>:feature:generalrule&#45;&gt;:core:domain</title>
<path fill="none" stroke="black" d="M1175.3,-577.23C1122.81,-557.46 1028.36,-523.76 945,-504 849.64,-481.4 737.47,-466.56 665.13,-458.48"/>
<polygon fill="black" stroke="black" points="665.08,-454.96 654.76,-457.34 664.31,-461.91 665.08,-454.96"/>
</g>
<!-- :feature:search&#45;&gt;:core:data -->
<g id="edge69" class="edge">
<title>:feature:search&#45;&gt;:core:data</title>
<path fill="none" stroke="black" d="M778.68,-575.97C772.16,-528.19 753.68,-392.62 745.72,-334.27"/>
<polygon fill="black" stroke="black" points="749.18,-333.74 744.36,-324.31 742.24,-334.69 749.18,-333.74"/>
</g>
<!-- :feature:search&#45;&gt;:core:designsystem -->
<g id="edge67" class="edge">
<title>:feature:search&#45;&gt;:core:designsystem</title>
<path fill="none" stroke="black" d="M840.19,-581.65C889.7,-571.33 955.72,-555.41 978,-540 1000.97,-524.11 1018.64,-497.19 1029.53,-477.11"/>
<polygon fill="black" stroke="black" points="1032.68,-478.64 1034.19,-468.15 1026.47,-475.41 1032.68,-478.64"/>
</g>
<!-- :feature:search&#45;&gt;:core:ui -->
<g id="edge66" class="edge">
<title>:feature:search&#45;&gt;:core:ui</title>
<path fill="none" stroke="black" d="M806.51,-576.76C822.15,-566.81 842.3,-553.99 859,-543.36"/>
<polygon fill="black" stroke="black" points="861.32,-546.04 867.87,-537.72 857.56,-540.13 861.32,-546.04"/>
</g>
<!-- :feature:search&#45;&gt;:core:component&#45;controller -->
<g id="edge68" class="edge">
<title>:feature:search&#45;&gt;:core:component&#45;controller</title>
<path fill="none" stroke="black" d="M732.14,-579.54C674.06,-561.63 576.65,-525.39 510,-468 439.36,-407.17 385.44,-308.3 362.34,-261.35"/>
<polygon fill="black" stroke="black" points="365.39,-259.63 357.88,-252.16 359.09,-262.68 365.39,-259.63"/>
</g>
<!-- :feature:search&#45;&gt;:core:domain -->
<g id="edge70" class="edge">
<title>:feature:search&#45;&gt;:core:domain</title>
<path fill="none" stroke="black" d="M758.72,-576.43C724.41,-550.93 658.6,-502 620.09,-473.37"/>
<polygon fill="black" stroke="black" points="621.96,-470.4 611.85,-467.24 617.79,-476.02 621.96,-470.4"/>
</g>
<!-- :feature:settings&#45;&gt;:core:data -->
<g id="edge73" class="edge">
<title>:feature:settings&#45;&gt;:core:data</title>
<path fill="none" stroke="black" d="M1010.92,-578.22C1078.96,-552.44 1199.3,-495.87 1152,-432 1110.05,-375.36 905.67,-334.09 802.23,-316.47"/>
<polygon fill="black" stroke="black" points="802.68,-313 792.24,-314.79 801.52,-319.9 802.68,-313"/>
</g>
<!-- :feature:settings&#45;&gt;:core:designsystem -->
<g id="edge72" class="edge">
<title>:feature:settings&#45;&gt;:core:designsystem</title>
<path fill="none" stroke="black" d="M1009.48,-578.06C1026.45,-569.66 1044.34,-557.3 1054,-540 1064.58,-521.05 1060.11,-496.39 1053.82,-477.83"/>
<polygon fill="black" stroke="black" points="1057.01,-476.37 1050.23,-468.23 1050.45,-478.82 1057.01,-476.37"/>
</g>
<!-- :feature:settings&#45;&gt;:core:rule -->
<g id="edge75" class="edge">
<title>:feature:settings&#45;&gt;:core:rule</title>
<path fill="none" stroke="black" d="M907.53,-580.88C859.24,-570.88 789.97,-555.81 730,-540 550.82,-492.76 341.09,-424.84 249.62,-394.57"/>
<polygon fill="black" stroke="black" points="250.69,-391.24 240.1,-391.42 248.49,-397.89 250.69,-391.24"/>
</g>
<!-- :feature:settings&#45;&gt;:core:ui -->
<g id="edge71" class="edge">
<title>:feature:settings&#45;&gt;:core:ui</title>
<path fill="none" stroke="black" d="M949.36,-576.05C939.33,-566.94 926.83,-555.57 915.97,-545.7"/>
<polygon fill="black" stroke="black" points="918.17,-542.97 908.41,-538.83 913.46,-548.15 918.17,-542.97"/>
</g>
<!-- :feature:settings&#45;&gt;:core:domain -->
<g id="edge74" class="edge">
<title>:feature:settings&#45;&gt;:core:domain</title>
<path fill="none" stroke="black" d="M927.91,-577.94C857.71,-551.57 712.9,-497.17 637.69,-468.92"/>
<polygon fill="black" stroke="black" points="638.59,-465.51 628,-465.27 636.13,-472.07 638.59,-465.51"/>
</g>
<!-- :feature:ruledetail&#45;&gt;:core:data -->
<g id="edge79" class="edge">
<title>:feature:ruledetail&#45;&gt;:core:data</title>
<path fill="none" stroke="black" d="M599.77,-575.77C616.95,-552.18 647.89,-508.16 670,-468 695.19,-422.26 718.77,-366.01 731.71,-333.55"/>
<polygon fill="black" stroke="black" points="735.1,-334.48 735.52,-323.89 728.59,-331.91 735.1,-334.48"/>
</g>
<!-- :feature:ruledetail&#45;&gt;:core:designsystem -->
<g id="edge77" class="edge">
<title>:feature:ruledetail&#45;&gt;:core:designsystem</title>
<path fill="none" stroke="black" d="M655.78,-581.55C667.52,-579.65 679.61,-577.74 691,-576 803.71,-558.8 844.12,-593.14 945,-540 964.2,-529.88 962.27,-518.96 978,-504 988.75,-493.78 1001.18,-483.22 1012.22,-474.25"/>
<polygon fill="black" stroke="black" points="1014.73,-476.71 1020.33,-467.72 1010.35,-471.26 1014.73,-476.71"/>
</g>
<!-- :feature:ruledetail&#45;&gt;:core:ui -->
<g id="edge76" class="edge">
<title>:feature:ruledetail&#45;&gt;:core:ui</title>
<path fill="none" stroke="black" d="M650.21,-580.55C699.85,-570.47 770.6,-555.47 832,-540 836.6,-538.84 841.39,-537.57 846.16,-536.26"/>
<polygon fill="black" stroke="black" points="847.16,-539.61 855.85,-533.55 845.28,-532.87 847.16,-539.61"/>
</g>
<!-- :feature:ruledetail&#45;&gt;:core:component&#45;controller -->
<g id="edge78" class="edge">
<title>:feature:ruledetail&#45;&gt;:core:component&#45;controller</title>
<path fill="none" stroke="black" d="M529.8,-579.6C506.17,-571.54 480.12,-559.03 462,-540 384.92,-459.04 360.06,-320.66 352.76,-262.27"/>
<polygon fill="black" stroke="black" points="356.24,-261.85 351.6,-252.33 349.29,-262.67 356.24,-261.85"/>
</g>
<!-- :feature:ruledetail&#45;&gt;:core:domain -->
<g id="edge80" class="edge">
<title>:feature:ruledetail&#45;&gt;:core:domain</title>
<path fill="none" stroke="black" d="M587.36,-575.87C587.87,-551.67 588.81,-507.21 589.42,-478.39"/>
<polygon fill="black" stroke="black" points="592.92,-478.26 589.64,-468.19 585.93,-478.11 592.92,-478.26"/>
</g>
<!-- :feature:sort&#45;&gt;:core:data -->
<g id="edge83" class="edge">
<title>:feature:sort&#45;&gt;:core:data</title>
<path fill="none" stroke="black" d="M1392.2,-576.19C1352.31,-532.14 1237.26,-413.09 1114,-360 1060.15,-336.81 898.5,-320.05 807,-312.13"/>
<polygon fill="black" stroke="black" points="807.27,-308.64 797.01,-311.28 806.68,-315.62 807.27,-308.64"/>
</g>
<!-- :feature:sort&#45;&gt;:core:designsystem -->
<g id="edge82" class="edge">
<title>:feature:sort&#45;&gt;:core:designsystem</title>
<path fill="none" stroke="black" d="M1370.33,-578.73C1304.41,-553.09 1165.86,-499.19 1091.56,-470.28"/>
<polygon fill="black" stroke="black" points="1092.54,-466.91 1081.96,-466.54 1090.01,-473.43 1092.54,-466.91"/>
</g>
<!-- :feature:sort&#45;&gt;:core:ui -->
<g id="edge81" class="edge">
<title>:feature:sort&#45;&gt;:core:ui</title>
<path fill="none" stroke="black" d="M1357.2,-581.42C1347.86,-579.45 1338.16,-577.55 1329,-576 1191.57,-552.76 1028.21,-535.78 945.22,-527.9"/>
<polygon fill="black" stroke="black" points="945.31,-524.4 935.03,-526.94 944.65,-531.37 945.31,-524.4"/>
</g>
<!-- :core:common&#45;&gt;:core:model -->
<g id="edge41" class="edge">
<title>:core:common&#45;&gt;:core:model</title>
<path fill="none" stroke="red" stroke-width="2" d="M592.1,-77.37C602.02,-75.43 612.3,-73.55 622,-72 754.9,-50.75 911.19,-34.19 999.92,-25.57"/>
<polygon fill="red" stroke="red" stroke-width="2" points="1000.52,-29.03 1010.14,-24.58 999.85,-22.06 1000.52,-29.03"/>
</g>
<!-- :core:data&#45;&gt;:core:analytics -->
<g id="edge39" class="edge">
<title>:core:data&#45;&gt;:core:analytics</title>
<path fill="none" stroke="black" d="M793.78,-298.16C887.75,-285.75 1086.7,-259.47 1196.05,-245.03"/>
<polygon fill="black" stroke="black" points="1196.57,-248.49 1206.02,-243.71 1195.65,-241.55 1196.57,-248.49"/>
</g>
<!-- :core:data&#45;&gt;:core:common -->
<g id="edge35" class="edge">
<title>:core:data&#45;&gt;:core:common</title>
<path fill="none" stroke="black" d="M735.1,-287.86C721.51,-255.94 688.52,-186.75 642,-144 626.23,-129.51 605.77,-117.96 587.17,-109.38"/>
<polygon fill="black" stroke="black" points="588.49,-106.14 577.93,-105.29 585.66,-112.54 588.49,-106.14"/>
</g>
<!-- :core:data&#45;&gt;:core:network -->
<g id="edge38" class="edge">
<title>:core:data&#45;&gt;:core:network</title>
<path fill="none" stroke="black" d="M770.96,-290.47C821.8,-264.96 927.19,-212.08 984.97,-183.09"/>
<polygon fill="black" stroke="black" points="986.79,-186.09 994.16,-178.48 983.65,-179.83 986.79,-186.09"/>
</g>
<!-- :core:data&#45;&gt;:core:component&#45;controller -->
<g id="edge40" class="edge">
<title>:core:data&#45;&gt;:core:component&#45;controller</title>
<path fill="none" stroke="red" stroke-width="2" d="M693.54,-296.35C629.7,-284.95 516.28,-264.69 437.3,-250.59"/>
<polygon fill="red" stroke="red" stroke-width="2" points="437.82,-247.13 427.36,-248.81 436.59,-254.02 437.82,-247.13"/>
</g>
<!-- :core:database -->
<g id="node22" class="node">
<title>:core:database</title>
<ellipse fill="none" stroke="black" cx="710" cy="-90" rx="78.79" ry="18"/>
<text text-anchor="middle" x="710" y="-86.3" font-family="Times,serif" font-size="14.00">:core:database</text>
</g>
<!-- :core:data&#45;&gt;:core:database -->
<g id="edge36" class="edge">
<title>:core:data&#45;&gt;:core:database</title>
<path fill="none" stroke="black" d="M739.44,-287.85C733.9,-250.83 720.79,-163.18 714.1,-118.39"/>
<polygon fill="black" stroke="black" points="717.52,-117.6 712.58,-108.23 710.59,-118.64 717.52,-117.6"/>
</g>
<!-- :core:datastore -->
<g id="node23" class="node">
<title>:core:datastore</title>
<ellipse fill="none" stroke="black" cx="851" cy="-162" rx="81.49" ry="18"/>
<text text-anchor="middle" x="851" y="-158.3" font-family="Times,serif" font-size="14.00">:core:datastore</text>
</g>
<!-- :core:data&#45;&gt;:core:datastore -->
<g id="edge37" class="edge">
<title>:core:data&#45;&gt;:core:datastore</title>
<path fill="none" stroke="black" d="M754.72,-288.43C773.73,-263.66 809.7,-216.8 831.89,-187.9"/>
<polygon fill="black" stroke="black" points="834.71,-189.97 838.03,-179.9 829.16,-185.7 834.71,-189.97"/>
</g>
<!-- :core:designsystem&#45;&gt;:core:model -->
<g id="edge28" class="edge">
<title>:core:designsystem&#45;&gt;:core:model</title>
<path fill="none" stroke="black" d="M1071.07,-432.75C1107.72,-409.86 1166,-364.44 1166,-307 1166,-307 1166,-307 1166,-161 1166,-120.03 1165.01,-105.89 1142,-72 1133.36,-59.28 1120.65,-48.42 1108.36,-39.9"/>
<polygon fill="black" stroke="black" points="1110.25,-36.95 1099.97,-34.38 1106.4,-42.8 1110.25,-36.95"/>
</g>
<!-- :core:network&#45;&gt;:core:common -->
<g id="edge46" class="edge">
<title>:core:network&#45;&gt;:core:common</title>
<path fill="none" stroke="black" d="M971.35,-149.42C961.29,-147.45 950.85,-145.55 941,-144 800.06,-121.83 762.94,-130.17 622,-108 615.48,-106.97 608.7,-105.79 601.95,-104.54"/>
<polygon fill="black" stroke="black" points="602.58,-101.1 592.1,-102.67 601.27,-107.98 602.58,-101.1"/>
</g>
<!-- :core:network&#45;&gt;:core:model -->
<g id="edge47" class="edge">
<title>:core:network&#45;&gt;:core:model</title>
<path fill="none" stroke="black" d="M1042.44,-144.04C1051.18,-134.37 1060.96,-121.51 1066,-108 1073.39,-88.22 1074.32,-64.24 1073.58,-46.16"/>
<polygon fill="black" stroke="black" points="1077.06,-45.78 1072.97,-36.01 1070.08,-46.2 1077.06,-45.78"/>
</g>
<!-- :core:provider&#45;&gt;:core:analytics -->
<g id="edge84" class="edge">
<title>:core:provider&#45;&gt;:core:analytics</title>
<path fill="none" stroke="black" d="M1462.25,-364.66C1432.15,-356.06 1394.3,-342.75 1364,-324 1335.93,-306.63 1309.46,-279.45 1292.19,-259.7"/>
<polygon fill="black" stroke="black" points="1294.75,-257.32 1285.59,-252 1289.44,-261.87 1294.75,-257.32"/>
</g>
<!-- :core:provider&#45;&gt;:core:common -->
<g id="edge85" class="edge">
<title>:core:provider&#45;&gt;:core:common</title>
<path fill="none" stroke="black" d="M1503.99,-360.13C1482.5,-325.7 1428.23,-247.94 1359,-216 1238.12,-160.23 890.91,-209.09 761,-180 718.96,-170.59 711.01,-159.97 671,-144 642.24,-132.52 609.97,-119.66 584.43,-109.48"/>
<polygon fill="black" stroke="black" points="585.57,-106.17 574.98,-105.72 582.98,-112.67 585.57,-106.17"/>
</g>
<!-- :core:provider&#45;&gt;:core:data -->
<g id="edge86" class="edge">
<title>:core:provider&#45;&gt;:core:data</title>
<path fill="none" stroke="black" d="M1460.21,-365.23C1449.89,-363.26 1439.14,-361.4 1429,-360 1202.8,-328.77 931.97,-314.65 808.83,-309.48"/>
<polygon fill="black" stroke="black" points="808.93,-305.98 798.8,-309.07 808.64,-312.98 808.93,-305.98"/>
</g>
<!-- :core:provider&#45;&gt;:core:model -->
<g id="edge87" class="edge">
<title>:core:provider&#45;&gt;:core:model</title>
<path fill="none" stroke="black" d="M1537.08,-360.63C1567.72,-336.8 1618,-289.39 1618,-235 1618,-235 1618,-235 1618,-161 1618,-64.31 1293.76,-32.33 1144.55,-22.74"/>
<polygon fill="black" stroke="black" points="1144.75,-19.24 1134.55,-22.11 1144.31,-26.23 1144.75,-19.24"/>
</g>
<!-- :core:rule&#45;&gt;:core:common -->
<g id="edge52" class="edge">
<title>:core:rule&#45;&gt;:core:common</title>
<path fill="none" stroke="black" d="M194.69,-359.79C190.26,-349.63 185.26,-336.38 183,-324 178.94,-301.75 185.09,-219.81 187,-216 209.34,-171.44 228.05,-165.56 273,-144 330.63,-116.36 401.96,-103.13 456.09,-96.8"/>
<polygon fill="black" stroke="black" points="456.79,-100.24 466.34,-95.66 456.01,-93.29 456.79,-100.24"/>
</g>
<!-- :core:rule&#45;&gt;:core:data -->
<g id="edge54" class="edge">
<title>:core:rule&#45;&gt;:core:data</title>
<path fill="none" stroke="red" stroke-width="2" d="M250.88,-369.02C269.34,-366.04 290.63,-362.73 310,-360 440.91,-341.58 594.65,-323.58 678.88,-314.03"/>
<polygon fill="red" stroke="red" stroke-width="2" points="679.51,-317.48 689.05,-312.88 678.72,-310.53 679.51,-317.48"/>
</g>
<!-- :core:rule&#45;&gt;:core:component&#45;controller -->
<g id="edge53" class="edge">
<title>:core:rule&#45;&gt;:core:component&#45;controller</title>
<path fill="none" stroke="black" d="M213.59,-360.31C226.09,-341.42 248.2,-310.35 272,-288 284.14,-276.6 298.95,-265.89 312.38,-257.12"/>
<polygon fill="black" stroke="black" points="314.42,-259.98 320.98,-251.66 310.66,-254.07 314.42,-259.98"/>
</g>
<!-- :core:rule&#45;&gt;:core:ifw&#45;api -->
<g id="edge55" class="edge">
<title>:core:rule&#45;&gt;:core:ifw&#45;api</title>
<path fill="none" stroke="black" d="M197.49,-360.06C188.36,-328.46 173.97,-259.79 205,-216 221.84,-192.24 250.5,-179.1 277.92,-171.85"/>
<polygon fill="black" stroke="black" points="279.04,-175.18 287.94,-169.43 277.4,-168.37 279.04,-175.18"/>
</g>
<!-- :core:ui&#45;&gt;:core:analytics -->
<g id="edge24" class="edge">
<title>:core:ui&#45;&gt;:core:analytics</title>
<path fill="none" stroke="black" d="M894.11,-503.72C898.72,-483.35 909.38,-450.02 932,-432 993.09,-383.33 1034.91,-432.43 1104,-396 1168.51,-361.99 1225.58,-295.88 1253.63,-259.86"/>
<polygon fill="black" stroke="black" points="1256.49,-261.87 1259.8,-251.81 1250.94,-257.61 1256.49,-261.87"/>
</g>
<!-- :core:ui&#45;&gt;:core:designsystem -->
<g id="edge25" class="edge">
<title>:core:ui&#45;&gt;:core:designsystem</title>
<path fill="none" stroke="black" d="M919.4,-507.83C941.7,-497.5 973.11,-482.94 998.56,-471.14"/>
<polygon fill="black" stroke="black" points="1000.04,-474.31 1007.64,-466.93 997.09,-467.96 1000.04,-474.31"/>
</g>
<!-- :core:ui&#45;&gt;:core:model -->
<g id="edge26" class="edge">
<title>:core:ui&#45;&gt;:core:model</title>
<path fill="none" stroke="black" d="M890.34,-503.87C890.25,-485.39 891.93,-455.46 902,-432 959.15,-298.8 1060.14,-316.46 1109,-180 1125.58,-133.69 1102.96,-77.28 1086.18,-45.01"/>
<polygon fill="black" stroke="black" points="1089.04,-42.94 1081.21,-35.81 1082.88,-46.27 1089.04,-42.94"/>
</g>
<!-- :core:ui&#45;&gt;:core:domain -->
<g id="edge27" class="edge">
<title>:core:ui&#45;&gt;:core:domain</title>
<path fill="none" stroke="red" stroke-width="2" d="M852.88,-512.13C801.78,-500.25 710.52,-479.03 650.12,-464.98"/>
<polygon fill="red" stroke="red" stroke-width="2" points="650.86,-461.56 640.33,-462.7 649.28,-468.38 650.86,-461.56"/>
</g>
<!-- :sync:work&#45;&gt;:core:analytics -->
<g id="edge88" class="edge">
<title>:sync:work&#45;&gt;:core:analytics</title>
<path fill="none" stroke="black" d="M1342.09,-360.57C1332.03,-350.67 1319.78,-337.42 1311,-324 1298.21,-304.47 1287.86,-280.05 1281.04,-261.73"/>
<polygon fill="black" stroke="black" points="1284.3,-260.47 1277.62,-252.25 1277.72,-262.85 1284.3,-260.47"/>
</g>
<!-- :sync:work&#45;&gt;:core:data -->
<g id="edge89" class="edge">
<title>:sync:work&#45;&gt;:core:data</title>
<path fill="none" stroke="black" d="M1315.18,-365.73C1305.6,-363.59 1295.5,-361.55 1286,-360 1114.87,-332.12 910.88,-317.04 808.13,-310.69"/>
<polygon fill="black" stroke="black" points="808.1,-307.18 797.91,-310.07 807.68,-314.17 808.1,-307.18"/>
</g>
<!-- :core:component&#45;controller&#45;&gt;:core:common -->
<g id="edge48" class="edge">
<title>:core:component&#45;controller&#45;&gt;:core:common</title>
<path fill="none" stroke="black" d="M375.29,-216.27C390.48,-206.06 410.07,-192.59 427,-180 456,-158.44 488.11,-132.45 510.3,-114.14"/>
<polygon fill="black" stroke="black" points="512.82,-116.6 518.29,-107.52 508.36,-111.21 512.82,-116.6"/>
</g>
<!-- :core:component&#45;controller&#45;&gt;:core:model -->
<g id="edge49" class="edge">
<title>:core:component&#45;controller&#45;&gt;:core:model</title>
<path fill="none" stroke="black" d="M311.94,-216.6C296.97,-208.03 281.38,-195.94 273,-180 265.56,-165.84 264.51,-157.56 273,-144 311.79,-81.99 350.44,-91.3 421,-72 527.65,-42.82 849.91,-27.32 996.71,-21.6"/>
<polygon fill="black" stroke="black" points="997.12,-25.09 1006.97,-21.21 996.85,-18.1 997.12,-25.09"/>
</g>
<!-- :core:component&#45;controller&#45;&gt;:core:ifw&#45;api -->
<g id="edge50" class="edge">
<title>:core:component&#45;controller&#45;&gt;:core:ifw&#45;api</title>
<path fill="none" stroke="red" stroke-width="2" d="M350,-215.7C350,-207.98 350,-198.71 350,-190.11"/>
<polygon fill="red" stroke="red" stroke-width="2" points="353.5,-190.1 350,-180.1 346.5,-190.1 353.5,-190.1"/>
</g>
<!-- :core:domain&#45;&gt;:core:common -->
<g id="edge31" class="edge">
<title>:core:domain&#45;&gt;:core:common</title>
<path fill="none" stroke="black" d="M597.69,-431.91C608.79,-405.62 628,-353.45 628,-307 628,-307 628,-307 628,-233 628,-185.45 591.55,-140.91 565.04,-114.81"/>
<polygon fill="black" stroke="black" points="567.18,-112.01 557.53,-107.63 562.34,-117.07 567.18,-112.01"/>
</g>
<!-- :core:domain&#45;&gt;:core:data -->
<g id="edge29" class="edge">
<title>:core:domain&#45;&gt;:core:data</title>
<path fill="none" stroke="black" d="M607.73,-432.43C634.73,-407.21 686.26,-359.08 717.03,-330.33"/>
<polygon fill="black" stroke="black" points="719.46,-332.85 724.38,-323.46 714.68,-327.73 719.46,-332.85"/>
</g>
<!-- :core:domain&#45;&gt;:core:model -->
<g id="edge30" class="edge">
<title>:core:domain&#45;&gt;:core:model</title>
<path fill="none" stroke="black" d="M586.3,-431.82C577.5,-392.51 553.48,-293.46 519,-216 490.45,-151.85 406.52,-123.73 454,-72 490.01,-32.76 839.93,-22.51 996.23,-19.89"/>
<polygon fill="black" stroke="black" points="996.3,-23.38 1006.24,-19.72 996.19,-16.39 996.3,-23.38"/>
</g>
<!-- :core:domain&#45;&gt;:core:rule -->
<g id="edge34" class="edge">
<title>:core:domain&#45;&gt;:core:rule</title>
<path fill="none" stroke="red" stroke-width="2" d="M534.14,-438.9C461.07,-425.68 333.71,-402.64 260.05,-389.32"/>
<polygon fill="red" stroke="red" stroke-width="2" points="260.49,-385.84 250.03,-387.51 259.24,-392.73 260.49,-385.84"/>
</g>
<!-- :core:domain&#45;&gt;:core:component&#45;controller -->
<g id="edge32" class="edge">
<title>:core:domain&#45;&gt;:core:component&#45;controller</title>
<path fill="none" stroke="black" d="M554.39,-434.43C536.2,-425.53 514.85,-412.64 500,-396 465.03,-356.8 487.99,-326.26 452,-288 439.08,-274.26 421.8,-263.45 405.14,-255.27"/>
<polygon fill="black" stroke="black" points="406.52,-252.05 395.98,-250.99 403.56,-258.39 406.52,-252.05"/>
</g>
<!-- :core:domain&#45;&gt;:core:ifw&#45;api -->
<g id="edge33" class="edge">
<title>:core:domain&#45;&gt;:core:ifw&#45;api</title>
<path fill="none" stroke="black" d="M569.21,-432.65C558.38,-423.07 545.8,-410.1 538,-396 498.19,-324.02 549.69,-277.43 495,-216 475.4,-193.98 445.87,-181.1 418.57,-173.57"/>
<polygon fill="black" stroke="black" points="419.19,-170.11 408.63,-171.03 417.45,-176.9 419.19,-170.11"/>
</g>
<!-- :core:ifw&#45;api&#45;&gt;:core:common -->
<g id="edge51" class="edge">
<title>:core:ifw&#45;api&#45;&gt;:core:common</title>
<path fill="none" stroke="red" stroke-width="2" d="M387.59,-147C416.92,-136.08 457.87,-120.84 489.64,-109.01"/>
<polygon fill="red" stroke="red" stroke-width="2" points="491.03,-112.22 499.18,-105.45 488.59,-105.66 491.03,-112.22"/>
</g>
<!-- :core:database&#45;&gt;:core:model -->
<g id="edge42" class="edge">
<title>:core:database&#45;&gt;:core:model</title>
<path fill="none" stroke="black" d="M768.03,-77.65C777.7,-75.76 787.63,-73.82 797,-72 869.87,-57.83 953.66,-41.64 1009.2,-30.92"/>
<polygon fill="black" stroke="black" points="1010.08,-34.32 1019.23,-28.98 1008.75,-27.44 1010.08,-34.32"/>
</g>
<!-- :core:datastore&#45;&gt;:core:common -->
<g id="edge45" class="edge">
<title>:core:datastore&#45;&gt;:core:common</title>
<path fill="none" stroke="black" d="M796.12,-148.73C741.62,-136.54 658.16,-117.87 600.99,-105.09"/>
<polygon fill="black" stroke="black" points="601.51,-101.62 590.99,-102.85 599.98,-108.45 601.51,-101.62"/>
</g>
<!-- :core:datastore&#45;&gt;:core:model -->
<g id="edge44" class="edge">
<title>:core:datastore&#45;&gt;:core:model</title>
<path fill="none" stroke="black" d="M910.19,-149.49C956.01,-139.55 1014.65,-124.26 1033,-108 1051.01,-92.03 1060.76,-66.07 1065.86,-46.29"/>
<polygon fill="black" stroke="black" points="1069.32,-46.86 1068.18,-36.32 1062.5,-45.27 1069.32,-46.86"/>
</g>
<!-- :core:datastore&#45;proto -->
<g id="node24" class="node">
<title>:core:datastore&#45;proto</title>
<ellipse fill="none" stroke="black" cx="915" cy="-90" rx="108.58" ry="18"/>
<text text-anchor="middle" x="915" y="-86.3" font-family="Times,serif" font-size="14.00">:core:datastore&#45;proto</text>
</g>
<!-- :core:datastore&#45;&gt;:core:datastore&#45;proto -->
<g id="edge43" class="edge">
<title>:core:datastore&#45;&gt;:core:datastore&#45;proto</title>
<path fill="none" stroke="black" d="M866.49,-144.05C874.24,-135.58 883.76,-125.17 892.31,-115.82"/>
<polygon fill="black" stroke="black" points="895.04,-118.02 899.21,-108.28 889.87,-113.29 895.04,-118.02"/>
</g>
</g>
</svg>
