<svg xmlns="http://www.w3.org/2000/svg" width="1576" height="548pt" viewBox="0 0 1181.74 548">
    <g class="graph">
        <path fill="#fff" stroke="transparent" d="M0 548V0h1181.74v548H0z"/>
        <g class="node" transform="translate(4 544)">
            <ellipse cx="366.74" cy="-522" fill="none" stroke="#000" rx="103.98" ry="18"/>
            <text x="366.74" y="-518.3" font-family="Times,serif" font-size="14" text-anchor="middle">:feature:generalrule</text>
        </g>
        <g class="node" transform="translate(4 544)">
            <ellipse cx="330.74" cy="-450" fill="none" stroke="#000" rx="45.49" ry="18"/>
            <text x="330.74" y="-446.3" font-family="Times,serif" font-size="14" text-anchor="middle">:core:ui</text>
        </g>
        <g stroke="red" stroke-width="2" class="edge">
            <path fill="none" d="M362.03 39.95c-4.2 8.16-9.33 18.14-14.01 27.23"/>
            <path fill="red" d="m351.06 68.92-7.68 7.29 1.46-10.49 6.22 3.2z"/>
        </g>
        <g class="node" transform="translate(4 544)">
            <ellipse cx="100.74" cy="-378" fill="none" stroke="#000" rx="100.98" ry="18"/>
            <text x="100.74" y="-374.3" font-family="Times,serif" font-size="14" text-anchor="middle">:core:designsystem</text>
        </g>
        <g stroke="#000" class="edge">
            <path fill="none" d="M340.23 39.29c-48.38 25.82-142.65 76.15-196.08 104.67"/>
            <path d="m145.78 147.06-10.47 1.62 7.17-7.79 3.3 6.17z"/>
        </g>
        <g class="node" transform="translate(4 544)">
            <ellipse cx="693.74" cy="-234" fill="none" stroke="#000" rx="57.39" ry="18"/>
            <text x="693.74" y="-230.3" font-family="Times,serif" font-size="14" text-anchor="middle">:core:data</text>
        </g>
        <g stroke="#000" class="edge">
            <path fill="none" d="M390.22 40.03c56.04 49.02 217.72 190.43 281.35 246.08"/>
            <path d="m673.96 283.55 5.22 9.22-9.83-3.95 4.61-5.27z"/>
        </g>
        <g class="node" transform="translate(4 544)">
            <ellipse cx="764.74" cy="-378" fill="none" stroke="#000" rx="70.69" ry="18"/>
            <text x="764.74" y="-374.3" font-family="Times,serif" font-size="14" text-anchor="middle">:core:domain</text>
        </g>
        <g stroke="#000" class="edge">
            <path fill="none" d="M414.09 38.47c74.68 26.64 227.09 81.02 305.56 109.01"/>
            <path d="m721.06 144.27 8.24 6.66-10.6-.07 2.36-6.59z"/>
        </g>
        <g stroke="#000" class="edge">
            <path fill="none" d="M299.81 105.63c-36.14 11-93.23 28.38-136.33 41.49"/>
            <path d="m164.27 150.54-10.59-.43 8.55-6.26 2.04 6.69z"/>
        </g>
        <g stroke="red" stroke-width="2" class="edge">
            <path fill="none" d="M375.96 101.65c74.85 12.07 233.76 37.7 324.85 52.39"/>
            <path fill="red" d="m701.45 150.6 9.31 5.05-10.43 1.86 1.12-6.91z"/>
        </g>
        <g class="node" transform="translate(4 544)">
            <ellipse cx="335.74" cy="-162" fill="none" stroke="#000" rx="77.99" ry="18"/>
            <text x="335.74" y="-158.3" font-family="Times,serif" font-size="14" text-anchor="middle">:core:analytics</text>
        </g>
        <g stroke="#000" class="edge">
            <path fill="none" d="M335.04 112.03c.83 47.68 3.19 182.79 4.22 241.34"/>
            <path d="m342.76 353.63-3.32 10.06-3.68-9.93 7-.13z"/>
        </g>
        <g class="node" transform="translate(4 544)">
            <ellipse cx="481.74" cy="-18" fill="none" stroke="#000" rx="64.99" ry="18"/>
            <text x="481.74" y="-14.3" font-family="Times,serif" font-size="14" text-anchor="middle">:core:model</text>
        </g>
        <g stroke="#000" class="edge">
            <path fill="none" d="M313.81 110.32c-29.58 23.61-80.07 71.92-80.07 126.68v146c0 84.41 108.65 119.19 183.27 133.13"/>
            <path d="m418.06 512.76 9.23 5.2-10.45 1.69 1.22-6.89z"/>
        </g>
        <g stroke="#000" class="edge">
            <path fill="none" d="M650.57 320.22c-62.25 12.18-172.24 33.68-243.3 47.58"/>
            <path d="m407.57 371.3-10.49-1.51 9.14-5.36 1.35 6.87z"/>
        </g>
        <g class="node" transform="translate(4 544)">
            <ellipse cx="932.74" cy="-18" fill="none" stroke="#000" rx="75.29" ry="18"/>
            <text x="932.74" y="-14.3" font-family="Times,serif" font-size="14" text-anchor="middle">:core:common</text>
        </g>
        <g stroke="#000" class="edge">
            <path fill="none" d="M704.64 328.12c8.83 19.9 25.92 52.46 50.1 71.88 36.18 29.05 59.27 10.45 98 36 26.23 17.3 50.18 44.31 65.74 64.04"/>
            <path d="m921.28 497.94 3.34 10.06-8.88-5.78 5.54-4.28z"/>
        </g>
        <g class="node" transform="translate(4 544)">
            <ellipse cx="895.74" cy="-162" fill="none" stroke="#000" rx="135.68" ry="18"/>
            <text x="895.74" y="-158.3" font-family="Times,serif" font-size="14" text-anchor="middle">:core:component-controller</text>
        </g>
        <g stroke="red" stroke-width="2" class="edge">
            <path fill="none" d="M734.79 323.84c30.61 10.61 74.53 25.83 109.35 37.89"/>
            <path fill="red" d="m845.4 358.47 8.31 6.58-10.6.03 2.29-6.61z"/>
        </g>
        <g class="node" transform="translate(4 544)">
            <ellipse cx="548.74" cy="-162" fill="none" stroke="#000" rx="78.79" ry="18"/>
            <text x="548.74" y="-158.3" font-family="Times,serif" font-size="14" text-anchor="middle">:core:database</text>
        </g>
        <g stroke="#000" class="edge">
            <path fill="none" d="M667.7 325.5c-21.39 10.33-50.38 24.32-73.9 35.68"/>
            <path d="m595.29 364.35-10.53 1.19 7.48-7.5 3.05 6.31z"/>
        </g>
        <g class="node" transform="translate(4 544)">
            <ellipse cx="758.74" cy="-90" fill="none" stroke="#000" rx="81.49" ry="18"/>
            <text x="758.74" y="-86.3" font-family="Times,serif" font-size="14" text-anchor="middle">:core:datastore</text>
        </g>
        <g stroke="#000" class="edge">
            <path fill="none" d="M700.29 328.11c3.21 18.47 9.78 48.38 21.45 71.89 4.89 9.85 11.76 19.65 18.47 28.09"/>
            <path d="m743.11 426.1 3.69 9.94-9.07-5.47 5.38-4.47z"/>
        </g>
        <g class="node" transform="translate(4 544)">
            <ellipse cx="584.74" cy="-90" fill="none" stroke="#000" rx="74.99" ry="18"/>
            <text x="584.74" y="-86.3" font-family="Times,serif" font-size="14" text-anchor="middle">:core:network</text>
        </g>
        <g stroke="#000" class="edge">
            <path fill="none" d="M688.41 327.77c-10.58 18.42-28.8 48.55-47.67 72.23-8.03 10.08-17.72 20.37-26.55 29.17"/>
            <path d="m616.63 431.69-9.6 4.49 4.7-9.5 4.9 5.01z"/>
        </g>
        <g stroke="#000" class="edge">
            <path fill="none" d="M760.18 184.13a945846.6 945846.6 0 0 1-49.31 98.61"/>
            <path d="m713.94 284.43-7.6 7.38 1.34-10.51 6.26 3.13z"/>
        </g>
        <g stroke="#000" class="edge">
            <path fill="none" d="M725.55 180.35c-69.36 24.04-203.6 81.8-260.81 183.65-23.51 41.86-11.76 60.99-2 108 1.88 9.04 5.38 18.42 9.09 26.74"/>
            <path d="m475.06 497.39 1.14 10.54-7.46-7.53 6.32-3.01z"/>
        </g>
        <g stroke="#000" class="edge">
            <path fill="none" d="M829.97 175.26c114.1 17.1 347.77 61.02 347.77 133.74v74c0 79.2-97.8 115.12-168.79 130.76"/>
            <path d="m1009.63 517.19-10.51-1.36 9.06-5.49 1.45 6.85z"/>
        </g>
        <g stroke="#000" class="edge">
            <path fill="none" d="M779.24 184.15c22.9 37.41 77.45 126.53 104.6 170.87"/>
            <path d="m886.96 353.41 2.23 10.36-8.2-6.7 5.97-3.66z"/>
        </g>
        <g class="node" transform="translate(4 544)">
            <ellipse cx="1001.74" cy="-90" fill="none" stroke="#000" rx="67.69" ry="18"/>
            <text x="1001.74" y="-86.3" font-family="Times,serif" font-size="14" text-anchor="middle">:core:ifw-api</text>
        </g>
        <g stroke="#000" class="edge">
            <path fill="none" d="M832.89 173.65c40.35 6.66 91.95 19.95 130.85 46.35 63.85 43.34 76.48 69.61 97 144 4.26 15.42 6.26 21.28 0 36-4.98 11.73-13.98 22.12-23.26 30.52"/>
            <path d="m1039.58 433.32-9.9 3.78 5.39-9.12 4.51 5.34z"/>
        </g>
        <g class="node" transform="translate(4 544)">
            <ellipse cx="895.74" cy="-306" fill="none" stroke="#000" rx="55.49" ry="18"/>
            <text x="895.74" y="-302.3" font-family="Times,serif" font-size="14" text-anchor="middle">:core:rule</text>
        </g>
        <g stroke="red" stroke-width="2" class="edge">
            <path fill="none" d="M797.81 182.54c19.22 10.26 44.57 23.81 65.19 34.83"/>
            <path fill="red" d="m864.92 214.43 7.17 7.8-10.46-1.63 3.29-6.17z"/>
        </g>
        <g stroke="#000" class="edge">
            <path fill="none" d="M785.11 391.68c-109.2 9.34-259.95 25.41-280.37 44.32-16.71 15.47-20.62 41.72-20.86 61.72"/>
            <path d="m487.38 497.73-3.32 10.06-3.68-9.93 7-.13z"/>
        </g>
        <g stroke="#000" class="edge">
            <path fill="none" d="M904.2 400.13c6.34 24.31 18 69.05 25.5 97.86"/>
            <path d="m933.13 497.25-.87 10.56-5.91-8.79 6.78-1.77z"/>
        </g>
        <g stroke="red" stroke-width="2" class="edge">
            <path fill="none" d="M925.13 399.77c14.34 9.46 32.41 21.4 47.81 31.57"/>
            <path fill="red" d="m975.23 428.66 6.42 8.43-10.27-2.59 3.85-5.84z"/>
        </g>
        <g stroke="#000" class="edge">
            <path fill="none" d="M946.85 462.93c-97.4 13.11-291.45 39.23-394 53.04"/>
            <path d="m553.29 519.44-10.38-2.14 9.45-4.8.93 6.94z"/>
        </g>
        <g stroke="red" stroke-width="2" class="edge">
            <path fill="none" d="M989.39 471.59c-8.55 8.68-19.19 19.46-28.65 29.07"/>
            <path fill="red" d="m962.97 503.38-9.51 4.66 4.52-9.58 4.99 4.92z"/>
        </g>
        <g stroke="red" stroke-width="2" class="edge">
            <path fill="none" d="M863.16 251.68c-33.25 11.52-82.5 28.59-118.61 41.1"/>
            <path fill="red" d="m745.33 296.21-10.6-.03 8.3-6.58 2.3 6.61z"/>
        </g>
        <g stroke="#000" class="edge">
            <path fill="none" d="M940.11 250.29c24.57 8.42 55.4 21.93 77.63 41.71 52.45 46.68 54.63 74.55 65 144 2.36 15.82 9.18 22.9 0 36-15.92 22.71-42.61 35.73-68.86 43.18"/>
            <path d="m1014.43 518.65-10.56-.88 8.8-5.9 1.76 6.78z"/>
        </g>
        <g stroke="#000" class="edge">
            <path fill="none" d="M899.74 256.13v97.48"/>
            <path d="m903.24 353.81-3.5 10-3.5-10h7z"/>
        </g>
        <g stroke="#000" class="edge">
            <path fill="none" d="M928.33 253.59c34.99 19.65 92.53 58.29 116.41 110.41 6.67 14.55 4.99 20.8 0 36-3.37 10.26-9.56 20.16-16.04 28.58"/>
            <path d="m1031.28 430.96-9.06 5.5 3.65-9.95 5.41 4.45z"/>
        </g>
        <g stroke="#000" class="edge">
            <path fill="none" d="M514.88 397.83c-16.37 8.53-33.87 21.02-43.14 38.17-10.4 19.24-5.26 44.03 1.55 62.55"/>
            <path d="m476.55 497.28.49 10.58-6.98-7.96 6.49-2.62z"/>
        </g>
        <g stroke="#000" class="edge">
            <path fill="none" d="M711.29 468c-48.01 12.14-119.49 30.2-169.06 42.73"/>
            <path d="m542.86 514.17-10.55-.94 8.84-5.84 1.71 6.78z"/>
        </g>
        <g stroke="#000" class="edge">
            <path fill="none" d="M800.07 470.02c26.55 10.68 62.4 25.1 90.71 36.49"/>
            <path d="m892.1 503.27 7.97 6.98-10.58-.49 2.61-6.49z"/>
        </g>
        <g class="node" transform="translate(4 544)">
            <ellipse cx="730.74" cy="-18" fill="none" stroke="#000" rx="108.58" ry="18"/>
            <text x="730.74" y="-14.3" font-family="Times,serif" font-size="14" text-anchor="middle">:core:datastore-proto</text>
        </g>
        <g stroke="#000" class="edge">
            <path fill="none" d="M755.96 471.95c-3.15 7.87-6.97 17.43-10.5 26.26"/>
            <path d="m748.61 499.74-6.96 7.98.47-10.58 6.49 2.6z"/>
        </g>
        <g stroke="#000" class="edge">
            <path fill="none" d="M564.85 471.24c-14.01 9.52-31.89 21.67-47.1 32.01"/>
            <path d="m519.38 506.37-10.23 2.72 6.3-8.51 3.93 5.79z"/>
        </g>
        <g stroke="#000" class="edge">
            <path fill="none" d="M643.86 466.17c9.63 1.95 19.55 3.95 28.88 5.83 79.98 16.09 100.02 19.91 180 36 6.03 1.21 12.31 2.48 18.59 3.75"/>
            <path d="m872.06 508.32 9.11 5.41-10.5 1.45 1.39-6.86z"/>
        </g>
    </g>
</svg>
