<?xml version="1.0" encoding="UTF-8" standalone="no"?>
<!DOCTYPE svg PUBLIC "-//W3C//DTD SVG 1.1//EN" "http://www.w3.org/Graphics/SVG/1.1/DTD/svg11.dtd">
<svg xmlns="http://www.w3.org/2000/svg" xmlns:xlink="http://www.w3.org/1999/xlink" width="306pt" height="116pt" viewBox="0.00 0.00 306.39 116.00">
  <g id="graph0" class="graph" transform="scale(1 1) rotate(0) translate(4 112)">
    <title>G</title>
    <polygon fill="white" stroke="transparent" points="-4,4 -4,-112 302.39,-112 302.39,4 -4,4"/>
    <g id="node1" class="node">
      <title>:core:network</title>
      <ellipse fill="none" stroke="black" cx="154.39" cy="-90" rx="74.99" ry="18"/>
      <text text-anchor="middle" x="154.39" y="-86.3" font-family="Times,serif" font-size="14.00">:core:network</text>
    </g>
    <g id="node2" class="node">
      <title>:core:common</title>
      <ellipse fill="none" stroke="black" cx="75.39" cy="-18" rx="75.29" ry="18"/>
      <text text-anchor="middle" x="75.39" y="-14.3" font-family="Times,serif" font-size="14.00">:core:common</text>
    </g>
    <g id="edge1" class="edge">
      <title>:core:network-&gt;:core:common</title>
      <path fill="none" stroke="red" stroke-width="2" d="M135.67,-72.41C125.54,-63.43 112.85,-52.19 101.74,-42.34"/>
      <polygon fill="red" stroke="red" stroke-width="2" points="103.79,-39.48 93.98,-35.47 99.14,-44.72 103.79,-39.48"/>
    </g>
    <g id="node3" class="node">
      <title>:core:model</title>
      <ellipse fill="none" stroke="black" cx="233.39" cy="-18" rx="64.99" ry="18"/>
      <text text-anchor="middle" x="233.39" y="-14.3" font-family="Times,serif" font-size="14.00">:core:model</text>
    </g>
    <g id="edge2" class="edge">
      <title>:core:network-&gt;:core:model</title>
      <path fill="none" stroke="black" d="M173.12,-72.41C183.25,-63.43 195.93,-52.19 207.05,-42.34"/>
      <polygon fill="black" stroke="black" points="209.64,-44.72 214.81,-35.47 205,-39.48 209.64,-44.72"/>
    </g>
  </g>
</svg>
