<?xml version="1.0" encoding="UTF-8" standalone="no"?>
<!DOCTYPE svg PUBLIC "-//W3C//DTD SVG 1.1//EN" "http://www.w3.org/Graphics/SVG/1.1/DTD/svg11.dtd">
<svg xmlns="http://www.w3.org/2000/svg" xmlns:xlink="http://www.w3.org/1999/xlink" width="1184pt" height="476pt" viewBox="0.00 0.00 1184.28 476.00">
  <g id="graph0" class="graph" transform="scale(1 1) rotate(0) translate(4 472)">
    <title>G</title>
    <polygon fill="white" stroke="transparent" points="-4,4 -4,-472 1180.28,-472 1180.28,4 -4,4"/>
    <g id="node1" class="node">
      <title>:core:ui</title>
      <ellipse fill="none" stroke="black" cx="807.54" cy="-450" rx="45.49" ry="18"/>
      <text text-anchor="middle" x="807.54" y="-446.3" font-family="Times,serif" font-size="14.00">:core:ui</text>
    </g>
    <g id="node2" class="node">
      <title>:core:analytics</title>
      <ellipse fill="none" stroke="black" cx="109.54" cy="-162" rx="77.99" ry="18"/>
      <text text-anchor="middle" x="109.54" y="-158.3" font-family="Times,serif" font-size="14.00">:core:analytics</text>
    </g>
    <g id="edge1" class="edge">
      <title>:core:ui-&gt;:core:analytics</title>
      <path fill="none" stroke="black" d="M764.55,-443.65C658.52,-428.78 379.21,-379.35 187.54,-252 162.2,-235.16 140.08,-208.02 125.93,-188.14"/>
      <polygon fill="black" stroke="black" points="128.75,-186.07 120.18,-179.84 123,-190.05 128.75,-186.07"/>
    </g>
    <g id="node3" class="node">
      <title>:core:designsystem</title>
      <ellipse fill="none" stroke="black" cx="1075.54" cy="-378" rx="100.98" ry="18"/>
      <text text-anchor="middle" x="1075.54" y="-374.3" font-family="Times,serif" font-size="14.00">:core:designsystem</text>
    </g>
    <g id="edge2" class="edge">
      <title>:core:ui-&gt;:core:designsystem</title>
      <path fill="none" stroke="black" d="M844.52,-439.34C887.42,-428.14 958.91,-409.46 1011.02,-395.85"/>
      <polygon fill="black" stroke="black" points="1012.05,-399.2 1020.84,-393.29 1010.28,-392.43 1012.05,-399.2"/>
    </g>
    <g id="node4" class="node">
      <title>:core:model</title>
      <ellipse fill="none" stroke="black" cx="644.54" cy="-18" rx="64.99" ry="18"/>
      <text text-anchor="middle" x="644.54" y="-14.3" font-family="Times,serif" font-size="14.00">:core:model</text>
    </g>
    <g id="edge3" class="edge">
      <title>:core:ui-&gt;:core:model</title>
      <path fill="none" stroke="black" d="M836,-435.83C876.67,-414.82 946.54,-369.61 946.54,-307 946.54,-307 946.54,-307 946.54,-161 946.54,-60.58 808.11,-31.05 718.7,-22.44"/>
      <polygon fill="black" stroke="black" points="718.86,-18.95 708.59,-21.54 718.24,-25.92 718.86,-18.95"/>
    </g>
    <g id="node5" class="node">
      <title>:core:domain</title>
      <ellipse fill="none" stroke="black" cx="699.54" cy="-378" rx="70.69" ry="18"/>
      <text text-anchor="middle" x="699.54" y="-374.3" font-family="Times,serif" font-size="14.00">:core:domain</text>
    </g>
    <g id="edge4" class="edge">
      <title>:core:ui-&gt;:core:domain</title>
      <path fill="none" stroke="red" stroke-width="2" d="M784.9,-434.33C769.84,-424.56 749.79,-411.57 732.91,-400.63"/>
      <polygon fill="red" stroke="red" stroke-width="2" points="734.71,-397.62 724.41,-395.12 730.9,-403.5 734.71,-397.62"/>
    </g>
    <g id="edge6" class="edge">
      <title>:core:domain-&gt;:core:model</title>
      <path fill="none" stroke="black" d="M751.74,-365.69C813.65,-348.84 908.54,-310.67 908.54,-235 908.54,-235 908.54,-235 908.54,-161 908.54,-72.97 793.28,-39.27 715.07,-26.54"/>
      <polygon fill="black" stroke="black" points="715.19,-23.02 704.78,-24.95 714.12,-29.94 715.19,-23.02"/>
    </g>
    <g id="node6" class="node">
      <title>:core:data</title>
      <ellipse fill="none" stroke="black" cx="253.54" cy="-234" rx="57.39" ry="18"/>
      <text text-anchor="middle" x="253.54" y="-230.3" font-family="Times,serif" font-size="14.00">:core:data</text>
    </g>
    <g id="edge5" class="edge">
      <title>:core:domain-&gt;:core:data</title>
      <path fill="none" stroke="black" d="M657.18,-363.51C574.06,-337.05 390.05,-278.46 302.14,-250.47"/>
      <polygon fill="black" stroke="black" points="303.01,-247.08 292.42,-247.38 300.88,-253.75 303.01,-247.08"/>
    </g>
    <g id="node7" class="node">
      <title>:core:common</title>
      <ellipse fill="none" stroke="black" cx="310.54" cy="-18" rx="75.29" ry="18"/>
      <text text-anchor="middle" x="310.54" y="-14.3" font-family="Times,serif" font-size="14.00">:core:common</text>
    </g>
    <g id="edge7" class="edge">
      <title>:core:domain-&gt;:core:common</title>
      <path fill="none" stroke="black" d="M628.65,-377.39C451.49,-376.48 3.54,-361.64 3.54,-235 3.54,-235 3.54,-235 3.54,-161 3.54,-115.41 17.63,-98.76 54.54,-72 55.52,-71.29 169.83,-47.8 245.35,-32.33"/>
      <polygon fill="black" stroke="black" points="246.18,-35.73 255.27,-30.3 244.77,-28.87 246.18,-35.73"/>
    </g>
    <g id="node8" class="node">
      <title>:core:component-controller</title>
      <ellipse fill="none" stroke="black" cx="668.54" cy="-162" rx="135.68" ry="18"/>
      <text text-anchor="middle" x="668.54" y="-158.3" font-family="Times,serif" font-size="14.00">:core:component-controller</text>
    </g>
    <g id="edge8" class="edge">
      <title>:core:domain-&gt;:core:component-controller</title>
      <path fill="none" stroke="black" d="M697.06,-359.85C691.69,-322.83 679,-235.18 672.51,-190.39"/>
      <polygon fill="black" stroke="black" points="675.93,-189.63 671.04,-180.23 669.01,-190.63 675.93,-189.63"/>
    </g>
    <g id="node9" class="node">
      <title>:core:ifw-api</title>
      <ellipse fill="none" stroke="black" cx="740.54" cy="-90" rx="67.69" ry="18"/>
      <text text-anchor="middle" x="740.54" y="-86.3" font-family="Times,serif" font-size="14.00">:core:ifw-api</text>
    </g>
    <g id="edge9" class="edge">
      <title>:core:domain-&gt;:core:ifw-api</title>
      <path fill="none" stroke="black" d="M715.61,-360.35C745.1,-328.49 806.92,-255.35 829.54,-180 834.14,-164.68 837.45,-157.91 829.54,-144 820.77,-128.58 805.55,-117.17 790.15,-108.98"/>
      <polygon fill="black" stroke="black" points="791.62,-105.8 781.1,-104.52 788.52,-112.08 791.62,-105.8"/>
    </g>
    <g id="node10" class="node">
      <title>:core:rule</title>
      <ellipse fill="none" stroke="black" cx="616.54" cy="-306" rx="55.49" ry="18"/>
      <text text-anchor="middle" x="616.54" y="-302.3" font-family="Times,serif" font-size="14.00">:core:rule</text>
    </g>
    <g id="edge10" class="edge">
      <title>:core:domain-&gt;:core:rule</title>
      <path fill="none" stroke="red" stroke-width="2" d="M679.87,-360.41C668.96,-351.21 655.25,-339.64 643.37,-329.63"/>
      <polygon fill="red" stroke="red" stroke-width="2" points="645.4,-326.76 635.5,-322.99 640.89,-332.11 645.4,-326.76"/>
    </g>
    <g id="edge15" class="edge">
      <title>:core:data-&gt;:core:analytics</title>
      <path fill="none" stroke="black" d="M223.7,-218.5C202.56,-208.22 173.93,-194.3 150.63,-182.97"/>
      <polygon fill="black" stroke="black" points="151.86,-179.68 141.34,-178.46 148.8,-185.98 151.86,-179.68"/>
    </g>
    <g id="edge11" class="edge">
      <title>:core:data-&gt;:core:common</title>
      <path fill="none" stroke="black" d="M253.82,-215.99C254.81,-185.99 259.1,-122.13 277.54,-72 281,-62.59 286.27,-53.05 291.59,-44.72"/>
      <polygon fill="black" stroke="black" points="294.64,-46.46 297.3,-36.2 288.82,-42.56 294.64,-46.46"/>
    </g>
    <g id="edge16" class="edge">
      <title>:core:data-&gt;:core:component-controller</title>
      <path fill="none" stroke="red" stroke-width="2" d="M302.78,-224.7C370.45,-213.28 493.41,-192.54 577.95,-178.28"/>
      <polygon fill="red" stroke="red" stroke-width="2" points="578.78,-181.69 588.06,-176.57 577.62,-174.79 578.78,-181.69"/>
    </g>
    <g id="node11" class="node">
      <title>:core:database</title>
      <ellipse fill="none" stroke="black" cx="436.54" cy="-162" rx="78.79" ry="18"/>
      <text text-anchor="middle" x="436.54" y="-158.3" font-family="Times,serif" font-size="14.00">:core:database</text>
    </g>
    <g id="edge12" class="edge">
      <title>:core:data-&gt;:core:database</title>
      <path fill="none" stroke="black" d="M288.39,-219.67C316.77,-208.81 357.14,-193.37 388.58,-181.35"/>
      <polygon fill="black" stroke="black" points="389.93,-184.58 398.02,-177.73 387.43,-178.04 389.93,-184.58"/>
    </g>
    <g id="node12" class="node">
      <title>:core:datastore</title>
      <ellipse fill="none" stroke="black" cx="144.54" cy="-90" rx="81.49" ry="18"/>
      <text text-anchor="middle" x="144.54" y="-86.3" font-family="Times,serif" font-size="14.00">:core:datastore</text>
    </g>
    <g id="edge13" class="edge">
      <title>:core:data-&gt;:core:datastore</title>
      <path fill="none" stroke="black" d="M244.21,-216.23C233.63,-197.81 215.41,-167.68 196.54,-144 188.51,-133.92 178.82,-123.63 169.99,-114.83"/>
      <polygon fill="black" stroke="black" points="172.42,-112.31 162.83,-107.82 167.53,-117.32 172.42,-112.31"/>
    </g>
    <g id="node13" class="node">
      <title>:core:network</title>
      <ellipse fill="none" stroke="black" cx="432.54" cy="-90" rx="74.99" ry="18"/>
      <text text-anchor="middle" x="432.54" y="-86.3" font-family="Times,serif" font-size="14.00">:core:network</text>
    </g>
    <g id="edge14" class="edge">
      <title>:core:data-&gt;:core:network</title>
      <path fill="none" stroke="black" d="M269.17,-216.58C287.35,-197.92 318.67,-167.08 348.54,-144 363.37,-132.54 380.74,-121.26 395.83,-112.07"/>
      <polygon fill="black" stroke="black" points="397.65,-115.07 404.42,-106.92 394.04,-109.07 397.65,-115.07"/>
    </g>
    <g id="edge24" class="edge">
      <title>:core:component-controller-&gt;:core:model</title>
      <path fill="none" stroke="black" d="M665.65,-143.87C661.56,-119.67 654.04,-75.21 649.17,-46.39"/>
      <polygon fill="black" stroke="black" points="652.56,-45.47 647.45,-36.19 645.66,-46.63 652.56,-45.47"/>
    </g>
    <g id="edge23" class="edge">
      <title>:core:component-controller-&gt;:core:common</title>
      <path fill="none" stroke="black" d="M570.2,-149.53C482.71,-138.55 365.95,-121.67 348.54,-108 329.3,-92.89 319.65,-66.17 314.91,-45.94"/>
      <polygon fill="black" stroke="black" points="318.32,-45.13 312.85,-36.05 311.46,-46.55 318.32,-45.13"/>
    </g>
    <g id="edge25" class="edge">
      <title>:core:component-controller-&gt;:core:ifw-api</title>
      <path fill="none" stroke="red" stroke-width="2" d="M685.97,-144.05C694.99,-135.28 706.15,-124.43 716.03,-114.83"/>
      <polygon fill="red" stroke="red" stroke-width="2" points="718.54,-117.27 723.27,-107.79 713.66,-112.25 718.54,-117.27"/>
    </g>
    <g id="edge27" class="edge">
      <title>:core:ifw-api-&gt;:core:model</title>
      <path fill="none" stroke="black" d="M718.27,-72.76C705.43,-63.4 689.1,-51.49 675.07,-41.26"/>
      <polygon fill="black" stroke="black" points="676.83,-38.21 666.69,-35.15 672.7,-43.87 676.83,-38.21"/>
    </g>
    <g id="edge26" class="edge">
      <title>:core:ifw-api-&gt;:core:common</title>
      <path fill="none" stroke="red" stroke-width="2" d="M684.33,-79.85C606.45,-67.17 465.77,-44.27 380.98,-30.47"/>
      <polygon fill="red" stroke="red" stroke-width="2" points="381.36,-26.98 370.92,-28.83 380.23,-33.89 381.36,-26.98"/>
    </g>
    <g id="edge30" class="edge">
      <title>:core:rule-&gt;:core:data</title>
      <path fill="none" stroke="red" stroke-width="2" d="M568.33,-297.09C510.3,-287.38 410,-269.97 324.54,-252 318.82,-250.8 312.85,-249.48 306.92,-248.12"/>
      <polygon fill="red" stroke="red" stroke-width="2" points="307.54,-244.67 297.01,-245.81 305.96,-251.49 307.54,-244.67"/>
    </g>
    <g id="edge28" class="edge">
      <title>:core:rule-&gt;:core:common</title>
      <path fill="none" stroke="black" d="M572.34,-295.16C513.77,-279.97 410.61,-245.49 348.54,-180 313.98,-143.54 308.91,-81.75 309.16,-46.26"/>
      <polygon fill="black" stroke="black" points="312.66,-46.22 309.38,-36.14 305.66,-46.06 312.66,-46.22"/>
    </g>
    <g id="edge29" class="edge">
      <title>:core:rule-&gt;:core:component-controller</title>
      <path fill="none" stroke="black" d="M622.81,-287.87C631.75,-263.46 648.24,-218.43 658.79,-189.64"/>
      <polygon fill="black" stroke="black" points="662.09,-190.78 662.25,-180.19 655.52,-188.38 662.09,-190.78"/>
    </g>
    <g id="edge31" class="edge">
      <title>:core:rule-&gt;:core:ifw-api</title>
      <path fill="none" stroke="black" d="M655.41,-293.18C702.58,-276.49 779.97,-241.05 813.54,-180 821.25,-165.98 820.81,-158.25 813.54,-144 806.61,-130.4 794.36,-119.47 781.86,-111.15"/>
      <polygon fill="black" stroke="black" points="783.58,-108.09 773.23,-105.8 779.89,-114.04 783.58,-108.09"/>
    </g>
    <g id="edge17" class="edge">
      <title>:core:database-&gt;:core:model</title>
      <path fill="none" stroke="black" d="M461.5,-144.67C477.33,-134.26 498.21,-120.44 516.54,-108 549.94,-85.33 587.87,-58.87 613.71,-40.73"/>
      <polygon fill="black" stroke="black" points="615.82,-43.52 621.99,-34.91 611.79,-37.79 615.82,-43.52"/>
    </g>
    <g id="edge19" class="edge">
      <title>:core:datastore-&gt;:core:model</title>
      <path fill="none" stroke="black" d="M211.19,-79.67C306.88,-66.27 482.15,-41.73 577.86,-28.34"/>
      <polygon fill="black" stroke="black" points="578.57,-31.77 587.99,-26.92 577.6,-24.84 578.57,-31.77"/>
    </g>
    <g id="edge20" class="edge">
      <title>:core:datastore-&gt;:core:common</title>
      <path fill="none" stroke="black" d="M180.56,-73.81C205.53,-63.28 238.95,-49.19 265.66,-37.93"/>
      <polygon fill="black" stroke="black" points="267.31,-41.03 275.16,-33.92 264.59,-34.58 267.31,-41.03"/>
    </g>
    <g id="node14" class="node">
      <title>:core:datastore-proto</title>
      <ellipse fill="none" stroke="black" cx="108.54" cy="-18" rx="108.58" ry="18"/>
      <text text-anchor="middle" x="108.54" y="-14.3" font-family="Times,serif" font-size="14.00">:core:datastore-proto</text>
    </g>
    <g id="edge18" class="edge">
      <title>:core:datastore-&gt;:core:datastore-proto</title>
      <path fill="none" stroke="black" d="M135.83,-72.05C131.69,-64.01 126.65,-54.2 122.03,-45.23"/>
      <polygon fill="black" stroke="black" points="125.11,-43.57 117.42,-36.28 118.89,-46.77 125.11,-43.57"/>
    </g>
    <g id="edge22" class="edge">
      <title>:core:network-&gt;:core:model</title>
      <path fill="none" stroke="black" d="M474.68,-75.09C509.12,-63.72 557.89,-47.61 594.35,-35.57"/>
      <polygon fill="black" stroke="black" points="595.88,-38.75 604.28,-32.29 593.69,-32.11 595.88,-38.75"/>
    </g>
    <g id="edge21" class="edge">
      <title>:core:network-&gt;:core:common</title>
      <path fill="none" stroke="black" d="M404.86,-73.12C387.7,-63.27 365.47,-50.52 346.9,-39.86"/>
      <polygon fill="black" stroke="black" points="348.53,-36.76 338.11,-34.82 345.05,-42.83 348.53,-36.76"/>
    </g>
  </g>
</svg>
